<svg width="350" height="350" viewBox="0 0 350 350" fill="none" xmlns="http://www.w3.org/2000/svg">
<path opacity="0.3" fill-rule="evenodd" clip-rule="evenodd" d="M134.833 149.608L174.15 128.225C174.287 128.15 174.427 128.094 174.57 128.057C174.712 128.019 174.856 128 175 128C175.144 128 175.288 128.019 175.43 128.057C175.573 128.094 175.712 128.15 175.849 128.225L215.167 149.608C215.233 149.644 215.299 149.684 215.363 149.728C215.427 149.772 215.49 149.821 215.552 149.873C215.614 149.925 215.675 149.982 215.734 150.042C215.793 150.102 215.851 150.165 215.907 150.233C215.964 150.3 216.018 150.371 216.071 150.445C216.124 150.52 216.175 150.597 216.224 150.678C216.273 150.759 216.32 150.843 216.365 150.929C216.41 151.016 216.453 151.106 216.494 151.198C216.535 151.29 216.573 151.385 216.61 151.482C216.646 151.579 216.68 151.678 216.711 151.78C216.743 151.881 216.772 151.985 216.798 152.09C216.825 152.195 216.849 152.302 216.87 152.41C216.892 152.518 216.911 152.627 216.927 152.738C216.943 152.849 216.956 152.96 216.967 153.072C216.978 153.185 216.986 153.297 216.992 153.411C216.997 153.524 217 153.638 217 153.751V178.631C217 178.717 216.998 178.804 216.995 178.89C216.992 178.976 216.987 179.062 216.981 179.147C216.975 179.233 216.967 179.318 216.958 179.403C216.948 179.487 216.937 179.572 216.925 179.656C216.913 179.739 216.899 179.823 216.883 179.905C216.868 179.987 216.851 180.069 216.833 180.15C216.814 180.231 216.795 180.31 216.773 180.389C216.752 180.468 216.729 180.546 216.705 180.623C216.681 180.699 216.655 180.775 216.629 180.849C216.602 180.923 216.574 180.996 216.544 181.068C216.515 181.139 216.484 181.209 216.452 181.278C216.42 181.347 216.386 181.413 216.352 181.479C216.317 181.544 216.282 181.608 216.245 181.669C216.208 181.732 216.17 181.792 216.131 181.85C216.092 181.908 216.052 181.965 216.011 182.019C215.97 182.073 215.928 182.126 215.886 182.176C215.843 182.226 215.799 182.275 215.754 182.321C215.709 182.367 215.664 182.411 215.618 182.453C215.571 182.495 215.524 182.534 215.477 182.571C215.429 182.608 215.381 182.644 215.332 182.676C215.283 182.709 215.233 182.739 215.183 182.767C215.133 182.794 215.082 182.82 215.031 182.843C214.98 182.865 214.929 182.886 214.877 182.904C214.826 182.922 214.774 182.937 214.721 182.95C214.669 182.963 214.616 182.974 214.564 182.982C214.511 182.99 214.458 182.995 214.405 182.998C214.353 183.001 214.3 183.001 214.247 182.998C214.194 182.996 214.141 182.992 214.088 182.984C214.036 182.977 213.983 182.967 213.931 182.954C213.878 182.942 213.826 182.927 213.774 182.91C213.723 182.892 213.671 182.872 213.62 182.85C213.569 182.827 213.518 182.802 213.468 182.775L175.849 162.316C175.712 162.242 175.573 162.186 175.43 162.148C175.288 162.11 175.144 162.092 175 162.092C174.856 162.092 174.712 162.11 174.57 162.148C174.427 162.186 174.287 162.242 174.15 162.316L136.532 182.775C136.481 182.802 136.431 182.827 136.38 182.85C136.329 182.872 136.277 182.892 136.225 182.91C136.174 182.927 136.121 182.942 136.069 182.954C136.017 182.967 135.964 182.977 135.912 182.984C135.859 182.992 135.806 182.996 135.753 182.998C135.7 183.001 135.647 183.001 135.594 182.998C135.542 182.995 135.489 182.99 135.436 182.982C135.383 182.974 135.331 182.963 135.279 182.95C135.226 182.937 135.174 182.922 135.123 182.904C135.071 182.886 135.019 182.865 134.968 182.843C134.917 182.82 134.867 182.794 134.817 182.767C134.767 182.739 134.717 182.708 134.668 182.676C134.619 182.643 134.571 182.608 134.523 182.571C134.476 182.534 134.429 182.495 134.382 182.453C134.336 182.411 134.291 182.367 134.246 182.321C134.201 182.275 134.157 182.226 134.114 182.176C134.071 182.126 134.03 182.073 133.988 182.019C133.947 181.965 133.907 181.908 133.868 181.85C133.83 181.792 133.792 181.732 133.755 181.669C133.718 181.608 133.682 181.544 133.648 181.479C133.613 181.413 133.58 181.347 133.548 181.278C133.516 181.209 133.485 181.139 133.456 181.068C133.426 180.996 133.398 180.923 133.371 180.849C133.344 180.775 133.319 180.699 133.295 180.623C133.271 180.546 133.248 180.468 133.227 180.389C133.205 180.31 133.186 180.231 133.167 180.15C133.149 180.069 133.132 179.987 133.116 179.905C133.101 179.823 133.087 179.739 133.075 179.656C133.062 179.572 133.051 179.487 133.042 179.403C133.033 179.318 133.025 179.233 133.019 179.147C133.013 179.062 133.008 178.976 133.005 178.89C133.002 178.804 133 178.717 133 178.631V153.751C133 153.638 133.003 153.524 133.008 153.411C133.014 153.297 133.022 153.185 133.033 153.072C133.043 152.96 133.057 152.849 133.073 152.738C133.089 152.627 133.108 152.518 133.13 152.41C133.151 152.302 133.175 152.195 133.202 152.09C133.228 151.985 133.257 151.881 133.289 151.78C133.32 151.678 133.354 151.579 133.39 151.482C133.427 151.385 133.465 151.29 133.506 151.198C133.547 151.106 133.59 151.016 133.635 150.929C133.68 150.843 133.727 150.759 133.776 150.678C133.825 150.597 133.876 150.52 133.929 150.445C133.982 150.371 134.036 150.3 134.092 150.233C134.149 150.165 134.206 150.102 134.266 150.042C134.325 149.982 134.386 149.925 134.448 149.873C134.51 149.821 134.573 149.772 134.637 149.728C134.701 149.684 134.766 149.644 134.833 149.608Z" fill="#EDEFFF"/>
<path opacity="0.3" fill-rule="evenodd" clip-rule="evenodd" d="M134.833 29.6076L174.15 8.22488C174.287 8.15041 174.427 8.09432 174.57 8.05659C174.712 8.01886 174.856 8 175 8C175.144 8 175.288 8.01886 175.43 8.05659C175.573 8.09432 175.712 8.15041 175.849 8.22488L215.167 29.6076C215.233 29.6436 215.299 29.6838 215.363 29.7281C215.427 29.7724 215.49 29.8207 215.552 29.873C215.614 29.9253 215.675 29.9815 215.734 30.0416C215.793 30.1016 215.851 30.1653 215.907 30.2327C215.964 30.3001 216.018 30.371 216.071 30.4452C216.124 30.5196 216.175 30.5971 216.224 30.6779C216.273 30.7587 216.32 30.8425 216.365 30.9293C216.41 31.0161 216.453 31.1056 216.494 31.1979C216.535 31.2901 216.573 31.3848 216.61 31.482C216.646 31.5791 216.68 31.6784 216.711 31.7799C216.743 31.8813 216.772 31.9846 216.798 32.0897C216.825 32.1949 216.849 32.3016 216.87 32.4097C216.892 32.518 216.911 32.6273 216.927 32.7379C216.943 32.8485 216.956 32.96 216.967 33.0723C216.978 33.1846 216.986 33.2974 216.992 33.4107C216.997 33.5241 217 33.6376 217 33.7513V58.6313C217 58.7175 216.998 58.8037 216.995 58.8899C216.992 58.9758 216.987 59.0616 216.981 59.1472C216.975 59.2328 216.967 59.318 216.958 59.4027C216.948 59.4875 216.937 59.5718 216.925 59.6556C216.913 59.7395 216.899 59.8226 216.883 59.905C216.868 59.9874 216.851 60.069 216.833 60.1499C216.814 60.2305 216.795 60.3103 216.773 60.3891C216.752 60.468 216.729 60.5458 216.705 60.6226C216.681 60.6994 216.655 60.7749 216.629 60.849C216.602 60.9232 216.574 60.9961 216.544 61.0679C216.515 61.1394 216.484 61.2094 216.452 61.278C216.42 61.3465 216.386 61.4135 216.352 61.4788C216.317 61.5441 216.282 61.6077 216.245 61.6695C216.208 61.7315 216.17 61.7917 216.131 61.85C216.092 61.9082 216.052 61.9646 216.011 62.019C215.97 62.0734 215.928 62.1258 215.886 62.1761C215.843 62.2264 215.799 62.2747 215.754 62.3209C215.709 62.3671 215.664 62.4111 215.618 62.4528C215.571 62.4946 215.524 62.534 215.477 62.5711C215.429 62.6085 215.381 62.6435 215.332 62.6762C215.283 62.7085 215.233 62.7387 215.183 62.7666C215.133 62.7943 215.082 62.8196 215.031 62.8425C214.98 62.8655 214.929 62.8859 214.877 62.9039C214.826 62.9218 214.774 62.9373 214.721 62.9502C214.669 62.9632 214.616 62.9736 214.564 62.9816C214.511 62.9895 214.458 62.995 214.405 62.9979C214.353 63.0005 214.3 63.0007 214.247 62.9983C214.194 62.9963 214.141 62.9916 214.088 62.9842C214.036 62.9769 213.983 62.9669 213.931 62.9542C213.878 62.9418 213.826 62.927 213.774 62.9096C213.723 62.892 213.671 62.872 213.62 62.8496C213.569 62.8272 213.518 62.8024 213.468 62.775L175.849 42.3164C175.712 42.242 175.573 42.1858 175.43 42.1481C175.288 42.1104 175.144 42.0915 175 42.0915C174.856 42.0915 174.712 42.1104 174.57 42.1481C174.427 42.1858 174.287 42.242 174.15 42.3164L136.532 62.775C136.481 62.8024 136.431 62.8272 136.38 62.8496C136.329 62.872 136.277 62.892 136.225 62.9096C136.174 62.927 136.121 62.9418 136.069 62.9542C136.017 62.9669 135.964 62.9769 135.912 62.9842C135.859 62.9916 135.806 62.9963 135.753 62.9983C135.7 63.0007 135.647 63.0005 135.594 62.9979C135.542 62.995 135.489 62.9895 135.436 62.9816C135.383 62.9736 135.331 62.9632 135.279 62.9502C135.226 62.9373 135.174 62.9218 135.123 62.9039C135.071 62.8859 135.019 62.8655 134.968 62.8425C134.917 62.8196 134.867 62.7943 134.817 62.7666C134.767 62.7387 134.717 62.7084 134.668 62.6757C134.619 62.6434 134.571 62.6085 134.523 62.5711C134.476 62.534 134.429 62.4946 134.382 62.4528C134.336 62.4111 134.291 62.3671 134.246 62.3209C134.201 62.2747 134.157 62.2264 134.114 62.1761C134.071 62.1258 134.03 62.0734 133.988 62.019C133.947 61.9646 133.907 61.9082 133.868 61.85C133.83 61.7917 133.792 61.7315 133.755 61.6695C133.718 61.6077 133.682 61.5441 133.648 61.4788C133.613 61.4135 133.58 61.3465 133.548 61.278C133.516 61.2094 133.485 61.1394 133.456 61.0679C133.426 60.9961 133.398 60.9232 133.371 60.849C133.344 60.7749 133.319 60.6994 133.295 60.6226C133.271 60.5458 133.248 60.468 133.227 60.3891C133.205 60.3103 133.186 60.2305 133.167 60.1499C133.149 60.069 133.132 59.9874 133.116 59.905C133.101 59.8226 133.087 59.7395 133.075 59.6556C133.062 59.5718 133.051 59.4875 133.042 59.4027C133.033 59.318 133.025 59.2328 133.019 59.1472C133.013 59.0616 133.008 58.9758 133.005 58.8899C133.002 58.8037 133 58.7175 133 58.6313V33.7513C133 33.6376 133.003 33.5241 133.008 33.4107C133.014 33.2974 133.022 33.1846 133.033 33.0723C133.043 32.96 133.057 32.8485 133.073 32.7379C133.089 32.6273 133.108 32.5179 133.13 32.4097C133.151 32.3016 133.175 32.1949 133.202 32.0897C133.228 31.9846 133.257 31.8813 133.289 31.7798C133.32 31.6784 133.354 31.5791 133.39 31.4819C133.427 31.3848 133.465 31.2901 133.506 31.1978C133.547 31.1056 133.59 31.0161 133.635 30.9293C133.68 30.8425 133.727 30.7587 133.776 30.6779C133.825 30.5971 133.876 30.5196 133.929 30.4452C133.982 30.3709 134.036 30.3001 134.092 30.2327C134.149 30.1653 134.206 30.1016 134.266 30.0416C134.325 29.9815 134.386 29.9253 134.448 29.873C134.51 29.8207 134.573 29.7724 134.637 29.7281C134.701 29.6838 134.766 29.6436 134.833 29.6076Z" fill="#EDEFFF"/>
<path opacity="0.3" fill-rule="evenodd" clip-rule="evenodd" d="M134.833 269.608L174.15 248.225C174.287 248.15 174.427 248.094 174.57 248.057C174.712 248.019 174.856 248 175 248C175.144 248 175.288 248.019 175.43 248.057C175.573 248.094 175.712 248.15 175.849 248.225L215.167 269.608C215.233 269.644 215.299 269.684 215.363 269.728C215.427 269.772 215.49 269.821 215.552 269.873C215.614 269.925 215.675 269.982 215.734 270.042C215.793 270.102 215.851 270.165 215.907 270.233C215.964 270.3 216.018 270.371 216.071 270.445C216.124 270.52 216.175 270.597 216.224 270.678C216.273 270.759 216.32 270.843 216.365 270.929C216.41 271.016 216.453 271.106 216.494 271.198C216.535 271.29 216.573 271.385 216.61 271.482C216.646 271.579 216.68 271.678 216.711 271.78C216.743 271.881 216.772 271.985 216.798 272.09C216.825 272.195 216.849 272.302 216.87 272.41C216.892 272.518 216.911 272.627 216.927 272.738C216.943 272.849 216.956 272.96 216.967 273.072C216.978 273.185 216.986 273.297 216.992 273.411C216.997 273.524 217 273.638 217 273.751V298.631C217 298.717 216.998 298.804 216.995 298.89C216.992 298.976 216.987 299.062 216.981 299.147C216.975 299.233 216.967 299.318 216.958 299.403C216.948 299.487 216.937 299.572 216.925 299.656C216.913 299.739 216.899 299.823 216.883 299.905C216.868 299.987 216.851 300.069 216.833 300.15C216.814 300.231 216.795 300.31 216.773 300.389C216.752 300.468 216.729 300.546 216.705 300.623C216.681 300.699 216.655 300.775 216.629 300.849C216.602 300.923 216.574 300.996 216.544 301.068C216.515 301.139 216.484 301.209 216.452 301.278C216.42 301.347 216.386 301.413 216.352 301.479C216.317 301.544 216.282 301.608 216.245 301.669C216.208 301.732 216.17 301.792 216.131 301.85C216.092 301.908 216.052 301.965 216.011 302.019C215.97 302.073 215.928 302.126 215.886 302.176C215.843 302.226 215.799 302.275 215.754 302.321C215.709 302.367 215.664 302.411 215.618 302.453C215.571 302.495 215.524 302.534 215.477 302.571C215.429 302.608 215.381 302.644 215.332 302.676C215.283 302.709 215.233 302.739 215.183 302.767C215.133 302.794 215.082 302.82 215.031 302.843C214.98 302.865 214.929 302.886 214.877 302.904C214.826 302.922 214.774 302.937 214.721 302.95C214.669 302.963 214.616 302.974 214.564 302.982C214.511 302.99 214.458 302.995 214.405 302.998C214.353 303.001 214.3 303.001 214.247 302.998C214.194 302.996 214.141 302.992 214.088 302.984C214.036 302.977 213.983 302.967 213.931 302.954C213.878 302.942 213.826 302.927 213.774 302.91C213.723 302.892 213.671 302.872 213.62 302.85C213.569 302.827 213.518 302.802 213.468 302.775L175.849 282.316C175.712 282.242 175.573 282.186 175.43 282.148C175.288 282.11 175.144 282.092 175 282.092C174.856 282.092 174.712 282.11 174.57 282.148C174.427 282.186 174.287 282.242 174.15 282.316L136.532 302.775C136.481 302.802 136.431 302.827 136.38 302.85C136.329 302.872 136.277 302.892 136.225 302.91C136.174 302.927 136.121 302.942 136.069 302.954C136.017 302.967 135.964 302.977 135.912 302.984C135.859 302.992 135.806 302.996 135.753 302.998C135.7 303.001 135.647 303.001 135.594 302.998C135.542 302.995 135.489 302.99 135.436 302.982C135.383 302.974 135.331 302.963 135.279 302.95C135.226 302.937 135.174 302.922 135.123 302.904C135.071 302.886 135.019 302.865 134.968 302.843C134.917 302.82 134.867 302.794 134.817 302.767C134.767 302.739 134.717 302.708 134.668 302.676C134.619 302.643 134.571 302.608 134.523 302.571C134.476 302.534 134.429 302.495 134.382 302.453C134.336 302.411 134.291 302.367 134.246 302.321C134.201 302.275 134.157 302.226 134.114 302.176C134.071 302.126 134.03 302.073 133.988 302.019C133.947 301.965 133.907 301.908 133.868 301.85C133.83 301.792 133.792 301.732 133.755 301.669C133.718 301.608 133.682 301.544 133.648 301.479C133.613 301.413 133.58 301.347 133.548 301.278C133.516 301.209 133.485 301.139 133.456 301.068C133.426 300.996 133.398 300.923 133.371 300.849C133.344 300.775 133.319 300.699 133.295 300.623C133.271 300.546 133.248 300.468 133.227 300.389C133.205 300.31 133.186 300.231 133.167 300.15C133.149 300.069 133.132 299.987 133.116 299.905C133.101 299.823 133.087 299.739 133.075 299.656C133.062 299.572 133.051 299.487 133.042 299.403C133.033 299.318 133.025 299.233 133.019 299.147C133.013 299.062 133.008 298.976 133.005 298.89C133.002 298.804 133 298.717 133 298.631V273.751C133 273.638 133.003 273.524 133.008 273.411C133.014 273.297 133.022 273.185 133.033 273.072C133.043 272.96 133.057 272.849 133.073 272.738C133.089 272.627 133.108 272.518 133.13 272.41C133.151 272.302 133.175 272.195 133.202 272.09C133.228 271.985 133.257 271.881 133.289 271.78C133.32 271.678 133.354 271.579 133.39 271.482C133.427 271.385 133.465 271.29 133.506 271.198C133.547 271.106 133.59 271.016 133.635 270.929C133.68 270.843 133.727 270.759 133.776 270.678C133.825 270.597 133.876 270.52 133.929 270.445C133.982 270.371 134.036 270.3 134.092 270.233C134.149 270.165 134.206 270.102 134.266 270.042C134.325 269.982 134.386 269.925 134.448 269.873C134.51 269.821 134.573 269.772 134.637 269.728C134.701 269.684 134.766 269.644 134.833 269.608Z" fill="#EDEFFF"/>
</svg>
