<svg width="350" height="350" viewBox="0 0 350 350" fill="none" xmlns="http://www.w3.org/2000/svg">
<path opacity="0.6" fill-rule="evenodd" clip-rule="evenodd" d="M134.833 205.608L174.15 184.225C174.287 184.15 174.427 184.094 174.57 184.057C174.712 184.019 174.856 184 175 184C175.144 184 175.288 184.019 175.43 184.057C175.573 184.094 175.712 184.15 175.849 184.225L215.167 205.608C215.233 205.644 215.299 205.684 215.363 205.728C215.427 205.772 215.49 205.821 215.552 205.873C215.614 205.925 215.675 205.982 215.734 206.042C215.793 206.102 215.851 206.165 215.907 206.233C215.964 206.3 216.018 206.371 216.071 206.445C216.124 206.52 216.175 206.597 216.224 206.678C216.273 206.759 216.32 206.843 216.365 206.929C216.41 207.016 216.453 207.106 216.494 207.198C216.535 207.29 216.573 207.385 216.61 207.482C216.646 207.579 216.68 207.678 216.711 207.78C216.743 207.881 216.772 207.985 216.798 208.09C216.825 208.195 216.849 208.302 216.87 208.41C216.892 208.518 216.911 208.627 216.927 208.738C216.943 208.849 216.956 208.96 216.967 209.072C216.978 209.185 216.986 209.297 216.992 209.411C216.997 209.524 217 209.638 217 209.751V234.631C217 234.717 216.998 234.804 216.995 234.89C216.992 234.976 216.987 235.062 216.981 235.147C216.975 235.233 216.967 235.318 216.958 235.403C216.948 235.487 216.937 235.572 216.925 235.656C216.913 235.739 216.899 235.823 216.883 235.905C216.868 235.987 216.851 236.069 216.833 236.15C216.814 236.231 216.795 236.31 216.773 236.389C216.752 236.468 216.729 236.546 216.705 236.623C216.681 236.699 216.655 236.775 216.629 236.849C216.602 236.923 216.574 236.996 216.544 237.068C216.515 237.139 216.484 237.209 216.452 237.278C216.42 237.347 216.386 237.413 216.352 237.479C216.317 237.544 216.282 237.608 216.245 237.669C216.208 237.732 216.17 237.792 216.131 237.85C216.092 237.908 216.052 237.965 216.011 238.019C215.97 238.073 215.928 238.126 215.886 238.176C215.843 238.226 215.799 238.275 215.754 238.321C215.709 238.367 215.664 238.411 215.618 238.453C215.571 238.495 215.524 238.534 215.477 238.571C215.429 238.608 215.381 238.644 215.332 238.676C215.283 238.709 215.233 238.739 215.183 238.767C215.133 238.794 215.082 238.82 215.031 238.843C214.98 238.865 214.929 238.886 214.877 238.904C214.826 238.922 214.774 238.937 214.721 238.95C214.669 238.963 214.616 238.974 214.564 238.982C214.511 238.99 214.458 238.995 214.405 238.998C214.353 239.001 214.3 239.001 214.247 238.998C214.194 238.996 214.141 238.992 214.088 238.984C214.036 238.977 213.983 238.967 213.931 238.954C213.878 238.942 213.826 238.927 213.774 238.91C213.723 238.892 213.671 238.872 213.62 238.85C213.569 238.827 213.518 238.802 213.468 238.775L175.849 218.316C175.712 218.242 175.573 218.186 175.43 218.148C175.288 218.11 175.144 218.092 175 218.092C174.856 218.092 174.712 218.11 174.57 218.148C174.427 218.186 174.287 218.242 174.15 218.316L136.532 238.775C136.481 238.802 136.431 238.827 136.38 238.85C136.329 238.872 136.277 238.892 136.225 238.91C136.174 238.927 136.121 238.942 136.069 238.954C136.017 238.967 135.964 238.977 135.912 238.984C135.859 238.992 135.806 238.996 135.753 238.998C135.7 239.001 135.647 239.001 135.594 238.998C135.542 238.995 135.489 238.99 135.436 238.982C135.383 238.974 135.331 238.963 135.279 238.95C135.226 238.937 135.174 238.922 135.123 238.904C135.071 238.886 135.019 238.865 134.968 238.843C134.917 238.82 134.867 238.794 134.817 238.767C134.767 238.739 134.717 238.708 134.668 238.676C134.619 238.643 134.571 238.608 134.523 238.571C134.476 238.534 134.429 238.495 134.382 238.453C134.336 238.411 134.291 238.367 134.246 238.321C134.201 238.275 134.157 238.226 134.114 238.176C134.071 238.126 134.03 238.073 133.988 238.019C133.947 237.965 133.907 237.908 133.868 237.85C133.83 237.792 133.792 237.732 133.755 237.669C133.718 237.608 133.682 237.544 133.648 237.479C133.613 237.413 133.58 237.347 133.548 237.278C133.516 237.209 133.485 237.139 133.456 237.068C133.426 236.996 133.398 236.923 133.371 236.849C133.344 236.775 133.319 236.699 133.295 236.623C133.271 236.546 133.248 236.468 133.227 236.389C133.205 236.31 133.186 236.231 133.167 236.15C133.149 236.069 133.132 235.987 133.116 235.905C133.101 235.823 133.087 235.739 133.075 235.656C133.062 235.572 133.051 235.487 133.042 235.403C133.033 235.318 133.025 235.233 133.019 235.147C133.013 235.062 133.008 234.976 133.005 234.89C133.002 234.804 133 234.717 133 234.631V209.751C133 209.638 133.003 209.524 133.008 209.411C133.014 209.297 133.022 209.185 133.033 209.072C133.043 208.96 133.057 208.849 133.073 208.738C133.089 208.627 133.108 208.518 133.13 208.41C133.151 208.302 133.175 208.195 133.202 208.09C133.228 207.985 133.257 207.881 133.289 207.78C133.32 207.678 133.354 207.579 133.39 207.482C133.427 207.385 133.465 207.29 133.506 207.198C133.547 207.106 133.59 207.016 133.635 206.929C133.68 206.843 133.727 206.759 133.776 206.678C133.825 206.597 133.876 206.52 133.929 206.445C133.982 206.371 134.036 206.3 134.092 206.233C134.149 206.165 134.206 206.102 134.266 206.042C134.325 205.982 134.386 205.925 134.448 205.873C134.51 205.821 134.573 205.772 134.637 205.728C134.701 205.684 134.766 205.644 134.833 205.608Z" fill="#EDEFFF"/>
<path opacity="0.6" fill-rule="evenodd" clip-rule="evenodd" d="M134.833 84.6076L174.15 63.2249C174.287 63.1504 174.427 63.0943 174.57 63.0566C174.712 63.0189 174.856 63 175 63C175.144 63 175.288 63.0189 175.43 63.0566C175.573 63.0943 175.712 63.1504 175.849 63.2249L215.167 84.6076C215.233 84.6436 215.299 84.6838 215.363 84.7281C215.427 84.7724 215.49 84.8207 215.552 84.873C215.614 84.9253 215.675 84.9815 215.734 85.0416C215.793 85.1016 215.851 85.1653 215.907 85.2327C215.964 85.3001 216.018 85.371 216.071 85.4452C216.124 85.5196 216.175 85.5971 216.224 85.6779C216.273 85.7587 216.32 85.8425 216.365 85.9293C216.41 86.0161 216.453 86.1056 216.494 86.1979C216.535 86.2901 216.573 86.3848 216.61 86.482C216.646 86.5791 216.68 86.6784 216.711 86.7799C216.743 86.8813 216.772 86.9846 216.798 87.0897C216.825 87.1949 216.849 87.3016 216.87 87.4097C216.892 87.518 216.911 87.6274 216.927 87.7379C216.943 87.8485 216.956 87.96 216.967 88.0723C216.978 88.1846 216.986 88.2974 216.992 88.4107C216.997 88.5241 217 88.6376 217 88.7513V113.631C217 113.717 216.998 113.804 216.995 113.89C216.992 113.976 216.987 114.062 216.981 114.147C216.975 114.233 216.967 114.318 216.958 114.403C216.948 114.487 216.937 114.572 216.925 114.656C216.913 114.739 216.899 114.823 216.883 114.905C216.868 114.987 216.851 115.069 216.833 115.15C216.814 115.231 216.795 115.31 216.773 115.389C216.752 115.468 216.729 115.546 216.705 115.623C216.681 115.699 216.655 115.775 216.629 115.849C216.602 115.923 216.574 115.996 216.544 116.068C216.515 116.139 216.484 116.209 216.452 116.278C216.42 116.347 216.386 116.413 216.352 116.479C216.317 116.544 216.282 116.608 216.245 116.669C216.208 116.732 216.17 116.792 216.131 116.85C216.092 116.908 216.052 116.965 216.011 117.019C215.97 117.073 215.928 117.126 215.886 117.176C215.843 117.226 215.799 117.275 215.754 117.321C215.709 117.367 215.664 117.411 215.618 117.453C215.571 117.495 215.524 117.534 215.477 117.571C215.429 117.608 215.381 117.644 215.332 117.676C215.283 117.709 215.233 117.739 215.183 117.767C215.133 117.794 215.082 117.82 215.031 117.843C214.98 117.865 214.929 117.886 214.877 117.904C214.826 117.922 214.774 117.937 214.721 117.95C214.669 117.963 214.616 117.974 214.564 117.982C214.511 117.99 214.458 117.995 214.405 117.998C214.353 118.001 214.3 118.001 214.247 117.998C214.194 117.996 214.141 117.992 214.088 117.984C214.036 117.977 213.983 117.967 213.931 117.954C213.878 117.942 213.826 117.927 213.774 117.91C213.723 117.892 213.671 117.872 213.62 117.85C213.569 117.827 213.518 117.802 213.468 117.775L175.849 97.3164C175.712 97.242 175.573 97.1858 175.43 97.1481C175.288 97.1104 175.144 97.0915 175 97.0915C174.856 97.0915 174.712 97.1104 174.57 97.1481C174.427 97.1858 174.287 97.242 174.15 97.3164L136.532 117.775C136.481 117.802 136.431 117.827 136.38 117.85C136.329 117.872 136.277 117.892 136.225 117.91C136.174 117.927 136.121 117.942 136.069 117.954C136.017 117.967 135.964 117.977 135.912 117.984C135.859 117.992 135.806 117.996 135.753 117.998C135.7 118.001 135.647 118.001 135.594 117.998C135.542 117.995 135.489 117.99 135.436 117.982C135.383 117.974 135.331 117.963 135.279 117.95C135.226 117.937 135.174 117.922 135.123 117.904C135.071 117.886 135.019 117.865 134.968 117.843C134.917 117.82 134.867 117.794 134.817 117.767C134.767 117.739 134.717 117.708 134.668 117.676C134.619 117.643 134.571 117.608 134.523 117.571C134.476 117.534 134.429 117.495 134.382 117.453C134.336 117.411 134.291 117.367 134.246 117.321C134.201 117.275 134.157 117.226 134.114 117.176C134.071 117.126 134.03 117.073 133.988 117.019C133.947 116.965 133.907 116.908 133.868 116.85C133.83 116.792 133.792 116.732 133.755 116.669C133.718 116.608 133.682 116.544 133.648 116.479C133.613 116.413 133.58 116.347 133.548 116.278C133.516 116.209 133.485 116.139 133.456 116.068C133.426 115.996 133.398 115.923 133.371 115.849C133.344 115.775 133.319 115.699 133.295 115.623C133.271 115.546 133.248 115.468 133.227 115.389C133.205 115.31 133.186 115.231 133.167 115.15C133.149 115.069 133.132 114.987 133.116 114.905C133.101 114.823 133.087 114.739 133.075 114.656C133.062 114.572 133.051 114.487 133.042 114.403C133.033 114.318 133.025 114.233 133.019 114.147C133.013 114.062 133.008 113.976 133.005 113.89C133.002 113.804 133 113.717 133 113.631V88.7513C133 88.6376 133.003 88.5241 133.008 88.4107C133.014 88.2974 133.022 88.1846 133.033 88.0723C133.043 87.96 133.057 87.8485 133.073 87.7379C133.089 87.6273 133.108 87.5179 133.13 87.4097C133.151 87.3016 133.175 87.1949 133.202 87.0897C133.228 86.9846 133.257 86.8813 133.289 86.7798C133.32 86.6784 133.354 86.5791 133.39 86.4819C133.427 86.3848 133.465 86.2901 133.506 86.1978C133.547 86.1056 133.59 86.0161 133.635 85.9293C133.68 85.8425 133.727 85.7587 133.776 85.6779C133.825 85.5971 133.876 85.5196 133.929 85.4452C133.982 85.3709 134.036 85.3001 134.092 85.2327C134.149 85.1653 134.206 85.1016 134.266 85.0416C134.325 84.9815 134.386 84.9253 134.448 84.873C134.51 84.8207 134.573 84.7724 134.637 84.7281C134.701 84.6838 134.766 84.6436 134.833 84.6076Z" fill="#EDEFFF"/>
</svg>
