<svg width="350" height="350" viewBox="0 0 350 350" fill="none" xmlns="http://www.w3.org/2000/svg">
<g clip-path="url(#clip0_695_71)">
<path opacity="0.2" d="M37 28L40 32.5L37 37L34 32.5L37 28Z" fill="white"/>
<path opacity="0.2" d="M84.4224 8.76987L89.4994 10.6339L89.7315 16.0372L84.6545 14.1732L84.4224 8.76987Z" fill="white"/>
<path opacity="0.2" d="M140.252 192.084L143.124 196.667L139.999 201.081L137.127 196.498L140.252 192.084Z" fill="white"/>
<path opacity="0.2" d="M100.871 35.5213L103.744 40.1038L100.619 44.5177L97.7462 39.9352L100.871 35.5213Z" fill="white"/>
<path opacity="0.2" d="M294.043 251.619L291.201 256.221L285.861 255.367L288.703 250.766L294.043 251.619Z" fill="white"/>
<path opacity="0.2" d="M140.486 91.9008L135.252 93.2632L131.982 88.9559L137.215 87.5935L140.486 91.9008Z" fill="white"/>
<path opacity="0.2" d="M79.972 301.753L80.6279 307.121L75.9247 309.792L75.2688 304.423L79.972 301.753Z" fill="white"/>
<path opacity="0.2" d="M40.5916 145.19L41.2475 150.558L36.5443 153.229L35.8885 147.86L40.5916 145.19Z" fill="white"/>
<path opacity="0.2" d="M169.026 245.993L164.5 248.953L160.027 245.913L164.553 242.953L169.026 245.993Z" fill="white"/>
<path opacity="0.1" d="M268 272L271 276.5L268 281L265 276.5L268 272Z" fill="white"/>
<path opacity="0.1" d="M112.782 321.538L116.655 325.312L114.661 330.339L110.788 326.565L112.782 321.538Z" fill="white"/>
<path opacity="0.1" d="M183.235 102.622L187.811 105.505L186.91 110.837L182.334 107.954L183.235 102.622Z" fill="white"/>
<path opacity="0.1" d="M213.615 37.1486L218.191 40.0314L217.29 45.3641L212.714 42.4813L213.615 37.1486Z" fill="white"/>
<path opacity="0.2" d="M212.894 159.784L208.769 163.282L203.954 160.82L208.079 157.322L212.894 159.784Z" fill="white"/>
<path opacity="0.2" d="M243.274 94.3111L239.15 97.8091L234.334 95.347L238.459 91.849L243.274 94.3111Z" fill="white"/>
<path opacity="0.2" d="M173.514 3.22127L169.389 6.71928L164.574 4.25717L168.698 0.759159L173.514 3.22127Z" fill="white"/>
<path opacity="0.2" d="M355.113 302.518L350.153 300.363L350.234 294.955L355.195 297.11L355.113 302.518Z" fill="white"/>
<path opacity="0.2" d="M156.863 238.992L159.783 243.545L156.704 247.991L153.784 243.438L156.863 238.992Z" fill="white"/>
<path opacity="0.2" d="M117.483 82.4291L120.403 86.9816L117.323 91.4277L114.404 86.8753L117.483 82.4291Z" fill="white"/>
<path opacity="0.2" d="M259.3 287.246L256.506 291.876L251.157 291.078L253.951 286.447L259.3 287.246Z" fill="white"/>
<path opacity="0.2" d="M73.5 237L77 243.5L73.5 250L70 243.5L73.5 237Z" fill="white"/>
<path opacity="0.2" d="M34.1196 80.437L37.6196 86.937L34.1196 93.437L30.6196 86.937L34.1196 80.437Z" fill="white"/>
<path opacity="0.2" d="M224.258 211.579L219.973 217.59L212.596 217.322L216.881 211.311L224.258 211.579Z" fill="white"/>
<path opacity="0.2" d="M254.639 146.106L250.354 152.117L242.976 151.849L247.261 145.837L254.639 146.106Z" fill="white"/>
<path opacity="0.2" d="M321.826 328.065L328.487 331.249L329.495 338.562L322.834 335.378L321.826 328.065Z" fill="white"/>
<path opacity="0.2" d="M143.909 328.563L147.225 335.158L143.544 341.558L140.228 334.962L143.909 328.563Z" fill="white"/>
<path opacity="0.6" d="M274.5 136L278 141L274.5 146L271 141L274.5 136Z" fill="white"/>
<path opacity="0.6" d="M304.88 70.5269L308.38 75.5269L304.88 80.5269L301.38 75.5269L304.88 70.5269Z" fill="white"/>
<path opacity="0.6" d="M90.7471 187.177L95.2138 191.336L92.8347 196.957L88.368 192.798L90.7471 187.177Z" fill="white"/>
<path opacity="0.6" d="M51.3667 30.6141L55.8334 34.7732L53.4543 40.3937L48.9877 36.2346L51.3667 30.6141Z" fill="white"/>
<path opacity="0.6" d="M276.574 205.04L274.817 210.885L268.723 211.233L270.481 205.389L276.574 205.04Z" fill="white"/>
<path opacity="0.6" d="M306.955 139.567L305.197 145.411L299.104 145.76L300.862 139.916L306.955 139.567Z" fill="white"/>
<path opacity="0.2" d="M160.045 46.1595L154.735 49.1697L150.09 45.2114L155.399 42.2012L160.045 46.1595Z" fill="white"/>
<path opacity="0.2" d="M37.2307 276.298L39.5098 281.959L34.9701 286.039L32.691 280.377L37.2307 276.298Z" fill="white"/>
<path opacity="0.6" d="M347.667 233.247L351.025 238.344L347.386 243.243L344.028 238.147L347.667 233.247Z" fill="white"/>
<path opacity="0.6" d="M82.5 110L88 116.5L82.5 123L77 116.5L82.5 110Z" fill="white"/>
<path opacity="0.2" d="M236.132 61.4889L228.28 64.7811L223.733 57.5818L231.586 54.2896L236.132 61.4889Z" fill="white"/>
<path opacity="0.2" d="M266.513 -3.98426L258.66 -0.69206L254.114 -7.89131L261.966 -11.1835L266.513 -3.98426Z" fill="white"/>
<path opacity="0.2" d="M62.5205 202.917L64.7417 211.137L57.0028 214.688L54.7817 206.468L62.5205 202.917Z" fill="white"/>
<path opacity="0.2" d="M23.1402 46.3539L25.3613 54.5738L17.6225 58.1249L15.4013 49.905L23.1402 46.3539Z" fill="white"/>
<path opacity="0.2" d="M249.984 186.671L243.591 192.295L236.986 186.922L243.379 181.298L249.984 186.671Z" fill="white"/>
<path opacity="0.2" d="M280.364 121.198L273.971 126.822L267.367 121.449L273.76 115.824L280.364 121.198Z" fill="white"/>
<path opacity="0.6" d="M162.534 37.654L170.809 39.6582L170.203 48.1513L161.927 46.1471L162.534 37.654Z" fill="white"/>
<path opacity="0.2" d="M281.08 159.565L276.681 166.856L268.763 163.725L273.162 156.434L281.08 159.565Z" fill="white"/>
<path opacity="0.2" d="M311.46 94.0923L307.062 101.383L299.144 98.2515L303.542 90.9609L311.46 94.0923Z" fill="white"/>
<path opacity="0.2" d="M165.693 171.38L172.336 176.708L168.181 184.14L161.539 178.813L165.693 171.38Z" fill="white"/>
<path opacity="0.2" d="M126.313 14.8174L132.955 20.1446L128.801 27.5771L122.159 22.25L126.313 14.8174Z" fill="white"/>
<path opacity="0.2" d="M323.857 265.296L322.013 273.609L313.51 273.166L315.354 264.853L323.857 265.296Z" fill="white"/>
<path opacity="0.6" d="M167.863 175.154L173.178 181.806L167.498 188.149L162.183 181.497L167.863 175.154Z" fill="white"/>
<path opacity="0.6" d="M128.483 18.5915L133.798 25.2434L128.118 31.5864L122.802 24.9344L128.483 18.5915Z" fill="white"/>
<path opacity="0.6" d="M321.43 268.91L317.811 276.617L309.611 274.324L313.23 266.616L321.43 268.91Z" fill="white"/>
<path opacity="0.2" d="M148.335 123.324L140.393 126.394L136.05 119.07L143.992 116L148.335 123.324Z" fill="white"/>
<path opacity="0.2" d="M112.159 298.143L114.148 306.422L106.312 309.754L104.323 301.475L112.159 298.143Z" fill="white"/>
<path opacity="0.2" d="M72.7782 141.58L74.7676 149.859L66.9321 153.191L64.9427 144.912L72.7782 141.58Z" fill="white"/>
<path opacity="0.2" d="M186.485 273.273L179.937 278.715L173.486 273.158L180.034 267.716L186.485 273.273Z" fill="white"/>
<path opacity="0.2" d="M162 221L166 226L162 231L158 226L162 221Z" fill="white"/>
<path opacity="0.2" d="M122.62 64.437L126.62 69.437L122.62 74.437L118.62 69.437L122.62 64.437Z" fill="white"/>
<path opacity="0.2" d="M277.711 283.905L274.993 289.702L268.74 288.323L271.458 282.525L277.711 283.905Z" fill="white"/>
<path opacity="0.2" d="M10.9119 298.835L15.8675 302.89L12.9995 308.615L8.04381 304.56L10.9119 298.835Z" fill="white"/>
<path opacity="0.2" d="M65.6499 99.3491L71.3429 102.28L69.7331 108.477L64.0402 105.547L65.6499 99.3491Z" fill="white"/>
<path opacity="0.2" d="M251.355 48.6189L246.849 53.1678L241.421 49.7699L245.928 45.221L251.355 48.6189Z" fill="white"/>
<path opacity="0.2" d="M51.784 186.121L55.6948 191.191L51.6068 196.12L47.6961 191.05L51.784 186.121Z" fill="white"/>
<path opacity="0.2" d="M12.4037 29.5582L16.3144 34.6283L12.2264 39.5566L8.31568 34.4865L12.4037 29.5582Z" fill="white"/>
<path opacity="0.2" d="M260.308 169.619L257.488 175.368L251.26 173.877L254.081 168.129L260.308 169.619Z" fill="white"/>
<path opacity="0.2" d="M290.689 104.146L287.868 109.894L281.641 108.404L284.461 102.656L290.689 104.146Z" fill="white"/>
<path opacity="0.2" d="M292.207 80.388L298.387 82.0658L298.106 88.4628L291.927 86.785L292.207 80.388Z" fill="white"/>
<path opacity="0.2" d="M322.588 14.9148L328.767 16.5927L328.487 22.9897L322.307 21.3118L322.588 14.9148Z" fill="white"/>
<path opacity="0.2" d="M232.825 315.055L236.683 320.166L232.544 325.051L228.686 319.941L232.825 315.055Z" fill="white"/>
<path opacity="0.2" d="M203 136L207 141L203 146L199 141L203 136Z" fill="white"/>
<path opacity="0.2" d="M233.38 70.5269L237.38 75.5269L233.38 80.5269L229.38 75.5269L233.38 70.5269Z" fill="white"/>
<path opacity="0.2" d="M20.8225 202.103L25.7782 206.158L22.9101 211.883L17.9545 207.828L20.8225 202.103Z" fill="white"/>
<path opacity="0.2" d="M68.3681 5.01661L74.0611 7.9475L72.4514 14.145L66.7584 11.2141L68.3681 5.01661Z" fill="white"/>
<path opacity="0.2" d="M276.196 231.239L280.054 236.35L275.915 241.235L272.057 236.125L276.196 231.239Z" fill="white"/>
<path opacity="0.2" d="M34 318L38 324.5L34 331L30 324.5L34 318Z" fill="white"/>
<path opacity="0.2" d="M246.069 234.221L253.133 237.11L253.737 244.718L246.673 241.829L246.069 234.221Z" fill="white"/>
<path opacity="0.2" d="M245.5 49L251 55.5L245.5 62L240 55.5L245.5 49Z" fill="white"/>
<path opacity="0.2" d="M44.224 108.148L50.9598 113.357L46.9379 120.862L40.2022 115.653L44.224 108.148Z" fill="white"/>
<path opacity="0.2" d="M321.122 145.467L326.438 152.119L320.757 158.462L315.442 151.81L321.122 145.467Z" fill="white"/>
<path opacity="0.2" d="M351.503 79.9938L356.818 86.6457L351.138 92.9887L345.822 86.3368L351.503 79.9938Z" fill="white"/>
<path opacity="0.5" d="M147.5 43L153 49.5L147.5 56L142 49.5L147.5 43Z" fill="white"/>
<path opacity="0.2" d="M280.499 143.62L272.647 146.912L268.1 139.713L275.953 136.421L280.499 143.62Z" fill="white"/>
<path opacity="0.2" d="M310.88 78.1471L303.027 81.4393L298.481 74.24L306.333 70.9478L310.88 78.1471Z" fill="white"/>
<path opacity="0.2" d="M149.813 169.84L152.034 178.06L144.295 181.611L142.074 173.391L149.813 169.84Z" fill="white"/>
<path opacity="0.2" d="M110.432 13.2768L112.653 21.4967L104.914 25.0477L102.693 16.8279L110.432 13.2768Z" fill="white"/>
<path opacity="0.2" d="M318.223 250.369L311.83 255.993L305.226 250.619L311.618 244.995L318.223 250.369Z" fill="white"/>
<path opacity="0.5" d="M223.329 136.717L228.644 143.369L222.964 149.712L217.648 143.06L223.329 136.717Z" fill="white"/>
<path opacity="0.5" d="M253.709 71.2443L259.025 77.8962L253.344 84.2392L248.029 77.5873L253.709 71.2443Z" fill="white"/>
<path opacity="0.5" d="M117.5 213L123 219.5L117.5 226L112 219.5L117.5 213Z" fill="white"/>
<path opacity="0.5" d="M78.1196 56.437L83.6196 62.937L78.1196 69.437L72.6196 62.937L78.1196 56.437Z" fill="white"/>
<path opacity="0.5" d="M265.228 240.449L261.826 248.255L253.565 246.192L256.967 238.386L265.228 240.449Z" fill="white"/>
<path opacity="0.5" d="M21.7618 110.217L29.4365 113.904L27.07 122.084L19.3953 118.396L21.7618 110.217Z" fill="white"/>
<path opacity="0.5" d="M251.555 100.178L259.83 102.182L259.224 110.675L250.948 108.671L251.555 100.178Z" fill="white"/>
<path opacity="0.5" d="M281.935 34.7048L290.211 36.709L289.604 45.2021L281.328 43.1978L281.935 34.7048Z" fill="white"/>
<path opacity="0.5" d="M188.567 305.807L193.882 312.459L188.202 318.802L182.886 312.15L188.567 305.807Z" fill="white"/>
<path opacity="0.2" d="M254.5 162L260 168.5L254.5 175L249 168.5L254.5 162Z" fill="white"/>
<path opacity="0.2" d="M284.88 96.5269L290.38 103.027L284.88 109.527L279.38 103.027L284.88 96.5269Z" fill="white"/>
<path opacity="0.2" d="M143.379 166.148L150.115 171.357L146.093 178.862L139.357 173.653L143.379 166.148Z" fill="white"/>
<path opacity="0.2" d="M103.998 9.58521L110.734 14.7938L106.712 22.2988L99.9766 17.0902L103.998 9.58521Z" fill="white"/>
<path opacity="0.2" d="M318.693 242.966L316.996 251.31L308.486 251.018L310.183 242.674L318.693 242.966Z" fill="white"/>
<path opacity="0.2" d="M164.283 102.678L157.291 107.537L151.342 101.445L158.334 96.5864L164.283 102.678Z" fill="white"/>
<path opacity="0.2" d="M93.8117 279.596L97.6999 287.171L90.8729 292.259L86.9847 284.684L93.8117 279.596Z" fill="white"/>
<path opacity="0.2" d="M54.4314 123.033L58.3196 130.608L51.4925 135.696L47.6043 128.121L54.4314 123.033Z" fill="white"/>
<path opacity="0.2" d="M195.018 248.619L189.94 255.454L182.359 251.578L187.437 244.743L195.018 248.619Z" fill="white"/>
<path opacity="0.2" d="M125.996 7.72199L133.67 11.4097L131.304 19.5889L123.629 15.9012L125.996 7.72199Z" fill="white"/>
<path opacity="0.2" d="M326.945 258.676L332.26 265.328L326.579 271.671L321.264 265.019L326.945 258.676Z" fill="white"/>
<path opacity="0.7" d="M106.5 162L112 168.5L106.5 175L101 168.5L106.5 162Z" fill="white"/>
<path opacity="0.7" d="M67.1196 5.43701L72.6196 11.937L67.1196 18.437L61.6196 11.937L67.1196 5.43701Z" fill="white"/>
<path opacity="0.7" d="M306.121 208.049L302.719 215.855L294.458 213.792L297.86 205.986L306.121 208.049Z" fill="white"/>
<path opacity="0.7" d="M336.501 142.576L333.1 150.382L324.839 148.319L328.24 140.513L336.501 142.576Z" fill="white"/>
<path opacity="0.2" d="M179.323 68.7511L171.471 72.0433L166.924 64.844L174.777 61.5518L179.323 68.7511Z" fill="white"/>
<path opacity="0.2" d="M62.1802 260.187L64.4014 268.407L56.6625 271.958L54.4413 263.738L62.1802 260.187Z" fill="white"/>
<path opacity="0.2" d="M22.7998 103.624L25.021 111.844L17.2821 115.395L15.061 107.176L22.7998 103.624Z" fill="white"/>
<path opacity="0.2" d="M198.455 211.668L192.062 217.292L185.457 211.918L191.85 206.294L198.455 211.668Z" fill="white"/>
<path opacity="0.2" d="M228.835 146.195L222.443 151.819L215.838 146.445L222.231 140.821L228.835 146.195Z" fill="white"/>
<path opacity="0.7" d="M-9.10391 68.1541L-1.4292 71.8418L-3.7957 80.021L-11.4704 76.3333L-9.10391 68.1541Z" fill="white"/>
<path opacity="0.7" d="M212.588 65.4861L220.864 67.4903L220.257 75.9833L211.981 73.9791L212.588 65.4861Z" fill="white"/>
<path opacity="0.7" d="M242.968 0.0129148L251.244 2.01714L250.637 10.5102L242.362 8.50596L242.968 0.0129148Z" fill="white"/>
<path opacity="0.7" d="M179.003 254.519L184.318 261.171L178.638 267.514L173.322 260.862L179.003 254.519Z" fill="white"/>
<path opacity="0.7" d="M139.622 97.9562L144.938 104.608L139.257 110.951L133.942 104.299L139.622 97.9562Z" fill="white"/>
<path opacity="0.7" d="M255.152 313.967L251.533 321.674L243.333 319.38L246.952 311.673L255.152 313.967Z" fill="white"/>
<path opacity="0.7" d="M218.5 202L224 208.5L218.5 215L213 208.5L218.5 202Z" fill="white"/>
<path opacity="0.7" d="M248.88 136.527L254.38 143.027L248.88 149.527L243.38 143.027L248.88 136.527Z" fill="white"/>
<path opacity="0.7" d="M179.12 45.437L184.62 51.937L179.12 58.437L173.62 51.937L179.12 45.437Z" fill="white"/>
<path opacity="0.7" d="M319.717 326.198L316.316 334.004L308.055 331.941L311.456 324.135L319.717 326.198Z" fill="white"/>
<path opacity="0.7" d="M49.7592 263.414L56.495 268.622L52.4731 276.127L45.7373 270.919L49.7592 263.414Z" fill="white"/>
<path opacity="0.7" d="M10.3788 106.851L17.1146 112.059L13.0927 119.564L6.35695 114.356L10.3788 106.851Z" fill="white"/>
<path opacity="0.7" d="M190.073 201.95L188.376 210.294L179.866 210.001L181.563 201.658L190.073 201.95Z" fill="white"/>
<path opacity="0.7" d="M220.453 136.477L218.756 144.821L210.247 144.528L211.944 136.184L220.453 136.477Z" fill="white"/>
<path opacity="0.7" d="M109.466 58.9354L117.141 62.623L114.775 70.8023L107.1 67.1146L109.466 58.9354Z" fill="white"/>
<path opacity="0.2" d="M276.732 102.556L270.908 108.767L263.818 104.052L269.642 97.8404L276.732 102.556Z" fill="white"/>
<path opacity="0.2" d="M307.112 37.0826L301.288 43.2942L294.198 38.5789L300.022 32.3673L307.112 37.0826Z" fill="white"/>
<path opacity="0.2" d="M108.611 168.125L113.995 174.722L108.381 181.123L102.997 174.527L108.611 168.125Z" fill="white"/>
<path opacity="0.2" d="M69.2306 11.5623L74.6145 18.1588L69.0002 24.5603L63.6162 17.9638L69.2306 11.5623Z" fill="white"/>
<path opacity="0.2" d="M301.558 212.649L298.019 220.393L289.796 218.185L293.335 210.44L301.558 212.649Z" fill="white"/>
<path opacity="0.2" d="M331.939 147.176L328.4 154.92L320.176 152.711L323.715 144.967L331.939 147.176Z" fill="white"/>
<path opacity="0.7" d="M326.621 31.7175L334.897 33.7217L334.29 42.2148L326.014 40.2105L326.621 31.7175Z" fill="white"/>
<path opacity="0.7" d="M289.835 297.649L295.15 304.301L289.47 310.644L284.154 303.992L289.835 297.649Z" fill="white"/>
<path opacity="0.2" d="M212.5 277L218 283.5L212.5 290L207 283.5L212.5 277Z" fill="white"/>
<path opacity="0.2" d="M173.12 120.437L178.62 126.937L173.12 133.437L167.62 126.937L173.12 120.437Z" fill="white"/>
<path opacity="0.2" d="M249.783 353.95L246.382 361.756L238.12 359.693L241.522 351.887L249.783 353.95Z" fill="white"/>
<path opacity="0.2" d="M59.5487 338.014L66.2845 343.223L62.2626 350.727L55.5269 345.519L59.5487 338.014Z" fill="white"/>
<path opacity="0.2" d="M134.614 129.848L142.289 133.536L139.922 141.715L132.247 138.027L134.614 129.848Z" fill="white"/>
<path opacity="0.2" d="M201.539 105.228L195.716 111.44L188.626 106.724L194.449 100.513L201.539 105.228Z" fill="white"/>
<path opacity="0.2" d="M231.92 39.755L226.096 45.9665L219.006 41.2512L224.83 35.0397L231.92 39.755Z" fill="white"/>
<path opacity="0.2" d="M101.282 243.008L106.666 249.604L101.052 256.006L95.668 249.409L101.282 243.008Z" fill="white"/>
<path opacity="0.2" d="M61.902 86.4446L67.2859 93.0411L61.6716 99.4426L56.2876 92.8461L61.902 86.4446Z" fill="white"/>
<path opacity="0.2" d="M231.143 239.157L227.604 246.901L219.38 244.693L222.92 236.949L231.143 239.157Z" fill="white"/>
<path opacity="0.2" d="M142.5 275L148 279.5L142.5 284L137 279.5L142.5 275Z" fill="white"/>
<path opacity="0.2" d="M103.12 118.437L108.62 122.937L103.12 127.437L97.6196 122.937L103.12 118.437Z" fill="white"/>
<path opacity="0.2" d="M220.652 290.268L219.044 297.19L212.578 294.244L214.185 287.322L220.652 290.268Z" fill="white"/>
<path opacity="0.2" d="M69.899 156.605L76.7571 158.467L73.5739 164.82L66.7159 162.958L69.899 156.605Z" fill="white"/>
<path opacity="0.2" d="M30.5187 0.0418158L37.3767 1.9038L34.1936 8.25735L27.3355 6.39536L30.5187 0.0418158Z" fill="white"/>
<path opacity="0.2" d="M294.791 172.83L296.15 179.805L289.044 179.757L287.685 172.782L294.791 172.83Z" fill="white"/>
<path opacity="0.2" d="M325.171 107.357L326.531 114.332L319.425 114.284L318.065 107.308L325.171 107.357Z" fill="white"/>
<path opacity="0.2" d="M195.469 35.4634L191.632 41.4448L186.529 36.4993L190.366 30.5179L195.469 35.4634Z" fill="white"/>
<path opacity="0.2" d="M31.3297 239.767L36.7491 244.364L31.1702 248.766L25.7508 244.169L31.3297 239.767Z" fill="white"/>
<path opacity="0.2" d="M296.441 33.2444L303.537 33.6336L301.75 40.5117L294.655 40.1224L296.441 33.2444Z" fill="white"/>
</g>
<defs>
<clipPath id="clip0_695_71">
<rect width="350" height="350" fill="white"/>
</clipPath>
</defs>
</svg>
