<svg width="350" height="350" viewBox="0 0 350 350" fill="none" xmlns="http://www.w3.org/2000/svg">
<g clip-path="url(#clip0_253_58)">
<path opacity="0.1" d="M203 84L206 79.5L203 75L200 79.5L203 84Z" fill="white"/>
<path opacity="0.2" d="M26.5 117L30 110.5L26.5 104L23 110.5L26.5 117Z" fill="white"/>
<path opacity="0.6" d="M143.5 179L147 174L143.5 169L140 174L143.5 179Z" fill="white"/>
<path opacity="0.6" d="M124.5 36L128 31L124.5 26L121 31L124.5 36Z" fill="white"/>
<path opacity="0.6" d="M258.5 262L264 255.5L258.5 249L253 255.5L258.5 262Z" fill="white"/>
<path opacity="0.2" d="M12 270L16 265L12 260L8 265L12 270Z" fill="white"/>
<path opacity="0.2" d="M197.5 304L203 297.5L197.5 291L192 297.5L197.5 304Z" fill="white"/>
<path opacity="0.5" d="M100.5 311L106 304.5L100.5 298L95 304.5L100.5 311Z" fill="white"/>
<path opacity="0.5" d="M256.5 79L262 72.5L256.5 66L251 72.5L256.5 79Z" fill="white"/>
<path opacity="0.2" d="M245.5 150L251 143.5L245.5 137L240 143.5L245.5 150Z" fill="white"/>
<path opacity="0.7" d="M21.5 218L27 211.5L21.5 205L16 211.5L21.5 218Z" fill="white"/>
<path opacity="0.2" d="M155.5 128L161 121.5L155.5 115L150 121.5L155.5 128Z" fill="white"/>
<path opacity="0.2" d="M95.5 79L101 74.5L95.5 70L90 74.5L95.5 79Z" fill="white"/>
</g>
<defs>
<clipPath id="clip0_253_58">
<rect width="350" height="350" fill="white" transform="matrix(-1 0 0 -1 350 350)"/>
</clipPath>
</defs>
</svg>
