<svg width="350" height="350" viewBox="0 0 350 350" fill="none" xmlns="http://www.w3.org/2000/svg">
<path opacity="0.2" d="M37 28L40 32.5L37 37L34 32.5L37 28Z" fill="white"/>
<path opacity="0.1" d="M268 272L271 276.5L268 281L265 276.5L268 272Z" fill="white"/>
<path opacity="0.2" d="M73.5 237L77 243.5L73.5 250L70 243.5L73.5 237Z" fill="white"/>
<path opacity="0.6" d="M274.5 136L278 141L274.5 146L271 141L274.5 136Z" fill="white"/>
<path opacity="0.6" d="M82.5 110L88 116.5L82.5 123L77 116.5L82.5 110Z" fill="white"/>
<path opacity="0.2" d="M162 221L166 226L162 231L158 226L162 221Z" fill="white"/>
<path opacity="0.2" d="M203 136L207 141L203 146L199 141L203 136Z" fill="white"/>
<path opacity="0.2" d="M34 318L38 324.5L34 331L30 324.5L34 318Z" fill="white"/>
<path opacity="0.2" d="M245.5 49L251 55.5L245.5 62L240 55.5L245.5 49Z" fill="white"/>
<path opacity="0.5" d="M147.5 43L153 49.5L147.5 56L142 49.5L147.5 43Z" fill="white"/>
<path opacity="0.5" d="M117.5 213L123 219.5L117.5 226L112 219.5L117.5 213Z" fill="white"/>
<path opacity="0.2" d="M254.5 162L260 168.5L254.5 175L249 168.5L254.5 162Z" fill="white"/>
<path opacity="0.7" d="M106.5 162L112 168.5L106.5 175L101 168.5L106.5 162Z" fill="white"/>
<path opacity="0.7" d="M218.5 202L224 208.5L218.5 215L213 208.5L218.5 202Z" fill="white"/>
<path opacity="0.2" d="M212.5 277L218 283.5L212.5 290L207 283.5L212.5 277Z" fill="white"/>
<path opacity="0.2" d="M142.5 275L148 279.5L142.5 284L137 279.5L142.5 275Z" fill="white"/>
</svg>
