<svg width="350" height="350" viewBox="0 0 350 350" fill="none" xmlns="http://www.w3.org/2000/svg">
<path opacity="0.2" d="M313 322L310 317.5L313 313L316 317.5L313 322Z" fill="white"/>
<path opacity="0.1" d="M100 80L97 75.5L100 71L103 75.5L100 80Z" fill="white"/>
<path opacity="0.2" d="M276.5 113L273 106.5L276.5 100L280 106.5L276.5 113Z" fill="white"/>
<path opacity="0.6" d="M159.5 175L156 170L159.5 165L163 170L159.5 175Z" fill="white"/>
<path opacity="0.6" d="M178.5 32L175 27L178.5 22L182 27L178.5 32Z" fill="white"/>
<path opacity="0.6" d="M44.5 258L39 251.5L44.5 245L50 251.5L44.5 258Z" fill="white"/>
<path opacity="0.2" d="M291 266L287 261L291 256L295 261L291 266Z" fill="white"/>
<path opacity="0.2" d="M316 32L312 25.5L316 19L320 25.5L316 32Z" fill="white"/>
<path opacity="0.2" d="M105.5 300L100 293.5L105.5 287L111 293.5L105.5 300Z" fill="white"/>
<path opacity="0.5" d="M202.5 307L197 300.5L202.5 294L208 300.5L202.5 307Z" fill="white"/>
<path opacity="0.5" d="M46.5 75L41 68.5L46.5 62L52 68.5L46.5 75Z" fill="white"/>
<path opacity="0.2" d="M57.5 146L52 139.5L57.5 133L63 139.5L57.5 146Z" fill="white"/>
<path opacity="0.7" d="M281.5 214L276 207.5L281.5 201L287 207.5L281.5 214Z" fill="white"/>
<path opacity="0.2" d="M147.5 124L142 117.5L147.5 111L153 117.5L147.5 124Z" fill="white"/>
<path opacity="0.2" d="M207.5 75L202 70.5L207.5 66L213 70.5L207.5 75Z" fill="white"/>
</svg>
