<svg width="350" height="350" viewBox="0 0 350 350" fill="none" xmlns="http://www.w3.org/2000/svg">
<g clip-path="url(#clip0_254_74)">
<path opacity="0.1" d="M147 84L144 79.5L147 75L150 79.5L147 84Z" fill="white"/>
<path opacity="0.2" d="M323.5 117L320 110.5L323.5 104L327 110.5L323.5 117Z" fill="white"/>
<path opacity="0.6" d="M206.5 179L203 174L206.5 169L210 174L206.5 179Z" fill="white"/>
<path opacity="0.6" d="M225.5 36L222 31L225.5 26L229 31L225.5 36Z" fill="white"/>
<path opacity="0.6" d="M91.5 262L86 255.5L91.5 249L97 255.5L91.5 262Z" fill="white"/>
<path opacity="0.2" d="M338 270L334 265L338 260L342 265L338 270Z" fill="white"/>
<path opacity="0.2" d="M152.5 304L147 297.5L152.5 291L158 297.5L152.5 304Z" fill="white"/>
<path opacity="0.5" d="M249.5 311L244 304.5L249.5 298L255 304.5L249.5 311Z" fill="white"/>
<path opacity="0.5" d="M93.5 79L88 72.5L93.5 66L99 72.5L93.5 79Z" fill="white"/>
<path opacity="0.2" d="M104.5 150L99 143.5L104.5 137L110 143.5L104.5 150Z" fill="white"/>
<path opacity="0.7" d="M328.5 218L323 211.5L328.5 205L334 211.5L328.5 218Z" fill="white"/>
<path opacity="0.2" d="M194.5 128L189 121.5L194.5 115L200 121.5L194.5 128Z" fill="white"/>
<path opacity="0.2" d="M254.5 79L249 74.5L254.5 70L260 74.5L254.5 79Z" fill="white"/>
</g>
<defs>
<clipPath id="clip0_254_74">
<rect width="350" height="350" fill="white" transform="matrix(1 0 0 -1 0 350)"/>
</clipPath>
</defs>
</svg>
