<?xml version="1.0" encoding="utf-8"?>
<svg width="100" height="100" viewBox="0 0 100 100" fill="none" xmlns="http://www.w3.org/2000/svg">
  <g>
    <path d="M6.9264 50C6.9264 50 0 50 0 50C0 56.5661 1.29328 63.0679 3.80602 69.1342C6.31876 75.2004 10.0017 80.7124 14.6447 85.3553C19.2876 89.9983 24.7995 93.6812 30.8658 96.194C36.9321 98.7067 43.4339 100 50 100C56.5661 100 63.0679 98.7067 69.1342 96.194C75.2004 93.6812 80.7124 89.9983 85.3553 85.3553C89.9983 80.7124 93.6813 75.2004 96.194 69.1342C98.7067 63.0679 100 56.5661 100 50C100 50 93.0736 50 93.0736 50C93.0736 55.6565 91.9595 61.2576 89.7948 66.4835C87.6302 71.7095 84.4574 76.4579 80.4576 80.4576C76.4579 84.4574 71.7095 87.6302 66.4836 89.7948C61.2576 91.9595 55.6565 93.0736 50 93.0736C44.3435 93.0736 38.7424 91.9595 33.5164 89.7948C28.2905 87.6302 23.5421 84.4574 19.5424 80.4576C15.5426 76.4579 12.3698 71.7095 10.2052 66.4835C8.04052 61.2576 6.9264 55.6565 6.9264 50Z" fill="#FFFFFF" fill-rule="evenodd" />
    <path d="M3.5 0L7 11L0 11L3.5 0Z" fill="#FF5722" fill-rule="evenodd" transform="translate(93 39)" />
  </g>
</svg>