<svg width="750" height="750" viewBox="0 0 750 750" fill="none" xmlns="http://www.w3.org/2000/svg">
<g clip-path="url(#clip0_56_28)">
<g filter="url(#filter0_d_56_28)">
<path d="M355.5 17.0322C367.567 10.0655 382.433 10.0655 394.5 17.0322L675.26 179.129C687.326 186.096 694.76 198.97 694.76 212.903V537.097C694.76 551.03 687.326 563.904 675.26 570.871L394.5 732.968C382.433 739.934 367.567 739.934 355.5 732.968L74.7402 570.871C62.6738 563.904 55.2403 551.03 55.2402 537.097V212.903C55.2403 198.97 62.6738 186.096 74.7402 179.129L355.5 17.0322Z" stroke="url(#paint0_linear_56_28)" stroke-width="10"/>
</g>
</g>
<defs>
<filter id="filter0_d_56_28" x="44.3405" y="0.906763" width="661.319" height="748.186" filterUnits="userSpaceOnUse" color-interpolation-filters="sRGB">
<feFlood flood-opacity="0" result="BackgroundImageFix"/>
<feColorMatrix in="SourceAlpha" type="matrix" values="0 0 0 0 0 0 0 0 0 0 0 0 0 0 0 0 0 0 127 0" result="hardAlpha"/>
<feOffset/>
<feGaussianBlur stdDeviation="2.95"/>
<feColorMatrix type="matrix" values="0 0 0 0 1 0 0 0 0 1 0 0 0 0 1 0 0 0 0.6 0"/>
<feBlend mode="normal" in2="BackgroundImageFix" result="effect1_dropShadow_56_28"/>
<feBlend mode="normal" in="SourceGraphic" in2="effect1_dropShadow_56_28" result="shape"/>
</filter>
<linearGradient id="paint0_linear_56_28" x1="375" y1="0" x2="375" y2="750" gradientUnits="userSpaceOnUse">
<stop stop-color="white" stop-opacity="0.5"/>
<stop offset="0.495192" stop-color="white" stop-opacity="0.8"/>
<stop offset="1" stop-color="white" stop-opacity="0.5"/>
</linearGradient>
<clipPath id="clip0_56_28">
<rect width="750" height="750" fill="white"/>
</clipPath>
</defs>
</svg>
