<?xml version="1.0" encoding="utf-8"?>
<svg width="100" height="100" viewBox="0 0 100 100" fill="none" xmlns="http://www.w3.org/2000/svg">
  <g>
    <g transform="matrix(-0 1 -1 -0 100 47)">
      <path d="M3 0C4.65708 0 6 1.34292 6 3L6 3C6 4.65708 4.65708 6 3 6L3 6C1.34292 6 0 4.65708 0 3L0 3C0 1.34292 1.34292 0 3 0Z" fill="#FFFFFF" />
      <path d="M3 0C4.65708 0 6 1.34292 6 3L6 3C6 4.65708 4.65708 6 3 6L3 6C1.34292 6 0 4.65708 0 3L0 3C0 1.34292 1.34292 0 3 0Z" fill="#FFFFFF" transform="translate(0 94)" />
    </g>
    <g transform="matrix(0.866 0.5 -0.5 0.866 72.402 5.199)">
      <path d="M3 0C4.65708 0 6 1.34292 6 3L6 3C6 4.65708 4.65708 6 3 6L3 6C1.34292 6 0 4.65708 0 3L0 3C0 1.34292 1.34292 0 3 0Z" fill="#FFFFFF" />
      <path d="M3 0C4.65708 0 6 1.34292 6 3L6 3C6 4.65708 4.65708 6 3 6L3 6C1.34292 6 0 4.65708 0 3L0 3C0 1.34292 1.34292 0 3 0Z" fill="#FFFFFF" transform="translate(0 94)" />
    </g>
    <g transform="matrix(0.866 -0.5 0.5 0.866 22.402 8.199)">
      <path d="M3 -4.26326e-14C4.65708 -6.61811e-14 6 1.34292 6 3L6 3C6 4.65708 4.65708 6 3 6L3 6C1.34292 6 6.61811e-14 4.65708 4.26326e-14 3L4.26326e-14 3C1.9084e-14 1.34292 1.34292 -1.9084e-14 3 -4.26326e-14Z" fill="#FFFFFF" transform="matrix(1 -0 0 1 0 0)" />
      <path d="M3 0C4.65708 0 6 1.34292 6 3L6 3C6 4.65708 4.65708 6 3 6L3 6C1.34292 6 6.61811e-14 4.65708 4.26326e-14 3L4.26326e-14 3C1.9084e-14 1.34292 1.34292 0 3 0Z" fill="#FFFFFF" transform="translate(0 94)" />
    </g>
    <g transform="translate(1 1)">
      <path d="M49 0C76.0656 0 98 21.9344 98 49L98 49C98 76.0656 76.0656 98 49 98L49 98C21.9344 98 0 76.0656 0 49L0 49C0 21.9344 21.9344 0 49 0Z" />
      <path d="M98 49C98 21.9344 76.0656 0 49 0C21.9344 0 0 21.9344 0 49C0 76.0656 21.9344 98 49 98C76.0656 98 98 76.0656 98 49ZM15.0575 15.0575Q29.115 1.00003 49 1Q68.885 1 82.9425 15.0575Q97 29.115 97 49Q97 68.885 82.9425 82.9425Q68.885 97 49 97Q29.1149 97 15.0575 82.9425Q1.00003 68.885 1 49Q1 29.1149 15.0575 15.0575Z" fill="#FFFFFF" fill-rule="evenodd" />
    </g>
  </g>
</svg>