<?xml version="1.0" encoding="utf-8"?>
<svg width="100" height="100" viewBox="0 0 100 100" fill="none" xmlns="http://www.w3.org/2000/svg">
  <defs>
    <clipPath id="clip_path_1">
      <rect width="100" height="100" />
    </clipPath>
  </defs>
  <g clip-path="url(#clip_path_1)">
    <path d="M50 93.328C50 93.328 50 100 50 100C56.5661 100 63.0679 98.7067 69.1342 96.194C75.2004 93.6812 80.7124 89.9983 85.3553 85.3553C89.9983 80.7124 93.6812 75.2004 96.194 69.1342C98.7067 63.0679 100 56.5661 100 50C100 50 93.328 50 93.328 50C93.328 55.6899 92.2073 61.3241 90.0298 66.5809C87.8524 71.8377 84.6609 76.6141 80.6375 80.6375C76.6142 84.6609 71.8377 87.8524 66.5809 90.0298C61.3241 92.2073 55.6899 93.328 50 93.328Z" fill="#757575" fill-rule="evenodd" transform="matrix(0.707 0.707 -0.707 0.707 50 -20.711)" />
  </g>
</svg>