<?xml version="1.0" encoding="utf-8"?>
<svg width="100" height="100" viewBox="0 0 100 100" fill="none" xmlns="http://www.w3.org/2000/svg">
  <path d="M50 5.74219C50 5.74219 50 0 50 0C56.5661 0 63.0679 1.29297 69.1342 3.80566C75.2004 6.31836 80.7124 10.002 85.3553 14.6445C89.9983 19.2871 93.6812 24.7998 96.194 30.8662C98.7067 36.9316 100 43.4336 100 50C100 50 94.2576 50 94.2576 50C94.2576 44.1885 93.1129 38.4326 90.8887 33.0635C88.6646 27.6934 85.4045 22.8145 81.2949 18.7051C77.1852 14.5957 72.3062 11.3359 66.9366 9.11133C61.5671 6.88672 55.812 5.74219 50 5.74219Z" fill="#C5CAE9" fill-rule="evenodd" />
</svg>