<?xml version="1.0" encoding="utf-8"?>
<svg width="400" height="400" viewBox="0 0 400 400" fill="none" xmlns="http://www.w3.org/2000/svg">
  <defs>
    <clipPath id="clip_path_1">
      <rect width="400" height="400" />
    </clipPath>
  </defs>
  <g clip-path="url(#clip_path_1)">
    <rect width="400" height="400" />
    <path id="Rectangle" d="M256.055 14.3243L277.539 35.809Q278.388 36.658 279.194 37.5476Q280.001 38.4371 280.762 39.3652Q281.524 40.2932 282.239 41.2576Q282.954 42.2219 283.621 43.2201Q284.288 44.2184 284.906 45.2481Q285.523 46.2779 286.089 47.3367Q286.655 48.3955 287.168 49.4809Q287.681 50.5662 288.141 51.6754Q288.6 52.7846 289.005 53.915Q289.409 55.0453 289.758 56.1942Q290.106 57.3431 290.398 58.5077Q290.69 59.6723 290.924 60.8498Q291.158 62.0273 291.334 63.2149Q291.51 64.4025 291.628 65.5973Q291.746 66.7921 291.805 67.9912Q291.864 69.1904 291.864 70.391Q291.864 71.5915 291.805 72.7907Q291.746 73.9898 291.628 75.1846Q291.51 76.3794 291.334 77.567Q291.158 78.7546 290.924 79.9321Q290.69 81.1096 290.398 82.2742Q290.106 83.4388 289.758 84.5877Q289.409 85.7366 289.005 86.867Q288.6 87.9974 288.141 89.1066Q287.681 90.2157 287.168 91.3011Q286.655 92.3864 286.089 93.4452Q285.523 94.504 284.906 95.5338Q284.288 96.5636 283.621 97.5618Q282.954 98.56 282.239 99.5244Q281.524 100.489 280.762 101.417Q280.001 102.345 279.194 103.234Q278.388 104.124 277.539 104.973L104.973 277.539Q104.124 278.388 103.235 279.195Q102.345 280.001 101.417 280.762Q100.489 281.524 99.5247 282.239Q98.5603 282.954 97.5621 283.621Q96.5638 284.288 95.5341 284.906Q94.5043 285.523 93.4455 286.089Q92.3867 286.655 91.3014 287.168Q90.216 287.681 89.1068 288.141Q87.9977 288.6 86.8673 289.005Q85.7369 289.409 84.588 289.758Q83.4391 290.106 82.2745 290.398Q81.1099 290.69 79.9324 290.924Q78.7549 291.158 77.5673 291.334Q76.3797 291.51 75.1849 291.628Q73.9901 291.746 72.791 291.805Q71.5919 291.864 70.3913 291.864Q69.1907 291.864 67.9916 291.805Q66.7924 291.746 65.5976 291.628Q64.4028 291.511 63.2152 291.334Q62.0276 291.158 60.8501 290.924Q59.6726 290.69 58.508 290.398Q57.3434 290.106 56.1945 289.758Q55.0457 289.409 53.9153 289.005Q52.7849 288.6 51.6757 288.141Q50.5665 287.682 49.4812 287.168Q48.3959 286.655 47.337 286.089Q46.2782 285.523 45.2484 284.906Q44.2187 284.289 43.2204 283.622Q42.2222 282.955 41.2578 282.239Q40.2935 281.524 39.3655 280.763Q38.4374 280.001 37.5478 279.195Q36.6583 278.388 35.8093 277.539L14.3244 256.055Q13.4755 255.206 12.6692 254.316Q11.8629 253.427 11.1013 252.499Q10.3396 251.57 9.62445 250.606Q8.90926 249.642 8.24225 248.644Q7.57524 247.645 6.95801 246.616Q6.34079 245.586 5.77484 244.527Q5.20888 243.468 4.69557 242.383Q4.18225 241.297 3.7228 240.188Q3.26336 239.079 2.85889 237.949Q2.45443 236.818 2.10591 235.669Q1.7574 234.521 1.46568 233.356Q1.17396 232.191 0.939738 231.014Q0.705514 229.836 0.52935 228.649Q0.353187 227.461 0.235507 226.266Q0.117828 225.072 0.0589169 223.872Q5.61976e-06 222.673 4.29153e-06 221.473Q2.96331e-06 220.272 0.0589115 219.073Q0.11782 217.874 0.235497 216.679Q0.353173 215.484 0.529334 214.297Q0.705495 213.109 0.939717 211.932Q1.17394 210.754 1.46565 209.589Q1.75737 208.425 2.10588 207.276Q2.45439 206.127 2.85886 204.997Q3.26332 203.866 3.72276 202.757Q4.1822 201.648 4.69552 200.562Q5.20883 199.477 5.77479 198.418Q6.34074 197.36 6.95796 196.33Q7.57518 195.3 8.24219 194.302Q8.9092 193.303 9.62438 192.339Q10.3396 191.375 11.1012 190.447Q11.8629 189.519 12.6691 188.629Q13.4754 187.74 14.3243 186.891L186.891 14.3243Q187.74 13.4754 188.629 12.6691Q189.519 11.8628 190.447 11.1012Q191.375 10.3396 192.339 9.62438Q193.303 8.90919 194.302 8.24219Q195.3 7.57518 196.33 6.95796Q197.36 6.34073 198.418 5.77479Q199.477 5.20883 200.562 4.69552Q201.648 4.18221 202.757 3.72276Q203.866 3.26332 204.997 2.85886Q206.127 2.45439 207.276 2.10588Q208.425 1.75737 209.589 1.46566Q210.754 1.17394 211.931 0.939717Q213.109 0.705495 214.297 0.529333Q215.484 0.353172 216.679 0.235494Q217.874 0.117817 219.073 0.0589071Q220.272 -2.52549e-06 221.473 -2.38419e-06Q222.673 -2.24289e-06 223.872 0.0589076Q225.071 0.117818 226.266 0.235495Q227.461 0.353173 228.649 0.529335Q229.836 0.705497 231.014 0.939719Q232.191 1.17394 233.356 1.46566Q234.52 1.75738 235.669 2.10589Q236.818 2.4544 237.949 2.85886Q239.079 3.26332 240.188 3.72277Q241.297 4.18221 242.383 4.69553Q243.468 5.20884 244.527 5.77479Q245.586 6.34074 246.615 6.95796Q247.645 7.57518 248.643 8.24219Q249.642 8.9092 250.606 9.62439Q251.57 10.3396 252.498 11.1012Q253.426 11.8629 254.316 12.6691Q255.206 13.4754 256.055 14.3243Z" fill="#FFFFFF" fill-rule="evenodd" transform="translate(71 34)" />
    <path id="Rectangle" d="M14.3243 35.8091L35.8091 14.3243Q36.658 13.4754 37.5476 12.6691Q38.4371 11.8629 39.3652 11.1012Q40.2933 10.3396 41.2576 9.62439Q42.2219 8.9092 43.2201 8.2422Q44.2184 7.57519 45.2482 6.95797Q46.2779 6.34075 47.3368 5.7748Q48.3956 5.20885 49.4809 4.69553Q50.5662 4.18222 51.6754 3.72277Q52.7846 3.26333 53.915 2.85887Q55.0454 2.45441 56.1943 2.10589Q57.3431 1.75738 58.5077 1.46567Q59.6723 1.17395 60.8499 0.939726Q62.0274 0.705504 63.215 0.529342Q64.4025 0.35318 65.5973 0.235502Q66.7921 0.117824 67.9913 0.0589131Q69.1904 2.69863e-06 70.391 1.90735e-06Q71.5916 1.11607e-06 72.7907 0.0589099Q73.9898 0.117819 75.1846 0.235495Q76.3794 0.353172 77.567 0.529333Q78.7546 0.705493 79.9321 0.939714Q81.1096 1.17393 82.2742 1.46565Q83.4388 1.75737 84.5877 2.10588Q85.7366 2.45438 86.867 2.85885Q87.9974 3.26331 89.1066 3.72275Q90.2158 4.18219 91.3011 4.6955Q92.3864 5.20882 93.4452 5.77477Q94.504 6.34071 95.5338 6.95793Q96.5636 7.57515 97.5618 8.24216Q98.5601 8.90916 99.5244 9.62435Q100.489 10.3395 101.417 11.1012Q102.345 11.8628 103.234 12.6691Q104.124 13.4753 104.973 14.3243L199.581 108.932Q200.43 109.781 201.236 110.671Q202.043 111.561 202.804 112.489Q203.566 113.417 204.281 114.381Q204.996 115.345 205.663 116.344Q206.33 117.342 206.948 118.372Q207.565 119.401 208.131 120.46Q208.697 121.519 209.21 122.604Q209.723 123.69 210.183 124.799Q210.642 125.908 211.047 127.038Q211.451 128.169 211.8 129.318Q212.148 130.467 212.44 131.631Q212.732 132.796 212.966 133.973Q213.2 135.151 213.376 136.338Q213.552 137.526 213.67 138.721Q213.788 139.916 213.847 141.115Q213.906 142.314 213.906 143.514Q213.906 144.715 213.847 145.914Q213.788 147.113 213.67 148.308Q213.552 149.503 213.376 150.69Q213.2 151.878 212.966 153.056Q212.732 154.233 212.44 155.398Q212.148 156.562 211.8 157.711Q211.451 158.86 211.047 159.99Q210.642 161.121 210.183 162.23Q209.723 163.339 209.21 164.425Q208.697 165.51 208.131 166.569Q207.565 167.628 206.948 168.657Q206.33 169.687 205.663 170.685Q204.996 171.684 204.281 172.648Q203.566 173.612 202.804 174.54Q202.043 175.468 201.236 176.358Q200.43 177.247 199.581 178.096L178.096 199.581Q177.247 200.43 176.358 201.236Q175.468 202.043 174.54 202.804Q173.612 203.566 172.648 204.281Q171.683 204.996 170.685 205.663Q169.687 206.33 168.657 206.948Q167.627 207.565 166.569 208.131Q165.51 208.697 164.424 209.21Q163.339 209.723 162.23 210.183Q161.121 210.642 159.99 211.047Q158.86 211.451 157.711 211.8Q156.562 212.148 155.398 212.44Q154.233 212.732 153.056 212.966Q151.878 213.2 150.69 213.376Q149.503 213.552 148.308 213.67Q147.113 213.788 145.914 213.847Q144.715 213.905 143.514 213.905Q142.314 213.905 141.115 213.847Q139.916 213.788 138.721 213.67Q137.526 213.552 136.338 213.376Q135.151 213.2 133.973 212.966Q132.796 212.732 131.631 212.44Q130.467 212.148 129.318 211.8Q128.169 211.451 127.038 211.047Q125.908 210.642 124.799 210.183Q123.69 209.723 122.604 209.21Q121.519 208.697 120.46 208.131Q119.401 207.565 118.372 206.948Q117.342 206.33 116.344 205.663Q115.345 204.996 114.381 204.281Q113.417 203.566 112.489 202.804Q111.561 202.043 110.671 201.236Q109.781 200.43 108.932 199.581L14.3243 104.973Q13.4754 104.124 12.6691 103.234Q11.8628 102.345 11.1012 101.417Q10.3396 100.489 9.62438 99.5244Q8.90919 98.5601 8.24219 97.5619Q7.57518 96.5636 6.95796 95.5339Q6.34074 94.5041 5.77479 93.4453Q5.20884 92.3864 4.69552 91.3011Q4.18221 90.2158 3.72276 89.1066Q3.26332 87.9974 2.85886 86.867Q2.4544 85.7366 2.10589 84.5878Q1.75738 83.4389 1.46566 82.2743Q1.17394 81.1097 0.939719 79.9322Q0.705497 78.7546 0.529335 77.5671Q0.353173 76.3795 0.235496 75.1847Q0.117818 73.9899 0.0589088 72.7907Q-9.53674e-07 71.5916 -9.53674e-07 70.391Q-9.53674e-07 69.1904 0.0589088 67.9913Q0.117818 66.7922 0.235496 65.5974Q0.353173 64.4026 0.529335 63.215Q0.705497 62.0274 0.939719 60.8499Q1.17394 59.6724 1.46566 58.5078Q1.75738 57.3432 2.10589 56.1943Q2.4544 55.0454 2.85886 53.915Q3.26332 52.7846 3.72276 51.6754Q4.18221 50.5662 4.69552 49.4809Q5.20884 48.3956 5.77479 47.3368Q6.34074 46.278 6.95796 45.2482Q7.57518 44.2184 8.24219 43.2202Q8.90919 42.2219 9.62438 41.2576Q10.3396 40.2933 11.1012 39.3652Q11.8628 38.4372 12.6691 37.5476Q13.4754 36.658 14.3243 35.8091L14.3243 35.8091Z" fill="#FFFFFF" fill-rule="evenodd" transform="translate(-2 112)" />
  </g>
</svg>