<?xml version="1.0" encoding="utf-8"?>
<svg width="400" height="400" viewBox="0 0 400 400" fill="none" xmlns="http://www.w3.org/2000/svg">
  <defs>
    <clipPath id="clip_path_1">
      <rect width="400" height="400" />
    </clipPath>
  </defs>
  <g clip-path="url(#clip_path_1)">
    <rect width="400" height="400" />
    <path id="Rectangle" d="M33.5001 0C52.0042 -3.05176e-05 67.0001 14.996 67.0001 33.5001L67.0001 130.075C67.0001 148.579 52.0042 163.575 33.5001 163.575L33.5001 163.575C14.996 163.575 0 148.579 0 130.075L0 33.5001C0 14.996 14.996 0 33.5001 0Z" fill="#FFFFFF" fill-opacity="0.91" transform="matrix(0.707 -0.707 0.707 0.707 237 284)" />
    <g>
      <path id="Rectangle" d="M173 0C268.006 0 345 76.9941 345 172L345 173C345 268.006 268.006 345 173 345L172 345C76.9941 345 0 268.006 0 173L0 172C0 76.9941 76.9941 0 172 0L173 0Z" />
      <path d="M345 172C345 76.9941 268.006 0 173 0L172 0C76.9941 0 0 76.9941 0 172L0 173C0 268.006 76.9941 345 172 345L173 345C268.006 345 345 268.006 345 173L345 172ZM172 67L173 67Q194.414 67 213.859 75.2235Q232.689 83.1867 247.251 97.7489Q261.813 112.311 269.777 131.141Q278 150.586 278 172L278 173Q278 194.414 269.777 213.859Q261.813 232.689 247.251 247.251Q232.689 261.813 213.859 269.777Q194.414 278 173 278L172 278Q150.586 278 131.141 269.777Q112.311 261.813 97.7489 247.251Q83.1867 232.689 75.2234 213.859Q67 194.414 67 173L67 172Q67 150.586 75.2235 131.141Q83.1867 112.311 97.7489 97.7489Q112.311 83.1867 131.141 75.2234Q150.586 67 172 67Z" fill="#FFFFFF" fill-rule="evenodd" />
    </g>
  </g>
</svg>