<?xml version="1.0" encoding="utf-8"?>
<svg width="400" height="400" viewBox="0 0 400 400" fill="none" xmlns="http://www.w3.org/2000/svg">
  <defs>
    <clipPath id="clip_path_1">
      <rect width="400" height="400" />
    </clipPath>
  </defs>
  <g clip-path="url(#clip_path_1)">
    <path d="M33.5001 0C52.0042 0 67.0001 14.996 67.0001 33.5001L67.0001 166.5C67.0001 185.004 52.0042 200 33.5001 200L33.5001 200C14.996 200 0 185.004 0 166.5L0 33.5001C0 14.996 14.996 0 33.5001 0Z" fill="#FFFFFF" fill-opacity="0.91" transform="matrix(1 0 0 1 51 200)" />
    <path d="M33.5001 0C52.0042 0 67.0001 14.996 67.0001 33.5001L67.0001 266.501C67.0001 285.005 52.0042 300.001 33.5001 300.001L33.5001 300.001C14.996 300.001 0 285.005 0 266.501L0 33.5001C0 14.996 14.996 0 33.5001 0Z" fill="#FFFFFF" fill-opacity="0.91" transform="matrix(1 0 0 1 167 100)" />
    <path d="M33.5001 0C52.0042 0 67.0001 14.996 67.0001 33.5001L67.0001 366.501C67.0001 385.005 52.0042 400.001 33.5001 400.001L33.5001 400.001C14.996 400.001 0 385.005 0 366.501L0 33.5001C0 14.996 14.996 0 33.5001 0Z" fill="#FFFFFF" fill-opacity="0.91" transform="matrix(1 0 0 1 282 0)" />
  </g>
</svg>