<?xml version="1.0" encoding="utf-8"?>
<svg width="400" height="400" viewBox="0 0 400 400" fill="none" xmlns="http://www.w3.org/2000/svg">
  <defs>
    <clipPath id="clip_path_1">
      <rect width="400" height="400" />
    </clipPath>
  </defs>
  <g clip-path="url(#clip_path_1)">
    <rect width="400" height="400" />
    <path id="Rectangle" d="M260 0C273.257 0 284 10.7434 284 24L284 222C284 235.257 273.257 246 260 246L24 246C10.7434 246 0 235.257 0 222L0 24C0 10.7434 10.7434 0 24 0L260 0Z" fill="#FFFFFF" fill-opacity="0.91" transform="matrix(1 0 0 1 58 154)" />
    <g id="Group" transform="matrix(0.985 -0.174 0.174 0.985 46 34.001)">
      <path id="Rectangle" d="M142 9.53674e-06L259.63 1.71661e-05C259.991 1.71661e-05 260.172 1.71661e-05 260.345 0.00248528Q260.923 0.0107788 261.5 0.0469232Q262.077 0.0830675 262.652 0.146979Q263.227 0.21089 263.798 0.30242Q264.369 0.393949 264.935 0.512885Q265.501 0.631821 266.061 0.777886Q266.621 0.923952 267.173 1.09681Q267.725 1.26966 268.268 1.46891Q268.811 1.66815 269.344 1.89333Q269.876 2.1185 270.398 2.36907Q270.919 2.61965 271.428 2.89505Q271.936 3.17045 272.431 3.47003Q272.926 3.76961 273.406 4.09267Q273.885 4.41574 274.349 4.76154Q274.813 5.10735 275.259 5.47509Q275.706 5.84282 276.134 6.23164Q276.562 6.62046 276.971 7.02946Q277.38 7.43845 277.769 7.86667Q278.158 8.2949 278.525 8.74135Q278.893 9.18781 279.239 9.65146Q279.585 10.1151 279.908 10.5949Q280.231 11.0747 280.53 11.5694Q280.83 12.0642 281.105 12.5728Q281.381 13.0815 281.631 13.6028Q281.882 14.1241 282.107 14.6569Q282.332 15.1897 282.531 15.7327Q282.731 16.2757 282.904 16.8276Q283.076 17.3796 283.223 17.9393Q283.369 18.4989 283.488 19.065Q283.606 19.631 283.698 20.2022Q283.79 20.7733 283.853 21.3481Q283.917 21.923 283.953 22.5003Q283.99 23.0775 283.998 23.6559C284 23.828 284 24.0089 284 24.3709L284 24.3709C284 24.7328 284 24.9137 283.998 25.0858Q283.99 25.6641 283.953 26.2414Q283.917 26.8187 283.853 27.3936Q283.79 27.9684 283.698 28.5395Q283.606 29.1107 283.488 29.6767Q283.369 30.2428 283.223 30.8024Q283.076 31.3621 282.904 31.914Q282.731 32.466 282.531 33.009Q282.332 33.552 282.107 34.0848Q281.882 34.6176 281.631 35.1389Q281.381 35.6602 281.105 36.1688Q280.83 36.6775 280.53 37.1723Q280.231 37.667 279.908 38.1468Q279.585 38.6266 279.239 39.0902Q278.893 39.5539 278.525 40.0003Q278.158 40.4468 277.769 40.875Q277.38 41.3032 276.971 41.7122Q276.562 42.1212 276.134 42.51Q275.706 42.8989 275.259 43.2666Q274.813 43.6343 274.349 43.9801Q273.885 44.326 273.406 44.649Q272.926 44.9721 272.431 45.2717Q271.936 45.5713 271.428 45.8466Q270.919 46.122 270.398 46.3726Q269.876 46.6232 269.344 46.8484Q268.811 47.0735 268.268 47.2728Q267.725 47.472 267.173 47.6449Q266.621 47.8177 266.061 47.9638Q265.501 48.1099 264.935 48.2288Q264.369 48.3478 263.798 48.4393Q263.227 48.5308 262.652 48.5947Q262.077 48.6586 261.5 48.6948Q260.923 48.7309 260.345 48.7392C260.172 48.7417 259.991 48.7417 259.63 48.7417L24.3708 48.7417C24.0089 48.7417 23.828 48.7417 23.6559 48.7392Q23.0775 48.7309 22.5003 48.6948Q21.923 48.6586 21.3481 48.5947Q20.7733 48.5308 20.2021 48.4393Q19.631 48.3477 19.065 48.2288Q18.4989 48.1099 17.9393 47.9638Q17.3796 47.8177 16.8276 47.6449Q16.2757 47.472 15.7327 47.2728Q15.1897 47.0735 14.6569 46.8484Q14.1241 46.6232 13.6028 46.3726Q13.0815 46.122 12.5728 45.8466Q12.0642 45.5712 11.5694 45.2717Q11.0746 44.9721 10.5949 44.649Q10.1151 44.3259 9.65145 43.9801Q9.1878 43.6343 8.74134 43.2666Q8.29489 42.8988 7.86667 42.51Q7.43844 42.1212 7.02945 41.7122Q6.62045 41.3032 6.23164 40.875Q5.84282 40.4468 5.47508 40.0003Q5.10734 39.5539 4.76154 39.0902Q4.41573 38.6266 4.09267 38.1468Q3.7696 37.667 3.47002 37.1722Q3.17044 36.6775 2.89504 36.1688Q2.61964 35.6602 2.36907 35.1389Q2.11849 34.6176 1.89332 34.0848Q1.66815 33.552 1.4689 33.009Q1.26966 32.466 1.0968 31.914Q0.923943 31.3621 0.777877 30.8024Q0.631811 30.2427 0.512875 29.6767Q0.393939 29.1106 0.302409 28.5395Q0.210879 27.9684 0.146967 27.3935Q0.0830555 26.8187 0.0469107 26.2414Q0.0107659 25.6641 0.00247178 25.0858C1.77532e-06 24.9137 1.7888e-06 24.7328 1.81577e-06 24.3708L1.81577e-06 24.3708C1.84273e-06 24.0089 1.85621e-06 23.828 0.00246936 23.6559Q0.0107633 23.0775 0.0469081 22.5003Q0.0830529 21.923 0.146965 21.3481Q0.210876 20.7733 0.302406 20.2021Q0.393936 19.631 0.512873 19.065Q0.631809 18.4989 0.777874 17.9393Q0.92394 17.3796 1.0968 16.8276Q1.26965 16.2757 1.4689 15.7327Q1.66814 15.1897 1.89332 14.6569Q2.11849 14.1241 2.36907 13.6028Q2.61964 13.0815 2.89504 12.5728Q3.17044 12.0642 3.47002 11.5694Q3.7696 11.0746 4.09267 10.5949Q4.41574 10.1151 4.76154 9.65145Q5.10734 9.1878 5.47508 8.74134Q5.84282 8.29489 6.23164 7.86667Q6.62046 7.43844 7.02945 7.02945Q7.43845 6.62045 7.86667 6.23163Q8.29489 5.84282 8.74135 5.47508Q9.1878 5.10734 9.65146 4.76153Q10.1151 4.41573 10.5949 4.09266Q11.0747 3.7696 11.5694 3.47001Q12.0642 3.17043 12.5728 2.89504Q13.0815 2.61964 13.6028 2.36906Q14.1241 2.11848 14.6569 1.89331Q15.1897 1.66814 15.7327 1.46889Q16.2757 1.26965 16.8277 1.09679Q17.3796 0.923936 17.9393 0.777871Q18.4989 0.631805 19.065 0.512869Q19.631 0.393933 20.2022 0.302403Q20.7733 0.210874 21.3481 0.146962Q21.923 0.0830507 22.5003 0.0469062Q23.0776 0.0107618 23.6559 0.00246811C23.828 0 24.0089 0 24.3708 0L142 9.53674e-06Z" fill="#FFFFFF" fill-opacity="0.91" transform="matrix(1 0 -0 1 0 28.814)" />
      <path id="Rectangle" d="M76.7813 3.43239e-06C83.4097 3.7287e-06 88.7813 5.37169 88.7813 12L88.7813 28.8214L0 28.8214L0 12C0 5.37168 5.37168 2.40133e-07 12 5.36442e-07L76.7813 3.43239e-06Z" fill="#FFFFFF" fill-opacity="0.561" transform="matrix(1 0 -0 1 97 0)" />
    </g>
  </g>
</svg>