<svg width="599" height="600" viewBox="0 0 599 600" fill="none" xmlns="http://www.w3.org/2000/svg">
<g clip-path="url(#clip0_281_16)">
<path d="M107 91C107 94.3137 109.686 97 113 97C116.314 97 119 94.3137 119 91H113H107ZM117.243 10.7574C114.899 8.41421 111.101 8.41421 108.757 10.7574L70.5736 48.9411C68.2304 51.2843 68.2304 55.0833 70.5736 57.4264C72.9167 59.7696 76.7157 59.7696 79.0589 57.4264L113 23.4853L146.941 57.4264C149.284 59.7696 153.083 59.7696 155.426 57.4264C157.77 55.0833 157.77 51.2843 155.426 48.9411L117.243 10.7574ZM113 91H119V15H113H107V91H113Z" fill="white"/>
<path d="M107 509C107 505.686 109.686 503 113 503C116.314 503 119 505.686 119 509H113H107ZM117.243 589.243C114.899 591.586 111.101 591.586 108.757 589.243L70.5736 551.059C68.2304 548.716 68.2304 544.917 70.5736 542.574C72.9167 540.23 76.7157 540.23 79.0589 542.574L113 576.515L146.941 542.574C149.284 540.23 153.083 540.23 155.426 542.574C157.77 544.917 157.77 548.716 155.426 551.059L117.243 589.243ZM113 509H119V585H113H107V509H113Z" fill="white"/>
<path d="M281 10.9697C292.757 4.18161 307.243 4.18161 319 10.9697L540.808 139.03C552.565 145.818 559.808 158.363 559.808 171.939V428.061C559.808 441.637 552.565 454.182 540.808 460.97L319 589.03C307.243 595.818 292.757 595.818 281 589.03L59.1924 460.97C47.4351 454.182 40.1924 441.637 40.1924 428.061V171.939C40.1924 158.363 47.4351 145.818 59.1924 139.03L281 10.9697Z" fill="white" fill-opacity="0.04"/>
<path d="M286 19.6299C294.663 14.6282 305.337 14.6282 314 19.6299L535.808 147.69C544.471 152.692 549.808 161.936 549.808 171.939V428.061C549.808 438.064 544.471 447.308 535.808 452.31L314 580.37C305.337 585.372 294.663 585.372 286 580.37L64.1924 452.31C55.5292 447.308 50.1924 438.064 50.1924 428.061V171.939C50.1924 161.936 55.5292 152.692 64.1924 147.69L286 19.6299Z" stroke="white" stroke-opacity="0.14" stroke-width="20"/>
<path opacity="0.2" d="M294.5 234.815C297.594 233.029 301.406 233.029 304.5 234.815L353.019 262.827C356.112 264.613 358.018 267.915 358.019 271.487V327.513C358.018 331.085 356.112 334.387 353.019 336.173L304.5 364.185C301.406 365.971 297.594 365.971 294.5 364.185L245.981 336.173C242.888 334.387 240.982 331.085 240.981 327.513V271.487C240.982 267.915 242.888 264.613 245.981 262.827L294.5 234.815Z" fill="black" stroke="white" stroke-width="12"/>
<g clip-path="url(#clip1_281_16)">
<rect x="439.5" y="5.5" width="95" height="95" rx="47.5" fill="#3C3920" stroke="#FFF7B7" stroke-width="5"/>
<path d="M463.875 32.6875C463.875 31.6875 464.417 31.1875 465.5 31.1875H471.438C473.792 31.1875 475.604 32.1771 476.875 34.1562L487 49.75L497.094 34.1562C498.385 32.1771 500.198 31.1875 502.531 31.1875H508.5C509.562 31.1875 510.094 31.6875 510.094 32.6875C510.094 33.1458 509.927 33.6354 509.594 34.1562L492.875 60V73.125C492.875 73.9375 492.583 74.625 492 75.1875C491.438 75.7292 490.75 76 489.938 76H484.062C483.25 76 482.552 75.7292 481.969 75.1875C481.385 74.625 481.094 73.9375 481.094 73.125V60L464.406 34.1562C464.052 33.6354 463.875 33.1458 463.875 32.6875Z" fill="#FFF7B7"/>
</g>
<path d="M84 294C87.3137 294 90 296.686 90 300C90 303.314 87.3137 306 84 306V300V294ZM3.75736 304.243C1.41421 301.899 1.41421 298.101 3.75736 295.757L41.9411 257.574C44.2843 255.23 48.0833 255.23 50.4264 257.574C52.7696 259.917 52.7696 263.716 50.4264 266.059L16.4853 300L50.4264 333.941C52.7696 336.284 52.7696 340.083 50.4264 342.426C48.0833 344.77 44.2843 344.77 41.9411 342.426L3.75736 304.243ZM84 300V306H8V300V294H84V300Z" fill="white"/>
<g clip-path="url(#clip2_281_16)">
<rect x="439.5" y="499.5" width="95" height="95" rx="47.5" fill="#162718" stroke="#D8FFB7" stroke-width="5"/>
<path d="M461.094 567.125L468.938 537.375C471.062 529.271 477.979 525.208 489.688 525.188H506.531C507.302 525.188 507.938 525.479 508.438 526.062C508.958 526.646 509.219 527.323 509.219 528.094V567.125C509.219 567.938 508.927 568.625 508.344 569.188C507.76 569.729 507.062 570 506.25 570H500.375C499.521 570 498.812 569.729 498.25 569.188C497.708 568.625 497.438 567.917 497.438 567.062V559.188H475.219L473.125 567.062C472.917 567.917 472.448 568.625 471.719 569.188C470.99 569.729 470.219 570 469.406 570H463.25C462.438 570 461.854 569.771 461.5 569.312C461.146 568.833 460.969 568.417 460.969 568.062C460.99 567.708 461.031 567.396 461.094 567.125ZM477.531 550.344H497.438V534.031H488.531C486.531 534.031 484.781 534.604 483.281 535.75C481.802 536.875 480.802 538.396 480.281 540.312L477.531 550.344Z" fill="#D8FFB7"/>
</g>
<g clip-path="url(#clip3_281_16)">
<rect x="501.5" y="252.5" width="95" height="95" rx="47.5" fill="#3C2021" stroke="#FFB7B7" stroke-width="5"/>
<path d="M527.062 281.156C527.062 280.344 527.354 279.646 527.938 279.062C528.521 278.479 529.219 278.188 530.031 278.188H555.438C561.667 278.188 566.26 279.979 569.219 283.562C570.865 285.542 571.688 288.073 571.688 291.156C571.688 294.219 570.281 296.896 567.469 299.188C571.469 301.333 573.469 304.667 573.469 309.188C573.469 313.708 571.865 317.146 568.656 319.5C565.469 321.833 561.552 323 556.906 323H530.031C529.219 323 528.521 322.719 527.938 322.156C527.354 321.573 527.062 320.875 527.062 320.062V281.156ZM538.844 314.562H556.719C558.323 314.562 559.552 314.083 560.406 313.125C561.26 312.167 561.688 310.854 561.688 309.188C561.688 307.521 561.26 306.208 560.406 305.25C559.552 304.292 558.323 303.812 556.719 303.812H538.844V314.562ZM538.844 295.594H555.562C556.875 295.594 557.927 295.208 558.719 294.438C559.51 293.646 559.906 292.552 559.906 291.156C559.906 289.74 559.51 288.635 558.719 287.844C557.927 287.052 556.875 286.656 555.562 286.656H538.844V295.594Z" fill="#FFB7B7"/>
</g>
</g>
<defs>
<clipPath id="clip0_281_16">
<rect width="599" height="600" rx="19" fill="white"/>
</clipPath>
<clipPath id="clip1_281_16">
<rect width="100" height="100" fill="white" transform="translate(437 3)"/>
</clipPath>
<clipPath id="clip2_281_16">
<rect width="100" height="100" fill="white" transform="translate(437 497)"/>
</clipPath>
<clipPath id="clip3_281_16">
<rect width="100" height="100" fill="white" transform="translate(499 250)"/>
</clipPath>
</defs>
</svg>
