<svg width="100" height="100" viewBox="0 0 100 100" fill="none" xmlns="http://www.w3.org/2000/svg">
<g filter="url(#filter0_d_498_75)">
<mask id="path-1-outside-1_498_75" maskUnits="userSpaceOnUse" x="34" y="33" width="32" height="32" fill="black">
<rect fill="white" x="34" y="33" width="32" height="32"/>
<path d="M36.5114 63L45.2314 35.48H54.7114L63.4714 63H56.4314L54.7914 57.6H44.9914L43.3914 63H36.5114ZM46.4714 52.36H53.2714L49.9914 41.48H49.7114L46.4714 52.36Z"/>
</mask>
<path d="M36.5114 63L45.2314 35.48H54.7114L63.4714 63H56.4314L54.7914 57.6H44.9914L43.3914 63H36.5114ZM46.4714 52.36H53.2714L49.9914 41.48H49.7114L46.4714 52.36Z" fill="#DAFFE4"/>
<path d="M36.5114 63L35.0815 62.5469L34.4626 64.5H36.5114V63ZM45.2314 35.48V33.98H44.1332L43.8015 35.0269L45.2314 35.48ZM54.7114 35.48L56.1407 35.025L55.8081 33.98H54.7114V35.48ZM63.4714 63V64.5H65.523L64.9007 62.545L63.4714 63ZM56.4314 63L54.9961 63.4359L55.3193 64.5H56.4314V63ZM54.7914 57.6L56.2267 57.1641L55.9035 56.1H54.7914V57.6ZM44.9914 57.6V56.1H43.8714L43.5532 57.1739L44.9914 57.6ZM43.3914 63V64.5H44.5114L44.8296 63.4261L43.3914 63ZM46.4714 52.36L45.0338 51.9319L44.4596 53.86H46.4714V52.36ZM53.2714 52.36V53.86H55.2903L54.7076 51.927L53.2714 52.36ZM49.9914 41.48L51.4276 41.047L51.1059 39.98H49.9914V41.48ZM49.7114 41.48V39.98H48.593L48.2738 41.0519L49.7114 41.48ZM36.5114 63L37.9413 63.4531L46.6613 35.9331L45.2314 35.48L43.8015 35.0269L35.0815 62.5469L36.5114 63ZM45.2314 35.48V36.98H54.7114V35.48V33.98H45.2314V35.48ZM54.7114 35.48L53.2821 35.935L62.0421 63.455L63.4714 63L64.9007 62.545L56.1407 35.025L54.7114 35.48ZM63.4714 63V61.5H56.4314V63V64.5H63.4714V63ZM56.4314 63L57.8667 62.5641L56.2267 57.1641L54.7914 57.6L53.3561 58.0359L54.9961 63.4359L56.4314 63ZM54.7914 57.6V56.1H44.9914V57.6V59.1H54.7914V57.6ZM44.9914 57.6L43.5532 57.1739L41.9532 62.5739L43.3914 63L44.8296 63.4261L46.4296 58.0261L44.9914 57.6ZM43.3914 63V61.5H36.5114V63V64.5H43.3914V63ZM46.4714 52.36V53.86H53.2714V52.36V50.86H46.4714V52.36ZM53.2714 52.36L54.7076 51.927L51.4276 41.047L49.9914 41.48L48.5553 41.913L51.8353 52.793L53.2714 52.36ZM49.9914 41.48V39.98H49.7114V41.48V42.98H49.9914V41.48ZM49.7114 41.48L48.2738 41.0519L45.0338 51.9319L46.4714 52.36L47.909 52.7881L51.149 41.9081L49.7114 41.48Z" fill="url(#paint0_linear_498_75)" mask="url(#path-1-outside-1_498_75)"/>
</g>
<defs>
<filter id="filter0_d_498_75" x="27.8626" y="28.38" width="44.2604" height="43.72" filterUnits="userSpaceOnUse" color-interpolation-filters="sRGB">
<feFlood flood-opacity="0" result="BackgroundImageFix"/>
<feColorMatrix in="SourceAlpha" type="matrix" values="0 0 0 0 0 0 0 0 0 0 0 0 0 0 0 0 0 0 127 0" result="hardAlpha"/>
<feOffset dy="1"/>
<feGaussianBlur stdDeviation="3.3"/>
<feComposite in2="hardAlpha" operator="out"/>
<feColorMatrix type="matrix" values="0 0 0 0 1 0 0 0 0 1 0 0 0 0 1 0 0 0 0.4 0"/>
<feBlend mode="normal" in2="BackgroundImageFix" result="effect1_dropShadow_498_75"/>
<feBlend mode="normal" in="SourceGraphic" in2="effect1_dropShadow_498_75" result="shape"/>
</filter>
<linearGradient id="paint0_linear_498_75" x1="50" y1="14" x2="50" y2="85" gradientUnits="userSpaceOnUse">
<stop stop-color="#0C6B00"/>
<stop offset="1" stop-color="#8CFFE4"/>
</linearGradient>
</defs>
</svg>
