<svg width="100" height="100" viewBox="0 0 100 100" fill="none" xmlns="http://www.w3.org/2000/svg">
<g filter="url(#filter0_d_498_77)">
<mask id="path-1-outside-1_498_77" maskUnits="userSpaceOnUse" x="37" y="33" width="26" height="32" fill="black">
<rect fill="white" x="37" y="33" width="26" height="32"/>
<path d="M39.4416 63V35.48H53.3216C55.0816 35.48 56.5349 35.7333 57.6816 36.24C58.8549 36.7467 59.7216 37.52 60.2816 38.56C60.8682 39.5733 61.1616 40.8533 61.1616 42.4C61.1616 43.68 60.9882 44.76 60.6416 45.64C60.2949 46.52 59.7616 47.2267 59.0416 47.76C58.3482 48.2667 57.4549 48.64 56.3616 48.88V49.04C57.5349 49.28 58.4816 49.6533 59.2016 50.16C59.9482 50.6667 60.4949 51.3733 60.8416 52.28C61.1882 53.16 61.3616 54.2933 61.3616 55.68C61.3616 56.8267 61.2149 57.8533 60.9216 58.76C60.6549 59.6667 60.2016 60.44 59.5616 61.08C58.9482 61.6933 58.1216 62.1733 57.0816 62.52C56.0682 62.84 54.8149 63 53.3216 63H39.4416ZM46.3616 57.8H50.8816C51.8416 57.8 52.5749 57.72 53.0816 57.56C53.5882 57.3733 53.9349 57.0533 54.1216 56.6C54.3082 56.1467 54.4016 55.5067 54.4016 54.68C54.4016 53.8267 54.3082 53.1733 54.1216 52.72C53.9349 52.2667 53.5749 51.96 53.0416 51.8C52.5349 51.6133 51.8149 51.52 50.8816 51.52H46.3616V57.8ZM46.3616 46.68H50.7616C51.6682 46.68 52.3749 46.6 52.8816 46.44C53.3882 46.2533 53.7349 45.9467 53.9216 45.52C54.1349 45.0933 54.2416 44.4933 54.2416 43.72C54.2416 42.8933 54.1482 42.2667 53.9616 41.84C53.8016 41.4133 53.4682 41.12 52.9616 40.96C52.4816 40.8 51.7482 40.72 50.7616 40.72H46.3616V46.68Z"/>
</mask>
<path d="M39.4416 63V35.48H53.3216C55.0816 35.48 56.5349 35.7333 57.6816 36.24C58.8549 36.7467 59.7216 37.52 60.2816 38.56C60.8682 39.5733 61.1616 40.8533 61.1616 42.4C61.1616 43.68 60.9882 44.76 60.6416 45.64C60.2949 46.52 59.7616 47.2267 59.0416 47.76C58.3482 48.2667 57.4549 48.64 56.3616 48.88V49.04C57.5349 49.28 58.4816 49.6533 59.2016 50.16C59.9482 50.6667 60.4949 51.3733 60.8416 52.28C61.1882 53.16 61.3616 54.2933 61.3616 55.68C61.3616 56.8267 61.2149 57.8533 60.9216 58.76C60.6549 59.6667 60.2016 60.44 59.5616 61.08C58.9482 61.6933 58.1216 62.1733 57.0816 62.52C56.0682 62.84 54.8149 63 53.3216 63H39.4416ZM46.3616 57.8H50.8816C51.8416 57.8 52.5749 57.72 53.0816 57.56C53.5882 57.3733 53.9349 57.0533 54.1216 56.6C54.3082 56.1467 54.4016 55.5067 54.4016 54.68C54.4016 53.8267 54.3082 53.1733 54.1216 52.72C53.9349 52.2667 53.5749 51.96 53.0416 51.8C52.5349 51.6133 51.8149 51.52 50.8816 51.52H46.3616V57.8ZM46.3616 46.68H50.7616C51.6682 46.68 52.3749 46.6 52.8816 46.44C53.3882 46.2533 53.7349 45.9467 53.9216 45.52C54.1349 45.0933 54.2416 44.4933 54.2416 43.72C54.2416 42.8933 54.1482 42.2667 53.9616 41.84C53.8016 41.4133 53.4682 41.12 52.9616 40.96C52.4816 40.8 51.7482 40.72 50.7616 40.72H46.3616V46.68Z" fill="#FFF7D5"/>
<path d="M39.4416 63H37.9416V64.5H39.4416V63ZM39.4416 35.48V33.98H37.9416V35.48H39.4416ZM57.6816 36.24L57.0753 37.6121L57.0869 37.6171L57.6816 36.24ZM60.2816 38.56L58.9609 39.2711L58.9718 39.2915L58.9834 39.3116L60.2816 38.56ZM59.0416 47.76L59.9266 48.9711L59.9344 48.9653L59.0416 47.76ZM56.3616 48.88L56.04 47.4149L54.8616 47.6736V48.88H56.3616ZM56.3616 49.04H54.8616V50.2642L56.061 50.5096L56.3616 49.04ZM59.2016 50.16L58.3383 51.3867L58.3488 51.3941L58.3593 51.4012L59.2016 50.16ZM60.8416 52.28L59.4405 52.8157L59.4432 52.8228L59.446 52.8298L60.8416 52.28ZM60.9216 58.76L59.4944 58.2983L59.4882 58.3174L59.4825 58.3368L60.9216 58.76ZM59.5616 61.08L58.5009 60.0193L58.5009 60.0193L59.5616 61.08ZM57.0816 62.52L57.5333 63.9504L57.5446 63.9468L57.5559 63.943L57.0816 62.52ZM46.3616 57.8H44.8616V59.3H46.3616V57.8ZM53.0816 57.56L53.5333 58.9904L53.567 58.9797L53.6001 58.9675L53.0816 57.56ZM54.1216 56.6L52.7345 56.0289L52.7345 56.0289L54.1216 56.6ZM54.1216 52.72L52.7345 53.2911L52.7345 53.2911L54.1216 52.72ZM53.0416 51.8L52.523 53.2075L52.5663 53.2235L52.6105 53.2367L53.0416 51.8ZM46.3616 51.52V50.02H44.8616V51.52H46.3616ZM46.3616 46.68H44.8616V48.18H46.3616V46.68ZM52.8816 46.44L53.3333 47.8704L53.367 47.8597L53.4001 47.8475L52.8816 46.44ZM53.9216 45.52L52.5799 44.8492L52.5627 44.8836L52.5473 44.9188L53.9216 45.52ZM53.9616 41.84L52.5571 42.3667L52.5712 42.4044L52.5873 42.4412L53.9616 41.84ZM52.9616 40.96L52.4872 42.383L52.4985 42.3868L52.5099 42.3904L52.9616 40.96ZM46.3616 40.72V39.22H44.8616V40.72H46.3616ZM39.4416 63H40.9416V35.48H39.4416H37.9416V63H39.4416ZM39.4416 35.48V36.98H53.3216V35.48V33.98H39.4416V35.48ZM53.3216 35.48V36.98C54.9513 36.98 56.1803 37.2166 57.0753 37.612L57.6816 36.24L58.2878 34.868C56.8895 34.2501 55.2118 33.98 53.3216 33.98V35.48ZM57.6816 36.24L57.0869 37.6171C57.9773 38.0016 58.5745 38.5536 58.9609 39.2711L60.2816 38.56L61.6023 37.8489C60.8687 36.4864 59.7325 35.4918 58.2762 34.8629L57.6816 36.24ZM60.2816 38.56L58.9834 39.3116C59.402 40.0346 59.6616 41.0351 59.6616 42.4H61.1616H62.6616C62.6616 40.6716 62.3344 39.1121 61.5797 37.8084L60.2816 38.56ZM61.1616 42.4H59.6616C59.6616 43.5542 59.504 44.4352 59.246 45.0902L60.6416 45.64L62.0372 46.1898C62.4725 45.0848 62.6616 43.8058 62.6616 42.4H61.1616ZM60.6416 45.64L59.246 45.0902C58.9962 45.7241 58.6303 46.1979 58.1487 46.5547L59.0416 47.76L59.9344 48.9653C60.8928 48.2554 61.5936 47.3159 62.0372 46.1898L60.6416 45.64ZM59.0416 47.76L58.1565 46.5489C57.6741 46.9015 56.9889 47.2066 56.04 47.4149L56.3616 48.88L56.6832 50.3451C57.9209 50.0734 59.0224 49.6319 59.9266 48.9711L59.0416 47.76ZM56.3616 48.88H54.8616V49.04H56.3616H57.8616V48.88H56.3616ZM56.3616 49.04L56.061 50.5096C57.1006 50.7222 57.8363 51.0334 58.3383 51.3867L59.2016 50.16L60.0648 48.9333C59.1268 48.2732 57.9692 47.8378 56.6622 47.5704L56.3616 49.04ZM59.2016 50.16L58.3593 51.4012C58.8323 51.7222 59.1947 52.173 59.4405 52.8157L60.8416 52.28L62.2426 51.7443C61.7951 50.5737 61.0641 49.6111 60.0438 48.9188L59.2016 50.16ZM60.8416 52.28L59.446 52.8298C59.6994 53.4732 59.8616 54.4016 59.8616 55.68H61.3616H62.8616C62.8616 54.185 62.677 52.8468 62.2372 51.7302L60.8416 52.28ZM61.3616 55.68H59.8616C59.8616 56.7007 59.7308 57.5675 59.4944 58.2983L60.9216 58.76L62.3487 59.2217C62.699 58.1392 62.8616 56.9526 62.8616 55.68H61.3616ZM60.9216 58.76L59.4825 58.3368C59.2834 59.0137 58.9555 59.5648 58.5009 60.0193L59.5616 61.08L60.6222 62.1407C61.4476 61.3152 62.0264 60.3197 62.3606 59.1832L60.9216 58.76ZM59.5616 61.08L58.5009 60.0193C58.0899 60.4304 57.483 60.805 56.6072 61.097L57.0816 62.52L57.5559 63.943C58.7601 63.5416 59.8066 62.9563 60.6222 62.1407L59.5616 61.08ZM57.0816 62.52L56.6299 61.0896C55.8085 61.349 54.7186 61.5 53.3216 61.5V63V64.5C54.9112 64.5 56.3279 64.331 57.5333 63.9504L57.0816 62.52ZM53.3216 63V61.5H39.4416V63V64.5H53.3216V63ZM46.3616 57.8V59.3H50.8816V57.8V56.3H46.3616V57.8ZM50.8816 57.8V59.3C51.8924 59.3 52.8073 59.2196 53.5333 58.9904L53.0816 57.56L52.6299 56.1296C52.3425 56.2204 51.7908 56.3 50.8816 56.3V57.8ZM53.0816 57.56L53.6001 58.9675C54.4561 58.6522 55.145 58.0542 55.5086 57.1711L54.1216 56.6L52.7345 56.0289C52.721 56.0618 52.7108 56.0717 52.7041 56.0778C52.6948 56.0864 52.6581 56.1174 52.563 56.1525L53.0816 57.56ZM54.1216 56.6L55.5086 57.1711C55.804 56.4536 55.9016 55.5866 55.9016 54.68H54.4016H52.9016C52.9016 55.4268 52.8124 55.8397 52.7345 56.0289L54.1216 56.6ZM54.4016 54.68H55.9016C55.9016 53.7543 55.8057 52.8704 55.5086 52.1489L54.1216 52.72L52.7345 53.2911C52.8108 53.4762 52.9016 53.8991 52.9016 54.68H54.4016ZM54.1216 52.72L55.5086 52.1489C55.1252 51.2178 54.3725 50.6332 53.4726 50.3633L53.0416 51.8L52.6105 53.2367C52.713 53.2675 52.7426 53.295 52.7389 53.2919C52.7377 53.2909 52.7344 53.2876 52.7314 53.2834C52.7285 53.2794 52.7302 53.2805 52.7345 53.2911L54.1216 52.72ZM53.0416 51.8L53.5601 50.3925C52.8088 50.1157 51.8823 50.02 50.8816 50.02V51.52V53.02C51.7475 53.02 52.261 53.111 52.523 53.2075L53.0416 51.8ZM50.8816 51.52V50.02H46.3616V51.52V53.02H50.8816V51.52ZM46.3616 51.52H44.8616V57.8H46.3616H47.8616V51.52H46.3616ZM46.3616 46.68V48.18H50.7616V46.68V45.18H46.3616V46.68ZM50.7616 46.68V48.18C51.7295 48.18 52.613 48.0978 53.3333 47.8704L52.8816 46.44L52.4299 45.0096C52.1368 45.1022 51.607 45.18 50.7616 45.18V46.68ZM52.8816 46.44L53.4001 47.8475C54.2234 47.5442 54.9191 46.9822 55.2958 46.1212L53.9216 45.52L52.5473 44.9188C52.5408 44.9337 52.5368 44.9385 52.5277 44.9465C52.515 44.9578 52.4703 44.993 52.363 45.0325L52.8816 46.44ZM53.9216 45.52L55.2632 46.1908C55.6259 45.4654 55.7416 44.5978 55.7416 43.72H54.2416H52.7416C52.7416 44.3888 52.6439 44.7213 52.5799 44.8492L53.9216 45.52ZM54.2416 43.72H55.7416C55.7416 42.8222 55.6465 41.949 55.3358 41.2388L53.9616 41.84L52.5873 42.4412C52.6499 42.5844 52.7416 42.9645 52.7416 43.72H54.2416ZM53.9616 41.84L55.3661 41.3133C55.0162 40.3803 54.2774 39.8025 53.4133 39.5296L52.9616 40.96L52.5099 42.3904C52.6027 42.4197 52.6183 42.4416 52.6006 42.4261C52.5922 42.4187 52.5815 42.4072 52.5717 42.3928C52.5619 42.3786 52.5577 42.3684 52.5571 42.3667L53.9616 41.84ZM52.9616 40.96L53.4359 39.537C52.7188 39.2979 51.7867 39.22 50.7616 39.22V40.72V42.22C51.7098 42.22 52.2443 42.3021 52.4872 42.383L52.9616 40.96ZM50.7616 40.72V39.22H46.3616V40.72V42.22H50.7616V40.72ZM46.3616 40.72H44.8616V46.68H46.3616H47.8616V40.72H46.3616Z" fill="url(#paint0_linear_498_77)" mask="url(#path-1-outside-1_498_77)"/>
</g>
<defs>
<filter id="filter0_d_498_77" x="31.3415" y="28.38" width="38.12" height="43.72" filterUnits="userSpaceOnUse" color-interpolation-filters="sRGB">
<feFlood flood-opacity="0" result="BackgroundImageFix"/>
<feColorMatrix in="SourceAlpha" type="matrix" values="0 0 0 0 0 0 0 0 0 0 0 0 0 0 0 0 0 0 127 0" result="hardAlpha"/>
<feOffset dy="1"/>
<feGaussianBlur stdDeviation="3.3"/>
<feComposite in2="hardAlpha" operator="out"/>
<feColorMatrix type="matrix" values="0 0 0 0 1 0 0 0 0 1 0 0 0 0 1 0 0 0 0.4 0"/>
<feBlend mode="normal" in2="BackgroundImageFix" result="effect1_dropShadow_498_77"/>
<feBlend mode="normal" in="SourceGraphic" in2="effect1_dropShadow_498_77" result="shape"/>
</filter>
<linearGradient id="paint0_linear_498_77" x1="50" y1="14" x2="50" y2="85" gradientUnits="userSpaceOnUse">
<stop stop-color="#FFFA5C"/>
<stop offset="1" stop-color="#FFBC8C"/>
</linearGradient>
</defs>
</svg>
