<svg width="300" height="80" viewBox="0 0 300 80" fill="none" xmlns="http://www.w3.org/2000/svg">
<g filter="url(#filter0_d_149_16)">
<mask id="path-1-outside-1_149_16" maskUnits="userSpaceOnUse" x="88" y="18" width="125" height="45" fill="black">
<rect fill="white" x="88" y="18" width="125" height="45"/>
<path d="M89.6118 22.0776H110.405C112.945 22.0776 115.153 22.3516 117.029 22.8994C118.922 23.4307 120.491 24.1694 121.736 25.1157C122.981 26.062 123.902 27.1909 124.5 28.5024C125.114 29.7974 125.421 31.2002 125.421 32.7109C125.421 35.1846 124.641 37.3511 123.081 39.2104C124.874 40.2729 126.21 41.6509 127.09 43.3442C127.97 45.0376 128.41 46.9634 128.41 49.1216C128.41 50.9312 128.103 52.5664 127.488 54.0273C126.891 55.4883 125.969 56.7417 124.724 57.7876C123.496 58.8169 121.935 59.6138 120.042 60.1782C118.167 60.7261 115.95 61 113.394 61H89.6118V22.0776ZM113.443 37.019C114.124 37.019 114.788 37.0439 115.436 37.0938C116.548 36.0312 117.104 34.8193 117.104 33.458C117.104 32.0469 116.548 30.9595 115.436 30.1958C114.34 29.4155 112.729 29.0254 110.604 29.0254H97.5059V37.019H113.443ZM113.593 54.127C115.718 54.127 117.328 53.6704 118.424 52.7573C119.536 51.8442 120.092 50.5576 120.092 48.8975C120.092 47.2373 119.536 45.9424 118.424 45.0127C117.328 44.083 115.718 43.6182 113.593 43.6182H97.5059V54.127H113.593ZM134.112 51.7363C134.112 50.3252 134.419 49.0386 135.034 47.8765C135.648 46.7144 136.569 45.7183 137.798 44.8882C139.026 44.0415 140.554 43.394 142.38 42.9458C144.223 42.481 146.364 42.2485 148.805 42.2485C150.614 42.2485 152.515 42.3813 154.507 42.647C156.516 42.9126 158.583 43.3193 160.708 43.8672C160.625 42.9375 160.343 42.0825 159.861 41.3022C159.38 40.5054 158.708 39.8247 157.844 39.2603C156.998 38.6792 155.968 38.231 154.756 37.9155C153.561 37.6001 152.2 37.4424 150.672 37.4424C149.842 37.4424 148.929 37.4922 147.933 37.5918C146.937 37.6914 145.908 37.8408 144.845 38.04C143.783 38.2393 142.729 38.4883 141.683 38.7871C140.653 39.0859 139.69 39.4429 138.794 39.8579L136.553 33.8066C137.665 33.4082 138.852 33.043 140.114 32.7109C141.392 32.3789 142.695 32.0967 144.023 31.8643C145.352 31.6152 146.68 31.4243 148.008 31.2915C149.336 31.1587 150.623 31.0923 151.868 31.0923C157.363 31.0923 161.447 32.4951 164.12 35.3008C166.792 38.1064 168.129 42.4062 168.129 48.2002V61H160.758V58.2358C159.994 58.6841 159.156 59.1074 158.243 59.5059C157.346 59.9043 156.367 60.2529 155.304 60.5518C154.242 60.8506 153.096 61.083 151.868 61.249C150.656 61.4316 149.369 61.5229 148.008 61.5229C145.717 61.5229 143.7 61.2739 141.957 60.7759C140.23 60.2778 138.786 59.5889 137.624 58.709C136.461 57.8291 135.582 56.7998 134.984 55.6211C134.403 54.4258 134.112 53.1309 134.112 51.7363ZM141.882 51.4873C141.882 51.9688 142.006 52.4336 142.255 52.8818C142.504 53.3135 142.903 53.7036 143.451 54.0522C143.999 54.3843 144.696 54.6582 145.542 54.874C146.406 55.0732 147.443 55.1729 148.655 55.1729C149.95 55.1729 151.204 55.0566 152.416 54.8242C153.627 54.5918 154.756 54.2847 155.802 53.9028C156.848 53.521 157.794 53.0811 158.641 52.583C159.488 52.085 160.193 51.5703 160.758 51.0391V49.7441C159.629 49.4287 158.508 49.1631 157.396 48.9473C156.3 48.7314 155.246 48.5654 154.233 48.4492C153.237 48.3164 152.291 48.2251 151.395 48.1753C150.515 48.1255 149.743 48.1006 149.079 48.1006C147.701 48.1006 146.555 48.1919 145.642 48.3745C144.729 48.5571 143.99 48.8062 143.426 49.1216C142.861 49.4204 142.463 49.7773 142.23 50.1924C141.998 50.6074 141.882 51.0391 141.882 51.4873ZM175.625 46.4321C175.625 44.0913 176.064 41.9829 176.944 40.1069C177.824 38.2144 179.036 36.604 180.58 35.2759C182.141 33.9312 183.983 32.9019 186.108 32.188C188.25 31.4575 190.566 31.0923 193.056 31.0923C194.119 31.0923 195.165 31.1587 196.194 31.2915C197.24 31.4243 198.236 31.6069 199.182 31.8394C200.145 32.0718 201.042 32.354 201.872 32.686C202.718 33.0015 203.465 33.3501 204.113 33.7319V19.687H211.484V61H204.113V58.2358C203.465 58.6841 202.702 59.1074 201.822 59.5059C200.942 59.9043 199.996 60.2529 198.983 60.5518C197.97 60.8506 196.916 61.083 195.82 61.249C194.741 61.4316 193.67 61.5229 192.608 61.5229C190.118 61.5229 187.827 61.1577 185.735 60.4272C183.66 59.6968 181.875 58.6675 180.381 57.3394C178.887 56.0112 177.716 54.4258 176.87 52.583C176.04 50.7236 175.625 48.6733 175.625 46.4321ZM183.369 46.4321C183.369 47.6108 183.602 48.7231 184.066 49.769C184.548 50.8149 185.229 51.7363 186.108 52.5332C187.005 53.3135 188.076 53.936 189.321 54.4009C190.583 54.8491 191.994 55.0732 193.554 55.0732C194.55 55.0732 195.546 54.9819 196.542 54.7993C197.539 54.6001 198.493 54.3262 199.406 53.9775C200.336 53.6289 201.199 53.2056 201.996 52.7075C202.81 52.2095 203.515 51.6533 204.113 51.0391V40.854C203.366 40.2563 202.577 39.75 201.747 39.335C200.917 38.9199 200.07 38.5796 199.207 38.314C198.344 38.0483 197.472 37.8574 196.592 37.7412C195.712 37.6084 194.857 37.542 194.027 37.542C192.334 37.542 190.823 37.7744 189.495 38.2393C188.184 38.6875 187.071 39.3101 186.158 40.1069C185.262 40.9038 184.573 41.8418 184.091 42.9209C183.61 44 183.369 45.1704 183.369 46.4321Z"/>
</mask>
<path d="M89.6118 22.0776H110.405C112.945 22.0776 115.153 22.3516 117.029 22.8994C118.922 23.4307 120.491 24.1694 121.736 25.1157C122.981 26.062 123.902 27.1909 124.5 28.5024C125.114 29.7974 125.421 31.2002 125.421 32.7109C125.421 35.1846 124.641 37.3511 123.081 39.2104C124.874 40.2729 126.21 41.6509 127.09 43.3442C127.97 45.0376 128.41 46.9634 128.41 49.1216C128.41 50.9312 128.103 52.5664 127.488 54.0273C126.891 55.4883 125.969 56.7417 124.724 57.7876C123.496 58.8169 121.935 59.6138 120.042 60.1782C118.167 60.7261 115.95 61 113.394 61H89.6118V22.0776ZM113.443 37.019C114.124 37.019 114.788 37.0439 115.436 37.0938C116.548 36.0312 117.104 34.8193 117.104 33.458C117.104 32.0469 116.548 30.9595 115.436 30.1958C114.34 29.4155 112.729 29.0254 110.604 29.0254H97.5059V37.019H113.443ZM113.593 54.127C115.718 54.127 117.328 53.6704 118.424 52.7573C119.536 51.8442 120.092 50.5576 120.092 48.8975C120.092 47.2373 119.536 45.9424 118.424 45.0127C117.328 44.083 115.718 43.6182 113.593 43.6182H97.5059V54.127H113.593ZM134.112 51.7363C134.112 50.3252 134.419 49.0386 135.034 47.8765C135.648 46.7144 136.569 45.7183 137.798 44.8882C139.026 44.0415 140.554 43.394 142.38 42.9458C144.223 42.481 146.364 42.2485 148.805 42.2485C150.614 42.2485 152.515 42.3813 154.507 42.647C156.516 42.9126 158.583 43.3193 160.708 43.8672C160.625 42.9375 160.343 42.0825 159.861 41.3022C159.38 40.5054 158.708 39.8247 157.844 39.2603C156.998 38.6792 155.968 38.231 154.756 37.9155C153.561 37.6001 152.2 37.4424 150.672 37.4424C149.842 37.4424 148.929 37.4922 147.933 37.5918C146.937 37.6914 145.908 37.8408 144.845 38.04C143.783 38.2393 142.729 38.4883 141.683 38.7871C140.653 39.0859 139.69 39.4429 138.794 39.8579L136.553 33.8066C137.665 33.4082 138.852 33.043 140.114 32.7109C141.392 32.3789 142.695 32.0967 144.023 31.8643C145.352 31.6152 146.68 31.4243 148.008 31.2915C149.336 31.1587 150.623 31.0923 151.868 31.0923C157.363 31.0923 161.447 32.4951 164.12 35.3008C166.792 38.1064 168.129 42.4062 168.129 48.2002V61H160.758V58.2358C159.994 58.6841 159.156 59.1074 158.243 59.5059C157.346 59.9043 156.367 60.2529 155.304 60.5518C154.242 60.8506 153.096 61.083 151.868 61.249C150.656 61.4316 149.369 61.5229 148.008 61.5229C145.717 61.5229 143.7 61.2739 141.957 60.7759C140.23 60.2778 138.786 59.5889 137.624 58.709C136.461 57.8291 135.582 56.7998 134.984 55.6211C134.403 54.4258 134.112 53.1309 134.112 51.7363ZM141.882 51.4873C141.882 51.9688 142.006 52.4336 142.255 52.8818C142.504 53.3135 142.903 53.7036 143.451 54.0522C143.999 54.3843 144.696 54.6582 145.542 54.874C146.406 55.0732 147.443 55.1729 148.655 55.1729C149.95 55.1729 151.204 55.0566 152.416 54.8242C153.627 54.5918 154.756 54.2847 155.802 53.9028C156.848 53.521 157.794 53.0811 158.641 52.583C159.488 52.085 160.193 51.5703 160.758 51.0391V49.7441C159.629 49.4287 158.508 49.1631 157.396 48.9473C156.3 48.7314 155.246 48.5654 154.233 48.4492C153.237 48.3164 152.291 48.2251 151.395 48.1753C150.515 48.1255 149.743 48.1006 149.079 48.1006C147.701 48.1006 146.555 48.1919 145.642 48.3745C144.729 48.5571 143.99 48.8062 143.426 49.1216C142.861 49.4204 142.463 49.7773 142.23 50.1924C141.998 50.6074 141.882 51.0391 141.882 51.4873ZM175.625 46.4321C175.625 44.0913 176.064 41.9829 176.944 40.1069C177.824 38.2144 179.036 36.604 180.58 35.2759C182.141 33.9312 183.983 32.9019 186.108 32.188C188.25 31.4575 190.566 31.0923 193.056 31.0923C194.119 31.0923 195.165 31.1587 196.194 31.2915C197.24 31.4243 198.236 31.6069 199.182 31.8394C200.145 32.0718 201.042 32.354 201.872 32.686C202.718 33.0015 203.465 33.3501 204.113 33.7319V19.687H211.484V61H204.113V58.2358C203.465 58.6841 202.702 59.1074 201.822 59.5059C200.942 59.9043 199.996 60.2529 198.983 60.5518C197.97 60.8506 196.916 61.083 195.82 61.249C194.741 61.4316 193.67 61.5229 192.608 61.5229C190.118 61.5229 187.827 61.1577 185.735 60.4272C183.66 59.6968 181.875 58.6675 180.381 57.3394C178.887 56.0112 177.716 54.4258 176.87 52.583C176.04 50.7236 175.625 48.6733 175.625 46.4321ZM183.369 46.4321C183.369 47.6108 183.602 48.7231 184.066 49.769C184.548 50.8149 185.229 51.7363 186.108 52.5332C187.005 53.3135 188.076 53.936 189.321 54.4009C190.583 54.8491 191.994 55.0732 193.554 55.0732C194.55 55.0732 195.546 54.9819 196.542 54.7993C197.539 54.6001 198.493 54.3262 199.406 53.9775C200.336 53.6289 201.199 53.2056 201.996 52.7075C202.81 52.2095 203.515 51.6533 204.113 51.0391V40.854C203.366 40.2563 202.577 39.75 201.747 39.335C200.917 38.9199 200.07 38.5796 199.207 38.314C198.344 38.0483 197.472 37.8574 196.592 37.7412C195.712 37.6084 194.857 37.542 194.027 37.542C192.334 37.542 190.823 37.7744 189.495 38.2393C188.184 38.6875 187.071 39.3101 186.158 40.1069C185.262 40.9038 184.573 41.8418 184.091 42.9209C183.61 44 183.369 45.1704 183.369 46.4321Z" fill="#FF7D7D"/>
<path d="M89.6118 22.0776V20.8776H88.4118V22.0776H89.6118ZM117.029 22.8994L116.693 24.0514L116.705 24.0548L117.029 22.8994ZM124.5 28.5024L123.408 29L123.412 29.0084L123.416 29.0167L124.5 28.5024ZM123.081 39.2104L122.161 38.439L121.252 39.522L122.469 40.2428L123.081 39.2104ZM127.488 54.0273L126.382 53.5622L126.378 53.573L127.488 54.0273ZM124.724 57.7876L125.495 58.7074L125.496 58.7064L124.724 57.7876ZM120.042 60.1782L120.379 61.3301L120.385 61.3282L120.042 60.1782ZM89.6118 61H88.4118V62.2H89.6118V61ZM115.436 37.0938L115.344 38.2902L115.877 38.3313L116.264 37.9615L115.436 37.0938ZM115.436 30.1958L114.739 31.1733L114.748 31.1793L114.756 31.1851L115.436 30.1958ZM97.5059 29.0254V27.8254H96.3059V29.0254H97.5059ZM97.5059 37.019H96.3059V38.219H97.5059V37.019ZM118.424 52.7573L117.662 51.8298L117.656 51.8355L118.424 52.7573ZM118.424 45.0127L117.647 45.9277L117.654 45.9334L118.424 45.0127ZM97.5059 43.6182V42.4182H96.3059V43.6182H97.5059ZM97.5059 54.127H96.3059V55.327H97.5059V54.127ZM89.6118 22.0776V23.2776H110.405V22.0776V20.8776H89.6118V22.0776ZM110.405 22.0776V23.2776C112.864 23.2776 114.953 23.5433 116.693 24.0513L117.029 22.8994L117.366 21.7475C115.353 21.1599 113.027 20.8776 110.405 20.8776V22.0776ZM117.029 22.8994L116.705 24.0548C118.488 24.5553 119.911 25.2363 121.01 26.0711L121.736 25.1157L122.462 24.1603C121.07 23.1026 119.356 22.306 117.354 21.7441L117.029 22.8994ZM121.736 25.1157L121.01 26.0711C122.111 26.9079 122.9 27.8841 123.408 29L124.5 28.5024L125.592 28.0048C124.905 26.4977 123.851 25.2162 122.462 24.1603L121.736 25.1157ZM124.5 28.5024L123.416 29.0167C123.95 30.1423 124.221 31.3682 124.221 32.7109H125.421H126.621C126.621 31.0321 126.279 29.4525 125.584 27.9881L124.5 28.5024ZM125.421 32.7109H124.221C124.221 34.9083 123.537 36.8002 122.161 38.439L123.081 39.2104L124 39.9819C125.745 37.9019 126.621 35.4609 126.621 32.7109H125.421ZM123.081 39.2104L122.469 40.2428C124.087 41.202 125.258 42.4212 126.025 43.8975L127.09 43.3442L128.155 42.7909C127.162 40.8806 125.66 39.3439 123.692 38.1781L123.081 39.2104ZM127.09 43.3442L126.025 43.8975C126.805 45.3987 127.21 47.1305 127.21 49.1216H128.41H129.61C129.61 46.7963 129.134 44.6765 128.155 42.7909L127.09 43.3442ZM128.41 49.1216H127.21C127.21 50.7939 126.926 52.268 126.382 53.5622L127.488 54.0273L128.594 54.4925C129.279 52.8648 129.61 51.0684 129.61 49.1216H128.41ZM127.488 54.0273L126.378 53.573C125.856 54.8484 125.053 55.944 123.952 56.8688L124.724 57.7876L125.496 58.7064C126.885 57.5394 127.925 56.1282 128.599 54.4817L127.488 54.0273ZM124.724 57.7876L123.953 56.8678C122.876 57.7706 121.471 58.5 119.7 59.0283L120.042 60.1782L120.385 61.3282C122.399 60.7275 124.115 59.8632 125.495 58.7074L124.724 57.7876ZM120.042 60.1782L119.706 59.0263C117.967 59.5342 115.869 59.8 113.394 59.8V61V62.2C116.031 62.2 118.366 61.9179 120.379 61.3301L120.042 60.1782ZM113.394 61V59.8H89.6118V61V62.2H113.394V61ZM89.6118 61H90.8118V22.0776H89.6118H88.4118V61H89.6118ZM113.443 37.019V38.219C114.095 38.219 114.728 38.2429 115.344 38.2902L115.436 37.0938L115.528 35.8973C114.848 35.845 114.153 35.819 113.443 35.819V37.019ZM115.436 37.0938L116.264 37.9615C117.58 36.7049 118.304 35.1911 118.304 33.458H117.104H115.904C115.904 34.4475 115.516 35.3576 114.607 36.226L115.436 37.0938ZM117.104 33.458H118.304C118.304 31.673 117.57 30.206 116.115 29.2065L115.436 30.1958L114.756 31.1851C115.525 31.713 115.904 32.4207 115.904 33.458H117.104ZM115.436 30.1958L116.132 29.2183C114.746 28.2313 112.845 27.8254 110.604 27.8254V29.0254V30.2254C112.614 30.2254 113.934 30.5997 114.739 31.1733L115.436 30.1958ZM110.604 29.0254V27.8254H97.5059V29.0254V30.2254H110.604V29.0254ZM97.5059 29.0254H96.3059V37.019H97.5059H98.7059V29.0254H97.5059ZM97.5059 37.019V38.219H113.443V37.019V35.819H97.5059V37.019ZM113.593 54.127V55.327C115.866 55.327 117.797 54.8418 119.192 53.6792L118.424 52.7573L117.656 51.8355C116.859 52.499 115.57 52.927 113.593 52.927V54.127ZM118.424 52.7573L119.185 53.6848C120.62 52.5073 121.292 50.8551 121.292 48.8975H120.092H118.892C118.892 50.2602 118.453 51.1812 117.662 51.8298L118.424 52.7573ZM120.092 48.8975H121.292C121.292 46.9395 120.62 45.2843 119.193 44.092L118.424 45.0127L117.654 45.9334C118.452 46.6005 118.892 47.5351 118.892 48.8975H120.092ZM118.424 45.0127L119.2 44.0977C117.805 42.9135 115.87 42.4182 113.593 42.4182V43.6182V44.8182C115.566 44.8182 116.852 45.2525 117.647 45.9277L118.424 45.0127ZM113.593 43.6182V42.4182H97.5059V43.6182V44.8182H113.593V43.6182ZM97.5059 43.6182H96.3059V54.127H97.5059H98.7059V43.6182H97.5059ZM97.5059 54.127V55.327H113.593V54.127V52.927H97.5059V54.127ZM137.798 44.8882L138.47 45.8825L138.479 45.8763L137.798 44.8882ZM142.38 42.9458L142.666 44.1112L142.673 44.1094L142.38 42.9458ZM154.507 42.647L154.349 43.8364L154.35 43.8366L154.507 42.647ZM160.708 43.8672L160.408 45.0292L162.054 45.4535L161.903 43.7605L160.708 43.8672ZM159.861 41.3022L158.834 41.9228L158.84 41.9324L159.861 41.3022ZM157.844 39.2603L157.165 40.2497L157.176 40.2573L157.188 40.2646L157.844 39.2603ZM154.756 37.9155L154.45 39.0758L154.454 39.0768L154.756 37.9155ZM141.683 38.7871L141.353 37.6333L141.348 37.6347L141.683 38.7871ZM138.794 39.8579L137.669 40.2747L138.12 41.4924L139.298 40.9469L138.794 39.8579ZM136.553 33.8066L136.148 32.6769L135.006 33.086L135.427 34.2234L136.553 33.8066ZM140.114 32.7109L139.812 31.5495L139.808 31.5504L140.114 32.7109ZM144.023 31.8643L144.23 33.0463L144.237 33.045L144.245 33.0437L144.023 31.8643ZM168.129 61V62.2H169.329V61H168.129ZM160.758 61H159.558V62.2H160.758V61ZM160.758 58.2358H161.958V56.1401L160.15 57.2009L160.758 58.2358ZM158.243 59.5059L157.763 58.406L157.755 58.4093L158.243 59.5059ZM151.868 61.249L151.707 60.0598L151.698 60.0611L151.689 60.0624L151.868 61.249ZM141.957 60.7759L141.624 61.9289L141.627 61.9297L141.957 60.7759ZM134.984 55.6211L133.905 56.1457L133.909 56.1548L133.914 56.1638L134.984 55.6211ZM142.255 52.8818L141.206 53.4646L141.211 53.4731L141.216 53.4815L142.255 52.8818ZM143.451 54.0522L142.806 55.0646L142.818 55.0717L142.829 55.0785L143.451 54.0522ZM145.542 54.874L145.246 56.0368L145.259 56.0402L145.273 56.0433L145.542 54.874ZM152.416 54.8242L152.19 53.6457L152.416 54.8242ZM160.758 51.0391L161.58 51.9129L161.958 51.5575V51.0391H160.758ZM160.758 49.7441H161.958V48.8335L161.081 48.5884L160.758 49.7441ZM157.396 48.9473L157.164 50.1246L157.167 50.1253L157.396 48.9473ZM154.233 48.4492L154.075 49.6387L154.086 49.6401L154.097 49.6414L154.233 48.4492ZM151.395 48.1753L151.327 49.3734L151.328 49.3734L151.395 48.1753ZM145.642 48.3745L145.877 49.5512L145.642 48.3745ZM143.426 49.1216L143.987 50.1821L143.999 50.1758L144.011 50.1691L143.426 49.1216ZM134.112 51.7363H135.312C135.312 50.5059 135.578 49.4139 136.095 48.4372L135.034 47.8765L133.973 47.3157C133.261 48.6632 132.912 50.1445 132.912 51.7363H134.112ZM135.034 47.8765L136.095 48.4372C136.605 47.4707 137.383 46.6165 138.47 45.8825L137.798 44.8882L137.126 43.8939C135.755 44.82 134.69 45.958 133.973 47.3157L135.034 47.8765ZM137.798 44.8882L138.479 45.8763C139.561 45.1305 140.946 44.5334 142.666 44.1112L142.38 42.9458L142.094 41.7804C140.162 42.2547 138.492 42.9525 137.117 43.9001L137.798 44.8882ZM142.38 42.9458L142.673 44.1094C144.398 43.6744 146.437 43.4485 148.805 43.4485V42.2485V41.0485C146.292 41.0485 144.048 41.2875 142.086 41.7822L142.38 42.9458ZM148.805 42.2485V43.4485C150.556 43.4485 152.403 43.5771 154.349 43.8364L154.507 42.647L154.666 41.4575C152.627 41.1856 150.673 41.0485 148.805 41.0485V42.2485ZM154.507 42.647L154.35 43.8366C156.307 44.0954 158.326 44.4924 160.408 45.0292L160.708 43.8672L161.008 42.7052C158.84 42.1462 156.725 41.7298 154.665 41.4573L154.507 42.647ZM160.708 43.8672L161.903 43.7605C161.804 42.6486 161.464 41.6139 160.883 40.6721L159.861 41.3022L158.84 41.9324C159.222 42.5511 159.446 43.2264 159.513 43.9739L160.708 43.8672ZM159.861 41.3022L160.888 40.6817C160.304 39.7148 159.498 38.9081 158.501 38.2559L157.844 39.2603L157.188 40.2646C157.917 40.7413 158.456 41.296 158.834 41.9228L159.861 41.3022ZM157.844 39.2603L158.523 38.2708C157.54 37.596 156.377 37.0972 155.059 36.7542L154.756 37.9155L154.454 39.0768C155.56 39.3647 156.455 39.7624 157.165 40.2497L157.844 39.2603ZM154.756 37.9155L155.063 36.7552C153.747 36.4081 152.28 36.2424 150.672 36.2424V37.4424V38.6424C152.12 38.6424 153.375 38.7921 154.45 39.0758L154.756 37.9155ZM150.672 37.4424V36.2424C149.795 36.2424 148.842 36.295 147.814 36.3978L147.933 37.5918L148.053 38.7858C149.017 38.6894 149.889 38.6424 150.672 38.6424V37.4424ZM147.933 37.5918L147.814 36.3978C146.781 36.501 145.718 36.6556 144.624 36.8606L144.845 38.04L145.066 39.2195C146.098 39.0261 147.093 38.8818 148.053 38.7858L147.933 37.5918ZM144.845 38.04L144.624 36.8606C143.525 37.0667 142.434 37.3243 141.353 37.6333L141.683 38.7871L142.012 39.9409C143.023 39.6523 144.041 39.4118 145.066 39.2195L144.845 38.04ZM141.683 38.7871L141.348 37.6347C140.266 37.949 139.246 38.3265 138.29 38.7689L138.794 39.8579L139.298 40.9469C140.135 40.5593 141.041 40.2229 142.017 39.9395L141.683 38.7871ZM138.794 39.8579L139.919 39.4411L137.678 33.3899L136.553 33.8066L135.427 34.2234L137.669 40.2747L138.794 39.8579ZM136.553 33.8066L136.957 34.9363C138.034 34.5507 139.188 34.1955 140.419 33.8714L140.114 32.7109L139.808 31.5504C138.517 31.8904 137.296 32.2657 136.148 32.6769L136.553 33.8066ZM140.114 32.7109L140.415 33.8724C141.662 33.5487 142.933 33.2733 144.23 33.0463L144.023 31.8643L143.817 30.6822C142.457 30.9201 141.122 31.2091 139.812 31.5495L140.114 32.7109ZM144.023 31.8643L144.245 33.0437C145.539 32.8009 146.834 32.6149 148.127 32.4855L148.008 31.2915L147.888 30.0975C146.526 30.2337 145.164 30.4295 143.802 30.6848L144.023 31.8643ZM148.008 31.2915L148.127 32.4855C149.418 32.3564 150.665 32.2923 151.868 32.2923V31.0923V29.8923C150.58 29.8923 149.253 29.961 147.888 30.0975L148.008 31.2915ZM151.868 31.0923V32.2923C157.174 32.2923 160.885 33.6456 163.251 36.1285L164.12 35.3008L164.988 34.4731C162.008 31.3446 157.551 29.8923 151.868 29.8923V31.0923ZM164.12 35.3008L163.251 36.1285C165.626 38.622 166.929 42.5645 166.929 48.2002H168.129H169.329C169.329 42.248 167.959 37.5908 164.988 34.4731L164.12 35.3008ZM168.129 48.2002H166.929V61H168.129H169.329V48.2002H168.129ZM168.129 61V59.8H160.758V61V62.2H168.129V61ZM160.758 61H161.958V58.2358H160.758H159.558V61H160.758ZM160.758 58.2358L160.15 57.2009C159.433 57.6222 158.637 58.0243 157.763 58.406L158.243 59.5059L158.723 60.6057C159.674 60.1905 160.556 59.7459 161.365 59.2707L160.758 58.2358ZM158.243 59.5059L157.755 58.4093C156.918 58.7816 155.993 59.1115 154.979 59.3966L155.304 60.5518L155.629 61.7069C156.74 61.3944 157.775 61.027 158.73 60.6024L158.243 59.5059ZM155.304 60.5518L154.979 59.3966C153.977 59.6785 152.887 59.9004 151.707 60.0598L151.868 61.249L152.028 62.4382C153.306 62.2656 154.507 62.0226 155.629 61.7069L155.304 60.5518ZM151.868 61.249L151.689 60.0624C150.542 60.2352 149.316 60.3229 148.008 60.3229V61.5229V62.7229C149.423 62.7229 150.769 62.6281 152.046 62.4356L151.868 61.249ZM148.008 61.5229V60.3229C145.8 60.3229 143.898 60.0826 142.286 59.6221L141.957 60.7759L141.627 61.9297C143.501 62.4652 145.633 62.7229 148.008 62.7229V61.5229ZM141.957 60.7759L142.289 59.6229C140.672 59.1565 139.369 58.5252 138.348 57.7523L137.624 58.709L136.899 59.6657C138.203 60.6525 139.788 61.3992 141.624 61.9289L141.957 60.7759ZM137.624 58.709L138.348 57.7523C137.316 56.9709 136.561 56.0785 136.054 55.0784L134.984 55.6211L133.914 56.1638C134.602 57.5211 135.607 58.6873 136.899 59.6657L137.624 58.709ZM134.984 55.6211L136.063 55.0965C135.565 54.0727 135.312 52.9583 135.312 51.7363H134.112H132.912C132.912 53.3034 133.24 54.7789 133.905 56.1457L134.984 55.6211ZM141.882 51.4873H140.682C140.682 52.186 140.865 52.8501 141.206 53.4646L142.255 52.8818L143.304 52.2991C143.148 52.0171 143.082 51.7515 143.082 51.4873H141.882ZM142.255 52.8818L141.216 53.4815C141.586 54.1235 142.143 54.6427 142.806 55.0646L143.451 54.0522L144.095 53.0399C143.662 52.7646 143.422 52.5034 143.295 52.2822L142.255 52.8818ZM143.451 54.0522L142.829 55.0785C143.507 55.4896 144.323 55.8016 145.246 56.0368L145.542 54.874L145.839 53.7112C145.068 53.5148 144.49 53.279 144.073 53.026L143.451 54.0522ZM145.542 54.874L145.273 56.0433C146.25 56.2688 147.383 56.3729 148.655 56.3729V55.1729V53.9729C147.503 53.9729 146.561 53.8776 145.812 53.7048L145.542 54.874ZM148.655 55.1729V56.3729C150.022 56.3729 151.352 56.2501 152.642 56.0027L152.416 54.8242L152.19 53.6457C151.056 53.8631 149.878 53.9729 148.655 53.9729V55.1729ZM152.416 54.8242L152.642 56.0027C153.91 55.7595 155.101 55.4362 156.214 55.0301L155.802 53.9028L155.391 52.7756C154.411 53.1332 153.345 53.4241 152.19 53.6457L152.416 54.8242ZM155.802 53.9028L156.214 55.0301C157.319 54.6265 158.333 54.1567 159.25 53.6173L158.641 52.583L158.033 51.5487C157.256 52.0054 156.377 52.4155 155.391 52.7756L155.802 53.9028ZM158.641 52.583L159.25 53.6173C160.154 53.0854 160.936 52.5192 161.58 51.9129L160.758 51.0391L159.935 50.1652C159.451 50.6214 158.822 51.0846 158.033 51.5487L158.641 52.583ZM160.758 51.0391H161.958V49.7441H160.758H159.558V51.0391H160.758ZM160.758 49.7441L161.081 48.5884C159.922 48.2646 158.77 47.9914 157.625 47.7692L157.396 48.9473L157.167 50.1253C158.247 50.3348 159.336 50.5928 160.435 50.8999L160.758 49.7441ZM157.396 48.9473L157.628 47.7699C156.504 47.5484 155.418 47.3772 154.37 47.257L154.233 48.4492L154.097 49.6414C155.075 49.7536 156.097 49.9144 157.164 50.1246L157.396 48.9473ZM154.233 48.4492L154.392 47.2597C153.369 47.1233 152.392 47.0288 151.461 46.9771L151.395 48.1753L151.328 49.3734C152.19 49.4214 153.106 49.5095 154.075 49.6387L154.233 48.4492ZM151.395 48.1753L151.462 46.9772C150.567 46.9265 149.771 46.9006 149.079 46.9006V48.1006V49.3006C149.714 49.3006 150.463 49.3245 151.327 49.3734L151.395 48.1753ZM149.079 48.1006V46.9006C147.655 46.9006 146.425 46.9942 145.407 47.1978L145.642 48.3745L145.877 49.5512C146.686 49.3895 147.746 49.3006 149.079 49.3006V48.1006ZM145.642 48.3745L145.407 47.1978C144.42 47.3951 143.551 47.6772 142.84 48.074L143.426 49.1216L144.011 50.1691C144.43 49.9351 145.038 49.7191 145.877 49.5512L145.642 48.3745ZM143.426 49.1216L142.864 48.061C142.164 48.4318 141.561 48.9314 141.183 49.6061L142.23 50.1924L143.277 50.7787C143.365 50.6233 143.559 50.409 143.987 50.1821L143.426 49.1216ZM142.23 50.1924L141.183 49.6061C140.857 50.1889 140.682 50.8211 140.682 51.4873H141.882H143.082C143.082 51.257 143.139 51.026 143.277 50.7787L142.23 50.1924ZM176.944 40.1069L178.031 40.6165L178.032 40.6128L176.944 40.1069ZM180.58 35.2759L181.363 36.1856L181.363 36.1849L180.58 35.2759ZM186.108 32.188L186.491 33.3255L186.496 33.3237L186.108 32.188ZM196.194 31.2915L196.04 32.4816L196.043 32.4819L196.194 31.2915ZM199.182 31.8394L198.896 33.0047L198.901 33.0059L199.182 31.8394ZM201.872 32.686L201.426 33.8002L201.439 33.8055L201.453 33.8105L201.872 32.686ZM204.113 33.7319L203.503 34.7656L205.313 35.8328V33.7319H204.113ZM204.113 19.687V18.487H202.913V19.687H204.113ZM211.484 19.687H212.684V18.487H211.484V19.687ZM211.484 61V62.2H212.684V61H211.484ZM204.113 61H202.913V62.2H204.113V61ZM204.113 58.2358H205.313V55.9456L203.43 57.2492L204.113 58.2358ZM195.82 61.249L195.641 60.0626L195.63 60.0641L195.62 60.0658L195.82 61.249ZM185.735 60.4272L185.336 61.5592L185.339 61.5602L185.735 60.4272ZM176.87 52.583L175.774 53.0722L175.779 53.084L176.87 52.583ZM184.066 49.769L182.97 50.2564L182.973 50.2636L182.976 50.2708L184.066 49.769ZM186.108 52.5332L185.303 53.4226L185.312 53.4306L185.321 53.4384L186.108 52.5332ZM189.321 54.4009L188.901 55.5251L188.91 55.5284L188.919 55.5316L189.321 54.4009ZM196.542 54.7993L196.759 55.9796L196.768 55.9779L196.778 55.976L196.542 54.7993ZM199.406 53.9775L198.985 52.8539L198.978 52.8565L199.406 53.9775ZM201.996 52.7075L201.369 51.6841L201.36 51.6899L201.996 52.7075ZM204.113 51.0391L204.973 51.8759L205.313 51.5265V51.0391H204.113ZM204.113 40.854H205.313V40.2773L204.862 39.917L204.113 40.854ZM199.207 38.314L198.854 39.4609L199.207 38.314ZM196.592 37.7412L196.413 38.9278L196.424 38.9294L196.435 38.9309L196.592 37.7412ZM189.495 38.2393L189.883 39.3748L189.892 39.3719L189.495 38.2393ZM186.158 40.1069L185.369 39.2028L185.361 39.21L186.158 40.1069ZM175.625 46.4321H176.825C176.825 44.2445 177.235 42.3135 178.031 40.6165L176.944 40.1069L175.858 39.5974C174.894 41.6523 174.425 43.9381 174.425 46.4321H175.625ZM176.944 40.1069L178.032 40.6128C178.842 38.8711 179.951 37.3996 181.363 36.1856L180.58 35.2759L179.798 34.3662C178.121 35.8084 176.806 37.5576 175.856 39.601L176.944 40.1069ZM180.58 35.2759L181.363 36.1849C182.796 34.9502 184.5 33.9943 186.491 33.3255L186.108 32.188L185.726 31.0505C183.467 31.8094 181.485 32.9121 179.797 34.3668L180.58 35.2759ZM186.108 32.188L186.496 33.3237C188.501 32.6399 190.685 32.2923 193.056 32.2923V31.0923V29.8923C190.447 29.8923 187.999 30.2752 185.721 31.0522L186.108 32.188ZM193.056 31.0923V32.2923C194.069 32.2923 195.063 32.3555 196.04 32.4816L196.194 31.2915L196.347 30.1014C195.266 29.9618 194.169 29.8923 193.056 29.8923V31.0923ZM196.194 31.2915L196.043 32.4819C197.047 32.6094 197.998 32.7841 198.896 33.0047L199.182 31.8394L199.468 30.674C198.474 30.4298 197.433 30.2392 196.345 30.1011L196.194 31.2915ZM199.182 31.8394L198.901 33.0059C199.813 33.2262 200.655 33.4917 201.426 33.8002L201.872 32.686L202.317 31.5719C201.428 31.2163 200.477 30.9173 199.464 30.6729L199.182 31.8394ZM201.872 32.686L201.453 33.8105C202.246 34.1061 202.927 34.4259 203.503 34.7656L204.113 33.7319L204.722 32.6983C204.003 32.2743 203.191 31.8968 202.291 31.5615L201.872 32.686ZM204.113 33.7319H205.313V19.687H204.113H202.913V33.7319H204.113ZM204.113 19.687V20.887H211.484V19.687V18.487H204.113V19.687ZM211.484 19.687H210.284V61H211.484H212.684V19.687H211.484ZM211.484 61V59.8H204.113V61V62.2H211.484V61ZM204.113 61H205.313V58.2358H204.113H202.913V61H204.113ZM204.113 58.2358L203.43 57.2492C202.853 57.6484 202.155 58.0376 201.327 58.4127L201.822 59.5059L202.317 60.599C203.248 60.1772 204.078 59.7198 204.796 59.2225L204.113 58.2358ZM201.822 59.5059L201.327 58.4127C200.502 58.7863 199.608 59.1162 198.643 59.4008L198.983 60.5518L199.323 61.7027C200.383 61.3896 201.382 61.0223 202.317 60.599L201.822 59.5059ZM198.983 60.5518L198.643 59.4008C197.686 59.6834 196.685 59.9043 195.641 60.0626L195.82 61.249L196 62.4355C197.147 62.2617 198.255 62.0177 199.323 61.7027L198.983 60.5518ZM195.82 61.249L195.62 60.0658C194.605 60.2376 193.601 60.3229 192.608 60.3229V61.5229V62.7229C193.739 62.7229 194.877 62.6257 196.021 62.4322L195.82 61.249ZM192.608 61.5229V60.3229C190.236 60.3229 188.08 59.9753 186.13 59.2943L185.735 60.4272L185.339 61.5602C187.573 62.3402 189.999 62.7229 192.608 62.7229V61.5229ZM185.735 60.4272L186.133 59.2953C184.19 58.6114 182.545 57.6572 181.178 56.4425L180.381 57.3394L179.584 58.2362C181.205 59.6778 183.129 60.7822 185.336 61.5592L185.735 60.4272ZM180.381 57.3394L181.178 56.4425C179.81 55.2262 178.738 53.7762 177.96 52.082L176.87 52.583L175.779 53.084C176.694 55.0754 177.964 56.7962 179.584 58.2362L180.381 57.3394ZM176.87 52.583L177.965 52.0938C177.211 50.4033 176.825 48.5219 176.825 46.4321H175.625H174.425C174.425 48.8248 174.868 51.044 175.774 53.0722L176.87 52.583ZM183.369 46.4321H182.169C182.169 47.7736 182.435 49.0524 182.97 50.2564L184.066 49.769L185.163 49.2817C184.768 48.3938 184.569 47.4481 184.569 46.4321H183.369ZM184.066 49.769L182.976 50.2708C183.528 51.4684 184.307 52.5205 185.303 53.4226L186.108 52.5332L186.914 51.6438C186.15 50.9521 185.568 50.1615 185.156 49.2673L184.066 49.769ZM186.108 52.5332L185.321 53.4384C186.338 54.3237 187.537 55.0158 188.901 55.5251L189.321 54.4009L189.741 53.2767C188.614 52.8562 187.672 52.3033 186.896 51.628L186.108 52.5332ZM189.321 54.4009L188.919 55.5316C190.329 56.0326 191.879 56.2732 193.554 56.2732V55.0732V53.8732C192.108 53.8732 190.836 53.6657 189.723 53.2701L189.321 54.4009ZM193.554 55.0732V56.2732C194.624 56.2732 195.693 56.1751 196.759 55.9796L196.542 54.7993L196.326 53.619C195.4 53.7887 194.477 53.8732 193.554 53.8732V55.0732ZM196.542 54.7993L196.778 55.976C197.837 55.7642 198.856 55.472 199.834 55.0986L199.406 53.9775L198.978 52.8565C198.13 53.1803 197.24 53.436 196.307 53.6226L196.542 54.7993ZM199.406 53.9775L199.828 55.1011C200.828 54.726 201.764 54.2679 202.632 53.7251L201.996 52.7075L201.36 51.6899C200.635 52.1433 199.844 52.5318 198.985 52.8539L199.406 53.9775ZM201.996 52.7075L202.623 53.7309C203.512 53.1865 204.298 52.5694 204.973 51.8759L204.113 51.0391L203.253 50.2022C202.732 50.7373 202.107 51.2325 201.37 51.6841L201.996 52.7075ZM204.113 51.0391H205.313V40.854H204.113H202.913V51.0391H204.113ZM204.113 40.854L204.862 39.917C204.051 39.2681 203.192 38.7156 202.284 38.2616L201.747 39.335L201.21 40.4083C201.963 40.7844 202.68 41.2446 203.363 41.791L204.113 40.854ZM201.747 39.335L202.284 38.2616C201.396 37.8179 200.488 37.4526 199.56 37.167L199.207 38.314L198.854 39.4609C199.653 39.7066 200.438 40.022 201.21 40.4083L201.747 39.335ZM199.207 38.314L199.56 37.167C198.634 36.8821 197.697 36.6767 196.749 36.5515L196.592 37.7412L196.435 38.9309C197.248 39.0382 198.054 39.2146 198.854 39.4609L199.207 38.314ZM196.592 37.7412L196.771 36.5547C195.836 36.4135 194.921 36.342 194.027 36.342V37.542V38.742C194.793 38.742 195.588 38.8033 196.413 38.9278L196.592 37.7412ZM194.027 37.542V36.342C192.226 36.342 190.577 36.5892 189.099 37.1066L189.495 38.2393L189.892 39.3719C191.069 38.9597 192.442 38.742 194.027 38.742V37.542ZM189.495 38.2393L189.107 37.1037C187.669 37.5952 186.415 38.2899 185.369 39.2028L186.158 40.1069L186.947 41.011C187.727 40.3302 188.698 39.7798 189.883 39.3748L189.495 38.2393ZM186.158 40.1069L185.361 39.21C184.339 40.1184 183.547 41.1948 182.995 42.432L184.091 42.9209L185.187 43.4098C185.598 42.4888 186.184 41.6892 186.955 41.0038L186.158 40.1069ZM184.091 42.9209L182.995 42.432C182.441 43.6752 182.169 45.0135 182.169 46.4321H183.369H184.569C184.569 45.3273 184.779 44.3248 185.187 43.4098L184.091 42.9209Z" fill="#FFBCBC" mask="url(#path-1-outside-1_149_16)"/>
</g>
<defs>
<filter id="filter0_d_149_16" x="84.9118" y="14.9871" width="131.272" height="51.2361" filterUnits="userSpaceOnUse" color-interpolation-filters="sRGB">
<feFlood flood-opacity="0" result="BackgroundImageFix"/>
<feColorMatrix in="SourceAlpha" type="matrix" values="0 0 0 0 0 0 0 0 0 0 0 0 0 0 0 0 0 0 127 0" result="hardAlpha"/>
<feOffset/>
<feGaussianBlur stdDeviation="1.75"/>
<feComposite in2="hardAlpha" operator="out"/>
<feColorMatrix type="matrix" values="0 0 0 0 1 0 0 0 0 0.822115 0 0 0 0 0.822115 0 0 0 0.63 0"/>
<feBlend mode="normal" in2="BackgroundImageFix" result="effect1_dropShadow_149_16"/>
<feBlend mode="normal" in="SourceGraphic" in2="effect1_dropShadow_149_16" result="shape"/>
</filter>
</defs>
</svg>
