<svg width="300" height="80" viewBox="0 0 300 80" fill="none" xmlns="http://www.w3.org/2000/svg">
<g filter="url(#filter0_d_149_16)">
<path d="M99.9571 62V22.096H118.227C120.856 22.096 122.925 22.5213 124.433 23.372C125.941 24.184 127.004 25.344 127.623 26.852C128.242 28.3213 128.551 30.0613 128.551 32.072C128.551 33.7733 128.319 35.2813 127.855 36.596C127.391 37.872 126.656 38.9353 125.651 39.786C124.684 40.598 123.37 41.1587 121.707 41.468V41.7C123.795 42.048 125.342 42.7247 126.347 43.73C127.391 44.6967 128.087 45.8567 128.435 47.21C128.783 48.5633 128.957 49.994 128.957 51.502C128.957 52.8553 128.802 54.17 128.493 55.446C128.222 56.6833 127.7 57.8047 126.927 58.81C126.154 59.7767 125.032 60.55 123.563 61.13C122.132 61.71 120.238 62 117.879 62H99.9571ZM103.669 58.752H117.299C119.348 58.752 120.953 58.4813 122.113 57.94C123.273 57.3987 124.085 56.5673 124.549 55.446C125.013 54.286 125.245 52.836 125.245 51.096C125.245 49.2787 124.974 47.8093 124.433 46.688C123.93 45.5667 123.099 44.7547 121.939 44.252C120.779 43.7107 119.232 43.44 117.299 43.44H103.669V58.752ZM103.669 40.134H117.125C118.826 40.134 120.238 39.8633 121.359 39.322C122.519 38.742 123.389 37.9107 123.969 36.828C124.549 35.7067 124.839 34.3533 124.839 32.768C124.839 31.0667 124.607 29.6747 124.143 28.592C123.718 27.4707 122.944 26.6587 121.823 26.156C120.702 25.6533 119.136 25.402 117.125 25.402H103.669V40.134ZM131.892 62L147.61 22.096H152.018L167.678 62H163.792L159.152 50.226H140.302L135.72 62H131.892ZM141.52 46.92H157.934L149.872 26.272H149.582L141.52 46.92ZM172.237 62V22.096H184.591C187.801 22.096 190.43 22.2507 192.479 22.56C194.529 22.8307 196.153 23.372 197.351 24.184C198.55 24.9573 199.439 26.098 200.019 27.606C200.599 29.0753 200.967 30.9893 201.121 33.348C201.276 35.668 201.353 38.568 201.353 42.048C201.353 45.528 201.276 48.4473 201.121 50.806C200.967 53.126 200.599 55.04 200.019 56.548C199.439 58.0173 198.55 59.158 197.351 59.97C196.153 60.7433 194.529 61.2847 192.479 61.594C190.43 61.8647 187.801 62 184.591 62H172.237ZM175.949 58.694H183.605C186.273 58.694 188.477 58.636 190.217 58.52C191.957 58.404 193.33 58.0947 194.335 57.592C195.341 57.0893 196.075 56.2387 196.539 55.04C197.003 53.8413 197.293 52.198 197.409 50.11C197.564 48.022 197.641 45.3347 197.641 42.048C197.641 38.7613 197.564 36.074 197.409 33.986C197.293 31.898 196.984 30.274 196.481 29.114C196.017 27.9153 195.263 27.0647 194.219 26.562C193.214 26.0207 191.841 25.692 190.101 25.576C188.4 25.46 186.235 25.402 183.605 25.402H175.949V58.694Z" fill="#FF7D7D"/>
</g>
<defs>
<filter id="filter0_d_149_16" x="96.4571" y="18.5962" width="108.396" height="46.9038" filterUnits="userSpaceOnUse" color-interpolation-filters="sRGB">
<feFlood flood-opacity="0" result="BackgroundImageFix"/>
<feColorMatrix in="SourceAlpha" type="matrix" values="0 0 0 0 0 0 0 0 0 0 0 0 0 0 0 0 0 0 127 0" result="hardAlpha"/>
<feOffset/>
<feGaussianBlur stdDeviation="1.75"/>
<feComposite in2="hardAlpha" operator="out"/>
<feColorMatrix type="matrix" values="0 0 0 0 1 0 0 0 0 0.822115 0 0 0 0 0.822115 0 0 0 0.54 0"/>
<feBlend mode="normal" in2="BackgroundImageFix" result="effect1_dropShadow_149_16"/>
<feBlend mode="normal" in="SourceGraphic" in2="effect1_dropShadow_149_16" result="shape"/>
</filter>
</defs>
</svg>
