<svg width="300" height="80" viewBox="0 0 300 80" fill="none" xmlns="http://www.w3.org/2000/svg">
<g filter="url(#filter0_d_149_16)">
<path d="M102.416 62V22.096H120.976C123.606 22.096 125.694 22.502 127.24 23.314C128.787 24.126 129.889 25.286 130.546 26.794C131.204 28.2633 131.532 30.042 131.532 32.13C131.532 33.8313 131.3 35.3393 130.836 36.654C130.372 37.93 129.638 38.974 128.632 39.786C127.666 40.598 126.37 41.178 124.746 41.526V41.758C126.718 42.106 128.226 42.744 129.27 43.672C130.314 44.5613 131.03 45.6827 131.416 47.036C131.803 48.3893 131.996 49.878 131.996 51.502C131.996 52.894 131.822 54.228 131.474 55.504C131.165 56.78 130.604 57.9013 129.792 58.868C129.019 59.8347 127.898 60.608 126.428 61.188C124.959 61.7293 123.064 62 120.744 62H102.416ZM107.404 57.708H119.584C121.479 57.708 122.968 57.4953 124.05 57.07C125.133 56.606 125.887 55.8713 126.312 54.866C126.776 53.822 127.008 52.488 127.008 50.864C127.008 49.2013 126.757 47.8673 126.254 46.862C125.79 45.818 125.017 45.0833 123.934 44.658C122.852 44.194 121.402 43.962 119.584 43.962H107.404V57.708ZM107.404 39.612H119.352C120.976 39.612 122.31 39.38 123.354 38.916C124.437 38.452 125.23 37.7367 125.732 36.77C126.274 35.7647 126.544 34.5273 126.544 33.058C126.544 31.434 126.332 30.1387 125.906 29.172C125.52 28.2053 124.804 27.5093 123.76 27.084C122.716 26.62 121.247 26.388 119.352 26.388H107.404V39.612ZM149.085 62.464C146.92 62.464 145.103 62.2127 143.633 61.71C142.203 61.2073 141.12 60.3373 140.385 59.1C139.689 57.8627 139.341 56.1227 139.341 53.88C139.341 51.6373 139.593 49.878 140.095 48.602C140.637 47.2873 141.565 46.3593 142.879 45.818C144.194 45.2767 146.031 45.006 148.389 45.006C148.776 45.006 149.375 45.0253 150.187 45.064C151.038 45.064 152.005 45.0833 153.087 45.122C154.17 45.122 155.253 45.1413 156.335 45.18C157.457 45.18 158.481 45.1993 159.409 45.238V43.382C159.409 41.642 159.293 40.2887 159.061 39.322C158.868 38.3167 158.443 37.582 157.785 37.118C157.128 36.6153 156.2 36.306 155.001 36.19C153.841 36.0353 152.295 35.958 150.361 35.958C149.511 35.958 148.505 35.9967 147.345 36.074C146.185 36.1127 145.045 36.19 143.923 36.306C142.841 36.3833 141.971 36.48 141.313 36.596V32.768C142.783 32.4973 144.426 32.304 146.243 32.188C148.099 32.0333 150.013 31.956 151.985 31.956C154.073 31.956 155.833 32.0913 157.263 32.362C158.733 32.594 159.912 32.9807 160.801 33.522C161.729 34.0633 162.425 34.7787 162.889 35.668C163.353 36.5573 163.663 37.64 163.817 38.916C164.011 40.192 164.107 41.6807 164.107 43.382V62H159.873L159.699 57.824H159.351C158.733 59.1773 157.843 60.202 156.683 60.898C155.562 61.5553 154.325 61.9807 152.971 62.174C151.618 62.3673 150.323 62.464 149.085 62.464ZM150.825 58.578C151.947 58.578 152.991 58.52 153.957 58.404C154.924 58.2493 155.775 57.9787 156.509 57.592C157.244 57.2053 157.824 56.6253 158.249 55.852C158.675 55.04 158.965 54.17 159.119 53.242C159.313 52.2753 159.409 51.154 159.409 49.878V48.37H149.549C148.041 48.37 146.881 48.486 146.069 48.718C145.257 48.95 144.697 49.4333 144.387 50.168C144.117 50.9027 143.981 52.0047 143.981 53.474C143.981 54.9047 144.155 55.9873 144.503 56.722C144.851 57.4567 145.509 57.9593 146.475 58.23C147.481 58.462 148.931 58.578 150.825 58.578ZM183.847 62.464C181.72 62.464 179.942 62.232 178.511 61.768C177.119 61.304 176.017 60.5113 175.205 59.39C174.393 58.23 173.813 56.664 173.465 54.692C173.117 52.72 172.943 50.2453 172.943 47.268C172.943 44.252 173.098 41.758 173.407 39.786C173.755 37.7753 174.335 36.2093 175.147 35.088C175.959 33.9667 177.061 33.174 178.453 32.71C179.845 32.2073 181.604 31.956 183.731 31.956C185.316 31.956 186.728 32.0913 187.965 32.362C189.202 32.594 190.266 33.0193 191.155 33.638C192.083 34.2567 192.818 35.1073 193.359 36.19H193.649V18.906H198.405V62H194.171L193.939 57.766H193.591C193.05 59.1193 192.257 60.144 191.213 60.84C190.208 61.4973 189.067 61.9227 187.791 62.116C186.515 62.348 185.2 62.464 183.847 62.464ZM185.703 58.288C187.675 58.288 189.241 58.0173 190.401 57.476C191.561 56.9347 192.373 56.084 192.837 54.924C193.224 53.8413 193.456 52.662 193.533 51.386C193.61 50.11 193.649 48.602 193.649 46.862C193.649 45.4313 193.61 44.136 193.533 42.976C193.456 41.7773 193.243 40.7333 192.895 39.844C192.392 38.5293 191.561 37.6013 190.401 37.06C189.241 36.48 187.636 36.19 185.587 36.19C183.847 36.19 182.455 36.306 181.411 36.538C180.367 36.77 179.574 37.2727 179.033 38.046C178.492 38.7807 178.124 39.8827 177.931 41.352C177.738 42.7827 177.641 44.7353 177.641 47.21C177.641 49.6847 177.738 51.6567 177.931 53.126C178.124 54.5953 178.492 55.6973 179.033 56.432C179.574 57.1667 180.367 57.6693 181.411 57.94C182.494 58.172 183.924 58.288 185.703 58.288Z" fill="#FF7D7D"/>
</g>
<defs>
<filter id="filter0_d_149_16" x="98.9162" y="15.406" width="102.989" height="50.5579" filterUnits="userSpaceOnUse" color-interpolation-filters="sRGB">
<feFlood flood-opacity="0" result="BackgroundImageFix"/>
<feColorMatrix in="SourceAlpha" type="matrix" values="0 0 0 0 0 0 0 0 0 0 0 0 0 0 0 0 0 0 127 0" result="hardAlpha"/>
<feOffset/>
<feGaussianBlur stdDeviation="1.75"/>
<feComposite in2="hardAlpha" operator="out"/>
<feColorMatrix type="matrix" values="0 0 0 0 1 0 0 0 0 0.822115 0 0 0 0 0.822115 0 0 0 0.54 0"/>
<feBlend mode="normal" in2="BackgroundImageFix" result="effect1_dropShadow_149_16"/>
<feBlend mode="normal" in="SourceGraphic" in2="effect1_dropShadow_149_16" result="shape"/>
</filter>
</defs>
</svg>
