<svg width="100" height="100" viewBox="0 0 100 100" fill="none" xmlns="http://www.w3.org/2000/svg">
<g filter="url(#filter0_d_498_79)">
<mask id="path-1-outside-1_498_79" maskUnits="userSpaceOnUse" x="39" y="33" width="23" height="32" fill="black">
<rect fill="white" x="39" y="33" width="23" height="32"/>
<path d="M52.4738 63.32C50.3938 63.32 48.6604 63.1867 47.2738 62.92C45.8871 62.6267 44.7538 62.16 43.8737 61.52C43.0204 60.88 42.3671 60.0267 41.9138 58.96C41.4871 57.8933 41.1938 56.56 41.0338 54.96C40.8738 53.36 40.7938 51.4533 40.7938 49.24C40.7938 47.0267 40.8738 45.12 41.0338 43.52C41.1938 41.92 41.4871 40.5867 41.9138 39.52C42.3671 38.4533 43.0204 37.6 43.8737 36.96C44.7538 36.32 45.8871 35.8667 47.2738 35.6C48.6604 35.3067 50.3938 35.16 52.4738 35.16C53.2738 35.16 54.1004 35.1867 54.9538 35.24C55.8071 35.2933 56.6338 35.3733 57.4338 35.48C58.2338 35.5867 58.9138 35.72 59.4738 35.88V40.88C58.6471 40.8 57.8871 40.7333 57.1938 40.68C56.5271 40.6 55.9404 40.56 55.4338 40.56C54.9271 40.5333 54.5004 40.52 54.1538 40.52C52.9271 40.52 51.9138 40.5733 51.1138 40.68C50.3404 40.76 49.7271 40.96 49.2738 41.28C48.8204 41.6 48.4871 42.08 48.2738 42.72C48.0604 43.3333 47.9138 44.1733 47.8338 45.24C47.7804 46.28 47.7538 47.6133 47.7538 49.24C47.7538 50.84 47.7804 52.1733 47.8338 53.24C47.9138 54.3067 48.0604 55.16 48.2738 55.8C48.4871 56.44 48.8204 56.92 49.2738 57.24C49.7271 57.5333 50.3404 57.7333 51.1138 57.84C51.9138 57.92 52.9271 57.96 54.1538 57.96C54.9804 57.96 55.9138 57.9333 56.9538 57.88C57.9938 57.8 58.8871 57.7067 59.6338 57.6V62.72C59.0471 62.8267 58.3404 62.92 57.5138 63C56.6871 63.1067 55.8338 63.1867 54.9538 63.24C54.1004 63.2933 53.2738 63.32 52.4738 63.32Z"/>
</mask>
<path d="M52.4738 63.32C50.3938 63.32 48.6604 63.1867 47.2738 62.92C45.8871 62.6267 44.7538 62.16 43.8737 61.52C43.0204 60.88 42.3671 60.0267 41.9138 58.96C41.4871 57.8933 41.1938 56.56 41.0338 54.96C40.8738 53.36 40.7938 51.4533 40.7938 49.24C40.7938 47.0267 40.8738 45.12 41.0338 43.52C41.1938 41.92 41.4871 40.5867 41.9138 39.52C42.3671 38.4533 43.0204 37.6 43.8737 36.96C44.7538 36.32 45.8871 35.8667 47.2738 35.6C48.6604 35.3067 50.3938 35.16 52.4738 35.16C53.2738 35.16 54.1004 35.1867 54.9538 35.24C55.8071 35.2933 56.6338 35.3733 57.4338 35.48C58.2338 35.5867 58.9138 35.72 59.4738 35.88V40.88C58.6471 40.8 57.8871 40.7333 57.1938 40.68C56.5271 40.6 55.9404 40.56 55.4338 40.56C54.9271 40.5333 54.5004 40.52 54.1538 40.52C52.9271 40.52 51.9138 40.5733 51.1138 40.68C50.3404 40.76 49.7271 40.96 49.2738 41.28C48.8204 41.6 48.4871 42.08 48.2738 42.72C48.0604 43.3333 47.9138 44.1733 47.8338 45.24C47.7804 46.28 47.7538 47.6133 47.7538 49.24C47.7538 50.84 47.7804 52.1733 47.8338 53.24C47.9138 54.3067 48.0604 55.16 48.2738 55.8C48.4871 56.44 48.8204 56.92 49.2738 57.24C49.7271 57.5333 50.3404 57.7333 51.1138 57.84C51.9138 57.92 52.9271 57.96 54.1538 57.96C54.9804 57.96 55.9138 57.9333 56.9538 57.88C57.9938 57.8 58.8871 57.7067 59.6338 57.6V62.72C59.0471 62.8267 58.3404 62.92 57.5138 63C56.6871 63.1067 55.8338 63.1867 54.9538 63.24C54.1004 63.2933 53.2738 63.32 52.4738 63.32Z" fill="#FFBDBD"/>
<path d="M47.2738 62.92L46.9633 64.3875L46.9769 64.3904L46.9905 64.393L47.2738 62.92ZM43.8737 61.52L42.9737 62.72L42.9826 62.7266L42.9915 62.7331L43.8737 61.52ZM41.9138 58.96L40.521 59.5171L40.527 59.532L40.5333 59.5467L41.9138 58.96ZM41.0338 54.96L42.5263 54.8107L42.5263 54.8107L41.0338 54.96ZM41.0338 43.52L42.5263 43.6693L42.5263 43.6693L41.0338 43.52ZM41.9138 39.52L40.5333 38.9333L40.527 38.948L40.521 38.9629L41.9138 39.52ZM43.8737 36.96L42.9915 35.7469L42.9826 35.7534L42.9738 35.76L43.8737 36.96ZM47.2738 35.6L47.557 37.073L47.5706 37.0704L47.5842 37.0675L47.2738 35.6ZM54.9538 35.24L54.8602 36.7371L54.8602 36.7371L54.9538 35.24ZM57.4338 35.48L57.2355 36.9668L57.2355 36.9668L57.4338 35.48ZM59.4738 35.88H60.9738V34.7485L59.8858 34.4377L59.4738 35.88ZM59.4738 40.88L59.3293 42.373L60.9738 42.5322V40.88H59.4738ZM57.1938 40.68L57.015 42.1693L57.0468 42.1731L57.0787 42.1756L57.1938 40.68ZM55.4338 40.56L55.3549 42.0579L55.3943 42.06H55.4338V40.56ZM51.1138 40.68L51.2681 42.172L51.2901 42.1698L51.312 42.1668L51.1138 40.68ZM49.2738 41.28L48.4087 40.0545L48.4087 40.0545L49.2738 41.28ZM48.2738 42.72L49.6905 43.2128L49.6937 43.2036L49.6968 43.1943L48.2738 42.72ZM47.8338 45.24L46.338 45.1278L46.3366 45.1455L46.3357 45.1632L47.8338 45.24ZM47.8338 53.24L46.3356 53.3149L46.3366 53.3336L46.338 53.3522L47.8338 53.24ZM48.2738 55.8L49.6968 55.3257L49.6968 55.3257L48.2738 55.8ZM49.2738 57.24L48.4087 58.4655L48.4335 58.4829L48.4589 58.4994L49.2738 57.24ZM51.1138 57.84L50.9088 59.3259L50.9366 59.3298L50.9645 59.3326L51.1138 57.84ZM56.9538 57.88L57.0306 59.378L57.0497 59.3771L57.0688 59.3756L56.9538 57.88ZM59.6338 57.6H61.1338V55.8705L59.4216 56.1151L59.6338 57.6ZM59.6338 62.72L59.9021 64.1958L61.1338 63.9719V62.72H59.6338ZM57.5138 63L57.3693 61.507L57.3455 61.5093L57.3218 61.5123L57.5138 63ZM54.9538 63.24L54.863 61.7427L54.8602 61.7429L54.9538 63.24ZM52.4738 63.32V61.82C50.4487 61.82 48.8178 61.6895 47.557 61.447L47.2738 62.92L46.9905 64.393C48.503 64.6839 50.3388 64.82 52.4738 64.82V63.32ZM47.2738 62.92L47.5842 61.4525C46.3442 61.1902 45.4221 60.7913 44.756 60.3069L43.8737 61.52L42.9915 62.7331C44.0854 63.5287 45.43 64.0632 46.9633 64.3875L47.2738 62.92ZM43.8737 61.52L44.7738 60.32C44.1499 59.8521 43.6535 59.2185 43.2942 58.3733L41.9138 58.96L40.5333 59.5467C41.0807 60.8349 41.8909 61.9079 42.9737 62.72L43.8737 61.52ZM41.9138 58.96L43.3065 58.4029C42.9482 57.5073 42.6774 56.322 42.5263 54.8107L41.0338 54.96L39.5412 55.1093C39.7101 56.798 40.0259 58.2794 40.521 59.5171L41.9138 58.96ZM41.0338 54.96L42.5263 54.8107C42.3727 53.2748 42.2938 51.4206 42.2938 49.24H40.7938H39.2938C39.2938 51.4861 39.3748 53.4452 39.5412 55.1093L41.0338 54.96ZM40.7938 49.24H42.2938C42.2938 47.0594 42.3727 45.2052 42.5263 43.6693L41.0338 43.52L39.5412 43.3707C39.3748 45.0348 39.2938 46.9939 39.2938 49.24H40.7938ZM41.0338 43.52L42.5263 43.6693C42.6774 42.158 42.9482 40.9727 43.3065 40.0771L41.9138 39.52L40.521 38.9629C40.0259 40.2006 39.7101 41.682 39.5412 43.3707L41.0338 43.52ZM41.9138 39.52L43.2942 40.1067C43.6535 39.2615 44.1499 38.6279 44.7737 38.16L43.8737 36.96L42.9738 35.76C41.8909 36.5721 41.0807 37.6451 40.5333 38.9333L41.9138 39.52ZM43.8737 36.96L44.756 38.1731C45.4131 37.6952 46.3248 37.31 47.557 37.073L47.2738 35.6L46.9905 34.127C45.4494 34.4234 44.0944 34.9448 42.9915 35.7469L43.8737 36.96ZM47.2738 35.6L47.5842 37.0675C48.8335 36.8032 50.4545 36.66 52.4738 36.66V35.16V33.66C50.333 33.66 48.4873 33.8101 46.9633 34.1325L47.2738 35.6ZM52.4738 35.16V36.66C53.2405 36.66 54.0359 36.6856 54.8602 36.7371L54.9538 35.24L55.0473 33.7429C54.1649 33.6878 53.307 33.66 52.4738 33.66V35.16ZM54.9538 35.24L54.8602 36.7371C55.6806 36.7884 56.4722 36.8651 57.2355 36.9668L57.4338 35.48L57.632 33.9932C56.7953 33.8816 55.9336 33.7983 55.0473 33.7429L54.9538 35.24ZM57.4338 35.48L57.2355 36.9668C57.9886 37.0673 58.5927 37.1883 59.0617 37.3223L59.4738 35.88L59.8858 34.4377C59.2348 34.2517 58.4789 34.1061 57.632 33.9932L57.4338 35.48ZM59.4738 35.88H57.9738V40.88H59.4738H60.9738V35.88H59.4738ZM59.4738 40.88L59.6182 39.387C58.7836 39.3062 58.0136 39.2386 57.3088 39.1844L57.1938 40.68L57.0787 42.1756C57.7606 42.228 58.5106 42.2938 59.3293 42.373L59.4738 40.88ZM57.1938 40.68L57.3725 39.1907C56.6643 39.1057 56.0157 39.06 55.4338 39.06V40.56V42.06C55.8651 42.06 56.3899 42.0943 57.015 42.1693L57.1938 40.68ZM55.4338 40.56L55.5126 39.0621C54.9905 39.0346 54.5357 39.02 54.1538 39.02V40.52V42.02C54.4652 42.02 54.8637 42.0321 55.3549 42.0579L55.4338 40.56ZM54.1538 40.52V39.02C52.8911 39.02 51.8056 39.0745 50.9155 39.1932L51.1138 40.68L51.312 42.1668C52.0219 42.0722 52.9631 42.02 54.1538 42.02V40.52ZM51.1138 40.68L50.9594 39.188C50.0275 39.2844 49.1397 39.5385 48.4087 40.0545L49.2738 41.28L50.1388 42.5055C50.3144 42.3815 50.6534 42.2356 51.2681 42.172L51.1138 40.68ZM49.2738 41.28L48.4087 40.0545C47.6418 40.5959 47.1429 41.3691 46.8507 42.2457L48.2738 42.72L49.6968 43.1943C49.8313 42.7909 49.999 42.6041 50.1388 42.5054L49.2738 41.28ZM48.2738 42.72L46.857 42.2272C46.5824 43.0168 46.4223 44.0035 46.338 45.1278L47.8338 45.24L49.3295 45.3522C49.4052 44.3432 49.5385 43.6498 49.6905 43.2128L48.2738 42.72ZM47.8338 45.24L46.3357 45.1632C46.2806 46.2388 46.2538 47.6002 46.2538 49.24H47.7538H49.2538C49.2538 47.6265 49.2803 46.3212 49.3318 45.3168L47.8338 45.24ZM47.7538 49.24H46.2538C46.2538 50.854 46.2806 52.2143 46.3356 53.3149L47.8338 53.24L49.3319 53.1651C49.2802 52.1323 49.2538 50.826 49.2538 49.24H47.7538ZM47.8338 53.24L46.338 53.3522C46.4225 54.4793 46.5824 55.4695 46.8507 56.2743L48.2738 55.8L49.6968 55.3257C49.5384 54.8505 49.405 54.1341 49.3295 53.1278L47.8338 53.24ZM48.2738 55.8L46.8507 56.2743C47.1429 57.1509 47.6418 57.9241 48.4087 58.4655L49.2738 57.24L50.1388 56.0145C49.999 55.9159 49.8313 55.7291 49.6968 55.3257L48.2738 55.8ZM49.2738 57.24L48.4589 58.4994C49.1597 58.9529 50.0076 59.2016 50.9088 59.3259L51.1138 57.84L51.3187 56.3541C50.6732 56.265 50.2944 56.1138 50.0886 55.9806L49.2738 57.24ZM51.1138 57.84L50.9645 59.3326C51.8326 59.4194 52.9002 59.46 54.1538 59.46V57.96V56.46C52.954 56.46 51.9949 56.4206 51.263 56.3474L51.1138 57.84ZM54.1538 57.96V59.46C55.0116 59.46 55.9712 59.4324 57.0306 59.378L56.9538 57.88L56.8769 56.382C55.8563 56.4343 54.9492 56.46 54.1538 56.46V57.96ZM56.9538 57.88L57.0688 59.3756C58.13 59.294 59.0574 59.1976 59.8459 59.0849L59.6338 57.6L59.4216 56.1151C58.7167 56.2158 57.8575 56.306 56.8387 56.3844L56.9538 57.88ZM59.6338 57.6H58.1338V62.72H59.6338H61.1338V57.6H59.6338ZM59.6338 62.72L59.3654 61.2442C58.8322 61.3412 58.1692 61.4296 57.3693 61.507L57.5138 63L57.6582 64.493C58.5116 64.4104 59.262 64.3122 59.9021 64.1958L59.6338 62.72ZM57.5138 63L57.3218 61.5123C56.5306 61.6144 55.7111 61.6913 54.863 61.7427L54.9538 63.24L55.0445 64.7373C55.9564 64.682 56.8436 64.5989 57.7057 64.4877L57.5138 63ZM54.9538 63.24L54.8602 61.7429C54.0359 61.7944 53.2405 61.82 52.4738 61.82V63.32V64.82C53.307 64.82 54.1649 64.7922 55.0473 64.7371L54.9538 63.24Z" fill="url(#paint0_linear_498_79)" mask="url(#path-1-outside-1_498_79)"/>
</g>
<defs>
<filter id="filter0_d_498_79" x="32.6937" y="28.06" width="35.0401" height="44.36" filterUnits="userSpaceOnUse" color-interpolation-filters="sRGB">
<feFlood flood-opacity="0" result="BackgroundImageFix"/>
<feColorMatrix in="SourceAlpha" type="matrix" values="0 0 0 0 0 0 0 0 0 0 0 0 0 0 0 0 0 0 127 0" result="hardAlpha"/>
<feOffset dy="1"/>
<feGaussianBlur stdDeviation="3.3"/>
<feComposite in2="hardAlpha" operator="out"/>
<feColorMatrix type="matrix" values="0 0 0 0 1 0 0 0 0 1 0 0 0 0 1 0 0 0 0.4 0"/>
<feBlend mode="normal" in2="BackgroundImageFix" result="effect1_dropShadow_498_79"/>
<feBlend mode="normal" in="SourceGraphic" in2="effect1_dropShadow_498_79" result="shape"/>
</filter>
<linearGradient id="paint0_linear_498_79" x1="50" y1="14" x2="50" y2="85" gradientUnits="userSpaceOnUse">
<stop stop-color="#FF5C5C"/>
<stop offset="1" stop-color="#FF8C8E"/>
</linearGradient>
</defs>
</svg>
