<svg width="100" height="100" viewBox="0 0 100 100" fill="none" xmlns="http://www.w3.org/2000/svg">
<g filter="url(#filter0_d_550_62)">
<mask id="path-1-outside-1_550_62" maskUnits="userSpaceOnUse" x="37" y="33" width="26" height="32" fill="black">
<rect fill="white" x="37" y="33" width="26" height="32"/>
<path d="M39.2853 63V35.48H48.9253C51.3786 35.48 53.3786 35.6133 54.9253 35.88C56.472 36.12 57.6853 36.5467 58.5653 37.16C59.4453 37.7467 60.072 38.5733 60.4453 39.64C60.8453 40.68 61.0986 41.9867 61.2053 43.56C61.312 45.1333 61.3653 47.0267 61.3653 49.24C61.3653 51.4533 61.312 53.3467 61.2053 54.92C61.0986 56.4933 60.8453 57.8133 60.4453 58.88C60.072 59.92 59.4453 60.7467 58.5653 61.36C57.6853 61.9467 56.472 62.3733 54.9253 62.64C53.3786 62.88 51.3786 63 48.9253 63H39.2853ZM46.2453 57.64H48.7653C49.8586 57.64 50.752 57.6133 51.4453 57.56C52.1386 57.48 52.6853 57.32 53.0853 57.08C53.512 56.8133 53.8053 56.3867 53.9653 55.8C54.152 55.1867 54.2586 54.36 54.2853 53.32C54.3386 52.2533 54.3653 50.8933 54.3653 49.24C54.3653 47.5867 54.3386 46.24 54.2853 45.2C54.2586 44.1333 54.152 43.3067 53.9653 42.72C53.7786 42.1067 53.4853 41.6667 53.0853 41.4C52.6853 41.1333 52.1386 40.9733 51.4453 40.92C50.752 40.8667 49.8586 40.84 48.7653 40.84H46.2453V57.64Z"/>
</mask>
<path d="M39.2853 63V35.48H48.9253C51.3786 35.48 53.3786 35.6133 54.9253 35.88C56.472 36.12 57.6853 36.5467 58.5653 37.16C59.4453 37.7467 60.072 38.5733 60.4453 39.64C60.8453 40.68 61.0986 41.9867 61.2053 43.56C61.312 45.1333 61.3653 47.0267 61.3653 49.24C61.3653 51.4533 61.312 53.3467 61.2053 54.92C61.0986 56.4933 60.8453 57.8133 60.4453 58.88C60.072 59.92 59.4453 60.7467 58.5653 61.36C57.6853 61.9467 56.472 62.3733 54.9253 62.64C53.3786 62.88 51.3786 63 48.9253 63H39.2853ZM46.2453 57.64H48.7653C49.8586 57.64 50.752 57.6133 51.4453 57.56C52.1386 57.48 52.6853 57.32 53.0853 57.08C53.512 56.8133 53.8053 56.3867 53.9653 55.8C54.152 55.1867 54.2586 54.36 54.2853 53.32C54.3386 52.2533 54.3653 50.8933 54.3653 49.24C54.3653 47.5867 54.3386 46.24 54.2853 45.2C54.2586 44.1333 54.152 43.3067 53.9653 42.72C53.7786 42.1067 53.4853 41.6667 53.0853 41.4C52.6853 41.1333 52.1386 40.9733 51.4453 40.92C50.752 40.8667 49.8586 40.84 48.7653 40.84H46.2453V57.64Z" fill="#FFBDBD"/>
<path d="M39.2853 63H37.7853V64.5H39.2853V63ZM39.2853 35.48V33.98H37.7853V35.48H39.2853ZM54.9253 35.88L54.6705 37.3582L54.6829 37.3603L54.6953 37.3623L54.9253 35.88ZM58.5653 37.16L57.7076 38.3906L57.7204 38.3995L57.7333 38.4081L58.5653 37.16ZM60.4453 39.64L59.0295 40.1355L59.0371 40.1571L59.0453 40.1785L60.4453 39.64ZM61.2053 43.56L62.7019 43.4585L62.7019 43.4585L61.2053 43.56ZM60.4453 58.88L59.0408 58.3533L59.0371 58.3632L59.0335 58.3732L60.4453 58.88ZM58.5653 61.36L59.3974 62.6081L59.4103 62.5995L59.423 62.5906L58.5653 61.36ZM54.9253 62.64L55.1553 64.1223L55.1678 64.1203L55.1802 64.1182L54.9253 62.64ZM46.2453 57.64H44.7453V59.14H46.2453V57.64ZM51.4453 57.56L51.5604 59.0556L51.5889 59.0534L51.6173 59.0501L51.4453 57.56ZM53.0853 57.08L53.8571 58.3662L53.8687 58.3592L53.8803 58.352L53.0853 57.08ZM53.9653 55.8L52.5303 55.3633L52.5239 55.3842L52.5182 55.4053L53.9653 55.8ZM54.2853 53.32L52.7872 53.2451L52.7863 53.2633L52.7858 53.2816L54.2853 53.32ZM54.2853 45.2L52.7858 45.2375L52.7863 45.2572L52.7873 45.2768L54.2853 45.2ZM53.9653 42.72L52.5303 43.1567L52.5331 43.1658L52.5359 43.1748L53.9653 42.72ZM53.0853 41.4L52.2533 42.6481L52.2533 42.6481L53.0853 41.4ZM51.4453 40.92L51.5604 39.4244L51.5604 39.4244L51.4453 40.92ZM46.2453 40.84V39.34H44.7453V40.84H46.2453ZM39.2853 63H40.7853V35.48H39.2853H37.7853V63H39.2853ZM39.2853 35.48V36.98H48.9253V35.48V33.98H39.2853V35.48ZM48.9253 35.48V36.98C51.3351 36.98 53.2411 37.1117 54.6705 37.3582L54.9253 35.88L55.1802 34.4018C53.5162 34.1149 51.4222 33.98 48.9253 33.98V35.48ZM54.9253 35.88L54.6953 37.3623C56.112 37.5821 57.0809 37.9538 57.7076 38.3906L58.5653 37.16L59.423 35.9294C58.2898 35.1396 56.8319 34.6579 55.1553 34.3977L54.9253 35.88ZM58.5653 37.16L57.7333 38.4081C58.323 38.8012 58.756 39.354 59.0295 40.1355L60.4453 39.64L61.8611 39.1445C61.388 37.7926 60.5677 36.6921 59.3974 35.9119L58.5653 37.16ZM60.4453 39.64L59.0453 40.1785C59.3742 41.0337 59.6084 42.181 59.7087 43.6615L61.2053 43.56L62.7019 43.4585C62.5889 41.7923 62.3164 40.3263 61.8453 39.1015L60.4453 39.64ZM61.2053 43.56L59.7087 43.6615C59.8124 45.1906 59.8653 47.0482 59.8653 49.24H61.3653H62.8653C62.8653 47.0051 62.8115 45.076 62.7019 43.4585L61.2053 43.56ZM61.3653 49.24H59.8653C59.8653 51.4318 59.8124 53.2894 59.7087 54.8185L61.2053 54.92L62.7019 55.0215C62.8115 53.404 62.8653 51.4749 62.8653 49.24H61.3653ZM61.2053 54.92L59.7087 54.8185C59.6085 56.2979 59.3742 57.4643 59.0408 58.3533L60.4453 58.88L61.8498 59.4067C62.3164 58.1624 62.5888 56.6888 62.7019 55.0215L61.2053 54.92ZM60.4453 58.88L59.0335 58.3732C58.762 59.1297 58.3242 59.6997 57.7076 60.1294L58.5653 61.36L59.423 62.5906C60.5664 61.7937 61.382 60.7103 61.8571 59.3868L60.4453 58.88ZM58.5653 61.36L57.7333 60.1119C57.0908 60.5403 56.1019 60.915 54.6705 61.1618L54.9253 62.64L55.1802 64.1182C56.8421 63.8317 58.2799 63.3531 59.3974 62.6081L58.5653 61.36ZM54.9253 62.64L54.6953 61.1577C53.2548 61.3813 51.3396 61.5 48.9253 61.5V63V64.5C51.4177 64.5 53.5025 64.3787 55.1553 64.1223L54.9253 62.64ZM48.9253 63V61.5H39.2853V63V64.5H48.9253V63ZM46.2453 57.64V59.14H48.7653V57.64V56.14H46.2453V57.64ZM48.7653 57.64V59.14C49.878 59.14 50.8136 59.113 51.5604 59.0556L51.4453 57.56L51.3303 56.0644C50.6904 56.1136 49.8393 56.14 48.7653 56.14V57.64ZM51.4453 57.56L51.6173 59.0501C52.4269 58.9567 53.2061 58.7568 53.8571 58.3662L53.0853 57.08L52.3136 55.7938C52.1645 55.8832 51.8504 56.0033 51.2734 56.0699L51.4453 57.56ZM53.0853 57.08L53.8803 58.352C54.6911 57.8453 55.175 57.0653 55.4125 56.1947L53.9653 55.8L52.5182 55.4053C52.4356 55.7081 52.3329 55.7814 52.2903 55.808L53.0853 57.08ZM53.9653 55.8L55.4003 56.2367C55.643 55.4393 55.7566 54.4608 55.7848 53.3584L54.2853 53.32L52.7858 53.2816C52.7607 54.2592 52.6609 54.934 52.5303 55.3633L53.9653 55.8ZM54.2853 53.32L55.7834 53.3949C55.8385 52.2937 55.8653 50.9064 55.8653 49.24H54.3653H52.8653C52.8653 50.8803 52.8388 52.213 52.7872 53.2451L54.2853 53.32ZM54.3653 49.24H55.8653C55.8653 47.574 55.8385 46.1991 55.7833 45.1232L54.2853 45.2L52.7873 45.2768C52.8388 46.2809 52.8653 47.5993 52.8653 49.24H54.3653ZM54.2853 45.2L55.7848 45.1625C55.7568 44.0416 55.6446 43.0506 55.3947 42.2652L53.9653 42.72L52.5359 43.1748C52.6594 43.5627 52.7605 44.2251 52.7858 45.2375L54.2853 45.2ZM53.9653 42.72L55.4003 42.2833C55.1465 41.4491 54.69 40.667 53.9174 40.1519L53.0853 41.4L52.2533 42.6481C52.2806 42.6663 52.4108 42.7642 52.5303 43.1567L53.9653 42.72ZM53.0853 41.4L53.9174 40.1519C53.229 39.693 52.4028 39.4892 51.5604 39.4244L51.4453 40.92L51.3303 42.4156C51.8745 42.4574 52.1416 42.5736 52.2533 42.6481L53.0853 41.4ZM51.4453 40.92L51.5604 39.4244C50.8136 39.367 49.878 39.34 48.7653 39.34V40.84V42.34C49.8393 42.34 50.6904 42.3664 51.3303 42.4156L51.4453 40.92ZM48.7653 40.84V39.34H46.2453V40.84V42.34H48.7653V40.84ZM46.2453 40.84H44.7453V57.64H46.2453H47.7453V40.84H46.2453Z" fill="url(#paint0_linear_550_62)" mask="url(#path-1-outside-1_550_62)"/>
</g>
<defs>
<filter id="filter0_d_550_62" x="31.1853" y="28.38" width="38.2801" height="43.72" filterUnits="userSpaceOnUse" color-interpolation-filters="sRGB">
<feFlood flood-opacity="0" result="BackgroundImageFix"/>
<feColorMatrix in="SourceAlpha" type="matrix" values="0 0 0 0 0 0 0 0 0 0 0 0 0 0 0 0 0 0 127 0" result="hardAlpha"/>
<feOffset dy="1"/>
<feGaussianBlur stdDeviation="3.3"/>
<feComposite in2="hardAlpha" operator="out"/>
<feColorMatrix type="matrix" values="0 0 0 0 1 0 0 0 0 1 0 0 0 0 1 0 0 0 0.4 0"/>
<feBlend mode="normal" in2="BackgroundImageFix" result="effect1_dropShadow_550_62"/>
<feBlend mode="normal" in="SourceGraphic" in2="effect1_dropShadow_550_62" result="shape"/>
</filter>
<linearGradient id="paint0_linear_550_62" x1="50" y1="14" x2="50" y2="85" gradientUnits="userSpaceOnUse">
<stop stop-color="#FF5C5C"/>
<stop offset="1" stop-color="#FF8C8E"/>
</linearGradient>
</defs>
</svg>
