<svg width="100" height="100" viewBox="0 0 100 100" fill="none" xmlns="http://www.w3.org/2000/svg">
<g clip-path="url(#clip0_498_81)">
<g filter="url(#filter0_d_498_81)">
<mask id="path-1-outside-1_498_81" maskUnits="userSpaceOnUse" x="9.67482" y="26.0997" width="80.4891" height="45.8138" fill="black">
<rect fill="white" x="9.67482" y="26.0997" width="80.4891" height="45.8138"/>
<path d="M17.1629 69.5595L12.3909 40.3629L31.9967 37.1584L32.9261 42.845L20.7043 44.8425L21.8349 51.7598L32.4866 50.0188L33.416 55.7054L22.7643 57.4463L24.5469 68.3526L17.1629 69.5595ZM53.0918 64.0357C50.8851 64.3963 49.023 64.5554 47.5056 64.513C45.9836 64.4422 44.7003 64.1436 43.6557 63.6172C42.6394 63.0862 41.7983 62.2942 41.1324 61.2412C40.4948 60.1835 39.9524 58.8198 39.5052 57.1501C39.058 55.4803 38.6425 53.4714 38.2587 51.1232C37.8749 48.775 37.6292 46.7383 37.5215 45.0131C37.4138 43.2879 37.4938 41.8225 37.7615 40.6168C38.0575 39.4066 38.6027 38.3879 39.397 37.561C40.2196 36.7294 41.3434 36.0519 42.7683 35.5286C44.1886 34.9769 46.0021 34.5207 48.2088 34.1601C49.0576 34.0214 49.9392 33.9063 50.8538 33.8149C51.7683 33.7235 52.6592 33.6651 53.5265 33.6395C54.3937 33.6139 55.1383 33.6375 55.7601 33.7101L56.6271 39.0147C55.7362 39.0732 54.9184 39.1343 54.1735 39.1979C53.4524 39.2286 52.8231 39.2879 52.2855 39.3758C51.7434 39.4354 51.2884 39.4952 50.9206 39.5553C49.6192 39.768 48.5534 40.0003 47.7231 40.2522C46.9166 40.4712 46.3005 40.7897 45.8751 41.2078C45.4496 41.6259 45.1792 42.193 45.0639 42.9089C44.9439 43.5966 44.9339 44.5132 45.034 45.6588C45.1578 46.7714 45.3607 48.1906 45.6428 49.9163C45.9202 51.6138 46.1797 53.0237 46.4212 54.1461C46.6911 55.2639 46.9946 56.1438 47.3319 56.7858C47.6693 57.4278 48.1061 57.8792 48.6426 58.1401C49.1744 58.3727 49.8598 58.4786 50.6987 58.4576C51.5613 58.4038 52.6433 58.2705 53.9447 58.0578C54.8218 57.9145 55.8073 57.7243 56.9014 57.4874C57.9909 57.2222 58.9225 56.9683 59.6962 56.7256L60.584 62.1575C59.9801 62.3724 59.2465 62.594 58.3834 62.8222C57.5248 63.0787 56.6334 63.3116 55.709 63.5207C54.8129 63.7253 53.9405 63.8969 53.0918 64.0357ZM65.6923 51.4757C65.3196 50.0842 64.9423 48.6645 64.5604 47.2165C64.1739 45.7402 63.7966 44.3204 63.4286 42.9573C63.0888 41.5895 62.7817 40.3326 62.5073 39.1865C62.2282 38.0121 61.991 37.0052 61.7957 36.1657C61.6241 35.2933 61.5059 34.6591 61.4411 34.263L61.1359 32.3958L68.9868 31.1126L69.292 32.9798C69.3567 33.3759 69.4325 34.0171 69.5192 34.9034C69.6296 35.7567 69.7395 36.7845 69.8489 37.9866C69.9536 39.1604 70.0485 40.452 70.1336 41.8614C70.247 43.2661 70.3555 44.7298 70.4592 46.2524C70.5582 47.7466 70.6525 49.2126 70.7423 50.6503L65.6923 51.4757ZM66.205 61.5438L65.1993 55.3905L72.456 54.2044L73.4617 60.3577L66.205 61.5438ZM79.6998 49.1862C79.3271 47.7948 78.9498 46.3751 78.5679 44.927C78.1814 43.4507 77.8041 42.031 77.4361 40.6678C77.0963 39.3001 76.7892 38.0431 76.5148 36.8971C76.2357 35.7227 75.9985 34.7158 75.8032 33.8763C75.6316 33.0039 75.5134 32.3696 75.4486 31.9736L75.1434 30.1063L82.9943 28.8232L83.2995 30.6904C83.3642 31.0865 83.4399 31.7276 83.5267 32.6139C83.6371 33.4673 83.747 34.495 83.8564 35.6971C83.9611 36.8709 84.056 38.1625 84.1411 39.5719C84.2545 40.9767 84.363 42.4404 84.4667 43.9629C84.5656 45.4572 84.66 46.9232 84.7498 48.3608L79.6998 49.1862ZM80.2125 59.2544L79.2068 53.101L86.4635 51.915L87.4692 58.0683L80.2125 59.2544Z"/>
</mask>
<path d="M17.1629 69.5595L12.3909 40.3629L31.9967 37.1584L32.9261 42.845L20.7043 44.8425L21.8349 51.7598L32.4866 50.0188L33.416 55.7054L22.7643 57.4463L24.5469 68.3526L17.1629 69.5595ZM53.0918 64.0357C50.8851 64.3963 49.023 64.5554 47.5056 64.513C45.9836 64.4422 44.7003 64.1436 43.6557 63.6172C42.6394 63.0862 41.7983 62.2942 41.1324 61.2412C40.4948 60.1835 39.9524 58.8198 39.5052 57.1501C39.058 55.4803 38.6425 53.4714 38.2587 51.1232C37.8749 48.775 37.6292 46.7383 37.5215 45.0131C37.4138 43.2879 37.4938 41.8225 37.7615 40.6168C38.0575 39.4066 38.6027 38.3879 39.397 37.561C40.2196 36.7294 41.3434 36.0519 42.7683 35.5286C44.1886 34.9769 46.0021 34.5207 48.2088 34.1601C49.0576 34.0214 49.9392 33.9063 50.8538 33.8149C51.7683 33.7235 52.6592 33.6651 53.5265 33.6395C54.3937 33.6139 55.1383 33.6375 55.7601 33.7101L56.6271 39.0147C55.7362 39.0732 54.9184 39.1343 54.1735 39.1979C53.4524 39.2286 52.8231 39.2879 52.2855 39.3758C51.7434 39.4354 51.2884 39.4952 50.9206 39.5553C49.6192 39.768 48.5534 40.0003 47.7231 40.2522C46.9166 40.4712 46.3005 40.7897 45.8751 41.2078C45.4496 41.6259 45.1792 42.193 45.0639 42.9089C44.9439 43.5966 44.9339 44.5132 45.034 45.6588C45.1578 46.7714 45.3607 48.1906 45.6428 49.9163C45.9202 51.6138 46.1797 53.0237 46.4212 54.1461C46.6911 55.2639 46.9946 56.1438 47.3319 56.7858C47.6693 57.4278 48.1061 57.8792 48.6426 58.1401C49.1744 58.3727 49.8598 58.4786 50.6987 58.4576C51.5613 58.4038 52.6433 58.2705 53.9447 58.0578C54.8218 57.9145 55.8073 57.7243 56.9014 57.4874C57.9909 57.2222 58.9225 56.9683 59.6962 56.7256L60.584 62.1575C59.9801 62.3724 59.2465 62.594 58.3834 62.8222C57.5248 63.0787 56.6334 63.3116 55.709 63.5207C54.8129 63.7253 53.9405 63.8969 53.0918 64.0357ZM65.6923 51.4757C65.3196 50.0842 64.9423 48.6645 64.5604 47.2165C64.1739 45.7402 63.7966 44.3204 63.4286 42.9573C63.0888 41.5895 62.7817 40.3326 62.5073 39.1865C62.2282 38.0121 61.991 37.0052 61.7957 36.1657C61.6241 35.2933 61.5059 34.6591 61.4411 34.263L61.1359 32.3958L68.9868 31.1126L69.292 32.9798C69.3567 33.3759 69.4325 34.0171 69.5192 34.9034C69.6296 35.7567 69.7395 36.7845 69.8489 37.9866C69.9536 39.1604 70.0485 40.452 70.1336 41.8614C70.247 43.2661 70.3555 44.7298 70.4592 46.2524C70.5582 47.7466 70.6525 49.2126 70.7423 50.6503L65.6923 51.4757ZM66.205 61.5438L65.1993 55.3905L72.456 54.2044L73.4617 60.3577L66.205 61.5438ZM79.6998 49.1862C79.3271 47.7948 78.9498 46.3751 78.5679 44.927C78.1814 43.4507 77.8041 42.031 77.4361 40.6678C77.0963 39.3001 76.7892 38.0431 76.5148 36.8971C76.2357 35.7227 75.9985 34.7158 75.8032 33.8763C75.6316 33.0039 75.5134 32.3696 75.4486 31.9736L75.1434 30.1063L82.9943 28.8232L83.2995 30.6904C83.3642 31.0865 83.4399 31.7276 83.5267 32.6139C83.6371 33.4673 83.747 34.495 83.8564 35.6971C83.9611 36.8709 84.056 38.1625 84.1411 39.5719C84.2545 40.9767 84.363 42.4404 84.4667 43.9629C84.5656 45.4572 84.66 46.9232 84.7498 48.3608L79.6998 49.1862ZM80.2125 59.2544L79.2068 53.101L86.4635 51.915L87.4692 58.0683L80.2125 59.2544Z" fill="url(#paint0_linear_498_81)"/>
<path d="M17.1629 69.5595L15.6825 69.8014L15.9245 71.2818L17.4048 71.0398L17.1629 69.5595ZM12.3909 40.3629L12.1489 38.8825L10.6686 39.1245L10.9105 40.6048L12.3909 40.3629ZM31.9967 37.1584L33.4771 36.9165L33.2351 35.4361L31.7548 35.6781L31.9967 37.1584ZM32.9261 42.845L33.1681 44.3253L34.6485 44.0834L34.4065 42.603L32.9261 42.845ZM20.7043 44.8425L20.4624 43.3622L18.982 43.6041L19.224 45.0845L20.7043 44.8425ZM21.8349 51.7598L20.3545 52.0017L20.5965 53.4821L22.0768 53.2401L21.8349 51.7598ZM32.4866 50.0188L33.9669 49.7768L33.725 48.2965L32.2446 48.5384L32.4866 50.0188ZM33.416 55.7054L33.6579 57.1857L35.1383 56.9438L34.8963 55.4634L33.416 55.7054ZM22.7643 57.4463L22.5224 55.9659L21.042 56.2079L21.284 57.6883L22.7643 57.4463ZM24.5469 68.3526L24.7888 69.8329L26.2692 69.591L26.0273 68.1106L24.5469 68.3526ZM17.1629 69.5595L18.6432 69.3175L13.8712 40.1209L12.3909 40.3629L10.9105 40.6048L15.6825 69.8014L17.1629 69.5595ZM12.3909 40.3629L12.6328 41.8432L32.2387 38.6388L31.9967 37.1584L31.7548 35.6781L12.1489 38.8825L12.3909 40.3629ZM31.9967 37.1584L30.5164 37.4004L31.4458 43.0869L32.9261 42.845L34.4065 42.603L33.4771 36.9165L31.9967 37.1584ZM32.9261 42.845L32.6842 41.3646L20.4624 43.3622L20.7043 44.8425L20.9463 46.3229L33.1681 44.3253L32.9261 42.845ZM20.7043 44.8425L19.224 45.0845L20.3545 52.0017L21.8349 51.7598L23.3153 51.5178L22.1847 44.6006L20.7043 44.8425ZM21.8349 51.7598L22.0768 53.2401L32.7285 51.4992L32.4866 50.0188L32.2446 48.5384L21.5929 50.2794L21.8349 51.7598ZM32.4866 50.0188L31.0062 50.2608L31.9356 55.9473L33.416 55.7054L34.8963 55.4634L33.9669 49.7768L32.4866 50.0188ZM33.416 55.7054L33.174 54.225L22.5224 55.9659L22.7643 57.4463L23.0063 58.9267L33.6579 57.1857L33.416 55.7054ZM22.7643 57.4463L21.284 57.6883L23.0665 68.5945L24.5469 68.3526L26.0273 68.1106L24.2447 57.2043L22.7643 57.4463ZM24.5469 68.3526L24.3049 66.8722L16.9209 68.0791L17.1629 69.5595L17.4048 71.0398L24.7888 69.8329L24.5469 68.3526ZM47.5056 64.513L47.436 66.0114L47.4498 66.012L47.4637 66.0124L47.5056 64.513ZM43.6557 63.6172L42.9611 64.9467L42.9709 64.9518L42.9807 64.9568L43.6557 63.6172ZM41.1324 61.2412L39.8478 62.0156L39.8561 62.0293L39.8646 62.0429L41.1324 61.2412ZM39.5052 57.1501L40.9541 56.762L40.9541 56.762L39.5052 57.1501ZM37.5215 45.0131L39.0186 44.9196L39.0186 44.9196L37.5215 45.0131ZM37.7615 40.6168L36.3044 40.2605L36.3006 40.276L36.2972 40.2917L37.7615 40.6168ZM39.397 37.561L38.3306 36.5061L38.3229 36.5139L38.3152 36.5219L39.397 37.561ZM42.7683 35.5286L43.2855 36.9366L43.2985 36.9318L43.3114 36.9268L42.7683 35.5286ZM50.8538 33.8149L51.0029 35.3075L51.0029 35.3075L50.8538 33.8149ZM53.5265 33.6395L53.5707 35.1388L53.5707 35.1388L53.5265 33.6395ZM55.7601 33.7101L57.2405 33.4682L57.058 32.3515L55.9342 32.2203L55.7601 33.7101ZM56.6271 39.0147L56.7254 40.5115L58.374 40.4033L58.1075 38.7728L56.6271 39.0147ZM54.1735 39.1979L54.2374 40.6966L54.2694 40.6952L54.3013 40.6925L54.1735 39.1979ZM52.2855 39.3758L52.4493 40.8668L52.4885 40.8625L52.5275 40.8561L52.2855 39.3758ZM47.7231 40.2522L48.1161 41.6998L48.1375 41.694L48.1586 41.6876L47.7231 40.2522ZM45.8751 41.2078L44.8237 40.1379L44.8237 40.1379L45.8751 41.2078ZM45.0639 42.9089L46.5415 43.1667L46.5432 43.1571L46.5448 43.1475L45.0639 42.9089ZM45.034 45.6588L43.5397 45.7893L43.5413 45.807L43.5432 45.8246L45.034 45.6588ZM46.4212 54.1461L44.9548 54.4617L44.9587 54.48L44.9631 54.4981L46.4212 54.1461ZM47.3319 56.7858L48.6598 56.0881L48.6598 56.0881L47.3319 56.7858ZM48.6426 58.1401L47.9865 59.4891L48.0138 59.5023L48.0415 59.5144L48.6426 58.1401ZM50.6987 58.4576L50.7361 59.9572L50.7642 59.9565L50.7922 59.9547L50.6987 58.4576ZM56.9014 57.4874L57.2189 58.9534L57.2376 58.9494L57.2562 58.9448L56.9014 57.4874ZM59.6962 56.7256L61.1765 56.4837L60.8975 54.7768L59.2473 55.2944L59.6962 56.7256ZM60.584 62.1575L61.0868 63.5707L62.2663 63.1511L62.0643 61.9156L60.584 62.1575ZM58.3834 62.8222L57.9999 61.3721L57.9768 61.3782L57.954 61.385L58.3834 62.8222ZM55.709 63.5207L55.378 62.0577L55.3752 62.0584L55.709 63.5207ZM53.0918 64.0357L52.8498 62.5553C50.6974 62.9071 48.9369 63.0524 47.5476 63.0136L47.5056 64.513L47.4637 66.0124C49.1092 66.0584 51.0728 65.8856 53.3338 65.516L53.0918 64.0357ZM47.5056 64.513L47.5753 63.0146C46.203 62.9508 45.1392 62.6851 44.3308 62.2777L43.6557 63.6172L42.9807 64.9568C44.2615 65.6022 45.7643 65.9336 47.436 66.0114L47.5056 64.513ZM43.6557 63.6172L44.3504 62.2878C43.5883 61.8896 42.9375 61.2891 42.4002 60.4394L41.1324 61.2412L39.8646 62.0429C40.6592 63.2993 41.6906 64.2828 42.9611 64.9467L43.6557 63.6172ZM41.1324 61.2412L42.417 60.4667C41.8745 59.5668 41.3783 58.3456 40.9541 56.762L39.5052 57.1501L38.0563 57.5381C38.5265 59.294 39.1151 60.8002 39.8478 62.0156L41.1324 61.2412ZM39.5052 57.1501L40.9541 56.762C40.5236 55.1545 40.1176 53.1971 39.7391 50.8812L38.2587 51.1232L36.7784 51.3651C37.1675 53.7457 37.5924 55.8062 38.0563 57.5381L39.5052 57.1501ZM38.2587 51.1232L39.7391 50.8812C39.3606 48.5654 39.1223 46.5806 39.0186 44.9196L37.5215 45.0131L36.0244 45.1066C36.1361 46.8961 36.3893 48.9846 36.7784 51.3651L38.2587 51.1232ZM37.5215 45.0131L39.0186 44.9196C38.9164 43.2834 38.9981 41.9677 39.2258 40.942L37.7615 40.6168L36.2972 40.2917C35.9895 41.6772 35.9112 43.2924 36.0244 45.1066L37.5215 45.0131ZM37.7615 40.6168L39.2186 40.9732C39.4574 39.9967 39.8832 39.2202 40.4788 38.6001L39.397 37.561L38.3152 36.5219C37.3222 37.5557 36.6576 38.8164 36.3044 40.2605L37.7615 40.6168ZM39.397 37.561L40.4634 38.6159C41.0922 37.9803 42.0082 37.4057 43.2855 36.9366L42.7683 35.5286L42.2512 34.1205C40.6786 34.6981 39.3471 35.4785 38.3306 36.5061L39.397 37.561ZM42.7683 35.5286L43.3114 36.9268C44.6008 36.426 46.304 35.9913 48.4508 35.6404L48.2088 34.1601L47.9669 32.6797C45.7002 33.0502 43.7764 33.5278 42.2252 34.1303L42.7683 35.5286ZM48.2088 34.1601L48.4508 35.6404C49.2667 35.5071 50.1173 35.396 51.0029 35.3075L50.8538 33.8149L50.7046 32.3223C49.7611 32.4166 48.8484 32.5356 47.9669 32.6797L48.2088 34.1601ZM50.8538 33.8149L51.0029 35.3075C51.8846 35.2194 52.7405 35.1633 53.5707 35.1388L53.5265 33.6395L53.4823 32.1401C52.578 32.1668 51.6521 32.2277 50.7046 32.3223L50.8538 33.8149ZM53.5265 33.6395L53.5707 35.1388C54.3906 35.1147 55.0582 35.1383 55.5861 35.2L55.7601 33.7101L55.9342 32.2203C55.2183 32.1366 54.3968 32.1132 53.4823 32.1401L53.5265 33.6395ZM55.7601 33.7101L54.2798 33.9521L55.1468 39.2567L56.6271 39.0147L58.1075 38.7728L57.2405 33.4682L55.7601 33.7101ZM56.6271 39.0147L56.5289 37.518C55.63 37.577 54.8021 37.6387 54.0458 37.7034L54.1735 39.1979L54.3013 40.6925C55.0346 40.6298 55.8425 40.5695 56.7254 40.5115L56.6271 39.0147ZM54.1735 39.1979L54.1097 37.6993C53.3468 37.7318 52.6554 37.7954 52.0436 37.8954L52.2855 39.3758L52.5275 40.8561C52.9907 40.7804 53.558 40.7255 54.2374 40.6966L54.1735 39.1979ZM52.2855 39.3758L52.1217 37.8848C51.5642 37.946 51.0812 38.0091 50.6786 38.0749L50.9206 39.5553L51.1626 41.0357C51.4955 40.9812 51.9225 40.9247 52.4493 40.8668L52.2855 39.3758ZM50.9206 39.5553L50.6786 38.0749C49.3417 38.2935 48.2049 38.5385 47.2877 38.8168L47.7231 40.2522L48.1586 41.6876C48.9019 41.4621 49.8967 41.2426 51.1626 41.0357L50.9206 39.5553ZM47.7231 40.2522L47.3301 38.8046C46.3697 39.0653 45.4916 39.4816 44.8237 40.1379L45.8751 41.2078L46.9264 42.2777C47.1095 42.0978 47.4634 41.877 48.1161 41.6998L47.7231 40.2522ZM45.8751 41.2078L44.8237 40.1379C44.1245 40.8251 43.738 41.7082 43.583 42.6703L45.0639 42.9089L46.5448 43.1475C46.6205 42.6777 46.7748 42.4267 46.9264 42.2777L45.8751 41.2078ZM45.0639 42.9089L43.5862 42.6511C43.4341 43.5227 43.4346 44.5862 43.5397 45.7893L45.034 45.6588L46.5283 45.5282C46.4333 44.4403 46.4536 43.6705 46.5415 43.1667L45.0639 42.9089ZM45.034 45.6588L43.5432 45.8246C43.6709 46.9726 43.8782 48.4195 44.1624 50.1583L45.6428 49.9163L47.1231 49.6744C46.8432 47.9616 46.6446 46.5701 46.5248 45.4929L45.034 45.6588ZM45.6428 49.9163L44.1624 50.1583C44.4421 51.8696 44.7061 53.3061 44.9548 54.4617L46.4212 54.1461L47.8877 53.8306C47.6533 52.7414 47.3983 51.358 47.1231 49.6744L45.6428 49.9163ZM46.4212 54.1461L44.9631 54.4981C45.2472 55.6748 45.5859 56.6876 46.0041 57.4835L47.3319 56.7858L48.6598 56.0881C48.4034 55.6 48.135 54.853 47.8793 53.7941L46.4212 54.1461ZM47.3319 56.7858L46.0041 57.4835C46.4574 58.3462 47.1049 59.0603 47.9865 59.4891L48.6426 58.1401L49.2986 56.7912C49.1074 56.6982 48.8812 56.5094 48.6598 56.0881L47.3319 56.7858ZM48.6426 58.1401L48.0415 59.5144C48.8434 59.8652 49.7682 59.9813 50.7361 59.9572L50.6987 58.4576L50.6613 56.9581C49.9514 56.9758 49.5053 56.8803 49.2436 56.7658L48.6426 58.1401ZM50.6987 58.4576L50.7922 59.9547C51.7231 59.8966 52.8587 59.7552 54.1867 59.5382L53.9447 58.0578L53.7028 56.5774C52.4279 56.7858 51.3995 56.911 50.6053 56.9605L50.6987 58.4576ZM53.9447 58.0578L54.1867 59.5382C55.0945 59.3898 56.1058 59.1944 57.2189 58.9534L56.9014 57.4874L56.584 56.0214C55.5088 56.2542 54.549 56.4391 53.7028 56.5774L53.9447 58.0578ZM56.9014 57.4874L57.2562 58.9448C58.3663 58.6746 59.3311 58.4122 60.145 58.1569L59.6962 56.7256L59.2473 55.2944C58.5139 55.5244 57.6155 55.7698 56.5467 56.03L56.9014 57.4874ZM59.6962 56.7256L58.2158 56.9676L59.1036 62.3995L60.584 62.1575L62.0643 61.9156L61.1765 56.4837L59.6962 56.7256ZM60.584 62.1575L60.0811 60.7444C59.5283 60.941 58.8371 61.1507 57.9999 61.3721L58.3834 62.8222L58.7668 64.2724C59.6559 64.0373 60.4318 63.8038 61.0868 63.5707L60.584 62.1575ZM58.3834 62.8222L57.954 61.385C57.1297 61.6313 56.2711 61.8556 55.378 62.0577L55.709 63.5207L56.0401 64.9838C56.9956 64.7675 57.92 64.5262 58.8128 64.2594L58.3834 62.8222ZM55.709 63.5207L55.3752 62.0584C54.5075 62.2564 53.6658 62.4219 52.8498 62.5553L53.0918 64.0357L53.3338 65.516C54.2153 65.3719 55.1184 65.1942 56.0428 64.9831L55.709 63.5207ZM65.6923 51.4757L64.2433 51.8637L64.5945 53.175L65.9342 52.956L65.6923 51.4757ZM64.5604 47.2165L63.1093 47.5964L63.11 47.599L64.5604 47.2165ZM63.4286 42.9573L61.9728 43.3189L61.9765 43.3336L61.9804 43.3483L63.4286 42.9573ZM62.5073 39.1865L61.0479 39.5333L61.0485 39.5358L62.5073 39.1865ZM61.7957 36.1657L60.3239 36.4553L60.3289 36.4805L60.3347 36.5056L61.7957 36.1657ZM61.1359 32.3958L60.894 30.9154L59.4136 31.1574L59.6556 32.6377L61.1359 32.3958ZM68.9868 31.1126L70.4671 30.8706L70.2252 29.3903L68.7448 29.6322L68.9868 31.1126ZM69.5192 34.9034L68.0263 35.0495L68.0286 35.0727L68.0316 35.0959L69.5192 34.9034ZM69.8489 37.9866L71.3429 37.8533L71.3427 37.8507L69.8489 37.9866ZM70.1336 41.8614L68.6363 41.9518L68.6373 41.967L68.6385 41.9821L70.1336 41.8614ZM70.4592 46.2524L71.9559 46.1532L71.9557 46.1505L70.4592 46.2524ZM70.7423 50.6503L70.9842 52.1306L72.3239 51.9117L72.2394 50.5568L70.7423 50.6503ZM66.205 61.5438L64.7247 61.7858L64.9666 63.2661L66.447 63.0242L66.205 61.5438ZM65.1993 55.3905L64.9573 53.9101L63.477 54.1521L63.7189 55.6324L65.1993 55.3905ZM72.456 54.2044L73.9364 53.9624L73.6944 52.4821L72.214 52.724L72.456 54.2044ZM73.4617 60.3577L73.7037 61.8381L75.184 61.5962L74.9421 60.1158L73.4617 60.3577ZM65.6923 51.4757L67.1412 51.0876C66.7691 49.6981 66.3923 48.2802 66.0108 46.8339L64.5604 47.2165L63.11 47.599C63.4924 49.0488 63.8702 50.4704 64.2433 51.8637L65.6923 51.4757ZM64.5604 47.2165L66.0115 46.8365C65.6241 45.3568 65.2458 43.9334 64.8767 42.5663L63.4286 42.9573L61.9804 43.3483C62.3474 44.7074 62.7237 46.1235 63.1093 47.5964L64.5604 47.2165ZM63.4286 42.9573L64.8843 42.5957C64.5454 41.2312 64.2393 39.9784 63.966 38.8372L62.5073 39.1865L61.0485 39.5358C61.3241 40.6867 61.6322 41.9478 61.9728 43.3189L63.4286 42.9573ZM62.5073 39.1865L63.9666 38.8397C63.6879 37.6668 63.4513 36.6623 63.2567 35.8258L61.7957 36.1657L60.3347 36.5056C60.5307 37.3481 60.7685 38.3575 61.0479 39.5333L62.5073 39.1865ZM61.7957 36.1657L63.2675 35.8762C63.0962 35.0054 62.982 34.3914 62.9215 34.021L61.4411 34.263L59.9608 34.505C60.0297 34.9267 60.152 35.5813 60.3239 36.4553L61.7957 36.1657ZM61.4411 34.263L62.9215 34.021L62.6163 32.1538L61.1359 32.3958L59.6556 32.6377L59.9608 34.505L61.4411 34.263ZM61.1359 32.3958L61.3779 33.8761L69.2287 32.593L68.9868 31.1126L68.7448 29.6322L60.894 30.9154L61.1359 32.3958ZM68.9868 31.1126L67.5064 31.3546L67.8116 33.2218L69.292 32.9798L70.7723 32.7379L70.4671 30.8706L68.9868 31.1126ZM69.292 32.9798L67.8116 33.2218C67.868 33.5665 67.9399 34.1664 68.0263 35.0495L69.5192 34.9034L71.0121 34.7572C70.925 33.8678 70.8454 33.1853 70.7723 32.7379L69.292 32.9798ZM69.5192 34.9034L68.0316 35.0959C68.1389 35.9246 68.2468 36.9324 68.355 38.1224L69.8489 37.9866L71.3427 37.8507C71.2323 36.6365 71.1204 35.5888 71.0068 34.7109L69.5192 34.9034ZM69.8489 37.9866L68.3548 38.1198C68.458 39.2769 68.5519 40.554 68.6363 41.9518L70.1336 41.8614L71.6309 41.7709C71.5451 40.3499 71.4491 39.0438 71.3429 37.8533L69.8489 37.9866ZM70.1336 41.8614L68.6385 41.9821C68.7513 43.3801 68.8594 44.8374 68.9626 46.3542L70.4592 46.2524L71.9557 46.1505C71.8517 44.6222 71.7427 43.1522 71.6287 41.7407L70.1336 41.8614ZM70.4592 46.2524L68.9624 46.3515C69.0613 47.844 69.1556 49.308 69.2452 50.7437L70.7423 50.6503L72.2394 50.5568C72.1495 49.1172 72.055 47.6493 71.9559 46.1532L70.4592 46.2524ZM70.7423 50.6503L70.5003 49.1699L65.4503 49.9953L65.6923 51.4757L65.9342 52.956L70.9842 52.1306L70.7423 50.6503ZM66.205 61.5438L67.6854 61.3019L66.6796 55.1485L65.1993 55.3905L63.7189 55.6324L64.7247 61.7858L66.205 61.5438ZM65.1993 55.3905L65.4412 56.8708L72.698 55.6848L72.456 54.2044L72.214 52.724L64.9573 53.9101L65.1993 55.3905ZM72.456 54.2044L70.9756 54.4464L71.9814 60.5997L73.4617 60.3577L74.9421 60.1158L73.9364 53.9624L72.456 54.2044ZM73.4617 60.3577L73.2198 58.8774L65.9631 60.0635L66.205 61.5438L66.447 63.0242L73.7037 61.8381L73.4617 60.3577ZM79.6998 49.1862L78.2508 49.5743L78.602 50.8856L79.9417 50.6666L79.6998 49.1862ZM78.5679 44.927L77.1168 45.307L77.1175 45.3096L78.5679 44.927ZM77.4361 40.6678L75.9803 41.0294L75.984 41.0442L75.9879 41.0588L77.4361 40.6678ZM76.5148 36.8971L75.0554 37.2439L75.056 37.2464L76.5148 36.8971ZM75.8032 33.8763L74.3314 34.1658L74.3364 34.1911L74.3422 34.2162L75.8032 33.8763ZM75.1434 30.1063L74.9015 28.626L73.4211 28.8679L73.6631 30.3483L75.1434 30.1063ZM82.9943 28.8232L84.4746 28.5812L84.2327 27.1009L82.7523 27.3428L82.9943 28.8232ZM83.5267 32.6139L82.0338 32.7601L82.0361 32.7833L82.0391 32.8064L83.5267 32.6139ZM83.8564 35.6971L85.3504 35.5638L85.3502 35.5613L83.8564 35.6971ZM84.1411 39.5719L82.6438 39.6624L82.6447 39.6775L82.646 39.6926L84.1411 39.5719ZM84.4667 43.9629L85.9634 43.8638L85.9632 43.8611L84.4667 43.9629ZM84.7498 48.3608L84.9917 49.8412L86.3314 49.6222L86.2468 48.2674L84.7498 48.3608ZM80.2125 59.2544L78.7322 59.4963L78.9741 60.9767L80.4545 60.7347L80.2125 59.2544ZM79.2068 53.101L78.9648 51.6207L77.4845 51.8626L77.7264 53.343L79.2068 53.101ZM86.4635 51.915L87.9439 51.673L87.7019 50.1926L86.2215 50.4346L86.4635 51.915ZM87.4692 58.0683L87.7112 59.5487L89.1915 59.3067L88.9496 57.8264L87.4692 58.0683ZM79.6998 49.1862L81.1487 48.7982C80.7766 47.4086 80.3998 45.9908 80.0183 44.5445L78.5679 44.927L77.1175 45.3096C77.4999 46.7594 77.8777 48.1809 78.2508 49.5743L79.6998 49.1862ZM78.5679 44.927L80.019 44.5471C79.6316 43.0674 79.2533 41.644 78.8842 40.2768L77.4361 40.6678L75.9879 41.0588C76.3549 42.418 76.7312 43.834 77.1168 45.307L78.5679 44.927ZM77.4361 40.6678L78.8918 40.3062C78.5529 38.9418 78.2468 37.689 77.9735 36.5477L76.5148 36.8971L75.056 37.2464C75.3316 38.3973 75.6397 39.6583 75.9803 41.0294L77.4361 40.6678ZM76.5148 36.8971L77.9741 36.5502C77.6954 35.3774 77.4588 34.3729 77.2642 33.5364L75.8032 33.8763L74.3422 34.2162C74.5382 35.0587 74.776 36.068 75.0554 37.2439L76.5148 36.8971ZM75.8032 33.8763L77.275 33.5867C77.1037 32.7159 76.9895 32.102 76.929 31.7316L75.4486 31.9736L73.9683 32.2155C74.0372 32.6373 74.1595 33.2918 74.3314 34.1658L75.8032 33.8763ZM75.4486 31.9736L76.929 31.7316L76.6238 29.8644L75.1434 30.1063L73.6631 30.3483L73.9683 32.2155L75.4486 31.9736ZM75.1434 30.1063L75.3854 31.5867L83.2362 30.3035L82.9943 28.8232L82.7523 27.3428L74.9015 28.626L75.1434 30.1063ZM82.9943 28.8232L81.5139 29.0651L81.8191 30.9323L83.2995 30.6904L84.7798 30.4484L84.4746 28.5812L82.9943 28.8232ZM83.2995 30.6904L81.8191 30.9323C81.8754 31.2771 81.9474 31.8769 82.0338 32.7601L83.5267 32.6139L85.0196 32.4678C84.9325 31.5783 84.8529 30.8958 84.7798 30.4484L83.2995 30.6904ZM83.5267 32.6139L82.0391 32.8064C82.1464 33.6352 82.2543 34.6429 82.3625 35.833L83.8564 35.6971L85.3502 35.5613C85.2398 34.3471 85.1279 33.2994 85.0143 32.4214L83.5267 32.6139ZM83.8564 35.6971L82.3623 35.8304C82.4655 36.9875 82.5594 38.2646 82.6438 39.6624L84.1411 39.5719L85.6384 39.4815C85.5526 38.0605 85.4566 36.7544 85.3504 35.5638L83.8564 35.6971ZM84.1411 39.5719L82.646 39.6926C82.7588 41.0906 82.8669 42.548 82.9701 44.0648L84.4667 43.9629L85.9632 43.8611C85.8592 42.3327 85.7502 40.8628 85.6362 39.4512L84.1411 39.5719ZM84.4667 43.9629L82.9699 44.0621C83.0688 45.5545 83.1631 47.0186 83.2527 48.4543L84.7498 48.3608L86.2468 48.2674C86.157 46.8277 86.0625 45.3599 85.9634 43.8638L84.4667 43.9629ZM84.7498 48.3608L84.5078 46.8805L79.4578 47.7059L79.6998 49.1862L79.9417 50.6666L84.9917 49.8412L84.7498 48.3608ZM80.2125 59.2544L81.6929 59.0124L80.6871 52.8591L79.2068 53.101L77.7264 53.343L78.7322 59.4963L80.2125 59.2544ZM79.2068 53.101L79.4487 54.5814L86.7054 53.3953L86.4635 51.915L86.2215 50.4346L78.9648 51.6207L79.2068 53.101ZM86.4635 51.915L84.9831 52.1569L85.9889 58.3103L87.4692 58.0683L88.9496 57.8264L87.9439 51.673L86.4635 51.915ZM87.4692 58.0683L87.2273 56.588L79.9706 57.774L80.2125 59.2544L80.4545 60.7347L87.7112 59.5487L87.4692 58.0683Z" fill="url(#paint1_linear_498_81)" mask="url(#path-1-outside-1_498_81)"/>
</g>
</g>
<defs>
<filter id="filter0_d_498_81" x="-0.731421" y="16.7008" width="101.323" height="66.981" filterUnits="userSpaceOnUse" color-interpolation-filters="sRGB">
<feFlood flood-opacity="0" result="BackgroundImageFix"/>
<feColorMatrix in="SourceAlpha" type="matrix" values="0 0 0 0 0 0 0 0 0 0 0 0 0 0 0 0 0 0 127 0" result="hardAlpha"/>
<feOffset dy="1"/>
<feGaussianBlur stdDeviation="5.7"/>
<feComposite in2="hardAlpha" operator="out"/>
<feColorMatrix type="matrix" values="0 0 0 0 1 0 0 0 0 1 0 0 0 0 1 0 0 0 0.57 0"/>
<feBlend mode="normal" in2="BackgroundImageFix" result="effect1_dropShadow_498_81"/>
<feBlend mode="normal" in="SourceGraphic" in2="effect1_dropShadow_498_81" result="shape"/>
</filter>
<linearGradient id="paint0_linear_498_81" x1="44.2737" y1="14.4649" x2="55.7263" y2="84.5351" gradientUnits="userSpaceOnUse">
<stop stop-color="#FFAAC2"/>
<stop offset="1" stop-color="#CACDFF"/>
</linearGradient>
<linearGradient id="paint1_linear_498_81" x1="44.2737" y1="14.4649" x2="55.7263" y2="84.5351" gradientUnits="userSpaceOnUse">
<stop stop-color="#FF5C98"/>
<stop offset="1" stop-color="#8CACFF"/>
</linearGradient>
<clipPath id="clip0_498_81">
<rect width="100" height="100" fill="white"/>
</clipPath>
</defs>
</svg>
