<svg width="300" height="80" viewBox="0 0 300 80" fill="none" xmlns="http://www.w3.org/2000/svg">
<g filter="url(#filter0_d_149_12)">
<path d="M59.4543 62V22.096H76.9123C79.4643 22.096 81.4943 22.4247 83.0023 23.082C84.549 23.7007 85.6896 24.5707 86.4243 25.692C87.1976 26.8133 87.7196 28.1473 87.9903 29.694C88.261 31.202 88.3963 32.8647 88.3963 34.682C88.3963 36.422 88.261 38.0653 87.9903 39.612C87.7583 41.12 87.2556 42.454 86.4823 43.614C85.709 44.774 84.549 45.6827 83.0023 46.34C81.4556 46.9973 79.387 47.326 76.7963 47.326H64.4423V62H59.4543ZM64.4423 42.976H75.1723C77.067 42.976 78.5556 42.8213 79.6383 42.512C80.7596 42.2027 81.591 41.7193 82.1323 41.062C82.6736 40.366 83.0216 39.496 83.1763 38.452C83.331 37.408 83.4083 36.1513 83.4083 34.682C83.4083 33.2127 83.331 31.956 83.1763 30.912C83.0603 29.868 82.7316 29.0173 82.1903 28.36C81.6876 27.7027 80.8756 27.2193 79.7543 26.91C78.6716 26.562 77.183 26.388 75.2883 26.388H64.4423V42.976ZM108.542 62.464C106.145 62.464 104.134 62.3093 102.51 62C100.925 61.6907 99.6489 61.188 98.6822 60.492C97.7156 59.7573 96.9809 58.81 96.4782 57.65C95.9756 56.4513 95.6469 55.0013 95.4922 53.3C95.3376 51.5987 95.2602 49.588 95.2602 47.268C95.2602 44.5227 95.3762 42.1833 95.6082 40.25C95.8402 38.278 96.3622 36.6927 97.1742 35.494C98.0249 34.2567 99.3396 33.3673 101.118 32.826C102.897 32.246 105.294 31.956 108.31 31.956C110.592 31.956 112.448 32.13 113.878 32.478C115.348 32.826 116.508 33.3673 117.358 34.102C118.209 34.8367 118.828 35.8227 119.214 37.06C119.64 38.2587 119.91 39.7087 120.026 41.41C120.142 43.0727 120.2 45.006 120.2 47.21V48.776H99.9582C99.9582 50.7867 100.055 52.43 100.248 53.706C100.442 54.982 100.828 55.968 101.408 56.664C102.027 57.36 102.974 57.8433 104.25 58.114C105.565 58.3847 107.344 58.52 109.586 58.52C110.514 58.52 111.539 58.5007 112.66 58.462C113.782 58.3847 114.903 58.288 116.024 58.172C117.146 58.056 118.151 57.94 119.04 57.824V61.652C118.228 61.8067 117.223 61.942 116.024 62.058C114.864 62.174 113.627 62.2707 112.312 62.348C111.036 62.4253 109.78 62.464 108.542 62.464ZM115.618 46.398V44.832C115.618 42.8213 115.502 41.236 115.27 40.076C115.038 38.8773 114.632 37.988 114.052 37.408C113.511 36.7893 112.757 36.3833 111.79 36.19C110.824 35.9967 109.625 35.9 108.194 35.9C106.338 35.9 104.869 36.0353 103.786 36.306C102.704 36.538 101.892 36.9827 101.35 37.64C100.809 38.2973 100.442 39.2447 100.248 40.482C100.055 41.7193 99.9582 43.3627 99.9582 45.412H116.72L115.618 46.398ZM128.877 62V32.42H133.111L133.343 38.104H133.691C134.193 36.4413 134.909 35.1653 135.837 34.276C136.765 33.3867 137.886 32.7873 139.201 32.478C140.515 32.13 141.965 31.956 143.551 31.956V36.596C140.883 36.596 138.833 37.0213 137.403 37.872C135.972 38.7227 134.986 40.0373 134.445 41.816C133.903 43.5947 133.633 45.8373 133.633 48.544V62H128.877ZM152.726 62V36.422H146.694V32.42H152.726V27.722C152.726 26.0593 152.861 24.706 153.132 23.662C153.402 22.5793 153.828 21.7287 154.408 21.11C155.026 20.4527 155.819 19.9693 156.786 19.66C157.752 19.3507 158.912 19.1573 160.266 19.08C161.658 19.0027 163.262 18.964 165.08 18.964V22.56C163.494 22.56 162.199 22.618 161.194 22.734C160.188 22.85 159.415 23.0627 158.874 23.372C158.332 23.6427 157.946 24.068 157.714 24.648C157.52 25.228 157.424 25.982 157.424 26.91V32.42H165.08V36.422H157.424V62H152.726ZM183.534 62.464C181.137 62.464 179.126 62.3093 177.502 62C175.917 61.6907 174.641 61.188 173.674 60.492C172.708 59.7573 171.973 58.81 171.47 57.65C170.968 56.4513 170.639 55.0013 170.484 53.3C170.33 51.5987 170.252 49.588 170.252 47.268C170.252 44.5227 170.368 42.1833 170.6 40.25C170.832 38.278 171.354 36.6927 172.166 35.494C173.017 34.2567 174.332 33.3673 176.11 32.826C177.889 32.246 180.286 31.956 183.302 31.956C185.584 31.956 187.44 32.13 188.87 32.478C190.34 32.826 191.5 33.3673 192.35 34.102C193.201 34.8367 193.82 35.8227 194.206 37.06C194.632 38.2587 194.902 39.7087 195.018 41.41C195.134 43.0727 195.192 45.006 195.192 47.21V48.776H174.95C174.95 50.7867 175.047 52.43 175.24 53.706C175.434 54.982 175.82 55.968 176.4 56.664C177.019 57.36 177.966 57.8433 179.242 58.114C180.557 58.3847 182.336 58.52 184.578 58.52C185.506 58.52 186.531 58.5007 187.652 58.462C188.774 58.3847 189.895 58.288 191.016 58.172C192.138 58.056 193.143 57.94 194.032 57.824V61.652C193.22 61.8067 192.215 61.942 191.016 62.058C189.856 62.174 188.619 62.2707 187.304 62.348C186.028 62.4253 184.772 62.464 183.534 62.464ZM190.61 46.398V44.832C190.61 42.8213 190.494 41.236 190.262 40.076C190.03 38.8773 189.624 37.988 189.044 37.408C188.503 36.7893 187.749 36.3833 186.782 36.19C185.816 35.9967 184.617 35.9 183.186 35.9C181.33 35.9 179.861 36.0353 178.778 36.306C177.696 36.538 176.884 36.9827 176.342 37.64C175.801 38.2973 175.434 39.2447 175.24 40.482C175.047 41.7193 174.95 43.3627 174.95 45.412H191.712L190.61 46.398ZM214.657 62.464C212.414 62.464 210.558 62.2707 209.089 61.884C207.658 61.4973 206.498 60.9173 205.609 60.144C204.758 59.3707 204.12 58.3847 203.695 57.186C203.27 55.9873 202.98 54.5567 202.825 52.894C202.709 51.2313 202.651 49.3367 202.651 47.21C202.651 45.006 202.728 43.0727 202.883 41.41C203.076 39.7473 203.405 38.3167 203.869 37.118C204.372 35.8807 205.048 34.8947 205.899 34.16C206.788 33.4253 207.929 32.884 209.321 32.536C210.713 32.1493 212.434 31.956 214.483 31.956C215.836 31.956 217.248 32.0333 218.717 32.188C220.225 32.304 221.462 32.478 222.429 32.71V36.538C221.54 36.3833 220.438 36.248 219.123 36.132C217.847 36.016 216.687 35.958 215.643 35.958C213.826 35.958 212.356 36.1127 211.235 36.422C210.152 36.7313 209.321 37.292 208.741 38.104C208.2 38.916 207.832 40.0567 207.639 41.526C207.446 42.9953 207.349 44.89 207.349 47.21C207.349 49.5687 207.446 51.502 207.639 53.01C207.832 54.4793 208.219 55.62 208.799 56.432C209.418 57.2053 210.268 57.7467 211.351 58.056C212.472 58.3267 213.942 58.462 215.759 58.462C216.842 58.462 218.021 58.404 219.297 58.288C220.573 58.172 221.714 58.0367 222.719 57.882V61.71C221.752 61.9033 220.515 62.0773 219.007 62.232C217.499 62.3867 216.049 62.464 214.657 62.464ZM233.041 62V36.422H227.067V32.42H233.041V23.836H237.739V32.42H244.815V36.422H237.739V62H233.041Z" fill="#D6FFC9"/>
</g>
<defs>
<filter id="filter0_d_149_12" x="55.9543" y="15.4641" width="192.36" height="50.4998" filterUnits="userSpaceOnUse" color-interpolation-filters="sRGB">
<feFlood flood-opacity="0" result="BackgroundImageFix"/>
<feColorMatrix in="SourceAlpha" type="matrix" values="0 0 0 0 0 0 0 0 0 0 0 0 0 0 0 0 0 0 127 0" result="hardAlpha"/>
<feOffset/>
<feGaussianBlur stdDeviation="1.75"/>
<feComposite in2="hardAlpha" operator="out"/>
<feColorMatrix type="matrix" values="0 0 0 0 0.83101 0 0 0 0 1 0 0 0 0 0.822115 0 0 0 0.4 0"/>
<feBlend mode="normal" in2="BackgroundImageFix" result="effect1_dropShadow_149_12"/>
<feBlend mode="normal" in="SourceGraphic" in2="effect1_dropShadow_149_12" result="shape"/>
</filter>
</defs>
</svg>
