<svg width="300" height="80" viewBox="0 0 300 80" fill="none" xmlns="http://www.w3.org/2000/svg">
<g filter="url(#filter0_d_149_12)">
<mask id="path-1-outside-1_149_12" maskUnits="userSpaceOnUse" x="62" y="18" width="174" height="45" fill="black">
<rect fill="white" x="62" y="18" width="174" height="45"/>
<path d="M63.813 41.1777C63.813 38.4385 64.3276 35.8818 65.3569 33.5078C66.3862 31.1172 67.8887 29.042 69.8643 27.2822C71.8398 25.5225 74.2637 24.1362 77.1357 23.1235C80.0244 22.1108 83.3281 21.6045 87.0469 21.6045C88.3916 21.6045 89.7363 21.6792 91.0811 21.8286C92.4424 21.9614 93.7788 22.1772 95.0903 22.4761C96.4185 22.7749 97.7051 23.1567 98.9502 23.6216C100.212 24.0698 101.407 24.6094 102.536 25.2402L98.9004 31.2168C98.2197 30.8184 97.4478 30.4614 96.5845 30.146C95.7212 29.814 94.7915 29.54 93.7954 29.3242C92.8159 29.0918 91.7949 28.9175 90.7324 28.8013C89.6865 28.6851 88.6323 28.627 87.5698 28.627C85.1128 28.627 82.9214 28.9424 80.9956 29.5732C79.0698 30.1875 77.4429 31.0591 76.1147 32.188C74.7866 33.3003 73.7739 34.6367 73.0767 36.1973C72.3794 37.7578 72.0308 39.4678 72.0308 41.3271C72.0308 43.2529 72.396 45.021 73.1265 46.6313C73.8569 48.2417 74.8945 49.6279 76.2393 50.79C77.584 51.9521 79.2109 52.8652 81.1201 53.5293C83.0293 54.1768 85.1626 54.5005 87.52 54.5005C89.396 54.5005 91.1143 54.293 92.6748 53.8779C94.2354 53.4463 95.5967 52.8403 96.7588 52.0601C97.9209 51.2798 98.8672 50.3418 99.5977 49.2461C100.328 48.1338 100.81 46.8887 101.042 45.5107H87.4453V39.0112H108.139V39.0361L108.164 39.0112C108.579 41.0034 108.704 42.9458 108.538 44.8384C108.388 46.7144 107.957 48.4907 107.243 50.1675C106.545 51.8276 105.583 53.355 104.354 54.7495C103.125 56.144 101.656 57.3477 99.9463 58.3604C98.2363 59.3564 96.2939 60.1367 94.1191 60.7012C91.9443 61.249 89.562 61.5229 86.9722 61.5229C83.353 61.5229 80.1074 60.9917 77.2354 59.9292C74.3799 58.8667 71.9561 57.4141 69.9639 55.5713C67.9717 53.7285 66.4443 51.5703 65.3818 49.0967C64.3359 46.623 63.813 43.9834 63.813 41.1777ZM114.788 46.3076C114.788 44.1992 115.211 42.2236 116.058 40.3809C116.921 38.5381 118.142 36.9277 119.719 35.5498C121.312 34.1719 123.23 33.0845 125.471 32.2876C127.729 31.4907 130.261 31.0923 133.066 31.0923C135.872 31.0923 138.396 31.4907 140.637 32.2876C142.895 33.0845 144.812 34.1719 146.389 35.5498C147.983 36.9277 149.203 38.5381 150.05 40.3809C150.913 42.2236 151.345 44.1992 151.345 46.3076C151.345 48.416 150.913 50.3916 150.05 52.2344C149.203 54.0771 147.983 55.6875 146.389 57.0654C144.812 58.4434 142.895 59.5308 140.637 60.3276C138.396 61.1245 135.872 61.5229 133.066 61.5229C130.261 61.5229 127.729 61.1245 125.471 60.3276C123.23 59.5308 121.312 58.4434 119.719 57.0654C118.142 55.6875 116.921 54.0771 116.058 52.2344C115.211 50.3916 114.788 48.416 114.788 46.3076ZM122.533 46.3076C122.533 47.4863 122.765 48.6069 123.23 49.6694C123.711 50.7153 124.4 51.645 125.297 52.4585C126.21 53.2554 127.314 53.8945 128.609 54.376C129.92 54.8408 131.406 55.0732 133.066 55.0732C134.727 55.0732 136.204 54.8408 137.499 54.376C138.811 53.8945 139.915 53.2554 140.811 52.4585C141.724 51.645 142.413 50.7153 142.878 49.6694C143.359 48.6069 143.6 47.4863 143.6 46.3076C143.6 45.1289 143.359 44.0083 142.878 42.9458C142.413 41.8833 141.724 40.9536 140.811 40.1567C139.915 39.3433 138.811 38.7041 137.499 38.2393C136.204 37.7578 134.727 37.5171 133.066 37.5171C131.406 37.5171 129.92 37.7578 128.609 38.2393C127.314 38.7041 126.21 39.3433 125.297 40.1567C124.4 40.9536 123.711 41.8833 123.23 42.9458C122.765 44.0083 122.533 45.1289 122.533 46.3076ZM157.022 46.3076C157.022 44.1992 157.446 42.2236 158.292 40.3809C159.156 38.5381 160.376 36.9277 161.953 35.5498C163.547 34.1719 165.464 33.0845 167.706 32.2876C169.963 31.4907 172.495 31.0923 175.301 31.0923C178.106 31.0923 180.63 31.4907 182.871 32.2876C185.129 33.0845 187.046 34.1719 188.624 35.5498C190.217 36.9277 191.438 38.5381 192.284 40.3809C193.147 42.2236 193.579 44.1992 193.579 46.3076C193.579 48.416 193.147 50.3916 192.284 52.2344C191.438 54.0771 190.217 55.6875 188.624 57.0654C187.046 58.4434 185.129 59.5308 182.871 60.3276C180.63 61.1245 178.106 61.5229 175.301 61.5229C172.495 61.5229 169.963 61.1245 167.706 60.3276C165.464 59.5308 163.547 58.4434 161.953 57.0654C160.376 55.6875 159.156 54.0771 158.292 52.2344C157.446 50.3916 157.022 48.416 157.022 46.3076ZM164.767 46.3076C164.767 47.4863 165 48.6069 165.464 49.6694C165.946 50.7153 166.635 51.645 167.531 52.4585C168.444 53.2554 169.548 53.8945 170.843 54.376C172.155 54.8408 173.641 55.0732 175.301 55.0732C176.961 55.0732 178.438 54.8408 179.733 54.376C181.045 53.8945 182.149 53.2554 183.045 52.4585C183.958 51.645 184.647 50.7153 185.112 49.6694C185.594 48.6069 185.834 47.4863 185.834 46.3076C185.834 45.1289 185.594 44.0083 185.112 42.9458C184.647 41.8833 183.958 40.9536 183.045 40.1567C182.149 39.3433 181.045 38.7041 179.733 38.2393C178.438 37.7578 176.961 37.5171 175.301 37.5171C173.641 37.5171 172.155 37.7578 170.843 38.2393C169.548 38.7041 168.444 39.3433 167.531 40.1567C166.635 40.9536 165.946 41.8833 165.464 42.9458C165 44.0083 164.767 45.1289 164.767 46.3076ZM198.759 46.4321C198.759 44.0913 199.199 41.9829 200.079 40.1069C200.958 38.2144 202.17 36.604 203.714 35.2759C205.275 33.9312 207.118 32.9019 209.243 32.188C211.384 31.4575 213.7 31.0923 216.19 31.0923C217.253 31.0923 218.299 31.1587 219.328 31.2915C220.374 31.4243 221.37 31.6069 222.316 31.8394C223.279 32.0718 224.176 32.354 225.006 32.686C225.853 33.0015 226.6 33.3501 227.247 33.7319V19.687H234.618V61H227.247V58.2358C226.6 58.6841 225.836 59.1074 224.956 59.5059C224.076 59.9043 223.13 60.2529 222.117 60.5518C221.104 60.8506 220.05 61.083 218.955 61.249C217.875 61.4316 216.805 61.5229 215.742 61.5229C213.252 61.5229 210.961 61.1577 208.869 60.4272C206.794 59.6968 205.009 58.6675 203.515 57.3394C202.021 56.0112 200.851 54.4258 200.004 52.583C199.174 50.7236 198.759 48.6733 198.759 46.4321ZM206.503 46.4321C206.503 47.6108 206.736 48.7231 207.201 49.769C207.682 50.8149 208.363 51.7363 209.243 52.5332C210.139 53.3135 211.21 53.936 212.455 54.4009C213.717 54.8491 215.128 55.0732 216.688 55.0732C217.685 55.0732 218.681 54.9819 219.677 54.7993C220.673 54.6001 221.627 54.3262 222.541 53.9775C223.47 53.6289 224.333 53.2056 225.13 52.7075C225.944 52.2095 226.649 51.6533 227.247 51.0391V40.854C226.5 40.2563 225.711 39.75 224.881 39.335C224.051 38.9199 223.205 38.5796 222.341 38.314C221.478 38.0483 220.606 37.8574 219.727 37.7412C218.847 37.6084 217.992 37.542 217.162 37.542C215.468 37.542 213.958 37.7744 212.629 38.2393C211.318 38.6875 210.206 39.3101 209.292 40.1069C208.396 40.9038 207.707 41.8418 207.226 42.9209C206.744 44 206.503 45.1704 206.503 46.4321Z"/>
</mask>
<path d="M63.813 41.1777C63.813 38.4385 64.3276 35.8818 65.3569 33.5078C66.3862 31.1172 67.8887 29.042 69.8643 27.2822C71.8398 25.5225 74.2637 24.1362 77.1357 23.1235C80.0244 22.1108 83.3281 21.6045 87.0469 21.6045C88.3916 21.6045 89.7363 21.6792 91.0811 21.8286C92.4424 21.9614 93.7788 22.1772 95.0903 22.4761C96.4185 22.7749 97.7051 23.1567 98.9502 23.6216C100.212 24.0698 101.407 24.6094 102.536 25.2402L98.9004 31.2168C98.2197 30.8184 97.4478 30.4614 96.5845 30.146C95.7212 29.814 94.7915 29.54 93.7954 29.3242C92.8159 29.0918 91.7949 28.9175 90.7324 28.8013C89.6865 28.6851 88.6323 28.627 87.5698 28.627C85.1128 28.627 82.9214 28.9424 80.9956 29.5732C79.0698 30.1875 77.4429 31.0591 76.1147 32.188C74.7866 33.3003 73.7739 34.6367 73.0767 36.1973C72.3794 37.7578 72.0308 39.4678 72.0308 41.3271C72.0308 43.2529 72.396 45.021 73.1265 46.6313C73.8569 48.2417 74.8945 49.6279 76.2393 50.79C77.584 51.9521 79.2109 52.8652 81.1201 53.5293C83.0293 54.1768 85.1626 54.5005 87.52 54.5005C89.396 54.5005 91.1143 54.293 92.6748 53.8779C94.2354 53.4463 95.5967 52.8403 96.7588 52.0601C97.9209 51.2798 98.8672 50.3418 99.5977 49.2461C100.328 48.1338 100.81 46.8887 101.042 45.5107H87.4453V39.0112H108.139V39.0361L108.164 39.0112C108.579 41.0034 108.704 42.9458 108.538 44.8384C108.388 46.7144 107.957 48.4907 107.243 50.1675C106.545 51.8276 105.583 53.355 104.354 54.7495C103.125 56.144 101.656 57.3477 99.9463 58.3604C98.2363 59.3564 96.2939 60.1367 94.1191 60.7012C91.9443 61.249 89.562 61.5229 86.9722 61.5229C83.353 61.5229 80.1074 60.9917 77.2354 59.9292C74.3799 58.8667 71.9561 57.4141 69.9639 55.5713C67.9717 53.7285 66.4443 51.5703 65.3818 49.0967C64.3359 46.623 63.813 43.9834 63.813 41.1777ZM114.788 46.3076C114.788 44.1992 115.211 42.2236 116.058 40.3809C116.921 38.5381 118.142 36.9277 119.719 35.5498C121.312 34.1719 123.23 33.0845 125.471 32.2876C127.729 31.4907 130.261 31.0923 133.066 31.0923C135.872 31.0923 138.396 31.4907 140.637 32.2876C142.895 33.0845 144.812 34.1719 146.389 35.5498C147.983 36.9277 149.203 38.5381 150.05 40.3809C150.913 42.2236 151.345 44.1992 151.345 46.3076C151.345 48.416 150.913 50.3916 150.05 52.2344C149.203 54.0771 147.983 55.6875 146.389 57.0654C144.812 58.4434 142.895 59.5308 140.637 60.3276C138.396 61.1245 135.872 61.5229 133.066 61.5229C130.261 61.5229 127.729 61.1245 125.471 60.3276C123.23 59.5308 121.312 58.4434 119.719 57.0654C118.142 55.6875 116.921 54.0771 116.058 52.2344C115.211 50.3916 114.788 48.416 114.788 46.3076ZM122.533 46.3076C122.533 47.4863 122.765 48.6069 123.23 49.6694C123.711 50.7153 124.4 51.645 125.297 52.4585C126.21 53.2554 127.314 53.8945 128.609 54.376C129.92 54.8408 131.406 55.0732 133.066 55.0732C134.727 55.0732 136.204 54.8408 137.499 54.376C138.811 53.8945 139.915 53.2554 140.811 52.4585C141.724 51.645 142.413 50.7153 142.878 49.6694C143.359 48.6069 143.6 47.4863 143.6 46.3076C143.6 45.1289 143.359 44.0083 142.878 42.9458C142.413 41.8833 141.724 40.9536 140.811 40.1567C139.915 39.3433 138.811 38.7041 137.499 38.2393C136.204 37.7578 134.727 37.5171 133.066 37.5171C131.406 37.5171 129.92 37.7578 128.609 38.2393C127.314 38.7041 126.21 39.3433 125.297 40.1567C124.4 40.9536 123.711 41.8833 123.23 42.9458C122.765 44.0083 122.533 45.1289 122.533 46.3076ZM157.022 46.3076C157.022 44.1992 157.446 42.2236 158.292 40.3809C159.156 38.5381 160.376 36.9277 161.953 35.5498C163.547 34.1719 165.464 33.0845 167.706 32.2876C169.963 31.4907 172.495 31.0923 175.301 31.0923C178.106 31.0923 180.63 31.4907 182.871 32.2876C185.129 33.0845 187.046 34.1719 188.624 35.5498C190.217 36.9277 191.438 38.5381 192.284 40.3809C193.147 42.2236 193.579 44.1992 193.579 46.3076C193.579 48.416 193.147 50.3916 192.284 52.2344C191.438 54.0771 190.217 55.6875 188.624 57.0654C187.046 58.4434 185.129 59.5308 182.871 60.3276C180.63 61.1245 178.106 61.5229 175.301 61.5229C172.495 61.5229 169.963 61.1245 167.706 60.3276C165.464 59.5308 163.547 58.4434 161.953 57.0654C160.376 55.6875 159.156 54.0771 158.292 52.2344C157.446 50.3916 157.022 48.416 157.022 46.3076ZM164.767 46.3076C164.767 47.4863 165 48.6069 165.464 49.6694C165.946 50.7153 166.635 51.645 167.531 52.4585C168.444 53.2554 169.548 53.8945 170.843 54.376C172.155 54.8408 173.641 55.0732 175.301 55.0732C176.961 55.0732 178.438 54.8408 179.733 54.376C181.045 53.8945 182.149 53.2554 183.045 52.4585C183.958 51.645 184.647 50.7153 185.112 49.6694C185.594 48.6069 185.834 47.4863 185.834 46.3076C185.834 45.1289 185.594 44.0083 185.112 42.9458C184.647 41.8833 183.958 40.9536 183.045 40.1567C182.149 39.3433 181.045 38.7041 179.733 38.2393C178.438 37.7578 176.961 37.5171 175.301 37.5171C173.641 37.5171 172.155 37.7578 170.843 38.2393C169.548 38.7041 168.444 39.3433 167.531 40.1567C166.635 40.9536 165.946 41.8833 165.464 42.9458C165 44.0083 164.767 45.1289 164.767 46.3076ZM198.759 46.4321C198.759 44.0913 199.199 41.9829 200.079 40.1069C200.958 38.2144 202.17 36.604 203.714 35.2759C205.275 33.9312 207.118 32.9019 209.243 32.188C211.384 31.4575 213.7 31.0923 216.19 31.0923C217.253 31.0923 218.299 31.1587 219.328 31.2915C220.374 31.4243 221.37 31.6069 222.316 31.8394C223.279 32.0718 224.176 32.354 225.006 32.686C225.853 33.0015 226.6 33.3501 227.247 33.7319V19.687H234.618V61H227.247V58.2358C226.6 58.6841 225.836 59.1074 224.956 59.5059C224.076 59.9043 223.13 60.2529 222.117 60.5518C221.104 60.8506 220.05 61.083 218.955 61.249C217.875 61.4316 216.805 61.5229 215.742 61.5229C213.252 61.5229 210.961 61.1577 208.869 60.4272C206.794 59.6968 205.009 58.6675 203.515 57.3394C202.021 56.0112 200.851 54.4258 200.004 52.583C199.174 50.7236 198.759 48.6733 198.759 46.4321ZM206.503 46.4321C206.503 47.6108 206.736 48.7231 207.201 49.769C207.682 50.8149 208.363 51.7363 209.243 52.5332C210.139 53.3135 211.21 53.936 212.455 54.4009C213.717 54.8491 215.128 55.0732 216.688 55.0732C217.685 55.0732 218.681 54.9819 219.677 54.7993C220.673 54.6001 221.627 54.3262 222.541 53.9775C223.47 53.6289 224.333 53.2056 225.13 52.7075C225.944 52.2095 226.649 51.6533 227.247 51.0391V40.854C226.5 40.2563 225.711 39.75 224.881 39.335C224.051 38.9199 223.205 38.5796 222.341 38.314C221.478 38.0483 220.606 37.8574 219.727 37.7412C218.847 37.6084 217.992 37.542 217.162 37.542C215.468 37.542 213.958 37.7744 212.629 38.2393C211.318 38.6875 210.206 39.3101 209.292 40.1069C208.396 40.9038 207.707 41.8418 207.226 42.9209C206.744 44 206.503 45.1704 206.503 46.4321Z" fill="#D6FFC9"/>
<path d="M65.3569 33.5078L66.4579 33.9852L66.4591 33.9824L65.3569 33.5078ZM77.1357 23.1235L76.7387 21.9911L76.7367 21.9918L77.1357 23.1235ZM91.0811 21.8286L90.9485 23.0213L90.9565 23.0222L90.9645 23.0229L91.0811 21.8286ZM95.0903 22.4761L94.8237 23.6461L94.8269 23.6468L95.0903 22.4761ZM98.9502 23.6216L98.5305 24.7458L98.5395 24.7491L98.5485 24.7523L98.9502 23.6216ZM102.536 25.2402L103.561 25.8639L104.208 24.8001L103.122 24.1927L102.536 25.2402ZM98.9004 31.2168L98.2942 32.2524L99.3124 32.8484L99.9256 31.8405L98.9004 31.2168ZM96.5845 30.146L96.1537 31.266L96.1631 31.2696L96.1726 31.2731L96.5845 30.146ZM93.7954 29.3242L93.5184 30.4918L93.5298 30.4945L93.5413 30.497L93.7954 29.3242ZM90.7324 28.8013L90.5999 29.9939L90.6019 29.9942L90.7324 28.8013ZM80.9956 29.5732L81.3603 30.7165L81.3692 30.7136L80.9956 29.5732ZM76.1147 32.188L76.8852 33.108L76.8919 33.1023L76.1147 32.188ZM81.1201 53.5293L80.7259 54.6627L80.7347 54.6657L81.1201 53.5293ZM92.6748 53.8779L92.9832 55.0377L92.9947 55.0345L92.6748 53.8779ZM99.5977 49.2461L100.596 49.9117L100.601 49.9048L99.5977 49.2461ZM101.042 45.5107L102.225 45.7103L102.461 44.3107H101.042V45.5107ZM87.4453 45.5107H86.2453V46.7107H87.4453V45.5107ZM87.4453 39.0112V37.8112H86.2453V39.0112H87.4453ZM108.139 39.0112H109.339V37.8112H108.139V39.0112ZM108.139 39.0361H106.939V41.9332L108.988 39.8847L108.139 39.0361ZM108.164 39.0112L109.339 38.7665L108.886 36.5923L107.316 38.1627L108.164 39.0112ZM108.538 44.8384L107.342 44.7335L107.341 44.7431L108.538 44.8384ZM107.243 50.1675L106.139 49.6974L106.136 49.7028L107.243 50.1675ZM99.9463 58.3604L100.55 59.3973L100.558 59.3929L99.9463 58.3604ZM94.1191 60.7012L94.4123 61.8648L94.4206 61.8627L94.1191 60.7012ZM77.2354 59.9292L76.8169 61.0539L76.819 61.0547L77.2354 59.9292ZM65.3818 49.0967L64.2766 49.564L64.2792 49.5703L65.3818 49.0967ZM63.813 41.1777H65.013C65.013 38.5929 65.4977 36.1998 66.4579 33.9852L65.3569 33.5078L64.256 33.0305C63.1576 35.5639 62.613 38.2841 62.613 41.1777H63.813ZM65.3569 33.5078L66.4591 33.9824C67.4179 31.7555 68.8155 29.8234 70.6624 28.1783L69.8643 27.2822L69.0661 26.3862C66.9618 28.2606 65.3545 30.4789 64.2548 33.0333L65.3569 33.5078ZM69.8643 27.2822L70.6624 28.1783C72.5053 26.5367 74.7878 25.2238 77.5348 24.2552L77.1357 23.1235L76.7367 21.9918C73.7395 23.0486 71.1744 24.5082 69.0661 26.3862L69.8643 27.2822ZM77.1357 23.1235L77.5327 24.256C80.2698 23.2964 83.4352 22.8045 87.0469 22.8045V21.6045V20.4045C83.221 20.4045 79.7791 20.9253 76.7387 21.9911L77.1357 23.1235ZM87.0469 21.6045V22.8045C88.3471 22.8045 89.6475 22.8767 90.9485 23.0213L91.0811 21.8286L91.2136 20.636C89.8251 20.4817 88.4361 20.4045 87.0469 20.4045V21.6045ZM91.0811 21.8286L90.9645 23.0229C92.2762 23.1509 93.5625 23.3587 94.8237 23.6461L95.0903 22.4761L95.3569 21.3061C93.9951 20.9958 92.6085 20.7719 91.1976 20.6343L91.0811 21.8286ZM95.0903 22.4761L94.8269 23.6468C96.1032 23.934 97.3376 24.3004 98.5305 24.7458L98.9502 23.6216L99.3699 22.4974C98.0726 22.013 96.7337 21.6158 95.3537 21.3053L95.0903 22.4761ZM98.9502 23.6216L98.5485 24.7523C99.749 25.1788 100.883 25.6909 101.951 26.2878L102.536 25.2402L103.122 24.1927C101.932 23.5279 100.675 22.9608 99.3519 22.4908L98.9502 23.6216ZM102.536 25.2402L101.511 24.6166L97.8752 30.5931L98.9004 31.2168L99.9256 31.8405L103.561 25.8639L102.536 25.2402ZM98.9004 31.2168L99.5066 30.1812C98.7549 29.7411 97.9162 29.355 96.9963 29.0189L96.5845 30.146L96.1726 31.2731C96.9793 31.5678 97.6846 31.8956 98.2942 32.2524L98.9004 31.2168ZM96.5845 30.146L97.0152 29.026C96.0891 28.6698 95.0998 28.379 94.0495 28.1514L93.7954 29.3242L93.5413 30.497C94.4832 30.7011 95.3533 30.9582 96.1537 31.266L96.5845 30.146ZM93.7954 29.3242L94.0725 28.1566C93.0418 27.9121 91.9717 27.7297 90.8629 27.6084L90.7324 28.8013L90.6019 29.9942C91.6181 30.1053 92.59 30.2715 93.5184 30.4918L93.7954 29.3242ZM90.7324 28.8013L90.8649 27.6086C89.7746 27.4875 88.6762 27.427 87.5698 27.427V28.627V29.827C88.5885 29.827 89.5984 29.8827 90.5999 29.9939L90.7324 28.8013ZM87.5698 28.627V27.427C85.0119 27.427 82.6909 27.7551 80.622 28.4329L80.9956 29.5732L81.3692 30.7136C83.1519 30.1296 85.2137 29.827 87.5698 29.827V28.627ZM80.9956 29.5732L80.6309 28.43C78.5778 29.0849 76.8044 30.0268 75.3376 31.2737L76.1147 32.188L76.8919 33.1023C78.0813 32.0913 79.5619 31.2901 81.3603 30.7165L80.9956 29.5732ZM76.1147 32.188L75.3443 31.268C73.8785 32.4956 72.7537 33.9786 71.981 35.7077L73.0767 36.1973L74.1723 36.6868C74.7942 35.2949 75.6948 34.105 76.8852 33.108L76.1147 32.188ZM73.0767 36.1973L71.981 35.7077C71.2091 37.4354 70.8308 39.3141 70.8308 41.3271H72.0308H73.2308C73.2308 39.6215 73.5497 38.0802 74.1723 36.6868L73.0767 36.1973ZM72.0308 41.3271H70.8308C70.8308 43.4085 71.2264 45.3475 72.0336 47.1271L73.1265 46.6313L74.2193 46.1356C73.5656 44.6944 73.2308 43.0974 73.2308 41.3271H72.0308ZM73.1265 46.6313L72.0336 47.1271C72.8362 48.8963 73.9793 50.423 75.4546 51.698L76.2393 50.79L77.0239 49.8821C75.8098 48.8329 74.8777 47.5871 74.2193 46.1356L73.1265 46.6313ZM76.2393 50.79L75.4546 51.698C76.9287 52.9719 78.693 53.9556 80.7259 54.6627L81.1201 53.5293L81.5143 52.3959C79.7289 51.7749 78.2392 50.9324 77.0239 49.8821L76.2393 50.79ZM81.1201 53.5293L80.7347 54.6657C82.787 55.3617 85.0532 55.7005 87.52 55.7005V54.5005V53.3005C85.272 53.3005 83.2716 52.9918 81.5055 52.3929L81.1201 53.5293ZM87.52 54.5005V55.7005C89.4837 55.7005 91.3074 55.4833 92.9832 55.0376L92.6748 53.8779L92.3664 52.7182C90.9211 53.1026 89.3082 53.3005 87.52 53.3005V54.5005ZM92.6748 53.8779L92.9947 55.0345C94.6604 54.5738 96.1433 53.9187 97.4277 53.0563L96.7588 52.0601L96.0899 51.0638C95.05 51.762 93.8103 52.3188 92.3549 52.7214L92.6748 53.8779ZM96.7588 52.0601L97.4277 53.0563C98.7119 52.1941 99.7731 51.1462 100.596 49.9117L99.5977 49.2461L98.5992 48.5805C97.9613 49.5374 97.1299 50.3655 96.0899 51.0638L96.7588 52.0601ZM99.5977 49.2461L100.601 49.9048C101.427 48.6467 101.967 47.2438 102.225 45.7103L101.042 45.5107L99.8587 45.3112C99.6525 46.5336 99.2293 47.6209 98.5946 48.5874L99.5977 49.2461ZM101.042 45.5107V44.3107H87.4453V45.5107V46.7107H101.042V45.5107ZM87.4453 45.5107H88.6453V39.0112H87.4453H86.2453V45.5107H87.4453ZM87.4453 39.0112V40.2112H108.139V39.0112V37.8112H87.4453V39.0112ZM108.139 39.0112H106.939V39.0361H108.139H109.339V39.0112H108.139ZM108.139 39.0361L108.988 39.8847L109.013 39.8598L108.164 39.0112L107.316 38.1627L107.291 38.1876L108.139 39.0361ZM108.164 39.0112L106.989 39.256C107.382 41.1414 107.497 42.9659 107.342 44.7335L108.538 44.8384L109.733 44.9432C109.91 42.9257 109.776 40.8654 109.339 38.7665L108.164 39.0112ZM108.538 44.8384L107.341 44.7431C107.202 46.4943 106.8 48.1437 106.139 49.6974L107.243 50.1675L108.347 50.6375C109.113 48.8378 109.574 46.9344 109.734 44.9337L108.538 44.8384ZM107.243 50.1675L106.136 49.7028C105.491 51.2392 104.599 52.6562 103.454 53.9563L104.354 54.7495L105.254 55.5427C106.566 54.0538 107.6 52.4161 108.349 50.6322L107.243 50.1675ZM104.354 54.7495L103.454 53.9563C102.314 55.2501 100.944 56.3748 99.3348 57.3278L99.9463 58.3604L100.558 59.3929C102.368 58.3205 103.937 57.038 105.254 55.5427L104.354 54.7495ZM99.9463 58.3604L99.3423 57.3235C97.7388 58.2575 95.9005 58.9991 93.8177 59.5397L94.1191 60.7012L94.4206 61.8627C96.6874 61.2744 98.7339 60.4554 100.55 59.3973L99.9463 58.3604ZM94.1191 60.7012L93.826 59.5375C91.7605 60.0579 89.4781 60.3229 86.9722 60.3229V61.5229V62.7229C89.646 62.7229 92.1282 62.4402 94.4123 61.8648L94.1191 60.7012ZM86.9722 61.5229V60.3229C83.4699 60.3229 80.3687 59.8089 77.6517 58.8037L77.2354 59.9292L76.819 61.0547C79.8461 62.1745 83.2362 62.7229 86.9722 62.7229V61.5229ZM77.2354 59.9292L77.6538 58.8045C74.9272 57.79 72.6427 56.4145 70.7787 54.6904L69.9639 55.5713L69.149 56.4522C71.2694 58.4136 73.8326 59.9434 76.8169 61.0539L77.2354 59.9292ZM69.9639 55.5713L70.7787 54.6904C68.9089 52.9608 67.48 50.941 66.4844 48.6231L65.3818 49.0967L64.2792 49.5703C65.4086 52.1996 67.0345 54.4963 69.149 56.4522L69.9639 55.5713ZM65.3818 49.0967L66.4871 48.6294C65.5065 46.3102 65.013 43.8302 65.013 41.1777H63.813H62.613C62.613 44.1366 63.1654 46.9359 64.2766 49.564L65.3818 49.0967ZM116.058 40.3809L114.971 39.8718L114.968 39.8799L116.058 40.3809ZM119.719 35.5498L118.934 34.642L118.929 34.6461L119.719 35.5498ZM125.471 32.2876L125.072 31.156L125.069 31.1569L125.471 32.2876ZM140.637 32.2876L140.235 33.4183L140.237 33.4192L140.637 32.2876ZM146.389 35.5498L145.6 36.4535L145.604 36.4576L146.389 35.5498ZM150.05 40.3809L148.959 40.8819L148.963 40.8899L150.05 40.3809ZM150.05 52.2344L148.963 51.7253L148.959 51.7334L150.05 52.2344ZM146.389 57.0654L145.604 56.1577L145.6 56.1617L146.389 57.0654ZM140.637 60.3276L140.237 59.196L140.235 59.197L140.637 60.3276ZM125.471 60.3276L125.069 61.4583L125.072 61.4592L125.471 60.3276ZM119.719 57.0654L118.929 57.9691L118.934 57.9732L119.719 57.0654ZM116.058 52.2344L114.968 52.7354L114.971 52.7434L116.058 52.2344ZM123.23 49.6694L122.131 50.1504L122.135 50.1609L122.14 50.1712L123.23 49.6694ZM125.297 52.4585L124.49 53.3472L124.499 53.355L124.508 53.3626L125.297 52.4585ZM128.609 54.376L128.191 55.5008L128.199 55.504L128.208 55.507L128.609 54.376ZM137.499 54.376L137.904 55.5054L137.913 55.5025L137.499 54.376ZM140.811 52.4585L141.608 53.3554L141.609 53.3545L140.811 52.4585ZM142.878 49.6694L141.785 49.1741L141.781 49.1821L142.878 49.6694ZM142.878 42.9458L141.779 43.4268L141.782 43.434L141.785 43.4411L142.878 42.9458ZM140.811 40.1567L140.005 41.0454L140.013 41.0532L140.022 41.0608L140.811 40.1567ZM137.499 38.2393L137.081 39.364L137.089 39.3672L137.098 39.3703L137.499 38.2393ZM128.609 38.2393L129.014 39.3687L129.022 39.3658L128.609 38.2393ZM125.297 40.1567L126.094 41.0536L126.095 41.0527L125.297 40.1567ZM123.23 42.9458L122.137 42.4505L122.134 42.4577L122.131 42.4648L123.23 42.9458ZM114.788 46.3076H115.988C115.988 44.3651 116.377 42.5612 117.149 40.8819L116.058 40.3809L114.968 39.8799C114.046 41.8861 113.588 44.0333 113.588 46.3076H114.788ZM116.058 40.3809L117.145 40.8899C117.935 39.2023 119.053 37.7252 120.508 36.4535L119.719 35.5498L118.929 34.6461C117.23 36.1303 115.907 37.8739 114.971 39.8718L116.058 40.3809ZM119.719 35.5498L120.504 36.4576C121.971 35.1888 123.754 34.1716 125.873 33.4183L125.471 32.2876L125.069 31.1569C122.706 31.9973 120.654 33.1549 118.934 34.642L119.719 35.5498ZM125.471 32.2876L125.871 33.4192C127.98 32.6746 130.374 32.2923 133.066 32.2923V31.0923V29.8923C130.148 29.8923 127.478 30.3068 125.072 31.156L125.471 32.2876ZM133.066 31.0923V32.2923C135.759 32.2923 138.143 32.6747 140.235 33.4183L140.637 32.2876L141.039 31.1569C138.648 30.3068 135.985 29.8923 133.066 29.8923V31.0923ZM140.637 32.2876L140.237 33.4192C142.372 34.1727 144.152 35.1888 145.6 36.4535L146.389 35.5498L147.179 34.6461C145.472 33.1549 143.417 31.9963 141.036 31.156L140.637 32.2876ZM146.389 35.5498L145.604 36.4576C147.073 37.7278 148.187 39.2011 148.959 40.8819L150.05 40.3809L151.14 39.8799C150.219 37.8751 148.892 36.1277 147.174 34.642L146.389 35.5498ZM150.05 40.3809L148.963 40.8899C149.749 42.5676 150.145 44.3686 150.145 46.3076H151.345H152.545C152.545 44.0298 152.077 41.8797 151.136 39.8718L150.05 40.3809ZM151.345 46.3076H150.145C150.145 48.2466 149.749 50.0477 148.963 51.7253L150.05 52.2344L151.136 52.7434C152.077 50.7355 152.545 48.5854 152.545 46.3076H151.345ZM150.05 52.2344L148.959 51.7334C148.187 53.4142 147.073 54.8875 145.604 56.1577L146.389 57.0654L147.174 57.9732C148.892 56.4875 150.219 54.7401 151.14 52.7354L150.05 52.2344ZM146.389 57.0654L145.6 56.1617C144.152 57.4264 142.372 58.4426 140.237 59.196L140.637 60.3276L141.036 61.4592C143.417 60.6189 145.472 59.4603 147.179 57.9691L146.389 57.0654ZM140.637 60.3276L140.235 59.197C138.143 59.9406 135.759 60.3229 133.066 60.3229V61.5229V62.7229C135.985 62.7229 138.648 62.3085 141.039 61.4583L140.637 60.3276ZM133.066 61.5229V60.3229C130.374 60.3229 127.98 59.9406 125.871 59.196L125.471 60.3276L125.072 61.4592C127.478 62.3084 130.148 62.7229 133.066 62.7229V61.5229ZM125.471 60.3276L125.873 59.197C123.754 58.4436 121.971 57.4264 120.504 56.1577L119.719 57.0654L118.934 57.9732C120.654 59.4603 122.706 60.6179 125.069 61.4583L125.471 60.3276ZM119.719 57.0654L120.508 56.1617C119.053 54.8901 117.935 53.4129 117.145 51.7253L116.058 52.2344L114.971 52.7434C115.907 54.7414 117.23 56.4849 118.929 57.9691L119.719 57.0654ZM116.058 52.2344L117.149 51.7334C116.377 50.054 115.988 48.2501 115.988 46.3076H114.788H113.588C113.588 48.5819 114.046 50.7292 114.968 52.7354L116.058 52.2344ZM122.533 46.3076H121.333C121.333 47.6491 121.598 48.9337 122.131 50.1504L123.23 49.6694L124.329 49.1885C123.932 48.2802 123.733 47.3236 123.733 46.3076H122.533ZM123.23 49.6694L122.14 50.1712C122.692 51.3713 123.481 52.4308 124.49 53.3472L125.297 52.4585L126.103 51.5698C125.32 50.8592 124.73 50.0593 124.32 49.1677L123.23 49.6694ZM125.297 52.4585L124.508 53.3626C125.544 54.2672 126.779 54.9758 128.191 55.5008L128.609 54.376L129.027 53.2512C127.849 52.8133 126.876 52.2435 126.086 51.5544L125.297 52.4585ZM128.609 54.376L128.208 55.507C129.67 56.0254 131.295 56.2732 133.066 56.2732V55.0732V53.8732C131.517 53.8732 130.17 53.6563 129.01 53.2449L128.609 54.376ZM133.066 55.0732V56.2732C134.837 56.2732 136.456 56.0255 137.904 55.5054L137.499 54.376L137.094 53.2465C135.952 53.6562 134.616 53.8732 133.066 53.8732V55.0732ZM137.499 54.376L137.913 55.5025C139.342 54.9776 140.582 54.2672 141.608 53.3554L140.811 52.4585L140.014 51.5616C139.247 52.2436 138.279 52.8114 137.085 53.2495L137.499 54.376ZM140.811 52.4585L141.609 53.3545C142.641 52.4355 143.436 51.3691 143.975 50.1568L142.878 49.6694L141.781 49.1821C141.39 50.0616 140.807 50.8546 140.013 51.5625L140.811 52.4585ZM142.878 49.6694L143.971 50.1647C144.524 48.9449 144.8 47.6553 144.8 46.3076H143.6H142.4C142.4 47.3174 142.195 48.2689 141.785 49.1742L142.878 49.6694ZM143.6 46.3076H144.8C144.8 44.9599 144.524 43.6703 143.971 42.4505L142.878 42.9458L141.785 43.4411C142.195 44.3463 142.4 45.2979 142.4 46.3076H143.6ZM142.878 42.9458L143.977 42.4648C143.438 41.2328 142.64 40.1606 141.6 39.2526L140.811 40.1567L140.022 41.0608C140.808 41.7467 141.388 42.5338 141.779 43.4268L142.878 42.9458ZM140.811 40.1567L141.617 39.2681C140.587 38.3329 139.339 37.6183 137.9 37.1082L137.499 38.2393L137.098 39.3703C138.282 39.7899 139.242 40.3536 140.005 41.0454L140.811 40.1567ZM137.499 38.2393L137.917 37.1145C136.465 36.5744 134.841 36.3171 133.066 36.3171V37.5171V38.7171C134.612 38.7171 135.944 38.9412 137.081 39.364L137.499 38.2393ZM133.066 37.5171V36.3171C131.291 36.3171 129.662 36.5745 128.195 37.1128L128.609 38.2393L129.022 39.3658C130.179 38.9411 131.521 38.7171 133.066 38.7171V37.5171ZM128.609 38.2393L128.203 37.1098C126.782 37.6201 125.54 38.333 124.499 39.2607L125.297 40.1567L126.095 41.0527C126.88 40.3535 127.846 39.7881 129.014 39.3687L128.609 38.2393ZM125.297 40.1567L124.5 39.2598C123.481 40.1652 122.69 41.2305 122.137 42.4505L123.23 42.9458L124.323 43.4411C124.733 42.5361 125.32 41.7421 126.094 41.0536L125.297 40.1567ZM123.23 42.9458L122.131 42.4648C121.598 43.6815 121.333 44.9661 121.333 46.3076H122.533H123.733C123.733 45.2917 123.932 44.3351 124.329 43.4268L123.23 42.9458ZM158.292 40.3809L157.206 39.8718L157.202 39.8799L158.292 40.3809ZM161.953 35.5498L161.168 34.642L161.164 34.6461L161.953 35.5498ZM167.706 32.2876L167.306 31.156L167.304 31.1569L167.706 32.2876ZM182.871 32.2876L182.469 33.4183L182.472 33.4192L182.871 32.2876ZM188.624 35.5498L187.834 36.4535L187.839 36.4576L188.624 35.5498ZM192.284 40.3809L191.194 40.8819L191.198 40.8899L192.284 40.3809ZM192.284 52.2344L191.197 51.7253L191.194 51.7334L192.284 52.2344ZM188.624 57.0654L187.839 56.1577L187.834 56.1617L188.624 57.0654ZM182.871 60.3276L182.472 59.196L182.469 59.197L182.871 60.3276ZM167.706 60.3276L167.304 61.4583L167.306 61.4592L167.706 60.3276ZM161.953 57.0654L161.164 57.9691L161.168 57.9732L161.953 57.0654ZM158.292 52.2344L157.202 52.7354L157.206 52.7434L158.292 52.2344ZM165.464 49.6694L164.365 50.1504L164.37 50.1609L164.374 50.1712L165.464 49.6694ZM167.531 52.4585L166.725 53.3472L166.733 53.355L166.742 53.3626L167.531 52.4585ZM170.843 54.376L170.425 55.5008L170.434 55.504L170.442 55.507L170.843 54.376ZM179.733 54.376L180.139 55.5054L180.147 55.5025L179.733 54.376ZM183.045 52.4585L183.843 53.3554L183.844 53.3545L183.045 52.4585ZM185.112 49.6694L184.019 49.1741L184.016 49.1821L185.112 49.6694ZM185.112 42.9458L184.013 43.4268L184.016 43.434L184.019 43.4411L185.112 42.9458ZM183.045 40.1567L182.239 41.0454L182.248 41.0532L182.256 41.0608L183.045 40.1567ZM179.733 38.2393L179.315 39.364L179.324 39.3672L179.333 39.3703L179.733 38.2393ZM170.843 38.2393L171.249 39.3687L171.257 39.3658L170.843 38.2393ZM167.531 40.1567L168.328 41.0536L168.329 41.0527L167.531 40.1567ZM165.464 42.9458L164.371 42.4505L164.368 42.4577L164.365 42.4648L165.464 42.9458ZM157.022 46.3076H158.222C158.222 44.3651 158.611 42.5612 159.383 40.8819L158.292 40.3809L157.202 39.8799C156.28 41.8861 155.822 44.0333 155.822 46.3076H157.022ZM158.292 40.3809L159.379 40.8899C160.17 39.2023 161.287 37.7252 162.743 36.4535L161.953 35.5498L161.164 34.6461C159.465 36.1303 158.142 37.8739 157.206 39.8718L158.292 40.3809ZM161.953 35.5498L162.738 36.4576C164.205 35.1888 165.989 34.1716 168.108 33.4183L167.706 32.2876L167.304 31.1569C164.94 31.9973 162.888 33.1549 161.168 34.642L161.953 35.5498ZM167.706 32.2876L168.105 33.4192C170.215 32.6746 172.608 32.2923 175.301 32.2923V31.0923V29.8923C172.382 29.8923 169.712 30.3068 167.306 31.156L167.706 32.2876ZM175.301 31.0923V32.2923C177.993 32.2923 180.378 32.6747 182.469 33.4183L182.871 32.2876L183.273 31.1569C180.882 30.3068 178.219 29.8923 175.301 29.8923V31.0923ZM182.871 32.2876L182.472 33.4192C184.607 34.1727 186.386 35.1888 187.834 36.4535L188.624 35.5498L189.413 34.6461C187.706 33.1549 185.651 31.9963 183.27 31.156L182.871 32.2876ZM188.624 35.5498L187.839 36.4576C189.308 37.7278 190.422 39.2011 191.194 40.8819L192.284 40.3809L193.375 39.8799C192.453 37.8751 191.127 36.1277 189.408 34.642L188.624 35.5498ZM192.284 40.3809L191.198 40.8899C191.983 42.5676 192.379 44.3686 192.379 46.3076H193.579H194.779C194.779 44.0298 194.311 41.8797 193.371 39.8718L192.284 40.3809ZM193.579 46.3076H192.379C192.379 48.2466 191.983 50.0477 191.198 51.7253L192.284 52.2344L193.371 52.7434C194.311 50.7355 194.779 48.5854 194.779 46.3076H193.579ZM192.284 52.2344L191.194 51.7334C190.422 53.4142 189.308 54.8875 187.839 56.1577L188.624 57.0654L189.408 57.9732C191.127 56.4875 192.453 54.7401 193.375 52.7354L192.284 52.2344ZM188.624 57.0654L187.834 56.1617C186.386 57.4264 184.607 58.4426 182.472 59.196L182.871 60.3276L183.27 61.4592C185.651 60.6189 187.706 59.4603 189.413 57.9691L188.624 57.0654ZM182.871 60.3276L182.469 59.197C180.378 59.9406 177.993 60.3229 175.301 60.3229V61.5229V62.7229C178.219 62.7229 180.882 62.3085 183.273 61.4583L182.871 60.3276ZM175.301 61.5229V60.3229C172.608 60.3229 170.215 59.9406 168.105 59.196L167.706 60.3276L167.306 61.4592C169.712 62.3084 172.382 62.7229 175.301 62.7229V61.5229ZM167.706 60.3276L168.108 59.197C165.989 58.4436 164.205 57.4264 162.738 56.1577L161.953 57.0654L161.168 57.9732C162.888 59.4603 164.94 60.6179 167.304 61.4583L167.706 60.3276ZM161.953 57.0654L162.743 56.1617C161.287 54.8901 160.17 53.4129 159.379 51.7253L158.292 52.2344L157.206 52.7434C158.142 54.7414 159.465 56.4849 161.164 57.9691L161.953 57.0654ZM158.292 52.2344L159.383 51.7334C158.611 50.054 158.222 48.2501 158.222 46.3076H157.022H155.822C155.822 48.5819 156.28 50.7292 157.202 52.7354L158.292 52.2344ZM164.767 46.3076H163.567C163.567 47.6491 163.833 48.9337 164.365 50.1504L165.464 49.6694L166.564 49.1885C166.166 48.2802 165.967 47.3236 165.967 46.3076H164.767ZM165.464 49.6694L164.374 50.1712C164.927 51.3713 165.715 52.4308 166.725 53.3472L167.531 52.4585L168.338 51.5698C167.555 50.8592 166.965 50.0593 166.554 49.1677L165.464 49.6694ZM167.531 52.4585L166.742 53.3626C167.779 54.2672 169.013 54.9758 170.425 55.5008L170.843 54.376L171.261 53.2512C170.084 52.8133 169.11 52.2435 168.32 51.5544L167.531 52.4585ZM170.843 54.376L170.442 55.507C171.905 56.0254 173.53 56.2732 175.301 56.2732V55.0732V53.8732C173.752 53.8732 172.405 53.6563 171.244 53.2449L170.843 54.376ZM175.301 55.0732V56.2732C177.071 56.2732 178.69 56.0255 180.139 55.5054L179.733 54.376L179.328 53.2465C178.187 53.6562 176.85 53.8732 175.301 53.8732V55.0732ZM179.733 54.376L180.147 55.5025C181.577 54.9776 182.817 54.2672 183.843 53.3554L183.045 52.4585L182.248 51.5616C181.481 52.2436 180.513 52.8114 179.32 53.2495L179.733 54.376ZM183.045 52.4585L183.844 53.3545C184.875 52.4355 185.67 51.3691 186.209 50.1568L185.112 49.6694L184.016 49.1821C183.625 50.0616 183.042 50.8546 182.247 51.5625L183.045 52.4585ZM185.112 49.6694L186.205 50.1647C186.758 48.9449 187.034 47.6553 187.034 46.3076H185.834H184.634C184.634 47.3174 184.429 48.2689 184.019 49.1742L185.112 49.6694ZM185.834 46.3076H187.034C187.034 44.9599 186.758 43.6703 186.205 42.4505L185.112 42.9458L184.019 43.4411C184.429 44.3463 184.634 45.2979 184.634 46.3076H185.834ZM185.112 42.9458L186.212 42.4648C185.673 41.2328 184.875 40.1606 183.834 39.2526L183.045 40.1567L182.256 41.0608C183.042 41.7467 183.622 42.5338 184.013 43.4268L185.112 42.9458ZM183.045 40.1567L183.852 39.2681C182.821 38.3329 181.573 37.6183 180.134 37.1082L179.733 38.2393L179.333 39.3703C180.516 39.7899 181.477 40.3536 182.239 41.0454L183.045 40.1567ZM179.733 38.2393L180.152 37.1145C178.699 36.5744 177.076 36.3171 175.301 36.3171V37.5171V38.7171C176.846 38.7171 178.178 38.9412 179.315 39.364L179.733 38.2393ZM175.301 37.5171V36.3171C173.525 36.3171 171.896 36.5745 170.43 37.1128L170.843 38.2393L171.257 39.3658C172.414 38.9411 173.756 38.7171 175.301 38.7171V37.5171ZM170.843 38.2393L170.438 37.1098C169.016 37.6201 167.774 38.333 166.733 39.2607L167.531 40.1567L168.329 41.0527C169.114 40.3535 170.08 39.7881 171.249 39.3687L170.843 38.2393ZM167.531 40.1567L166.734 39.2598C165.716 40.1652 164.924 41.2305 164.371 42.4505L165.464 42.9458L166.557 43.4411C166.967 42.5361 167.554 41.7421 168.328 41.0536L167.531 40.1567ZM165.464 42.9458L164.365 42.4648C163.833 43.6815 163.567 44.9661 163.567 46.3076H164.767H165.967C165.967 45.2917 166.166 44.3351 166.564 43.4268L165.464 42.9458ZM200.079 40.1069L201.165 40.6165L201.167 40.6128L200.079 40.1069ZM203.714 35.2759L204.497 36.1856L204.498 36.1849L203.714 35.2759ZM209.243 32.188L209.625 33.3255L209.63 33.3237L209.243 32.188ZM219.328 31.2915L219.175 32.4816L219.177 32.4819L219.328 31.2915ZM222.316 31.8394L222.03 33.0047L222.035 33.0059L222.316 31.8394ZM225.006 32.686L224.56 33.8002L224.573 33.8055L224.587 33.8105L225.006 32.686ZM227.247 33.7319L226.637 34.7656L228.447 35.8328V33.7319H227.247ZM227.247 19.687V18.487H226.047V19.687H227.247ZM234.618 19.687H235.818V18.487H234.618V19.687ZM234.618 61V62.2H235.818V61H234.618ZM227.247 61H226.047V62.2H227.247V61ZM227.247 58.2358H228.447V55.9456L226.564 57.2492L227.247 58.2358ZM218.955 61.249L218.775 60.0626L218.765 60.0641L218.754 60.0658L218.955 61.249ZM208.869 60.4272L208.471 61.5592L208.474 61.5602L208.869 60.4272ZM200.004 52.583L198.908 53.0722L198.913 53.084L200.004 52.583ZM207.201 49.769L206.104 50.2564L206.107 50.2636L206.111 50.2708L207.201 49.769ZM209.243 52.5332L208.437 53.4226L208.446 53.4306L208.455 53.4384L209.243 52.5332ZM212.455 54.4009L212.035 55.5251L212.044 55.5284L212.053 55.5316L212.455 54.4009ZM219.677 54.7993L219.893 55.9796L219.903 55.9779L219.912 55.976L219.677 54.7993ZM222.541 53.9775L222.119 52.8539L222.112 52.8565L222.541 53.9775ZM225.13 52.7075L224.504 51.6841L224.494 51.6899L225.13 52.7075ZM227.247 51.0391L228.107 51.8759L228.447 51.5265V51.0391H227.247ZM227.247 40.854H228.447V40.2773L227.997 39.917L227.247 40.854ZM222.341 38.314L221.988 39.4609L222.341 38.314ZM219.727 37.7412L219.547 38.9278L219.558 38.9294L219.569 38.9309L219.727 37.7412ZM212.629 38.2393L213.017 39.3748L213.026 39.3719L212.629 38.2393ZM209.292 40.1069L208.503 39.2028L208.495 39.21L209.292 40.1069ZM198.759 46.4321H199.959C199.959 44.2445 200.369 42.3135 201.165 40.6165L200.079 40.1069L198.992 39.5974C198.028 41.6523 197.559 43.9381 197.559 46.4321H198.759ZM200.079 40.1069L201.167 40.6128C201.977 38.8711 203.086 37.3996 204.497 36.1856L203.714 35.2759L202.932 34.3662C201.255 35.8084 199.94 37.5576 198.99 39.601L200.079 40.1069ZM203.714 35.2759L204.498 36.1849C205.931 34.9502 207.634 33.9943 209.625 33.3255L209.243 32.188L208.861 31.0505C206.601 31.8094 204.619 32.9121 202.931 34.3668L203.714 35.2759ZM209.243 32.188L209.63 33.3237C211.635 32.6399 213.819 32.2923 216.19 32.2923V31.0923V29.8923C213.582 29.8923 211.134 30.2752 208.855 31.0522L209.243 32.188ZM216.19 31.0923V32.2923C217.203 32.2923 218.197 32.3555 219.175 32.4816L219.328 31.2915L219.482 30.1014C218.4 29.9618 217.303 29.8923 216.19 29.8923V31.0923ZM219.328 31.2915L219.177 32.4819C220.181 32.6094 221.132 32.7841 222.03 33.0047L222.316 31.8394L222.603 30.674C221.608 30.4298 220.567 30.2392 219.479 30.1011L219.328 31.2915ZM222.316 31.8394L222.035 33.0059C222.948 33.2262 223.789 33.4917 224.56 33.8002L225.006 32.686L225.452 31.5719C224.563 31.2163 223.611 30.9173 222.598 30.6729L222.316 31.8394ZM225.006 32.686L224.587 33.8105C225.38 34.1061 226.061 34.4259 226.637 34.7656L227.247 33.7319L227.857 32.6983C227.138 32.2743 226.325 31.8968 225.425 31.5615L225.006 32.686ZM227.247 33.7319H228.447V19.687H227.247H226.047V33.7319H227.247ZM227.247 19.687V20.887H234.618V19.687V18.487H227.247V19.687ZM234.618 19.687H233.418V61H234.618H235.818V19.687H234.618ZM234.618 61V59.8H227.247V61V62.2H234.618V61ZM227.247 61H228.447V58.2358H227.247H226.047V61H227.247ZM227.247 58.2358L226.564 57.2492C225.987 57.6484 225.289 58.0376 224.461 58.4127L224.956 59.5059L225.451 60.599C226.383 60.1772 227.212 59.7198 227.93 59.2225L227.247 58.2358ZM224.956 59.5059L224.461 58.4127C223.636 58.7863 222.742 59.1162 221.778 59.4008L222.117 60.5518L222.457 61.7027C223.518 61.3896 224.516 61.0223 225.451 60.599L224.956 59.5059ZM222.117 60.5518L221.778 59.4008C220.82 59.6834 219.819 59.9043 218.775 60.0626L218.955 61.249L219.134 62.4355C220.281 62.2617 221.389 62.0177 222.457 61.7027L222.117 60.5518ZM218.955 61.249L218.754 60.0658C217.739 60.2376 216.736 60.3229 215.742 60.3229V61.5229V62.7229C216.874 62.7229 218.012 62.6257 219.155 62.4322L218.955 61.249ZM215.742 61.5229V60.3229C213.37 60.3229 211.215 59.9753 209.265 59.2943L208.869 60.4272L208.474 61.5602C210.707 62.3402 213.134 62.7229 215.742 62.7229V61.5229ZM208.869 60.4272L209.268 59.2953C207.324 58.6114 205.679 57.6572 204.312 56.4425L203.515 57.3394L202.718 58.2362C204.34 59.6778 206.263 60.7822 208.471 61.5592L208.869 60.4272ZM203.515 57.3394L204.312 56.4425C202.944 55.2262 201.873 53.7762 201.094 52.082L200.004 52.583L198.913 53.084C199.828 55.0754 201.098 56.7962 202.718 58.2362L203.515 57.3394ZM200.004 52.583L201.1 52.0938C200.345 50.4033 199.959 48.5219 199.959 46.4321H198.759H197.559C197.559 48.8248 198.003 51.044 198.908 53.0722L200.004 52.583ZM206.503 46.4321H205.303C205.303 47.7736 205.569 49.0524 206.104 50.2564L207.201 49.769L208.297 49.2817C207.903 48.3938 207.703 47.4481 207.703 46.4321H206.503ZM207.201 49.769L206.111 50.2708C206.662 51.4684 207.441 52.5205 208.437 53.4226L209.243 52.5332L210.048 51.6438C209.285 50.9521 208.702 50.1615 208.291 49.2673L207.201 49.769ZM209.243 52.5332L208.455 53.4384C209.472 54.3237 210.671 55.0158 212.035 55.5251L212.455 54.4009L212.875 53.2767C211.749 52.8562 210.806 52.3033 210.031 51.628L209.243 52.5332ZM212.455 54.4009L212.053 55.5316C213.463 56.0326 215.013 56.2732 216.688 56.2732V55.0732V53.8732C215.243 53.8732 213.97 53.6657 212.857 53.2701L212.455 54.4009ZM216.688 55.0732V56.2732C217.758 56.2732 218.827 56.1751 219.893 55.9796L219.677 54.7993L219.46 53.619C218.534 53.7887 217.611 53.8732 216.688 53.8732V55.0732ZM219.677 54.7993L219.912 55.976C220.971 55.7642 221.991 55.472 222.969 55.0986L222.541 53.9775L222.112 52.8565C221.264 53.1803 220.374 53.436 219.441 53.6226L219.677 54.7993ZM222.541 53.9775L222.962 55.1011C223.962 54.726 224.898 54.2679 225.766 53.7251L225.13 52.7075L224.494 51.6899C223.769 52.1433 222.978 52.5318 222.119 52.8539L222.541 53.9775ZM225.13 52.7075L225.757 53.7309C226.646 53.1865 227.432 52.5694 228.107 51.8759L227.247 51.0391L226.387 50.2022C225.866 50.7373 225.241 51.2325 224.504 51.6841L225.13 52.7075ZM227.247 51.0391H228.447V40.854H227.247H226.047V51.0391H227.247ZM227.247 40.854L227.997 39.917C227.186 39.2681 226.326 38.7156 225.418 38.2616L224.881 39.335L224.345 40.4083C225.097 40.7844 225.814 41.2446 226.497 41.791L227.247 40.854ZM224.881 39.335L225.418 38.2616C224.53 37.8179 223.622 37.4526 222.694 37.167L222.341 38.314L221.988 39.4609C222.787 39.7066 223.572 40.022 224.345 40.4083L224.881 39.335ZM222.341 38.314L222.694 37.167C221.768 36.8821 220.831 36.6767 219.884 36.5515L219.727 37.7412L219.569 38.9309C220.382 39.0382 221.188 39.2146 221.988 39.4609L222.341 38.314ZM219.727 37.7412L219.906 36.5547C218.971 36.4135 218.056 36.342 217.162 36.342V37.542V38.742C217.928 38.742 218.723 38.8033 219.547 38.9278L219.727 37.7412ZM217.162 37.542V36.342C215.36 36.342 213.711 36.5892 212.233 37.1066L212.629 38.2393L213.026 39.3719C214.204 38.9597 215.577 38.742 217.162 38.742V37.542ZM212.629 38.2393L212.241 37.1037C210.803 37.5952 209.55 38.2899 208.503 39.2028L209.292 40.1069L210.082 41.011C210.862 40.3302 211.832 39.7798 213.017 39.3748L212.629 38.2393ZM209.292 40.1069L208.495 39.21C207.473 40.1184 206.682 41.1948 206.13 42.432L207.226 42.9209L208.321 43.4098C208.732 42.4888 209.319 41.6892 210.09 41.0038L209.292 40.1069ZM207.226 42.9209L206.13 42.432C205.575 43.6752 205.303 45.0135 205.303 46.4321H206.503H207.703C207.703 45.3273 207.913 44.3248 208.321 43.4098L207.226 42.9209Z" fill="#AFCD80" mask="url(#path-1-outside-1_149_12)"/>
</g>
<defs>
<filter id="filter0_d_149_12" x="59.113" y="14.9871" width="180.205" height="51.2361" filterUnits="userSpaceOnUse" color-interpolation-filters="sRGB">
<feFlood flood-opacity="0" result="BackgroundImageFix"/>
<feColorMatrix in="SourceAlpha" type="matrix" values="0 0 0 0 0 0 0 0 0 0 0 0 0 0 0 0 0 0 127 0" result="hardAlpha"/>
<feOffset/>
<feGaussianBlur stdDeviation="1.75"/>
<feComposite in2="hardAlpha" operator="out"/>
<feColorMatrix type="matrix" values="0 0 0 0 0.83101 0 0 0 0 1 0 0 0 0 0.822115 0 0 0 1 0"/>
<feBlend mode="normal" in2="BackgroundImageFix" result="effect1_dropShadow_149_12"/>
<feBlend mode="normal" in="SourceGraphic" in2="effect1_dropShadow_149_12" result="shape"/>
</filter>
</defs>
</svg>
