<svg width="300" height="80" viewBox="0 0 300 80" fill="none" xmlns="http://www.w3.org/2000/svg">
<g filter="url(#filter0_d_149_12)">
<path d="M65.4652 62.464C62.6039 62.464 60.1679 62.29 58.1572 61.942C56.1852 61.5553 54.5419 60.9173 53.2272 60.028C51.9126 59.1387 50.8879 57.9207 50.1532 56.374C49.4572 54.8273 48.9546 52.894 48.6452 50.574C48.3746 48.2153 48.2392 45.3733 48.2392 42.048C48.2392 38.7227 48.3746 35.9 48.6452 33.58C48.9546 31.2213 49.4766 29.2687 50.2112 27.722C50.9459 26.1753 51.9706 24.9573 53.2852 24.068C54.5999 23.1787 56.2432 22.56 58.2152 22.212C60.2259 21.8253 62.6426 21.632 65.4652 21.632C66.7412 21.632 68.1332 21.69 69.6412 21.806C71.1879 21.922 72.7152 22.0767 74.2232 22.27C75.7312 22.4247 77.1039 22.618 78.3412 22.85V28.07C77.0266 27.8767 75.7312 27.722 74.4552 27.606C73.1792 27.49 71.9999 27.3933 70.9172 27.316C69.8732 27.2387 69.0032 27.2 68.3072 27.2C65.9872 27.2 64.0346 27.258 62.4492 27.374C60.8639 27.4513 59.5686 27.722 58.5632 28.186C57.5579 28.65 56.7846 29.4233 56.2432 30.506C55.7019 31.55 55.3152 33 55.0832 34.856C54.8899 36.712 54.7932 39.1093 54.7932 42.048C54.7932 44.6387 54.8512 46.8233 54.9672 48.602C55.1219 50.342 55.4119 51.792 55.8372 52.952C56.3012 54.0733 56.9199 54.924 57.6932 55.504C58.5052 56.084 59.5492 56.49 60.8252 56.722C62.1399 56.954 63.7446 57.07 65.6392 57.07C66.3739 57.07 67.1472 57.0507 67.9592 57.012C68.8099 56.9733 69.6026 56.9347 70.3372 56.896C71.0719 56.8187 71.6906 56.7413 72.1932 56.664V45.354H64.3632V39.902H78.5152V61.246C77.2006 61.478 75.7506 61.6907 74.1652 61.884C72.6186 62.0387 71.0912 62.174 69.5832 62.29C68.0752 62.406 66.7026 62.464 65.4652 62.464ZM95.502 62V22.096H114.12C116.633 22.096 118.663 22.386 120.21 22.966C121.757 23.546 122.917 24.3967 123.69 25.518C124.463 26.6007 124.985 27.9153 125.256 29.462C125.527 30.97 125.662 32.6327 125.662 34.45C125.662 35.7647 125.527 37.2147 125.256 38.8C125.024 40.3467 124.483 41.7773 123.632 43.092C122.82 44.368 121.525 45.296 119.746 45.876L126.3 62H119.34L112.96 45.702L114.642 46.572C114.371 46.688 114.043 46.7653 113.656 46.804C113.308 46.804 112.883 46.804 112.38 46.804H102.056V62H95.502ZM102.056 41.236H111.336C113.153 41.236 114.584 41.12 115.628 40.888C116.672 40.6173 117.445 40.2113 117.948 39.67C118.451 39.1287 118.76 38.4327 118.876 37.582C119.031 36.7313 119.108 35.6873 119.108 34.45C119.108 33.174 119.031 32.1107 118.876 31.26C118.76 30.3707 118.47 29.6747 118.006 29.172C117.542 28.6307 116.788 28.244 115.744 28.012C114.739 27.78 113.347 27.664 111.568 27.664H102.056V41.236ZM141.827 62V22.096H168.391V27.664H148.381V39.09H165.665V44.658H148.381V56.432H168.391V62H141.827ZM179.901 62L194.169 22.096H202.753L217.021 62H210.235L206.755 52.14H189.935L186.513 62H179.901ZM191.791 46.572H204.841L198.461 28.418H198.171L191.791 46.572ZM235.69 62V27.838H223.568V22.096H254.308V27.838H242.244V62H235.69Z" fill="#F3FFC9"/>
</g>
<defs>
<filter id="filter0_d_149_12" x="44.7392" y="18.1318" width="213.069" height="47.832" filterUnits="userSpaceOnUse" color-interpolation-filters="sRGB">
<feFlood flood-opacity="0" result="BackgroundImageFix"/>
<feColorMatrix in="SourceAlpha" type="matrix" values="0 0 0 0 0 0 0 0 0 0 0 0 0 0 0 0 0 0 127 0" result="hardAlpha"/>
<feOffset/>
<feGaussianBlur stdDeviation="1.75"/>
<feComposite in2="hardAlpha" operator="out"/>
<feColorMatrix type="matrix" values="0 0 0 0 0.83101 0 0 0 0 1 0 0 0 0 0.822115 0 0 0 0.4 0"/>
<feBlend mode="normal" in2="BackgroundImageFix" result="effect1_dropShadow_149_12"/>
<feBlend mode="normal" in="SourceGraphic" in2="effect1_dropShadow_149_12" result="shape"/>
</filter>
</defs>
</svg>
