<svg width="300" height="80" viewBox="0 0 300 80" fill="none" xmlns="http://www.w3.org/2000/svg">
<g filter="url(#filter0_d_149_18)">
<mask id="path-1-outside-1_149_18" maskUnits="userSpaceOnUse" x="67" y="20" width="169" height="43" fill="black">
<rect fill="white" x="67" y="20" width="169" height="43"/>
<path d="M68.4448 22.0776H76.3389L90.4834 36.272L104.628 22.0776H112.522V61H104.628V33.0098L90.4834 46.6313L76.3389 33.0098V61H68.4448V22.0776ZM122.607 22.0776H130.551V61H122.607V22.0776ZM142.455 49.4204C143.866 50.2173 145.293 50.9395 146.738 51.5869C148.199 52.2178 149.709 52.7573 151.27 53.2056C152.831 53.6372 154.466 53.9692 156.176 54.2017C157.902 54.4341 159.737 54.5503 161.679 54.5503C164.02 54.5503 166.012 54.4009 167.656 54.1021C169.299 53.7866 170.636 53.3633 171.665 52.832C172.711 52.2842 173.466 51.6367 173.931 50.8896C174.413 50.1426 174.653 49.3291 174.653 48.4492C174.653 47.0381 174.064 45.9258 172.885 45.1123C171.707 44.2822 169.889 43.8672 167.432 43.8672C166.353 43.8672 165.215 43.9419 164.02 44.0913C162.825 44.2241 161.613 44.3735 160.384 44.5396C159.172 44.7056 157.969 44.8633 156.773 45.0127C155.595 45.1455 154.482 45.2119 153.437 45.2119C151.693 45.2119 150.017 44.9878 148.406 44.5396C146.812 44.0913 145.393 43.4189 144.148 42.5225C142.919 41.626 141.94 40.5054 141.209 39.1606C140.479 37.8159 140.114 36.2471 140.114 34.4541C140.114 33.3916 140.255 32.3374 140.537 31.2915C140.836 30.2456 141.301 29.2495 141.932 28.3032C142.579 27.3403 143.409 26.4521 144.422 25.6387C145.435 24.8086 146.655 24.0947 148.083 23.4971C149.527 22.8994 151.187 22.4346 153.063 22.1025C154.956 21.7539 157.105 21.5796 159.513 21.5796C161.256 21.5796 163.007 21.6792 164.767 21.8784C166.527 22.061 168.237 22.3267 169.897 22.6753C171.574 23.0239 173.184 23.4473 174.728 23.9453C176.272 24.4268 177.708 24.9663 179.036 25.564L175.575 31.939C174.479 31.4575 173.3 31.0176 172.039 30.6191C170.777 30.2041 169.457 29.8472 168.079 29.5483C166.701 29.2495 165.273 29.0171 163.796 28.8511C162.335 28.6685 160.841 28.5771 159.313 28.5771C157.139 28.5771 155.346 28.7349 153.935 29.0503C152.54 29.3657 151.428 29.7725 150.598 30.2705C149.768 30.752 149.187 31.2998 148.854 31.9141C148.539 32.5117 148.381 33.1094 148.381 33.707C148.381 34.8691 148.904 35.8237 149.95 36.5708C150.996 37.3013 152.59 37.6665 154.731 37.6665C155.595 37.6665 156.583 37.6084 157.695 37.4922C158.824 37.3594 160.002 37.2183 161.231 37.0688C162.476 36.9194 163.738 36.7866 165.016 36.6704C166.311 36.5376 167.564 36.4712 168.776 36.4712C171.067 36.4712 173.093 36.7285 174.853 37.2432C176.629 37.7578 178.115 38.4966 179.31 39.4595C180.505 40.4058 181.41 41.5596 182.024 42.9209C182.639 44.2656 182.946 45.7764 182.946 47.4531C182.946 49.6943 182.423 51.6948 181.377 53.4546C180.348 55.1978 178.87 56.6753 176.944 57.8872C175.035 59.0825 172.728 59.9956 170.021 60.6265C167.315 61.2407 164.302 61.5479 160.982 61.5479C158.791 61.5479 156.649 61.4067 154.557 61.1245C152.465 60.8589 150.457 60.4771 148.531 59.979C146.622 59.4644 144.795 58.8584 143.052 58.1611C141.326 57.4473 139.724 56.667 138.246 55.8203L142.455 49.4204ZM193.455 49.4204C194.866 50.2173 196.293 50.9395 197.738 51.5869C199.199 52.2178 200.709 52.7573 202.27 53.2056C203.831 53.6372 205.466 53.9692 207.176 54.2017C208.902 54.4341 210.737 54.5503 212.679 54.5503C215.02 54.5503 217.012 54.4009 218.656 54.1021C220.299 53.7866 221.636 53.3633 222.665 52.832C223.711 52.2842 224.466 51.6367 224.931 50.8896C225.413 50.1426 225.653 49.3291 225.653 48.4492C225.653 47.0381 225.064 45.9258 223.885 45.1123C222.707 44.2822 220.889 43.8672 218.432 43.8672C217.353 43.8672 216.215 43.9419 215.02 44.0913C213.825 44.2241 212.613 44.3735 211.384 44.5396C210.172 44.7056 208.969 44.8633 207.773 45.0127C206.595 45.1455 205.482 45.2119 204.437 45.2119C202.693 45.2119 201.017 44.9878 199.406 44.5396C197.812 44.0913 196.393 43.4189 195.148 42.5225C193.919 41.626 192.94 40.5054 192.209 39.1606C191.479 37.8159 191.114 36.2471 191.114 34.4541C191.114 33.3916 191.255 32.3374 191.537 31.2915C191.836 30.2456 192.301 29.2495 192.932 28.3032C193.579 27.3403 194.409 26.4521 195.422 25.6387C196.435 24.8086 197.655 24.0947 199.083 23.4971C200.527 22.8994 202.187 22.4346 204.063 22.1025C205.956 21.7539 208.105 21.5796 210.513 21.5796C212.256 21.5796 214.007 21.6792 215.767 21.8784C217.527 22.061 219.237 22.3267 220.897 22.6753C222.574 23.0239 224.184 23.4473 225.728 23.9453C227.272 24.4268 228.708 24.9663 230.036 25.564L226.575 31.939C225.479 31.4575 224.3 31.0176 223.039 30.6191C221.777 30.2041 220.457 29.8472 219.079 29.5483C217.701 29.2495 216.273 29.0171 214.796 28.8511C213.335 28.6685 211.841 28.5771 210.313 28.5771C208.139 28.5771 206.346 28.7349 204.935 29.0503C203.54 29.3657 202.428 29.7725 201.598 30.2705C200.768 30.752 200.187 31.2998 199.854 31.9141C199.539 32.5117 199.381 33.1094 199.381 33.707C199.381 34.8691 199.904 35.8237 200.95 36.5708C201.996 37.3013 203.59 37.6665 205.731 37.6665C206.595 37.6665 207.583 37.6084 208.695 37.4922C209.824 37.3594 211.002 37.2183 212.231 37.0688C213.476 36.9194 214.738 36.7866 216.016 36.6704C217.311 36.5376 218.564 36.4712 219.776 36.4712C222.067 36.4712 224.093 36.7285 225.853 37.2432C227.629 37.7578 229.115 38.4966 230.31 39.4595C231.505 40.4058 232.41 41.5596 233.024 42.9209C233.639 44.2656 233.946 45.7764 233.946 47.4531C233.946 49.6943 233.423 51.6948 232.377 53.4546C231.348 55.1978 229.87 56.6753 227.944 57.8872C226.035 59.0825 223.728 59.9956 221.021 60.6265C218.315 61.2407 215.302 61.5479 211.982 61.5479C209.791 61.5479 207.649 61.4067 205.557 61.1245C203.465 60.8589 201.457 60.4771 199.531 59.979C197.622 59.4644 195.795 58.8584 194.052 58.1611C192.326 57.4473 190.724 56.667 189.246 55.8203L193.455 49.4204Z"/>
</mask>
<path d="M68.4448 22.0776H76.3389L90.4834 36.272L104.628 22.0776H112.522V61H104.628V33.0098L90.4834 46.6313L76.3389 33.0098V61H68.4448V22.0776ZM122.607 22.0776H130.551V61H122.607V22.0776ZM142.455 49.4204C143.866 50.2173 145.293 50.9395 146.738 51.5869C148.199 52.2178 149.709 52.7573 151.27 53.2056C152.831 53.6372 154.466 53.9692 156.176 54.2017C157.902 54.4341 159.737 54.5503 161.679 54.5503C164.02 54.5503 166.012 54.4009 167.656 54.1021C169.299 53.7866 170.636 53.3633 171.665 52.832C172.711 52.2842 173.466 51.6367 173.931 50.8896C174.413 50.1426 174.653 49.3291 174.653 48.4492C174.653 47.0381 174.064 45.9258 172.885 45.1123C171.707 44.2822 169.889 43.8672 167.432 43.8672C166.353 43.8672 165.215 43.9419 164.02 44.0913C162.825 44.2241 161.613 44.3735 160.384 44.5396C159.172 44.7056 157.969 44.8633 156.773 45.0127C155.595 45.1455 154.482 45.2119 153.437 45.2119C151.693 45.2119 150.017 44.9878 148.406 44.5396C146.812 44.0913 145.393 43.4189 144.148 42.5225C142.919 41.626 141.94 40.5054 141.209 39.1606C140.479 37.8159 140.114 36.2471 140.114 34.4541C140.114 33.3916 140.255 32.3374 140.537 31.2915C140.836 30.2456 141.301 29.2495 141.932 28.3032C142.579 27.3403 143.409 26.4521 144.422 25.6387C145.435 24.8086 146.655 24.0947 148.083 23.4971C149.527 22.8994 151.187 22.4346 153.063 22.1025C154.956 21.7539 157.105 21.5796 159.513 21.5796C161.256 21.5796 163.007 21.6792 164.767 21.8784C166.527 22.061 168.237 22.3267 169.897 22.6753C171.574 23.0239 173.184 23.4473 174.728 23.9453C176.272 24.4268 177.708 24.9663 179.036 25.564L175.575 31.939C174.479 31.4575 173.3 31.0176 172.039 30.6191C170.777 30.2041 169.457 29.8472 168.079 29.5483C166.701 29.2495 165.273 29.0171 163.796 28.8511C162.335 28.6685 160.841 28.5771 159.313 28.5771C157.139 28.5771 155.346 28.7349 153.935 29.0503C152.54 29.3657 151.428 29.7725 150.598 30.2705C149.768 30.752 149.187 31.2998 148.854 31.9141C148.539 32.5117 148.381 33.1094 148.381 33.707C148.381 34.8691 148.904 35.8237 149.95 36.5708C150.996 37.3013 152.59 37.6665 154.731 37.6665C155.595 37.6665 156.583 37.6084 157.695 37.4922C158.824 37.3594 160.002 37.2183 161.231 37.0688C162.476 36.9194 163.738 36.7866 165.016 36.6704C166.311 36.5376 167.564 36.4712 168.776 36.4712C171.067 36.4712 173.093 36.7285 174.853 37.2432C176.629 37.7578 178.115 38.4966 179.31 39.4595C180.505 40.4058 181.41 41.5596 182.024 42.9209C182.639 44.2656 182.946 45.7764 182.946 47.4531C182.946 49.6943 182.423 51.6948 181.377 53.4546C180.348 55.1978 178.87 56.6753 176.944 57.8872C175.035 59.0825 172.728 59.9956 170.021 60.6265C167.315 61.2407 164.302 61.5479 160.982 61.5479C158.791 61.5479 156.649 61.4067 154.557 61.1245C152.465 60.8589 150.457 60.4771 148.531 59.979C146.622 59.4644 144.795 58.8584 143.052 58.1611C141.326 57.4473 139.724 56.667 138.246 55.8203L142.455 49.4204ZM193.455 49.4204C194.866 50.2173 196.293 50.9395 197.738 51.5869C199.199 52.2178 200.709 52.7573 202.27 53.2056C203.831 53.6372 205.466 53.9692 207.176 54.2017C208.902 54.4341 210.737 54.5503 212.679 54.5503C215.02 54.5503 217.012 54.4009 218.656 54.1021C220.299 53.7866 221.636 53.3633 222.665 52.832C223.711 52.2842 224.466 51.6367 224.931 50.8896C225.413 50.1426 225.653 49.3291 225.653 48.4492C225.653 47.0381 225.064 45.9258 223.885 45.1123C222.707 44.2822 220.889 43.8672 218.432 43.8672C217.353 43.8672 216.215 43.9419 215.02 44.0913C213.825 44.2241 212.613 44.3735 211.384 44.5396C210.172 44.7056 208.969 44.8633 207.773 45.0127C206.595 45.1455 205.482 45.2119 204.437 45.2119C202.693 45.2119 201.017 44.9878 199.406 44.5396C197.812 44.0913 196.393 43.4189 195.148 42.5225C193.919 41.626 192.94 40.5054 192.209 39.1606C191.479 37.8159 191.114 36.2471 191.114 34.4541C191.114 33.3916 191.255 32.3374 191.537 31.2915C191.836 30.2456 192.301 29.2495 192.932 28.3032C193.579 27.3403 194.409 26.4521 195.422 25.6387C196.435 24.8086 197.655 24.0947 199.083 23.4971C200.527 22.8994 202.187 22.4346 204.063 22.1025C205.956 21.7539 208.105 21.5796 210.513 21.5796C212.256 21.5796 214.007 21.6792 215.767 21.8784C217.527 22.061 219.237 22.3267 220.897 22.6753C222.574 23.0239 224.184 23.4473 225.728 23.9453C227.272 24.4268 228.708 24.9663 230.036 25.564L226.575 31.939C225.479 31.4575 224.3 31.0176 223.039 30.6191C221.777 30.2041 220.457 29.8472 219.079 29.5483C217.701 29.2495 216.273 29.0171 214.796 28.8511C213.335 28.6685 211.841 28.5771 210.313 28.5771C208.139 28.5771 206.346 28.7349 204.935 29.0503C203.54 29.3657 202.428 29.7725 201.598 30.2705C200.768 30.752 200.187 31.2998 199.854 31.9141C199.539 32.5117 199.381 33.1094 199.381 33.707C199.381 34.8691 199.904 35.8237 200.95 36.5708C201.996 37.3013 203.59 37.6665 205.731 37.6665C206.595 37.6665 207.583 37.6084 208.695 37.4922C209.824 37.3594 211.002 37.2183 212.231 37.0688C213.476 36.9194 214.738 36.7866 216.016 36.6704C217.311 36.5376 218.564 36.4712 219.776 36.4712C222.067 36.4712 224.093 36.7285 225.853 37.2432C227.629 37.7578 229.115 38.4966 230.31 39.4595C231.505 40.4058 232.41 41.5596 233.024 42.9209C233.639 44.2656 233.946 45.7764 233.946 47.4531C233.946 49.6943 233.423 51.6948 232.377 53.4546C231.348 55.1978 229.87 56.6753 227.944 57.8872C226.035 59.0825 223.728 59.9956 221.021 60.6265C218.315 61.2407 215.302 61.5479 211.982 61.5479C209.791 61.5479 207.649 61.4067 205.557 61.1245C203.465 60.8589 201.457 60.4771 199.531 59.979C197.622 59.4644 195.795 58.8584 194.052 58.1611C192.326 57.4473 190.724 56.667 189.246 55.8203L193.455 49.4204Z" fill="#FF2121"/>
<path d="M68.4448 22.0776V20.8776H67.2448V22.0776H68.4448ZM76.3389 22.0776L77.1889 21.2306L76.8372 20.8776H76.3389V22.0776ZM90.4834 36.272L89.6334 37.119L90.4834 37.972L91.3334 37.119L90.4834 36.272ZM104.628 22.0776V20.8776H104.13L103.778 21.2306L104.628 22.0776ZM112.522 22.0776H113.722V20.8776H112.522V22.0776ZM112.522 61V62.2H113.722V61H112.522ZM104.628 61H103.428V62.2H104.628V61ZM104.628 33.0098H105.828V30.1882L103.796 32.1454L104.628 33.0098ZM90.4834 46.6313L89.651 47.4957L90.4834 48.2973L91.3158 47.4957L90.4834 46.6313ZM76.3389 33.0098L77.1713 32.1454L75.1389 30.1882V33.0098H76.3389ZM76.3389 61V62.2H77.5389V61H76.3389ZM68.4448 61H67.2448V62.2H68.4448V61ZM68.4448 22.0776V23.2776H76.3389V22.0776V20.8776H68.4448V22.0776ZM76.3389 22.0776L75.4888 22.9247L89.6334 37.119L90.4834 36.272L91.3334 35.4249L77.1889 21.2306L76.3389 22.0776ZM90.4834 36.272L91.3334 37.119L105.478 22.9247L104.628 22.0776L103.778 21.2306L89.6334 35.4249L90.4834 36.272ZM104.628 22.0776V23.2776H112.522V22.0776V20.8776H104.628V22.0776ZM112.522 22.0776H111.322V61H112.522H113.722V22.0776H112.522ZM112.522 61V59.8H104.628V61V62.2H112.522V61ZM104.628 61H105.828V33.0098H104.628H103.428V61H104.628ZM104.628 33.0098L103.796 32.1454L89.651 45.767L90.4834 46.6313L91.3158 47.4957L105.46 33.8741L104.628 33.0098ZM90.4834 46.6313L91.3158 45.767L77.1713 32.1454L76.3389 33.0098L75.5065 33.8741L89.651 47.4957L90.4834 46.6313ZM76.3389 33.0098H75.1389V61H76.3389H77.5389V33.0098H76.3389ZM76.3389 61V59.8H68.4448V61V62.2H76.3389V61ZM68.4448 61H69.6448V22.0776H68.4448H67.2448V61H68.4448ZM122.607 22.0776V20.8776H121.407V22.0776H122.607ZM130.551 22.0776H131.751V20.8776H130.551V22.0776ZM130.551 61V62.2H131.751V61H130.551ZM122.607 61H121.407V62.2H122.607V61ZM122.607 22.0776V23.2776H130.551V22.0776V20.8776H122.607V22.0776ZM130.551 22.0776H129.351V61H130.551H131.751V22.0776H130.551ZM130.551 61V59.8H122.607V61V62.2H130.551V61ZM122.607 61H123.807V22.0776H122.607H121.407V61H122.607ZM142.455 49.4204L143.045 48.3755L142.068 47.8241L141.452 48.7611L142.455 49.4204ZM146.738 51.5869L146.247 52.6819L146.254 52.6853L146.262 52.6886L146.738 51.5869ZM151.27 53.2056L150.939 54.359L150.95 54.3621L151.27 53.2056ZM156.176 54.2017L156.014 55.3907L156.016 55.3909L156.176 54.2017ZM167.656 54.1021L167.87 55.2828L167.882 55.2805L167.656 54.1021ZM171.665 52.832L172.215 53.8984L172.222 53.895L171.665 52.832ZM173.931 50.8896L172.922 50.2396L172.917 50.2476L172.912 50.2557L173.931 50.8896ZM172.885 45.1123L172.194 46.0935L172.204 46.0999L172.885 45.1123ZM164.02 44.0913L164.153 45.284L164.161 45.2831L164.169 45.282L164.02 44.0913ZM160.384 44.5396L160.224 43.3504L160.221 43.3507L160.384 44.5396ZM156.773 45.0127L156.908 46.2051L156.915 46.2043L156.922 46.2034L156.773 45.0127ZM148.406 44.5396L148.081 45.6947L148.084 45.6956L148.406 44.5396ZM144.148 42.5225L143.441 43.4918L143.447 43.4963L144.148 42.5225ZM140.537 31.2915L139.383 30.9618L139.381 30.9703L139.379 30.9789L140.537 31.2915ZM141.932 28.3032L140.936 27.6336L140.933 27.6376L141.932 28.3032ZM144.422 25.6387L145.173 26.5743L145.183 26.5667L144.422 25.6387ZM148.083 23.4971L147.624 22.3882L147.619 22.3901L148.083 23.4971ZM153.063 22.1025L153.272 23.2842L153.28 23.2827L153.063 22.1025ZM164.767 21.8784L164.632 23.0709L164.643 23.072L164.767 21.8784ZM169.897 22.6753L169.65 23.8497L169.653 23.8502L169.897 22.6753ZM174.728 23.9453L174.36 25.0874L174.371 25.0909L174.728 23.9453ZM179.036 25.564L180.091 26.1366L180.708 25.0003L179.529 24.4697L179.036 25.564ZM175.575 31.939L175.092 33.0376L176.103 33.4816L176.629 32.5116L175.575 31.939ZM172.039 30.6191L171.664 31.7591L171.67 31.7613L171.677 31.7634L172.039 30.6191ZM163.796 28.8511L163.647 30.0418L163.654 30.0427L163.662 30.0436L163.796 28.8511ZM153.935 29.0503L153.673 27.8792L153.67 27.8799L153.935 29.0503ZM150.598 30.2705L151.2 31.3085L151.207 31.3041L151.215 31.2995L150.598 30.2705ZM148.854 31.9141L147.799 31.3434L147.793 31.354L148.854 31.9141ZM149.95 36.5708L149.253 37.5473L149.263 37.5546L149.95 36.5708ZM157.695 37.4922L157.82 38.6857L157.827 38.6849L157.835 38.684L157.695 37.4922ZM161.231 37.0688L161.088 35.8774L161.086 35.8776L161.231 37.0688ZM165.016 36.6704L165.125 37.8656L165.139 37.8641L165.016 36.6704ZM174.853 37.2432L174.516 38.3949L174.519 38.3958L174.853 37.2432ZM179.31 39.4595L178.557 40.394L178.565 40.4003L179.31 39.4595ZM182.024 42.9209L180.931 43.4145L180.933 43.4195L182.024 42.9209ZM181.377 53.4546L180.345 52.8415L180.344 52.8444L181.377 53.4546ZM176.944 57.8872L177.581 58.9043L177.583 58.9028L176.944 57.8872ZM170.021 60.6265L170.287 61.7967L170.294 61.7951L170.021 60.6265ZM154.557 61.1245L154.718 59.9353L154.708 59.9341L154.557 61.1245ZM148.531 59.979L148.218 61.1377L148.23 61.1408L148.531 59.979ZM143.052 58.1611L142.594 59.2702L142.607 59.2753L143.052 58.1611ZM138.246 55.8203L137.243 55.161L136.542 56.2271L137.649 56.8615L138.246 55.8203ZM142.455 49.4204L141.865 50.4653C143.307 51.28 144.768 52.0189 146.247 52.6819L146.738 51.5869L147.229 50.4919C145.819 49.86 144.424 49.1546 143.045 48.3755L142.455 49.4204ZM146.738 51.5869L146.262 52.6886C147.771 53.3401 149.33 53.8968 150.939 54.3589L151.27 53.2056L151.601 52.0522C150.089 51.6178 148.627 51.0954 147.214 50.4852L146.738 51.5869ZM151.27 53.2056L150.95 54.3621C152.566 54.8091 154.254 55.1515 156.014 55.3907L156.176 54.2017L156.337 53.0126C154.677 52.787 153.095 52.4654 151.59 52.049L151.27 53.2056ZM156.176 54.2017L156.016 55.3909C157.801 55.6313 159.689 55.7503 161.679 55.7503V54.5503V53.3503C159.784 53.3503 158.004 53.2369 156.336 53.0124L156.176 54.2017ZM161.679 54.5503V55.7503C164.066 55.7503 166.134 55.5984 167.87 55.2827L167.656 54.1021L167.441 52.9214C165.89 53.2034 163.974 53.3503 161.679 53.3503V54.5503ZM167.656 54.1021L167.882 55.2805C169.593 54.9522 171.05 54.5 172.215 53.8984L171.665 52.832L171.115 51.7657C170.222 52.2265 169.006 52.6211 167.43 52.9236L167.656 54.1021ZM171.665 52.832L172.222 53.895C173.395 53.2807 174.34 52.5042 174.95 51.5236L173.931 50.8896L172.912 50.2557C172.593 50.7693 172.027 51.2877 171.108 51.769L171.665 52.832ZM173.931 50.8896L174.94 51.5397C175.545 50.6009 175.853 49.5621 175.853 48.4492H174.653H173.453C173.453 49.0961 173.28 49.6843 172.922 50.2396L173.931 50.8896ZM174.653 48.4492H175.853C175.853 46.6367 175.064 45.1582 173.567 44.1247L172.885 45.1123L172.204 46.0999C173.064 46.6934 173.453 47.4395 173.453 48.4492H174.653ZM172.885 45.1123L173.576 44.1312C172.097 43.0895 169.98 42.6672 167.432 42.6672V43.8672V45.0672C169.797 45.0672 171.316 45.4749 172.194 46.0934L172.885 45.1123ZM167.432 43.8672V42.6672C166.297 42.6672 165.11 42.7457 163.871 42.9006L164.02 44.0913L164.169 45.282C165.32 45.1381 166.408 45.0672 167.432 45.0672V43.8672ZM164.02 44.0913L163.888 42.8986C162.682 43.0325 161.461 43.1831 160.224 43.3504L160.384 44.5396L160.545 45.7287C161.764 45.564 162.967 45.4157 164.153 45.284L164.02 44.0913ZM160.384 44.5396L160.221 43.3507C159.014 43.516 157.815 43.6731 156.625 43.822L156.773 45.0127L156.922 46.2034C158.122 46.0534 159.331 45.8951 160.547 45.7284L160.384 44.5396ZM156.773 45.0127L156.639 43.8202C155.499 43.9487 154.432 44.0119 153.437 44.0119V45.2119V46.4119C154.533 46.4119 155.69 46.3423 156.908 46.2051L156.773 45.0127ZM153.437 45.2119V44.0119C151.797 44.0119 150.229 43.8014 148.728 43.3835L148.406 44.5396L148.084 45.6956C149.804 46.1742 151.589 46.4119 153.437 46.4119V45.2119ZM148.406 44.5396L148.731 43.3844C147.262 42.9711 145.972 42.3569 144.849 41.5486L144.148 42.5225L143.447 43.4963C144.814 44.481 146.363 45.2115 148.081 45.6947L148.406 44.5396ZM144.148 42.5225L144.855 41.5531C143.771 40.7621 142.91 39.7773 142.264 38.5878L141.209 39.1606L140.155 39.7334C140.97 41.2334 142.067 42.4898 143.441 43.4918L144.148 42.5225ZM141.209 39.1606L142.264 38.5878C141.644 37.4469 141.314 36.0814 141.314 34.4541H140.114H138.914C138.914 36.4127 139.314 38.1849 140.155 39.7334L141.209 39.1606ZM140.114 34.4541H141.314C141.314 33.4992 141.44 32.5501 141.696 31.6041L140.537 31.2915L139.379 30.9789C139.069 32.1247 138.914 33.284 138.914 34.4541H140.114ZM140.537 31.2915L141.691 31.6212C141.954 30.7 142.365 29.8166 142.93 28.9689L141.932 28.3032L140.933 27.6376C140.237 28.6824 139.718 29.7912 139.383 30.9618L140.537 31.2915ZM141.932 28.3032L142.927 28.9728C143.5 28.1216 144.244 27.3208 145.173 26.5742L144.422 25.6387L143.67 24.7031C142.574 25.5835 141.658 26.5591 140.936 27.6336L141.932 28.3032ZM144.422 25.6387L145.183 26.5667C146.091 25.8223 147.206 25.1647 148.546 24.604L148.083 23.4971L147.619 22.3901C146.103 23.0248 144.778 23.7948 143.661 24.7106L144.422 25.6387ZM148.083 23.4971L148.541 24.6059C149.89 24.0478 151.464 23.6042 153.272 23.2842L153.063 22.1025L152.854 20.9209C150.91 21.2649 149.164 21.7511 147.624 22.3883L148.083 23.4971ZM153.063 22.1025L153.28 23.2827C155.086 22.9501 157.161 22.7796 159.513 22.7796V21.5796V20.3796C157.05 20.3796 154.825 20.5578 152.846 20.9224L153.063 22.1025ZM159.513 21.5796V22.7796C161.21 22.7796 162.916 22.8766 164.632 23.0708L164.767 21.8784L164.902 20.686C163.098 20.4818 161.302 20.3796 159.513 20.3796V21.5796ZM164.767 21.8784L164.643 23.072C166.364 23.2505 168.032 23.5099 169.65 23.8497L169.897 22.6753L170.144 21.5009C168.441 21.1434 166.69 20.8715 164.891 20.6848L164.767 21.8784ZM169.897 22.6753L169.653 23.8502C171.29 24.1906 172.859 24.6032 174.36 25.0874L174.728 23.9453L175.096 22.8033C173.51 22.2914 171.858 21.8573 170.141 21.5004L169.897 22.6753ZM174.728 23.9453L174.371 25.0909C175.874 25.5595 177.264 26.0824 178.544 26.6583L179.036 25.564L179.529 24.4697C178.152 23.8502 176.67 23.294 175.085 22.7997L174.728 23.9453ZM179.036 25.564L177.982 24.9914L174.52 31.3664L175.575 31.939L176.629 32.5116L180.091 26.1366L179.036 25.564ZM175.575 31.939L176.057 30.8403C174.918 30.3398 173.699 29.885 172.4 29.4748L172.039 30.6191L171.677 31.7634C172.902 32.1502 174.04 32.5752 175.092 33.0376L175.575 31.939ZM172.039 30.6191L172.414 29.4792C171.11 29.0504 169.75 28.6827 168.333 28.3756L168.079 29.5483L167.825 30.7211C169.164 31.0116 170.444 31.3578 171.664 31.7591L172.039 30.6191ZM168.079 29.5483L168.333 28.3756C166.914 28.0677 165.446 27.8289 163.93 27.6586L163.796 28.8511L163.662 30.0436C165.101 30.2053 166.489 30.4313 167.825 30.7211L168.079 29.5483ZM163.796 28.8511L163.945 27.6603C162.433 27.4713 160.889 27.3771 159.313 27.3771V28.5771V29.7771C160.793 29.7771 162.237 29.8656 163.647 30.0418L163.796 28.8511ZM159.313 28.5771V27.3771C157.09 27.3771 155.201 27.5375 153.673 27.8792L153.935 29.0503L154.196 30.2214C155.49 29.9322 157.187 29.7771 159.313 29.7771V28.5771ZM153.935 29.0503L153.67 27.8799C152.204 28.2113 150.958 28.6546 149.98 29.2415L150.598 30.2705L151.215 31.2995C151.897 30.8903 152.876 30.5201 154.199 30.2207L153.935 29.0503ZM150.598 30.2705L149.996 29.2325C149.043 29.785 148.268 30.4747 147.799 31.3434L148.854 31.9141L149.91 32.4847C150.105 32.1249 150.492 31.7189 151.2 31.3085L150.598 30.2705ZM148.854 31.9141L147.793 31.354C147.399 32.1014 147.181 32.8899 147.181 33.707H148.381H149.581C149.581 33.3289 149.679 32.922 149.916 32.4742L148.854 31.9141ZM148.381 33.707H147.181C147.181 35.3021 147.93 36.6027 149.253 37.5473L149.95 36.5708L150.648 35.5943C149.878 35.0447 149.581 34.4362 149.581 33.707H148.381ZM149.95 36.5708L149.263 37.5546C150.606 38.4925 152.494 38.8665 154.731 38.8665V37.6665V36.4665C152.685 36.4665 151.386 36.1101 150.637 35.587L149.95 36.5708ZM154.731 37.6665V38.8665C155.646 38.8665 156.677 38.805 157.82 38.6857L157.695 37.4922L157.57 36.2987C156.488 36.4118 155.543 36.4665 154.731 36.4665V37.6665ZM157.695 37.4922L157.835 38.684C158.966 38.551 160.146 38.4097 161.376 38.2601L161.231 37.0688L161.086 35.8776C159.859 36.0269 158.682 36.1678 157.555 36.3004L157.695 37.4922ZM161.231 37.0688L161.374 38.2603C162.607 38.1123 163.858 37.9807 165.125 37.8655L165.016 36.6704L164.907 35.4753C163.618 35.5926 162.345 35.7266 161.088 35.8774L161.231 37.0688ZM165.016 36.6704L165.139 37.8641C166.396 37.7352 167.608 37.6712 168.776 37.6712V36.4712V35.2712C167.521 35.2712 166.226 35.34 164.894 35.4767L165.016 36.6704ZM168.776 36.4712V37.6712C170.98 37.6712 172.889 37.9191 174.516 38.3949L174.853 37.2432L175.189 36.0914C173.297 35.538 171.154 35.2712 168.776 35.2712V36.4712ZM174.853 37.2432L174.519 38.3958C176.173 38.875 177.508 39.549 178.557 40.394L179.31 39.4595L180.063 38.525C178.721 37.4441 177.085 36.6406 175.186 36.0906L174.853 37.2432ZM179.31 39.4595L178.565 40.4003C179.613 41.2301 180.397 42.2317 180.931 43.4144L182.024 42.9209L183.118 42.4274C182.423 40.8874 181.397 39.5814 180.055 38.5186L179.31 39.4595ZM182.024 42.9209L180.933 43.4195C181.467 44.588 181.746 45.9253 181.746 47.4531H182.946H184.146C184.146 45.6274 183.811 43.9433 183.116 42.4223L182.024 42.9209ZM182.946 47.4531H181.746C181.746 49.4996 181.271 51.2846 180.345 52.8415L181.377 53.4546L182.409 54.0677C183.575 52.1051 184.146 49.889 184.146 47.4531H182.946ZM181.377 53.4546L180.344 52.8444C179.423 54.4035 178.089 55.7487 176.305 56.8716L176.944 57.8872L177.583 58.9028C179.651 57.6019 181.272 55.992 182.41 54.0647L181.377 53.4546ZM176.944 57.8872L176.308 56.8701C174.533 57.9809 172.355 58.8503 169.749 59.4578L170.021 60.6265L170.294 61.7951C173.1 61.141 175.537 60.1841 177.581 58.9043L176.944 57.8872ZM170.021 60.6265L169.756 59.4562C167.152 60.0473 164.23 60.3479 160.982 60.3479V61.5479V62.7479C164.375 62.7479 167.479 62.4342 170.287 61.7967L170.021 60.6265ZM160.982 61.5479V60.3479C158.842 60.3479 156.754 60.2101 154.718 59.9353L154.557 61.1245L154.397 62.3137C156.544 62.6034 158.739 62.7479 160.982 62.7479V61.5479ZM154.557 61.1245L154.708 59.9341C152.664 59.6745 150.705 59.3018 148.831 58.8172L148.531 59.979L148.23 61.1408C150.208 61.6523 152.267 62.0433 154.406 62.315L154.557 61.1245ZM148.531 59.979L148.843 58.8204C146.977 58.3173 145.195 57.7259 143.498 57.047L143.052 58.1611L142.607 59.2753C144.396 59.9909 146.266 60.6114 148.218 61.1376L148.531 59.979ZM143.052 58.1611L143.511 57.0522C141.827 56.3561 140.272 55.598 138.843 54.7791L138.246 55.8203L137.649 56.8615C139.176 57.736 140.824 58.5385 142.594 59.2701L143.052 58.1611ZM138.246 55.8203L139.249 56.4796L143.457 50.0797L142.455 49.4204L141.452 48.7611L137.243 55.161L138.246 55.8203ZM193.455 49.4204L194.045 48.3755L193.068 47.8241L192.452 48.7611L193.455 49.4204ZM197.738 51.5869L197.247 52.6819L197.254 52.6853L197.262 52.6886L197.738 51.5869ZM202.27 53.2056L201.939 54.359L201.95 54.3621L202.27 53.2056ZM207.176 54.2017L207.014 55.3907L207.016 55.3909L207.176 54.2017ZM218.656 54.1021L218.87 55.2828L218.882 55.2805L218.656 54.1021ZM222.665 52.832L223.215 53.8984L223.222 53.895L222.665 52.832ZM224.931 50.8896L223.922 50.2396L223.917 50.2476L223.912 50.2557L224.931 50.8896ZM223.885 45.1123L223.194 46.0935L223.204 46.0999L223.885 45.1123ZM215.02 44.0913L215.153 45.284L215.161 45.2831L215.169 45.282L215.02 44.0913ZM211.384 44.5396L211.224 43.3504L211.221 43.3507L211.384 44.5396ZM207.773 45.0127L207.908 46.2051L207.915 46.2043L207.922 46.2034L207.773 45.0127ZM199.406 44.5396L199.081 45.6947L199.084 45.6956L199.406 44.5396ZM195.148 42.5225L194.441 43.4918L194.447 43.4963L195.148 42.5225ZM191.537 31.2915L190.383 30.9618L190.381 30.9703L190.379 30.9789L191.537 31.2915ZM192.932 28.3032L191.936 27.6336L191.933 27.6376L192.932 28.3032ZM195.422 25.6387L196.173 26.5743L196.183 26.5667L195.422 25.6387ZM199.083 23.4971L198.624 22.3882L198.619 22.3901L199.083 23.4971ZM204.063 22.1025L204.272 23.2842L204.28 23.2827L204.063 22.1025ZM215.767 21.8784L215.632 23.0709L215.643 23.072L215.767 21.8784ZM220.897 22.6753L220.65 23.8497L220.653 23.8502L220.897 22.6753ZM225.728 23.9453L225.36 25.0874L225.371 25.0909L225.728 23.9453ZM230.036 25.564L231.091 26.1366L231.708 25.0003L230.529 24.4697L230.036 25.564ZM226.575 31.939L226.092 33.0376L227.103 33.4816L227.629 32.5116L226.575 31.939ZM223.039 30.6191L222.664 31.7591L222.67 31.7613L222.677 31.7634L223.039 30.6191ZM214.796 28.8511L214.647 30.0418L214.654 30.0427L214.662 30.0436L214.796 28.8511ZM204.935 29.0503L204.673 27.8792L204.67 27.8799L204.935 29.0503ZM201.598 30.2705L202.2 31.3085L202.207 31.3041L202.215 31.2995L201.598 30.2705ZM199.854 31.9141L198.799 31.3434L198.793 31.354L199.854 31.9141ZM200.95 36.5708L200.253 37.5473L200.263 37.5546L200.95 36.5708ZM208.695 37.4922L208.82 38.6857L208.827 38.6849L208.835 38.684L208.695 37.4922ZM212.231 37.0688L212.088 35.8774L212.086 35.8776L212.231 37.0688ZM216.016 36.6704L216.125 37.8656L216.139 37.8641L216.016 36.6704ZM225.853 37.2432L225.516 38.3949L225.519 38.3958L225.853 37.2432ZM230.31 39.4595L229.557 40.394L229.565 40.4003L230.31 39.4595ZM233.024 42.9209L231.931 43.4145L231.933 43.4195L233.024 42.9209ZM232.377 53.4546L231.345 52.8415L231.344 52.8444L232.377 53.4546ZM227.944 57.8872L228.581 58.9043L228.583 58.9028L227.944 57.8872ZM221.021 60.6265L221.287 61.7967L221.294 61.7951L221.021 60.6265ZM205.557 61.1245L205.718 59.9353L205.708 59.9341L205.557 61.1245ZM199.531 59.979L199.218 61.1377L199.23 61.1408L199.531 59.979ZM194.052 58.1611L193.594 59.2702L193.607 59.2753L194.052 58.1611ZM189.246 55.8203L188.243 55.161L187.542 56.2271L188.649 56.8615L189.246 55.8203ZM193.455 49.4204L192.865 50.4653C194.307 51.28 195.768 52.0189 197.247 52.6819L197.738 51.5869L198.229 50.4919C196.819 49.86 195.424 49.1546 194.045 48.3755L193.455 49.4204ZM197.738 51.5869L197.262 52.6886C198.771 53.3401 200.33 53.8968 201.939 54.3589L202.27 53.2056L202.601 52.0522C201.089 51.6178 199.627 51.0954 198.214 50.4852L197.738 51.5869ZM202.27 53.2056L201.95 54.3621C203.566 54.8091 205.254 55.1515 207.014 55.3907L207.176 54.2017L207.337 53.0126C205.677 52.787 204.095 52.4654 202.59 52.049L202.27 53.2056ZM207.176 54.2017L207.016 55.3909C208.801 55.6313 210.689 55.7503 212.679 55.7503V54.5503V53.3503C210.784 53.3503 209.004 53.2369 207.336 53.0124L207.176 54.2017ZM212.679 54.5503V55.7503C215.066 55.7503 217.134 55.5984 218.87 55.2827L218.656 54.1021L218.441 52.9214C216.89 53.2034 214.974 53.3503 212.679 53.3503V54.5503ZM218.656 54.1021L218.882 55.2805C220.593 54.9522 222.05 54.5 223.215 53.8984L222.665 52.832L222.115 51.7657C221.222 52.2265 220.006 52.6211 218.43 52.9236L218.656 54.1021ZM222.665 52.832L223.222 53.895C224.395 53.2807 225.34 52.5042 225.95 51.5236L224.931 50.8896L223.912 50.2557C223.593 50.7693 223.027 51.2877 222.108 51.769L222.665 52.832ZM224.931 50.8896L225.94 51.5397C226.545 50.6009 226.853 49.5621 226.853 48.4492H225.653H224.453C224.453 49.0961 224.28 49.6843 223.922 50.2396L224.931 50.8896ZM225.653 48.4492H226.853C226.853 46.6367 226.064 45.1582 224.567 44.1247L223.885 45.1123L223.204 46.0999C224.064 46.6934 224.453 47.4395 224.453 48.4492H225.653ZM223.885 45.1123L224.576 44.1312C223.097 43.0895 220.98 42.6672 218.432 42.6672V43.8672V45.0672C220.797 45.0672 222.316 45.4749 223.194 46.0934L223.885 45.1123ZM218.432 43.8672V42.6672C217.297 42.6672 216.11 42.7457 214.871 42.9006L215.02 44.0913L215.169 45.282C216.32 45.1381 217.408 45.0672 218.432 45.0672V43.8672ZM215.02 44.0913L214.888 42.8986C213.682 43.0325 212.461 43.1831 211.224 43.3504L211.384 44.5396L211.545 45.7287C212.764 45.564 213.967 45.4157 215.153 45.284L215.02 44.0913ZM211.384 44.5396L211.221 43.3507C210.014 43.516 208.815 43.6731 207.625 43.822L207.773 45.0127L207.922 46.2034C209.122 46.0534 210.331 45.8951 211.547 45.7284L211.384 44.5396ZM207.773 45.0127L207.639 43.8202C206.499 43.9487 205.432 44.0119 204.437 44.0119V45.2119V46.4119C205.533 46.4119 206.69 46.3423 207.908 46.2051L207.773 45.0127ZM204.437 45.2119V44.0119C202.797 44.0119 201.229 43.8014 199.728 43.3835L199.406 44.5396L199.084 45.6956C200.804 46.1742 202.589 46.4119 204.437 46.4119V45.2119ZM199.406 44.5396L199.731 43.3844C198.262 42.9711 196.972 42.3569 195.849 41.5486L195.148 42.5225L194.447 43.4963C195.814 44.481 197.363 45.2115 199.081 45.6947L199.406 44.5396ZM195.148 42.5225L195.855 41.5531C194.771 40.7621 193.91 39.7773 193.264 38.5878L192.209 39.1606L191.155 39.7334C191.97 41.2334 193.067 42.4898 194.441 43.4918L195.148 42.5225ZM192.209 39.1606L193.264 38.5878C192.644 37.4469 192.314 36.0814 192.314 34.4541H191.114H189.914C189.914 36.4127 190.314 38.1849 191.155 39.7334L192.209 39.1606ZM191.114 34.4541H192.314C192.314 33.4992 192.44 32.5501 192.696 31.6041L191.537 31.2915L190.379 30.9789C190.069 32.1247 189.914 33.284 189.914 34.4541H191.114ZM191.537 31.2915L192.691 31.6212C192.954 30.7 193.365 29.8166 193.93 28.9689L192.932 28.3032L191.933 27.6376C191.237 28.6824 190.718 29.7912 190.383 30.9618L191.537 31.2915ZM192.932 28.3032L193.927 28.9728C194.5 28.1216 195.244 27.3208 196.173 26.5742L195.422 25.6387L194.67 24.7031C193.574 25.5835 192.658 26.5591 191.936 27.6336L192.932 28.3032ZM195.422 25.6387L196.183 26.5667C197.091 25.8223 198.206 25.1647 199.546 24.604L199.083 23.4971L198.619 22.3901C197.103 23.0248 195.778 23.7948 194.661 24.7106L195.422 25.6387ZM199.083 23.4971L199.541 24.6059C200.89 24.0478 202.464 23.6042 204.272 23.2842L204.063 22.1025L203.854 20.9209C201.91 21.2649 200.164 21.7511 198.624 22.3883L199.083 23.4971ZM204.063 22.1025L204.28 23.2827C206.086 22.9501 208.161 22.7796 210.513 22.7796V21.5796V20.3796C208.05 20.3796 205.825 20.5578 203.846 20.9224L204.063 22.1025ZM210.513 21.5796V22.7796C212.21 22.7796 213.916 22.8766 215.632 23.0708L215.767 21.8784L215.902 20.686C214.098 20.4818 212.302 20.3796 210.513 20.3796V21.5796ZM215.767 21.8784L215.643 23.072C217.364 23.2505 219.032 23.5099 220.65 23.8497L220.897 22.6753L221.144 21.5009C219.441 21.1434 217.69 20.8715 215.891 20.6848L215.767 21.8784ZM220.897 22.6753L220.653 23.8502C222.29 24.1906 223.859 24.6032 225.36 25.0874L225.728 23.9453L226.096 22.8033C224.51 22.2914 222.858 21.8573 221.141 21.5004L220.897 22.6753ZM225.728 23.9453L225.371 25.0909C226.874 25.5595 228.264 26.0824 229.544 26.6583L230.036 25.564L230.529 24.4697C229.152 23.8502 227.67 23.294 226.085 22.7997L225.728 23.9453ZM230.036 25.564L228.982 24.9914L225.52 31.3664L226.575 31.939L227.629 32.5116L231.091 26.1366L230.036 25.564ZM226.575 31.939L227.057 30.8403C225.918 30.3398 224.699 29.885 223.4 29.4748L223.039 30.6191L222.677 31.7634C223.902 32.1502 225.04 32.5752 226.092 33.0376L226.575 31.939ZM223.039 30.6191L223.414 29.4792C222.11 29.0504 220.75 28.6827 219.333 28.3756L219.079 29.5483L218.825 30.7211C220.164 31.0116 221.444 31.3578 222.664 31.7591L223.039 30.6191ZM219.079 29.5483L219.333 28.3756C217.914 28.0677 216.446 27.8289 214.93 27.6586L214.796 28.8511L214.662 30.0436C216.101 30.2053 217.489 30.4313 218.825 30.7211L219.079 29.5483ZM214.796 28.8511L214.945 27.6603C213.433 27.4713 211.889 27.3771 210.313 27.3771V28.5771V29.7771C211.793 29.7771 213.237 29.8656 214.647 30.0418L214.796 28.8511ZM210.313 28.5771V27.3771C208.09 27.3771 206.201 27.5375 204.673 27.8792L204.935 29.0503L205.196 30.2214C206.49 29.9322 208.187 29.7771 210.313 29.7771V28.5771ZM204.935 29.0503L204.67 27.8799C203.204 28.2113 201.958 28.6546 200.98 29.2415L201.598 30.2705L202.215 31.2995C202.897 30.8903 203.876 30.5201 205.199 30.2207L204.935 29.0503ZM201.598 30.2705L200.996 29.2325C200.043 29.785 199.268 30.4747 198.799 31.3434L199.854 31.9141L200.91 32.4847C201.105 32.1249 201.492 31.7189 202.2 31.3085L201.598 30.2705ZM199.854 31.9141L198.793 31.354C198.399 32.1014 198.181 32.8899 198.181 33.707H199.381H200.581C200.581 33.3289 200.679 32.922 200.916 32.4742L199.854 31.9141ZM199.381 33.707H198.181C198.181 35.3021 198.93 36.6027 200.253 37.5473L200.95 36.5708L201.648 35.5943C200.878 35.0447 200.581 34.4362 200.581 33.707H199.381ZM200.95 36.5708L200.263 37.5546C201.606 38.4925 203.494 38.8665 205.731 38.8665V37.6665V36.4665C203.685 36.4665 202.386 36.1101 201.637 35.587L200.95 36.5708ZM205.731 37.6665V38.8665C206.646 38.8665 207.677 38.805 208.82 38.6857L208.695 37.4922L208.57 36.2987C207.488 36.4118 206.543 36.4665 205.731 36.4665V37.6665ZM208.695 37.4922L208.835 38.684C209.966 38.551 211.146 38.4097 212.376 38.2601L212.231 37.0688L212.086 35.8776C210.859 36.0269 209.682 36.1678 208.555 36.3004L208.695 37.4922ZM212.231 37.0688L212.374 38.2603C213.607 38.1123 214.858 37.9807 216.125 37.8655L216.016 36.6704L215.907 35.4753C214.618 35.5926 213.345 35.7266 212.088 35.8774L212.231 37.0688ZM216.016 36.6704L216.139 37.8641C217.396 37.7352 218.608 37.6712 219.776 37.6712V36.4712V35.2712C218.521 35.2712 217.226 35.34 215.894 35.4767L216.016 36.6704ZM219.776 36.4712V37.6712C221.98 37.6712 223.889 37.9191 225.516 38.3949L225.853 37.2432L226.189 36.0914C224.297 35.538 222.154 35.2712 219.776 35.2712V36.4712ZM225.853 37.2432L225.519 38.3958C227.173 38.875 228.508 39.549 229.557 40.394L230.31 39.4595L231.063 38.525C229.721 37.4441 228.085 36.6406 226.186 36.0906L225.853 37.2432ZM230.31 39.4595L229.565 40.4003C230.613 41.2301 231.397 42.2317 231.931 43.4144L233.024 42.9209L234.118 42.4274C233.423 40.8874 232.397 39.5814 231.055 38.5186L230.31 39.4595ZM233.024 42.9209L231.933 43.4195C232.467 44.588 232.746 45.9253 232.746 47.4531H233.946H235.146C235.146 45.6274 234.811 43.9433 234.116 42.4223L233.024 42.9209ZM233.946 47.4531H232.746C232.746 49.4996 232.271 51.2846 231.345 52.8415L232.377 53.4546L233.409 54.0677C234.575 52.1051 235.146 49.889 235.146 47.4531H233.946ZM232.377 53.4546L231.344 52.8444C230.423 54.4035 229.089 55.7487 227.305 56.8716L227.944 57.8872L228.583 58.9028C230.651 57.6019 232.272 55.992 233.41 54.0647L232.377 53.4546ZM227.944 57.8872L227.308 56.8701C225.533 57.9809 223.355 58.8503 220.749 59.4578L221.021 60.6265L221.294 61.7951C224.1 61.141 226.537 60.1841 228.581 58.9043L227.944 57.8872ZM221.021 60.6265L220.756 59.4562C218.152 60.0473 215.23 60.3479 211.982 60.3479V61.5479V62.7479C215.375 62.7479 218.479 62.4342 221.287 61.7967L221.021 60.6265ZM211.982 61.5479V60.3479C209.842 60.3479 207.754 60.2101 205.718 59.9353L205.557 61.1245L205.397 62.3137C207.544 62.6034 209.739 62.7479 211.982 62.7479V61.5479ZM205.557 61.1245L205.708 59.9341C203.664 59.6745 201.705 59.3018 199.831 58.8172L199.531 59.979L199.23 61.1408C201.208 61.6523 203.267 62.0433 205.406 62.315L205.557 61.1245ZM199.531 59.979L199.843 58.8204C197.977 58.3173 196.195 57.7259 194.498 57.047L194.052 58.1611L193.607 59.2753C195.396 59.9909 197.266 60.6114 199.218 61.1376L199.531 59.979ZM194.052 58.1611L194.511 57.0522C192.827 56.3561 191.272 55.598 189.843 54.7791L189.246 55.8203L188.649 56.8615C190.176 57.736 191.824 58.5385 193.594 59.2701L194.052 58.1611ZM189.246 55.8203L190.249 56.4796L194.457 50.0797L193.455 49.4204L192.452 48.7611L188.243 55.161L189.246 55.8203Z" fill="#FF7979" mask="url(#path-1-outside-1_149_18)"/>
</g>
<defs>
<filter id="filter0_d_149_18" x="63.7449" y="16.8796" width="174.901" height="49.3684" filterUnits="userSpaceOnUse" color-interpolation-filters="sRGB">
<feFlood flood-opacity="0" result="BackgroundImageFix"/>
<feColorMatrix in="SourceAlpha" type="matrix" values="0 0 0 0 0 0 0 0 0 0 0 0 0 0 0 0 0 0 127 0" result="hardAlpha"/>
<feOffset/>
<feGaussianBlur stdDeviation="1.75"/>
<feComposite in2="hardAlpha" operator="out"/>
<feColorMatrix type="matrix" values="0 0 0 0 1 0 0 0 0 0.822115 0 0 0 0 0.822115 0 0 0 0.63 0"/>
<feBlend mode="normal" in2="BackgroundImageFix" result="effect1_dropShadow_149_18"/>
<feBlend mode="normal" in="SourceGraphic" in2="effect1_dropShadow_149_18" result="shape"/>
</filter>
</defs>
</svg>
