<svg width="300" height="80" viewBox="0 0 300 80" fill="none" xmlns="http://www.w3.org/2000/svg">
<g filter="url(#filter0_d_149_18)">
<path d="M84.801 62V22.096H91.529L105.159 53.88H105.449L119.021 22.096H125.749V62H120.877V30.1H120.645L107.015 62H103.361L89.731 30.1H89.499V62H84.801ZM137.363 62V22.096H142.351V62H137.363ZM167.241 62.464C165.811 62.464 164.245 62.4253 162.543 62.348C160.842 62.2707 159.179 62.174 157.555 62.058C155.97 61.942 154.52 61.8067 153.205 61.652V57.418C154.597 57.534 156.047 57.65 157.555 57.766C159.102 57.882 160.591 57.9787 162.021 58.056C163.491 58.1333 164.728 58.172 165.733 58.172C167.783 58.172 169.426 58.0947 170.663 57.94C171.901 57.7467 172.945 57.3987 173.795 56.896C174.375 56.548 174.801 56.084 175.071 55.504C175.342 54.924 175.497 54.2473 175.535 53.474C175.613 52.7007 175.651 51.8693 175.651 50.98C175.651 49.6653 175.613 48.602 175.535 47.79C175.458 46.978 175.245 46.3593 174.897 45.934C174.588 45.47 174.066 45.1413 173.331 44.948C172.597 44.716 171.611 44.542 170.373 44.426L160.455 43.324C158.599 43.092 157.111 42.7053 155.989 42.164C154.868 41.584 154.017 40.8687 153.437 40.018C152.896 39.1287 152.529 38.0847 152.335 36.886C152.142 35.6487 152.045 34.276 152.045 32.768C152.045 30.332 152.355 28.3793 152.973 26.91C153.631 25.4407 154.578 24.3193 155.815 23.546C157.053 22.7727 158.541 22.27 160.281 22.038C162.06 21.7673 164.09 21.632 166.371 21.632C167.841 21.632 169.349 21.6707 170.895 21.748C172.442 21.8253 173.892 21.9413 175.245 22.096C176.637 22.212 177.778 22.3667 178.667 22.56V26.678C177.662 26.5233 176.502 26.388 175.187 26.272C173.873 26.156 172.519 26.0787 171.127 26.04C169.774 25.9627 168.479 25.924 167.241 25.924C165.115 25.924 163.394 26.0207 162.079 26.214C160.765 26.4073 159.721 26.7553 158.947 27.258C158.097 27.7607 157.555 28.476 157.323 29.404C157.13 30.2933 157.033 31.376 157.033 32.652C157.033 34.16 157.13 35.3393 157.323 36.19C157.555 37.002 158.019 37.582 158.715 37.93C159.45 38.2393 160.533 38.4713 161.963 38.626L171.649 39.728C173.041 39.844 174.259 40.0373 175.303 40.308C176.386 40.54 177.314 40.946 178.087 41.526C178.861 42.106 179.441 42.9373 179.827 44.02C180.059 44.5613 180.233 45.1607 180.349 45.818C180.465 46.4753 180.543 47.21 180.581 48.022C180.659 48.7953 180.697 49.6653 180.697 50.632C180.697 52.836 180.485 54.6727 180.059 56.142C179.634 57.5727 179.035 58.7133 178.261 59.564C177.488 60.4147 176.541 61.0527 175.419 61.478C174.298 61.9033 173.041 62.174 171.649 62.29C170.296 62.406 168.827 62.464 167.241 62.464ZM203.661 62.464C202.23 62.464 200.664 62.4253 198.963 62.348C197.262 62.2707 195.599 62.174 193.975 62.058C192.39 61.942 190.94 61.8067 189.625 61.652V57.418C191.017 57.534 192.467 57.65 193.975 57.766C195.522 57.882 197.01 57.9787 198.441 58.056C199.91 58.1333 201.148 58.172 202.153 58.172C204.202 58.172 205.846 58.0947 207.083 57.94C208.32 57.7467 209.364 57.3987 210.215 56.896C210.795 56.548 211.22 56.084 211.491 55.504C211.762 54.924 211.916 54.2473 211.955 53.474C212.032 52.7007 212.071 51.8693 212.071 50.98C212.071 49.6653 212.032 48.602 211.955 47.79C211.878 46.978 211.665 46.3593 211.317 45.934C211.008 45.47 210.486 45.1413 209.751 44.948C209.016 44.716 208.03 44.542 206.793 44.426L196.875 43.324C195.019 43.092 193.53 42.7053 192.409 42.164C191.288 41.584 190.437 40.8687 189.857 40.018C189.316 39.1287 188.948 38.0847 188.755 36.886C188.562 35.6487 188.465 34.276 188.465 32.768C188.465 30.332 188.774 28.3793 189.393 26.91C190.05 25.4407 190.998 24.3193 192.235 23.546C193.472 22.7727 194.961 22.27 196.701 22.038C198.48 21.7673 200.51 21.632 202.791 21.632C204.26 21.632 205.768 21.6707 207.315 21.748C208.862 21.8253 210.312 21.9413 211.665 22.096C213.057 22.212 214.198 22.3667 215.087 22.56V26.678C214.082 26.5233 212.922 26.388 211.607 26.272C210.292 26.156 208.939 26.0787 207.547 26.04C206.194 25.9627 204.898 25.924 203.661 25.924C201.534 25.924 199.814 26.0207 198.499 26.214C197.184 26.4073 196.14 26.7553 195.367 27.258C194.516 27.7607 193.975 28.476 193.743 29.404C193.55 30.2933 193.453 31.376 193.453 32.652C193.453 34.16 193.55 35.3393 193.743 36.19C193.975 37.002 194.439 37.582 195.135 37.93C195.87 38.2393 196.952 38.4713 198.383 38.626L208.069 39.728C209.461 39.844 210.679 40.0373 211.723 40.308C212.806 40.54 213.734 40.946 214.507 41.526C215.28 42.106 215.86 42.9373 216.247 44.02C216.479 44.5613 216.653 45.1607 216.769 45.818C216.885 46.4753 216.962 47.21 217.001 48.022C217.078 48.7953 217.117 49.6653 217.117 50.632C217.117 52.836 216.904 54.6727 216.479 56.142C216.054 57.5727 215.454 58.7133 214.681 59.564C213.908 60.4147 212.96 61.0527 211.839 61.478C210.718 61.9033 209.461 62.174 208.069 62.29C206.716 62.406 205.246 62.464 203.661 62.464Z" fill="#FF6969"/>
</g>
<defs>
<filter id="filter0_d_149_18" x="81.301" y="18.1318" width="139.316" height="47.832" filterUnits="userSpaceOnUse" color-interpolation-filters="sRGB">
<feFlood flood-opacity="0" result="BackgroundImageFix"/>
<feColorMatrix in="SourceAlpha" type="matrix" values="0 0 0 0 0 0 0 0 0 0 0 0 0 0 0 0 0 0 127 0" result="hardAlpha"/>
<feOffset/>
<feGaussianBlur stdDeviation="1.75"/>
<feComposite in2="hardAlpha" operator="out"/>
<feColorMatrix type="matrix" values="0 0 0 0 1 0 0 0 0 0.822115 0 0 0 0 0.822115 0 0 0 0.63 0"/>
<feBlend mode="normal" in2="BackgroundImageFix" result="effect1_dropShadow_149_18"/>
<feBlend mode="normal" in="SourceGraphic" in2="effect1_dropShadow_149_18" result="shape"/>
</filter>
</defs>
</svg>
