<svg width="300" height="80" viewBox="0 0 300 80" fill="none" xmlns="http://www.w3.org/2000/svg">
<g filter="url(#filter0_d_149_18)">
<path d="M89.9077 62V22.096H92.5757L109.628 58.926H109.918L127.028 22.096H129.638V62H127.55V26.156H127.318L110.672 62H108.816L92.1697 26.156H91.9377V62H89.9077ZM140.08 62V22.096H142.168V62H140.08ZM165.23 62.464C163.838 62.464 162.311 62.4253 160.648 62.348C159.024 62.3093 157.439 62.232 155.892 62.116C154.346 62 152.954 61.884 151.716 61.768V59.738C153.031 59.854 154.462 59.97 156.008 60.086C157.594 60.202 159.14 60.2987 160.648 60.376C162.195 60.4533 163.529 60.492 164.65 60.492C166.661 60.492 168.343 60.4147 169.696 60.26C171.05 60.1053 172.306 59.7187 173.466 59.1C174.24 58.6747 174.8 58.0753 175.148 57.302C175.535 56.5287 175.786 55.6393 175.902 54.634C176.018 53.59 176.076 52.5073 176.076 51.386C176.076 49.6073 176.018 48.196 175.902 47.152C175.825 46.108 175.554 45.3153 175.09 44.774C174.665 44.194 173.93 43.788 172.886 43.556C171.881 43.2853 170.47 43.0533 168.652 42.86L158.038 41.758C156.182 41.5647 154.732 41.2167 153.688 40.714C152.683 40.1727 151.948 39.496 151.484 38.684C151.059 37.872 150.788 36.9247 150.672 35.842C150.595 34.7207 150.556 33.4833 150.556 32.13C150.556 29.926 150.827 28.128 151.368 26.736C151.91 25.344 152.741 24.2807 153.862 23.546C154.984 22.8113 156.414 22.3087 158.154 22.038C159.894 21.7673 161.963 21.632 164.36 21.632C165.83 21.632 167.299 21.6707 168.768 21.748C170.276 21.7867 171.668 21.864 172.944 21.98C174.259 22.096 175.322 22.2313 176.134 22.386V24.3C175.052 24.1453 173.834 24.0293 172.48 23.952C171.127 23.836 169.754 23.7587 168.362 23.72C167.009 23.6427 165.733 23.604 164.534 23.604C162.137 23.604 160.165 23.7393 158.618 24.01C157.11 24.242 155.892 24.6867 154.964 25.344C153.959 26.0013 153.321 26.9293 153.05 28.128C152.78 29.288 152.644 30.6607 152.644 32.246C152.644 34.102 152.76 35.552 152.992 36.596C153.263 37.6013 153.804 38.336 154.616 38.8C155.467 39.2253 156.724 39.5347 158.386 39.728L168.478 40.772C170.18 40.9267 171.649 41.12 172.886 41.352C174.162 41.584 175.187 41.99 175.96 42.57C176.772 43.1113 177.352 43.9813 177.7 45.18C177.855 45.644 177.952 46.1853 177.99 46.804C178.068 47.384 178.106 48.0413 178.106 48.776C178.145 49.472 178.164 50.2453 178.164 51.096C178.164 53.2613 177.971 55.0593 177.584 56.49C177.198 57.882 176.618 58.984 175.844 59.796C175.11 60.608 174.201 61.2073 173.118 61.594C172.074 61.9807 170.895 62.2127 169.58 62.29C168.266 62.406 166.816 62.464 165.23 62.464ZM199.203 62.464C197.811 62.464 196.284 62.4253 194.621 62.348C192.997 62.3093 191.412 62.232 189.865 62.116C188.319 62 186.927 61.884 185.689 61.768V59.738C187.004 59.854 188.435 59.97 189.981 60.086C191.567 60.202 193.113 60.2987 194.621 60.376C196.168 60.4533 197.502 60.492 198.623 60.492C200.634 60.492 202.316 60.4147 203.669 60.26C205.023 60.1053 206.279 59.7187 207.439 59.1C208.213 58.6747 208.773 58.0753 209.121 57.302C209.508 56.5287 209.759 55.6393 209.875 54.634C209.991 53.59 210.049 52.5073 210.049 51.386C210.049 49.6073 209.991 48.196 209.875 47.152C209.798 46.108 209.527 45.3153 209.063 44.774C208.638 44.194 207.903 43.788 206.859 43.556C205.854 43.2853 204.443 43.0533 202.625 42.86L192.011 41.758C190.155 41.5647 188.705 41.2167 187.661 40.714C186.656 40.1727 185.921 39.496 185.457 38.684C185.032 37.872 184.761 36.9247 184.645 35.842C184.568 34.7207 184.529 33.4833 184.529 32.13C184.529 29.926 184.8 28.128 185.341 26.736C185.883 25.344 186.714 24.2807 187.835 23.546C188.957 22.8113 190.387 22.3087 192.127 22.038C193.867 21.7673 195.936 21.632 198.333 21.632C199.803 21.632 201.272 21.6707 202.741 21.748C204.249 21.7867 205.641 21.864 206.917 21.98C208.232 22.096 209.295 22.2313 210.107 22.386V24.3C209.025 24.1453 207.807 24.0293 206.453 23.952C205.1 23.836 203.727 23.7587 202.335 23.72C200.982 23.6427 199.706 23.604 198.507 23.604C196.11 23.604 194.138 23.7393 192.591 24.01C191.083 24.242 189.865 24.6867 188.937 25.344C187.932 26.0013 187.294 26.9293 187.023 28.128C186.753 29.288 186.617 30.6607 186.617 32.246C186.617 34.102 186.733 35.552 186.965 36.596C187.236 37.6013 187.777 38.336 188.589 38.8C189.44 39.2253 190.697 39.5347 192.359 39.728L202.451 40.772C204.153 40.9267 205.622 41.12 206.859 41.352C208.135 41.584 209.16 41.99 209.933 42.57C210.745 43.1113 211.325 43.9813 211.673 45.18C211.828 45.644 211.925 46.1853 211.963 46.804C212.041 47.384 212.079 48.0413 212.079 48.776C212.118 49.472 212.137 50.2453 212.137 51.096C212.137 53.2613 211.944 55.0593 211.557 56.49C211.171 57.882 210.591 58.984 209.817 59.796C209.083 60.608 208.174 61.2073 207.091 61.594C206.047 61.9807 204.868 62.2127 203.553 62.29C202.239 62.406 200.789 62.464 199.203 62.464Z" fill="#FF6969"/>
</g>
<defs>
<filter id="filter0_d_149_18" x="86.4077" y="18.1318" width="129.229" height="47.832" filterUnits="userSpaceOnUse" color-interpolation-filters="sRGB">
<feFlood flood-opacity="0" result="BackgroundImageFix"/>
<feColorMatrix in="SourceAlpha" type="matrix" values="0 0 0 0 0 0 0 0 0 0 0 0 0 0 0 0 0 0 127 0" result="hardAlpha"/>
<feOffset/>
<feGaussianBlur stdDeviation="1.75"/>
<feComposite in2="hardAlpha" operator="out"/>
<feColorMatrix type="matrix" values="0 0 0 0 1 0 0 0 0 0.822115 0 0 0 0 0.822115 0 0 0 0.63 0"/>
<feBlend mode="normal" in2="BackgroundImageFix" result="effect1_dropShadow_149_18"/>
<feBlend mode="normal" in="SourceGraphic" in2="effect1_dropShadow_149_18" result="shape"/>
</filter>
</defs>
</svg>
