<svg width="300" height="80" viewBox="0 0 300 80" fill="none" xmlns="http://www.w3.org/2000/svg">
<g filter="url(#filter0_d_149_14)">
<path d="M95.0921 62.464C91.9988 62.464 89.4275 62.3093 87.3781 62C85.3675 61.652 83.7628 61.0527 82.5641 60.202C81.4041 59.3513 80.5535 58.172 80.0121 56.664C79.4708 55.1173 79.1228 53.1647 78.9681 50.806C78.8135 48.4087 78.7361 45.4893 78.7361 42.048C78.7361 38.6067 78.8135 35.7067 78.9681 33.348C79.1228 30.9507 79.4708 28.998 80.0121 27.49C80.5535 25.9433 81.4041 24.7447 82.5641 23.894C83.7628 23.0433 85.3675 22.4633 87.3781 22.154C89.4275 21.806 91.9988 21.632 95.0921 21.632C98.1855 21.632 100.737 21.806 102.748 22.154C104.797 22.4633 106.402 23.0433 107.562 23.894C108.761 24.7447 109.631 25.9433 110.172 27.49C110.713 28.998 111.061 30.9507 111.216 33.348C111.371 35.7067 111.448 38.6067 111.448 42.048C111.448 45.4893 111.371 48.4087 111.216 50.806C111.061 53.1647 110.713 55.1173 110.172 56.664C109.631 58.172 108.761 59.3513 107.562 60.202C106.402 61.0527 104.797 61.652 102.748 62C100.737 62.3093 98.1855 62.464 95.0921 62.464ZM95.0921 58.172C97.2188 58.172 98.9781 58.114 100.37 57.998C101.762 57.8433 102.864 57.5147 103.676 57.012C104.488 56.5093 105.107 55.6973 105.532 54.576C105.957 53.416 106.209 51.8307 106.286 49.82C106.402 47.8093 106.46 45.2187 106.46 42.048C106.46 38.8773 106.402 36.2867 106.286 34.276C106.209 32.2653 105.957 30.6993 105.532 29.578C105.107 28.418 104.488 27.5867 103.676 27.084C102.864 26.5813 101.762 26.272 100.37 26.156C98.9781 26.0013 97.2188 25.924 95.0921 25.924C92.9655 25.924 91.2061 26.0013 89.8141 26.156C88.4608 26.272 87.3588 26.5813 86.5081 27.084C85.6961 27.5867 85.0775 28.418 84.6521 29.578C84.2655 30.6993 84.0141 32.2653 83.8981 34.276C83.7821 36.2867 83.7241 38.8773 83.7241 42.048C83.7241 45.2187 83.7821 47.8093 83.8981 49.82C84.0141 51.8307 84.2655 53.416 84.6521 54.576C85.0775 55.6973 85.6961 56.5093 86.5081 57.012C87.3588 57.5147 88.4608 57.8433 89.8141 57.998C91.2061 58.114 92.9655 58.172 95.0921 58.172ZM121.702 62V22.096H126.69V39.554H133.824L147.512 22.096H153.022L137.884 41.468L153.196 62H147.396L133.824 43.904H126.69V62H121.702ZM156.382 62L171.462 22.096H177.726L192.748 62H187.586L183.468 51.096H165.546L161.428 62H156.382ZM167.054 46.746H181.96L174.652 27.2H174.362L167.054 46.746ZM205.466 62V46.746L191.024 22.096H196.36L207.902 41.758H208.308L219.734 22.096H224.954L210.454 46.746V62H205.466Z" fill="#FFE4C9"/>
</g>
<defs>
<filter id="filter0_d_149_14" x="75.2361" y="18.1318" width="153.218" height="47.832" filterUnits="userSpaceOnUse" color-interpolation-filters="sRGB">
<feFlood flood-opacity="0" result="BackgroundImageFix"/>
<feColorMatrix in="SourceAlpha" type="matrix" values="0 0 0 0 0 0 0 0 0 0 0 0 0 0 0 0 0 0 127 0" result="hardAlpha"/>
<feOffset/>
<feGaussianBlur stdDeviation="1.75"/>
<feComposite in2="hardAlpha" operator="out"/>
<feColorMatrix type="matrix" values="0 0 0 0 0.979247 0 0 0 0 1 0 0 0 0 0.822115 0 0 0 0.6 0"/>
<feBlend mode="normal" in2="BackgroundImageFix" result="effect1_dropShadow_149_14"/>
<feBlend mode="normal" in="SourceGraphic" in2="effect1_dropShadow_149_14" result="shape"/>
</filter>
</defs>
</svg>
