<svg width="300" height="80" viewBox="0 0 300 80" fill="none" xmlns="http://www.w3.org/2000/svg">
<g filter="url(#filter0_d_149_14)">
<path d="M91.2297 62V22.096H96.3337L117.04 52.662H117.272V22.096H122.086V62H117.272L96.2757 30.854H96.0437V62H91.2297ZM144.906 62.464C142.508 62.464 140.498 62.3093 138.874 62C137.288 61.6907 136.012 61.188 135.046 60.492C134.079 59.7573 133.344 58.81 132.842 57.65C132.339 56.4513 132.01 55.0013 131.856 53.3C131.701 51.5987 131.624 49.588 131.624 47.268C131.624 44.5227 131.74 42.1833 131.972 40.25C132.204 38.278 132.726 36.6927 133.538 35.494C134.388 34.2567 135.703 33.3673 137.482 32.826C139.26 32.246 141.658 31.956 144.674 31.956C146.955 31.956 148.811 32.13 150.242 32.478C151.711 32.826 152.871 33.3673 153.722 34.102C154.572 34.8367 155.191 35.8227 155.578 37.06C156.003 38.2587 156.274 39.7087 156.39 41.41C156.506 43.0727 156.564 45.006 156.564 47.21V48.776H136.322C136.322 50.7867 136.418 52.43 136.612 53.706C136.805 54.982 137.192 55.968 137.772 56.664C138.39 57.36 139.338 57.8433 140.614 58.114C141.928 58.3847 143.707 58.52 145.95 58.52C146.878 58.52 147.902 58.5007 149.024 58.462C150.145 58.3847 151.266 58.288 152.388 58.172C153.509 58.056 154.514 57.94 155.404 57.824V61.652C154.592 61.8067 153.586 61.942 152.388 62.058C151.228 62.174 149.99 62.2707 148.676 62.348C147.4 62.4253 146.143 62.464 144.906 62.464ZM151.982 46.398V44.832C151.982 42.8213 151.866 41.236 151.634 40.076C151.402 38.8773 150.996 37.988 150.416 37.408C149.874 36.7893 149.12 36.3833 148.154 36.19C147.187 35.9967 145.988 35.9 144.558 35.9C142.702 35.9 141.232 36.0353 140.15 36.306C139.067 36.538 138.255 36.9827 137.714 37.64C137.172 38.2973 136.805 39.2447 136.612 40.482C136.418 41.7193 136.322 43.3627 136.322 45.412H153.084L151.982 46.398ZM173.186 62.464C171.021 62.464 169.203 62.2127 167.734 61.71C166.303 61.2073 165.221 60.3373 164.486 59.1C163.79 57.8627 163.442 56.1227 163.442 53.88C163.442 51.6373 163.693 49.878 164.196 48.602C164.737 47.2873 165.665 46.3593 166.98 45.818C168.295 45.2767 170.131 45.006 172.49 45.006C172.877 45.006 173.476 45.0253 174.288 45.064C175.139 45.064 176.105 45.0833 177.188 45.122C178.271 45.122 179.353 45.1413 180.436 45.18C181.557 45.18 182.582 45.1993 183.51 45.238V43.382C183.51 41.642 183.394 40.2887 183.162 39.322C182.969 38.3167 182.543 37.582 181.886 37.118C181.229 36.6153 180.301 36.306 179.102 36.19C177.942 36.0353 176.395 35.958 174.462 35.958C173.611 35.958 172.606 35.9967 171.446 36.074C170.286 36.1127 169.145 36.19 168.024 36.306C166.941 36.3833 166.071 36.48 165.414 36.596V32.768C166.883 32.4973 168.527 32.304 170.344 32.188C172.2 32.0333 174.114 31.956 176.086 31.956C178.174 31.956 179.933 32.0913 181.364 32.362C182.833 32.594 184.013 32.9807 184.902 33.522C185.83 34.0633 186.526 34.7787 186.99 35.668C187.454 36.5573 187.763 37.64 187.918 38.916C188.111 40.192 188.208 41.6807 188.208 43.382V62H183.974L183.8 57.824H183.452C182.833 59.1773 181.944 60.202 180.784 60.898C179.663 61.5553 178.425 61.9807 177.072 62.174C175.719 62.3673 174.423 62.464 173.186 62.464ZM174.926 58.578C176.047 58.578 177.091 58.52 178.058 58.404C179.025 58.2493 179.875 57.9787 180.61 57.592C181.345 57.2053 181.925 56.6253 182.35 55.852C182.775 55.04 183.065 54.17 183.22 53.242C183.413 52.2753 183.51 51.154 183.51 49.878V48.37H173.65C172.142 48.37 170.982 48.486 170.17 48.718C169.358 48.95 168.797 49.4333 168.488 50.168C168.217 50.9027 168.082 52.0047 168.082 53.474C168.082 54.9047 168.256 55.9873 168.604 56.722C168.952 57.4567 169.609 57.9593 170.576 58.23C171.581 58.462 173.031 58.578 174.926 58.578ZM198.261 62V32.42H202.495L202.727 38.104H203.075C203.578 36.4413 204.293 35.1653 205.221 34.276C206.149 33.3867 207.271 32.7873 208.585 32.478C209.9 32.13 211.35 31.956 212.935 31.956V36.596C210.267 36.596 208.218 37.0213 206.787 37.872C205.357 38.7227 204.371 40.0373 203.829 41.816C203.288 43.5947 203.017 45.8373 203.017 48.544V62H198.261Z" fill="#FFE4C9"/>
</g>
<defs>
<filter id="filter0_d_149_14" x="87.7297" y="18.5962" width="128.706" height="47.3677" filterUnits="userSpaceOnUse" color-interpolation-filters="sRGB">
<feFlood flood-opacity="0" result="BackgroundImageFix"/>
<feColorMatrix in="SourceAlpha" type="matrix" values="0 0 0 0 0 0 0 0 0 0 0 0 0 0 0 0 0 0 127 0" result="hardAlpha"/>
<feOffset/>
<feGaussianBlur stdDeviation="1.75"/>
<feComposite in2="hardAlpha" operator="out"/>
<feColorMatrix type="matrix" values="0 0 0 0 0.979247 0 0 0 0 1 0 0 0 0 0.822115 0 0 0 0.6 0"/>
<feBlend mode="normal" in2="BackgroundImageFix" result="effect1_dropShadow_149_14"/>
<feBlend mode="normal" in="SourceGraphic" in2="effect1_dropShadow_149_14" result="shape"/>
</filter>
</defs>
</svg>
