<svg width="300" height="80" viewBox="0 0 300 80" fill="none" xmlns="http://www.w3.org/2000/svg">
<g filter="url(#filter0_d_149_14)">
<mask id="path-1-outside-1_149_14" maskUnits="userSpaceOnUse" x="73" y="20" width="159" height="43" fill="black">
<rect fill="white" x="73" y="20" width="159" height="43"/>
<path d="M74.6704 22.0776H82.5645L106.819 34.7778V22.0776H114.713V61H106.819V43.145L82.5645 30.5195V61H74.6704V22.0776ZM123.404 46.208C123.404 44.2158 123.811 42.3149 124.625 40.5054C125.438 38.6792 126.608 37.0688 128.136 35.6743C129.663 34.2798 131.531 33.1675 133.739 32.3374C135.963 31.5073 138.487 31.0923 141.309 31.0923C144.115 31.0923 146.638 31.5156 148.879 32.3623C151.137 33.1924 153.046 34.3379 154.607 35.7988C156.184 37.2598 157.388 38.978 158.218 40.9536C159.064 42.9292 159.488 45.0459 159.488 47.3037C159.488 47.5859 159.479 47.8931 159.463 48.2251C159.463 48.5405 159.446 48.8311 159.413 49.0967H131.622C131.938 49.9766 132.444 50.7817 133.141 51.5122C133.855 52.2427 134.743 52.8735 135.806 53.4048C136.868 53.936 138.097 54.3511 139.491 54.6499C140.886 54.9321 142.43 55.0732 144.123 55.0732C145.816 55.0732 147.501 54.8989 149.178 54.5503C150.855 54.1851 152.457 53.7285 153.984 53.1807L156.475 58.8086C155.512 59.2568 154.532 59.6553 153.536 60.0039C152.557 60.3359 151.527 60.6182 150.448 60.8506C149.386 61.0664 148.265 61.2324 147.086 61.3486C145.924 61.4648 144.696 61.5229 143.401 61.5229C140.097 61.5229 137.2 61.1245 134.71 60.3276C132.22 59.5308 130.136 58.4434 128.459 57.0654C126.783 55.6875 125.521 54.0688 124.674 52.2095C123.828 50.3501 123.404 48.3496 123.404 46.208ZM151.668 43.3442C151.403 42.5308 150.988 41.7754 150.423 41.0781C149.875 40.3643 149.187 39.75 148.356 39.2354C147.526 38.7041 146.563 38.2891 145.468 37.9902C144.372 37.6914 143.168 37.542 141.857 37.542C140.462 37.542 139.192 37.6997 138.047 38.0151C136.901 38.3306 135.897 38.7539 135.034 39.2852C134.17 39.8164 133.448 40.4307 132.867 41.1279C132.303 41.8252 131.888 42.564 131.622 43.3442H151.668ZM166.037 51.7363C166.037 50.3252 166.344 49.0386 166.958 47.8765C167.573 46.7144 168.494 45.7183 169.723 44.8882C170.951 44.0415 172.479 43.394 174.305 42.9458C176.147 42.481 178.289 42.2485 180.729 42.2485C182.539 42.2485 184.44 42.3813 186.432 42.647C188.441 42.9126 190.508 43.3193 192.633 43.8672C192.55 42.9375 192.268 42.0825 191.786 41.3022C191.305 40.5054 190.632 39.8247 189.769 39.2603C188.922 38.6792 187.893 38.231 186.681 37.9155C185.486 37.6001 184.125 37.4424 182.597 37.4424C181.767 37.4424 180.854 37.4922 179.858 37.5918C178.862 37.6914 177.833 37.8408 176.77 38.04C175.708 38.2393 174.653 38.4883 173.607 38.7871C172.578 39.0859 171.615 39.4429 170.719 39.8579L168.478 33.8066C169.59 33.4082 170.777 33.043 172.039 32.7109C173.317 32.3789 174.62 32.0967 175.948 31.8643C177.276 31.6152 178.604 31.4243 179.933 31.2915C181.261 31.1587 182.547 31.0923 183.792 31.0923C189.288 31.0923 193.372 32.4951 196.044 35.3008C198.717 38.1064 200.054 42.4062 200.054 48.2002V61H192.683V58.2358C191.919 58.6841 191.081 59.1074 190.167 59.5059C189.271 59.9043 188.292 60.2529 187.229 60.5518C186.167 60.8506 185.021 61.083 183.792 61.249C182.581 61.4316 181.294 61.5229 179.933 61.5229C177.642 61.5229 175.625 61.2739 173.881 60.7759C172.155 60.2778 170.71 59.5889 169.548 58.709C168.386 57.8291 167.506 56.7998 166.909 55.6211C166.328 54.4258 166.037 53.1309 166.037 51.7363ZM173.807 51.4873C173.807 51.9688 173.931 52.4336 174.18 52.8818C174.429 53.3135 174.828 53.7036 175.375 54.0522C175.923 54.3843 176.621 54.6582 177.467 54.874C178.331 55.0732 179.368 55.1729 180.58 55.1729C181.875 55.1729 183.128 55.0566 184.34 54.8242C185.552 54.5918 186.681 54.2847 187.727 53.9028C188.773 53.521 189.719 53.0811 190.566 52.583C191.413 52.085 192.118 51.5703 192.683 51.0391V49.7441C191.554 49.4287 190.433 49.1631 189.321 48.9473C188.225 48.7314 187.171 48.5654 186.158 48.4492C185.162 48.3164 184.216 48.2251 183.319 48.1753C182.439 48.1255 181.667 48.1006 181.003 48.1006C179.625 48.1006 178.48 48.1919 177.567 48.3745C176.654 48.5571 175.915 48.8062 175.351 49.1216C174.786 49.4204 174.388 49.7773 174.155 50.1924C173.923 50.6074 173.807 51.0391 173.807 51.4873ZM209.815 31.6152H217.187V35.8486C218.813 34.6367 220.532 33.5908 222.341 32.7109C224.151 31.8311 225.952 31.1587 227.745 30.6938L229.912 37.4424C227.073 37.7246 224.574 38.3638 222.416 39.3599C220.274 40.3394 218.531 41.7256 217.187 43.5186V61H209.815V31.6152Z"/>
</mask>
<path d="M74.6704 22.0776H82.5645L106.819 34.7778V22.0776H114.713V61H106.819V43.145L82.5645 30.5195V61H74.6704V22.0776ZM123.404 46.208C123.404 44.2158 123.811 42.3149 124.625 40.5054C125.438 38.6792 126.608 37.0688 128.136 35.6743C129.663 34.2798 131.531 33.1675 133.739 32.3374C135.963 31.5073 138.487 31.0923 141.309 31.0923C144.115 31.0923 146.638 31.5156 148.879 32.3623C151.137 33.1924 153.046 34.3379 154.607 35.7988C156.184 37.2598 157.388 38.978 158.218 40.9536C159.064 42.9292 159.488 45.0459 159.488 47.3037C159.488 47.5859 159.479 47.8931 159.463 48.2251C159.463 48.5405 159.446 48.8311 159.413 49.0967H131.622C131.938 49.9766 132.444 50.7817 133.141 51.5122C133.855 52.2427 134.743 52.8735 135.806 53.4048C136.868 53.936 138.097 54.3511 139.491 54.6499C140.886 54.9321 142.43 55.0732 144.123 55.0732C145.816 55.0732 147.501 54.8989 149.178 54.5503C150.855 54.1851 152.457 53.7285 153.984 53.1807L156.475 58.8086C155.512 59.2568 154.532 59.6553 153.536 60.0039C152.557 60.3359 151.527 60.6182 150.448 60.8506C149.386 61.0664 148.265 61.2324 147.086 61.3486C145.924 61.4648 144.696 61.5229 143.401 61.5229C140.097 61.5229 137.2 61.1245 134.71 60.3276C132.22 59.5308 130.136 58.4434 128.459 57.0654C126.783 55.6875 125.521 54.0688 124.674 52.2095C123.828 50.3501 123.404 48.3496 123.404 46.208ZM151.668 43.3442C151.403 42.5308 150.988 41.7754 150.423 41.0781C149.875 40.3643 149.187 39.75 148.356 39.2354C147.526 38.7041 146.563 38.2891 145.468 37.9902C144.372 37.6914 143.168 37.542 141.857 37.542C140.462 37.542 139.192 37.6997 138.047 38.0151C136.901 38.3306 135.897 38.7539 135.034 39.2852C134.17 39.8164 133.448 40.4307 132.867 41.1279C132.303 41.8252 131.888 42.564 131.622 43.3442H151.668ZM166.037 51.7363C166.037 50.3252 166.344 49.0386 166.958 47.8765C167.573 46.7144 168.494 45.7183 169.723 44.8882C170.951 44.0415 172.479 43.394 174.305 42.9458C176.147 42.481 178.289 42.2485 180.729 42.2485C182.539 42.2485 184.44 42.3813 186.432 42.647C188.441 42.9126 190.508 43.3193 192.633 43.8672C192.55 42.9375 192.268 42.0825 191.786 41.3022C191.305 40.5054 190.632 39.8247 189.769 39.2603C188.922 38.6792 187.893 38.231 186.681 37.9155C185.486 37.6001 184.125 37.4424 182.597 37.4424C181.767 37.4424 180.854 37.4922 179.858 37.5918C178.862 37.6914 177.833 37.8408 176.77 38.04C175.708 38.2393 174.653 38.4883 173.607 38.7871C172.578 39.0859 171.615 39.4429 170.719 39.8579L168.478 33.8066C169.59 33.4082 170.777 33.043 172.039 32.7109C173.317 32.3789 174.62 32.0967 175.948 31.8643C177.276 31.6152 178.604 31.4243 179.933 31.2915C181.261 31.1587 182.547 31.0923 183.792 31.0923C189.288 31.0923 193.372 32.4951 196.044 35.3008C198.717 38.1064 200.054 42.4062 200.054 48.2002V61H192.683V58.2358C191.919 58.6841 191.081 59.1074 190.167 59.5059C189.271 59.9043 188.292 60.2529 187.229 60.5518C186.167 60.8506 185.021 61.083 183.792 61.249C182.581 61.4316 181.294 61.5229 179.933 61.5229C177.642 61.5229 175.625 61.2739 173.881 60.7759C172.155 60.2778 170.71 59.5889 169.548 58.709C168.386 57.8291 167.506 56.7998 166.909 55.6211C166.328 54.4258 166.037 53.1309 166.037 51.7363ZM173.807 51.4873C173.807 51.9688 173.931 52.4336 174.18 52.8818C174.429 53.3135 174.828 53.7036 175.375 54.0522C175.923 54.3843 176.621 54.6582 177.467 54.874C178.331 55.0732 179.368 55.1729 180.58 55.1729C181.875 55.1729 183.128 55.0566 184.34 54.8242C185.552 54.5918 186.681 54.2847 187.727 53.9028C188.773 53.521 189.719 53.0811 190.566 52.583C191.413 52.085 192.118 51.5703 192.683 51.0391V49.7441C191.554 49.4287 190.433 49.1631 189.321 48.9473C188.225 48.7314 187.171 48.5654 186.158 48.4492C185.162 48.3164 184.216 48.2251 183.319 48.1753C182.439 48.1255 181.667 48.1006 181.003 48.1006C179.625 48.1006 178.48 48.1919 177.567 48.3745C176.654 48.5571 175.915 48.8062 175.351 49.1216C174.786 49.4204 174.388 49.7773 174.155 50.1924C173.923 50.6074 173.807 51.0391 173.807 51.4873ZM209.815 31.6152H217.187V35.8486C218.813 34.6367 220.532 33.5908 222.341 32.7109C224.151 31.8311 225.952 31.1587 227.745 30.6938L229.912 37.4424C227.073 37.7246 224.574 38.3638 222.416 39.3599C220.274 40.3394 218.531 41.7256 217.187 43.5186V61H209.815V31.6152Z" fill="#FFE4C9"/>
<path d="M74.6704 22.0776V20.8776H73.4704V22.0776H74.6704ZM82.5645 22.0776L83.1211 21.0146L82.8596 20.8776H82.5645V22.0776ZM106.819 34.7778L106.263 35.8409L108.019 36.7607V34.7778H106.819ZM106.819 22.0776V20.8776H105.619V22.0776H106.819ZM114.713 22.0776H115.913V20.8776H114.713V22.0776ZM114.713 61V62.2H115.913V61H114.713ZM106.819 61H105.619V62.2H106.819V61ZM106.819 43.145H108.019V42.4168L107.373 42.0806L106.819 43.145ZM82.5645 30.5195L83.1185 29.4551L81.3645 28.5421V30.5195H82.5645ZM82.5645 61V62.2H83.7645V61H82.5645ZM74.6704 61H73.4704V62.2H74.6704V61ZM74.6704 22.0776V23.2776H82.5645V22.0776V20.8776H74.6704V22.0776ZM82.5645 22.0776L82.0078 23.1407L106.263 35.8409L106.819 34.7778L107.376 33.7147L83.1211 21.0146L82.5645 22.0776ZM106.819 34.7778H108.019V22.0776H106.819H105.619V34.7778H106.819ZM106.819 22.0776V23.2776H114.713V22.0776V20.8776H106.819V22.0776ZM114.713 22.0776H113.513V61H114.713H115.913V22.0776H114.713ZM114.713 61V59.8H106.819V61V62.2H114.713V61ZM106.819 61H108.019V43.145H106.819H105.619V61H106.819ZM106.819 43.145L107.373 42.0806L83.1185 29.4551L82.5645 30.5195L82.0104 31.584L106.265 44.2094L106.819 43.145ZM82.5645 30.5195H81.3645V61H82.5645H83.7645V30.5195H82.5645ZM82.5645 61V59.8H74.6704V61V62.2H82.5645V61ZM74.6704 61H75.8704V22.0776H74.6704H73.4704V61H74.6704ZM124.625 40.5054L125.719 40.9974L125.721 40.9937L124.625 40.5054ZM133.739 32.3374L133.319 31.2131L133.316 31.2142L133.739 32.3374ZM148.879 32.3623L148.455 33.4849L148.465 33.4886L148.879 32.3623ZM154.607 35.7988L153.787 36.6749L153.791 36.6792L154.607 35.7988ZM158.218 40.9536L157.111 41.4185L157.115 41.4263L158.218 40.9536ZM159.463 48.2251L158.264 48.1652L158.263 48.1951V48.2251H159.463ZM159.413 49.0967V50.2967H160.472L160.604 49.2455L159.413 49.0967ZM131.622 49.0967V47.8967H129.917L130.492 49.5016L131.622 49.0967ZM133.141 51.5122L132.273 52.3408L132.283 52.3509L133.141 51.5122ZM139.491 54.6499L139.24 55.8233L139.253 55.8261L139.491 54.6499ZM149.178 54.5503L149.423 55.7252L149.434 55.7228L149.178 54.5503ZM153.984 53.1807L155.082 52.6951L154.63 51.6742L153.579 52.0511L153.984 53.1807ZM156.475 58.8086L156.981 59.8965L158.048 59.3996L157.572 58.323L156.475 58.8086ZM153.536 60.0039L153.921 61.1404L153.933 61.1365L153.536 60.0039ZM150.448 60.8506L150.687 62.0267L150.701 62.0237L150.448 60.8506ZM147.086 61.3486L146.969 60.1544L146.967 60.1546L147.086 61.3486ZM151.668 43.3442V44.5442H153.323L152.809 42.9718L151.668 43.3442ZM150.423 41.0781L149.471 41.8087L149.481 41.8211L149.491 41.8332L150.423 41.0781ZM148.356 39.2354L147.71 40.2461L147.717 40.2507L147.724 40.2552L148.356 39.2354ZM132.867 41.1279L131.945 40.3597L131.94 40.3663L131.934 40.3729L132.867 41.1279ZM131.622 43.3442L130.486 42.9575L129.946 44.5442H131.622V43.3442ZM123.404 46.208H124.604C124.604 44.3847 124.975 42.6516 125.719 40.9974L124.625 40.5054L123.53 40.0134C122.647 41.9783 122.204 44.0469 122.204 46.208H123.404ZM124.625 40.5054L125.721 40.9937C126.465 39.3237 127.535 37.8475 128.945 36.5605L128.136 35.6743L127.327 34.7881C125.682 36.2902 124.411 38.0347 123.528 40.0171L124.625 40.5054ZM128.136 35.6743L128.945 36.5605C130.345 35.2823 132.076 34.2445 134.161 33.4606L133.739 32.3374L133.316 31.2142C130.986 32.0905 128.981 33.2773 127.327 34.7881L128.136 35.6743ZM133.739 32.3374L134.158 33.4617C136.226 32.6901 138.604 32.2923 141.309 32.2923V31.0923V29.8923C138.37 29.8923 135.701 30.3245 133.319 31.2131L133.739 32.3374ZM141.309 31.0923V32.2923C143.994 32.2923 146.371 32.6973 148.455 33.4849L148.879 32.3623L149.303 31.2397C146.906 30.3339 144.235 29.8923 141.309 29.8923V31.0923ZM148.879 32.3623L148.465 33.4886C150.591 34.2702 152.357 35.3366 153.787 36.6749L154.607 35.7988L155.427 34.9228C153.735 33.3392 151.683 32.1146 149.293 31.236L148.879 32.3623ZM154.607 35.7988L153.791 36.6792C155.244 38.0243 156.348 39.601 157.111 41.4185L158.218 40.9536L159.324 40.4888C158.428 38.355 157.125 36.4952 155.422 34.9185L154.607 35.7988ZM158.218 40.9536L157.115 41.4263C157.894 43.245 158.288 45.2001 158.288 47.3037H159.488H160.688C160.688 44.8917 160.235 42.6134 159.321 40.4809L158.218 40.9536ZM159.488 47.3037H158.288C158.288 47.5628 158.28 47.8497 158.264 48.1652L159.463 48.2251L160.661 48.285C160.679 47.9364 160.688 47.6091 160.688 47.3037H159.488ZM159.463 48.2251H158.263C158.263 48.4993 158.248 48.7394 158.222 48.9478L159.413 49.0967L160.604 49.2455C160.644 48.9227 160.663 48.5818 160.663 48.2251H159.463ZM159.413 49.0967V47.8967H131.622V49.0967V50.2967H159.413V49.0967ZM131.622 49.0967L130.492 49.5016C130.869 50.5518 131.469 51.4988 132.273 52.3408L133.141 51.5122L134.009 50.6836C133.418 50.0647 133.006 49.4013 132.752 48.6917L131.622 49.0967ZM133.141 51.5122L132.283 52.3509C133.104 53.1911 134.106 53.8966 135.269 54.4781L135.806 53.4048L136.342 52.3315C135.38 51.8504 134.606 51.2942 133.999 50.6735L133.141 51.5122ZM135.806 53.4048L135.269 54.4781C136.438 55.0626 137.765 55.5073 139.24 55.8233L139.491 54.6499L139.743 53.4765C138.428 53.1948 137.298 52.8095 136.342 52.3315L135.806 53.4048ZM139.491 54.6499L139.253 55.8261C140.739 56.1268 142.364 56.2732 144.123 56.2732V55.0732V53.8732C142.495 53.8732 141.032 53.7375 139.729 53.4737L139.491 54.6499ZM144.123 55.0732V56.2732C145.899 56.2732 147.666 56.0903 149.423 55.7252L149.178 54.5503L148.934 53.3754C147.337 53.7075 145.733 53.8732 144.123 53.8732V55.0732ZM149.178 54.5503L149.434 55.7228C151.158 55.3471 152.811 54.8766 154.39 54.3102L153.984 53.1807L153.579 52.0511C152.104 52.5805 150.552 53.023 148.923 53.3778L149.178 54.5503ZM153.984 53.1807L152.887 53.6662L155.377 59.2942L156.475 58.8086L157.572 58.323L155.082 52.6951L153.984 53.1807ZM156.475 58.8086L155.968 57.7207C155.041 58.1523 154.098 58.5358 153.14 58.8713L153.536 60.0039L153.933 61.1365C154.966 60.7747 155.982 60.3613 156.981 59.8965L156.475 58.8086ZM153.536 60.0039L153.151 58.8674C152.218 59.1838 151.233 59.4541 150.196 59.6775L150.448 60.8506L150.701 62.0237C151.822 61.7822 152.896 61.4881 153.921 61.1404L153.536 60.0039ZM150.448 60.8506L150.209 59.6746C149.19 59.8816 148.11 60.0419 146.969 60.1544L147.086 61.3486L147.204 62.5428C148.42 62.423 149.581 62.2512 150.687 62.0266L150.448 60.8506ZM147.086 61.3486L146.967 60.1546C145.849 60.2664 144.66 60.3229 143.401 60.3229V61.5229V62.7229C144.731 62.7229 146 62.6633 147.206 62.5427L147.086 61.3486ZM143.401 61.5229V60.3229C140.19 60.3229 137.421 59.9353 135.076 59.1847L134.71 60.3276L134.344 61.4705C136.979 62.3137 140.004 62.7229 143.401 62.7229V61.5229ZM134.71 60.3276L135.076 59.1847C132.701 58.4249 130.76 57.4024 129.221 56.1383L128.459 57.0654L127.698 57.9925C129.513 59.4843 131.738 60.6367 134.344 61.4705L134.71 60.3276ZM128.459 57.0654L129.221 56.1383C127.677 54.8692 126.533 53.3947 125.766 51.7122L124.674 52.2095L123.582 52.7068C124.509 54.743 125.888 56.5058 127.698 57.9925L128.459 57.0654ZM124.674 52.2095L125.766 51.7122C124.994 50.0165 124.604 48.1865 124.604 46.208H123.404H122.204C122.204 48.5127 122.661 50.6837 123.582 52.7068L124.674 52.2095ZM151.668 43.3442L152.809 42.9718C152.496 42.0125 152.008 41.1285 151.356 40.3231L150.423 41.0781L149.491 41.8332C149.968 42.4222 150.31 43.049 150.528 43.7167L151.668 43.3442ZM150.423 41.0781L151.375 40.3475C150.732 39.5093 149.931 38.7999 148.989 38.2155L148.356 39.2354L147.724 40.2552C148.442 40.7001 149.019 41.2192 149.471 41.8087L150.423 41.0781ZM148.356 39.2354L149.003 38.2246C148.057 37.6188 146.979 37.1585 145.784 36.8325L145.468 37.9902L145.152 39.148C146.148 39.4196 146.996 39.7894 147.71 40.2461L148.356 39.2354ZM145.468 37.9902L145.784 36.8325C144.57 36.5017 143.259 36.342 141.857 36.342V37.542V38.742C143.078 38.742 144.174 38.8811 145.152 39.148L145.468 37.9902ZM141.857 37.542V36.342C140.373 36.342 138.994 36.5097 137.728 36.8582L138.047 38.0151L138.365 39.1721C139.391 38.8897 140.552 38.742 141.857 38.742V37.542ZM138.047 38.0151L137.728 36.8582C136.492 37.1987 135.38 37.6633 134.405 38.2632L135.034 39.2852L135.663 40.3071C136.414 39.8445 137.311 39.4624 138.365 39.1721L138.047 38.0151ZM135.034 39.2852L134.405 38.2632C133.444 38.8547 132.619 39.5516 131.945 40.3597L132.867 41.1279L133.789 41.8962C134.278 41.3097 134.897 40.7781 135.663 40.3071L135.034 39.2852ZM132.867 41.1279L131.934 40.3729C131.289 41.1703 130.801 42.0321 130.486 42.9575L131.622 43.3442L132.758 43.731C132.974 43.0958 133.316 42.4801 133.8 41.883L132.867 41.1279ZM131.622 43.3442V44.5442H151.668V43.3442V42.1442H131.622V43.3442ZM169.723 44.8882L170.395 45.8825L170.404 45.8763L169.723 44.8882ZM174.305 42.9458L174.591 44.1112L174.598 44.1094L174.305 42.9458ZM186.432 42.647L186.274 43.8364L186.275 43.8366L186.432 42.647ZM192.633 43.8672L192.333 45.0292L193.979 45.4535L193.828 43.7605L192.633 43.8672ZM191.786 41.3022L190.759 41.9228L190.765 41.9324L191.786 41.3022ZM189.769 39.2603L189.09 40.2497L189.101 40.2573L189.112 40.2646L189.769 39.2603ZM186.681 37.9155L186.375 39.0758L186.379 39.0768L186.681 37.9155ZM173.607 38.7871L173.278 37.6333L173.273 37.6347L173.607 38.7871ZM170.719 39.8579L169.593 40.2747L170.044 41.4924L171.223 40.9469L170.719 39.8579ZM168.478 33.8066L168.073 32.6769L166.931 33.086L167.352 34.2234L168.478 33.8066ZM172.039 32.7109L171.737 31.5495L171.733 31.5504L172.039 32.7109ZM175.948 31.8643L176.155 33.0463L176.162 33.045L176.169 33.0437L175.948 31.8643ZM200.054 61V62.2H201.254V61H200.054ZM192.683 61H191.483V62.2H192.683V61ZM192.683 58.2358H193.883V56.1401L192.075 57.2009L192.683 58.2358ZM190.167 59.5059L189.688 58.406L189.68 58.4093L190.167 59.5059ZM183.792 61.249L183.632 60.0598L183.623 60.0611L183.614 60.0624L183.792 61.249ZM173.881 60.7759L173.549 61.9289L173.552 61.9297L173.881 60.7759ZM166.909 55.6211L165.829 56.1457L165.834 56.1548L165.838 56.1638L166.909 55.6211ZM174.18 52.8818L173.131 53.4646L173.136 53.4731L173.141 53.4815L174.18 52.8818ZM175.375 54.0522L174.731 55.0646L174.742 55.0717L174.754 55.0785L175.375 54.0522ZM177.467 54.874L177.171 56.0368L177.184 56.0402L177.197 56.0433L177.467 54.874ZM184.34 54.8242L184.114 53.6457L184.34 54.8242ZM192.683 51.0391L193.505 51.9129L193.883 51.5575V51.0391H192.683ZM192.683 49.7441H193.883V48.8335L193.006 48.5884L192.683 49.7441ZM189.321 48.9473L189.089 50.1246L189.092 50.1253L189.321 48.9473ZM186.158 48.4492L186 49.6387L186.01 49.6401L186.021 49.6414L186.158 48.4492ZM183.319 48.1753L183.252 49.3734L183.253 49.3734L183.319 48.1753ZM177.567 48.3745L177.802 49.5512L177.567 48.3745ZM175.351 49.1216L175.912 50.1821L175.924 50.1758L175.936 50.1691L175.351 49.1216ZM166.037 51.7363H167.237C167.237 50.5059 167.503 49.4139 168.019 48.4372L166.958 47.8765L165.898 47.3157C165.185 48.6632 164.837 50.1445 164.837 51.7363H166.037ZM166.958 47.8765L168.019 48.4372C168.53 47.4707 169.308 46.6165 170.394 45.8825L169.723 44.8882L169.051 43.8939C167.68 44.82 166.615 45.958 165.898 47.3157L166.958 47.8765ZM169.723 44.8882L170.404 45.8763C171.486 45.1305 172.871 44.5334 174.591 44.1112L174.305 42.9458L174.019 41.7804C172.086 42.2547 170.417 42.9525 169.042 43.9001L169.723 44.8882ZM174.305 42.9458L174.598 44.1094C176.322 43.6744 178.362 43.4485 180.729 43.4485V42.2485V41.0485C178.217 41.0485 175.973 41.2875 174.011 41.7822L174.305 42.9458ZM180.729 42.2485V43.4485C182.481 43.4485 184.328 43.5771 186.274 43.8364L186.432 42.647L186.591 41.4575C184.552 41.1856 182.598 41.0485 180.729 41.0485V42.2485ZM186.432 42.647L186.275 43.8366C188.232 44.0954 190.251 44.4924 192.333 45.0292L192.633 43.8672L192.932 42.7052C190.764 42.1462 188.65 41.7298 186.589 41.4573L186.432 42.647ZM192.633 43.8672L193.828 43.7605C193.729 42.6486 193.388 41.6139 192.807 40.6721L191.786 41.3022L190.765 41.9324C191.147 42.5511 191.371 43.2264 191.438 43.9739L192.633 43.8672ZM191.786 41.3022L192.813 40.6817C192.229 39.7148 191.423 38.9081 190.426 38.2559L189.769 39.2603L189.112 40.2646C189.841 40.7413 190.38 41.296 190.759 41.9228L191.786 41.3022ZM189.769 39.2603L190.448 38.2708C189.465 37.596 188.301 37.0972 186.983 36.7542L186.681 37.9155L186.379 39.0768C187.485 39.3647 188.38 39.7624 189.09 40.2497L189.769 39.2603ZM186.681 37.9155L186.987 36.7552C185.672 36.4081 184.205 36.2424 182.597 36.2424V37.4424V38.6424C184.044 38.6424 185.3 38.7921 186.375 39.0758L186.681 37.9155ZM182.597 37.4424V36.2424C181.72 36.2424 180.767 36.295 179.739 36.3978L179.858 37.5918L179.977 38.7858C180.942 38.6894 181.814 38.6424 182.597 38.6424V37.4424ZM179.858 37.5918L179.739 36.3978C178.706 36.501 177.642 36.6556 176.549 36.8606L176.77 38.04L176.991 39.2195C178.023 39.0261 179.018 38.8818 179.977 38.7858L179.858 37.5918ZM176.77 38.04L176.549 36.8606C175.45 37.0667 174.359 37.3243 173.278 37.6333L173.607 38.7871L173.937 39.9409C174.947 39.6523 175.965 39.4118 176.991 39.2195L176.77 38.04ZM173.607 38.7871L173.273 37.6347C172.19 37.949 171.17 38.3265 170.215 38.7689L170.719 39.8579L171.223 40.9469C172.06 40.5593 172.966 40.2229 173.942 39.9395L173.607 38.7871ZM170.719 39.8579L171.844 39.4411L169.603 33.3899L168.478 33.8066L167.352 34.2234L169.593 40.2747L170.719 39.8579ZM168.478 33.8066L168.882 34.9363C169.959 34.5507 171.112 34.1955 172.344 33.8714L172.039 32.7109L171.733 31.5504C170.441 31.8904 169.221 32.2657 168.073 32.6769L168.478 33.8066ZM172.039 32.7109L172.34 33.8724C173.587 33.5487 174.858 33.2733 176.155 33.0463L175.948 31.8643L175.741 30.6822C174.382 30.9201 173.047 31.2091 171.737 31.5495L172.039 32.7109ZM175.948 31.8643L176.169 33.0437C177.464 32.8009 178.758 32.6149 180.052 32.4855L179.933 31.2915L179.813 30.0975C178.451 30.2337 177.088 30.4295 175.727 30.6848L175.948 31.8643ZM179.933 31.2915L180.052 32.4855C181.343 32.3564 182.59 32.2923 183.792 32.2923V31.0923V29.8923C182.505 29.8923 181.178 29.961 179.813 30.0975L179.933 31.2915ZM183.792 31.0923V32.2923C189.099 32.2923 192.81 33.6456 195.176 36.1285L196.044 35.3008L196.913 34.4731C193.933 31.3446 189.476 29.8923 183.792 29.8923V31.0923ZM196.044 35.3008L195.176 36.1285C197.551 38.622 198.854 42.5645 198.854 48.2002H200.054H201.254C201.254 42.248 199.883 37.5908 196.913 34.4731L196.044 35.3008ZM200.054 48.2002H198.854V61H200.054H201.254V48.2002H200.054ZM200.054 61V59.8H192.683V61V62.2H200.054V61ZM192.683 61H193.883V58.2358H192.683H191.483V61H192.683ZM192.683 58.2358L192.075 57.2009C191.357 57.6222 190.562 58.0243 189.688 58.406L190.167 59.5059L190.647 60.6057C191.599 60.1905 192.48 59.7459 193.29 59.2707L192.683 58.2358ZM190.167 59.5059L189.68 58.4093C188.842 58.7816 187.918 59.1115 186.904 59.3966L187.229 60.5518L187.554 61.7069C188.665 61.3944 189.7 61.027 190.655 60.6024L190.167 59.5059ZM187.229 60.5518L186.904 59.3966C185.902 59.6785 184.811 59.9004 183.632 60.0598L183.792 61.249L183.953 62.4382C185.231 62.2656 186.431 62.0226 187.554 61.7069L187.229 60.5518ZM183.792 61.249L183.614 60.0624C182.467 60.2352 181.241 60.3229 179.933 60.3229V61.5229V62.7229C181.347 62.7229 182.694 62.6281 183.971 62.4356L183.792 61.249ZM179.933 61.5229V60.3229C177.725 60.3229 175.823 60.0826 174.211 59.6221L173.881 60.7759L173.552 61.9297C175.426 62.4652 177.558 62.7229 179.933 62.7229V61.5229ZM173.881 60.7759L174.214 59.6229C172.597 59.1565 171.294 58.5252 170.273 57.7523L169.548 58.709L168.824 59.6657C170.127 60.6525 171.713 61.3992 173.549 61.9289L173.881 60.7759ZM169.548 58.709L170.273 57.7523C169.241 56.9709 168.486 56.0785 167.979 55.0784L166.909 55.6211L165.838 56.1638C166.527 57.5211 167.532 58.6873 168.824 59.6657L169.548 58.709ZM166.909 55.6211L167.988 55.0965C167.49 54.0727 167.237 52.9583 167.237 51.7363H166.037H164.837C164.837 53.3034 165.165 54.7789 165.829 56.1457L166.909 55.6211ZM173.807 51.4873H172.607C172.607 52.186 172.79 52.8501 173.131 53.4646L174.18 52.8818L175.229 52.2991C175.073 52.0171 175.007 51.7515 175.007 51.4873H173.807ZM174.18 52.8818L173.141 53.4815C173.511 54.1235 174.068 54.6427 174.731 55.0646L175.375 54.0522L176.02 53.0399C175.587 52.7646 175.347 52.5034 175.22 52.2822L174.18 52.8818ZM175.375 54.0522L174.754 55.0785C175.432 55.4896 176.248 55.8016 177.171 56.0368L177.467 54.874L177.764 53.7112C176.993 53.5148 176.415 53.279 175.997 53.026L175.375 54.0522ZM177.467 54.874L177.197 56.0433C178.175 56.2688 179.308 56.3729 180.58 56.3729V55.1729V53.9729C179.428 53.9729 178.486 53.8776 177.737 53.7048L177.467 54.874ZM180.58 55.1729V56.3729C181.947 56.3729 183.276 56.2501 184.566 56.0027L184.34 54.8242L184.114 53.6457C182.98 53.8631 181.803 53.9729 180.58 53.9729V55.1729ZM184.34 54.8242L184.566 56.0027C185.835 55.7595 187.026 55.4362 188.139 55.0301L187.727 53.9028L187.316 52.7756C186.336 53.1332 185.27 53.4241 184.114 53.6457L184.34 54.8242ZM187.727 53.9028L188.139 55.0301C189.244 54.6265 190.257 54.1567 191.174 53.6173L190.566 52.583L189.957 51.5487C189.181 52.0054 188.302 52.4155 187.316 52.7756L187.727 53.9028ZM190.566 52.583L191.174 53.6173C192.079 53.0854 192.861 52.5192 193.505 51.9129L192.683 51.0391L191.86 50.1652C191.375 50.6214 190.747 51.0846 189.957 51.5487L190.566 52.583ZM192.683 51.0391H193.883V49.7441H192.683H191.483V51.0391H192.683ZM192.683 49.7441L193.006 48.5884C191.847 48.2646 190.694 47.9914 189.549 47.7692L189.321 48.9473L189.092 50.1253C190.172 50.3348 191.261 50.5928 192.36 50.8999L192.683 49.7441ZM189.321 48.9473L189.553 47.7699C188.428 47.5484 187.342 47.3772 186.295 47.257L186.158 48.4492L186.021 49.6414C186.999 49.7536 188.022 49.9144 189.089 50.1246L189.321 48.9473ZM186.158 48.4492L186.317 47.2597C185.294 47.1233 184.317 47.0288 183.386 46.9771L183.319 48.1753L183.253 49.3734C184.115 49.4214 185.031 49.5095 186 49.6387L186.158 48.4492ZM183.319 48.1753L183.387 46.9772C182.491 46.9265 181.696 46.9006 181.003 46.9006V48.1006V49.3006C181.639 49.3006 182.387 49.3245 183.252 49.3734L183.319 48.1753ZM181.003 48.1006V46.9006C179.58 46.9006 178.349 46.9942 177.332 47.1978L177.567 48.3745L177.802 49.5512C178.611 49.3895 179.671 49.3006 181.003 49.3006V48.1006ZM177.567 48.3745L177.332 47.1978C176.345 47.3951 175.475 47.6772 174.765 48.074L175.351 49.1216L175.936 50.1691C176.355 49.9351 176.963 49.7191 177.802 49.5512L177.567 48.3745ZM175.351 49.1216L174.789 48.061C174.089 48.4318 173.486 48.9314 173.108 49.6061L174.155 50.1924L175.202 50.7787C175.289 50.6233 175.484 50.409 175.912 50.1821L175.351 49.1216ZM174.155 50.1924L173.108 49.6061C172.782 50.1889 172.607 50.8211 172.607 51.4873H173.807H175.007C175.007 51.257 175.064 51.026 175.202 50.7787L174.155 50.1924ZM209.815 31.6152V30.4152H208.615V31.6152H209.815ZM217.187 31.6152H218.387V30.4152H217.187V31.6152ZM217.187 35.8486H215.987V38.2388L217.903 36.811L217.187 35.8486ZM227.745 30.6938L228.888 30.327L228.541 29.2478L227.444 29.5323L227.745 30.6938ZM229.912 37.4424L230.03 38.6365L231.508 38.4896L231.054 37.0756L229.912 37.4424ZM222.416 39.3599L222.915 40.4511L222.919 40.4494L222.416 39.3599ZM217.187 43.5186L216.227 42.7986L215.987 43.1186V43.5186H217.187ZM217.187 61V62.2H218.387V61H217.187ZM209.815 61H208.615V62.2H209.815V61ZM209.815 31.6152V32.8152H217.187V31.6152V30.4152H209.815V31.6152ZM217.187 31.6152H215.987V35.8486H217.187H218.387V31.6152H217.187ZM217.187 35.8486L217.903 36.811C219.471 35.6436 221.125 34.6369 222.866 33.7901L222.341 32.7109L221.817 31.6318C219.939 32.5448 218.156 33.6299 216.47 34.8863L217.187 35.8486ZM222.341 32.7109L222.866 33.7901C224.61 32.9421 226.337 32.2987 228.046 31.8554L227.745 30.6938L227.444 29.5323C225.568 30.0187 223.692 30.72 221.817 31.6318L222.341 32.7109ZM227.745 30.6938L226.603 31.0606L228.769 37.8092L229.912 37.4424L231.054 37.0756L228.888 30.327L227.745 30.6938ZM229.912 37.4424L229.793 36.2483C226.847 36.5411 224.214 37.2083 221.913 38.2703L222.416 39.3599L222.919 40.4494C224.934 39.5193 227.299 38.9081 230.03 38.6365L229.912 37.4424ZM222.416 39.3599L221.917 38.2686C219.603 39.327 217.698 40.8371 216.227 42.7986L217.187 43.5186L218.147 44.2386C219.365 42.6141 220.946 41.3517 222.915 40.4511L222.416 39.3599ZM217.187 43.5186H215.987V61H217.187H218.387V43.5186H217.187ZM217.187 61V59.8H209.815V61V62.2H217.187V61ZM209.815 61H211.015V31.6152H209.815H208.615V61H209.815Z" fill="#CDA980" mask="url(#path-1-outside-1_149_14)"/>
</g>
<defs>
<filter id="filter0_d_149_14" x="69.9704" y="17.3777" width="165.038" height="48.8455" filterUnits="userSpaceOnUse" color-interpolation-filters="sRGB">
<feFlood flood-opacity="0" result="BackgroundImageFix"/>
<feColorMatrix in="SourceAlpha" type="matrix" values="0 0 0 0 0 0 0 0 0 0 0 0 0 0 0 0 0 0 127 0" result="hardAlpha"/>
<feOffset/>
<feGaussianBlur stdDeviation="1.75"/>
<feComposite in2="hardAlpha" operator="out"/>
<feColorMatrix type="matrix" values="0 0 0 0 0.979247 0 0 0 0 1 0 0 0 0 0.822115 0 0 0 0.63 0"/>
<feBlend mode="normal" in2="BackgroundImageFix" result="effect1_dropShadow_149_14"/>
<feBlend mode="normal" in="SourceGraphic" in2="effect1_dropShadow_149_14" result="shape"/>
</filter>
</defs>
</svg>
