<svg width="300" height="80" viewBox="0 0 300 80" fill="none" xmlns="http://www.w3.org/2000/svg">
<g clip-path="url(#clip0_149_10)">
<g filter="url(#filter0_d_149_10)">
<mask id="path-1-outside-1_149_10" maskUnits="userSpaceOnUse" x="15" y="20" width="273" height="44" fill="black">
<rect fill="white" x="15" y="20" width="273" height="44"/>
<path d="M16.8347 62V22.096H36.0327C38.5847 22.096 40.6534 22.4053 42.2387 23.024C43.8241 23.604 45.0421 24.474 45.8927 25.634C46.7434 26.7553 47.3234 28.1473 47.6327 29.81C47.9421 31.4727 48.0967 33.3867 48.0967 35.552C48.0967 37.524 47.9421 39.3413 47.6327 41.004C47.3621 42.628 46.8014 44.0393 45.9507 45.238C45.1387 46.4367 43.9207 47.3647 42.2967 48.022C40.6727 48.6793 38.5267 49.008 35.8587 49.008H26.9267V62H16.8347ZM26.9267 41.352H31.9727C33.3647 41.352 34.4474 41.2747 35.2207 41.12C36.0327 40.9653 36.6321 40.6947 37.0187 40.308C37.4054 39.8827 37.6567 39.3027 37.7727 38.568C37.8887 37.7947 37.9467 36.7893 37.9467 35.552C37.9467 34.3147 37.8887 33.3093 37.7727 32.536C37.6954 31.7627 37.4634 31.1827 37.0767 30.796C36.6901 30.3707 36.1101 30.1 35.3367 29.984C34.5634 29.8293 33.5001 29.752 32.1467 29.752H26.9267V41.352ZM58.7443 62V22.096H86.7003V29.868H68.8363V38.046H83.9743V45.702H68.8363V54.228H86.7003V62H58.7443ZM98.5581 62V22.096H118.336C120.927 22.096 123.015 22.386 124.6 22.966C126.224 23.5073 127.442 24.3387 128.254 25.46C129.105 26.5427 129.665 27.896 129.936 29.52C130.245 31.1053 130.4 32.9227 130.4 34.972C130.4 36.48 130.284 38.0073 130.052 39.554C129.82 41.062 129.317 42.454 128.544 43.73C127.809 44.9673 126.669 45.9147 125.122 46.572L131.154 62H120.656L115.03 46.05L117.582 47.442C117.234 47.6353 116.867 47.7513 116.48 47.79C116.132 47.8287 115.687 47.848 115.146 47.848H108.65V62H98.5581ZM108.65 40.366H114.45C115.765 40.366 116.809 40.308 117.582 40.192C118.394 40.0373 118.993 39.7667 119.38 39.38C119.767 38.9933 120.018 38.452 120.134 37.756C120.25 37.06 120.308 36.1707 120.308 35.088C120.308 33.9667 120.25 33.058 120.134 32.362C120.057 31.666 119.825 31.144 119.438 30.796C119.09 30.4093 118.51 30.1387 117.698 29.984C116.925 29.8293 115.842 29.752 114.45 29.752H108.65V40.366ZM142.167 62V22.096H168.963V29.868H152.259V39.322H166.817V47.094H152.259V62H142.167ZM179.828 62V22.096H207.784V29.868H189.92V38.046H205.058V45.702H189.92V54.228H207.784V62H179.828ZM235.65 62.464C232.634 62.464 230.121 62.2707 228.11 61.884C226.099 61.4587 224.456 60.782 223.18 59.854C221.943 58.926 220.995 57.6887 220.338 56.142C219.719 54.5953 219.294 52.662 219.062 50.342C218.83 48.022 218.714 45.2573 218.714 42.048C218.714 38.8387 218.83 36.074 219.062 33.754C219.294 31.434 219.719 29.5007 220.338 27.954C220.995 26.4073 221.943 25.17 223.18 24.242C224.456 23.314 226.099 22.6567 228.11 22.27C230.121 21.8447 232.634 21.632 235.65 21.632C236.81 21.632 238.009 21.6707 239.246 21.748C240.483 21.8253 241.682 21.9413 242.842 22.096C244.002 22.2507 244.988 22.444 245.8 22.676V29.926C244.601 29.81 243.499 29.7133 242.494 29.636C241.527 29.52 240.677 29.462 239.942 29.462C239.207 29.4233 238.589 29.404 238.086 29.404C236.307 29.404 234.838 29.4813 233.678 29.636C232.557 29.752 231.667 30.042 231.01 30.506C230.353 30.97 229.869 31.666 229.56 32.594C229.251 33.4833 229.038 34.7013 228.922 36.248C228.845 37.756 228.806 39.6893 228.806 42.048C228.806 44.368 228.845 46.3013 228.922 47.848C229.038 49.3947 229.251 50.632 229.56 51.56C229.869 52.488 230.353 53.184 231.01 53.648C231.667 54.0733 232.557 54.3633 233.678 54.518C234.838 54.634 236.307 54.692 238.086 54.692C239.285 54.692 240.638 54.6533 242.146 54.576C243.654 54.46 244.949 54.3247 246.032 54.17V61.594C245.181 61.7487 244.157 61.884 242.958 62C241.759 62.1547 240.522 62.2707 239.246 62.348C238.009 62.4253 236.81 62.464 235.65 62.464ZM265.19 62V30.216H254.286V22.096H286.244V30.216H275.282V62H265.19Z"/>
</mask>
<path d="M16.8347 62V22.096H36.0327C38.5847 22.096 40.6534 22.4053 42.2387 23.024C43.8241 23.604 45.0421 24.474 45.8927 25.634C46.7434 26.7553 47.3234 28.1473 47.6327 29.81C47.9421 31.4727 48.0967 33.3867 48.0967 35.552C48.0967 37.524 47.9421 39.3413 47.6327 41.004C47.3621 42.628 46.8014 44.0393 45.9507 45.238C45.1387 46.4367 43.9207 47.3647 42.2967 48.022C40.6727 48.6793 38.5267 49.008 35.8587 49.008H26.9267V62H16.8347ZM26.9267 41.352H31.9727C33.3647 41.352 34.4474 41.2747 35.2207 41.12C36.0327 40.9653 36.6321 40.6947 37.0187 40.308C37.4054 39.8827 37.6567 39.3027 37.7727 38.568C37.8887 37.7947 37.9467 36.7893 37.9467 35.552C37.9467 34.3147 37.8887 33.3093 37.7727 32.536C37.6954 31.7627 37.4634 31.1827 37.0767 30.796C36.6901 30.3707 36.1101 30.1 35.3367 29.984C34.5634 29.8293 33.5001 29.752 32.1467 29.752H26.9267V41.352ZM58.7443 62V22.096H86.7003V29.868H68.8363V38.046H83.9743V45.702H68.8363V54.228H86.7003V62H58.7443ZM98.5581 62V22.096H118.336C120.927 22.096 123.015 22.386 124.6 22.966C126.224 23.5073 127.442 24.3387 128.254 25.46C129.105 26.5427 129.665 27.896 129.936 29.52C130.245 31.1053 130.4 32.9227 130.4 34.972C130.4 36.48 130.284 38.0073 130.052 39.554C129.82 41.062 129.317 42.454 128.544 43.73C127.809 44.9673 126.669 45.9147 125.122 46.572L131.154 62H120.656L115.03 46.05L117.582 47.442C117.234 47.6353 116.867 47.7513 116.48 47.79C116.132 47.8287 115.687 47.848 115.146 47.848H108.65V62H98.5581ZM108.65 40.366H114.45C115.765 40.366 116.809 40.308 117.582 40.192C118.394 40.0373 118.993 39.7667 119.38 39.38C119.767 38.9933 120.018 38.452 120.134 37.756C120.25 37.06 120.308 36.1707 120.308 35.088C120.308 33.9667 120.25 33.058 120.134 32.362C120.057 31.666 119.825 31.144 119.438 30.796C119.09 30.4093 118.51 30.1387 117.698 29.984C116.925 29.8293 115.842 29.752 114.45 29.752H108.65V40.366ZM142.167 62V22.096H168.963V29.868H152.259V39.322H166.817V47.094H152.259V62H142.167ZM179.828 62V22.096H207.784V29.868H189.92V38.046H205.058V45.702H189.92V54.228H207.784V62H179.828ZM235.65 62.464C232.634 62.464 230.121 62.2707 228.11 61.884C226.099 61.4587 224.456 60.782 223.18 59.854C221.943 58.926 220.995 57.6887 220.338 56.142C219.719 54.5953 219.294 52.662 219.062 50.342C218.83 48.022 218.714 45.2573 218.714 42.048C218.714 38.8387 218.83 36.074 219.062 33.754C219.294 31.434 219.719 29.5007 220.338 27.954C220.995 26.4073 221.943 25.17 223.18 24.242C224.456 23.314 226.099 22.6567 228.11 22.27C230.121 21.8447 232.634 21.632 235.65 21.632C236.81 21.632 238.009 21.6707 239.246 21.748C240.483 21.8253 241.682 21.9413 242.842 22.096C244.002 22.2507 244.988 22.444 245.8 22.676V29.926C244.601 29.81 243.499 29.7133 242.494 29.636C241.527 29.52 240.677 29.462 239.942 29.462C239.207 29.4233 238.589 29.404 238.086 29.404C236.307 29.404 234.838 29.4813 233.678 29.636C232.557 29.752 231.667 30.042 231.01 30.506C230.353 30.97 229.869 31.666 229.56 32.594C229.251 33.4833 229.038 34.7013 228.922 36.248C228.845 37.756 228.806 39.6893 228.806 42.048C228.806 44.368 228.845 46.3013 228.922 47.848C229.038 49.3947 229.251 50.632 229.56 51.56C229.869 52.488 230.353 53.184 231.01 53.648C231.667 54.0733 232.557 54.3633 233.678 54.518C234.838 54.634 236.307 54.692 238.086 54.692C239.285 54.692 240.638 54.6533 242.146 54.576C243.654 54.46 244.949 54.3247 246.032 54.17V61.594C245.181 61.7487 244.157 61.884 242.958 62C241.759 62.1547 240.522 62.2707 239.246 62.348C238.009 62.4253 236.81 62.464 235.65 62.464ZM265.19 62V30.216H254.286V22.096H286.244V30.216H275.282V62H265.19Z" fill="url(#paint0_linear_149_10)"/>
<path d="M16.8347 62H15.6347V63.2H16.8347V62ZM16.8347 22.096V20.896H15.6347V22.096H16.8347ZM42.2387 23.024L41.8025 24.1419L41.8144 24.1465L41.8264 24.1509L42.2387 23.024ZM45.8927 25.634L44.925 26.3436L44.9308 26.3515L44.9367 26.3593L45.8927 25.634ZM47.6327 29.81L48.8125 29.5905V29.5905L47.6327 29.81ZM47.6327 41.004L46.453 40.7845L46.4509 40.7956L46.4491 40.8067L47.6327 41.004ZM45.9507 45.238L44.9721 44.5435L44.9646 44.5542L44.9572 44.565L45.9507 45.238ZM42.2967 48.022L42.747 49.1343V49.1343L42.2967 48.022ZM26.9267 49.008V47.808H25.7267V49.008H26.9267ZM26.9267 62V63.2H28.1267V62H26.9267ZM26.9267 41.352H25.7267V42.552H26.9267V41.352ZM35.2207 41.12L34.9962 39.9411L34.9854 39.9433L35.2207 41.12ZM37.0187 40.308L37.8672 41.1565L37.8874 41.1363L37.9067 41.1152L37.0187 40.308ZM37.7727 38.568L38.9581 38.7552L38.9594 38.746L37.7727 38.568ZM37.7727 32.536L36.5787 32.6554L36.5816 32.6848L36.586 32.714L37.7727 32.536ZM37.0767 30.796L36.1888 31.6032L36.208 31.6243L36.2282 31.6445L37.0767 30.796ZM35.3367 29.984L35.1014 31.1607L35.1299 31.1664L35.1587 31.1707L35.3367 29.984ZM26.9267 29.752V28.552H25.7267V29.752H26.9267ZM16.8347 62H18.0347V22.096H16.8347H15.6347V62H16.8347ZM16.8347 22.096V23.296H36.0327V22.096V20.896H16.8347V22.096ZM36.0327 22.096V23.296C38.5028 23.296 40.4075 23.5975 41.8025 24.1419L42.2387 23.024L42.675 21.9061C40.8993 21.2132 38.6667 20.896 36.0327 20.896V22.096ZM42.2387 23.024L41.8264 24.1509C43.2289 24.6641 44.2372 25.4057 44.925 26.3436L45.8927 25.634L46.8604 24.9244C45.8469 23.5423 44.4192 22.5439 42.651 21.8971L42.2387 23.024ZM45.8927 25.634L44.9367 26.3593C45.6539 27.3046 46.171 28.5139 46.453 30.0295L47.6327 29.81L48.8125 29.5905C48.4758 27.7808 47.8329 26.206 46.8488 24.9087L45.8927 25.634ZM47.6327 29.81L46.453 30.0295C46.7457 31.603 46.8967 33.441 46.8967 35.552H48.0967H49.2967C49.2967 33.3324 49.1384 31.3424 48.8125 29.5905L47.6327 29.81ZM48.0967 35.552H46.8967C46.8967 37.4622 46.7468 39.205 46.453 40.7845L47.6327 41.004L48.8125 41.2235C49.1373 39.4777 49.2967 37.5858 49.2967 35.552H48.0967ZM47.6327 41.004L46.4491 40.8067C46.2046 42.2733 45.7057 43.5099 44.9721 44.5435L45.9507 45.238L46.9293 45.9325C47.8971 44.5688 48.5195 42.9827 48.8164 41.2013L47.6327 41.004ZM45.9507 45.238L44.9572 44.565C44.3046 45.5284 43.2968 46.3226 41.8465 46.9097L42.2967 48.022L42.747 49.1343C44.5447 48.4067 45.9729 47.3449 46.9442 45.911L45.9507 45.238ZM42.2967 48.022L41.8465 46.9097C40.4201 47.487 38.4449 47.808 35.8587 47.808V49.008V50.208C38.6085 50.208 40.9253 49.8717 42.747 49.1343L42.2967 48.022ZM35.8587 49.008V47.808H26.9267V49.008V50.208H35.8587V49.008ZM26.9267 49.008H25.7267V62H26.9267H28.1267V49.008H26.9267ZM26.9267 62V60.8H16.8347V62V63.2H26.9267V62ZM26.9267 41.352V42.552H31.9727V41.352V40.152H26.9267V41.352ZM31.9727 41.352V42.552C33.3936 42.552 34.568 42.4743 35.4561 42.2967L35.2207 41.12L34.9854 39.9433C34.3267 40.075 33.3358 40.152 31.9727 40.152V41.352ZM35.2207 41.12L35.4453 42.2988C36.3803 42.1207 37.2439 41.7799 37.8672 41.1565L37.0187 40.308L36.1702 39.4595C36.0202 39.6094 35.6852 39.81 34.9962 39.9412L35.2207 41.12ZM37.0187 40.308L37.9067 41.1152C38.4911 40.4723 38.8161 39.6539 38.958 38.7552L37.7727 38.568L36.5874 38.3808C36.4973 38.9515 36.3197 39.293 36.1308 39.5008L37.0187 40.308ZM37.7727 38.568L38.9594 38.746C39.0878 37.8901 39.1467 36.8189 39.1467 35.552H37.9467H36.7467C36.7467 36.7598 36.6896 37.6993 36.586 38.39L37.7727 38.568ZM37.9467 35.552H39.1467C39.1467 34.2851 39.0878 33.2139 38.9594 32.358L37.7727 32.536L36.586 32.714C36.6896 33.4047 36.7467 34.3442 36.7467 35.552H37.9467ZM37.7727 32.536L38.9668 32.4166C38.8733 31.4815 38.5758 30.598 37.9253 29.9475L37.0767 30.796L36.2282 31.6445C36.351 31.7673 36.5175 32.0438 36.5787 32.6554L37.7727 32.536ZM37.0767 30.796L37.9646 29.9888C37.3348 29.296 36.4632 28.9395 35.5147 28.7973L35.3367 29.984L35.1587 31.1707C35.7569 31.2604 36.0453 31.4454 36.1888 31.6032L37.0767 30.796ZM35.3367 29.984L35.5721 28.8073C34.6855 28.63 33.5316 28.552 32.1467 28.552V29.752V30.952C33.4685 30.952 34.4413 31.0287 35.1014 31.1607L35.3367 29.984ZM32.1467 29.752V28.552H26.9267V29.752V30.952H32.1467V29.752ZM26.9267 29.752H25.7267V41.352H26.9267H28.1267V29.752H26.9267ZM58.7443 62H57.5443V63.2H58.7443V62ZM58.7443 22.096V20.896H57.5443V22.096H58.7443ZM86.7003 22.096H87.9003V20.896H86.7003V22.096ZM86.7003 29.868V31.068H87.9003V29.868H86.7003ZM68.8363 29.868V28.668H67.6363V29.868H68.8363ZM68.8363 38.046H67.6363V39.246H68.8363V38.046ZM83.9743 38.046H85.1743V36.846H83.9743V38.046ZM83.9743 45.702V46.902H85.1743V45.702H83.9743ZM68.8363 45.702V44.502H67.6363V45.702H68.8363ZM68.8363 54.228H67.6363V55.428H68.8363V54.228ZM86.7003 54.228H87.9003V53.028H86.7003V54.228ZM86.7003 62V63.2H87.9003V62H86.7003ZM58.7443 62H59.9443V22.096H58.7443H57.5443V62H58.7443ZM58.7443 22.096V23.296H86.7003V22.096V20.896H58.7443V22.096ZM86.7003 22.096H85.5003V29.868H86.7003H87.9003V22.096H86.7003ZM86.7003 29.868V28.668H68.8363V29.868V31.068H86.7003V29.868ZM68.8363 29.868H67.6363V38.046H68.8363H70.0363V29.868H68.8363ZM68.8363 38.046V39.246H83.9743V38.046V36.846H68.8363V38.046ZM83.9743 38.046H82.7743V45.702H83.9743H85.1743V38.046H83.9743ZM83.9743 45.702V44.502H68.8363V45.702V46.902H83.9743V45.702ZM68.8363 45.702H67.6363V54.228H68.8363H70.0363V45.702H68.8363ZM68.8363 54.228V55.428H86.7003V54.228V53.028H68.8363V54.228ZM86.7003 54.228H85.5003V62H86.7003H87.9003V54.228H86.7003ZM86.7003 62V60.8H58.7443V62V63.2H86.7003V62ZM98.5581 62H97.3581V63.2H98.5581V62ZM98.5581 22.096V20.896H97.3581V22.096H98.5581ZM124.6 22.966L124.188 24.0929L124.204 24.0989L124.221 24.1044L124.6 22.966ZM128.254 25.46L127.282 26.1638L127.296 26.1829L127.31 26.2014L128.254 25.46ZM129.936 29.52L128.752 29.7173L128.755 29.7336L128.758 29.7498L129.936 29.52ZM130.052 39.554L131.238 39.7365L131.239 39.732L130.052 39.554ZM128.544 43.73L127.518 43.108L127.512 43.1174L128.544 43.73ZM125.122 46.572L124.653 45.4676L123.58 45.9235L124.004 47.009L125.122 46.572ZM131.154 62V63.2H132.912L132.272 61.563L131.154 62ZM120.656 62L119.524 62.3992L119.807 63.2H120.656V62ZM115.03 46.05L115.605 44.9965L112.857 43.498L113.898 46.4492L115.03 46.05ZM117.582 47.442L118.165 48.491L120.07 47.4324L118.157 46.3885L117.582 47.442ZM116.48 47.79L116.361 46.5959L116.348 46.5973L116.48 47.79ZM108.65 47.848V46.648H107.45V47.848H108.65ZM108.65 62V63.2H109.85V62H108.65ZM108.65 40.366H107.45V41.566H108.65V40.366ZM117.582 40.192L117.76 41.3787L117.783 41.3752L117.807 41.3708L117.582 40.192ZM119.38 39.38L118.532 38.5315H118.532L119.38 39.38ZM120.134 32.362L118.941 32.4945L118.945 32.527L118.95 32.5593L120.134 32.362ZM119.438 30.796L118.546 31.5988L118.588 31.6457L118.635 31.688L119.438 30.796ZM117.698 29.984L117.463 31.1607L117.474 31.1628L117.698 29.984ZM108.65 29.752V28.552H107.45V29.752H108.65ZM98.5581 62H99.7581V22.096H98.5581H97.3581V62H98.5581ZM98.5581 22.096V23.296H118.336V22.096V20.896H98.5581V22.096ZM118.336 22.096V23.296C120.853 23.296 122.786 23.5799 124.188 24.0929L124.6 22.966L125.012 21.8391C123.244 21.1921 121 20.896 118.336 20.896V22.096ZM124.6 22.966L124.221 24.1044C125.664 24.5854 126.649 25.2895 127.282 26.1638L128.254 25.46L129.226 24.7562C128.235 23.3878 126.785 22.4293 124.98 21.8276L124.6 22.966ZM128.254 25.46L127.31 26.2014C128.015 27.0974 128.508 28.2531 128.752 29.7173L129.936 29.52L131.12 29.3227C130.822 27.5389 130.195 25.9879 129.198 24.7186L128.254 25.46ZM129.936 29.52L128.758 29.7498C129.05 31.2424 129.2 32.9803 129.2 34.972H130.4H131.6C131.6 32.865 131.441 30.9682 131.114 29.2902L129.936 29.52ZM130.4 34.972H129.2C129.2 36.4183 129.089 37.8861 128.865 39.376L130.052 39.554L131.239 39.732C131.479 38.1286 131.6 36.5417 131.6 34.972H130.4ZM130.052 39.554L128.866 39.3715C128.657 40.7276 128.208 41.9697 127.518 43.108L128.544 43.73L129.57 44.352C130.427 42.9383 130.983 41.3964 131.238 39.7365L130.052 39.554ZM128.544 43.73L127.512 43.1174C126.929 44.0998 126.005 44.8928 124.653 45.4676L125.122 46.572L125.591 47.6764C127.332 46.9365 128.69 45.8349 129.576 44.3426L128.544 43.73ZM125.122 46.572L124.004 47.009L130.036 62.437L131.154 62L132.272 61.563L126.24 46.135L125.122 46.572ZM131.154 62V60.8H120.656V62V63.2H131.154V62ZM120.656 62L121.788 61.6008L116.162 45.6508L115.03 46.05L113.898 46.4492L119.524 62.3992L120.656 62ZM115.03 46.05L114.455 47.1035L117.007 48.4955L117.582 47.442L118.157 46.3885L115.605 44.9965L115.03 46.05ZM117.582 47.442L116.999 46.393C116.791 46.5089 116.581 46.574 116.361 46.596L116.48 47.79L116.599 48.984C117.153 48.9287 117.677 48.7617 118.165 48.491L117.582 47.442ZM116.48 47.79L116.348 46.5973C116.06 46.6292 115.664 46.648 115.146 46.648V47.848V49.048C115.711 49.048 116.204 49.0281 116.613 48.9827L116.48 47.79ZM115.146 47.848V46.648H108.65V47.848V49.048H115.146V47.848ZM108.65 47.848H107.45V62H108.65H109.85V47.848H108.65ZM108.65 62V60.8H98.5581V62V63.2H108.65V62ZM108.65 40.366V41.566H114.45V40.366V39.166H108.65V40.366ZM114.45 40.366V41.566C115.79 41.566 116.902 41.5075 117.76 41.3787L117.582 40.192L117.404 39.0053C116.716 39.1085 115.739 39.166 114.45 39.166V40.366ZM117.582 40.192L117.807 41.3708C118.742 41.1927 119.605 40.8519 120.229 40.2285L119.38 39.38L118.532 38.5315C118.382 38.6814 118.047 38.882 117.358 39.0132L117.582 40.192ZM119.38 39.38L120.229 40.2285C120.837 39.6198 121.173 38.8244 121.318 37.9533L120.134 37.756L118.95 37.5587C118.864 38.0796 118.696 38.3668 118.532 38.5315L119.38 39.38ZM120.134 37.756L121.318 37.9533C121.449 37.1674 121.508 36.2058 121.508 35.088H120.308H119.108C119.108 36.1355 119.051 36.9526 118.95 37.5587L120.134 37.756ZM120.308 35.088H121.508C121.508 33.9342 121.449 32.9523 121.318 32.1647L120.134 32.362L118.95 32.5593C119.051 33.1637 119.108 33.9991 119.108 35.088H120.308ZM120.134 32.362L121.327 32.2295C121.228 31.3435 120.912 30.5083 120.241 29.904L119.438 30.796L118.635 31.688C118.737 31.7797 118.885 31.9885 118.941 32.4945L120.134 32.362ZM119.438 30.796L120.33 29.9932C119.73 29.3267 118.851 28.982 117.923 28.8052L117.698 29.984L117.474 31.1628C118.169 31.2953 118.45 31.492 118.546 31.5988L119.438 30.796ZM117.698 29.984L117.933 28.8073C117.045 28.6297 115.871 28.552 114.45 28.552V29.752V30.952C115.813 30.952 116.804 31.029 117.463 31.1607L117.698 29.984ZM114.45 29.752V28.552H108.65V29.752V30.952H114.45V29.752ZM108.65 29.752H107.45V40.366H108.65H109.85V29.752H108.65ZM142.167 62H140.967V63.2H142.167V62ZM142.167 22.096V20.896H140.967V22.096H142.167ZM168.963 22.096H170.163V20.896H168.963V22.096ZM168.963 29.868V31.068H170.163V29.868H168.963ZM152.259 29.868V28.668H151.059V29.868H152.259ZM152.259 39.322H151.059V40.522H152.259V39.322ZM166.817 39.322H168.017V38.122H166.817V39.322ZM166.817 47.094V48.294H168.017V47.094H166.817ZM152.259 47.094V45.894H151.059V47.094H152.259ZM152.259 62V63.2H153.459V62H152.259ZM142.167 62H143.367V22.096H142.167H140.967V62H142.167ZM142.167 22.096V23.296H168.963V22.096V20.896H142.167V22.096ZM168.963 22.096H167.763V29.868H168.963H170.163V22.096H168.963ZM168.963 29.868V28.668H152.259V29.868V31.068H168.963V29.868ZM152.259 29.868H151.059V39.322H152.259H153.459V29.868H152.259ZM152.259 39.322V40.522H166.817V39.322V38.122H152.259V39.322ZM166.817 39.322H165.617V47.094H166.817H168.017V39.322H166.817ZM166.817 47.094V45.894H152.259V47.094V48.294H166.817V47.094ZM152.259 47.094H151.059V62H152.259H153.459V47.094H152.259ZM152.259 62V60.8H142.167V62V63.2H152.259V62ZM179.828 62H178.628V63.2H179.828V62ZM179.828 22.096V20.896H178.628V22.096H179.828ZM207.784 22.096H208.984V20.896H207.784V22.096ZM207.784 29.868V31.068H208.984V29.868H207.784ZM189.92 29.868V28.668H188.72V29.868H189.92ZM189.92 38.046H188.72V39.246H189.92V38.046ZM205.058 38.046H206.258V36.846H205.058V38.046ZM205.058 45.702V46.902H206.258V45.702H205.058ZM189.92 45.702V44.502H188.72V45.702H189.92ZM189.92 54.228H188.72V55.428H189.92V54.228ZM207.784 54.228H208.984V53.028H207.784V54.228ZM207.784 62V63.2H208.984V62H207.784ZM179.828 62H181.028V22.096H179.828H178.628V62H179.828ZM179.828 22.096V23.296H207.784V22.096V20.896H179.828V22.096ZM207.784 22.096H206.584V29.868H207.784H208.984V22.096H207.784ZM207.784 29.868V28.668H189.92V29.868V31.068H207.784V29.868ZM189.92 29.868H188.72V38.046H189.92H191.12V29.868H189.92ZM189.92 38.046V39.246H205.058V38.046V36.846H189.92V38.046ZM205.058 38.046H203.858V45.702H205.058H206.258V38.046H205.058ZM205.058 45.702V44.502H189.92V45.702V46.902H205.058V45.702ZM189.92 45.702H188.72V54.228H189.92H191.12V45.702H189.92ZM189.92 54.228V55.428H207.784V54.228V53.028H189.92V54.228ZM207.784 54.228H206.584V62H207.784H208.984V54.228H207.784ZM207.784 62V60.8H179.828V62V63.2H207.784V62ZM228.11 61.884L227.862 63.058L227.873 63.0603L227.884 63.0624L228.11 61.884ZM223.18 59.854L222.46 60.814L222.467 60.8193L222.474 60.8245L223.18 59.854ZM220.338 56.142L219.224 56.5877L219.229 56.5996L219.234 56.6114L220.338 56.142ZM219.062 50.342L220.256 50.2226V50.2226L219.062 50.342ZM219.062 33.754L220.256 33.8734V33.8734L219.062 33.754ZM220.338 27.954L219.234 27.4846L219.229 27.4964L219.224 27.5083L220.338 27.954ZM223.18 24.242L222.474 23.2715L222.467 23.2767L222.46 23.282L223.18 24.242ZM228.11 22.27L228.337 23.4484L228.348 23.4463L228.358 23.444L228.11 22.27ZM239.246 21.748L239.171 22.9457V22.9457L239.246 21.748ZM242.842 22.096L242.684 23.2855V23.2855L242.842 22.096ZM245.8 22.676H247V21.7708L246.13 21.5222L245.8 22.676ZM245.8 29.926L245.685 31.1204L247 31.2477V29.926H245.8ZM242.494 29.636L242.351 30.8274L242.377 30.8305L242.402 30.8325L242.494 29.636ZM239.942 29.462L239.879 30.6603L239.911 30.662H239.942V29.462ZM233.678 29.636L233.802 30.8296L233.819 30.8278L233.837 30.8255L233.678 29.636ZM231.01 30.506L230.318 29.5256V29.5256L231.01 30.506ZM229.56 32.594L230.694 32.9882L230.696 32.9809L230.699 32.9735L229.56 32.594ZM228.922 36.248L227.725 36.1582L227.724 36.1724L227.724 36.1865L228.922 36.248ZM228.922 47.848L227.724 47.9079L227.724 47.9228L227.725 47.9377L228.922 47.848ZM229.56 51.56L230.699 51.1805V51.1805L229.56 51.56ZM231.01 53.648L230.318 54.6284L230.338 54.6423L230.358 54.6555L231.01 53.648ZM233.678 54.518L233.514 55.7067L233.536 55.7098L233.559 55.712L233.678 54.518ZM242.146 54.576L242.208 55.7744L242.223 55.7736L242.238 55.7725L242.146 54.576ZM246.032 54.17H247.232V52.7864L245.862 52.9821L246.032 54.17ZM246.032 61.594L246.247 62.7746L247.232 62.5955V61.594H246.032ZM242.958 62L242.843 60.8056L242.824 60.8074L242.805 60.8099L242.958 62ZM239.246 62.348L239.174 61.1502L239.171 61.1503L239.246 62.348ZM235.65 62.464V61.264C232.678 61.264 230.247 61.0729 228.337 60.7056L228.11 61.884L227.884 63.0624C229.995 63.4684 232.59 63.664 235.65 63.664V62.464ZM228.11 61.884L228.358 60.71C226.465 60.3095 224.991 59.6871 223.886 58.8835L223.18 59.854L222.474 60.8245C223.921 61.8769 225.734 62.6079 227.862 63.058L228.11 61.884ZM223.18 59.854L223.9 58.894C222.846 58.1037 222.025 57.0421 221.443 55.6726L220.338 56.142L219.234 56.6114C219.966 58.3352 221.039 59.7483 222.46 60.814L223.18 59.854ZM220.338 56.142L221.452 55.6963C220.888 54.2865 220.481 52.4716 220.256 50.2226L219.062 50.342L217.868 50.4614C218.107 52.8524 218.551 54.9042 219.224 56.5877L220.338 56.142ZM219.062 50.342L220.256 50.2226C220.029 47.9539 219.914 45.2311 219.914 42.048H218.714H217.514C217.514 45.2836 217.631 48.0901 217.868 50.4614L219.062 50.342ZM218.714 42.048H219.914C219.914 38.8649 220.029 36.1421 220.256 33.8734L219.062 33.754L217.868 33.6346C217.631 36.0059 217.514 38.8125 217.514 42.048H218.714ZM219.062 33.754L220.256 33.8734C220.481 31.6244 220.888 29.8095 221.452 28.3997L220.338 27.954L219.224 27.5083C218.551 29.1918 218.107 31.2436 217.868 33.6346L219.062 33.754ZM220.338 27.954L221.443 28.4234C222.025 27.0539 222.846 25.9923 223.9 25.202L223.18 24.242L222.46 23.282C221.039 24.3477 219.966 25.7608 219.234 27.4846L220.338 27.954ZM223.18 24.242L223.886 25.2125C224.984 24.4142 226.45 23.8113 228.337 23.4484L228.11 22.27L227.884 21.0916C225.749 21.502 223.929 22.2138 222.474 23.2715L223.18 24.242ZM228.11 22.27L228.358 23.444C230.259 23.0419 232.683 22.832 235.65 22.832V21.632V20.432C232.586 20.432 229.982 20.6474 227.862 21.096L228.11 22.27ZM235.65 21.632V22.832C236.784 22.832 237.957 22.8698 239.171 22.9457L239.246 21.748L239.321 20.5503C238.06 20.4715 236.837 20.432 235.65 20.432V21.632ZM239.246 21.748L239.171 22.9457C240.382 23.0213 241.553 23.1347 242.684 23.2855L242.842 22.096L243.001 20.9065C241.811 20.7479 240.585 20.6293 239.321 20.5503L239.246 21.748ZM242.842 22.096L242.684 23.2855C243.806 23.4351 244.731 23.6186 245.47 23.8298L245.8 22.676L246.13 21.5222C245.245 21.2694 244.198 21.0662 243.001 20.9065L242.842 22.096ZM245.8 22.676H244.6V29.926H245.8H247V22.676H245.8ZM245.8 29.926L245.916 28.7316C244.711 28.615 243.601 28.5176 242.586 28.4395L242.494 29.636L242.402 30.8325C243.398 30.9091 244.492 31.005 245.685 31.1204L245.8 29.926ZM242.494 29.636L242.637 28.4445C241.637 28.3246 240.737 28.262 239.942 28.262V29.462V30.662C240.617 30.662 241.418 30.7154 242.351 30.8274L242.494 29.636ZM239.942 29.462L240.005 28.2637C239.258 28.2243 238.617 28.204 238.086 28.204V29.404V30.604C238.561 30.604 239.157 30.6223 239.879 30.6603L239.942 29.462ZM238.086 29.404V28.204C236.279 28.204 234.752 28.2822 233.52 28.4465L233.678 29.636L233.837 30.8255C234.925 30.6804 236.336 30.604 238.086 30.604V29.404ZM233.678 29.636L233.555 28.4424C232.306 28.5715 231.198 28.9048 230.318 29.5256L231.01 30.506L231.702 31.4864C232.137 31.1792 232.807 30.9325 233.802 30.8296L233.678 29.636ZM231.01 30.506L230.318 29.5256C229.41 30.1667 228.794 31.0973 228.422 32.2145L229.56 32.594L230.699 32.9735C230.945 32.2347 231.296 31.7733 231.702 31.4864L231.01 30.506ZM229.56 32.594L228.427 32.1998C228.068 33.2301 227.845 34.5654 227.725 36.1582L228.922 36.248L230.119 36.3377C230.231 34.8372 230.433 33.7365 230.694 32.9882L229.56 32.594ZM228.922 36.248L227.724 36.1865C227.645 37.723 227.606 39.6788 227.606 42.048H228.806H230.006C230.006 39.6998 230.045 37.789 230.121 36.3095L228.922 36.248ZM228.806 42.048H227.606C227.606 44.3792 227.645 46.3341 227.724 47.9079L228.922 47.848L230.121 47.7881C230.045 46.2685 230.006 44.3568 230.006 42.048H228.806ZM228.922 47.848L227.725 47.9377C227.845 49.5327 228.068 50.8796 228.422 51.9395L229.56 51.56L230.699 51.1805C230.433 50.3844 230.231 49.2566 230.119 47.7583L228.922 47.848ZM229.56 51.56L228.422 51.9395C228.794 53.0567 229.41 53.9873 230.318 54.6284L231.01 53.648L231.702 52.6676C231.296 52.3807 230.945 51.9193 230.699 51.1805L229.56 51.56ZM231.01 53.648L230.358 54.6555C231.214 55.209 232.291 55.538 233.514 55.7067L233.678 54.518L233.842 53.3293C232.823 53.1887 232.121 52.9377 231.662 52.6405L231.01 53.648ZM233.678 54.518L233.559 55.712C234.773 55.8335 236.286 55.892 238.086 55.892V54.692V53.492C236.329 53.492 234.903 53.4345 233.798 53.324L233.678 54.518ZM238.086 54.692V55.892C239.31 55.892 240.684 55.8526 242.208 55.7744L242.146 54.576L242.085 53.3776C240.592 53.4541 239.26 53.492 238.086 53.492V54.692ZM242.146 54.576L242.238 55.7725C243.763 55.6552 245.086 55.5174 246.202 55.3579L246.032 54.17L245.862 52.9821C244.813 53.132 243.545 53.2648 242.054 53.3795L242.146 54.576ZM246.032 54.17H244.832V61.594H246.032H247.232V54.17H246.032ZM246.032 61.594L245.817 60.4134C245.01 60.5603 244.02 60.6917 242.843 60.8056L242.958 62L243.074 63.1944C244.294 63.0764 245.353 62.9371 246.247 62.7746L246.032 61.594ZM242.958 62L242.805 60.8099C241.634 60.9609 240.424 61.0744 239.174 61.1502L239.246 62.348L239.319 63.5458C240.62 63.4669 241.885 63.3485 243.112 63.1901L242.958 62ZM239.246 62.348L239.171 61.1503C237.957 61.2262 236.784 61.264 235.65 61.264V62.464V63.664C236.837 63.664 238.06 63.6244 239.321 63.5457L239.246 62.348ZM265.19 62H263.99V63.2H265.19V62ZM265.19 30.216H266.39V29.016H265.19V30.216ZM254.286 30.216H253.086V31.416H254.286V30.216ZM254.286 22.096V20.896H253.086V22.096H254.286ZM286.244 22.096H287.444V20.896H286.244V22.096ZM286.244 30.216V31.416H287.444V30.216H286.244ZM275.282 30.216V29.016H274.082V30.216H275.282ZM275.282 62V63.2H276.482V62H275.282ZM265.19 62H266.39V30.216H265.19H263.99V62H265.19ZM265.19 30.216V29.016H254.286V30.216V31.416H265.19V30.216ZM254.286 30.216H255.486V22.096H254.286H253.086V30.216H254.286ZM254.286 22.096V23.296H286.244V22.096V20.896H254.286V22.096ZM286.244 22.096H285.044V30.216H286.244H287.444V22.096H286.244ZM286.244 30.216V29.016H275.282V30.216V31.416H286.244V30.216ZM275.282 30.216H274.082V62H275.282H276.482V30.216H275.282ZM275.282 62V60.8H265.19V62V63.2H275.282V62Z" fill="#80CD82" mask="url(#path-1-outside-1_149_10)"/>
</g>
</g>
<defs>
<filter id="filter0_d_149_10" x="2.93472" y="7.73188" width="297.21" height="68.6322" filterUnits="userSpaceOnUse" color-interpolation-filters="sRGB">
<feFlood flood-opacity="0" result="BackgroundImageFix"/>
<feColorMatrix in="SourceAlpha" type="matrix" values="0 0 0 0 0 0 0 0 0 0 0 0 0 0 0 0 0 0 127 0" result="hardAlpha"/>
<feOffset/>
<feGaussianBlur stdDeviation="6.35"/>
<feComposite in2="hardAlpha" operator="out"/>
<feColorMatrix type="matrix" values="0 0 0 0 0.83101 0 0 0 0 1 0 0 0 0 0.822115 0 0 0 0.45 0"/>
<feBlend mode="normal" in2="BackgroundImageFix" result="effect1_dropShadow_149_10"/>
<feBlend mode="normal" in="SourceGraphic" in2="effect1_dropShadow_149_10" result="shape"/>
</filter>
<linearGradient id="paint0_linear_149_10" x1="0" y1="42" x2="300" y2="42" gradientUnits="userSpaceOnUse">
<stop stop-color="#C9FFCF"/>
<stop offset="1" stop-color="#CEFF9E"/>
</linearGradient>
<clipPath id="clip0_149_10">
<rect width="300" height="80" fill="white"/>
</clipPath>
</defs>
</svg>
