<svg width="300" height="80" viewBox="0 0 300 80" fill="none" xmlns="http://www.w3.org/2000/svg">
<g clip-path="url(#clip0_149_10)">
<g filter="url(#filter0_d_149_10)">
<mask id="path-1-outside-1_149_10" maskUnits="userSpaceOnUse" x="6" y="20" width="290" height="44" fill="black">
<rect fill="white" x="6" y="20" width="290" height="44"/>
<path d="M7.25996 62V22.096H32.026V26.388H12.248V40.598H29.88V44.89H12.248V62H7.25996ZM40.0549 62V22.096H45.0429V57.592H63.6609V62H40.0549ZM67.0879 62L82.1679 22.096H88.4319L103.454 62H98.2919L94.1739 51.096H76.2519L72.1339 62H67.0879ZM77.7599 46.746H92.6659L85.3579 27.2H85.0679L77.7599 46.746ZM115.214 62L104.368 22.096H109.472L118.346 55.504H118.694L128.438 22.096H133.658L143.46 55.504H143.808L152.45 22.096H157.438L146.592 62H140.676L131.048 29.694H130.816L121.188 62H115.214ZM165.344 62V22.096H170.332V57.592H188.95V62H165.344ZM196.553 62V22.096H222.479V26.388H201.541V39.67H219.753V44.02H201.541V57.708H222.479V62H196.553ZM244.782 62.464C243.352 62.464 241.786 62.4253 240.084 62.348C238.383 62.2707 236.72 62.174 235.096 62.058C233.511 61.942 232.061 61.8067 230.746 61.652V57.418C232.138 57.534 233.588 57.65 235.096 57.766C236.643 57.882 238.132 57.9787 239.562 58.056C241.032 58.1333 242.269 58.172 243.274 58.172C245.324 58.172 246.967 58.0947 248.204 57.94C249.442 57.7467 250.486 57.3987 251.336 56.896C251.916 56.548 252.342 56.084 252.612 55.504C252.883 54.924 253.038 54.2473 253.076 53.474C253.154 52.7007 253.192 51.8693 253.192 50.98C253.192 49.6653 253.154 48.602 253.076 47.79C252.999 46.978 252.786 46.3593 252.438 45.934C252.129 45.47 251.607 45.1413 250.872 44.948C250.138 44.716 249.152 44.542 247.914 44.426L237.996 43.324C236.14 43.092 234.652 42.7053 233.53 42.164C232.409 41.584 231.558 40.8687 230.978 40.018C230.437 39.1287 230.07 38.0847 229.876 36.886C229.683 35.6487 229.586 34.276 229.586 32.768C229.586 30.332 229.896 28.3793 230.514 26.91C231.172 25.4407 232.119 24.3193 233.356 23.546C234.594 22.7727 236.082 22.27 237.822 22.038C239.601 21.7673 241.631 21.632 243.912 21.632C245.382 21.632 246.89 21.6707 248.436 21.748C249.983 21.8253 251.433 21.9413 252.786 22.096C254.178 22.212 255.319 22.3667 256.208 22.56V26.678C255.203 26.5233 254.043 26.388 252.728 26.272C251.414 26.156 250.06 26.0787 248.668 26.04C247.315 25.9627 246.02 25.924 244.782 25.924C242.656 25.924 240.935 26.0207 239.62 26.214C238.306 26.4073 237.262 26.7553 236.488 27.258C235.638 27.7607 235.096 28.476 234.864 29.404C234.671 30.2933 234.574 31.376 234.574 32.652C234.574 34.16 234.671 35.3393 234.864 36.19C235.096 37.002 235.56 37.582 236.256 37.93C236.991 38.2393 238.074 38.4713 239.504 38.626L249.19 39.728C250.582 39.844 251.8 40.0373 252.844 40.308C253.927 40.54 254.855 40.946 255.628 41.526C256.402 42.106 256.982 42.9373 257.368 44.02C257.6 44.5613 257.774 45.1607 257.89 45.818C258.006 46.4753 258.084 47.21 258.122 48.022C258.2 48.7953 258.238 49.6653 258.238 50.632C258.238 52.836 258.026 54.6727 257.6 56.142C257.175 57.5727 256.576 58.7133 255.802 59.564C255.029 60.4147 254.082 61.0527 252.96 61.478C251.839 61.9033 250.582 62.174 249.19 62.29C247.837 62.406 246.368 62.464 244.782 62.464ZM281.202 62.464C279.771 62.464 278.205 62.4253 276.504 62.348C274.803 62.2707 273.14 62.174 271.516 62.058C269.931 61.942 268.481 61.8067 267.166 61.652V57.418C268.558 57.534 270.008 57.65 271.516 57.766C273.063 57.882 274.551 57.9787 275.982 58.056C277.451 58.1333 278.689 58.172 279.694 58.172C281.743 58.172 283.387 58.0947 284.624 57.94C285.861 57.7467 286.905 57.3987 287.756 56.896C288.336 56.548 288.761 56.084 289.032 55.504C289.303 54.924 289.457 54.2473 289.496 53.474C289.573 52.7007 289.612 51.8693 289.612 50.98C289.612 49.6653 289.573 48.602 289.496 47.79C289.419 46.978 289.206 46.3593 288.858 45.934C288.549 45.47 288.027 45.1413 287.292 44.948C286.557 44.716 285.571 44.542 284.334 44.426L274.416 43.324C272.56 43.092 271.071 42.7053 269.95 42.164C268.829 41.584 267.978 40.8687 267.398 40.018C266.857 39.1287 266.489 38.0847 266.296 36.886C266.103 35.6487 266.006 34.276 266.006 32.768C266.006 30.332 266.315 28.3793 266.934 26.91C267.591 25.4407 268.539 24.3193 269.776 23.546C271.013 22.7727 272.502 22.27 274.242 22.038C276.021 21.7673 278.051 21.632 280.332 21.632C281.801 21.632 283.309 21.6707 284.856 21.748C286.403 21.8253 287.853 21.9413 289.206 22.096C290.598 22.212 291.739 22.3667 292.628 22.56V26.678C291.623 26.5233 290.463 26.388 289.148 26.272C287.833 26.156 286.48 26.0787 285.088 26.04C283.735 25.9627 282.439 25.924 281.202 25.924C279.075 25.924 277.355 26.0207 276.04 26.214C274.725 26.4073 273.681 26.7553 272.908 27.258C272.057 27.7607 271.516 28.476 271.284 29.404C271.091 30.2933 270.994 31.376 270.994 32.652C270.994 34.16 271.091 35.3393 271.284 36.19C271.516 37.002 271.98 37.582 272.676 37.93C273.411 38.2393 274.493 38.4713 275.924 38.626L285.61 39.728C287.002 39.844 288.22 40.0373 289.264 40.308C290.347 40.54 291.275 40.946 292.048 41.526C292.821 42.106 293.401 42.9373 293.788 44.02C294.02 44.5613 294.194 45.1607 294.31 45.818C294.426 46.4753 294.503 47.21 294.542 48.022C294.619 48.7953 294.658 49.6653 294.658 50.632C294.658 52.836 294.445 54.6727 294.02 56.142C293.595 57.5727 292.995 58.7133 292.222 59.564C291.449 60.4147 290.501 61.0527 289.38 61.478C288.259 61.9033 287.002 62.174 285.61 62.29C284.257 62.406 282.787 62.464 281.202 62.464Z"/>
</mask>
<path d="M7.25996 62V22.096H32.026V26.388H12.248V40.598H29.88V44.89H12.248V62H7.25996ZM40.0549 62V22.096H45.0429V57.592H63.6609V62H40.0549ZM67.0879 62L82.1679 22.096H88.4319L103.454 62H98.2919L94.1739 51.096H76.2519L72.1339 62H67.0879ZM77.7599 46.746H92.6659L85.3579 27.2H85.0679L77.7599 46.746ZM115.214 62L104.368 22.096H109.472L118.346 55.504H118.694L128.438 22.096H133.658L143.46 55.504H143.808L152.45 22.096H157.438L146.592 62H140.676L131.048 29.694H130.816L121.188 62H115.214ZM165.344 62V22.096H170.332V57.592H188.95V62H165.344ZM196.553 62V22.096H222.479V26.388H201.541V39.67H219.753V44.02H201.541V57.708H222.479V62H196.553ZM244.782 62.464C243.352 62.464 241.786 62.4253 240.084 62.348C238.383 62.2707 236.72 62.174 235.096 62.058C233.511 61.942 232.061 61.8067 230.746 61.652V57.418C232.138 57.534 233.588 57.65 235.096 57.766C236.643 57.882 238.132 57.9787 239.562 58.056C241.032 58.1333 242.269 58.172 243.274 58.172C245.324 58.172 246.967 58.0947 248.204 57.94C249.442 57.7467 250.486 57.3987 251.336 56.896C251.916 56.548 252.342 56.084 252.612 55.504C252.883 54.924 253.038 54.2473 253.076 53.474C253.154 52.7007 253.192 51.8693 253.192 50.98C253.192 49.6653 253.154 48.602 253.076 47.79C252.999 46.978 252.786 46.3593 252.438 45.934C252.129 45.47 251.607 45.1413 250.872 44.948C250.138 44.716 249.152 44.542 247.914 44.426L237.996 43.324C236.14 43.092 234.652 42.7053 233.53 42.164C232.409 41.584 231.558 40.8687 230.978 40.018C230.437 39.1287 230.07 38.0847 229.876 36.886C229.683 35.6487 229.586 34.276 229.586 32.768C229.586 30.332 229.896 28.3793 230.514 26.91C231.172 25.4407 232.119 24.3193 233.356 23.546C234.594 22.7727 236.082 22.27 237.822 22.038C239.601 21.7673 241.631 21.632 243.912 21.632C245.382 21.632 246.89 21.6707 248.436 21.748C249.983 21.8253 251.433 21.9413 252.786 22.096C254.178 22.212 255.319 22.3667 256.208 22.56V26.678C255.203 26.5233 254.043 26.388 252.728 26.272C251.414 26.156 250.06 26.0787 248.668 26.04C247.315 25.9627 246.02 25.924 244.782 25.924C242.656 25.924 240.935 26.0207 239.62 26.214C238.306 26.4073 237.262 26.7553 236.488 27.258C235.638 27.7607 235.096 28.476 234.864 29.404C234.671 30.2933 234.574 31.376 234.574 32.652C234.574 34.16 234.671 35.3393 234.864 36.19C235.096 37.002 235.56 37.582 236.256 37.93C236.991 38.2393 238.074 38.4713 239.504 38.626L249.19 39.728C250.582 39.844 251.8 40.0373 252.844 40.308C253.927 40.54 254.855 40.946 255.628 41.526C256.402 42.106 256.982 42.9373 257.368 44.02C257.6 44.5613 257.774 45.1607 257.89 45.818C258.006 46.4753 258.084 47.21 258.122 48.022C258.2 48.7953 258.238 49.6653 258.238 50.632C258.238 52.836 258.026 54.6727 257.6 56.142C257.175 57.5727 256.576 58.7133 255.802 59.564C255.029 60.4147 254.082 61.0527 252.96 61.478C251.839 61.9033 250.582 62.174 249.19 62.29C247.837 62.406 246.368 62.464 244.782 62.464ZM281.202 62.464C279.771 62.464 278.205 62.4253 276.504 62.348C274.803 62.2707 273.14 62.174 271.516 62.058C269.931 61.942 268.481 61.8067 267.166 61.652V57.418C268.558 57.534 270.008 57.65 271.516 57.766C273.063 57.882 274.551 57.9787 275.982 58.056C277.451 58.1333 278.689 58.172 279.694 58.172C281.743 58.172 283.387 58.0947 284.624 57.94C285.861 57.7467 286.905 57.3987 287.756 56.896C288.336 56.548 288.761 56.084 289.032 55.504C289.303 54.924 289.457 54.2473 289.496 53.474C289.573 52.7007 289.612 51.8693 289.612 50.98C289.612 49.6653 289.573 48.602 289.496 47.79C289.419 46.978 289.206 46.3593 288.858 45.934C288.549 45.47 288.027 45.1413 287.292 44.948C286.557 44.716 285.571 44.542 284.334 44.426L274.416 43.324C272.56 43.092 271.071 42.7053 269.95 42.164C268.829 41.584 267.978 40.8687 267.398 40.018C266.857 39.1287 266.489 38.0847 266.296 36.886C266.103 35.6487 266.006 34.276 266.006 32.768C266.006 30.332 266.315 28.3793 266.934 26.91C267.591 25.4407 268.539 24.3193 269.776 23.546C271.013 22.7727 272.502 22.27 274.242 22.038C276.021 21.7673 278.051 21.632 280.332 21.632C281.801 21.632 283.309 21.6707 284.856 21.748C286.403 21.8253 287.853 21.9413 289.206 22.096C290.598 22.212 291.739 22.3667 292.628 22.56V26.678C291.623 26.5233 290.463 26.388 289.148 26.272C287.833 26.156 286.48 26.0787 285.088 26.04C283.735 25.9627 282.439 25.924 281.202 25.924C279.075 25.924 277.355 26.0207 276.04 26.214C274.725 26.4073 273.681 26.7553 272.908 27.258C272.057 27.7607 271.516 28.476 271.284 29.404C271.091 30.2933 270.994 31.376 270.994 32.652C270.994 34.16 271.091 35.3393 271.284 36.19C271.516 37.002 271.98 37.582 272.676 37.93C273.411 38.2393 274.493 38.4713 275.924 38.626L285.61 39.728C287.002 39.844 288.22 40.0373 289.264 40.308C290.347 40.54 291.275 40.946 292.048 41.526C292.821 42.106 293.401 42.9373 293.788 44.02C294.02 44.5613 294.194 45.1607 294.31 45.818C294.426 46.4753 294.503 47.21 294.542 48.022C294.619 48.7953 294.658 49.6653 294.658 50.632C294.658 52.836 294.445 54.6727 294.02 56.142C293.595 57.5727 292.995 58.7133 292.222 59.564C291.449 60.4147 290.501 61.0527 289.38 61.478C288.259 61.9033 287.002 62.174 285.61 62.29C284.257 62.406 282.787 62.464 281.202 62.464Z" fill="#C9FFCF"/>
<path d="M7.25996 62H6.05996V63.2H7.25996V62ZM7.25996 22.096V20.896H6.05996V22.096H7.25996ZM32.026 22.096H33.226V20.896H32.026V22.096ZM32.026 26.388V27.588H33.226V26.388H32.026ZM12.248 26.388V25.188H11.048V26.388H12.248ZM12.248 40.598H11.048V41.798H12.248V40.598ZM29.88 40.598H31.08V39.398H29.88V40.598ZM29.88 44.89V46.09H31.08V44.89H29.88ZM12.248 44.89V43.69H11.048V44.89H12.248ZM12.248 62V63.2H13.448V62H12.248ZM7.25996 62H8.45996V22.096H7.25996H6.05996V62H7.25996ZM7.25996 22.096V23.296H32.026V22.096V20.896H7.25996V22.096ZM32.026 22.096H30.826V26.388H32.026H33.226V22.096H32.026ZM32.026 26.388V25.188H12.248V26.388V27.588H32.026V26.388ZM12.248 26.388H11.048V40.598H12.248H13.448V26.388H12.248ZM12.248 40.598V41.798H29.88V40.598V39.398H12.248V40.598ZM29.88 40.598H28.68V44.89H29.88H31.08V40.598H29.88ZM29.88 44.89V43.69H12.248V44.89V46.09H29.88V44.89ZM12.248 44.89H11.048V62H12.248H13.448V44.89H12.248ZM12.248 62V60.8H7.25996V62V63.2H12.248V62ZM40.0549 62H38.8549V63.2H40.0549V62ZM40.0549 22.096V20.896H38.8549V22.096H40.0549ZM45.0429 22.096H46.2429V20.896H45.0429V22.096ZM45.0429 57.592H43.8429V58.792H45.0429V57.592ZM63.6609 57.592H64.8609V56.392H63.6609V57.592ZM63.6609 62V63.2H64.8609V62H63.6609ZM40.0549 62H41.2549V22.096H40.0549H38.8549V62H40.0549ZM40.0549 22.096V23.296H45.0429V22.096V20.896H40.0549V22.096ZM45.0429 22.096H43.8429V57.592H45.0429H46.2429V22.096H45.0429ZM45.0429 57.592V58.792H63.6609V57.592V56.392H45.0429V57.592ZM63.6609 57.592H62.4609V62H63.6609H64.8609V57.592H63.6609ZM63.6609 62V60.8H40.0549V62V63.2H63.6609V62ZM67.0879 62L65.9653 61.5758L65.3515 63.2H67.0879V62ZM82.1679 22.096V20.896H81.3385L81.0453 21.6718L82.1679 22.096ZM88.4319 22.096L89.5549 21.6732L89.2623 20.896H88.4319V22.096ZM103.454 62V63.2H105.188L104.577 61.5772L103.454 62ZM98.2919 62L97.1693 62.424L97.4623 63.2H98.2919V62ZM94.1739 51.096L95.2965 50.672L95.0034 49.896H94.1739V51.096ZM76.2519 51.096V49.896H75.4223L75.1293 50.672L76.2519 51.096ZM72.1339 62V63.2H72.9634L73.2565 62.424L72.1339 62ZM77.7599 46.746L76.6359 46.3257L76.0301 47.946H77.7599V46.746ZM92.6659 46.746V47.946H94.3957L93.7899 46.3257L92.6659 46.746ZM85.3579 27.2L86.4819 26.7797L86.1903 26H85.3579V27.2ZM85.0679 27.2V26H84.2354L83.9439 26.7797L85.0679 27.2ZM67.0879 62L68.2104 62.4242L83.2904 22.5202L82.1679 22.096L81.0453 21.6718L65.9653 61.5758L67.0879 62ZM82.1679 22.096V23.296H88.4319V22.096V20.896H82.1679V22.096ZM88.4319 22.096L87.3088 22.5188L102.331 62.4228L103.454 62L104.577 61.5772L89.5549 21.6732L88.4319 22.096ZM103.454 62V60.8H98.2919V62V63.2H103.454V62ZM98.2919 62L99.4145 61.576L95.2965 50.672L94.1739 51.096L93.0513 51.52L97.1693 62.424L98.2919 62ZM94.1739 51.096V49.896H76.2519V51.096V52.296H94.1739V51.096ZM76.2519 51.096L75.1293 50.672L71.0113 61.576L72.1339 62L73.2565 62.424L77.3745 51.52L76.2519 51.096ZM72.1339 62V60.8H67.0879V62V63.2H72.1339V62ZM77.7599 46.746V47.946H92.6659V46.746V45.546H77.7599V46.746ZM92.6659 46.746L93.7899 46.3257L86.4819 26.7797L85.3579 27.2L84.2339 27.6202L91.5419 47.1663L92.6659 46.746ZM85.3579 27.2V26H85.0679V27.2V28.4H85.3579V27.2ZM85.0679 27.2L83.9439 26.7797L76.6359 46.3257L77.7599 46.746L78.8839 47.1663L86.1919 27.6203L85.0679 27.2ZM115.214 62L114.056 62.3147L114.297 63.2H115.214V62ZM104.368 22.096V20.896H102.799L103.21 22.4107L104.368 22.096ZM109.472 22.096L110.632 21.7879L110.395 20.896H109.472V22.096ZM118.346 55.504L117.186 55.8121L117.423 56.704H118.346V55.504ZM118.694 55.504V56.704H119.594L119.846 55.84L118.694 55.504ZM128.438 22.096V20.896H127.538L127.286 21.76L128.438 22.096ZM133.658 22.096L134.81 21.7582L134.557 20.896H133.658V22.096ZM143.46 55.504L142.309 55.8418L142.562 56.704H143.46V55.504ZM143.808 55.504V56.704H144.737L144.97 55.8045L143.808 55.504ZM152.45 22.096V20.896H151.521L151.289 21.7955L152.45 22.096ZM157.438 22.096L158.596 22.4107L159.008 20.896H157.438V22.096ZM146.592 62V63.2H147.51L147.75 62.3147L146.592 62ZM140.676 62L139.526 62.3427L139.782 63.2H140.676V62ZM131.048 29.694L132.198 29.3513L131.943 28.494H131.048V29.694ZM130.816 29.694V28.494H129.922L129.666 29.3513L130.816 29.694ZM121.188 62V63.2H122.083L122.338 62.3427L121.188 62ZM115.214 62L116.372 61.6853L105.526 21.7813L104.368 22.096L103.21 22.4107L114.056 62.3147L115.214 62ZM104.368 22.096V23.296H109.472V22.096V20.896H104.368V22.096ZM109.472 22.096L108.312 22.4041L117.186 55.8121L118.346 55.504L119.506 55.1959L110.632 21.7879L109.472 22.096ZM118.346 55.504V56.704H118.694V55.504V54.304H118.346V55.504ZM118.694 55.504L119.846 55.84L129.59 22.432L128.438 22.096L127.286 21.76L117.542 55.168L118.694 55.504ZM128.438 22.096V23.296H133.658V22.096V20.896H128.438V22.096ZM133.658 22.096L132.507 22.4338L142.309 55.8418L143.46 55.504L144.612 55.1662L134.81 21.7582L133.658 22.096ZM143.46 55.504V56.704H143.808V55.504V54.304H143.46V55.504ZM143.808 55.504L144.97 55.8045L153.612 22.3965L152.45 22.096L151.289 21.7955L142.647 55.2035L143.808 55.504ZM152.45 22.096V23.296H157.438V22.096V20.896H152.45V22.096ZM157.438 22.096L156.28 21.7813L145.434 61.6853L146.592 62L147.75 62.3147L158.596 22.4107L157.438 22.096ZM146.592 62V60.8H140.676V62V63.2H146.592V62ZM140.676 62L141.826 61.6573L132.198 29.3513L131.048 29.694L129.898 30.0367L139.526 62.3427L140.676 62ZM131.048 29.694V28.494H130.816V29.694V30.894H131.048V29.694ZM130.816 29.694L129.666 29.3513L120.038 61.6573L121.188 62L122.338 62.3427L131.966 30.0367L130.816 29.694ZM121.188 62V60.8H115.214V62V63.2H121.188V62ZM165.344 62H164.144V63.2H165.344V62ZM165.344 22.096V20.896H164.144V22.096H165.344ZM170.332 22.096H171.532V20.896H170.332V22.096ZM170.332 57.592H169.132V58.792H170.332V57.592ZM188.95 57.592H190.15V56.392H188.95V57.592ZM188.95 62V63.2H190.15V62H188.95ZM165.344 62H166.544V22.096H165.344H164.144V62H165.344ZM165.344 22.096V23.296H170.332V22.096V20.896H165.344V22.096ZM170.332 22.096H169.132V57.592H170.332H171.532V22.096H170.332ZM170.332 57.592V58.792H188.95V57.592V56.392H170.332V57.592ZM188.95 57.592H187.75V62H188.95H190.15V57.592H188.95ZM188.95 62V60.8H165.344V62V63.2H188.95V62ZM196.553 62H195.353V63.2H196.553V62ZM196.553 22.096V20.896H195.353V22.096H196.553ZM222.479 22.096H223.679V20.896H222.479V22.096ZM222.479 26.388V27.588H223.679V26.388H222.479ZM201.541 26.388V25.188H200.341V26.388H201.541ZM201.541 39.67H200.341V40.87H201.541V39.67ZM219.753 39.67H220.953V38.47H219.753V39.67ZM219.753 44.02V45.22H220.953V44.02H219.753ZM201.541 44.02V42.82H200.341V44.02H201.541ZM201.541 57.708H200.341V58.908H201.541V57.708ZM222.479 57.708H223.679V56.508H222.479V57.708ZM222.479 62V63.2H223.679V62H222.479ZM196.553 62H197.753V22.096H196.553H195.353V62H196.553ZM196.553 22.096V23.296H222.479V22.096V20.896H196.553V22.096ZM222.479 22.096H221.279V26.388H222.479H223.679V22.096H222.479ZM222.479 26.388V25.188H201.541V26.388V27.588H222.479V26.388ZM201.541 26.388H200.341V39.67H201.541H202.741V26.388H201.541ZM201.541 39.67V40.87H219.753V39.67V38.47H201.541V39.67ZM219.753 39.67H218.553V44.02H219.753H220.953V39.67H219.753ZM219.753 44.02V42.82H201.541V44.02V45.22H219.753V44.02ZM201.541 44.02H200.341V57.708H201.541H202.741V44.02H201.541ZM201.541 57.708V58.908H222.479V57.708V56.508H201.541V57.708ZM222.479 57.708H221.279V62H222.479H223.679V57.708H222.479ZM222.479 62V60.8H196.553V62V63.2H222.479V62ZM240.084 62.348L240.03 63.5468L240.084 62.348ZM235.096 62.058L235.009 63.2548L235.011 63.255L235.096 62.058ZM230.746 61.652H229.546V62.7191L230.606 62.8438L230.746 61.652ZM230.746 57.418L230.846 56.2221L229.546 56.1138V57.418H230.746ZM235.096 57.766L235.004 58.9625L235.006 58.9626L235.096 57.766ZM239.562 58.056L239.497 59.2543L239.499 59.2543L239.562 58.056ZM248.204 57.94L248.353 59.1307L248.371 59.1285L248.389 59.1256L248.204 57.94ZM251.336 56.896L251.947 57.9291L251.954 57.925L251.336 56.896ZM253.076 53.474L251.882 53.3546L251.879 53.3843L251.878 53.4141L253.076 53.474ZM252.438 45.934L251.44 46.5996L251.472 46.6485L251.509 46.6939L252.438 45.934ZM250.872 44.948L250.511 46.0923L250.539 46.1011L250.567 46.1085L250.872 44.948ZM247.914 44.426L247.782 45.6187L247.792 45.6198L247.802 45.6208L247.914 44.426ZM237.996 43.324L237.847 44.5147L237.856 44.5158L237.864 44.5167L237.996 43.324ZM233.53 42.164L232.979 43.2299L232.994 43.2375L233.008 43.2447L233.53 42.164ZM230.978 40.018L229.953 40.6419L229.969 40.6684L229.987 40.694L230.978 40.018ZM229.876 36.886L228.691 37.0713L228.692 37.0771L229.876 36.886ZM230.514 26.91L229.419 26.42L229.413 26.4321L229.408 26.4443L230.514 26.91ZM233.356 23.546L232.72 22.5284L232.72 22.5284L233.356 23.546ZM237.822 22.038L237.981 23.2275L237.992 23.226L238.003 23.2243L237.822 22.038ZM248.436 21.748L248.376 22.9465L248.376 22.9465L248.436 21.748ZM252.786 22.096L252.65 23.2882L252.668 23.2903L252.687 23.2919L252.786 22.096ZM256.208 22.56H257.408V21.5928L256.463 21.3874L256.208 22.56ZM256.208 26.678L256.026 27.864L257.408 28.0767V26.678H256.208ZM252.728 26.272L252.834 25.0766L252.834 25.0766L252.728 26.272ZM248.668 26.04L248.6 27.238L248.617 27.239L248.635 27.2395L248.668 26.04ZM239.62 26.214L239.446 25.0268L239.446 25.0268L239.62 26.214ZM236.488 27.258L237.099 28.2911L237.121 28.2781L237.142 28.2641L236.488 27.258ZM234.864 29.404L233.7 29.113L233.696 29.131L233.692 29.1491L234.864 29.404ZM234.864 36.19L233.694 36.4559L233.701 36.488L233.71 36.5197L234.864 36.19ZM236.256 37.93L235.72 39.0033L235.755 39.0208L235.791 39.036L236.256 37.93ZM239.504 38.626L239.64 37.4337L239.633 37.4329L239.504 38.626ZM249.19 39.728L249.055 40.9203L249.073 40.9224L249.091 40.9239L249.19 39.728ZM252.844 40.308L252.543 41.4696L252.568 41.476L252.593 41.4814L252.844 40.308ZM255.628 41.526L254.908 42.486L254.908 42.486L255.628 41.526ZM257.368 44.02L256.238 44.4236L256.251 44.4586L256.265 44.4927L257.368 44.02ZM257.89 45.818L256.708 46.0265L256.708 46.0265L257.89 45.818ZM258.122 48.022L256.924 48.0791L256.925 48.1103L256.928 48.1414L258.122 48.022ZM257.6 56.142L258.75 56.484L258.753 56.4757L257.6 56.142ZM255.802 59.564L256.69 60.3712L256.69 60.3712L255.802 59.564ZM252.96 61.478L253.386 62.6L253.386 62.6L252.96 61.478ZM249.19 62.29L249.091 61.0941L249.088 61.0944L249.19 62.29ZM244.782 62.464V61.264C243.373 61.264 241.825 61.2259 240.139 61.1492L240.084 62.348L240.03 63.5468C241.746 63.6248 243.33 63.664 244.782 63.664V62.464ZM240.084 62.348L240.139 61.1492C238.447 61.0724 236.795 60.9763 235.182 60.861L235.096 62.058L235.011 63.255C236.645 63.3717 238.319 63.469 240.03 63.5468L240.084 62.348ZM235.096 62.058L235.184 60.8612C233.613 60.7462 232.181 60.6125 230.886 60.4602L230.746 61.652L230.606 62.8438C231.941 63.0009 233.409 63.1378 235.009 63.2548L235.096 62.058ZM230.746 61.652H231.946V57.418H230.746H229.546V61.652H230.746ZM230.746 57.418L230.647 58.6139C232.041 58.7301 233.494 58.8463 235.004 58.9625L235.096 57.766L235.188 56.5695C233.683 56.4537 232.235 56.3379 230.846 56.2221L230.746 57.418ZM235.096 57.766L235.006 58.9626C236.561 59.0792 238.058 59.1764 239.497 59.2543L239.562 58.056L239.627 56.8577C238.205 56.7809 236.725 56.6848 235.186 56.5694L235.096 57.766ZM239.562 58.056L239.499 59.2543C240.981 59.3323 242.241 59.372 243.274 59.372V58.172V56.972C242.297 56.972 241.082 56.9343 239.625 56.8577L239.562 58.056ZM243.274 58.172V59.372C245.346 59.372 247.045 59.2942 248.353 59.1307L248.204 57.94L248.055 56.7493C246.889 56.8951 245.301 56.972 243.274 56.972V58.172ZM248.204 57.94L248.389 59.1256C249.738 58.9148 250.935 58.5267 251.947 57.9291L251.336 56.896L250.726 55.8629C250.036 56.2706 249.145 56.5785 248.019 56.7544L248.204 57.94ZM251.336 56.896L251.954 57.925C252.726 57.4613 253.322 56.8209 253.7 56.0115L252.612 55.504L251.525 54.9965C251.361 55.3471 251.106 55.6347 250.719 55.867L251.336 56.896ZM252.612 55.504L253.7 56.0115C254.048 55.2647 254.23 54.4305 254.275 53.5339L253.076 53.474L251.878 53.4141C251.845 54.0641 251.718 54.5833 251.525 54.9965L252.612 55.504ZM253.076 53.474L254.27 53.5934C254.352 52.7752 254.392 51.9037 254.392 50.98H253.192H251.992C251.992 51.835 251.955 52.6261 251.882 53.3546L253.076 53.474ZM253.192 50.98H254.392C254.392 49.6473 254.353 48.5417 254.271 47.6762L253.076 47.79L251.882 47.9038C251.954 48.6623 251.992 49.6834 251.992 50.98H253.192ZM253.076 47.79L254.271 47.6762C254.181 46.7354 253.922 45.8529 253.367 45.1741L252.438 45.934L251.509 46.6939C251.65 46.8658 251.817 47.2206 251.882 47.9038L253.076 47.79ZM252.438 45.934L253.437 45.2684C252.914 44.4838 252.092 44.0283 251.178 43.7875L250.872 44.948L250.567 46.1085C251.121 46.2544 251.344 46.4562 251.44 46.5996L252.438 45.934ZM250.872 44.948L251.234 43.8037C250.384 43.5354 249.303 43.351 248.026 43.2312L247.914 44.426L247.802 45.6208C249 45.733 249.891 45.8966 250.511 46.0923L250.872 44.948ZM247.914 44.426L248.047 43.2333L238.129 42.1313L237.996 43.324L237.864 44.5167L247.782 45.6187L247.914 44.426ZM237.996 43.324L238.145 42.1333C236.36 41.9102 235.012 41.5471 234.052 41.0833L233.53 42.164L233.008 43.2447C234.291 43.8636 235.92 44.2738 237.847 44.5147L237.996 43.324ZM233.53 42.164L234.082 41.0981C233.097 40.5891 232.415 39.995 231.97 39.342L230.978 40.018L229.987 40.694C230.701 41.7423 231.72 42.5789 232.979 43.2299L233.53 42.164ZM230.978 40.018L232.003 39.3941C231.555 38.6575 231.234 37.7654 231.061 36.6949L229.876 36.886L228.692 37.0771C228.906 38.4039 229.319 39.5999 229.953 40.6419L230.978 40.018ZM229.876 36.886L231.062 36.7007C230.88 35.5356 230.786 34.226 230.786 32.768H229.586H228.386C228.386 34.326 228.486 35.7618 228.691 37.0713L229.876 36.886ZM229.586 32.768H230.786C230.786 30.416 231.087 28.6408 231.62 27.3757L230.514 26.91L229.408 26.4443C228.704 28.1178 228.386 30.248 228.386 32.768H229.586ZM230.514 26.91L231.61 27.4C232.18 26.1249 232.978 25.1977 233.992 24.5636L233.356 23.546L232.72 22.5284C231.26 23.441 230.163 24.7564 229.419 26.42L230.514 26.91ZM233.356 23.546L233.992 24.5636C235.058 23.8974 236.377 23.4414 237.981 23.2275L237.822 22.038L237.664 20.8485C235.788 21.0986 234.129 21.6479 232.72 22.5284L233.356 23.546ZM237.822 22.038L238.003 23.2243C239.708 22.9648 241.676 22.832 243.912 22.832V21.632V20.432C241.586 20.432 239.493 20.5699 237.642 20.8517L237.822 22.038ZM243.912 21.632V22.832C245.361 22.832 246.849 22.8701 248.376 22.9465L248.436 21.748L248.496 20.5495C246.931 20.4712 245.403 20.432 243.912 20.432V21.632ZM248.436 21.748L248.376 22.9465C249.901 23.0227 251.325 23.1368 252.65 23.2882L252.786 22.096L252.922 20.9038C251.541 20.7458 250.065 20.6279 248.496 20.5495L248.436 21.748ZM252.786 22.096L252.687 23.2919C254.051 23.4055 255.135 23.5546 255.953 23.7326L256.208 22.56L256.463 21.3874C255.503 21.1787 254.306 21.0185 252.886 20.9001L252.786 22.096ZM256.208 22.56H255.008V26.678H256.208H257.408V22.56H256.208ZM256.208 26.678L256.391 25.492C255.354 25.3324 254.167 25.1943 252.834 25.0766L252.728 26.272L252.623 27.4674C253.919 27.5817 255.052 27.7143 256.026 27.864L256.208 26.678ZM252.728 26.272L252.834 25.0766C251.494 24.9584 250.116 24.8798 248.702 24.8405L248.668 26.04L248.635 27.2395C250.004 27.2776 251.333 27.3536 252.623 27.4674L252.728 26.272ZM248.668 26.04L248.737 24.842C247.363 24.7634 246.044 24.724 244.782 24.724V25.924V27.124C245.995 27.124 247.267 27.1619 248.6 27.238L248.668 26.04ZM244.782 25.924V24.724C242.627 24.724 240.842 24.8214 239.446 25.0268L239.62 26.214L239.795 27.4012C241.028 27.2199 242.684 27.124 244.782 27.124V25.924ZM239.62 26.214L239.446 25.0268C238.03 25.235 236.802 25.623 235.834 26.2519L236.488 27.258L237.142 28.2641C237.721 27.8877 238.581 27.5797 239.795 27.4012L239.62 26.214ZM236.488 27.258L235.878 26.2249C234.761 26.8849 234.013 27.8622 233.7 29.113L234.864 29.404L236.028 29.695C236.18 29.0898 236.514 28.6365 237.099 28.2911L236.488 27.258ZM234.864 29.404L233.692 29.1491C233.474 30.1481 233.374 31.3216 233.374 32.652H234.574H235.774C235.774 31.4303 235.867 30.4386 236.037 29.6589L234.864 29.404ZM234.574 32.652H233.374C233.374 34.1948 233.472 35.4773 233.694 36.4559L234.864 36.19L236.034 35.9241C235.87 35.2014 235.774 34.1252 235.774 32.652H234.574ZM234.864 36.19L233.71 36.5197C234.026 37.6242 234.695 38.4911 235.72 39.0033L236.256 37.93L236.793 36.8567C236.425 36.6729 236.166 36.3797 236.018 35.8603L234.864 36.19ZM236.256 37.93L235.791 39.036C236.686 39.4131 237.906 39.6602 239.375 39.819L239.504 38.626L239.633 37.4329C238.241 37.2825 237.296 37.0656 236.722 36.824L236.256 37.93ZM239.504 38.626L239.369 39.8183L249.055 40.9203L249.19 39.728L249.326 38.5357L239.64 37.4337L239.504 38.626ZM249.19 39.728L249.091 40.9239C250.433 41.0357 251.581 41.2202 252.543 41.4696L252.844 40.308L253.145 39.1464C252.019 38.8545 250.731 38.6523 249.29 38.5321L249.19 39.728ZM252.844 40.308L252.593 41.4814C253.53 41.6823 254.293 42.0243 254.908 42.486L255.628 41.526L256.348 40.566C255.417 39.8677 254.323 39.3977 253.096 39.1346L252.844 40.308ZM255.628 41.526L254.908 42.486C255.46 42.8998 255.915 43.5199 256.238 44.4236L257.368 44.02L258.498 43.6164C258.048 42.3547 257.343 41.3122 256.348 40.566L255.628 41.526ZM257.368 44.02L256.265 44.4927C256.456 44.9389 256.606 45.4482 256.708 46.0265L257.89 45.818L259.072 45.6095C258.942 44.8732 258.744 44.1837 258.471 43.5473L257.368 44.02ZM257.89 45.818L256.708 46.0265C256.814 46.6244 256.887 47.3074 256.924 48.0791L258.122 48.022L259.321 47.9649C259.28 47.1126 259.198 46.3263 259.072 45.6095L257.89 45.818ZM258.122 48.022L256.928 48.1414C257.001 48.8669 257.038 49.6961 257.038 50.632H258.238H259.438C259.438 49.6346 259.398 48.7238 259.316 47.9026L258.122 48.022ZM258.238 50.632H257.038C257.038 52.7682 256.831 54.4836 256.448 55.8083L257.6 56.142L258.753 56.4757C259.22 54.8617 259.438 52.9038 259.438 50.632H258.238ZM257.6 56.142L256.45 55.8C256.061 57.1075 255.536 58.0732 254.914 58.7568L255.802 59.564L256.69 60.3712C257.615 59.3535 258.288 58.0378 258.75 56.484L257.6 56.142ZM255.802 59.564L254.914 58.7568C254.274 59.4615 253.487 59.9947 252.535 60.356L252.96 61.478L253.386 62.6C254.676 62.1106 255.784 61.3679 256.69 60.3712L255.802 59.564ZM252.96 61.478L252.535 60.356C251.533 60.7357 250.389 60.986 249.091 61.0941L249.19 62.29L249.29 63.4859C250.776 63.362 252.144 63.0709 253.386 62.6L252.96 61.478ZM249.19 62.29L249.088 61.0944C247.774 61.207 246.339 61.264 244.782 61.264V62.464V63.664C246.396 63.664 247.9 63.605 249.293 63.4856L249.19 62.29ZM276.504 62.348L276.45 63.5468L276.504 62.348ZM271.516 62.058L271.429 63.2548L271.431 63.255L271.516 62.058ZM267.166 61.652H265.966V62.7191L267.026 62.8438L267.166 61.652ZM267.166 57.418L267.266 56.2221L265.966 56.1138V57.418H267.166ZM271.516 57.766L271.424 58.9625L271.426 58.9626L271.516 57.766ZM275.982 58.056L275.917 59.2543L275.919 59.2543L275.982 58.056ZM284.624 57.94L284.773 59.1307L284.791 59.1285L284.809 59.1256L284.624 57.94ZM287.756 56.896L288.367 57.9291L288.374 57.925L287.756 56.896ZM289.496 53.474L288.302 53.3546L288.299 53.3843L288.298 53.4141L289.496 53.474ZM288.858 45.934L287.86 46.5996L287.892 46.6485L287.929 46.6939L288.858 45.934ZM287.292 44.948L286.931 46.0923L286.959 46.1011L286.987 46.1085L287.292 44.948ZM284.334 44.426L284.202 45.6187L284.212 45.6198L284.222 45.6208L284.334 44.426ZM274.416 43.324L274.267 44.5147L274.275 44.5158L274.284 44.5167L274.416 43.324ZM269.95 42.164L269.399 43.2299L269.414 43.2375L269.428 43.2447L269.95 42.164ZM267.398 40.018L266.373 40.6419L266.389 40.6684L266.407 40.694L267.398 40.018ZM266.296 36.886L265.11 37.0713L265.111 37.0771L266.296 36.886ZM266.934 26.91L265.839 26.42L265.833 26.4321L265.828 26.4443L266.934 26.91ZM269.776 23.546L269.14 22.5284L269.14 22.5284L269.776 23.546ZM274.242 22.038L274.401 23.2275L274.412 23.226L274.423 23.2243L274.242 22.038ZM284.856 21.748L284.796 22.9465L284.796 22.9465L284.856 21.748ZM289.206 22.096L289.07 23.2882L289.088 23.2903L289.106 23.2919L289.206 22.096ZM292.628 22.56H293.828V21.5928L292.883 21.3874L292.628 22.56ZM292.628 26.678L292.446 27.864L293.828 28.0767V26.678H292.628ZM289.148 26.272L289.254 25.0766L289.254 25.0766L289.148 26.272ZM285.088 26.04L285.02 27.238L285.037 27.239L285.055 27.2395L285.088 26.04ZM276.04 26.214L275.866 25.0268L275.866 25.0268L276.04 26.214ZM272.908 27.258L273.519 28.2911L273.541 28.2781L273.562 28.2641L272.908 27.258ZM271.284 29.404L270.12 29.113L270.115 29.131L270.112 29.1491L271.284 29.404ZM271.284 36.19L270.114 36.4559L270.121 36.488L270.13 36.5197L271.284 36.19ZM272.676 37.93L272.139 39.0033L272.174 39.0208L272.21 39.036L272.676 37.93ZM275.924 38.626L276.06 37.4337L276.053 37.4329L275.924 38.626ZM285.61 39.728L285.474 40.9203L285.492 40.9224L285.51 40.9239L285.61 39.728ZM289.264 40.308L288.963 41.4696L288.988 41.476L289.013 41.4814L289.264 40.308ZM292.048 41.526L291.328 42.486L291.328 42.486L292.048 41.526ZM293.788 44.02L292.658 44.4236L292.671 44.4586L292.685 44.4927L293.788 44.02ZM294.31 45.818L293.128 46.0265L293.128 46.0265L294.31 45.818ZM294.542 48.022L293.343 48.0791L293.345 48.1103L293.348 48.1414L294.542 48.022ZM294.02 56.142L295.17 56.484L295.173 56.4757L294.02 56.142ZM292.222 59.564L293.11 60.3712L293.11 60.3712L292.222 59.564ZM289.38 61.478L289.806 62.6L289.806 62.6L289.38 61.478ZM285.61 62.29L285.51 61.0941L285.508 61.0944L285.61 62.29ZM281.202 62.464V61.264C279.793 61.264 278.245 61.2259 276.559 61.1492L276.504 62.348L276.45 63.5468C278.166 63.6248 279.75 63.664 281.202 63.664V62.464ZM276.504 62.348L276.559 61.1492C274.867 61.0724 273.215 60.9763 271.602 60.861L271.516 62.058L271.431 63.255C273.065 63.3717 274.738 63.469 276.45 63.5468L276.504 62.348ZM271.516 62.058L271.604 60.8612C270.033 60.7462 268.6 60.6125 267.306 60.4602L267.166 61.652L267.026 62.8438C268.361 63.0009 269.829 63.1378 271.429 63.2548L271.516 62.058ZM267.166 61.652H268.366V57.418H267.166H265.966V61.652H267.166ZM267.166 57.418L267.066 58.6139C268.461 58.7301 269.914 58.8463 271.424 58.9625L271.516 57.766L271.608 56.5695C270.102 56.4537 268.655 56.3379 267.266 56.2221L267.166 57.418ZM271.516 57.766L271.426 58.9626C272.981 59.0792 274.478 59.1764 275.917 59.2543L275.982 58.056L276.047 56.8577C274.625 56.7809 273.145 56.6848 271.606 56.5694L271.516 57.766ZM275.982 58.056L275.919 59.2543C277.401 59.3323 278.661 59.372 279.694 59.372V58.172V56.972C278.717 56.972 277.502 56.9343 276.045 56.8577L275.982 58.056ZM279.694 58.172V59.372C281.766 59.372 283.465 59.2942 284.773 59.1307L284.624 57.94L284.475 56.7493C283.308 56.8951 281.721 56.972 279.694 56.972V58.172ZM284.624 57.94L284.809 59.1256C286.158 58.9148 287.355 58.5267 288.367 57.9291L287.756 56.896L287.146 55.8629C286.456 56.2706 285.565 56.5785 284.439 56.7544L284.624 57.94ZM287.756 56.896L288.374 57.925C289.146 57.4613 289.742 56.8209 290.12 56.0115L289.032 55.504L287.945 54.9965C287.781 55.3471 287.526 55.6347 287.139 55.867L287.756 56.896ZM289.032 55.504L290.12 56.0115C290.468 55.2647 290.65 54.4305 290.695 53.5339L289.496 53.474L288.298 53.4141C288.265 54.0641 288.138 54.5833 287.945 54.9965L289.032 55.504ZM289.496 53.474L290.69 53.5934C290.772 52.7752 290.812 51.9037 290.812 50.98H289.612H288.412C288.412 51.835 288.375 52.6261 288.302 53.3546L289.496 53.474ZM289.612 50.98H290.812C290.812 49.6473 290.773 48.5417 290.691 47.6762L289.496 47.79L288.302 47.9038C288.374 48.6623 288.412 49.6834 288.412 50.98H289.612ZM289.496 47.79L290.691 47.6762C290.601 46.7354 290.342 45.8529 289.787 45.1741L288.858 45.934L287.929 46.6939C288.07 46.8658 288.236 47.2206 288.302 47.9038L289.496 47.79ZM288.858 45.934L289.857 45.2684C289.334 44.4838 288.512 44.0283 287.598 43.7875L287.292 44.948L286.987 46.1085C287.541 46.2544 287.764 46.4562 287.86 46.5996L288.858 45.934ZM287.292 44.948L287.653 43.8037C286.804 43.5354 285.723 43.351 284.446 43.2312L284.334 44.426L284.222 45.6208C285.42 45.733 286.311 45.8966 286.931 46.0923L287.292 44.948ZM284.334 44.426L284.467 43.2333L274.549 42.1313L274.416 43.324L274.284 44.5167L284.202 45.6187L284.334 44.426ZM274.416 43.324L274.565 42.1333C272.78 41.9102 271.432 41.5471 270.472 41.0833L269.95 42.164L269.428 43.2447C270.71 43.8636 272.34 44.2738 274.267 44.5147L274.416 43.324ZM269.95 42.164L270.501 41.0981C269.517 40.5891 268.835 39.995 268.39 39.342L267.398 40.018L266.407 40.694C267.121 41.7423 268.14 42.5789 269.399 43.2299L269.95 42.164ZM267.398 40.018L268.423 39.3941C267.975 38.6575 267.653 37.7654 267.481 36.6949L266.296 36.886L265.111 37.0771C265.325 38.4039 265.739 39.5999 266.373 40.6419L267.398 40.018ZM266.296 36.886L267.482 36.7007C267.3 35.5356 267.206 34.226 267.206 32.768H266.006H264.806C264.806 34.326 264.906 35.7618 265.111 37.0713L266.296 36.886ZM266.006 32.768H267.206C267.206 30.416 267.507 28.6408 268.04 27.3757L266.934 26.91L265.828 26.4443C265.124 28.1178 264.806 30.248 264.806 32.768H266.006ZM266.934 26.91L268.029 27.4C268.6 26.1249 269.398 25.1977 270.412 24.5636L269.776 23.546L269.14 22.5284C267.68 23.441 266.583 24.7564 265.839 26.42L266.934 26.91ZM269.776 23.546L270.412 24.5636C271.478 23.8974 272.796 23.4414 274.401 23.2275L274.242 22.038L274.084 20.8485C272.208 21.0986 270.549 21.6479 269.14 22.5284L269.776 23.546ZM274.242 22.038L274.423 23.2243C276.128 22.9648 278.096 22.832 280.332 22.832V21.632V20.432C278.006 20.432 275.913 20.5699 274.062 20.8517L274.242 22.038ZM280.332 21.632V22.832C281.78 22.832 283.268 22.8701 284.796 22.9465L284.856 21.748L284.916 20.5495C283.35 20.4712 281.822 20.432 280.332 20.432V21.632ZM284.856 21.748L284.796 22.9465C286.321 23.0227 287.745 23.1368 289.07 23.2882L289.206 22.096L289.342 20.9038C287.961 20.7458 286.485 20.6279 284.916 20.5495L284.856 21.748ZM289.206 22.096L289.106 23.2919C290.471 23.4055 291.554 23.5546 292.373 23.7326L292.628 22.56L292.883 21.3874C291.923 21.1787 290.726 21.0185 289.306 20.9001L289.206 22.096ZM292.628 22.56H291.428V26.678H292.628H293.828V22.56H292.628ZM292.628 26.678L292.811 25.492C291.773 25.3324 290.587 25.1943 289.254 25.0766L289.148 26.272L289.043 27.4674C290.339 27.5817 291.472 27.7143 292.446 27.864L292.628 26.678ZM289.148 26.272L289.254 25.0766C287.914 24.9584 286.536 24.8798 285.121 24.8405L285.088 26.04L285.055 27.2395C286.424 27.2776 287.753 27.3536 289.043 27.4674L289.148 26.272ZM285.088 26.04L285.157 24.842C283.783 24.7634 282.464 24.724 281.202 24.724V25.924V27.124C282.415 27.124 283.687 27.1619 285.02 27.238L285.088 26.04ZM281.202 25.924V24.724C279.047 24.724 277.262 24.8214 275.866 25.0268L276.04 26.214L276.215 27.4012C277.448 27.2199 279.104 27.124 281.202 27.124V25.924ZM276.04 26.214L275.866 25.0268C274.45 25.235 273.222 25.623 272.254 26.2519L272.908 27.258L273.562 28.2641C274.141 27.8877 275.001 27.5797 276.215 27.4012L276.04 26.214ZM272.908 27.258L272.298 26.2249C271.181 26.8849 270.433 27.8622 270.12 29.113L271.284 29.404L272.448 29.695C272.6 29.0898 272.934 28.6365 273.519 28.2911L272.908 27.258ZM271.284 29.404L270.112 29.1491C269.894 30.1481 269.794 31.3216 269.794 32.652H270.994H272.194C272.194 31.4303 272.287 30.4386 272.457 29.6589L271.284 29.404ZM270.994 32.652H269.794C269.794 34.1948 269.892 35.4773 270.114 36.4559L271.284 36.19L272.454 35.9241C272.29 35.2014 272.194 34.1252 272.194 32.652H270.994ZM271.284 36.19L270.13 36.5197C270.446 37.6242 271.115 38.4911 272.139 39.0033L272.676 37.93L273.213 36.8567C272.845 36.6729 272.586 36.3797 272.438 35.8603L271.284 36.19ZM272.676 37.93L272.21 39.036C273.106 39.4131 274.326 39.6602 275.795 39.819L275.924 38.626L276.053 37.4329C274.661 37.2825 273.715 37.0656 273.142 36.824L272.676 37.93ZM275.924 38.626L275.788 39.8183L285.474 40.9203L285.61 39.728L285.746 38.5357L276.06 37.4337L275.924 38.626ZM285.61 39.728L285.51 40.9239C286.853 41.0357 288.001 41.2202 288.963 41.4696L289.264 40.308L289.565 39.1464C288.439 38.8545 287.151 38.6523 285.71 38.5321L285.61 39.728ZM289.264 40.308L289.013 41.4814C289.95 41.6823 290.713 42.0243 291.328 42.486L292.048 41.526L292.768 40.566C291.837 39.8677 290.743 39.3977 289.516 39.1346L289.264 40.308ZM292.048 41.526L291.328 42.486C291.88 42.8998 292.335 43.5199 292.658 44.4236L293.788 44.02L294.918 43.6164C294.468 42.3547 293.763 41.3122 292.768 40.566L292.048 41.526ZM293.788 44.02L292.685 44.4927C292.876 44.9389 293.026 45.4482 293.128 46.0265L294.31 45.818L295.492 45.6095C295.362 44.8732 295.164 44.1837 294.891 43.5473L293.788 44.02ZM294.31 45.818L293.128 46.0265C293.234 46.6244 293.307 47.3074 293.343 48.0791L294.542 48.022L295.741 47.9649C295.7 47.1126 295.618 46.3263 295.492 45.6095L294.31 45.818ZM294.542 48.022L293.348 48.1414C293.421 48.8669 293.458 49.6961 293.458 50.632H294.658H295.858C295.858 49.6346 295.818 48.7238 295.736 47.9026L294.542 48.022ZM294.658 50.632H293.458C293.458 52.7682 293.251 54.4836 292.867 55.8083L294.02 56.142L295.173 56.4757C295.64 54.8617 295.858 52.9038 295.858 50.632H294.658ZM294.02 56.142L292.87 55.8C292.481 57.1075 291.956 58.0732 291.334 58.7568L292.222 59.564L293.11 60.3712C294.035 59.3535 294.708 58.0378 295.17 56.484L294.02 56.142ZM292.222 59.564L291.334 58.7568C290.694 59.4615 289.907 59.9947 288.955 60.356L289.38 61.478L289.806 62.6C291.096 62.1106 292.204 61.3679 293.11 60.3712L292.222 59.564ZM289.38 61.478L288.955 60.356C287.953 60.7357 286.809 60.986 285.51 61.0941L285.61 62.29L285.71 63.4859C287.195 63.362 288.564 63.0709 289.806 62.6L289.38 61.478ZM285.61 62.29L285.508 61.0944C284.193 61.207 282.759 61.264 281.202 61.264V62.464V63.664C282.816 63.664 284.32 63.605 285.713 63.4856L285.61 62.29Z" fill="#80CD82" mask="url(#path-1-outside-1_149_10)"/>
</g>
</g>
<defs>
<filter id="filter0_d_149_10" x="1.75997" y="16.1319" width="298.398" height="51.8322" filterUnits="userSpaceOnUse" color-interpolation-filters="sRGB">
<feFlood flood-opacity="0" result="BackgroundImageFix"/>
<feColorMatrix in="SourceAlpha" type="matrix" values="0 0 0 0 0 0 0 0 0 0 0 0 0 0 0 0 0 0 127 0" result="hardAlpha"/>
<feOffset/>
<feGaussianBlur stdDeviation="2.15"/>
<feComposite in2="hardAlpha" operator="out"/>
<feColorMatrix type="matrix" values="0 0 0 0 0.83101 0 0 0 0 1 0 0 0 0 0.822115 0 0 0 0.33 0"/>
<feBlend mode="normal" in2="BackgroundImageFix" result="effect1_dropShadow_149_10"/>
<feBlend mode="normal" in="SourceGraphic" in2="effect1_dropShadow_149_10" result="shape"/>
</filter>
<clipPath id="clip0_149_10">
<rect width="300" height="80" fill="white"/>
</clipPath>
</defs>
</svg>
