<svg width="300" height="80" viewBox="0 0 300 80" fill="none" xmlns="http://www.w3.org/2000/svg">
<g filter="url(#filter0_d_149_10)">
<mask id="path-1-outside-1_149_10" maskUnits="userSpaceOnUse" x="6" y="24" width="290" height="35" fill="black">
<rect fill="white" x="6" y="24" width="290" height="35"/>
<path d="M7.91016 26.4727H35.2148V31.9023H14.1016V39.8906H32.0312V44.9883H14.1016V57H7.91016V26.4727ZM41.1914 26.4727H47.3828V51.5703H65.1367V57H41.1914V26.4727ZM81.5625 26.4727H88.125L102.891 57H96.3867L93.9453 51.8633H76.1133L73.75 57H67.2266L81.5625 26.4727ZM91.5039 46.7656L84.9023 32.8984L78.4766 46.7656H91.5039ZM103.691 26.4727H110.449L118.73 46.1797L120.645 50.9453L122.148 46.1797L125.195 38.9922L119.707 26.4727H126.074L128.32 32.4297L130.41 26.4727H136.777L131.289 38.9922L134.395 46.3359L136.27 50.9453L137.715 46.2578L146.035 26.4727H152.793L139.316 57H133.184L130.469 50.9453L128.262 45.0664L126.055 50.9453L123.301 57H117.168L103.691 26.4727ZM157.52 26.4727H163.711V51.5703H181.465V57H157.52V26.4727ZM187.48 26.4727H213.477V31.9023H193.672V37.9961H211.211V43.0938H193.672V51.5898H213.887V57H187.48V26.4727ZM222.188 47.918C223.294 48.543 224.414 49.1094 225.547 49.6172C226.693 50.112 227.878 50.5352 229.102 50.8867C230.326 51.2253 231.608 51.4857 232.949 51.668C234.303 51.8503 235.742 51.9414 237.266 51.9414C239.102 51.9414 240.664 51.8242 241.953 51.5898C243.242 51.3424 244.29 51.0104 245.098 50.5938C245.918 50.1641 246.51 49.6562 246.875 49.0703C247.253 48.4844 247.441 47.8464 247.441 47.1562C247.441 46.0495 246.979 45.1771 246.055 44.5391C245.13 43.888 243.704 43.5625 241.777 43.5625C240.931 43.5625 240.039 43.6211 239.102 43.7383C238.164 43.8424 237.214 43.9596 236.25 44.0898C235.299 44.2201 234.355 44.3438 233.418 44.4609C232.493 44.5651 231.621 44.6172 230.801 44.6172C229.434 44.6172 228.118 44.4414 226.855 44.0898C225.605 43.7383 224.492 43.2109 223.516 42.5078C222.552 41.8047 221.784 40.9258 221.211 39.8711C220.638 38.8164 220.352 37.5859 220.352 36.1797C220.352 35.3464 220.462 34.5195 220.684 33.6992C220.918 32.8789 221.283 32.0977 221.777 31.3555C222.285 30.6003 222.936 29.9036 223.73 29.2656C224.525 28.6146 225.482 28.0547 226.602 27.5859C227.734 27.1172 229.036 26.7526 230.508 26.4922C231.992 26.2188 233.678 26.082 235.566 26.082C236.934 26.082 238.307 26.1602 239.688 26.3164C241.068 26.4596 242.409 26.668 243.711 26.9414C245.026 27.2148 246.289 27.5469 247.5 27.9375C248.711 28.3151 249.837 28.7383 250.879 29.207L248.164 34.207C247.305 33.8294 246.38 33.4844 245.391 33.1719C244.401 32.8464 243.366 32.5664 242.285 32.332C241.204 32.0977 240.085 31.9154 238.926 31.7852C237.78 31.6419 236.608 31.5703 235.41 31.5703C233.704 31.5703 232.298 31.694 231.191 31.9414C230.098 32.1888 229.225 32.5078 228.574 32.8984C227.923 33.276 227.467 33.7057 227.207 34.1875C226.96 34.6562 226.836 35.125 226.836 35.5938C226.836 36.5052 227.246 37.2539 228.066 37.8398C228.887 38.4128 230.137 38.6992 231.816 38.6992C232.493 38.6992 233.268 38.6536 234.141 38.5625C235.026 38.4583 235.951 38.3477 236.914 38.2305C237.891 38.1133 238.88 38.0091 239.883 37.918C240.898 37.8138 241.882 37.7617 242.832 37.7617C244.629 37.7617 246.217 37.9635 247.598 38.3672C248.991 38.7708 250.156 39.3503 251.094 40.1055C252.031 40.8477 252.741 41.7526 253.223 42.8203C253.704 43.875 253.945 45.0599 253.945 46.375C253.945 48.1328 253.535 49.7018 252.715 51.082C251.908 52.4492 250.749 53.6081 249.238 54.5586C247.741 55.4961 245.931 56.2122 243.809 56.707C241.686 57.1888 239.323 57.4297 236.719 57.4297C235 57.4297 233.32 57.319 231.68 57.0977C230.039 56.8893 228.464 56.5898 226.953 56.1992C225.456 55.7956 224.023 55.3203 222.656 54.7734C221.302 54.2135 220.046 53.6016 218.887 52.9375L222.188 47.918ZM262.188 47.918C263.294 48.543 264.414 49.1094 265.547 49.6172C266.693 50.112 267.878 50.5352 269.102 50.8867C270.326 51.2253 271.608 51.4857 272.949 51.668C274.303 51.8503 275.742 51.9414 277.266 51.9414C279.102 51.9414 280.664 51.8242 281.953 51.5898C283.242 51.3424 284.29 51.0104 285.098 50.5938C285.918 50.1641 286.51 49.6562 286.875 49.0703C287.253 48.4844 287.441 47.8464 287.441 47.1562C287.441 46.0495 286.979 45.1771 286.055 44.5391C285.13 43.888 283.704 43.5625 281.777 43.5625C280.931 43.5625 280.039 43.6211 279.102 43.7383C278.164 43.8424 277.214 43.9596 276.25 44.0898C275.299 44.2201 274.355 44.3438 273.418 44.4609C272.493 44.5651 271.621 44.6172 270.801 44.6172C269.434 44.6172 268.118 44.4414 266.855 44.0898C265.605 43.7383 264.492 43.2109 263.516 42.5078C262.552 41.8047 261.784 40.9258 261.211 39.8711C260.638 38.8164 260.352 37.5859 260.352 36.1797C260.352 35.3464 260.462 34.5195 260.684 33.6992C260.918 32.8789 261.283 32.0977 261.777 31.3555C262.285 30.6003 262.936 29.9036 263.73 29.2656C264.525 28.6146 265.482 28.0547 266.602 27.5859C267.734 27.1172 269.036 26.7526 270.508 26.4922C271.992 26.2188 273.678 26.082 275.566 26.082C276.934 26.082 278.307 26.1602 279.688 26.3164C281.068 26.4596 282.409 26.668 283.711 26.9414C285.026 27.2148 286.289 27.5469 287.5 27.9375C288.711 28.3151 289.837 28.7383 290.879 29.207L288.164 34.207C287.305 33.8294 286.38 33.4844 285.391 33.1719C284.401 32.8464 283.366 32.5664 282.285 32.332C281.204 32.0977 280.085 31.9154 278.926 31.7852C277.78 31.6419 276.608 31.5703 275.41 31.5703C273.704 31.5703 272.298 31.694 271.191 31.9414C270.098 32.1888 269.225 32.5078 268.574 32.8984C267.923 33.276 267.467 33.7057 267.207 34.1875C266.96 34.6562 266.836 35.125 266.836 35.5938C266.836 36.5052 267.246 37.2539 268.066 37.8398C268.887 38.4128 270.137 38.6992 271.816 38.6992C272.493 38.6992 273.268 38.6536 274.141 38.5625C275.026 38.4583 275.951 38.3477 276.914 38.2305C277.891 38.1133 278.88 38.0091 279.883 37.918C280.898 37.8138 281.882 37.7617 282.832 37.7617C284.629 37.7617 286.217 37.9635 287.598 38.3672C288.991 38.7708 290.156 39.3503 291.094 40.1055C292.031 40.8477 292.741 41.7526 293.223 42.8203C293.704 43.875 293.945 45.0599 293.945 46.375C293.945 48.1328 293.535 49.7018 292.715 51.082C291.908 52.4492 290.749 53.6081 289.238 54.5586C287.741 55.4961 285.931 56.2122 283.809 56.707C281.686 57.1888 279.323 57.4297 276.719 57.4297C275 57.4297 273.32 57.319 271.68 57.0977C270.039 56.8893 268.464 56.5898 266.953 56.1992C265.456 55.7956 264.023 55.3203 262.656 54.7734C261.302 54.2135 260.046 53.6016 258.887 52.9375L262.188 47.918Z"/>
</mask>
<path d="M7.91016 26.4727H35.2148V31.9023H14.1016V39.8906H32.0312V44.9883H14.1016V57H7.91016V26.4727ZM41.1914 26.4727H47.3828V51.5703H65.1367V57H41.1914V26.4727ZM81.5625 26.4727H88.125L102.891 57H96.3867L93.9453 51.8633H76.1133L73.75 57H67.2266L81.5625 26.4727ZM91.5039 46.7656L84.9023 32.8984L78.4766 46.7656H91.5039ZM103.691 26.4727H110.449L118.73 46.1797L120.645 50.9453L122.148 46.1797L125.195 38.9922L119.707 26.4727H126.074L128.32 32.4297L130.41 26.4727H136.777L131.289 38.9922L134.395 46.3359L136.27 50.9453L137.715 46.2578L146.035 26.4727H152.793L139.316 57H133.184L130.469 50.9453L128.262 45.0664L126.055 50.9453L123.301 57H117.168L103.691 26.4727ZM157.52 26.4727H163.711V51.5703H181.465V57H157.52V26.4727ZM187.48 26.4727H213.477V31.9023H193.672V37.9961H211.211V43.0938H193.672V51.5898H213.887V57H187.48V26.4727ZM222.188 47.918C223.294 48.543 224.414 49.1094 225.547 49.6172C226.693 50.112 227.878 50.5352 229.102 50.8867C230.326 51.2253 231.608 51.4857 232.949 51.668C234.303 51.8503 235.742 51.9414 237.266 51.9414C239.102 51.9414 240.664 51.8242 241.953 51.5898C243.242 51.3424 244.29 51.0104 245.098 50.5938C245.918 50.1641 246.51 49.6562 246.875 49.0703C247.253 48.4844 247.441 47.8464 247.441 47.1562C247.441 46.0495 246.979 45.1771 246.055 44.5391C245.13 43.888 243.704 43.5625 241.777 43.5625C240.931 43.5625 240.039 43.6211 239.102 43.7383C238.164 43.8424 237.214 43.9596 236.25 44.0898C235.299 44.2201 234.355 44.3438 233.418 44.4609C232.493 44.5651 231.621 44.6172 230.801 44.6172C229.434 44.6172 228.118 44.4414 226.855 44.0898C225.605 43.7383 224.492 43.2109 223.516 42.5078C222.552 41.8047 221.784 40.9258 221.211 39.8711C220.638 38.8164 220.352 37.5859 220.352 36.1797C220.352 35.3464 220.462 34.5195 220.684 33.6992C220.918 32.8789 221.283 32.0977 221.777 31.3555C222.285 30.6003 222.936 29.9036 223.73 29.2656C224.525 28.6146 225.482 28.0547 226.602 27.5859C227.734 27.1172 229.036 26.7526 230.508 26.4922C231.992 26.2188 233.678 26.082 235.566 26.082C236.934 26.082 238.307 26.1602 239.688 26.3164C241.068 26.4596 242.409 26.668 243.711 26.9414C245.026 27.2148 246.289 27.5469 247.5 27.9375C248.711 28.3151 249.837 28.7383 250.879 29.207L248.164 34.207C247.305 33.8294 246.38 33.4844 245.391 33.1719C244.401 32.8464 243.366 32.5664 242.285 32.332C241.204 32.0977 240.085 31.9154 238.926 31.7852C237.78 31.6419 236.608 31.5703 235.41 31.5703C233.704 31.5703 232.298 31.694 231.191 31.9414C230.098 32.1888 229.225 32.5078 228.574 32.8984C227.923 33.276 227.467 33.7057 227.207 34.1875C226.96 34.6562 226.836 35.125 226.836 35.5938C226.836 36.5052 227.246 37.2539 228.066 37.8398C228.887 38.4128 230.137 38.6992 231.816 38.6992C232.493 38.6992 233.268 38.6536 234.141 38.5625C235.026 38.4583 235.951 38.3477 236.914 38.2305C237.891 38.1133 238.88 38.0091 239.883 37.918C240.898 37.8138 241.882 37.7617 242.832 37.7617C244.629 37.7617 246.217 37.9635 247.598 38.3672C248.991 38.7708 250.156 39.3503 251.094 40.1055C252.031 40.8477 252.741 41.7526 253.223 42.8203C253.704 43.875 253.945 45.0599 253.945 46.375C253.945 48.1328 253.535 49.7018 252.715 51.082C251.908 52.4492 250.749 53.6081 249.238 54.5586C247.741 55.4961 245.931 56.2122 243.809 56.707C241.686 57.1888 239.323 57.4297 236.719 57.4297C235 57.4297 233.32 57.319 231.68 57.0977C230.039 56.8893 228.464 56.5898 226.953 56.1992C225.456 55.7956 224.023 55.3203 222.656 54.7734C221.302 54.2135 220.046 53.6016 218.887 52.9375L222.188 47.918ZM262.188 47.918C263.294 48.543 264.414 49.1094 265.547 49.6172C266.693 50.112 267.878 50.5352 269.102 50.8867C270.326 51.2253 271.608 51.4857 272.949 51.668C274.303 51.8503 275.742 51.9414 277.266 51.9414C279.102 51.9414 280.664 51.8242 281.953 51.5898C283.242 51.3424 284.29 51.0104 285.098 50.5938C285.918 50.1641 286.51 49.6562 286.875 49.0703C287.253 48.4844 287.441 47.8464 287.441 47.1562C287.441 46.0495 286.979 45.1771 286.055 44.5391C285.13 43.888 283.704 43.5625 281.777 43.5625C280.931 43.5625 280.039 43.6211 279.102 43.7383C278.164 43.8424 277.214 43.9596 276.25 44.0898C275.299 44.2201 274.355 44.3438 273.418 44.4609C272.493 44.5651 271.621 44.6172 270.801 44.6172C269.434 44.6172 268.118 44.4414 266.855 44.0898C265.605 43.7383 264.492 43.2109 263.516 42.5078C262.552 41.8047 261.784 40.9258 261.211 39.8711C260.638 38.8164 260.352 37.5859 260.352 36.1797C260.352 35.3464 260.462 34.5195 260.684 33.6992C260.918 32.8789 261.283 32.0977 261.777 31.3555C262.285 30.6003 262.936 29.9036 263.73 29.2656C264.525 28.6146 265.482 28.0547 266.602 27.5859C267.734 27.1172 269.036 26.7526 270.508 26.4922C271.992 26.2188 273.678 26.082 275.566 26.082C276.934 26.082 278.307 26.1602 279.688 26.3164C281.068 26.4596 282.409 26.668 283.711 26.9414C285.026 27.2148 286.289 27.5469 287.5 27.9375C288.711 28.3151 289.837 28.7383 290.879 29.207L288.164 34.207C287.305 33.8294 286.38 33.4844 285.391 33.1719C284.401 32.8464 283.366 32.5664 282.285 32.332C281.204 32.0977 280.085 31.9154 278.926 31.7852C277.78 31.6419 276.608 31.5703 275.41 31.5703C273.704 31.5703 272.298 31.694 271.191 31.9414C270.098 32.1888 269.225 32.5078 268.574 32.8984C267.923 33.276 267.467 33.7057 267.207 34.1875C266.96 34.6562 266.836 35.125 266.836 35.5938C266.836 36.5052 267.246 37.2539 268.066 37.8398C268.887 38.4128 270.137 38.6992 271.816 38.6992C272.493 38.6992 273.268 38.6536 274.141 38.5625C275.026 38.4583 275.951 38.3477 276.914 38.2305C277.891 38.1133 278.88 38.0091 279.883 37.918C280.898 37.8138 281.882 37.7617 282.832 37.7617C284.629 37.7617 286.217 37.9635 287.598 38.3672C288.991 38.7708 290.156 39.3503 291.094 40.1055C292.031 40.8477 292.741 41.7526 293.223 42.8203C293.704 43.875 293.945 45.0599 293.945 46.375C293.945 48.1328 293.535 49.7018 292.715 51.082C291.908 52.4492 290.749 53.6081 289.238 54.5586C287.741 55.4961 285.931 56.2122 283.809 56.707C281.686 57.1888 279.323 57.4297 276.719 57.4297C275 57.4297 273.32 57.319 271.68 57.0977C270.039 56.8893 268.464 56.5898 266.953 56.1992C265.456 55.7956 264.023 55.3203 262.656 54.7734C261.302 54.2135 260.046 53.6016 258.887 52.9375L262.188 47.918Z" fill="#C9FFCF"/>
<path d="M7.91016 26.4727V25.2727H6.71016V26.4727H7.91016ZM35.2148 26.4727H36.4148V25.2727H35.2148V26.4727ZM35.2148 31.9023V33.1023H36.4148V31.9023H35.2148ZM14.1016 31.9023V30.7023H12.9016V31.9023H14.1016ZM14.1016 39.8906H12.9016V41.0906H14.1016V39.8906ZM32.0312 39.8906H33.2313V38.6906H32.0312V39.8906ZM32.0312 44.9883V46.1883H33.2313V44.9883H32.0312ZM14.1016 44.9883V43.7883H12.9016V44.9883H14.1016ZM14.1016 57V58.2H15.3016V57H14.1016ZM7.91016 57H6.71016V58.2H7.91016V57ZM7.91016 26.4727V27.6727H35.2148V26.4727V25.2727H7.91016V26.4727ZM35.2148 26.4727H34.0148V31.9023H35.2148H36.4148V26.4727H35.2148ZM35.2148 31.9023V30.7023H14.1016V31.9023V33.1023H35.2148V31.9023ZM14.1016 31.9023H12.9016V39.8906H14.1016H15.3016V31.9023H14.1016ZM14.1016 39.8906V41.0906H32.0312V39.8906V38.6906H14.1016V39.8906ZM32.0312 39.8906H30.8312V44.9883H32.0312H33.2313V39.8906H32.0312ZM32.0312 44.9883V43.7883H14.1016V44.9883V46.1883H32.0312V44.9883ZM14.1016 44.9883H12.9016V57H14.1016H15.3016V44.9883H14.1016ZM14.1016 57V55.8H7.91016V57V58.2H14.1016V57ZM7.91016 57H9.11016V26.4727H7.91016H6.71016V57H7.91016ZM41.1914 26.4727V25.2727H39.9914V26.4727H41.1914ZM47.3828 26.4727H48.5828V25.2727H47.3828V26.4727ZM47.3828 51.5703H46.1828V52.7703H47.3828V51.5703ZM65.1367 51.5703H66.3367V50.3703H65.1367V51.5703ZM65.1367 57V58.2H66.3367V57H65.1367ZM41.1914 57H39.9914V58.2H41.1914V57ZM41.1914 26.4727V27.6727H47.3828V26.4727V25.2727H41.1914V26.4727ZM47.3828 26.4727H46.1828V51.5703H47.3828H48.5828V26.4727H47.3828ZM47.3828 51.5703V52.7703H65.1367V51.5703V50.3703H47.3828V51.5703ZM65.1367 51.5703H63.9367V57H65.1367H66.3367V51.5703H65.1367ZM65.1367 57V55.8H41.1914V57V58.2H65.1367V57ZM41.1914 57H42.3914V26.4727H41.1914H39.9914V57H41.1914ZM81.5625 26.4727V25.2727H80.8003L80.4763 25.9626L81.5625 26.4727ZM88.125 26.4727L89.2053 25.9501L88.8776 25.2727H88.125V26.4727ZM102.891 57V58.2H104.804L103.971 56.4775L102.891 57ZM96.3867 57L95.3029 57.5151L95.6284 58.2H96.3867V57ZM93.9453 51.8633L95.0291 51.3482L94.7036 50.6633H93.9453V51.8633ZM76.1133 51.8633V50.6633H75.3445L75.0231 51.3617L76.1133 51.8633ZM73.75 57V58.2H74.5188L74.8402 57.5016L73.75 57ZM67.2266 57L66.1404 56.4899L65.3373 58.2H67.2266V57ZM91.5039 46.7656V47.9656H93.4042L92.5874 46.2498L91.5039 46.7656ZM84.9023 32.8984L85.9858 32.3826L84.8877 30.0759L83.8136 32.3939L84.9023 32.8984ZM78.4766 46.7656L77.3878 46.2611L76.5979 47.9656H78.4766V46.7656ZM81.5625 26.4727V27.6727H88.125V26.4727V25.2727H81.5625V26.4727ZM88.125 26.4727L87.0447 26.9952L101.81 57.5225L102.891 57L103.971 56.4775L89.2053 25.9501L88.125 26.4727ZM102.891 57V55.8H96.3867V57V58.2H102.891V57ZM96.3867 57L97.4705 56.4849L95.0291 51.3482L93.9453 51.8633L92.8615 52.3784L95.3029 57.5151L96.3867 57ZM93.9453 51.8633V50.6633H76.1133V51.8633V53.0633H93.9453V51.8633ZM76.1133 51.8633L75.0231 51.3617L72.6598 56.4984L73.75 57L74.8402 57.5016L77.2034 52.3648L76.1133 51.8633ZM73.75 57V55.8H67.2266V57V58.2H73.75V57ZM67.2266 57L68.3128 57.5101L82.6487 26.9827L81.5625 26.4727L80.4763 25.9626L66.1404 56.4899L67.2266 57ZM91.5039 46.7656L92.5874 46.2498L85.9858 32.3826L84.9023 32.8984L83.8189 33.4142L90.4204 47.2814L91.5039 46.7656ZM84.9023 32.8984L83.8136 32.3939L77.3878 46.2611L78.4766 46.7656L79.5653 47.2701L85.9911 33.403L84.9023 32.8984ZM78.4766 46.7656V47.9656H91.5039V46.7656V45.5656H78.4766V46.7656ZM103.691 26.4727V25.2727H101.85L102.594 26.9573L103.691 26.4727ZM110.449 26.4727L111.556 26.0078L111.247 25.2727H110.449V26.4727ZM118.73 46.1797L119.844 45.7324L119.84 45.7236L119.837 45.7148L118.73 46.1797ZM120.645 50.9453L119.531 51.3926L120.78 54.5028L121.789 51.3064L120.645 50.9453ZM122.148 46.1797L121.044 45.7113L121.021 45.764L121.004 45.8186L122.148 46.1797ZM125.195 38.9922L126.3 39.4605L126.502 38.9842L126.294 38.5104L125.195 38.9922ZM119.707 26.4727V25.2727H117.871L118.608 26.9544L119.707 26.4727ZM126.074 26.4727L127.197 26.0493L126.904 25.2727H126.074V26.4727ZM128.32 32.4297L127.197 32.8531L128.361 35.9388L129.453 32.8269L128.32 32.4297ZM130.41 26.4727V25.2727H129.559L129.278 26.0754L130.41 26.4727ZM136.777 26.4727L137.876 26.9544L138.614 25.2727H136.777V26.4727ZM131.289 38.9922L130.19 38.5104L129.983 38.9836L130.184 39.4596L131.289 38.9922ZM134.395 46.3359L135.506 45.8838L135.503 45.8761L135.5 45.8686L134.395 46.3359ZM136.27 50.9453L135.158 51.3975L136.425 54.5129L137.416 51.2989L136.27 50.9453ZM137.715 46.2578L136.609 45.7926L136.586 45.8474L136.568 45.9042L137.715 46.2578ZM146.035 26.4727V25.2727H145.238L144.929 26.0075L146.035 26.4727ZM152.793 26.4727L153.891 26.9573L154.634 25.2727H152.793V26.4727ZM139.316 57V58.2H140.098L140.414 57.4846L139.316 57ZM133.184 57L132.089 57.491L132.407 58.2H133.184V57ZM130.469 50.9453L129.345 51.3671L129.358 51.4021L129.374 51.4363L130.469 50.9453ZM128.262 45.0664L129.385 44.6446L128.262 41.6521L127.138 44.6446L128.262 45.0664ZM126.055 50.9453L127.147 51.4421L127.164 51.4051L127.178 51.3671L126.055 50.9453ZM123.301 57V58.2H124.073L124.393 57.4968L123.301 57ZM117.168 57L116.07 57.4846L116.386 58.2H117.168V57ZM103.691 26.4727V27.6727H110.449V26.4727V25.2727H103.691V26.4727ZM110.449 26.4727L109.343 26.9375L117.624 46.6446L118.73 46.1797L119.837 45.7148L111.556 26.0078L110.449 26.4727ZM118.73 46.1797L117.617 46.6269L119.531 51.3926L120.645 50.9453L121.758 50.4981L119.844 45.7324L118.73 46.1797ZM120.645 50.9453L121.789 51.3064L123.293 46.5408L122.148 46.1797L121.004 45.8186L119.5 50.5842L120.645 50.9453ZM122.148 46.1797L123.253 46.648L126.3 39.4605L125.195 38.9922L124.09 38.5238L121.044 45.7113L122.148 46.1797ZM125.195 38.9922L126.294 38.5104L120.806 25.9909L119.707 26.4727L118.608 26.9544L124.096 39.474L125.195 38.9922ZM119.707 26.4727V27.6727H126.074V26.4727V25.2727H119.707V26.4727ZM126.074 26.4727L124.951 26.896L127.197 32.8531L128.32 32.4297L129.443 32.0063L127.197 26.0493L126.074 26.4727ZM128.32 32.4297L129.453 32.8269L131.542 26.8699L130.41 26.4727L129.278 26.0754L127.188 32.0324L128.32 32.4297ZM130.41 26.4727V27.6727H136.777V26.4727V25.2727H130.41V26.4727ZM136.777 26.4727L135.678 25.9909L130.19 38.5104L131.289 38.9922L132.388 39.474L137.876 26.9544L136.777 26.4727ZM131.289 38.9922L130.184 39.4596L133.289 46.8033L134.395 46.3359L135.5 45.8686L132.394 38.5248L131.289 38.9922ZM134.395 46.3359L133.283 46.7881L135.158 51.3975L136.27 50.9453L137.381 50.4932L135.506 45.8838L134.395 46.3359ZM136.27 50.9453L137.416 51.2989L138.862 46.6114L137.715 46.2578L136.568 45.9042L135.123 50.5917L136.27 50.9453ZM137.715 46.2578L138.821 46.723L147.141 26.9378L146.035 26.4727L144.929 26.0075L136.609 45.7926L137.715 46.2578ZM146.035 26.4727V27.6727H152.793V26.4727V25.2727H146.035V26.4727ZM152.793 26.4727L151.695 25.988L138.219 56.5154L139.316 57L140.414 57.4846L153.891 26.9573L152.793 26.4727ZM139.316 57V55.8H133.184V57V58.2H139.316V57ZM133.184 57L134.279 56.509L131.564 50.4543L130.469 50.9453L129.374 51.4363L132.089 57.491L133.184 57ZM130.469 50.9453L131.592 50.5236L129.385 44.6446L128.262 45.0664L127.138 45.4882L129.345 51.3671L130.469 50.9453ZM128.262 45.0664L127.138 44.6446L124.931 50.5236L126.055 50.9453L127.178 51.3671L129.385 45.4882L128.262 45.0664ZM126.055 50.9453L124.962 50.4485L122.208 56.5032L123.301 57L124.393 57.4968L127.147 51.4421L126.055 50.9453ZM123.301 57V55.8H117.168V57V58.2H123.301V57ZM117.168 57L118.266 56.5154L104.789 25.988L103.691 26.4727L102.594 26.9573L116.07 57.4846L117.168 57ZM157.52 26.4727V25.2727H156.32V26.4727H157.52ZM163.711 26.4727H164.911V25.2727H163.711V26.4727ZM163.711 51.5703H162.511V52.7703H163.711V51.5703ZM181.465 51.5703H182.665V50.3703H181.465V51.5703ZM181.465 57V58.2H182.665V57H181.465ZM157.52 57H156.32V58.2H157.52V57ZM157.52 26.4727V27.6727H163.711V26.4727V25.2727H157.52V26.4727ZM163.711 26.4727H162.511V51.5703H163.711H164.911V26.4727H163.711ZM163.711 51.5703V52.7703H181.465V51.5703V50.3703H163.711V51.5703ZM181.465 51.5703H180.265V57H181.465H182.665V51.5703H181.465ZM181.465 57V55.8H157.52V57V58.2H181.465V57ZM157.52 57H158.72V26.4727H157.52H156.32V57H157.52ZM187.48 26.4727V25.2727H186.28V26.4727H187.48ZM213.477 26.4727H214.677V25.2727H213.477V26.4727ZM213.477 31.9023V33.1023H214.677V31.9023H213.477ZM193.672 31.9023V30.7023H192.472V31.9023H193.672ZM193.672 37.9961H192.472V39.1961H193.672V37.9961ZM211.211 37.9961H212.411V36.7961H211.211V37.9961ZM211.211 43.0938V44.2938H212.411V43.0938H211.211ZM193.672 43.0938V41.8937H192.472V43.0938H193.672ZM193.672 51.5898H192.472V52.7898H193.672V51.5898ZM213.887 51.5898H215.087V50.3898H213.887V51.5898ZM213.887 57V58.2H215.087V57H213.887ZM187.48 57H186.28V58.2H187.48V57ZM187.48 26.4727V27.6727H213.477V26.4727V25.2727H187.48V26.4727ZM213.477 26.4727H212.277V31.9023H213.477H214.677V26.4727H213.477ZM213.477 31.9023V30.7023H193.672V31.9023V33.1023H213.477V31.9023ZM193.672 31.9023H192.472V37.9961H193.672H194.872V31.9023H193.672ZM193.672 37.9961V39.1961H211.211V37.9961V36.7961H193.672V37.9961ZM211.211 37.9961H210.011V43.0938H211.211H212.411V37.9961H211.211ZM211.211 43.0938V41.8937H193.672V43.0938V44.2938H211.211V43.0938ZM193.672 43.0938H192.472V51.5898H193.672H194.872V43.0938H193.672ZM193.672 51.5898V52.7898H213.887V51.5898V50.3898H193.672V51.5898ZM213.887 51.5898H212.687V57H213.887H215.087V51.5898H213.887ZM213.887 57V55.8H187.48V57V58.2H213.887V57ZM187.48 57H188.68V26.4727H187.48H186.28V57H187.48ZM222.188 47.918L222.778 46.8731L221.801 46.3216L221.185 47.2586L222.188 47.918ZM225.547 49.6172L225.056 50.7122L225.064 50.7156L225.071 50.7189L225.547 49.6172ZM229.102 50.8867L228.77 52.0401L228.782 52.0433L229.102 50.8867ZM232.949 51.668L232.788 52.857L232.789 52.8572L232.949 51.668ZM241.953 51.5898L242.168 52.7705L242.179 52.7683L241.953 51.5898ZM245.098 50.5938L245.648 51.6601L245.654 51.6567L245.098 50.5938ZM246.875 49.0703L245.866 48.4203L245.861 48.4283L245.856 48.4364L246.875 49.0703ZM246.055 44.5391L245.364 45.5202L245.373 45.5267L246.055 44.5391ZM239.102 43.7383L239.234 44.9309L239.242 44.93L239.25 44.929L239.102 43.7383ZM236.25 44.0898L236.089 42.9007L236.087 42.9009L236.25 44.0898ZM233.418 44.4609L233.552 45.6534L233.56 45.6526L233.567 45.6517L233.418 44.4609ZM226.855 44.0898L226.531 45.245L226.534 45.2459L226.855 44.0898ZM223.516 42.5078L222.808 43.4772L222.814 43.4817L223.516 42.5078ZM220.684 33.6992L219.53 33.3696L219.527 33.3781L219.525 33.3866L220.684 33.6992ZM221.777 31.3555L220.782 30.6859L220.779 30.6898L221.777 31.3555ZM223.73 29.2656L224.482 30.2012L224.491 30.1937L223.73 29.2656ZM226.602 27.5859L226.143 26.4771L226.138 26.479L226.602 27.5859ZM230.508 26.4922L230.717 27.6739L230.725 27.6723L230.508 26.4922ZM239.688 26.3164L239.553 27.5088L239.564 27.51L239.688 26.3164ZM243.711 26.9414L243.464 28.1158L243.467 28.1163L243.711 26.9414ZM247.5 27.9375L247.132 29.0796L247.143 29.0831L247.5 27.9375ZM250.879 29.207L251.933 29.7796L252.55 28.6433L251.371 28.1127L250.879 29.207ZM248.164 34.207L247.681 35.3057L248.692 35.7497L249.219 34.7796L248.164 34.207ZM245.391 33.1719L245.016 34.3118L245.022 34.314L245.029 34.3162L245.391 33.1719ZM238.926 31.7852L238.777 32.9759L238.784 32.9768L238.792 32.9777L238.926 31.7852ZM231.191 31.9414L230.93 30.7703L230.927 30.771L231.191 31.9414ZM228.574 32.8984L229.176 33.9365L229.184 33.932L229.192 33.9274L228.574 32.8984ZM227.207 34.1875L226.151 33.6169L226.146 33.6274L227.207 34.1875ZM228.066 37.8398L227.369 38.8164L227.379 38.8237L228.066 37.8398ZM234.141 38.5625L234.265 39.756L234.273 39.7552L234.281 39.7543L234.141 38.5625ZM236.914 38.2305L236.771 37.039L236.769 37.0392L236.914 38.2305ZM239.883 37.918L239.991 39.1131L240.005 39.1117L239.883 37.918ZM247.598 38.3672L247.261 39.5189L247.264 39.5198L247.598 38.3672ZM251.094 40.1055L250.341 41.04L250.349 41.0463L251.094 40.1055ZM253.223 42.8203L252.129 43.3139L252.131 43.3189L253.223 42.8203ZM252.715 51.082L251.683 50.4689L251.682 50.4719L252.715 51.082ZM249.238 54.5586L249.875 55.5757L249.877 55.5742L249.238 54.5586ZM243.809 56.707L244.074 57.8773L244.081 57.8757L243.809 56.707ZM231.68 57.0977L231.84 55.9084L231.831 55.9072L231.68 57.0977ZM226.953 56.1992L226.641 57.3579L226.653 57.361L226.953 56.1992ZM222.656 54.7734L222.198 55.8825L222.211 55.8876L222.656 54.7734ZM218.887 52.9375L217.884 52.2782L217.183 53.3443L218.29 53.9787L218.887 52.9375ZM222.188 47.918L221.597 48.9629C222.736 49.6057 223.889 50.1889 225.056 50.7122L225.547 49.6172L226.038 48.5222C224.94 48.0299 223.853 47.4803 222.778 46.8731L222.188 47.918ZM225.547 49.6172L225.071 50.7189C226.265 51.2344 227.498 51.6747 228.77 52.0401L229.102 50.8867L229.433 49.7334C228.257 49.3956 227.12 48.9896 226.023 48.5155L225.547 49.6172ZM229.102 50.8867L228.782 52.0433C230.061 52.3971 231.396 52.668 232.788 52.857L232.949 51.668L233.111 50.4789C231.82 50.3034 230.59 50.0534 229.421 49.7301L229.102 50.8867ZM232.949 51.668L232.789 52.8572C234.202 53.0474 235.695 53.1414 237.266 53.1414V51.9414V50.7414C235.79 50.7414 234.405 50.6531 233.109 50.4787L232.949 51.668ZM237.266 51.9414V53.1414C239.147 53.1414 240.786 53.0217 242.168 52.7705L241.953 51.5898L241.738 50.4092C240.542 50.6267 239.056 50.7414 237.266 50.7414V51.9414ZM241.953 51.5898L242.179 52.7683C243.536 52.508 244.704 52.1472 245.648 51.6601L245.098 50.5938L244.547 49.5274C243.876 49.8737 242.949 50.1769 241.727 50.4114L241.953 51.5898ZM245.098 50.5938L245.654 51.6567C246.602 51.1606 247.384 50.5237 247.894 49.7043L246.875 49.0703L245.856 48.4364C245.637 48.7888 245.234 49.1675 244.541 49.5308L245.098 50.5938ZM246.875 49.0703L247.884 49.7204C248.385 48.9427 248.641 48.0794 248.641 47.1562H247.441H246.241C246.241 47.6133 246.12 48.0261 245.866 48.4203L246.875 49.0703ZM247.441 47.1562H248.641C248.641 45.6481 247.98 44.4095 246.736 43.5514L246.055 44.5391L245.373 45.5267C245.979 45.9447 246.241 46.4509 246.241 47.1562H247.441ZM246.055 44.5391L246.746 43.5579C245.521 42.6953 243.796 42.3625 241.777 42.3625V43.5625V44.7625C243.613 44.7625 244.74 45.0807 245.364 45.5202L246.055 44.5391ZM241.777 43.5625V42.3625C240.876 42.3625 239.934 42.4249 238.953 42.5475L239.102 43.7383L239.25 44.929C240.144 44.8173 240.986 44.7625 241.777 44.7625V43.5625ZM239.102 43.7383L238.969 42.5456C238.022 42.6509 237.062 42.7692 236.089 42.9007L236.25 44.0898L236.411 45.279C237.365 45.1501 238.306 45.034 239.234 44.9309L239.102 43.7383ZM236.25 44.0898L236.087 42.9009C235.141 43.0305 234.202 43.1536 233.269 43.2702L233.418 44.4609L233.567 45.6517C234.509 45.5339 235.458 45.4096 236.413 45.2787L236.25 44.0898ZM233.418 44.4609L233.284 43.2685C232.398 43.3683 231.571 43.4172 230.801 43.4172V44.6172V45.8172C231.671 45.8172 232.589 45.7619 233.552 45.6534L233.418 44.4609ZM230.801 44.6172V43.4172C229.538 43.4172 228.331 43.255 227.177 42.9338L226.855 44.0898L226.534 45.2459C227.906 45.6278 229.33 45.8172 230.801 45.8172V44.6172ZM226.855 44.0898L227.18 42.9347C226.055 42.6181 225.071 42.1489 224.217 41.534L223.516 42.5078L222.814 43.4817C223.914 44.273 225.156 44.8585 226.531 45.245L226.855 44.0898ZM223.516 42.5078L224.223 41.5385C223.404 40.9408 222.754 40.1977 222.265 39.2983L221.211 39.8711L220.156 40.4439C220.814 41.6538 221.7 42.6685 222.808 43.4772L223.516 42.5078ZM221.211 39.8711L222.265 39.2983C221.803 38.4474 221.552 37.4203 221.552 36.1797H220.352H219.152C219.152 37.7516 219.473 39.1854 220.156 40.4439L221.211 39.8711ZM220.352 36.1797H221.552C221.552 35.454 221.648 34.7322 221.842 34.0118L220.684 33.6992L219.525 33.3866C219.277 34.3068 219.152 35.2387 219.152 36.1797H220.352ZM220.684 33.6992L221.837 34.0289C222.036 33.3333 222.347 32.6648 222.776 32.0211L221.777 31.3555L220.779 30.6898C220.218 31.5306 219.8 32.4245 219.53 33.3696L220.684 33.6992ZM221.777 31.3555L222.773 32.0251C223.206 31.3815 223.771 30.7723 224.482 30.2012L223.73 29.2656L222.979 28.3301C222.101 29.035 221.364 29.819 220.782 30.6859L221.777 31.3555ZM223.73 29.2656L224.491 30.1937C225.181 29.6283 226.033 29.1246 227.065 28.6929L226.602 27.5859L226.138 26.479C224.93 26.9847 223.869 27.6008 222.97 28.3376L223.73 29.2656ZM226.602 27.5859L227.06 28.6948C228.098 28.2655 229.313 27.9222 230.717 27.6738L230.508 26.4922L230.299 25.3106C228.76 25.583 227.371 25.9688 226.143 26.4771L226.602 27.5859ZM230.508 26.4922L230.725 27.6723C232.123 27.4149 233.734 27.282 235.566 27.282V26.082V24.882C233.623 24.882 231.862 25.0226 230.29 25.312L230.508 26.4922ZM235.566 26.082V27.282C236.888 27.282 238.216 27.3575 239.553 27.5088L239.688 26.3164L239.822 25.124C238.398 24.9628 236.979 24.882 235.566 24.882V26.082ZM239.688 26.3164L239.564 27.51C240.904 27.6491 242.204 27.8512 243.464 28.1158L243.711 26.9414L243.958 25.767C242.613 25.4847 241.231 25.2701 239.811 25.1228L239.688 26.3164ZM243.711 26.9414L243.467 28.1163C244.742 28.3815 245.964 28.7028 247.132 29.0796L247.5 27.9375L247.868 26.7954C246.615 26.391 245.31 26.0482 243.955 25.7665L243.711 26.9414ZM247.5 27.9375L247.143 29.0831C248.313 29.4479 249.393 29.8544 250.386 30.3013L250.879 29.207L251.371 28.1127C250.281 27.6222 249.109 27.1823 247.857 26.7919L247.5 27.9375ZM250.879 29.207L249.824 28.6344L247.109 33.6344L248.164 34.207L249.219 34.7796L251.933 29.7796L250.879 29.207ZM248.164 34.207L248.647 33.1084C247.744 32.7117 246.779 32.3518 245.752 32.0276L245.391 33.1719L245.029 34.3162C245.982 34.617 246.865 34.9472 247.681 35.3057L248.164 34.207ZM245.391 33.1719L245.766 32.032C244.734 31.6926 243.658 31.402 242.539 31.1593L242.285 32.332L242.031 33.5048C243.073 33.7308 244.068 34.0001 245.016 34.3118L245.391 33.1719ZM242.285 32.332L242.539 31.1593C241.417 30.9158 240.257 30.7272 239.06 30.5927L238.926 31.7852L238.792 32.9777C239.912 33.1036 240.992 33.2795 242.031 33.5048L242.285 32.332ZM238.926 31.7852L239.075 30.5944C237.878 30.4448 236.656 30.3703 235.41 30.3703V31.5703V32.7703C236.56 32.7703 237.682 32.8391 238.777 32.9759L238.926 31.7852ZM235.41 31.5703V30.3703C233.656 30.3703 232.154 30.4967 230.93 30.7703L231.191 31.9414L231.453 33.1125C232.443 32.8913 233.753 32.7703 235.41 32.7703V31.5703ZM231.191 31.9414L230.927 30.771C229.762 31.0344 228.756 31.39 227.957 31.8694L228.574 32.8984L229.192 33.9274C229.695 33.6256 230.433 33.3432 231.456 33.1118L231.191 31.9414ZM228.574 32.8984L227.972 31.8604C227.199 32.3091 226.549 32.8806 226.151 33.6169L227.207 34.1875L228.263 34.7581C228.386 34.5308 228.648 34.243 229.176 33.9365L228.574 32.8984ZM227.207 34.1875L226.146 33.6274C225.819 34.2459 225.636 34.9055 225.636 35.5938H226.836H228.036C228.036 35.3445 228.1 35.0666 228.268 34.7476L227.207 34.1875ZM226.836 35.5938H225.636C225.636 36.9382 226.272 38.0329 227.369 38.8163L228.066 37.8398L228.764 36.8634C228.22 36.4749 228.036 36.0722 228.036 35.5938H226.836ZM228.066 37.8398L227.379 38.8237C228.497 39.604 230.041 39.8992 231.816 39.8992V38.6992V37.4992C230.232 37.4992 229.277 37.2216 228.754 36.856L228.066 37.8398ZM231.816 38.6992V39.8992C232.545 39.8992 233.363 39.8503 234.265 39.756L234.141 38.5625L234.016 37.369C233.174 37.457 232.442 37.4992 231.816 37.4992V38.6992ZM234.141 38.5625L234.281 39.7543C235.168 39.6499 236.094 39.5391 237.059 39.4217L236.914 38.2305L236.769 37.0392C235.807 37.1563 234.884 37.2668 234 37.3707L234.141 38.5625ZM236.914 38.2305L237.057 39.4219C238.022 39.3061 239 39.2032 239.991 39.113L239.883 37.918L239.774 36.7229C238.76 36.8151 237.759 36.9204 236.771 37.039L236.914 38.2305ZM239.883 37.918L240.005 39.1117C240.983 39.0114 241.925 38.9617 242.832 38.9617V37.7617V36.5617C241.838 36.5617 240.814 36.6162 239.76 36.7242L239.883 37.918ZM242.832 37.7617V38.9617C244.542 38.9617 246.013 39.1541 247.261 39.5189L247.598 38.3672L247.934 37.2154C246.422 36.773 244.716 36.5617 242.832 36.5617V37.7617ZM247.598 38.3672L247.264 39.5198C248.535 39.8881 249.55 40.4027 250.341 41.04L251.094 40.1055L251.847 39.171C250.763 38.2978 249.447 37.6536 247.932 37.2146L247.598 38.3672ZM251.094 40.1055L250.349 41.0463C251.139 41.672 251.728 42.4247 252.129 43.3139L253.223 42.8203L254.316 42.3268C253.754 41.0805 252.923 40.0233 251.839 39.1646L251.094 40.1055ZM253.223 42.8203L252.131 43.3189C252.532 44.1974 252.745 45.2088 252.745 46.375H253.945H255.145C255.145 44.9109 254.876 43.5526 254.314 42.3217L253.223 42.8203ZM253.945 46.375H252.745C252.745 47.9381 252.383 49.2916 251.683 50.4689L252.715 51.082L253.746 51.6951C254.687 50.1121 255.145 48.3275 255.145 46.375H253.945ZM252.715 51.082L251.682 50.4719C250.983 51.655 249.968 52.6815 248.599 53.543L249.238 54.5586L249.877 55.5742C251.529 54.5346 252.832 53.2435 253.748 51.6922L252.715 51.082ZM249.238 54.5586L248.601 53.5415C247.239 54.3945 245.559 55.0669 243.536 55.5384L243.809 56.707L244.081 57.8757C246.303 57.3576 248.243 56.5977 249.875 55.5757L249.238 54.5586ZM243.809 56.707L243.543 55.5368C241.523 55.9954 239.25 56.2297 236.719 56.2297V57.4297V58.6297C239.395 58.6297 241.85 58.3822 244.074 57.8773L243.809 56.707ZM236.719 57.4297V56.2297C235.052 56.2297 233.426 56.1223 231.84 55.9084L231.68 57.0977L231.519 58.2869C233.215 58.5157 234.948 58.6297 236.719 58.6297V57.4297ZM231.68 57.0977L231.831 55.9072C230.238 55.7049 228.712 55.4146 227.254 55.0374L226.953 56.1992L226.653 57.361C228.215 57.7651 229.841 58.0738 231.529 58.2881L231.68 57.0977ZM226.953 56.1992L227.265 55.0406C225.811 54.6485 224.423 54.1878 223.102 53.6593L222.656 54.7734L222.211 55.8876C223.624 56.4528 225.101 56.9427 226.641 57.3579L226.953 56.1992ZM222.656 54.7734L223.115 53.6645C221.804 53.1223 220.594 52.5326 219.483 51.8963L218.887 52.9375L218.29 53.9787C219.498 54.6706 220.801 55.3047 222.198 55.8824L222.656 54.7734ZM218.887 52.9375L219.889 53.5968L223.19 48.5773L222.188 47.918L221.185 47.2586L217.884 52.2782L218.887 52.9375ZM262.188 47.918L262.778 46.8731L261.801 46.3216L261.185 47.2586L262.188 47.918ZM265.547 49.6172L265.056 50.7122L265.064 50.7156L265.071 50.7189L265.547 49.6172ZM269.102 50.8867L268.77 52.0401L268.782 52.0433L269.102 50.8867ZM272.949 51.668L272.788 52.857L272.789 52.8572L272.949 51.668ZM281.953 51.5898L282.168 52.7705L282.179 52.7683L281.953 51.5898ZM285.098 50.5938L285.648 51.6601L285.654 51.6567L285.098 50.5938ZM286.875 49.0703L285.866 48.4203L285.861 48.4283L285.856 48.4364L286.875 49.0703ZM286.055 44.5391L285.364 45.5202L285.373 45.5267L286.055 44.5391ZM279.102 43.7383L279.234 44.9309L279.242 44.93L279.25 44.929L279.102 43.7383ZM276.25 44.0898L276.089 42.9007L276.087 42.9009L276.25 44.0898ZM273.418 44.4609L273.552 45.6534L273.56 45.6526L273.567 45.6517L273.418 44.4609ZM266.855 44.0898L266.531 45.245L266.534 45.2459L266.855 44.0898ZM263.516 42.5078L262.808 43.4772L262.814 43.4817L263.516 42.5078ZM260.684 33.6992L259.53 33.3696L259.527 33.3781L259.525 33.3866L260.684 33.6992ZM261.777 31.3555L260.782 30.6859L260.779 30.6898L261.777 31.3555ZM263.73 29.2656L264.482 30.2012L264.491 30.1937L263.73 29.2656ZM266.602 27.5859L266.143 26.4771L266.138 26.479L266.602 27.5859ZM270.508 26.4922L270.717 27.6739L270.725 27.6723L270.508 26.4922ZM279.688 26.3164L279.553 27.5088L279.564 27.51L279.688 26.3164ZM283.711 26.9414L283.464 28.1158L283.467 28.1163L283.711 26.9414ZM287.5 27.9375L287.132 29.0796L287.143 29.0831L287.5 27.9375ZM290.879 29.207L291.933 29.7796L292.55 28.6433L291.371 28.1127L290.879 29.207ZM288.164 34.207L287.681 35.3057L288.692 35.7497L289.219 34.7796L288.164 34.207ZM285.391 33.1719L285.016 34.3118L285.022 34.314L285.029 34.3162L285.391 33.1719ZM278.926 31.7852L278.777 32.9759L278.784 32.9768L278.792 32.9777L278.926 31.7852ZM271.191 31.9414L270.93 30.7703L270.927 30.771L271.191 31.9414ZM268.574 32.8984L269.176 33.9365L269.184 33.932L269.192 33.9274L268.574 32.8984ZM267.207 34.1875L266.151 33.6169L266.146 33.6274L267.207 34.1875ZM268.066 37.8398L267.369 38.8164L267.379 38.8237L268.066 37.8398ZM274.141 38.5625L274.265 39.756L274.273 39.7552L274.281 39.7543L274.141 38.5625ZM276.914 38.2305L276.771 37.039L276.769 37.0392L276.914 38.2305ZM279.883 37.918L279.991 39.1131L280.005 39.1117L279.883 37.918ZM287.598 38.3672L287.261 39.5189L287.264 39.5198L287.598 38.3672ZM291.094 40.1055L290.341 41.04L290.349 41.0463L291.094 40.1055ZM293.223 42.8203L292.129 43.3139L292.131 43.3189L293.223 42.8203ZM292.715 51.082L291.683 50.4689L291.682 50.4719L292.715 51.082ZM289.238 54.5586L289.875 55.5757L289.877 55.5742L289.238 54.5586ZM283.809 56.707L284.074 57.8773L284.081 57.8757L283.809 56.707ZM271.68 57.0977L271.84 55.9084L271.831 55.9072L271.68 57.0977ZM266.953 56.1992L266.641 57.3579L266.653 57.361L266.953 56.1992ZM262.656 54.7734L262.198 55.8825L262.211 55.8876L262.656 54.7734ZM258.887 52.9375L257.884 52.2782L257.183 53.3443L258.29 53.9787L258.887 52.9375ZM262.188 47.918L261.597 48.9629C262.736 49.6057 263.889 50.1889 265.056 50.7122L265.547 49.6172L266.038 48.5222C264.94 48.0299 263.853 47.4803 262.778 46.8731L262.188 47.918ZM265.547 49.6172L265.071 50.7189C266.265 51.2344 267.498 51.6747 268.77 52.0401L269.102 50.8867L269.433 49.7334C268.257 49.3956 267.12 48.9896 266.023 48.5155L265.547 49.6172ZM269.102 50.8867L268.782 52.0433C270.061 52.3971 271.396 52.668 272.788 52.857L272.949 51.668L273.111 50.4789C271.82 50.3034 270.59 50.0534 269.421 49.7301L269.102 50.8867ZM272.949 51.668L272.789 52.8572C274.202 53.0474 275.695 53.1414 277.266 53.1414V51.9414V50.7414C275.79 50.7414 274.405 50.6531 273.109 50.4787L272.949 51.668ZM277.266 51.9414V53.1414C279.147 53.1414 280.786 53.0217 282.168 52.7705L281.953 51.5898L281.738 50.4092C280.542 50.6267 279.056 50.7414 277.266 50.7414V51.9414ZM281.953 51.5898L282.179 52.7683C283.536 52.508 284.704 52.1472 285.648 51.6601L285.098 50.5938L284.547 49.5274C283.876 49.8737 282.949 50.1769 281.727 50.4114L281.953 51.5898ZM285.098 50.5938L285.654 51.6567C286.602 51.1606 287.384 50.5237 287.894 49.7043L286.875 49.0703L285.856 48.4364C285.637 48.7888 285.234 49.1675 284.541 49.5308L285.098 50.5938ZM286.875 49.0703L287.884 49.7204C288.385 48.9427 288.641 48.0794 288.641 47.1562H287.441H286.241C286.241 47.6133 286.12 48.0261 285.866 48.4203L286.875 49.0703ZM287.441 47.1562H288.641C288.641 45.6481 287.98 44.4095 286.736 43.5514L286.055 44.5391L285.373 45.5267C285.979 45.9447 286.241 46.4509 286.241 47.1562H287.441ZM286.055 44.5391L286.746 43.5579C285.521 42.6953 283.796 42.3625 281.777 42.3625V43.5625V44.7625C283.613 44.7625 284.74 45.0807 285.364 45.5202L286.055 44.5391ZM281.777 43.5625V42.3625C280.876 42.3625 279.934 42.4249 278.953 42.5475L279.102 43.7383L279.25 44.929C280.144 44.8173 280.986 44.7625 281.777 44.7625V43.5625ZM279.102 43.7383L278.969 42.5456C278.022 42.6509 277.062 42.7692 276.089 42.9007L276.25 44.0898L276.411 45.279C277.365 45.1501 278.306 45.034 279.234 44.9309L279.102 43.7383ZM276.25 44.0898L276.087 42.9009C275.141 43.0305 274.202 43.1536 273.269 43.2702L273.418 44.4609L273.567 45.6517C274.509 45.5339 275.458 45.4096 276.413 45.2787L276.25 44.0898ZM273.418 44.4609L273.284 43.2685C272.398 43.3683 271.571 43.4172 270.801 43.4172V44.6172V45.8172C271.671 45.8172 272.589 45.7619 273.552 45.6534L273.418 44.4609ZM270.801 44.6172V43.4172C269.538 43.4172 268.331 43.255 267.177 42.9338L266.855 44.0898L266.534 45.2459C267.906 45.6278 269.33 45.8172 270.801 45.8172V44.6172ZM266.855 44.0898L267.18 42.9347C266.055 42.6181 265.071 42.1489 264.217 41.534L263.516 42.5078L262.814 43.4817C263.914 44.273 265.156 44.8585 266.531 45.245L266.855 44.0898ZM263.516 42.5078L264.223 41.5385C263.404 40.9408 262.754 40.1977 262.265 39.2983L261.211 39.8711L260.156 40.4439C260.814 41.6538 261.7 42.6685 262.808 43.4772L263.516 42.5078ZM261.211 39.8711L262.265 39.2983C261.803 38.4474 261.552 37.4203 261.552 36.1797H260.352H259.152C259.152 37.7516 259.473 39.1854 260.156 40.4439L261.211 39.8711ZM260.352 36.1797H261.552C261.552 35.454 261.648 34.7322 261.842 34.0118L260.684 33.6992L259.525 33.3866C259.277 34.3068 259.152 35.2387 259.152 36.1797H260.352ZM260.684 33.6992L261.837 34.0289C262.036 33.3333 262.347 32.6648 262.776 32.0211L261.777 31.3555L260.779 30.6898C260.218 31.5306 259.8 32.4245 259.53 33.3696L260.684 33.6992ZM261.777 31.3555L262.773 32.0251C263.206 31.3815 263.771 30.7723 264.482 30.2012L263.73 29.2656L262.979 28.3301C262.101 29.035 261.364 29.819 260.782 30.6859L261.777 31.3555ZM263.73 29.2656L264.491 30.1937C265.181 29.6283 266.033 29.1246 267.065 28.6929L266.602 27.5859L266.138 26.479C264.93 26.9847 263.869 27.6008 262.97 28.3376L263.73 29.2656ZM266.602 27.5859L267.06 28.6948C268.098 28.2655 269.313 27.9222 270.717 27.6738L270.508 26.4922L270.299 25.3106C268.76 25.583 267.371 25.9688 266.143 26.4771L266.602 27.5859ZM270.508 26.4922L270.725 27.6723C272.123 27.4149 273.734 27.282 275.566 27.282V26.082V24.882C273.623 24.882 271.862 25.0226 270.29 25.312L270.508 26.4922ZM275.566 26.082V27.282C276.888 27.282 278.216 27.3575 279.553 27.5088L279.688 26.3164L279.822 25.124C278.398 24.9628 276.979 24.882 275.566 24.882V26.082ZM279.688 26.3164L279.564 27.51C280.904 27.6491 282.204 27.8512 283.464 28.1158L283.711 26.9414L283.958 25.767C282.613 25.4847 281.231 25.2701 279.811 25.1228L279.688 26.3164ZM283.711 26.9414L283.467 28.1163C284.742 28.3815 285.964 28.7028 287.132 29.0796L287.5 27.9375L287.868 26.7954C286.615 26.391 285.31 26.0482 283.955 25.7665L283.711 26.9414ZM287.5 27.9375L287.143 29.0831C288.313 29.4479 289.393 29.8544 290.386 30.3013L290.879 29.207L291.371 28.1127C290.281 27.6222 289.109 27.1823 287.857 26.7919L287.5 27.9375ZM290.879 29.207L289.824 28.6344L287.109 33.6344L288.164 34.207L289.219 34.7796L291.933 29.7796L290.879 29.207ZM288.164 34.207L288.647 33.1084C287.744 32.7117 286.779 32.3518 285.752 32.0276L285.391 33.1719L285.029 34.3162C285.982 34.617 286.865 34.9472 287.681 35.3057L288.164 34.207ZM285.391 33.1719L285.766 32.032C284.734 31.6926 283.658 31.402 282.539 31.1593L282.285 32.332L282.031 33.5048C283.073 33.7308 284.068 34.0001 285.016 34.3118L285.391 33.1719ZM282.285 32.332L282.539 31.1593C281.417 30.9158 280.257 30.7272 279.06 30.5927L278.926 31.7852L278.792 32.9777C279.912 33.1036 280.992 33.2795 282.031 33.5048L282.285 32.332ZM278.926 31.7852L279.075 30.5944C277.878 30.4448 276.656 30.3703 275.41 30.3703V31.5703V32.7703C276.56 32.7703 277.682 32.8391 278.777 32.9759L278.926 31.7852ZM275.41 31.5703V30.3703C273.656 30.3703 272.154 30.4967 270.93 30.7703L271.191 31.9414L271.453 33.1125C272.443 32.8913 273.753 32.7703 275.41 32.7703V31.5703ZM271.191 31.9414L270.927 30.771C269.762 31.0344 268.756 31.39 267.957 31.8694L268.574 32.8984L269.192 33.9274C269.695 33.6256 270.433 33.3432 271.456 33.1118L271.191 31.9414ZM268.574 32.8984L267.972 31.8604C267.199 32.3091 266.549 32.8806 266.151 33.6169L267.207 34.1875L268.263 34.7581C268.386 34.5308 268.648 34.243 269.176 33.9365L268.574 32.8984ZM267.207 34.1875L266.146 33.6274C265.819 34.2459 265.636 34.9055 265.636 35.5938H266.836H268.036C268.036 35.3445 268.1 35.0666 268.268 34.7476L267.207 34.1875ZM266.836 35.5938H265.636C265.636 36.9382 266.272 38.0329 267.369 38.8163L268.066 37.8398L268.764 36.8634C268.22 36.4749 268.036 36.0722 268.036 35.5938H266.836ZM268.066 37.8398L267.379 38.8237C268.497 39.604 270.041 39.8992 271.816 39.8992V38.6992V37.4992C270.232 37.4992 269.277 37.2216 268.754 36.856L268.066 37.8398ZM271.816 38.6992V39.8992C272.545 39.8992 273.363 39.8503 274.265 39.756L274.141 38.5625L274.016 37.369C273.174 37.457 272.442 37.4992 271.816 37.4992V38.6992ZM274.141 38.5625L274.281 39.7543C275.168 39.6499 276.094 39.5391 277.059 39.4217L276.914 38.2305L276.769 37.0392C275.807 37.1563 274.884 37.2668 274 37.3707L274.141 38.5625ZM276.914 38.2305L277.057 39.4219C278.022 39.3061 279 39.2032 279.991 39.113L279.883 37.918L279.774 36.7229C278.76 36.8151 277.759 36.9204 276.771 37.039L276.914 38.2305ZM279.883 37.918L280.005 39.1117C280.983 39.0114 281.925 38.9617 282.832 38.9617V37.7617V36.5617C281.838 36.5617 280.814 36.6162 279.76 36.7242L279.883 37.918ZM282.832 37.7617V38.9617C284.542 38.9617 286.013 39.1541 287.261 39.5189L287.598 38.3672L287.934 37.2154C286.422 36.773 284.716 36.5617 282.832 36.5617V37.7617ZM287.598 38.3672L287.264 39.5198C288.535 39.8881 289.55 40.4027 290.341 41.04L291.094 40.1055L291.847 39.171C290.763 38.2978 289.447 37.6536 287.932 37.2146L287.598 38.3672ZM291.094 40.1055L290.349 41.0463C291.139 41.672 291.728 42.4247 292.129 43.3139L293.223 42.8203L294.316 42.3268C293.754 41.0805 292.923 40.0233 291.839 39.1646L291.094 40.1055ZM293.223 42.8203L292.131 43.3189C292.532 44.1974 292.745 45.2088 292.745 46.375H293.945H295.145C295.145 44.9109 294.876 43.5526 294.314 42.3217L293.223 42.8203ZM293.945 46.375H292.745C292.745 47.9381 292.383 49.2916 291.683 50.4689L292.715 51.082L293.746 51.6951C294.687 50.1121 295.145 48.3275 295.145 46.375H293.945ZM292.715 51.082L291.682 50.4719C290.983 51.655 289.968 52.6815 288.599 53.543L289.238 54.5586L289.877 55.5742C291.529 54.5346 292.832 53.2435 293.748 51.6922L292.715 51.082ZM289.238 54.5586L288.601 53.5415C287.239 54.3945 285.559 55.0669 283.536 55.5384L283.809 56.707L284.081 57.8757C286.303 57.3576 288.243 56.5977 289.875 55.5757L289.238 54.5586ZM283.809 56.707L283.543 55.5368C281.523 55.9954 279.25 56.2297 276.719 56.2297V57.4297V58.6297C279.395 58.6297 281.85 58.3822 284.074 57.8773L283.809 56.707ZM276.719 57.4297V56.2297C275.052 56.2297 273.426 56.1223 271.84 55.9084L271.68 57.0977L271.519 58.2869C273.215 58.5157 274.948 58.6297 276.719 58.6297V57.4297ZM271.68 57.0977L271.831 55.9072C270.238 55.7049 268.712 55.4146 267.254 55.0374L266.953 56.1992L266.653 57.361C268.215 57.7651 269.841 58.0738 271.529 58.2881L271.68 57.0977ZM266.953 56.1992L267.265 55.0406C265.811 54.6485 264.423 54.1878 263.102 53.6593L262.656 54.7734L262.211 55.8876C263.624 56.4528 265.101 56.9427 266.641 57.3579L266.953 56.1992ZM262.656 54.7734L263.115 53.6645C261.804 53.1223 260.594 52.5326 259.483 51.8963L258.887 52.9375L258.29 53.9787C259.498 54.6706 260.801 55.3047 262.198 55.8824L262.656 54.7734ZM258.887 52.9375L259.889 53.5968L263.19 48.5773L262.188 47.918L261.185 47.2586L257.884 52.2782L258.887 52.9375Z" fill="#80CD82" mask="url(#path-1-outside-1_149_10)"/>
</g>
<defs>
<filter id="filter0_d_149_10" x="2.41016" y="20.5818" width="297.035" height="42.348" filterUnits="userSpaceOnUse" color-interpolation-filters="sRGB">
<feFlood flood-opacity="0" result="BackgroundImageFix"/>
<feColorMatrix in="SourceAlpha" type="matrix" values="0 0 0 0 0 0 0 0 0 0 0 0 0 0 0 0 0 0 127 0" result="hardAlpha"/>
<feOffset/>
<feGaussianBlur stdDeviation="2.15"/>
<feComposite in2="hardAlpha" operator="out"/>
<feColorMatrix type="matrix" values="0 0 0 0 0.83101 0 0 0 0 1 0 0 0 0 0.822115 0 0 0 1 0"/>
<feBlend mode="normal" in2="BackgroundImageFix" result="effect1_dropShadow_149_10"/>
<feBlend mode="normal" in="SourceGraphic" in2="effect1_dropShadow_149_10" result="shape"/>
</filter>
</defs>
</svg>
