<svg width="100" height="100" viewBox="0 0 100 100" fill="none" xmlns="http://www.w3.org/2000/svg">
<g filter="url(#filter0_d_550_60)">
<mask id="path-1-outside-1_550_60" maskUnits="userSpaceOnUse" x="37" y="33" width="26" height="33" fill="black">
<rect fill="white" x="37" y="33" width="26" height="33"/>
<path d="M50.6256 64.336C49.5056 64.336 48.2876 64.308 46.9716 64.252C45.6836 64.196 44.4096 64.112 43.1496 64C41.9176 63.888 40.8116 63.776 39.8316 63.664V58.246C40.8676 58.33 41.9036 58.414 42.9396 58.498C44.0036 58.582 45.0116 58.638 45.9636 58.666C46.9156 58.694 47.7136 58.708 48.3576 58.708C49.7016 58.708 50.7236 58.666 51.4236 58.582C52.1236 58.47 52.6416 58.316 52.9776 58.12C53.2016 57.924 53.3556 57.714 53.4396 57.49C53.5516 57.266 53.6216 57 53.6496 56.692C53.6776 56.384 53.6916 56.034 53.6916 55.642C53.6916 55.054 53.6496 54.592 53.5656 54.256C53.5096 53.892 53.3696 53.612 53.1456 53.416C52.9496 53.22 52.6416 53.08 52.2216 52.996C51.8016 52.884 51.2556 52.786 50.5836 52.702L44.6616 51.946C43.5136 51.806 42.5756 51.526 41.8476 51.106C41.1196 50.658 40.5456 50.07 40.1256 49.342C39.7056 48.614 39.4116 47.76 39.2436 46.78C39.0756 45.772 38.9916 44.652 38.9916 43.42C38.9916 41.516 39.2716 40.004 39.8316 38.884C40.3916 37.736 41.1616 36.868 42.1416 36.28C43.1496 35.664 44.3116 35.258 45.6276 35.062C46.9716 34.866 48.4276 34.768 49.9956 34.768C51.1156 34.768 52.2776 34.81 53.4816 34.894C54.6856 34.95 55.8196 35.048 56.8836 35.188C57.9476 35.3 58.8296 35.44 59.5296 35.608V40.9C58.8296 40.788 58.0036 40.704 57.0516 40.648C56.1276 40.564 55.1616 40.508 54.1536 40.48C53.1456 40.424 52.1936 40.396 51.2976 40.396C50.2056 40.396 49.3376 40.438 48.6936 40.522C48.0496 40.578 47.5456 40.704 47.1816 40.9C46.7896 41.124 46.5376 41.418 46.4256 41.782C46.3416 42.146 46.2996 42.608 46.2996 43.168C46.2996 43.868 46.3556 44.414 46.4676 44.806C46.5796 45.17 46.8316 45.422 47.2236 45.562C47.6156 45.702 48.2176 45.828 49.0296 45.94L54.7836 46.612C55.5676 46.696 56.2816 46.836 56.9256 47.032C57.5976 47.228 58.1996 47.536 58.7316 47.956C59.2916 48.376 59.7536 48.978 60.1176 49.762C60.3136 50.126 60.4676 50.574 60.5796 51.106C60.6916 51.61 60.7896 52.198 60.8736 52.87C60.9576 53.542 60.9996 54.298 60.9996 55.138C60.9996 56.79 60.8316 58.19 60.4956 59.338C60.1596 60.458 59.6836 61.354 59.0676 62.026C58.4516 62.67 57.7096 63.174 56.8416 63.538C55.9736 63.874 55.0076 64.084 53.9436 64.168C52.9076 64.28 51.8016 64.336 50.6256 64.336Z"/>
</mask>
<path d="M50.6256 64.336C49.5056 64.336 48.2876 64.308 46.9716 64.252C45.6836 64.196 44.4096 64.112 43.1496 64C41.9176 63.888 40.8116 63.776 39.8316 63.664V58.246C40.8676 58.33 41.9036 58.414 42.9396 58.498C44.0036 58.582 45.0116 58.638 45.9636 58.666C46.9156 58.694 47.7136 58.708 48.3576 58.708C49.7016 58.708 50.7236 58.666 51.4236 58.582C52.1236 58.47 52.6416 58.316 52.9776 58.12C53.2016 57.924 53.3556 57.714 53.4396 57.49C53.5516 57.266 53.6216 57 53.6496 56.692C53.6776 56.384 53.6916 56.034 53.6916 55.642C53.6916 55.054 53.6496 54.592 53.5656 54.256C53.5096 53.892 53.3696 53.612 53.1456 53.416C52.9496 53.22 52.6416 53.08 52.2216 52.996C51.8016 52.884 51.2556 52.786 50.5836 52.702L44.6616 51.946C43.5136 51.806 42.5756 51.526 41.8476 51.106C41.1196 50.658 40.5456 50.07 40.1256 49.342C39.7056 48.614 39.4116 47.76 39.2436 46.78C39.0756 45.772 38.9916 44.652 38.9916 43.42C38.9916 41.516 39.2716 40.004 39.8316 38.884C40.3916 37.736 41.1616 36.868 42.1416 36.28C43.1496 35.664 44.3116 35.258 45.6276 35.062C46.9716 34.866 48.4276 34.768 49.9956 34.768C51.1156 34.768 52.2776 34.81 53.4816 34.894C54.6856 34.95 55.8196 35.048 56.8836 35.188C57.9476 35.3 58.8296 35.44 59.5296 35.608V40.9C58.8296 40.788 58.0036 40.704 57.0516 40.648C56.1276 40.564 55.1616 40.508 54.1536 40.48C53.1456 40.424 52.1936 40.396 51.2976 40.396C50.2056 40.396 49.3376 40.438 48.6936 40.522C48.0496 40.578 47.5456 40.704 47.1816 40.9C46.7896 41.124 46.5376 41.418 46.4256 41.782C46.3416 42.146 46.2996 42.608 46.2996 43.168C46.2996 43.868 46.3556 44.414 46.4676 44.806C46.5796 45.17 46.8316 45.422 47.2236 45.562C47.6156 45.702 48.2176 45.828 49.0296 45.94L54.7836 46.612C55.5676 46.696 56.2816 46.836 56.9256 47.032C57.5976 47.228 58.1996 47.536 58.7316 47.956C59.2916 48.376 59.7536 48.978 60.1176 49.762C60.3136 50.126 60.4676 50.574 60.5796 51.106C60.6916 51.61 60.7896 52.198 60.8736 52.87C60.9576 53.542 60.9996 54.298 60.9996 55.138C60.9996 56.79 60.8316 58.19 60.4956 59.338C60.1596 60.458 59.6836 61.354 59.0676 62.026C58.4516 62.67 57.7096 63.174 56.8416 63.538C55.9736 63.874 55.0076 64.084 53.9436 64.168C52.9076 64.28 51.8016 64.336 50.6256 64.336Z" fill="url(#paint0_linear_550_60)"/>
<path d="M46.9716 64.252L46.9064 65.7506L46.9078 65.7506L46.9716 64.252ZM43.1496 64L43.0138 65.4938L43.0168 65.4941L43.1496 64ZM39.8316 63.664H38.3316V65.0023L39.6613 65.1543L39.8316 63.664ZM39.8316 58.246L39.9528 56.7509L38.3316 56.6195V58.246H39.8316ZM42.9396 58.498L42.8183 59.9931L42.8215 59.9933L42.9396 58.498ZM45.9636 58.666L46.0077 57.1666L45.9636 58.666ZM51.4236 58.582L51.6023 60.0713L51.6315 60.0678L51.6606 60.0632L51.4236 58.582ZM52.9776 58.12L53.7334 59.4157L53.8573 59.3434L53.9653 59.2489L52.9776 58.12ZM53.4396 57.49L52.0979 56.8192L52.0627 56.8896L52.0351 56.9633L53.4396 57.49ZM53.6496 56.692L52.1557 56.5562L52.1557 56.5562L53.6496 56.692ZM53.5656 54.256L52.083 54.4841L52.0935 54.5526L52.1104 54.6198L53.5656 54.256ZM53.1456 53.416L52.0849 54.4767L52.1202 54.512L52.1578 54.5449L53.1456 53.416ZM52.2216 52.996L51.8351 54.4454L51.8809 54.4576L51.9274 54.4669L52.2216 52.996ZM50.5836 52.702L50.3936 54.1899L50.3975 54.1904L50.5836 52.702ZM44.6616 51.946L44.8515 50.4581L44.8432 50.457L44.6616 51.946ZM41.8476 51.106L41.0614 52.3835L41.0796 52.3946L41.098 52.4053L41.8476 51.106ZM40.1256 49.342L38.8263 50.0916L38.8263 50.0916L40.1256 49.342ZM39.2436 46.78L37.764 47.0266L37.7651 47.0334L39.2436 46.78ZM39.8316 38.884L41.1732 39.5548L41.1765 39.5482L41.1797 39.5416L39.8316 38.884ZM42.1416 36.28L42.9133 37.5663L42.9237 37.5599L42.1416 36.28ZM45.6276 35.062L45.4111 33.5777L45.4066 33.5784L45.6276 35.062ZM53.4816 34.894L53.3772 36.3904L53.3945 36.3916L53.4119 36.3924L53.4816 34.894ZM56.8836 35.188L56.6879 36.6752L56.7072 36.6777L56.7265 36.6798L56.8836 35.188ZM59.5296 35.608H61.0296V34.4254L59.8796 34.1494L59.5296 35.608ZM59.5296 40.9L59.2926 42.3812L61.0296 42.6591V40.9H59.5296ZM57.0516 40.648L56.9158 42.1418L56.9396 42.144L56.9635 42.1454L57.0516 40.648ZM54.1536 40.48L54.0704 41.9777L54.0911 41.9788L54.1119 41.9794L54.1536 40.48ZM48.6936 40.522L48.8235 42.0164L48.8556 42.0136L48.8876 42.0094L48.6936 40.522ZM47.1816 40.9L46.4704 39.5793L46.4538 39.5883L46.4374 39.5976L47.1816 40.9ZM46.4256 41.782L44.9919 41.3409L44.9761 41.3923L44.964 41.4447L46.4256 41.782ZM46.4676 44.806L45.0253 45.2181L45.0294 45.2326L45.0339 45.2471L46.4676 44.806ZM47.2236 45.562L46.7191 46.9746L46.7191 46.9746L47.2236 45.562ZM49.0296 45.94L48.8246 47.4259L48.8401 47.4281L48.8556 47.4299L49.0296 45.94ZM54.7836 46.612L54.6096 48.1019L54.6167 48.1027L54.6238 48.1035L54.7836 46.612ZM56.9256 47.032L56.4888 48.467L56.4972 48.4696L56.5056 48.472L56.9256 47.032ZM58.7316 47.956L57.8021 49.1333L57.8167 49.1448L57.8316 49.156L58.7316 47.956ZM60.1176 49.762L58.7571 50.3937L58.7758 50.434L58.7969 50.4732L60.1176 49.762ZM60.5796 51.106L59.1117 51.415L59.1135 51.4232L59.1153 51.4314L60.5796 51.106ZM60.8736 52.87L62.362 52.6839L62.362 52.6839L60.8736 52.87ZM60.4956 59.338L61.9323 59.769L61.9352 59.7593L60.4956 59.338ZM59.0676 62.026L60.1515 63.0628L60.1625 63.0513L60.1733 63.0396L59.0676 62.026ZM56.8416 63.538L57.3831 64.9369L57.4025 64.9293L57.4217 64.9213L56.8416 63.538ZM53.9436 64.168L53.8255 62.6727L53.8039 62.6744L53.7823 62.6767L53.9436 64.168ZM50.6256 64.336V62.836C49.5301 62.836 48.3337 62.8086 47.0353 62.7534L46.9716 64.252L46.9078 65.7506C48.2415 65.8074 49.481 65.836 50.6256 65.836V64.336ZM46.9716 64.252L47.0367 62.7534C45.7709 62.6984 44.5194 62.6159 43.2824 62.5059L43.1496 64L43.0168 65.4941C44.2997 65.6081 45.5963 65.6936 46.9064 65.7506L46.9716 64.252ZM43.1496 64L43.2854 62.5062C42.0621 62.395 40.968 62.2841 40.0019 62.1737L39.8316 63.664L39.6613 65.1543C40.6552 65.2679 41.773 65.381 43.0138 65.4938L43.1496 64ZM39.8316 63.664H41.3316V58.246H39.8316H38.3316V63.664H39.8316ZM39.8316 58.246L39.7103 59.7411C40.7463 59.8251 41.7823 59.9091 42.8183 59.9931L42.9396 58.498L43.0608 57.0029C42.0248 56.9189 40.9888 56.8349 39.9528 56.7509L39.8316 58.246ZM42.9396 58.498L42.8215 59.9933C43.9072 60.0791 44.9401 60.1365 45.9195 60.1654L45.9636 58.666L46.0077 57.1666C45.0831 57.1395 44.0999 57.0849 43.0576 57.0027L42.9396 58.498ZM45.9636 58.666L45.9195 60.1654C46.8799 60.1936 47.6937 60.208 48.3576 60.208V58.708V57.208C47.7334 57.208 46.9512 57.1944 46.0077 57.1666L45.9636 58.666ZM48.3576 58.708V60.208C49.7181 60.208 50.8117 60.1662 51.6023 60.0713L51.4236 58.582L51.2449 57.0927C50.6355 57.1658 49.685 57.208 48.3576 57.208V58.708ZM51.4236 58.582L51.6606 60.0632C52.4183 59.9419 53.1557 59.7526 53.7334 59.4157L52.9776 58.12L52.2218 56.8243C52.1274 56.8794 51.8288 56.9981 51.1866 57.1008L51.4236 58.582ZM52.9776 58.12L53.9653 59.2489C54.3311 58.9289 54.6543 58.5228 54.8441 58.0167L53.4396 57.49L52.0351 56.9633C52.0453 56.936 52.0545 56.9244 52.0515 56.9285C52.0478 56.9335 52.0307 56.9553 51.9898 56.9911L52.9776 58.12ZM53.4396 57.49L54.7812 58.1608C54.994 57.7353 55.1023 57.2798 55.1434 56.8278L53.6496 56.692L52.1557 56.5562C52.1408 56.7202 52.1092 56.7967 52.0979 56.8192L53.4396 57.49ZM53.6496 56.692L55.1434 56.8278C55.1764 56.4646 55.1916 56.068 55.1916 55.642H53.6916H52.1916C52.1916 56 52.1787 56.3034 52.1557 56.5562L53.6496 56.692ZM53.6916 55.642H55.1916C55.1916 55.0038 55.1481 54.4013 55.0208 53.8922L53.5656 54.256L52.1104 54.6198C52.1511 54.7827 52.1916 55.1042 52.1916 55.642H53.6916ZM53.5656 54.256L55.0481 54.0279C54.9516 53.4004 54.6818 52.7671 54.1333 52.2871L53.1456 53.416L52.1578 54.5449C52.1383 54.5278 52.1209 54.5091 52.1063 54.4899C52.0918 54.4709 52.0824 54.4547 52.0769 54.4438C52.0662 54.4224 52.0746 54.4296 52.083 54.4841L53.5656 54.256ZM53.1456 53.416L54.2062 52.3553C53.7154 51.8645 53.0793 51.6378 52.5157 51.5251L52.2216 52.996L51.9274 54.4669C52.0531 54.492 52.1206 54.5176 52.1469 54.5295C52.1721 54.541 52.1387 54.5304 52.0849 54.4767L53.1456 53.416ZM52.2216 52.996L52.6081 51.5466C52.0965 51.4102 51.4764 51.3019 50.7696 51.2136L50.5836 52.702L50.3975 54.1904C51.0347 54.2701 51.5066 54.3578 51.8351 54.4454L52.2216 52.996ZM50.5836 52.702L50.7735 51.2141L44.8515 50.4581L44.6616 51.946L44.4716 53.4339L50.3936 54.1899L50.5836 52.702ZM44.6616 51.946L44.8432 50.457C43.8249 50.3328 43.098 50.0957 42.5972 49.8067L41.8476 51.106L41.098 52.4053C42.0531 52.9563 43.2023 53.2791 44.48 53.435L44.6616 51.946ZM41.8476 51.106L42.6337 49.8285C42.1142 49.5088 41.7181 49.1007 41.4248 48.5924L40.1256 49.342L38.8263 50.0916C39.373 51.0393 40.125 51.8072 41.0614 52.3835L41.8476 51.106ZM40.1256 49.342L41.4248 48.5924C41.108 48.0432 40.8654 47.3631 40.722 46.5266L39.2436 46.78L37.7651 47.0334C37.9577 48.1569 38.3032 49.1848 38.8263 50.0916L40.1256 49.342ZM39.2436 46.78L40.7232 46.5334C40.5712 45.6215 40.4916 44.5856 40.4916 43.42H38.9916H37.4916C37.4916 44.7184 37.58 45.9225 37.764 47.0266L39.2436 46.78ZM38.9916 43.42H40.4916C40.4916 41.6385 40.7575 40.3863 41.1732 39.5548L39.8316 38.884L38.4899 38.2132C37.7857 39.6217 37.4916 41.3935 37.4916 43.42H38.9916ZM39.8316 38.884L41.1797 39.5416C41.6279 38.6228 42.2109 37.9877 42.9133 37.5662L42.1416 36.28L41.3698 34.9938C40.1123 35.7483 39.1552 36.8492 38.4834 38.2264L39.8316 38.884ZM42.1416 36.28L42.9237 37.5599C43.7398 37.0612 44.7063 36.7158 45.8485 36.5456L45.6276 35.062L45.4066 33.5784C43.9168 33.8002 42.5593 34.2668 41.3594 35.0001L42.1416 36.28ZM45.6276 35.062L45.844 36.5463C47.1064 36.3622 48.4892 36.268 49.9956 36.268V34.768V33.268C48.3659 33.268 46.8367 33.3698 45.4111 33.5777L45.6276 35.062ZM49.9956 34.768V36.268C51.0782 36.268 52.2053 36.3086 53.3772 36.3904L53.4816 34.894L53.586 33.3976C52.3499 33.3114 51.153 33.268 49.9956 33.268V34.768ZM53.4816 34.894L53.4119 36.3924C54.5788 36.4467 55.6704 36.5413 56.6879 36.6752L56.8836 35.188L57.0793 33.7008C55.9687 33.5547 54.7924 33.4533 53.5513 33.3956L53.4816 34.894ZM56.8836 35.188L56.7265 36.6798C57.7535 36.7879 58.5656 36.9192 59.1795 37.0666L59.5296 35.608L59.8796 34.1494C59.0936 33.9608 58.1416 33.8121 57.0406 33.6962L56.8836 35.188ZM59.5296 35.608H58.0296V40.9H59.5296H61.0296V35.608H59.5296ZM59.5296 40.9L59.7666 39.4188C59.0037 39.2968 58.1257 39.2086 57.1397 39.1506L57.0516 40.648L56.9635 42.1454C57.8814 42.1994 58.6554 42.2792 59.2926 42.3812L59.5296 40.9ZM57.0516 40.648L57.1874 39.1542C56.2295 39.0671 55.232 39.0094 54.1952 38.9806L54.1536 40.48L54.1119 41.9794C55.0912 42.0066 56.0256 42.0609 56.9158 42.1418L57.0516 40.648ZM54.1536 40.48L54.2368 38.9823C53.2045 38.925 52.2245 38.896 51.2976 38.896V40.396V41.896C52.1626 41.896 53.0867 41.923 54.0704 41.9777L54.1536 40.48ZM51.2976 40.396V38.896C50.178 38.896 49.2365 38.9385 48.4996 39.0346L48.6936 40.522L48.8876 42.0094C49.4386 41.9375 50.2332 41.896 51.2976 41.896V40.396ZM48.6936 40.522L48.5636 39.0276C47.8185 39.0924 47.0869 39.2473 46.4704 39.5793L47.1816 40.9L47.8927 42.2207C48.0043 42.1606 48.2807 42.0636 48.8235 42.0164L48.6936 40.522ZM47.1816 40.9L46.4374 39.5976C45.7798 39.9734 45.2363 40.5466 44.9919 41.3409L46.4256 41.782L47.8592 42.2231C47.8572 42.2298 47.8536 42.2387 47.8484 42.2482C47.8432 42.2576 47.8387 42.2632 47.8375 42.2647C47.8347 42.2679 47.8548 42.2429 47.9258 42.2024L47.1816 40.9ZM46.4256 41.782L44.964 41.4447C44.8452 41.9595 44.7996 42.5448 44.7996 43.168H46.2996H47.7996C47.7996 42.6712 47.8379 42.3325 47.8872 42.1193L46.4256 41.782ZM46.2996 43.168H44.7996C44.7996 43.9229 44.8572 44.6298 45.0253 45.2181L46.4676 44.806L47.9099 44.3939C47.8539 44.1982 47.7996 43.8131 47.7996 43.168H46.2996ZM46.4676 44.806L45.0339 45.2471C45.2994 46.1099 45.9294 46.6926 46.7191 46.9746L47.2236 45.562L47.7281 44.1494C47.7063 44.1416 47.7459 44.152 47.8012 44.2073C47.86 44.2661 47.8904 44.3295 47.9012 44.3649L46.4676 44.806ZM47.2236 45.562L46.7191 46.9746C47.2616 47.1684 47.9886 47.3106 48.8246 47.4259L49.0296 45.94L49.2345 44.4541C48.4465 44.3454 47.9696 44.2356 47.7281 44.1494L47.2236 45.562ZM49.0296 45.94L48.8556 47.4299L54.6096 48.1019L54.7836 46.612L54.9576 45.1221L49.2036 44.4501L49.0296 45.94ZM54.7836 46.612L54.6238 48.1035C55.3294 48.1791 55.9489 48.3027 56.4888 48.467L56.9256 47.032L57.3623 45.597C56.6142 45.3693 55.8058 45.2129 54.9434 45.1205L54.7836 46.612ZM56.9256 47.032L56.5056 48.472C56.9986 48.6158 57.4264 48.8367 57.8021 49.1333L58.7316 47.956L59.661 46.7787C58.9727 46.2353 58.1965 45.8402 57.3456 45.592L56.9256 47.032ZM58.7316 47.956L57.8316 49.156C58.1522 49.3965 58.4732 49.7822 58.7571 50.3937L60.1176 49.762L61.4781 49.1303C61.034 48.1738 60.4309 47.3555 59.6316 46.756L58.7316 47.956ZM60.1176 49.762L58.7969 50.4732C58.9073 50.6783 59.0206 50.982 59.1117 51.415L60.5796 51.106L62.0474 50.797C61.9146 50.166 61.7198 49.5737 61.4383 49.0508L60.1176 49.762ZM60.5796 51.106L59.1153 51.4314C59.2145 51.8778 59.3053 52.4174 59.3852 53.0561L60.8736 52.87L62.362 52.6839C62.2738 51.9786 62.1687 51.3422 62.0439 50.7806L60.5796 51.106ZM60.8736 52.87L59.3852 53.0561C59.4599 53.6538 59.4996 54.3461 59.4996 55.138H60.9996H62.4996C62.4996 54.2499 62.4553 53.4302 62.362 52.6839L60.8736 52.87ZM60.9996 55.138H59.4996C59.4996 56.6974 59.3399 57.9464 59.056 58.9167L60.4956 59.338L61.9352 59.7593C62.3232 58.4336 62.4996 56.8826 62.4996 55.138H60.9996ZM60.4956 59.338L59.0588 58.907C58.7701 59.8695 58.3881 60.5474 57.9618 61.0124L59.0676 62.026L60.1733 63.0396C60.979 62.1606 61.5491 61.0465 61.9323 59.769L60.4956 59.338ZM59.0676 62.026L57.9836 60.9892C57.5179 61.476 56.9504 61.8658 56.2615 62.1547L56.8416 63.538L57.4217 64.9213C58.4688 64.4822 59.3852 63.864 60.1515 63.0628L59.0676 62.026ZM56.8416 63.538L56.3001 62.1391C55.586 62.4156 54.7653 62.5985 53.8255 62.6727L53.9436 64.168L54.0616 65.6633C55.2499 65.5695 56.3611 65.3324 57.3831 64.9369L56.8416 63.538ZM53.9436 64.168L53.7823 62.6767C52.8062 62.7822 51.7544 62.836 50.6256 62.836V64.336V65.836C51.8487 65.836 53.009 65.7778 54.1048 65.6593L53.9436 64.168Z" fill="url(#paint1_linear_550_60)" mask="url(#path-1-outside-1_550_60)"/>
</g>
<defs>
<filter id="filter0_d_550_60" x="26.0916" y="22.868" width="47.8079" height="55.368" filterUnits="userSpaceOnUse" color-interpolation-filters="sRGB">
<feFlood flood-opacity="0" result="BackgroundImageFix"/>
<feColorMatrix in="SourceAlpha" type="matrix" values="0 0 0 0 0 0 0 0 0 0 0 0 0 0 0 0 0 0 127 0" result="hardAlpha"/>
<feOffset dy="1"/>
<feGaussianBlur stdDeviation="5.7"/>
<feComposite in2="hardAlpha" operator="out"/>
<feColorMatrix type="matrix" values="0 0 0 0 1 0 0 0 0 1 0 0 0 0 1 0 0 0 0.4 0"/>
<feBlend mode="normal" in2="BackgroundImageFix" result="effect1_dropShadow_550_60"/>
<feBlend mode="normal" in="SourceGraphic" in2="effect1_dropShadow_550_60" result="shape"/>
</filter>
<linearGradient id="paint0_linear_550_60" x1="50" y1="14" x2="50" y2="85" gradientUnits="userSpaceOnUse">
<stop stop-color="#F0E5FF"/>
<stop offset="1" stop-color="#AAC2FF"/>
</linearGradient>
<linearGradient id="paint1_linear_550_60" x1="50" y1="14" x2="50" y2="85" gradientUnits="userSpaceOnUse">
<stop stop-color="#A05CFF"/>
<stop offset="1" stop-color="#8CACFF"/>
</linearGradient>
</defs>
</svg>
