<svg width="100" height="100" viewBox="0 0 100 100" fill="none" xmlns="http://www.w3.org/2000/svg">
<g filter="url(#filter0_d_498_64)">
<mask id="path-1-outside-1_498_64" maskUnits="userSpaceOnUse" x="9.67476" y="26.261" width="79.5022" height="45.6525" fill="black">
<rect fill="white" x="9.67476" y="26.261" width="79.5022" height="45.6525"/>
<path d="M28.4926 68.0562C27.3609 68.2412 26.1256 68.4141 24.7867 68.5748C23.4761 68.7309 22.1749 68.8564 20.8833 68.9514C19.62 69.0417 18.484 69.1111 17.4753 69.1598L16.5806 63.6855C17.6412 63.5992 18.7019 63.513 19.7625 63.4268C20.8515 63.336 21.8792 63.2261 22.8457 63.0972C23.8123 62.9682 24.6209 62.8506 25.2716 62.7442C26.6295 62.5223 27.6552 62.3111 28.3487 62.1106C29.0374 61.8818 29.5354 61.6407 29.8425 61.3872C30.0365 61.1521 30.1574 60.9145 30.2053 60.6743C30.2815 60.4295 30.3083 60.1492 30.2857 59.8333C30.2631 59.5175 30.2195 59.1615 30.1547 58.7655C30.0576 58.1714 29.9389 57.7115 29.7985 57.3859C29.6818 57.0273 29.4941 56.7675 29.2354 56.6065C29.005 56.4408 28.6707 56.3502 28.2325 56.3347C27.7896 56.2909 27.2217 56.282 26.5289 56.3082L20.4204 56.5223C19.2374 56.5704 18.2434 56.4424 17.4384 56.1383C16.6289 55.8058 15.9518 55.3065 15.4072 54.6403C14.8626 53.9741 14.4245 53.1597 14.0929 52.1973C13.7567 51.2065 13.4869 50.0888 13.2834 48.8439C12.969 46.9201 13.0022 45.3462 13.3831 44.122C13.7593 42.8696 14.394 41.8654 15.287 41.1095C16.2038 40.3206 17.3108 39.7185 18.6082 39.3031C19.9338 38.8831 21.3887 38.5436 22.9731 38.2847C24.1047 38.0997 25.2857 37.9503 26.5161 37.8363C27.7419 37.6941 28.9039 37.6058 30.0021 37.5716C31.0956 37.509 32.0099 37.5048 32.745 37.5589L33.6189 42.906C32.8931 42.9084 32.0447 42.96 31.0735 43.0606C30.126 43.1283 29.1407 43.2313 28.1176 43.3694C27.0899 43.4793 26.1233 43.6083 25.218 43.7562C24.1147 43.9366 23.2446 44.1223 22.6077 44.3136C21.9663 44.4765 21.4779 44.6871 21.1424 44.9452C20.7834 45.2363 20.5773 45.5749 20.5242 45.9612C20.4995 46.3429 20.5333 46.8166 20.6258 47.3825C20.7414 48.0897 20.8882 48.6322 21.0661 49.0097C21.2393 49.359 21.5356 49.572 21.9548 49.6488C22.374 49.7255 23.0031 49.7534 23.842 49.7324L29.7668 49.4612C30.5729 49.4166 31.3174 49.4401 32.0005 49.5318C32.7118 49.6189 33.371 49.8307 33.9779 50.1672C34.613 50.4991 35.1793 51.031 35.6765 51.7631C35.9347 52.0985 36.1643 52.5257 36.3653 53.0448C36.5617 53.5355 36.7578 54.1134 36.9537 54.7786C37.1495 55.4437 37.3168 56.2006 37.4555 57.0494C37.7283 58.7185 37.7898 60.1608 37.6399 61.3763C37.4853 62.5634 37.1524 63.5473 36.6409 64.3281C36.1249 65.0805 35.4584 65.7123 34.6415 66.2234C33.8199 66.7062 32.8786 67.078 31.8174 67.3385C30.7891 67.6228 29.6808 67.862 28.4926 68.0562ZM54.6427 63.7822C53.511 63.9671 52.2757 64.14 50.9368 64.3007C49.6261 64.4569 48.325 64.5824 47.0334 64.6773C45.7701 64.7676 44.6341 64.8371 43.6254 64.8857L42.7307 59.4114C43.7913 59.3252 44.852 59.2389 45.9126 59.1527C47.0016 59.0619 48.0293 58.952 48.9958 58.8231C49.9623 58.6942 50.771 58.5765 51.4217 58.4702C52.7796 58.2482 53.8053 58.037 54.4987 57.8365C55.1875 57.6078 55.6855 57.3666 55.9926 57.1131C56.1866 56.8781 56.3075 56.6404 56.3554 56.4002C56.4315 56.1554 56.4583 55.8751 56.4358 55.5593C56.4132 55.2434 56.3695 54.8875 56.3048 54.4914C56.2077 53.8973 56.089 53.4374 55.9486 53.1118C55.8319 52.7532 55.6442 52.4935 55.3855 52.3324C55.1551 52.1667 54.8208 52.0761 54.3825 52.0606C53.9397 52.0168 53.3718 52.008 52.679 52.0341L46.5705 52.2482C45.3874 52.2963 44.3934 52.1683 43.5885 51.8642C42.7789 51.5317 42.1019 51.0324 41.5573 50.3662C41.0127 49.7 40.5746 48.8857 40.243 47.9232C39.9068 46.9325 39.637 45.8147 39.4335 44.5699C39.1191 42.6461 39.1523 41.0721 39.5331 39.848C39.9094 38.5955 40.544 37.5914 41.4371 36.8354C42.3539 36.0465 43.4609 35.4444 44.7583 35.029C46.0839 34.609 47.5388 34.2696 49.1231 34.0106C50.2548 33.8257 51.4358 33.6762 52.6662 33.5622C53.892 33.42 55.054 33.3317 56.1522 33.2975C57.2457 33.2349 58.16 33.2307 58.895 33.2849L59.769 38.6319C59.0432 38.6344 58.1947 38.6859 57.2236 38.7865C56.2761 38.8543 55.2908 38.9572 54.2677 39.0954C53.24 39.2053 52.2734 39.3342 51.3681 39.4822C50.2648 39.6625 49.3947 39.8483 48.7578 40.0395C48.1164 40.2024 47.6279 40.413 47.2925 40.6711C46.9334 40.9622 46.7274 41.3009 46.6743 41.6872C46.6496 42.0688 46.6834 42.5426 46.7759 43.1084C46.8915 43.8157 47.0383 44.3581 47.2162 44.7357C47.3894 45.085 47.6857 45.298 48.1049 45.3747C48.5241 45.4514 49.1531 45.4793 49.9921 45.4584L55.9169 45.1871C56.7229 45.1425 57.4675 45.1661 58.1506 45.2578C58.8619 45.3448 59.521 45.5566 60.1279 45.8931C60.7631 46.225 61.3293 46.757 61.8266 47.489C62.0848 47.8244 62.3143 48.2517 62.5154 48.7707C62.7118 49.2614 62.9079 49.8394 63.1037 50.5045C63.2996 51.1696 63.4669 51.9265 63.6056 52.7753C63.8784 54.4445 63.9399 55.8868 63.79 57.1022C63.6354 58.2893 63.3024 59.2733 62.791 60.054C62.275 60.8064 61.6085 61.4382 60.7916 61.9493C59.97 62.4322 59.0286 62.8039 57.9674 63.0645C56.9392 63.3487 55.8309 63.588 54.6427 63.7822ZM75.6237 57.7387L74.6318 51.6702L68.6482 52.6482L67.8506 47.768L73.8342 46.79L72.8492 40.764L77.8144 39.9524L78.7993 45.9785L84.8253 44.9936L85.623 49.8738L79.5969 50.8587L80.5888 56.9272L75.6237 57.7387Z"/>
</mask>
<path d="M28.4926 68.0562C27.3609 68.2412 26.1256 68.4141 24.7867 68.5748C23.4761 68.7309 22.1749 68.8564 20.8833 68.9514C19.62 69.0417 18.484 69.1111 17.4753 69.1598L16.5806 63.6855C17.6412 63.5992 18.7019 63.513 19.7625 63.4268C20.8515 63.336 21.8792 63.2261 22.8457 63.0972C23.8123 62.9682 24.6209 62.8506 25.2716 62.7442C26.6295 62.5223 27.6552 62.3111 28.3487 62.1106C29.0374 61.8818 29.5354 61.6407 29.8425 61.3872C30.0365 61.1521 30.1574 60.9145 30.2053 60.6743C30.2815 60.4295 30.3083 60.1492 30.2857 59.8333C30.2631 59.5175 30.2195 59.1615 30.1547 58.7655C30.0576 58.1714 29.9389 57.7115 29.7985 57.3859C29.6818 57.0273 29.4941 56.7675 29.2354 56.6065C29.005 56.4408 28.6707 56.3502 28.2325 56.3347C27.7896 56.2909 27.2217 56.282 26.5289 56.3082L20.4204 56.5223C19.2374 56.5704 18.2434 56.4424 17.4384 56.1383C16.6289 55.8058 15.9518 55.3065 15.4072 54.6403C14.8626 53.9741 14.4245 53.1597 14.0929 52.1973C13.7567 51.2065 13.4869 50.0888 13.2834 48.8439C12.969 46.9201 13.0022 45.3462 13.3831 44.122C13.7593 42.8696 14.394 41.8654 15.287 41.1095C16.2038 40.3206 17.3108 39.7185 18.6082 39.3031C19.9338 38.8831 21.3887 38.5436 22.9731 38.2847C24.1047 38.0997 25.2857 37.9503 26.5161 37.8363C27.7419 37.6941 28.9039 37.6058 30.0021 37.5716C31.0956 37.509 32.0099 37.5048 32.745 37.5589L33.6189 42.906C32.8931 42.9084 32.0447 42.96 31.0735 43.0606C30.126 43.1283 29.1407 43.2313 28.1176 43.3694C27.0899 43.4793 26.1233 43.6083 25.218 43.7562C24.1147 43.9366 23.2446 44.1223 22.6077 44.3136C21.9663 44.4765 21.4779 44.6871 21.1424 44.9452C20.7834 45.2363 20.5773 45.5749 20.5242 45.9612C20.4995 46.3429 20.5333 46.8166 20.6258 47.3825C20.7414 48.0897 20.8882 48.6322 21.0661 49.0097C21.2393 49.359 21.5356 49.572 21.9548 49.6488C22.374 49.7255 23.0031 49.7534 23.842 49.7324L29.7668 49.4612C30.5729 49.4166 31.3174 49.4401 32.0005 49.5318C32.7118 49.6189 33.371 49.8307 33.9779 50.1672C34.613 50.4991 35.1793 51.031 35.6765 51.7631C35.9347 52.0985 36.1643 52.5257 36.3653 53.0448C36.5617 53.5355 36.7578 54.1134 36.9537 54.7786C37.1495 55.4437 37.3168 56.2006 37.4555 57.0494C37.7283 58.7185 37.7898 60.1608 37.6399 61.3763C37.4853 62.5634 37.1524 63.5473 36.6409 64.3281C36.1249 65.0805 35.4584 65.7123 34.6415 66.2234C33.8199 66.7062 32.8786 67.078 31.8174 67.3385C30.7891 67.6228 29.6808 67.862 28.4926 68.0562ZM54.6427 63.7822C53.511 63.9671 52.2757 64.14 50.9368 64.3007C49.6261 64.4569 48.325 64.5824 47.0334 64.6773C45.7701 64.7676 44.6341 64.8371 43.6254 64.8857L42.7307 59.4114C43.7913 59.3252 44.852 59.2389 45.9126 59.1527C47.0016 59.0619 48.0293 58.952 48.9958 58.8231C49.9623 58.6942 50.771 58.5765 51.4217 58.4702C52.7796 58.2482 53.8053 58.037 54.4987 57.8365C55.1875 57.6078 55.6855 57.3666 55.9926 57.1131C56.1866 56.8781 56.3075 56.6404 56.3554 56.4002C56.4315 56.1554 56.4583 55.8751 56.4358 55.5593C56.4132 55.2434 56.3695 54.8875 56.3048 54.4914C56.2077 53.8973 56.089 53.4374 55.9486 53.1118C55.8319 52.7532 55.6442 52.4935 55.3855 52.3324C55.1551 52.1667 54.8208 52.0761 54.3825 52.0606C53.9397 52.0168 53.3718 52.008 52.679 52.0341L46.5705 52.2482C45.3874 52.2963 44.3934 52.1683 43.5885 51.8642C42.7789 51.5317 42.1019 51.0324 41.5573 50.3662C41.0127 49.7 40.5746 48.8857 40.243 47.9232C39.9068 46.9325 39.637 45.8147 39.4335 44.5699C39.1191 42.6461 39.1523 41.0721 39.5331 39.848C39.9094 38.5955 40.544 37.5914 41.4371 36.8354C42.3539 36.0465 43.4609 35.4444 44.7583 35.029C46.0839 34.609 47.5388 34.2696 49.1231 34.0106C50.2548 33.8257 51.4358 33.6762 52.6662 33.5622C53.892 33.42 55.054 33.3317 56.1522 33.2975C57.2457 33.2349 58.16 33.2307 58.895 33.2849L59.769 38.6319C59.0432 38.6344 58.1947 38.6859 57.2236 38.7865C56.2761 38.8543 55.2908 38.9572 54.2677 39.0954C53.24 39.2053 52.2734 39.3342 51.3681 39.4822C50.2648 39.6625 49.3947 39.8483 48.7578 40.0395C48.1164 40.2024 47.6279 40.413 47.2925 40.6711C46.9334 40.9622 46.7274 41.3009 46.6743 41.6872C46.6496 42.0688 46.6834 42.5426 46.7759 43.1084C46.8915 43.8157 47.0383 44.3581 47.2162 44.7357C47.3894 45.085 47.6857 45.298 48.1049 45.3747C48.5241 45.4514 49.1531 45.4793 49.9921 45.4584L55.9169 45.1871C56.7229 45.1425 57.4675 45.1661 58.1506 45.2578C58.8619 45.3448 59.521 45.5566 60.1279 45.8931C60.7631 46.225 61.3293 46.757 61.8266 47.489C62.0848 47.8244 62.3143 48.2517 62.5154 48.7707C62.7118 49.2614 62.9079 49.8394 63.1037 50.5045C63.2996 51.1696 63.4669 51.9265 63.6056 52.7753C63.8784 54.4445 63.9399 55.8868 63.79 57.1022C63.6354 58.2893 63.3024 59.2733 62.791 60.054C62.275 60.8064 61.6085 61.4382 60.7916 61.9493C59.97 62.4322 59.0286 62.8039 57.9674 63.0645C56.9392 63.3487 55.8309 63.588 54.6427 63.7822ZM75.6237 57.7387L74.6318 51.6702L68.6482 52.6482L67.8506 47.768L73.8342 46.79L72.8492 40.764L77.8144 39.9524L78.7993 45.9785L84.8253 44.9936L85.623 49.8738L79.5969 50.8587L80.5888 56.9272L75.6237 57.7387Z" fill="url(#paint0_linear_498_64)"/>
<path d="M24.7867 68.5748L24.9641 70.0643L24.9655 70.0641L24.7867 68.5748ZM20.8833 68.9514L20.9903 70.4475L20.9933 70.4473L20.8833 68.9514ZM17.4753 69.1598L15.995 69.4018L16.2109 70.7226L17.5476 70.6581L17.4753 69.1598ZM16.5806 63.6855L16.4591 62.1904L14.8379 62.3222L15.1002 63.9274L16.5806 63.6855ZM19.7625 63.4268L19.8841 64.9219L19.8872 64.9216L19.7625 63.4268ZM22.8457 63.0972L22.6474 61.6103L22.8457 63.0972ZM28.3487 62.1106L28.7653 63.5516L28.7935 63.5434L28.8215 63.5341L28.3487 62.1106ZM29.8425 61.3872L30.7974 62.5439L30.9081 62.4526L30.9994 62.3419L29.8425 61.3872ZM30.2053 60.6743L28.773 60.2287L28.7496 60.3039L28.7342 60.3811L30.2053 60.6743ZM30.2857 59.8333L28.7895 59.9403L28.7895 59.9403L30.2857 59.8333ZM29.7985 57.3859L28.3722 57.8501L28.3936 57.916L28.421 57.9796L29.7985 57.3859ZM29.2354 56.6065L28.3597 57.8243L28.4003 57.8535L28.4427 57.8799L29.2354 56.6065ZM28.2325 56.3347L28.0848 57.8274L28.132 57.8321L28.1794 57.8338L28.2325 56.3347ZM26.5289 56.3082L26.5814 57.8072L26.5853 57.8071L26.5289 56.3082ZM20.4204 56.5223L20.3679 55.0232L20.3594 55.0235L20.4204 56.5223ZM17.4384 56.1383L16.8686 57.5258L16.8883 57.5339L16.9082 57.5414L17.4384 56.1383ZM15.4072 54.6403L14.2458 55.5896L14.2458 55.5896L15.4072 54.6403ZM14.0929 52.1973L12.6725 52.6793L12.6747 52.6859L14.0929 52.1973ZM13.3831 44.122L14.8153 44.5677L14.8175 44.5606L14.8196 44.5536L13.3831 44.122ZM15.287 41.1095L16.2562 42.2544L16.2654 42.2465L15.287 41.1095ZM18.6082 39.3031L18.1551 37.8732L18.1508 37.8745L18.6082 39.3031ZM26.5161 37.8363L26.6545 39.3299L26.6718 39.3283L26.689 39.3263L26.5161 37.8363ZM30.0021 37.5716L30.0488 39.0708L30.0683 39.0702L30.0877 39.0691L30.0021 37.5716ZM32.745 37.5589L34.2253 37.317L34.0346 36.1499L32.8552 36.063L32.745 37.5589ZM33.6189 42.906L33.6239 44.406L35.383 44.4001L35.0993 42.664L33.6189 42.906ZM31.0735 43.0606L31.1804 44.5568L31.2043 44.5551L31.2281 44.5526L31.0735 43.0606ZM28.1176 43.3694L28.2771 44.8609L28.2978 44.8587L28.3184 44.856L28.1176 43.3694ZM22.6077 44.3136L22.977 45.7674L23.0083 45.7595L23.0391 45.7502L22.6077 44.3136ZM21.1424 44.9452L20.2276 43.7565L20.2126 43.768L20.1979 43.7799L21.1424 44.9452ZM20.5242 45.9612L19.0382 45.7571L19.0309 45.8104L19.0274 45.8641L20.5242 45.9612ZM21.0661 49.0097L19.7091 49.6491L19.7156 49.6628L19.7223 49.6764L21.0661 49.0097ZM21.9548 49.6488L21.6847 51.1243L21.6847 51.1243L21.9548 49.6488ZM23.842 49.7324L23.8794 51.232L23.895 51.2316L23.9106 51.2309L23.842 49.7324ZM29.7668 49.4612L29.8354 50.9596L29.8426 50.9593L29.8497 50.9589L29.7668 49.4612ZM32.0005 49.5318L31.8009 51.0185L31.8096 51.0197L31.8182 51.0207L32.0005 49.5318ZM33.9779 50.1672L33.2505 51.479L33.2667 51.488L33.2832 51.4966L33.9779 50.1672ZM35.6765 51.7631L34.4357 52.6059L34.4607 52.6427L34.4878 52.678L35.6765 51.7631ZM36.3653 53.0448L34.9665 53.5865L34.9695 53.5943L34.9727 53.6021L36.3653 53.0448ZM36.9537 54.7786L38.3926 54.3549L38.3926 54.3549L36.9537 54.7786ZM37.6399 61.3763L39.1274 61.5699L39.1286 61.5599L37.6399 61.3763ZM36.6409 64.3281L37.8779 65.1765L37.8869 65.1633L37.8957 65.15L36.6409 64.3281ZM34.6415 66.2234L35.4015 67.5166L35.4195 67.506L35.4371 67.495L34.6415 66.2234ZM31.8174 67.3385L31.4597 65.8818L31.4386 65.887L31.4177 65.8928L31.8174 67.3385ZM28.4926 68.0562L28.2506 66.5759C27.1432 66.7569 25.9293 66.9269 24.6079 67.0855L24.7867 68.5748L24.9655 70.0641C26.322 69.9013 27.5787 69.7255 28.7345 69.5366L28.4926 68.0562ZM24.7867 68.5748L24.6093 67.0853C23.3207 67.2388 22.042 67.3622 20.7734 67.4554L20.8833 68.9514L20.9933 70.4473C22.3078 70.3507 23.6315 70.223 24.9641 70.0643L24.7867 68.5748ZM20.8833 68.9514L20.7764 67.4552C19.5219 67.5448 18.3977 67.6136 17.403 67.6616L17.4753 69.1598L17.5476 70.6581C18.5703 70.6087 19.7182 70.5385 20.9903 70.4475L20.8833 68.9514ZM17.4753 69.1598L18.9557 68.9179L18.0609 63.4435L16.5806 63.6855L15.1002 63.9274L15.995 69.4018L17.4753 69.1598ZM16.5806 63.6855L16.7021 65.1805C17.7628 65.0943 18.8234 65.0081 19.8841 64.9219L19.7625 63.4268L19.641 61.9317C18.5803 62.018 17.5197 62.1042 16.4591 62.1904L16.5806 63.6855ZM19.7625 63.4268L19.8872 64.9216C20.9979 64.829 22.0503 64.7165 23.0441 64.584L22.8457 63.0972L22.6474 61.6103C21.7081 61.7356 20.705 61.843 19.6378 61.932L19.7625 63.4268ZM22.8457 63.0972L23.0441 64.584C24.019 64.4539 24.8432 64.3342 25.5135 64.2246L25.2716 62.7442L25.0296 61.2639C24.3985 61.367 23.6055 61.4825 22.6474 61.6103L22.8457 63.0972ZM25.2716 62.7442L25.5135 64.2246C26.8878 64 27.9842 63.7774 28.7653 63.5516L28.3487 62.1106L27.932 60.6696C27.3263 60.8447 26.3712 61.0446 25.0296 61.2639L25.2716 62.7442ZM28.3487 62.1106L28.8215 63.5341C29.5658 63.2869 30.2746 62.9756 30.7974 62.5439L29.8425 61.3872L28.8876 60.2304C28.7962 60.3058 28.5091 60.4767 27.8759 60.6871L28.3487 62.1106ZM29.8425 61.3872L30.9994 62.3419C31.3133 61.9616 31.5696 61.5032 31.6763 60.9675L30.2053 60.6743L28.7342 60.3811C28.7394 60.3553 28.7455 60.3451 28.7418 60.3524C28.7376 60.3607 28.7225 60.3877 28.6856 60.4324L29.8425 61.3872ZM30.2053 60.6743L31.6376 61.1199C31.7807 60.66 31.8147 60.1864 31.7819 59.7264L30.2857 59.8333L28.7895 59.9403C28.8018 60.1119 28.7823 60.199 28.773 60.2287L30.2053 60.6743ZM30.2857 59.8333L31.7819 59.7264C31.7553 59.3553 31.7053 58.9531 31.6351 58.5235L30.1547 58.7655L28.6744 59.0074C28.7336 59.37 28.7709 59.6797 28.7895 59.9403L30.2857 59.8333ZM30.1547 58.7655L31.6351 58.5235C31.5299 57.8798 31.387 57.2816 31.176 56.7921L29.7985 57.3859L28.421 57.9796C28.4908 58.1414 28.5854 58.4629 28.6744 59.0074L30.1547 58.7655ZM29.7985 57.3859L31.2249 56.9216C31.0257 56.3095 30.6529 55.722 30.0282 55.3331L29.2354 56.6065L28.4427 57.8799C28.4222 57.8671 28.4034 57.8525 28.3872 57.8372C28.3711 57.8221 28.3604 57.8089 28.3544 57.8006C28.3425 57.7841 28.3538 57.7935 28.3722 57.8501L29.7985 57.3859ZM29.2354 56.6065L30.1111 55.3886C29.5422 54.9796 28.8701 54.8563 28.2855 54.8356L28.2325 56.3347L28.1794 57.8338C28.3126 57.8385 28.3879 57.8535 28.4196 57.8621C28.4502 57.8704 28.4188 57.8668 28.3597 57.8243L29.2354 56.6065ZM28.2325 56.3347L28.3801 54.842C27.843 54.7889 27.2003 54.7818 26.4724 54.8092L26.5289 56.3082L26.5853 57.8071C27.2432 57.7823 27.7362 57.7929 28.0848 57.8274L28.2325 56.3347ZM26.5289 56.3082L26.4763 54.8091L20.3679 55.0232L20.4204 56.5223L20.473 58.0214L26.5814 57.8072L26.5289 56.3082ZM20.4204 56.5223L20.3594 55.0235C19.3069 55.0663 18.5283 54.9465 17.9686 54.7351L17.4384 56.1383L16.9082 57.5414C17.9584 57.9382 19.1678 58.0745 20.4814 58.021L20.4204 56.5223ZM17.4384 56.1383L18.0082 54.7507C17.4251 54.5112 16.9526 54.1608 16.5685 53.6909L15.4072 54.6403L14.2458 55.5896C14.9509 56.4522 15.8326 57.1004 16.8686 57.5258L17.4384 56.1383ZM15.4072 54.6403L16.5685 53.6909C16.1546 53.1845 15.7953 52.5336 15.5111 51.7087L14.0929 52.1973L12.6747 52.6859C13.0537 53.7859 13.5706 54.7636 14.2458 55.5896L15.4072 54.6403ZM14.0929 52.1973L15.5134 51.7153C15.2084 50.8167 14.9565 49.7813 14.7638 48.602L13.2834 48.8439L11.8031 49.0859C12.0172 50.3963 12.305 51.5964 12.6725 52.6793L14.0929 52.1973ZM13.2834 48.8439L14.7638 48.602C14.4691 46.7991 14.5303 45.4838 14.8153 44.5677L13.3831 44.122L11.9508 43.6764C11.4741 45.2086 11.4689 47.0412 11.8031 49.0859L13.2834 48.8439ZM13.3831 44.122L14.8196 44.5536C15.1225 43.5454 15.6101 42.8012 16.2562 42.2544L15.287 41.1095L14.3179 39.9646C13.1778 40.9296 12.3961 42.1939 11.9465 43.6905L13.3831 44.122ZM15.287 41.1095L16.2654 42.2465C17.0117 41.6043 17.9355 41.0935 19.0656 40.7317L18.6082 39.3031L18.1508 37.8745C16.6861 38.3435 15.3959 39.0369 14.3087 39.9725L15.287 41.1095ZM18.6082 39.3031L19.0612 40.7331C20.3082 40.338 21.6915 40.0141 23.215 39.7651L22.9731 38.2847L22.7311 36.8043C21.086 37.0732 19.5594 37.4283 18.1551 37.8732L18.6082 39.3031ZM22.9731 38.2847L23.215 39.7651C24.3098 39.5861 25.4561 39.4409 26.6545 39.3299L26.5161 37.8363L26.3778 36.3427C25.1153 36.4596 23.8996 36.6133 22.7311 36.8043L22.9731 38.2847ZM26.5161 37.8363L26.689 39.3263C27.8779 39.1883 28.9976 39.1036 30.0488 39.0708L30.0021 37.5716L29.9553 36.0723C28.8102 36.108 27.6059 36.1998 26.3432 36.3463L26.5161 37.8363ZM30.0021 37.5716L30.0877 39.0691C31.1441 39.0087 31.988 39.0073 32.6348 39.0549L32.745 37.5589L32.8552 36.063C32.0319 36.0024 31.0471 36.0093 29.9164 36.074L30.0021 37.5716ZM32.745 37.5589L31.2646 37.8009L32.1385 43.148L33.6189 42.906L35.0993 42.664L34.2253 37.317L32.745 37.5589ZM33.6189 42.906L33.6139 41.406C32.8245 41.4087 31.924 41.4644 30.9189 41.5686L31.0735 43.0606L31.2281 44.5526C32.1653 44.4555 32.9618 44.4082 33.6239 44.406L33.6189 42.906ZM31.0735 43.0606L30.9666 41.5644C29.9852 41.6346 28.9685 41.7409 27.9169 41.8829L28.1176 43.3694L28.3184 44.856C29.313 44.7216 30.2669 44.6221 31.1804 44.5568L31.0735 43.0606ZM28.1176 43.3694L27.9581 41.8779C26.9062 41.9904 25.912 42.1229 24.9761 42.2759L25.218 43.7562L25.46 45.2366C26.3347 45.0936 27.2735 44.9682 28.2771 44.8609L28.1176 43.3694ZM25.218 43.7562L24.9761 42.2759C23.8455 42.4607 22.903 42.6588 22.1764 42.8769L22.6077 44.3136L23.0391 45.7502C23.5862 45.5859 24.3839 45.4125 25.46 45.2366L25.218 43.7562ZM22.6077 44.3136L22.2385 42.8597C21.4986 43.0477 20.7902 43.3235 20.2276 43.7565L21.1424 44.9452L22.0573 46.1339C22.1655 46.0506 22.434 45.9053 22.977 45.7674L22.6077 44.3136ZM21.1424 44.9452L20.1979 43.7799C19.6012 44.2636 19.1525 44.9249 19.0382 45.7571L20.5242 45.9612L22.0103 46.1653C22.0097 46.1699 22.0081 46.1772 22.0052 46.1853C22.0023 46.1933 21.9998 46.1975 22 46.1972C22.0002 46.1969 22.0193 46.1654 22.087 46.1105L21.1424 44.9452ZM20.5242 45.9612L19.0274 45.8641C18.9926 46.4002 19.0428 46.9962 19.1455 47.6244L20.6258 47.3825L22.1062 47.1405C22.0239 46.637 22.0063 46.2856 22.0211 46.0583L20.5242 45.9612ZM20.6258 47.3825L19.1455 47.6244C19.2699 48.3859 19.4442 49.0868 19.7091 49.6491L21.0661 49.0097L22.423 48.3704C22.3321 48.1775 22.2129 47.7936 22.1062 47.1405L20.6258 47.3825ZM21.0661 49.0097L19.7223 49.6764C20.1275 50.4932 20.8502 50.9715 21.6847 51.1243L21.9548 49.6488L22.2248 48.1733C22.1972 48.1682 22.2338 48.1704 22.2939 48.2136C22.3225 48.2342 22.3487 48.2587 22.3705 48.2848C22.3919 48.3105 22.4042 48.3318 22.4098 48.3431L21.0661 49.0097ZM21.9548 49.6488L21.6847 51.1243C22.2611 51.2297 23.0163 51.2535 23.8794 51.232L23.842 49.7324L23.8046 48.2329C22.9899 48.2532 22.4868 48.2212 22.2248 48.1733L21.9548 49.6488ZM23.842 49.7324L23.9106 51.2309L29.8354 50.9596L29.7668 49.4612L29.6982 47.9628L23.7734 48.234L23.842 49.7324ZM29.7668 49.4612L29.8497 50.9589C30.577 50.9187 31.2257 50.9413 31.8009 51.0185L32.0005 49.5318L32.2 48.0452C31.4091 47.939 30.5687 47.9145 29.684 47.9635L29.7668 49.4612ZM32.0005 49.5318L31.8182 51.0207C32.3446 51.0851 32.8178 51.2391 33.2505 51.479L33.9779 50.1672L34.7052 48.8554C33.9242 48.4223 33.0791 48.1526 32.1827 48.0429L32.0005 49.5318ZM33.9779 50.1672L33.2832 51.4966C33.6532 51.69 34.0454 52.0313 34.4357 52.6059L35.6765 51.7631L36.9173 50.9202C36.3132 50.0308 35.5728 49.3082 34.6725 48.8377L33.9779 50.1672ZM35.6765 51.7631L34.4878 52.678C34.6359 52.8704 34.802 53.1618 34.9665 53.5865L36.3653 53.0448L37.764 52.503C37.5265 51.8897 37.2334 51.3266 36.8652 50.8482L35.6765 51.7631ZM36.3653 53.0448L34.9727 53.6021C35.1471 54.038 35.3284 54.5694 35.5147 55.2023L36.9537 54.7786L38.3926 54.3549C38.1872 53.6575 37.9762 53.033 37.7579 52.4874L36.3653 53.0448ZM36.9537 54.7786L35.5147 55.2023C35.6894 55.7956 35.8442 56.49 35.9752 57.2913L37.4555 57.0494L38.9359 56.8074C38.7894 55.9112 38.6096 55.0918 38.3926 54.3549L36.9537 54.7786ZM37.4555 57.0494L35.9752 57.2913C36.233 58.8691 36.2784 60.1611 36.1512 61.1927L37.6399 61.3763L39.1286 61.5599C39.3012 60.1606 39.2236 58.5679 38.9359 56.8074L37.4555 57.0494ZM37.6399 61.3763L36.1524 61.1826C36.0191 62.2068 35.7437 62.9603 35.3862 63.5061L36.6409 64.3281L37.8957 65.15C38.561 64.1344 38.9516 62.9201 39.1273 61.5699L37.6399 61.3763ZM36.6409 64.3281L35.4039 63.4797C35.0109 64.0528 34.4981 64.5437 33.8458 64.9518L34.6415 66.2234L35.4371 67.495C36.4187 66.8809 37.2389 66.1082 37.8779 65.1765L36.6409 64.3281ZM34.6415 66.2234L33.8814 64.9302C33.2022 65.3294 32.3998 65.651 31.4597 65.8818L31.8174 67.3385L32.1751 68.7953C33.3573 68.505 34.4377 68.0831 35.4015 67.5166L34.6415 66.2234ZM31.8174 67.3385L31.4177 65.8928C30.4474 66.161 29.3923 66.3893 28.2506 66.5759L28.4926 68.0562L28.7345 69.5366C29.9693 69.3348 31.1307 69.0846 32.217 68.7843L31.8174 67.3385ZM50.9368 64.3007L51.1142 65.7902L51.1156 65.79L50.9368 64.3007ZM47.0334 64.6773L47.1404 66.1735L47.1434 66.1733L47.0334 64.6773ZM43.6254 64.8857L42.1451 65.1277L42.3609 66.4485L43.6977 66.384L43.6254 64.8857ZM42.7307 59.4114L42.6091 57.9163L40.9879 58.0481L41.2503 59.6533L42.7307 59.4114ZM45.9126 59.1527L46.0341 60.6478L46.0373 60.6475L45.9126 59.1527ZM48.9958 58.8231L48.7975 57.3363L48.9958 58.8231ZM54.4987 57.8365L54.9153 59.2775L54.9436 59.2693L54.9715 59.2601L54.4987 57.8365ZM55.9926 57.1131L56.9475 58.2699L57.0582 58.1785L57.1495 58.0678L55.9926 57.1131ZM56.3554 56.4002L54.9231 55.9546L54.8997 56.0298L54.8843 56.107L56.3554 56.4002ZM56.4358 55.5593L54.9396 55.6662L54.9396 55.6662L56.4358 55.5593ZM55.9486 53.1118L54.5223 53.576L54.5437 53.6419L54.5711 53.7056L55.9486 53.1118ZM55.3855 52.3324L54.5098 53.5503L54.5504 53.5794L54.5928 53.6058L55.3855 52.3324ZM54.3825 52.0606L54.2349 53.5533L54.2821 53.558L54.3295 53.5597L54.3825 52.0606ZM52.679 52.0341L52.7315 53.5332L52.7354 53.533L52.679 52.0341ZM46.5705 52.2482L46.518 50.7491L46.5095 50.7494L46.5705 52.2482ZM43.5885 51.8642L43.0187 53.2517L43.0384 53.2598L43.0583 53.2674L43.5885 51.8642ZM41.5573 50.3662L40.3959 51.3155L40.3959 51.3156L41.5573 50.3662ZM40.243 47.9232L38.8225 48.4052L38.8248 48.4118L40.243 47.9232ZM39.5331 39.848L40.9654 40.2936L40.9676 40.2866L40.9697 40.2795L39.5331 39.848ZM41.4371 36.8354L42.4063 37.9803L42.4155 37.9724L41.4371 36.8354ZM44.7583 35.029L44.3052 33.5991L44.3009 33.6005L44.7583 35.029ZM52.6662 33.5622L52.8045 35.0558L52.8219 35.0542L52.8391 35.0522L52.6662 33.5622ZM56.1522 33.2975L56.1989 34.7967L56.2184 34.7961L56.2378 34.795L56.1522 33.2975ZM58.895 33.2849L60.3754 33.0429L60.1846 31.8758L59.0052 31.7889L58.895 33.2849ZM59.769 38.6319L59.774 40.1319L61.5331 40.126L61.2493 38.39L59.769 38.6319ZM57.2236 38.7865L57.3305 40.2827L57.3544 40.281L57.3782 40.2785L57.2236 38.7865ZM54.2677 39.0954L54.4272 40.5869L54.4478 40.5847L54.4685 40.5819L54.2677 39.0954ZM48.7578 40.0395L49.1271 41.4933L49.1584 41.4854L49.1892 41.4761L48.7578 40.0395ZM47.2925 40.6711L46.3777 39.4824L46.3627 39.494L46.348 39.5059L47.2925 40.6711ZM46.6743 41.6872L45.1883 41.4831L45.181 41.5364L45.1775 41.59L46.6743 41.6872ZM47.2162 44.7357L45.8592 45.375L45.8657 45.3887L45.8724 45.4023L47.2162 44.7357ZM48.1049 45.3747L47.8348 46.8502L47.8348 46.8502L48.1049 45.3747ZM49.9921 45.4584L50.0295 46.9579L50.0451 46.9575L50.0607 46.9568L49.9921 45.4584ZM55.9169 45.1871L55.9855 46.6856L55.9927 46.6852L55.9998 46.6848L55.9169 45.1871ZM58.1506 45.2578L57.951 46.7444L57.9597 46.7456L57.9683 46.7466L58.1506 45.2578ZM60.1279 45.8931L59.4006 47.2049L59.4168 47.214L59.4333 47.2226L60.1279 45.8931ZM61.8266 47.489L60.5858 48.3319L60.6108 48.3686L60.6379 48.4039L61.8266 47.489ZM62.5154 48.7707L61.1166 49.3124L61.1196 49.3202L61.1227 49.328L62.5154 48.7707ZM63.1037 50.5045L64.5427 50.0808L64.5427 50.0808L63.1037 50.5045ZM63.79 57.1022L65.2774 57.2958L65.2787 57.2858L63.79 57.1022ZM62.791 60.054L64.028 60.9024L64.037 60.8893L64.0458 60.8759L62.791 60.054ZM60.7916 61.9493L61.5516 63.2425L61.5695 63.232L61.5872 63.2209L60.7916 61.9493ZM57.9674 63.0645L57.6097 61.6077L57.5887 61.6129L57.5678 61.6187L57.9674 63.0645ZM54.6427 63.7822L54.4007 62.3018C53.2933 62.4828 52.0794 62.6528 50.758 62.8114L50.9368 64.3007L51.1156 65.79C52.4721 65.6272 53.7287 65.4514 54.8846 65.2625L54.6427 63.7822ZM50.9368 64.3007L50.7594 62.8113C49.4707 62.9648 48.1921 63.0881 46.9235 63.1813L47.0334 64.6773L47.1434 66.1733C48.4579 66.0766 49.7816 65.9489 51.1142 65.7902L50.9368 64.3007ZM47.0334 64.6773L46.9265 63.1811C45.672 63.2708 44.5478 63.3395 43.5531 63.3875L43.6254 64.8857L43.6977 66.384C44.7204 66.3346 45.8683 66.2644 47.1404 66.1735L47.0334 64.6773ZM43.6254 64.8857L45.1058 64.6438L44.211 59.1694L42.7307 59.4114L41.2503 59.6533L42.1451 65.1277L43.6254 64.8857ZM42.7307 59.4114L42.8522 60.9064C43.9128 60.8202 44.9735 60.734 46.0341 60.6478L45.9126 59.1527L45.7911 57.6577C44.7304 57.7439 43.6698 57.8301 42.6091 57.9163L42.7307 59.4114ZM45.9126 59.1527L46.0373 60.6475C47.148 60.5549 48.2004 60.4425 49.1941 60.3099L48.9958 58.8231L48.7975 57.3363C47.8581 57.4616 46.8551 57.5689 45.7879 57.6579L45.9126 59.1527ZM48.9958 58.8231L49.1941 60.3099C50.1691 60.1799 50.9933 60.0601 51.6636 59.9505L51.4217 58.4702L51.1797 56.9898C50.5486 57.093 49.7556 57.2084 48.7975 57.3363L48.9958 58.8231ZM51.4217 58.4702L51.6636 59.9505C53.0379 59.7259 54.1343 59.5033 54.9153 59.2775L54.4987 57.8365L54.0821 56.3955C53.4764 56.5707 52.5213 56.7705 51.1797 56.9898L51.4217 58.4702ZM54.4987 57.8365L54.9715 59.2601C55.7159 59.0128 56.4247 58.7015 56.9475 58.2699L55.9926 57.1131L55.0377 55.9563C54.9463 56.0317 54.6592 56.2027 54.0259 56.413L54.4987 57.8365ZM55.9926 57.1131L57.1495 58.0678C57.4633 57.6876 57.7197 57.2291 57.8264 56.6935L56.3554 56.4002L54.8843 56.107C54.8895 56.0812 54.8956 56.071 54.8919 56.0783C54.8877 56.0866 54.8726 56.1137 54.8357 56.1583L55.9926 57.1131ZM56.3554 56.4002L57.7877 56.8459C57.9307 56.3859 57.9648 55.9123 57.932 55.4523L56.4358 55.5593L54.9396 55.6662C54.9519 55.8378 54.9323 55.9249 54.9231 55.9546L56.3554 56.4002ZM56.4358 55.5593L57.932 55.4523C57.9054 55.0812 57.8554 54.6791 57.7852 54.2494L56.3048 54.4914L54.8245 54.7333C54.8837 55.0959 54.921 55.4056 54.9396 55.6662L56.4358 55.5593ZM56.3048 54.4914L57.7852 54.2494C57.68 53.6058 57.5371 53.0075 57.3261 52.518L55.9486 53.1118L54.5711 53.7056C54.6408 53.8673 54.7354 54.1888 54.8245 54.7333L56.3048 54.4914ZM55.9486 53.1118L57.375 52.6475C57.1757 52.0355 56.803 51.4479 56.1782 51.059L55.3855 52.3324L54.5928 53.6058C54.5723 53.5931 54.5535 53.5784 54.5373 53.5631C54.5212 53.548 54.5105 53.5348 54.5044 53.5265C54.4926 53.5101 54.5038 53.5195 54.5223 53.576L55.9486 53.1118ZM55.3855 52.3324L56.2612 51.1145C55.6923 50.7055 55.0202 50.5823 54.4356 50.5616L54.3825 52.0606L54.3295 53.5597C54.4627 53.5644 54.538 53.5794 54.5697 53.588C54.6003 53.5963 54.5689 53.5927 54.5098 53.5503L55.3855 52.3324ZM54.3825 52.0606L54.5302 50.5679C53.9931 50.5148 53.3504 50.5077 52.6225 50.5351L52.679 52.0341L52.7354 53.533C53.3932 53.5082 53.8863 53.5189 54.2349 53.5533L54.3825 52.0606ZM52.679 52.0341L52.6264 50.535L46.518 50.7491L46.5705 52.2482L46.623 53.7473L52.7315 53.5332L52.679 52.0341ZM46.5705 52.2482L46.5095 50.7494C45.457 50.7923 44.6783 50.6725 44.1187 50.461L43.5885 51.8642L43.0583 53.2674C44.1085 53.6642 45.3178 53.8004 46.6315 53.747L46.5705 52.2482ZM43.5885 51.8642L44.1583 50.4766C43.5752 50.2372 43.1027 49.8867 42.7186 49.4169L41.5573 50.3662L40.3959 51.3156C41.101 52.1781 41.9827 52.8263 43.0187 53.2517L43.5885 51.8642ZM41.5573 50.3662L42.7186 49.4169C42.3046 48.9104 41.9454 48.2595 41.6612 47.4346L40.243 47.9232L38.8248 48.4118C39.2038 49.5118 39.7207 50.4896 40.3959 51.3155L41.5573 50.3662ZM40.243 47.9232L41.6634 47.4412C41.3585 46.5427 41.1066 45.5072 40.9139 44.3279L39.4335 44.5699L37.9531 44.8118C38.1673 46.1222 38.4551 47.3223 38.8226 48.4052L40.243 47.9232ZM39.4335 44.5699L40.9139 44.3279C40.6192 42.525 40.6804 41.2097 40.9654 40.2936L39.5331 39.848L38.1009 39.4023C37.6242 40.9345 37.6189 42.7671 37.9531 44.8118L39.4335 44.5699ZM39.5331 39.848L40.9697 40.2795C41.2726 39.2713 41.7602 38.5271 42.4062 37.9803L41.4371 36.8354L40.468 35.6905C39.3279 36.6556 38.5462 37.9198 38.0966 39.4164L39.5331 39.848ZM41.4371 36.8354L42.4155 37.9724C43.1618 37.3302 44.0856 36.8194 45.2156 36.4576L44.7583 35.029L44.3009 33.6005C42.8362 34.0694 41.546 34.7628 40.4587 35.6984L41.4371 36.8354ZM44.7583 35.029L45.2113 36.459C46.4583 36.0639 47.8416 35.74 49.3651 35.491L49.1231 34.0106L48.8812 32.5303C47.236 32.7992 45.7095 33.1542 44.3052 33.5991L44.7583 35.029ZM49.1231 34.0106L49.3651 35.491C50.4598 35.312 51.6062 35.1668 52.8045 35.0558L52.6662 33.5622L52.5279 32.0686C51.2654 32.1856 50.0497 32.3393 48.8812 32.5303L49.1231 34.0106ZM52.6662 33.5622L52.8391 35.0522C54.028 34.9143 55.1476 34.8295 56.1989 34.7967L56.1522 33.2975L56.1054 31.7982C54.9603 31.8339 53.756 31.9257 52.4933 32.0722L52.6662 33.5622ZM56.1522 33.2975L56.2378 34.795C57.2942 34.7346 58.1381 34.7332 58.7848 34.7808L58.895 33.2849L59.0052 31.7889C58.182 31.7283 57.1972 31.7353 56.0665 31.7999L56.1522 33.2975ZM58.895 33.2849L57.4147 33.5268L58.2886 38.8739L59.769 38.6319L61.2493 38.39L60.3754 33.0429L58.895 33.2849ZM59.769 38.6319L59.7639 37.1319C58.9746 37.1346 58.0741 37.1904 57.069 37.2945L57.2236 38.7865L57.3782 40.2785C58.3154 40.1814 59.1118 40.1341 59.774 40.1319L59.769 38.6319ZM57.2236 38.7865L57.1166 37.2903C56.1352 37.3605 55.1186 37.4668 54.0669 37.6089L54.2677 39.0954L54.4685 40.5819C55.4631 40.4476 56.417 40.348 57.3305 40.2827L57.2236 38.7865ZM54.2677 39.0954L54.1082 37.6039C53.0563 37.7163 52.062 37.8488 51.1262 38.0018L51.3681 39.4822L51.6101 40.9625C52.4848 40.8195 53.4236 40.6942 54.4272 40.5869L54.2677 39.0954ZM51.3681 39.4822L51.1262 38.0018C49.9956 38.1866 49.0531 38.3847 48.3264 38.6029L48.7578 40.0395L49.1892 41.4761C49.7363 41.3119 50.5339 41.1384 51.6101 40.9625L51.3681 39.4822ZM48.7578 40.0395L48.3885 38.5857C47.6487 38.7736 46.9403 39.0494 46.3777 39.4824L47.2925 40.6711L48.2074 41.8598C48.3156 41.7766 48.5841 41.6313 49.1271 41.4933L48.7578 40.0395ZM47.2925 40.6711L46.348 39.5059C45.7513 39.9895 45.3026 40.6508 45.1883 41.4831L46.6743 41.6872L48.1604 41.8912C48.1597 41.8959 48.1582 41.9031 48.1553 41.9112C48.1524 41.9193 48.1499 41.9235 48.1501 41.9231C48.1503 41.9228 48.1694 41.8913 48.2371 41.8364L47.2925 40.6711ZM46.6743 41.6872L45.1775 41.59C45.1427 42.1261 45.1929 42.7222 45.2955 43.3503L46.7759 43.1084L48.2563 42.8664C48.174 42.363 48.1564 42.0115 48.1712 41.7843L46.6743 41.6872ZM46.7759 43.1084L45.2955 43.3503C45.42 44.1118 45.5943 44.8128 45.8592 45.375L47.2162 44.7357L48.5731 44.0963C48.4822 43.9034 48.363 43.5195 48.2563 42.8664L46.7759 43.1084ZM47.2162 44.7357L45.8724 45.4023C46.2776 46.2191 47.0003 46.6974 47.8348 46.8502L48.1049 45.3747L48.3749 43.8992C48.3473 43.8941 48.3839 43.8963 48.444 43.9395C48.4726 43.9601 48.4988 43.9846 48.5206 44.0107C48.542 44.0364 48.5542 44.0577 48.5599 44.0691L47.2162 44.7357ZM48.1049 45.3747L47.8348 46.8502C48.4112 46.9557 49.1663 46.9794 50.0295 46.9579L49.9921 45.4584L49.9547 43.9588C49.1399 43.9792 48.6369 43.9471 48.3749 43.8992L48.1049 45.3747ZM49.9921 45.4584L50.0607 46.9568L55.9855 46.6856L55.9169 45.1871L55.8483 43.6887L49.9235 43.9599L49.9921 45.4584ZM55.9169 45.1871L55.9998 46.6848C56.7271 46.6446 57.3758 46.6672 57.951 46.7444L58.1506 45.2578L58.3501 43.7711C57.5592 43.6649 56.7188 43.6405 55.834 43.6894L55.9169 45.1871ZM58.1506 45.2578L57.9683 46.7466C58.4947 46.8111 58.9678 46.965 59.4006 47.2049L60.1279 45.8931L60.8553 44.5813C60.0742 44.1482 59.2292 43.8786 58.3328 43.7689L58.1506 45.2578ZM60.1279 45.8931L59.4333 47.2226C59.8033 47.4159 60.1954 47.7572 60.5858 48.3319L61.8266 47.489L63.0674 46.6462C62.4633 45.7567 61.7229 45.0341 60.8226 44.5637L60.1279 45.8931ZM61.8266 47.489L60.6379 48.4039C60.786 48.5963 60.9521 48.8877 61.1166 49.3124L62.5154 48.7707L63.9141 48.229C63.6766 47.6156 63.3835 47.0525 63.0153 46.5741L61.8266 47.489ZM62.5154 48.7707L61.1227 49.328C61.2972 49.7639 61.4785 50.2953 61.6648 50.9282L63.1037 50.5045L64.5427 50.0808C64.3373 49.3835 64.1263 48.7589 63.908 48.2134L62.5154 48.7707ZM63.1037 50.5045L61.6648 50.9282C61.8395 51.5215 61.9943 52.216 62.1252 53.0172L63.6056 52.7753L65.086 52.5333C64.9395 51.6371 64.7597 50.8177 64.5427 50.0808L63.1037 50.5045ZM63.6056 52.7753L62.1252 53.0172C62.3831 54.5951 62.4285 55.887 62.3012 56.9186L63.79 57.1022L65.2787 57.2858C65.4513 55.8865 65.3737 54.2939 65.086 52.5333L63.6056 52.7753ZM63.79 57.1022L62.3025 56.9086C62.1692 57.9327 61.8938 58.6862 61.5363 59.232L62.791 60.054L64.0458 60.8759C64.7111 59.8603 65.1017 58.646 65.2774 57.2958L63.79 57.1022ZM62.791 60.054L61.554 59.2056C61.1609 59.7787 60.6482 60.2696 59.9959 60.6777L60.7916 61.9493L61.5872 63.2209C62.5687 62.6068 63.389 61.8342 64.028 60.9024L62.791 60.054ZM60.7916 61.9493L60.0315 60.6561C59.3523 61.0553 58.5499 61.3769 57.6097 61.6077L57.9674 63.0645L58.3252 64.5212C59.5074 64.2309 60.5878 63.809 61.5516 63.2425L60.7916 61.9493ZM57.9674 63.0645L57.5678 61.6187C56.5975 61.8869 55.5424 62.1152 54.4007 62.3018L54.6427 63.7822L54.8846 65.2625C56.1194 65.0607 57.2808 64.8105 58.3671 64.5102L57.9674 63.0645ZM75.6237 57.7387L74.1433 57.9807L74.3853 59.461L75.8656 59.2191L75.6237 57.7387ZM74.6318 51.6702L76.1122 51.4283L75.8702 49.9479L74.3899 50.1899L74.6318 51.6702ZM68.6482 52.6482L67.1678 52.8902L67.4098 54.3705L68.8902 54.1286L68.6482 52.6482ZM67.8506 47.768L67.6086 46.2876L66.1282 46.5296L66.3702 48.0099L67.8506 47.768ZM73.8342 46.79L74.0761 48.2703L75.5565 48.0284L75.3145 46.548L73.8342 46.79ZM72.8492 40.764L72.6073 39.2836L71.1269 39.5255L71.3689 41.0059L72.8492 40.764ZM77.8144 39.9524L79.2947 39.7105L79.0528 38.2301L77.5724 38.4721L77.8144 39.9524ZM78.7993 45.9785L77.3189 46.2204L77.5609 47.7008L79.0412 47.4588L78.7993 45.9785ZM84.8253 44.9936L86.3057 44.7516L86.0637 43.2712L84.5834 43.5132L84.8253 44.9936ZM85.623 49.8738L85.8649 51.3542L87.3453 51.1122L87.1033 49.6318L85.623 49.8738ZM79.5969 50.8587L79.355 49.3784L77.8746 49.6203L78.1166 51.1007L79.5969 50.8587ZM80.5888 56.9272L80.8307 58.4076L82.3111 58.1656L82.0691 56.6852L80.5888 56.9272ZM75.6237 57.7387L77.104 57.4968L76.1122 51.4283L74.6318 51.6702L73.1515 51.9122L74.1433 57.9807L75.6237 57.7387ZM74.6318 51.6702L74.3899 50.1899L68.4063 51.1679L68.6482 52.6482L68.8902 54.1286L74.8738 53.1506L74.6318 51.6702ZM68.6482 52.6482L70.1286 52.4063L69.3309 47.526L67.8506 47.768L66.3702 48.0099L67.1678 52.8902L68.6482 52.6482ZM67.8506 47.768L68.0925 49.2483L74.0761 48.2703L73.8342 46.79L73.5922 45.3096L67.6086 46.2876L67.8506 47.768ZM73.8342 46.79L75.3145 46.548L74.3296 40.522L72.8492 40.764L71.3689 41.0059L72.3538 47.0319L73.8342 46.79ZM72.8492 40.764L73.0912 42.2443L78.0563 41.4328L77.8144 39.9524L77.5724 38.4721L72.6073 39.2836L72.8492 40.764ZM77.8144 39.9524L76.334 40.1944L77.3189 46.2204L78.7993 45.9785L80.2796 45.7365L79.2947 39.7105L77.8144 39.9524ZM78.7993 45.9785L79.0412 47.4588L85.0673 46.4739L84.8253 44.9936L84.5834 43.5132L78.5573 44.4981L78.7993 45.9785ZM84.8253 44.9936L83.345 45.2355L84.1426 50.1158L85.623 49.8738L87.1033 49.6318L86.3057 44.7516L84.8253 44.9936ZM85.623 49.8738L85.381 48.3934L79.355 49.3784L79.5969 50.8587L79.8389 52.3391L85.8649 51.3542L85.623 49.8738ZM79.5969 50.8587L78.1166 51.1007L79.1084 57.1692L80.5888 56.9272L82.0691 56.6852L81.0773 50.6168L79.5969 50.8587ZM80.5888 56.9272L80.3468 55.4468L75.3817 56.2584L75.6237 57.7387L75.8656 59.2191L80.8307 58.4076L80.5888 56.9272Z" fill="url(#paint1_linear_498_64)" mask="url(#path-1-outside-1_498_64)"/>
</g>
<defs>
<filter id="filter0_d_498_64" x="0.170069" y="21.3472" width="98.5753" height="61.7754" filterUnits="userSpaceOnUse" color-interpolation-filters="sRGB">
<feFlood flood-opacity="0" result="BackgroundImageFix"/>
<feColorMatrix in="SourceAlpha" type="matrix" values="0 0 0 0 0 0 0 0 0 0 0 0 0 0 0 0 0 0 127 0" result="hardAlpha"/>
<feOffset dy="1"/>
<feGaussianBlur stdDeviation="5.7"/>
<feComposite in2="hardAlpha" operator="out"/>
<feColorMatrix type="matrix" values="0 0 0 0 1 0 0 0 0 1 0 0 0 0 1 0 0 0 0.57 0"/>
<feBlend mode="normal" in2="BackgroundImageFix" result="effect1_dropShadow_498_64"/>
<feBlend mode="normal" in="SourceGraphic" in2="effect1_dropShadow_498_64" result="shape"/>
</filter>
<linearGradient id="paint0_linear_498_64" x1="44.2737" y1="14.4649" x2="55.7262" y2="84.5351" gradientUnits="userSpaceOnUse">
<stop stop-color="#F7AAFF"/>
<stop offset="1" stop-color="#CACDFF"/>
</linearGradient>
<linearGradient id="paint1_linear_498_64" x1="44.2737" y1="14.4649" x2="55.7262" y2="84.5351" gradientUnits="userSpaceOnUse">
<stop stop-color="#FF5CE1"/>
<stop offset="1" stop-color="#8CACFF"/>
</linearGradient>
</defs>
</svg>
