<svg width="100" height="100" viewBox="0 0 100 100" fill="none" xmlns="http://www.w3.org/2000/svg">
<g filter="url(#filter0_d_498_73)">
<mask id="path-1-outside-1_498_73" maskUnits="userSpaceOnUse" x="24" y="33" width="52" height="33" fill="black">
<rect fill="white" x="24" y="33" width="52" height="33"/>
<path d="M37.6851 64.336C36.5651 64.336 35.3471 64.308 34.0311 64.252C32.7431 64.196 31.4691 64.112 30.2091 64C28.9771 63.888 27.8711 63.776 26.8911 63.664V58.246C27.9271 58.33 28.9631 58.414 29.9991 58.498C31.0631 58.582 32.0711 58.638 33.0231 58.666C33.9751 58.694 34.7731 58.708 35.4171 58.708C36.7611 58.708 37.7831 58.666 38.4831 58.582C39.1831 58.47 39.7011 58.316 40.0371 58.12C40.2611 57.924 40.4151 57.714 40.4991 57.49C40.6111 57.266 40.6811 57 40.7091 56.692C40.7371 56.384 40.7511 56.034 40.7511 55.642C40.7511 55.054 40.7091 54.592 40.6251 54.256C40.5691 53.892 40.4291 53.612 40.2051 53.416C40.0091 53.22 39.7011 53.08 39.2811 52.996C38.8611 52.884 38.3151 52.786 37.6431 52.702L31.7211 51.946C30.5731 51.806 29.6351 51.526 28.9071 51.106C28.1791 50.658 27.6051 50.07 27.1851 49.342C26.7651 48.614 26.4711 47.76 26.3031 46.78C26.1351 45.772 26.0511 44.652 26.0511 43.42C26.0511 41.516 26.3311 40.004 26.8911 38.884C27.4511 37.736 28.2211 36.868 29.2011 36.28C30.2091 35.664 31.3711 35.258 32.6871 35.062C34.0311 34.866 35.4871 34.768 37.0551 34.768C38.1751 34.768 39.3371 34.81 40.5411 34.894C41.7451 34.95 42.8791 35.048 43.9431 35.188C45.0071 35.3 45.8891 35.44 46.5891 35.608V40.9C45.8891 40.788 45.0631 40.704 44.1111 40.648C43.1871 40.564 42.2211 40.508 41.2131 40.48C40.2051 40.424 39.2531 40.396 38.3571 40.396C37.2651 40.396 36.3971 40.438 35.7531 40.522C35.1091 40.578 34.6051 40.704 34.2411 40.9C33.8491 41.124 33.5971 41.418 33.4851 41.782C33.4011 42.146 33.3591 42.608 33.3591 43.168C33.3591 43.868 33.4151 44.414 33.5271 44.806C33.6391 45.17 33.8911 45.422 34.2831 45.562C34.6751 45.702 35.2771 45.828 36.0891 45.94L41.8431 46.612C42.6271 46.696 43.3411 46.836 43.9851 47.032C44.6571 47.228 45.2591 47.536 45.7911 47.956C46.3511 48.376 46.8131 48.978 47.1771 49.762C47.3731 50.126 47.5271 50.574 47.6391 51.106C47.7511 51.61 47.8491 52.198 47.9331 52.87C48.0171 53.542 48.0591 54.298 48.0591 55.138C48.0591 56.79 47.8911 58.19 47.5551 59.338C47.2191 60.458 46.7431 61.354 46.1271 62.026C45.5111 62.67 44.7691 63.174 43.9011 63.538C43.0331 63.874 42.0671 64.084 41.0031 64.168C39.9671 64.28 38.8611 64.336 37.6851 64.336ZM63.566 64.336C62.446 64.336 61.228 64.308 59.912 64.252C58.624 64.196 57.35 64.112 56.09 64C54.858 63.888 53.752 63.776 52.772 63.664V58.246C53.808 58.33 54.844 58.414 55.88 58.498C56.944 58.582 57.952 58.638 58.904 58.666C59.856 58.694 60.654 58.708 61.298 58.708C62.642 58.708 63.664 58.666 64.364 58.582C65.064 58.47 65.582 58.316 65.918 58.12C66.142 57.924 66.296 57.714 66.38 57.49C66.492 57.266 66.562 57 66.59 56.692C66.618 56.384 66.632 56.034 66.632 55.642C66.632 55.054 66.59 54.592 66.506 54.256C66.45 53.892 66.31 53.612 66.086 53.416C65.89 53.22 65.582 53.08 65.162 52.996C64.742 52.884 64.196 52.786 63.524 52.702L57.602 51.946C56.454 51.806 55.516 51.526 54.788 51.106C54.06 50.658 53.486 50.07 53.066 49.342C52.646 48.614 52.352 47.76 52.184 46.78C52.016 45.772 51.932 44.652 51.932 43.42C51.932 41.516 52.212 40.004 52.772 38.884C53.332 37.736 54.102 36.868 55.082 36.28C56.09 35.664 57.252 35.258 58.568 35.062C59.912 34.866 61.368 34.768 62.936 34.768C64.056 34.768 65.218 34.81 66.422 34.894C67.626 34.95 68.76 35.048 69.824 35.188C70.888 35.3 71.77 35.44 72.47 35.608V40.9C71.77 40.788 70.944 40.704 69.992 40.648C69.068 40.564 68.102 40.508 67.094 40.48C66.086 40.424 65.134 40.396 64.238 40.396C63.146 40.396 62.278 40.438 61.634 40.522C60.99 40.578 60.486 40.704 60.122 40.9C59.73 41.124 59.478 41.418 59.366 41.782C59.282 42.146 59.24 42.608 59.24 43.168C59.24 43.868 59.296 44.414 59.408 44.806C59.52 45.17 59.772 45.422 60.164 45.562C60.556 45.702 61.158 45.828 61.97 45.94L67.724 46.612C68.508 46.696 69.222 46.836 69.866 47.032C70.538 47.228 71.14 47.536 71.672 47.956C72.232 48.376 72.694 48.978 73.058 49.762C73.254 50.126 73.408 50.574 73.52 51.106C73.632 51.61 73.73 52.198 73.814 52.87C73.898 53.542 73.94 54.298 73.94 55.138C73.94 56.79 73.772 58.19 73.436 59.338C73.1 60.458 72.624 61.354 72.008 62.026C71.392 62.67 70.65 63.174 69.782 63.538C68.914 63.874 67.948 64.084 66.884 64.168C65.848 64.28 64.742 64.336 63.566 64.336Z"/>
</mask>
<path d="M37.6851 64.336C36.5651 64.336 35.3471 64.308 34.0311 64.252C32.7431 64.196 31.4691 64.112 30.2091 64C28.9771 63.888 27.8711 63.776 26.8911 63.664V58.246C27.9271 58.33 28.9631 58.414 29.9991 58.498C31.0631 58.582 32.0711 58.638 33.0231 58.666C33.9751 58.694 34.7731 58.708 35.4171 58.708C36.7611 58.708 37.7831 58.666 38.4831 58.582C39.1831 58.47 39.7011 58.316 40.0371 58.12C40.2611 57.924 40.4151 57.714 40.4991 57.49C40.6111 57.266 40.6811 57 40.7091 56.692C40.7371 56.384 40.7511 56.034 40.7511 55.642C40.7511 55.054 40.7091 54.592 40.6251 54.256C40.5691 53.892 40.4291 53.612 40.2051 53.416C40.0091 53.22 39.7011 53.08 39.2811 52.996C38.8611 52.884 38.3151 52.786 37.6431 52.702L31.7211 51.946C30.5731 51.806 29.6351 51.526 28.9071 51.106C28.1791 50.658 27.6051 50.07 27.1851 49.342C26.7651 48.614 26.4711 47.76 26.3031 46.78C26.1351 45.772 26.0511 44.652 26.0511 43.42C26.0511 41.516 26.3311 40.004 26.8911 38.884C27.4511 37.736 28.2211 36.868 29.2011 36.28C30.2091 35.664 31.3711 35.258 32.6871 35.062C34.0311 34.866 35.4871 34.768 37.0551 34.768C38.1751 34.768 39.3371 34.81 40.5411 34.894C41.7451 34.95 42.8791 35.048 43.9431 35.188C45.0071 35.3 45.8891 35.44 46.5891 35.608V40.9C45.8891 40.788 45.0631 40.704 44.1111 40.648C43.1871 40.564 42.2211 40.508 41.2131 40.48C40.2051 40.424 39.2531 40.396 38.3571 40.396C37.2651 40.396 36.3971 40.438 35.7531 40.522C35.1091 40.578 34.6051 40.704 34.2411 40.9C33.8491 41.124 33.5971 41.418 33.4851 41.782C33.4011 42.146 33.3591 42.608 33.3591 43.168C33.3591 43.868 33.4151 44.414 33.5271 44.806C33.6391 45.17 33.8911 45.422 34.2831 45.562C34.6751 45.702 35.2771 45.828 36.0891 45.94L41.8431 46.612C42.6271 46.696 43.3411 46.836 43.9851 47.032C44.6571 47.228 45.2591 47.536 45.7911 47.956C46.3511 48.376 46.8131 48.978 47.1771 49.762C47.3731 50.126 47.5271 50.574 47.6391 51.106C47.7511 51.61 47.8491 52.198 47.9331 52.87C48.0171 53.542 48.0591 54.298 48.0591 55.138C48.0591 56.79 47.8911 58.19 47.5551 59.338C47.2191 60.458 46.7431 61.354 46.1271 62.026C45.5111 62.67 44.7691 63.174 43.9011 63.538C43.0331 63.874 42.0671 64.084 41.0031 64.168C39.9671 64.28 38.8611 64.336 37.6851 64.336ZM63.566 64.336C62.446 64.336 61.228 64.308 59.912 64.252C58.624 64.196 57.35 64.112 56.09 64C54.858 63.888 53.752 63.776 52.772 63.664V58.246C53.808 58.33 54.844 58.414 55.88 58.498C56.944 58.582 57.952 58.638 58.904 58.666C59.856 58.694 60.654 58.708 61.298 58.708C62.642 58.708 63.664 58.666 64.364 58.582C65.064 58.47 65.582 58.316 65.918 58.12C66.142 57.924 66.296 57.714 66.38 57.49C66.492 57.266 66.562 57 66.59 56.692C66.618 56.384 66.632 56.034 66.632 55.642C66.632 55.054 66.59 54.592 66.506 54.256C66.45 53.892 66.31 53.612 66.086 53.416C65.89 53.22 65.582 53.08 65.162 52.996C64.742 52.884 64.196 52.786 63.524 52.702L57.602 51.946C56.454 51.806 55.516 51.526 54.788 51.106C54.06 50.658 53.486 50.07 53.066 49.342C52.646 48.614 52.352 47.76 52.184 46.78C52.016 45.772 51.932 44.652 51.932 43.42C51.932 41.516 52.212 40.004 52.772 38.884C53.332 37.736 54.102 36.868 55.082 36.28C56.09 35.664 57.252 35.258 58.568 35.062C59.912 34.866 61.368 34.768 62.936 34.768C64.056 34.768 65.218 34.81 66.422 34.894C67.626 34.95 68.76 35.048 69.824 35.188C70.888 35.3 71.77 35.44 72.47 35.608V40.9C71.77 40.788 70.944 40.704 69.992 40.648C69.068 40.564 68.102 40.508 67.094 40.48C66.086 40.424 65.134 40.396 64.238 40.396C63.146 40.396 62.278 40.438 61.634 40.522C60.99 40.578 60.486 40.704 60.122 40.9C59.73 41.124 59.478 41.418 59.366 41.782C59.282 42.146 59.24 42.608 59.24 43.168C59.24 43.868 59.296 44.414 59.408 44.806C59.52 45.17 59.772 45.422 60.164 45.562C60.556 45.702 61.158 45.828 61.97 45.94L67.724 46.612C68.508 46.696 69.222 46.836 69.866 47.032C70.538 47.228 71.14 47.536 71.672 47.956C72.232 48.376 72.694 48.978 73.058 49.762C73.254 50.126 73.408 50.574 73.52 51.106C73.632 51.61 73.73 52.198 73.814 52.87C73.898 53.542 73.94 54.298 73.94 55.138C73.94 56.79 73.772 58.19 73.436 59.338C73.1 60.458 72.624 61.354 72.008 62.026C71.392 62.67 70.65 63.174 69.782 63.538C68.914 63.874 67.948 64.084 66.884 64.168C65.848 64.28 64.742 64.336 63.566 64.336Z" fill="url(#paint0_linear_498_73)"/>
<path d="M34.0311 64.252L33.966 65.7506L33.9674 65.7506L34.0311 64.252ZM30.2091 64L30.0733 65.4938L30.0763 65.4941L30.2091 64ZM26.8911 63.664H25.3911V65.0023L26.7208 65.1543L26.8911 63.664ZM26.8911 58.246L27.0124 56.7509L25.3911 56.6195V58.246H26.8911ZM29.9991 58.498L29.8779 59.9931L29.8811 59.9933L29.9991 58.498ZM33.0231 58.666L33.0672 57.1666L33.0231 58.666ZM38.4831 58.582L38.6619 60.0713L38.6911 60.0678L38.7201 60.0632L38.4831 58.582ZM40.0371 58.12L40.7929 59.4157L40.9169 59.3434L41.0249 59.2489L40.0371 58.12ZM40.4991 57.49L39.1575 56.8192L39.1223 56.8896L39.0946 56.9633L40.4991 57.49ZM40.7091 56.692L39.2153 56.5562L39.2153 56.5562L40.7091 56.692ZM40.6251 54.256L39.1426 54.4841L39.1531 54.5526L39.1699 54.6198L40.6251 54.256ZM40.2051 53.416L39.1445 54.4767L39.1798 54.512L39.2174 54.5449L40.2051 53.416ZM39.2811 52.996L38.8947 54.4454L38.9405 54.4576L38.987 54.4669L39.2811 52.996ZM37.6431 52.702L37.4532 54.1899L37.4571 54.1904L37.6431 52.702ZM31.7211 51.946L31.9111 50.4581L31.9027 50.457L31.7211 51.946ZM28.9071 51.106L28.121 52.3835L28.1391 52.3946L28.1576 52.4053L28.9071 51.106ZM27.1851 49.342L25.8859 50.0916L25.8859 50.0916L27.1851 49.342ZM26.3031 46.78L24.8235 47.0266L24.8247 47.0334L26.3031 46.78ZM26.8911 38.884L28.2328 39.5548L28.2361 39.5482L28.2393 39.5416L26.8911 38.884ZM29.2011 36.28L29.9729 37.5663L29.9833 37.5599L29.2011 36.28ZM32.6871 35.062L32.4707 33.5777L32.4662 33.5784L32.6871 35.062ZM40.5411 34.894L40.4367 36.3904L40.4541 36.3916L40.4715 36.3924L40.5411 34.894ZM43.9431 35.188L43.7475 36.6752L43.7668 36.6777L43.7861 36.6798L43.9431 35.188ZM46.5891 35.608H48.0891V34.4254L46.9392 34.1494L46.5891 35.608ZM46.5891 40.9L46.3522 42.3812L48.0891 42.6591V40.9H46.5891ZM44.1111 40.648L43.9753 42.1418L43.9992 42.144L44.0231 42.1454L44.1111 40.648ZM41.2131 40.48L41.1299 41.9777L41.1507 41.9788L41.1715 41.9794L41.2131 40.48ZM35.7531 40.522L35.8831 42.0164L35.9152 42.0136L35.9472 42.0094L35.7531 40.522ZM34.2411 40.9L33.53 39.5793L33.5133 39.5883L33.4969 39.5976L34.2411 40.9ZM33.4851 41.782L32.0515 41.3409L32.0357 41.3923L32.0236 41.4447L33.4851 41.782ZM33.5271 44.806L32.0849 45.2181L32.089 45.2326L32.0935 45.2471L33.5271 44.806ZM34.2831 45.562L33.7786 46.9746L33.7786 46.9746L34.2831 45.562ZM36.0891 45.94L35.8842 47.4259L35.8996 47.4281L35.9151 47.4299L36.0891 45.94ZM41.8431 46.612L41.6691 48.1019L41.6762 48.1027L41.6833 48.1035L41.8431 46.612ZM43.9851 47.032L43.5484 48.467L43.5568 48.4696L43.5651 48.472L43.9851 47.032ZM45.7911 47.956L44.8617 49.1333L44.8763 49.1448L44.8911 49.156L45.7911 47.956ZM47.1771 49.762L45.8166 50.3937L45.8354 50.434L45.8564 50.4732L47.1771 49.762ZM47.6391 51.106L46.1713 51.415L46.173 51.4232L46.1749 51.4314L47.6391 51.106ZM47.9331 52.87L49.4216 52.6839L49.4216 52.6839L47.9331 52.87ZM47.5551 59.338L48.9919 59.769L48.9947 59.7593L47.5551 59.338ZM46.1271 62.026L47.2111 63.0628L47.2221 63.0513L47.2329 63.0396L46.1271 62.026ZM43.9011 63.538L44.4426 64.9369L44.462 64.9293L44.4812 64.9213L43.9011 63.538ZM41.0031 64.168L40.8851 62.6727L40.8635 62.6744L40.8419 62.6767L41.0031 64.168ZM37.6851 64.336V62.836C36.5897 62.836 35.3932 62.8086 34.0949 62.7534L34.0311 64.252L33.9674 65.7506C35.301 65.8074 36.5406 65.836 37.6851 65.836V64.336ZM34.0311 64.252L34.0963 62.7534C32.8304 62.6984 31.579 62.6159 30.342 62.5059L30.2091 64L30.0763 65.4941C31.3593 65.6081 32.6558 65.6936 33.966 65.7506L34.0311 64.252ZM30.2091 64L30.3449 62.5062C29.1217 62.395 28.0275 62.2841 27.0615 62.1737L26.8911 63.664L26.7208 65.1543C27.7148 65.2679 28.8326 65.381 30.0733 65.4938L30.2091 64ZM26.8911 63.664H28.3911V58.246H26.8911H25.3911V63.664H26.8911ZM26.8911 58.246L26.7699 59.7411C27.8059 59.8251 28.8419 59.9091 29.8779 59.9931L29.9991 58.498L30.1204 57.0029C29.0844 56.9189 28.0484 56.8349 27.0124 56.7509L26.8911 58.246ZM29.9991 58.498L29.8811 59.9933C30.9668 60.0791 31.9996 60.1365 32.979 60.1654L33.0231 58.666L33.0672 57.1666C32.1427 57.1395 31.1595 57.0849 30.1172 57.0027L29.9991 58.498ZM33.0231 58.666L32.979 60.1654C33.9395 60.1936 34.7533 60.208 35.4171 60.208V58.708V57.208C34.793 57.208 34.0108 57.1944 33.0672 57.1666L33.0231 58.666ZM35.4171 58.708V60.208C36.7777 60.208 37.8713 60.1662 38.6619 60.0713L38.4831 58.582L38.3044 57.0927C37.695 57.1658 36.7446 57.208 35.4171 57.208V58.708ZM38.4831 58.582L38.7201 60.0632C39.4779 59.9419 40.2153 59.7526 40.7929 59.4157L40.0371 58.12L39.2813 56.8243C39.187 56.8794 38.8884 56.9981 38.2462 57.1008L38.4831 58.582ZM40.0371 58.12L41.0249 59.2489C41.3906 58.9289 41.7139 58.5228 41.9036 58.0167L40.4991 57.49L39.0946 56.9633C39.1049 56.936 39.114 56.9244 39.111 56.9285C39.1074 56.9335 39.0903 56.9553 39.0494 56.9911L40.0371 58.12ZM40.4991 57.49L41.8408 58.1608C42.0535 57.7353 42.1619 57.2798 42.203 56.8278L40.7091 56.692L39.2153 56.5562C39.2004 56.7202 39.1688 56.7967 39.1575 56.8192L40.4991 57.49ZM40.7091 56.692L42.203 56.8278C42.236 56.4646 42.2511 56.068 42.2511 55.642H40.7511H39.2511C39.2511 56 39.2383 56.3034 39.2153 56.5562L40.7091 56.692ZM40.7511 55.642H42.2511C42.2511 55.0038 42.2076 54.4013 42.0804 53.8922L40.6251 54.256L39.1699 54.6198C39.2106 54.7827 39.2511 55.1042 39.2511 55.642H40.7511ZM40.6251 54.256L42.1077 54.0279C42.0112 53.4004 41.7414 52.7671 41.1929 52.2871L40.2051 53.416L39.2174 54.5449C39.1979 54.5278 39.1805 54.5091 39.1659 54.4899C39.1513 54.4709 39.1419 54.4547 39.1365 54.4438C39.1258 54.4224 39.1342 54.4296 39.1426 54.4841L40.6251 54.256ZM40.2051 53.416L41.2658 52.3553C40.775 51.8645 40.1389 51.6378 39.5753 51.5251L39.2811 52.996L38.987 54.4669C39.1127 54.492 39.1802 54.5176 39.2064 54.5295C39.2317 54.541 39.1983 54.5304 39.1445 54.4767L40.2051 53.416ZM39.2811 52.996L39.6676 51.5466C39.1561 51.4102 38.536 51.3019 37.8292 51.2136L37.6431 52.702L37.4571 54.1904C38.0943 54.2701 38.5662 54.3578 38.8947 54.4454L39.2811 52.996ZM37.6431 52.702L37.8331 51.2141L31.9111 50.4581L31.7211 51.946L31.5312 53.4339L37.4532 54.1899L37.6431 52.702ZM31.7211 51.946L31.9027 50.457C30.8844 50.3328 30.1576 50.0957 29.6567 49.8067L28.9071 51.106L28.1576 52.4053C29.1127 52.9563 30.2618 53.2791 31.5396 53.435L31.7211 51.946ZM28.9071 51.106L29.6933 49.8285C29.1738 49.5088 28.7777 49.1007 28.4844 48.5924L27.1851 49.342L25.8859 50.0916C26.4326 51.0393 27.1845 51.8072 28.121 52.3835L28.9071 51.106ZM27.1851 49.342L28.4844 48.5924C28.1675 48.0432 27.925 47.3631 27.7816 46.5266L26.3031 46.78L24.8247 47.0334C25.0173 48.1569 25.3627 49.1848 25.8859 50.0916L27.1851 49.342ZM26.3031 46.78L27.7827 46.5334C27.6307 45.6215 27.5511 44.5856 27.5511 43.42H26.0511H24.5511C24.5511 44.7184 24.6395 45.9225 24.8235 47.0266L26.3031 46.78ZM26.0511 43.42H27.5511C27.5511 41.6385 27.8171 40.3863 28.2328 39.5548L26.8911 38.884L25.5495 38.2132C24.8452 39.6217 24.5511 41.3935 24.5511 43.42H26.0511ZM26.8911 38.884L28.2393 39.5416C28.6875 38.6228 29.2704 37.9877 29.9729 37.5662L29.2011 36.28L28.4294 34.9938C27.1718 35.7483 26.2148 36.8492 25.543 38.2264L26.8911 38.884ZM29.2011 36.28L29.9833 37.5599C30.7994 37.0612 31.7659 36.7158 32.9081 36.5456L32.6871 35.062L32.4662 33.5784C30.9764 33.8002 29.6189 34.2668 28.419 35.0001L29.2011 36.28ZM32.6871 35.062L32.9036 36.5463C34.166 36.3622 35.5488 36.268 37.0551 36.268V34.768V33.268C35.4255 33.268 33.8963 33.3698 32.4707 33.5777L32.6871 35.062ZM37.0551 34.768V36.268C38.1378 36.268 39.2648 36.3086 40.4367 36.3904L40.5411 34.894L40.6455 33.3976C39.4094 33.3114 38.2125 33.268 37.0551 33.268V34.768ZM40.5411 34.894L40.4715 36.3924C41.6384 36.4467 42.73 36.5413 43.7475 36.6752L43.9431 35.188L44.1388 33.7008C43.0283 33.5547 41.8519 33.4533 40.6108 33.3956L40.5411 34.894ZM43.9431 35.188L43.7861 36.6798C44.8131 36.7879 45.6251 36.9192 46.2391 37.0666L46.5891 35.608L46.9392 34.1494C46.1532 33.9608 45.2012 33.8121 44.1002 33.6962L43.9431 35.188ZM46.5891 35.608H45.0891V40.9H46.5891H48.0891V35.608H46.5891ZM46.5891 40.9L46.8261 39.4188C46.0633 39.2968 45.1853 39.2086 44.1992 39.1506L44.1111 40.648L44.0231 42.1454C44.941 42.1994 45.715 42.2792 46.3522 42.3812L46.5891 40.9ZM44.1111 40.648L44.2469 39.1542C43.2891 39.0671 42.2916 39.0094 41.2548 38.9806L41.2131 40.48L41.1715 41.9794C42.1507 42.0066 43.0852 42.0609 43.9753 42.1418L44.1111 40.648ZM41.2131 40.48L41.2963 38.9823C40.264 38.925 39.2841 38.896 38.3571 38.896V40.396V41.896C39.2222 41.896 40.1462 41.923 41.1299 41.9777L41.2131 40.48ZM38.3571 40.396V38.896C37.2375 38.896 36.2961 38.9385 35.5591 39.0346L35.7531 40.522L35.9472 42.0094C36.4982 41.9375 37.2927 41.896 38.3571 41.896V40.396ZM35.7531 40.522L35.6232 39.0276C34.878 39.0924 34.1465 39.2473 33.53 39.5793L34.2411 40.9L34.9523 42.2207C35.0638 42.1606 35.3402 42.0636 35.8831 42.0164L35.7531 40.522ZM34.2411 40.9L33.4969 39.5976C32.8394 39.9734 32.2959 40.5466 32.0515 41.3409L33.4851 41.782L34.9188 42.2231C34.9168 42.2298 34.9132 42.2387 34.9079 42.2482C34.9027 42.2576 34.8983 42.2632 34.897 42.2647C34.8943 42.2679 34.9143 42.2429 34.9853 42.2024L34.2411 40.9ZM33.4851 41.782L32.0236 41.4447C31.9048 41.9595 31.8591 42.5448 31.8591 43.168H33.3591H34.8591C34.8591 42.6712 34.8975 42.3325 34.9467 42.1193L33.4851 41.782ZM33.3591 43.168H31.8591C31.8591 43.9229 31.9168 44.6298 32.0849 45.2181L33.5271 44.806L34.9694 44.3939C34.9135 44.1982 34.8591 43.8131 34.8591 43.168H33.3591ZM33.5271 44.806L32.0935 45.2471C32.3589 46.1099 32.989 46.6926 33.7786 46.9746L34.2831 45.562L34.7876 44.1494C34.7659 44.1416 34.8055 44.152 34.8608 44.2073C34.9196 44.2661 34.9499 44.3295 34.9608 44.3649L33.5271 44.806ZM34.2831 45.562L33.7786 46.9746C34.3211 47.1684 35.0482 47.3106 35.8842 47.4259L36.0891 45.94L36.2941 44.4541C35.5061 44.3454 35.0292 44.2356 34.7876 44.1494L34.2831 45.562ZM36.0891 45.94L35.9151 47.4299L41.6691 48.1019L41.8431 46.612L42.0171 45.1221L36.2631 44.4501L36.0891 45.94ZM41.8431 46.612L41.6833 48.1035C42.389 48.1791 43.0085 48.3027 43.5484 48.467L43.9851 47.032L44.4219 45.597C43.6738 45.3693 42.8653 45.2129 42.0029 45.1205L41.8431 46.612ZM43.9851 47.032L43.5651 48.472C44.0582 48.6158 44.486 48.8367 44.8617 49.1333L45.7911 47.956L46.7206 46.7787C46.0323 46.2353 45.2561 45.8402 44.4051 45.592L43.9851 47.032ZM45.7911 47.956L44.8911 49.156C45.2118 49.3965 45.5327 49.7822 45.8166 50.3937L47.1771 49.762L48.5377 49.1303C48.0935 48.1738 47.4905 47.3555 46.6911 46.756L45.7911 47.956ZM47.1771 49.762L45.8564 50.4732C45.9669 50.6783 46.0801 50.982 46.1713 51.415L47.6391 51.106L49.107 50.797C48.9741 50.166 48.7794 49.5737 48.4978 49.0508L47.1771 49.762ZM47.6391 51.106L46.1749 51.4314C46.2741 51.8778 46.3649 52.4174 46.4447 53.0561L47.9331 52.87L49.4216 52.6839C49.3334 51.9786 49.2282 51.3422 49.1034 50.7806L47.6391 51.106ZM47.9331 52.87L46.4447 53.0561C46.5194 53.6538 46.5591 54.3461 46.5591 55.138H48.0591H49.5591C49.5591 54.2499 49.5148 53.4302 49.4216 52.6839L47.9331 52.87ZM48.0591 55.138H46.5591C46.5591 56.6974 46.3995 57.9464 46.1155 58.9167L47.5551 59.338L48.9947 59.7593C49.3828 58.4336 49.5591 56.8826 49.5591 55.138H48.0591ZM47.5551 59.338L46.1184 58.907C45.8296 59.8695 45.4477 60.5474 45.0214 61.0124L46.1271 62.026L47.2329 63.0396C48.0386 62.1606 48.6086 61.0465 48.9919 59.769L47.5551 59.338ZM46.1271 62.026L45.0432 60.9892C44.5775 61.476 44.0099 61.8658 43.3211 62.1547L43.9011 63.538L44.4812 64.9213C45.5283 64.4822 46.4448 63.864 47.2111 63.0628L46.1271 62.026ZM43.9011 63.538L43.3596 62.1391C42.6456 62.4156 41.8248 62.5985 40.8851 62.6727L41.0031 64.168L41.1212 65.6633C42.3094 65.5695 43.4207 65.3324 44.4426 64.9369L43.9011 63.538ZM41.0031 64.168L40.8419 62.6767C39.8658 62.7822 38.814 62.836 37.6851 62.836V64.336V65.836C38.9083 65.836 40.0685 65.7778 41.1644 65.6593L41.0031 64.168ZM59.912 64.252L59.8468 65.7506L59.8482 65.7506L59.912 64.252ZM56.09 64L55.9542 65.4938L55.9572 65.4941L56.09 64ZM52.772 63.664H51.272V65.0023L52.6017 65.1543L52.772 63.664ZM52.772 58.246L52.8932 56.7509L51.272 56.6195V58.246H52.772ZM55.88 58.498L55.7588 59.9931L55.7619 59.9933L55.88 58.498ZM58.904 58.666L58.9481 57.1666L58.904 58.666ZM64.364 58.582L64.5427 60.0713L64.5719 60.0678L64.601 60.0632L64.364 58.582ZM65.918 58.12L66.6738 59.4157L66.7978 59.3434L66.9058 59.2489L65.918 58.12ZM66.38 57.49L65.0384 56.8192L65.0032 56.8896L64.9755 56.9633L66.38 57.49ZM66.59 56.692L65.0962 56.5562L65.0962 56.5562L66.59 56.692ZM66.506 54.256L65.0234 54.4841L65.034 54.5526L65.0508 54.6198L66.506 54.256ZM66.086 53.416L65.0253 54.4767L65.0607 54.512L65.0982 54.5449L66.086 53.416ZM65.162 52.996L64.7755 54.4454L64.8213 54.4576L64.8678 54.4669L65.162 52.996ZM63.524 52.702L63.3341 54.1899L63.3379 54.1904L63.524 52.702ZM57.602 51.946L57.792 50.4581L57.7836 50.457L57.602 51.946ZM54.788 51.106L54.0019 52.3835L54.02 52.3946L54.0384 52.4053L54.788 51.106ZM53.066 49.342L51.7667 50.0916L51.7667 50.0916L53.066 49.342ZM52.184 46.78L50.7044 47.0266L50.7056 47.0334L52.184 46.78ZM52.772 38.884L54.1136 39.5548L54.1169 39.5482L54.1202 39.5416L52.772 38.884ZM55.082 36.28L55.8538 37.5663L55.8642 37.5599L55.082 36.28ZM58.568 35.062L58.3515 33.5777L58.347 33.5784L58.568 35.062ZM66.422 34.894L66.3176 36.3904L66.3349 36.3916L66.3523 36.3924L66.422 34.894ZM69.824 35.188L69.6283 36.6752L69.6476 36.6777L69.667 36.6798L69.824 35.188ZM72.47 35.608H73.97V34.4254L72.8201 34.1494L72.47 35.608ZM72.47 40.9L72.233 42.3812L73.97 42.6591V40.9H72.47ZM69.992 40.648L69.8562 42.1418L69.88 42.144L69.9039 42.1454L69.992 40.648ZM67.094 40.48L67.0108 41.9777L67.0316 41.9788L67.0524 41.9794L67.094 40.48ZM61.634 40.522L61.7639 42.0164L61.7961 42.0136L61.828 42.0094L61.634 40.522ZM60.122 40.9L59.4108 39.5793L59.3942 39.5883L59.3778 39.5976L60.122 40.9ZM59.366 41.782L57.9323 41.3409L57.9165 41.3923L57.9044 41.4447L59.366 41.782ZM59.408 44.806L57.9657 45.2181L57.9699 45.2326L57.9743 45.2471L59.408 44.806ZM60.164 45.562L59.6595 46.9746L59.6595 46.9746L60.164 45.562ZM61.97 45.94L61.765 47.4259L61.7805 47.4281L61.796 47.4299L61.97 45.94ZM67.724 46.612L67.55 48.1019L67.5571 48.1027L67.5642 48.1035L67.724 46.612ZM69.866 47.032L69.4293 48.467L69.4376 48.4696L69.446 48.472L69.866 47.032ZM71.672 47.956L70.7425 49.1333L70.7571 49.1448L70.772 49.156L71.672 47.956ZM73.058 49.762L71.6975 50.3937L71.7162 50.434L71.7373 50.4732L73.058 49.762ZM73.52 51.106L72.0522 51.415L72.0539 51.4232L72.0557 51.4314L73.52 51.106ZM73.814 52.87L75.3024 52.6839L75.3024 52.6839L73.814 52.87ZM73.436 59.338L74.8728 59.769L74.8756 59.7593L73.436 59.338ZM72.008 62.026L73.092 63.0628L73.103 63.0513L73.1137 63.0396L72.008 62.026ZM69.782 63.538L70.3235 64.9369L70.3429 64.9293L70.3621 64.9213L69.782 63.538ZM66.884 64.168L66.7659 62.6727L66.7443 62.6744L66.7228 62.6767L66.884 64.168ZM63.566 64.336V62.836C62.4706 62.836 61.2741 62.8086 59.9758 62.7534L59.912 64.252L59.8482 65.7506C61.1819 65.8074 62.4214 65.836 63.566 65.836V64.336ZM59.912 64.252L59.9772 62.7534C58.7113 62.6984 57.4599 62.6159 56.2228 62.5059L56.09 64L55.9572 65.4941C57.2401 65.6081 58.5367 65.6936 59.8468 65.7506L59.912 64.252ZM56.09 64L56.2258 62.5062C55.0026 62.395 53.9084 62.2841 52.9423 62.1737L52.772 63.664L52.6017 65.1543C53.5956 65.2679 54.7134 65.381 55.9542 65.4938L56.09 64ZM52.772 63.664H54.272V58.246H52.772H51.272V63.664H52.772ZM52.772 58.246L52.6508 59.7411C53.6868 59.8251 54.7228 59.9091 55.7588 59.9931L55.88 58.498L56.0012 57.0029C54.9652 56.9189 53.9292 56.8349 52.8932 56.7509L52.772 58.246ZM55.88 58.498L55.7619 59.9933C56.8477 60.0791 57.8805 60.1365 58.8599 60.1654L58.904 58.666L58.9481 57.1666C58.0235 57.1395 57.0403 57.0849 55.9981 57.0027L55.88 58.498ZM58.904 58.666L58.8599 60.1654C59.8204 60.1936 60.6342 60.208 61.298 60.208V58.708V57.208C60.6738 57.208 59.8916 57.1944 58.9481 57.1666L58.904 58.666ZM61.298 58.708V60.208C62.6586 60.208 63.7521 60.1662 64.5427 60.0713L64.364 58.582L64.1853 57.0927C63.5759 57.1658 62.6254 57.208 61.298 57.208V58.708ZM64.364 58.582L64.601 60.0632C65.3588 59.9419 66.0962 59.7526 66.6738 59.4157L65.918 58.12L65.1622 56.8243C65.0678 56.8794 64.7692 56.9981 64.127 57.1008L64.364 58.582ZM65.918 58.12L66.9058 59.2489C67.2715 58.9289 67.5947 58.5228 67.7845 58.0167L66.38 57.49L64.9755 56.9633C64.9857 56.936 64.9949 56.9244 64.9919 56.9285C64.9882 56.9335 64.9712 56.9553 64.9302 56.9911L65.918 58.12ZM66.38 57.49L67.7216 58.1608C67.9344 57.7353 68.0428 57.2798 68.0838 56.8278L66.59 56.692L65.0962 56.5562C65.0812 56.7202 65.0496 56.7967 65.0384 56.8192L66.38 57.49ZM66.59 56.692L68.0838 56.8278C68.1169 56.4646 68.132 56.068 68.132 55.642H66.632H65.132C65.132 56 65.1191 56.3034 65.0962 56.5562L66.59 56.692ZM66.632 55.642H68.132C68.132 55.0038 68.0885 54.4013 67.9612 53.8922L66.506 54.256L65.0508 54.6198C65.0915 54.7827 65.132 55.1042 65.132 55.642H66.632ZM66.506 54.256L67.9886 54.0279C67.892 53.4004 67.6223 52.7671 67.0738 52.2871L66.086 53.416L65.0982 54.5449C65.0788 54.5278 65.0613 54.5091 65.0467 54.4899C65.0322 54.4709 65.0228 54.4547 65.0174 54.4438C65.0066 54.4224 65.0151 54.4296 65.0234 54.4841L66.506 54.256ZM66.086 53.416L67.1467 52.3553C66.6559 51.8645 66.0197 51.6378 65.4562 51.5251L65.162 52.996L64.8678 54.4669C64.9936 54.492 65.0611 54.5176 65.0873 54.5295C65.1125 54.541 65.0791 54.5304 65.0253 54.4767L66.086 53.416ZM65.162 52.996L65.5485 51.5466C65.037 51.4102 64.4168 51.3019 63.7101 51.2136L63.524 52.702L63.3379 54.1904C63.9752 54.2701 64.447 54.3578 64.7755 54.4454L65.162 52.996ZM63.524 52.702L63.7139 51.2141L57.7919 50.4581L57.602 51.946L57.4121 53.4339L63.3341 54.1899L63.524 52.702ZM57.602 51.946L57.7836 50.457C56.7653 50.3328 56.0385 50.0957 55.5376 49.8067L54.788 51.106L54.0384 52.4053C54.9935 52.9563 56.1427 53.2791 57.4204 53.435L57.602 51.946ZM54.788 51.106L55.5741 49.8285C55.0546 49.5088 54.6585 49.1007 54.3653 48.5924L53.066 49.342L51.7667 50.0916C52.3135 51.0393 53.0654 51.8072 54.0019 52.3835L54.788 51.106ZM53.066 49.342L54.3653 48.5924C54.0484 48.0432 53.8058 47.3631 53.6624 46.5266L52.184 46.78L50.7056 47.0334C50.8982 48.1569 51.2436 49.1848 51.7667 50.0916L53.066 49.342ZM52.184 46.78L53.6636 46.5334C53.5116 45.6215 53.432 44.5856 53.432 43.42H51.932H50.432C50.432 44.7184 50.5204 45.9225 50.7044 47.0266L52.184 46.78ZM51.932 43.42H53.432C53.432 41.6385 53.6979 40.3863 54.1136 39.5548L52.772 38.884L51.4304 38.2132C50.7261 39.6217 50.432 41.3935 50.432 43.42H51.932ZM52.772 38.884L54.1202 39.5416C54.5684 38.6228 55.1513 37.9877 55.8537 37.5662L55.082 36.28L54.3103 34.9938C53.0527 35.7483 52.0956 36.8492 51.4238 38.2264L52.772 38.884ZM55.082 36.28L55.8642 37.5599C56.6803 37.0612 57.6467 36.7158 58.789 36.5456L58.568 35.062L58.347 33.5784C56.8573 33.8002 55.4997 34.2668 54.2998 35.0001L55.082 36.28ZM58.568 35.062L58.7845 36.5463C60.0468 36.3622 61.4296 36.268 62.936 36.268V34.768V33.268C61.3064 33.268 59.7772 33.3698 58.3515 33.5777L58.568 35.062ZM62.936 34.768V36.268C64.0186 36.268 65.1457 36.3086 66.3176 36.3904L66.422 34.894L66.5264 33.3976C65.2903 33.3114 64.0934 33.268 62.936 33.268V34.768ZM66.422 34.894L66.3523 36.3924C67.5192 36.4467 68.6109 36.5413 69.6283 36.6752L69.824 35.188L70.0197 33.7008C68.9091 33.5547 67.7328 33.4533 66.4917 33.3956L66.422 34.894ZM69.824 35.188L69.667 36.6798C70.694 36.7879 71.506 36.9192 72.1199 37.0666L72.47 35.608L72.8201 34.1494C72.034 33.9608 71.082 33.8121 69.981 33.6962L69.824 35.188ZM72.47 35.608H70.97V40.9H72.47H73.97V35.608H72.47ZM72.47 40.9L72.707 39.4188C71.9442 39.2968 71.0662 39.2086 70.0801 39.1506L69.992 40.648L69.9039 42.1454C70.8218 42.1994 71.5958 42.2792 72.233 42.3812L72.47 40.9ZM69.992 40.648L70.1278 39.1542C69.1699 39.0671 68.1724 39.0094 67.1357 38.9806L67.094 40.48L67.0524 41.9794C68.0316 42.0066 68.9661 42.0609 69.8562 42.1418L69.992 40.648ZM67.094 40.48L67.1772 38.9823C66.1449 38.925 65.165 38.896 64.238 38.896V40.396V41.896C65.103 41.896 66.0271 41.923 67.0108 41.9777L67.094 40.48ZM64.238 40.396V38.896C63.1184 38.896 62.1769 38.9385 61.44 39.0346L61.634 40.522L61.828 42.0094C62.3791 41.9375 63.1736 41.896 64.238 41.896V40.396ZM61.634 40.522L61.5041 39.0276C60.7589 39.0924 60.0273 39.2473 59.4108 39.5793L60.122 40.9L60.8332 42.2207C60.9447 42.1606 61.2211 42.0636 61.7639 42.0164L61.634 40.522ZM60.122 40.9L59.3778 39.5976C58.7202 39.9734 58.1767 40.5466 57.9323 41.3409L59.366 41.782L60.7997 42.2231C60.7976 42.2298 60.794 42.2387 60.7888 42.2482C60.7836 42.2576 60.7791 42.2632 60.7779 42.2647C60.7751 42.2679 60.7952 42.2429 60.8662 42.2024L60.122 40.9ZM59.366 41.782L57.9044 41.4447C57.7856 41.9595 57.74 42.5448 57.74 43.168H59.24H60.74C60.74 42.6712 60.7784 42.3325 60.8276 42.1193L59.366 41.782ZM59.24 43.168H57.74C57.74 43.9229 57.7976 44.6298 57.9657 45.2181L59.408 44.806L60.8503 44.3939C60.7944 44.1982 60.74 43.8131 60.74 43.168H59.24ZM59.408 44.806L57.9743 45.2471C58.2398 46.1099 58.8698 46.6926 59.6595 46.9746L60.164 45.562L60.6685 44.1494C60.6467 44.1416 60.6863 44.152 60.7417 44.2073C60.8005 44.2661 60.8308 44.3295 60.8417 44.3649L59.408 44.806ZM60.164 45.562L59.6595 46.9746C60.202 47.1684 60.9291 47.3106 61.765 47.4259L61.97 45.94L62.175 44.4541C61.387 44.3454 60.91 44.2356 60.6685 44.1494L60.164 45.562ZM61.97 45.94L61.796 47.4299L67.55 48.1019L67.724 46.612L67.898 45.1221L62.144 44.4501L61.97 45.94ZM67.724 46.612L67.5642 48.1035C68.2698 48.1791 68.8894 48.3027 69.4293 48.467L69.866 47.032L70.3027 45.597C69.5546 45.3693 68.7462 45.2129 67.8838 45.1205L67.724 46.612ZM69.866 47.032L69.446 48.472C69.9391 48.6158 70.3669 48.8367 70.7425 49.1333L71.672 47.956L72.6015 46.7787C71.9131 46.2353 71.1369 45.8402 70.286 45.592L69.866 47.032ZM71.672 47.956L70.772 49.156C71.0927 49.3965 71.4136 49.7822 71.6975 50.3937L73.058 49.762L74.4185 49.1303C73.9744 48.1738 73.3713 47.3555 72.572 46.756L71.672 47.956ZM73.058 49.762L71.7373 50.4732C71.8478 50.6783 71.961 50.982 72.0522 51.415L73.52 51.106L74.9878 50.797C74.855 50.166 74.6602 49.5737 74.3787 49.0508L73.058 49.762ZM73.52 51.106L72.0557 51.4314C72.1549 51.8778 72.2457 52.4174 72.3256 53.0561L73.814 52.87L75.3024 52.6839C75.2143 51.9786 75.1091 51.3422 74.9843 50.7806L73.52 51.106ZM73.814 52.87L72.3256 53.0561C72.4003 53.6538 72.44 54.3461 72.44 55.138H73.94H75.44C75.44 54.2499 75.3957 53.4302 75.3024 52.6839L73.814 52.87ZM73.94 55.138H72.44C72.44 56.6974 72.2804 57.9464 71.9964 58.9167L73.436 59.338L74.8756 59.7593C75.2636 58.4336 75.44 56.8826 75.44 55.138H73.94ZM73.436 59.338L71.9993 58.907C71.7105 59.8695 71.3285 60.5474 70.9023 61.0124L72.008 62.026L73.1137 63.0396C73.9195 62.1606 74.4895 61.0465 74.8727 59.769L73.436 59.338ZM72.008 62.026L70.924 60.9892C70.4583 61.476 69.8908 61.8658 69.2019 62.1547L69.782 63.538L70.3621 64.9213C71.4092 64.4822 72.3257 63.864 73.092 63.0628L72.008 62.026ZM69.782 63.538L69.2405 62.1391C68.5264 62.4156 67.7057 62.5985 66.7659 62.6727L66.884 64.168L67.0021 65.6633C68.1903 65.5695 69.3016 65.3324 70.3235 64.9369L69.782 63.538ZM66.884 64.168L66.7228 62.6767C65.7466 62.7822 64.6949 62.836 63.566 62.836V64.336V65.836C64.7891 65.836 65.9494 65.7778 67.0452 65.6593L66.884 64.168Z" fill="url(#paint1_linear_498_73)" mask="url(#path-1-outside-1_498_73)"/>
</g>
<defs>
<filter id="filter0_d_498_73" x="13.1511" y="22.868" width="73.6888" height="55.368" filterUnits="userSpaceOnUse" color-interpolation-filters="sRGB">
<feFlood flood-opacity="0" result="BackgroundImageFix"/>
<feColorMatrix in="SourceAlpha" type="matrix" values="0 0 0 0 0 0 0 0 0 0 0 0 0 0 0 0 0 0 127 0" result="hardAlpha"/>
<feOffset dy="1"/>
<feGaussianBlur stdDeviation="5.7"/>
<feComposite in2="hardAlpha" operator="out"/>
<feColorMatrix type="matrix" values="0 0 0 0 1 0 0 0 0 1 0 0 0 0 1 0 0 0 0.4 0"/>
<feBlend mode="normal" in2="BackgroundImageFix" result="effect1_dropShadow_498_73"/>
<feBlend mode="normal" in="SourceGraphic" in2="effect1_dropShadow_498_73" result="shape"/>
</filter>
<linearGradient id="paint0_linear_498_73" x1="50" y1="14" x2="50" y2="85" gradientUnits="userSpaceOnUse">
<stop stop-color="#F0E5FF"/>
<stop offset="1" stop-color="#AAC2FF"/>
</linearGradient>
<linearGradient id="paint1_linear_498_73" x1="50" y1="14" x2="50" y2="85" gradientUnits="userSpaceOnUse">
<stop stop-color="#A05CFF"/>
<stop offset="1" stop-color="#8CACFF"/>
</linearGradient>
</defs>
</svg>
