<?xml version="1.0" encoding="utf-8"?>
<svg width="843.391" height="128.477" viewBox="0 0 843.391 128.477" fill="none" xmlns="http://www.w3.org/2000/svg">
  <g>
    <path d="M69.2227 128.477Q103.211 128.477 120.785 113.051Q138.359 97.625 138.359 64.1953Q138.359 30.7656 120.785 15.3828Q103.211 0 69.2227 0Q35.2344 7.62939e-06 17.6172 15.3828Q0 30.7656 0 64.1953Q0 97.625 17.6172 113.051Q35.2344 128.477 69.2227 128.477ZM279.555 125.813Q283.938 125.813 283.938 122.117Q283.938 120.141 282.563 117.734L266.922 92.8984Q261.25 84.1328 256.867 79.5352Q252.484 74.9375 247.328 73.0469Q279.727 66.6875 279.727 41.6797Q279.727 23.7188 267.137 13.1484Q254.547 2.57813 234.867 2.57813L163.969 2.57813Q160.617 2.57813 158.297 4.98438Q155.977 7.39063 155.977 10.7422L155.977 117.734Q155.977 121.086 158.383 123.449C159.987 125.025 161.906 125.813 164.141 125.813L180.297 125.813C182.531 125.813 184.436 125.025 186.012 123.449Q188.375 121.086 188.375 117.734L188.375 80.7813L209.344 80.7813Q222.148 80.7813 231.172 94.875L245.781 117.734Q247.844 121.086 251.754 123.449C254.361 125.025 256.753 125.813 258.93 125.813L279.555 125.813ZM309.633 36.0938L288.063 117.906Q287.805 119.023 287.762 120.484Q287.719 121.945 289.18 123.879Q290.641 125.813 293.992 125.813L310.922 125.813Q314.273 125.813 317.281 123.535Q320.289 121.258 321.148 117.734L326.906 96.0781L327.264 96.0781L333.644 71.7578L333.266 71.7578L340.828 44.1719Q342.977 36.2656 349.121 31.582Q355.266 26.8984 363.516 26.8984L388.008 26.8984L388.008 117.734Q388.008 121.258 390.285 123.535Q392.563 125.813 396.086 125.813L412.242 125.813Q415.594 125.813 418 123.535Q420.406 121.258 420.406 117.906L420.406 10.5703Q420.406 7.39063 418.301 4.98438Q416.195 2.57813 413.016 2.57813L366.695 2.57813Q318.398 2.66407 309.633 36.0938ZM444.984 10.9141L444.984 117.906Q444.984 121.258 447.391 123.535Q449.797 125.813 453.148 125.813L501.188 125.813Q538.484 125.813 555.457 110.945Q572.43 96.0781 572.43 64.2383Q572.43 32.3984 555.457 17.4883Q538.484 2.57813 501.188 2.57813L453.148 2.57813Q449.797 2.57813 447.391 4.98438Q444.984 7.39063 444.984 10.9141ZM590.047 10.5703L590.047 117.563Q590.047 121.086 592.453 123.449C594.057 125.025 595.977 125.813 598.211 125.813L696.867 125.813C699.102 125.813 701.021 125.025 702.625 123.449Q705.031 121.086 705.031 117.734L705.031 109.484Q705.031 106.133 702.711 103.813Q700.391 101.492 697.125 101.492L622.445 101.492L622.445 76.1406L686.898 76.1406Q690.25 76.1406 692.613 73.7773Q694.977 71.4141 694.977 68.0625L694.977 59.9844Q694.977 56.6328 692.613 54.2695Q690.25 51.9063 686.898 51.9063L622.445 51.9063L622.445 26.8984L697.297 26.8984Q700.648 26.8984 703.012 24.5352Q705.375 22.1719 705.375 18.8203L705.375 10.7422Q705.375 7.39063 703.012 4.98438Q700.648 2.57813 697.297 2.57813L598.211 2.57813Q594.859 2.57813 592.453 4.89844Q590.047 7.21875 590.047 10.5703ZM732.617 36.0938L711.047 117.906Q710.789 119.023 710.746 120.484Q710.703 121.945 712.164 123.879Q713.625 125.813 716.977 125.813L733.906 125.813Q737.258 125.813 740.266 123.535Q743.273 121.258 744.133 117.734L749.891 96.0781L810.992 96.0781L810.992 117.734Q810.992 121.258 813.27 123.535Q815.547 125.813 819.07 125.813L835.227 125.813Q838.578 125.813 840.984 123.535Q843.391 121.258 843.391 117.906L843.391 10.5703Q843.391 7.39063 841.285 4.98438Q839.18 2.57813 836 2.57813L789.68 2.57813Q741.383 2.66407 732.617 36.0938ZM69.2227 23.2031Q88.6016 23.2031 97.2813 33.5156Q105.961 43.8281 105.961 64.2383Q105.961 84.6484 97.2813 94.918Q88.6016 105.188 69.2227 105.188Q49.8437 105.188 41.1211 94.918Q32.3984 84.6484 32.3984 64.2383Q32.3984 43.8281 41.1211 33.5156Q49.8437 23.2031 69.2227 23.2031ZM224.984 56.4609L188.375 56.4609L188.375 26.8984L224.984 26.8984Q233.836 26.8984 240.582 30.4219Q247.328 33.9453 247.328 41.6797Q247.328 49.4141 240.582 52.9375Q233.836 56.4609 224.984 56.4609ZM500.242 101.492L477.383 101.492L477.383 26.8984L500.242 26.8984Q523.359 26.8984 531.695 35.3633Q540.031 43.8281 540.031 64.2383Q540.031 84.6484 531.695 93.0703Q523.359 101.492 500.242 101.492ZM810.992 71.7578L756.25 71.7578L763.813 44.1719Q765.961 36.2656 772.105 31.582Q778.25 26.8984 786.5 26.8984L810.992 26.8984L810.992 71.7578Z" fill="#FFFFFF" fill-rule="evenodd" />
  </g>
</svg>