<?xml version="1.0" encoding="utf-8"?>
<svg width="800" height="1000" viewBox="0 0 800 1000" fill="none" xmlns="http://www.w3.org/2000/svg">
  <g>
    <path d="M596.079 0L0 0L0 183.212Q0 183.701 0.0239779 184.189Q0.0479559 184.677 0.095854 185.163Q0.143752 185.649 0.215455 186.133Q0.287158 186.616 0.382493 187.095Q0.477828 187.575 0.596565 188.049Q0.715303 188.523 0.857156 188.99Q0.99901 189.458 1.16364 189.918Q1.32827 190.378 1.51527 190.83Q1.70228 191.281 1.91121 191.723Q2.12015 192.165 2.3505 192.596Q2.58086 193.027 2.83209 193.446Q3.08332 193.865 3.35481 194.271Q3.6263 194.678 3.9174 195.07Q4.2085 195.463 4.51851 195.84Q4.82852 196.218 5.15669 196.58Q5.48486 196.942 5.83041 197.288Q6.17595 197.633 6.53803 197.961Q6.90011 198.29 7.27786 198.6Q7.65561 198.91 8.04811 199.201Q8.44061 199.492 8.84693 199.763Q9.25324 200.035 9.67239 200.286Q10.0915 200.537 10.5225 200.768Q10.9535 200.998 11.3952 201.207Q11.837 201.416 12.2885 201.603Q12.7399 201.79 13.2 201.954Q13.6601 202.119 14.1278 202.261Q14.5954 202.403 15.0694 202.522Q15.5435 202.64 16.0227 202.736Q16.502 202.831 16.9854 202.903Q17.4688 202.974 17.9551 203.022Q18.4414 203.07 18.9295 203.094Q19.4176 203.118 19.9063 203.118L37.6016 203.118Q37.8937 203.118 38.1854 203.133Q38.4771 203.147 38.7678 203.175Q39.0585 203.204 39.3474 203.247Q39.6364 203.29 39.9228 203.347Q40.2093 203.404 40.4926 203.475Q40.776 203.546 41.0555 203.631Q41.335 203.715 41.61 203.814Q41.885 203.912 42.1549 204.024Q42.4248 204.136 42.6888 204.261Q42.9529 204.385 43.2104 204.523Q43.468 204.661 43.7186 204.811Q43.9691 204.961 44.212 205.123Q44.4548 205.286 44.6895 205.46Q44.9241 205.634 45.1499 205.819Q45.3756 206.004 45.5921 206.2Q45.8085 206.397 46.015 206.603Q46.2216 206.81 46.4177 207.026Q46.6139 207.243 46.7992 207.468Q46.9845 207.694 47.1585 207.929Q47.3325 208.163 47.4948 208.406Q47.657 208.649 47.8072 208.9Q47.9574 209.15 48.095 209.408Q48.2327 209.665 48.3576 209.929Q48.4825 210.193 48.5943 210.463Q48.7061 210.733 48.8045 211.008Q48.9029 211.283 48.9877 211.563Q49.0724 211.842 49.1434 212.126Q49.2144 212.409 49.2714 212.695Q49.3284 212.982 49.3712 213.271Q49.4141 213.56 49.4427 213.85Q49.4713 214.141 49.4857 214.433Q49.5 214.725 49.5 215.017L49.5 421.602Q49.5 421.894 49.4857 422.185Q49.4713 422.477 49.4427 422.768Q49.4141 423.058 49.3712 423.347Q49.3284 423.636 49.2714 423.923Q49.2144 424.209 49.1434 424.493Q49.0724 424.776 48.9877 425.055Q48.9029 425.335 48.8045 425.61Q48.7061 425.885 48.5943 426.155Q48.4825 426.425 48.3576 426.689Q48.2327 426.953 48.095 427.21Q47.9574 427.468 47.8072 427.719Q47.657 427.969 47.4948 428.212Q47.3325 428.455 47.1585 428.689Q46.9845 428.924 46.7992 429.15Q46.6139 429.376 46.4177 429.592Q46.2216 429.808 46.015 430.015Q45.8085 430.222 45.5921 430.418Q45.3756 430.614 45.1499 430.799Q44.9241 430.984 44.6894 431.158Q44.4548 431.332 44.212 431.495Q43.9691 431.657 43.7186 431.807Q43.468 431.957 43.2104 432.095Q42.9528 432.233 42.6888 432.358Q42.4248 432.482 42.1549 432.594Q41.885 432.706 41.61 432.804Q41.335 432.903 41.0555 432.988Q40.776 433.072 40.4926 433.143Q40.2093 433.214 39.9228 433.271Q39.6364 433.328 39.3474 433.371Q39.0585 433.414 38.7678 433.443Q38.4771 433.471 38.1854 433.486Q37.8937 433.5 37.6016 433.5L19.9063 433.5Q19.4176 433.5 18.9295 433.524Q18.4414 433.548 17.9551 433.596Q17.4688 433.644 16.9854 433.715Q16.502 433.787 16.0227 433.882Q15.5435 433.978 15.0694 434.097Q14.5954 434.215 14.1278 434.357Q13.6601 434.499 13.2 434.664Q12.7399 434.828 12.2885 435.015Q11.837 435.202 11.3952 435.411Q10.9535 435.62 10.5225 435.851Q10.0915 436.081 9.67239 436.332Q9.25324 436.583 8.84693 436.855Q8.44061 437.126 8.04811 437.417Q7.65561 437.708 7.27786 438.019Q6.90011 438.329 6.53803 438.657Q6.17595 438.985 5.83041 439.33Q5.48486 439.676 5.15669 440.038Q4.82852 440.4 4.51851 440.778Q4.2085 441.156 3.9174 441.548Q3.6263 441.941 3.35481 442.347Q3.08332 442.753 2.83209 443.172Q2.58086 443.591 2.3505 444.022Q2.12015 444.453 1.91121 444.895Q1.70228 445.337 1.51527 445.788Q1.32827 446.24 1.16364 446.7Q0.99901 447.16 0.857156 447.628Q0.715303 448.095 0.596565 448.569Q0.477828 449.043 0.382493 449.523Q0.287158 450.002 0.215455 450.485Q0.143752 450.969 0.095854 451.455Q0.0479559 451.941 0.0239779 452.429Q0 452.918 0 453.406L0 1000L800 1000L800 405.901Q800 405.609 799.986 405.317Q799.971 405.025 799.943 404.735Q799.914 404.444 799.871 404.155Q799.828 403.866 799.771 403.58Q799.714 403.293 799.643 403.01Q799.572 402.726 799.488 402.447Q799.403 402.167 799.304 401.892Q799.206 401.617 799.094 401.347Q798.982 401.078 798.857 400.814Q798.733 400.549 798.595 400.292Q798.457 400.034 798.307 399.784Q798.157 399.533 797.995 399.29Q797.832 399.048 797.658 398.813Q797.484 398.578 797.299 398.353Q797.114 398.127 796.918 397.91Q796.721 397.694 796.515 397.487Q796.308 397.281 796.092 397.085Q795.876 396.888 795.65 396.703Q795.424 396.518 795.189 396.344Q794.955 396.17 794.712 396.008Q794.469 395.845 794.219 395.695Q793.968 395.545 793.71 395.407Q793.453 395.27 793.189 395.145Q792.925 395.02 792.655 394.908Q792.385 394.796 792.11 394.698Q791.835 394.6 791.555 394.515Q791.276 394.43 790.993 394.359Q790.709 394.288 790.423 394.231Q790.136 394.174 789.847 394.131Q789.558 394.088 789.268 394.06Q788.977 394.031 788.685 394.017Q788.394 394.002 788.102 394.002L786.813 394.002Q786.522 394.002 786.231 393.988Q785.94 393.974 785.65 393.946Q785.361 393.917 785.073 393.875Q784.785 393.832 784.499 393.775Q784.214 393.719 783.931 393.648Q783.649 393.578 783.37 393.493Q783.091 393.409 782.817 393.312Q782.543 393.214 782.274 393.103Q782.005 392.992 781.741 392.868Q781.478 392.743 781.221 392.607Q780.964 392.47 780.714 392.321Q780.464 392.171 780.222 392.01Q779.979 391.849 779.745 391.676Q779.511 391.503 779.286 391.319Q779.06 391.135 778.844 390.94Q778.628 390.745 778.421 390.54Q778.215 390.334 778.019 390.119Q777.823 389.904 777.637 389.679Q777.452 389.455 777.278 389.222Q777.104 388.988 776.941 388.747Q776.779 388.505 776.628 388.256Q776.478 388.007 776.34 387.751Q776.201 387.495 776.076 387.232Q775.951 386.969 775.838 386.701Q775.726 386.432 775.626 386.158Q775.527 385.885 775.441 385.607Q775.356 385.328 775.284 385.046Q775.212 384.764 775.154 384.479Q775.095 384.194 775.051 383.906Q775.007 383.618 774.977 383.329Q774.947 383.039 774.932 382.748Q774.916 382.458 774.914 382.167L774.563 315.243Q774.56 314.656 774.614 314.072Q774.669 313.488 774.781 312.912Q774.893 312.337 775.06 311.775Q775.228 311.213 775.451 310.67Q775.673 310.127 775.947 309.609Q776.222 309.091 776.546 308.602Q776.87 308.113 777.241 307.659Q777.612 307.205 778.026 306.789Q778.439 306.373 778.892 306Q779.344 305.627 779.831 305.3Q780.318 304.973 780.835 304.696Q781.352 304.419 781.893 304.193Q782.435 303.968 782.996 303.797Q783.557 303.627 784.132 303.512Q784.707 303.397 785.291 303.339Q785.875 303.282 786.461 303.282L788.102 303.282Q788.394 303.282 788.685 303.267Q788.977 303.253 789.268 303.224Q789.559 303.196 789.847 303.153Q790.136 303.11 790.423 303.053Q790.709 302.996 790.993 302.925Q791.276 302.854 791.556 302.769Q791.835 302.685 792.11 302.586Q792.385 302.488 792.655 302.376Q792.925 302.264 793.189 302.139Q793.453 302.014 793.711 301.877Q793.968 301.739 794.219 301.589Q794.469 301.439 794.712 301.276Q794.955 301.114 795.19 300.94Q795.424 300.766 795.65 300.581Q795.876 300.396 796.092 300.199Q796.308 300.003 796.515 299.797Q796.722 299.59 796.918 299.374Q797.114 299.157 797.299 298.932Q797.485 298.706 797.659 298.471Q797.833 298.237 797.995 297.994Q798.157 297.751 798.307 297.5Q798.457 297.25 798.595 296.992Q798.733 296.734 798.858 296.47Q798.982 296.206 799.094 295.937Q799.206 295.667 799.304 295.392Q799.403 295.117 799.488 294.837Q799.573 294.558 799.643 294.274Q799.714 293.991 799.771 293.704Q799.828 293.418 799.871 293.129Q799.914 292.84 799.943 292.549Q799.971 292.259 799.986 291.967Q800 291.675 800 291.383L800 191.5L596.079 0ZM724 329C724 304.696 704.304 285 680 285L120 285C95.6962 285 76 304.696 76 329L76 889C76 913.304 95.6962 933 120 933L680 933C704.304 933 724 913.304 724 889L724 329Z" fill="#212121" fill-rule="evenodd" />
  </g>
</svg>