<svg width="400" height="400" viewBox="0 0 400 400" fill="none" xmlns="http://www.w3.org/2000/svg">
<path fill-rule="evenodd" clip-rule="evenodd" d="M50.7681 72.3617L195.866 23.9014C196.371 23.7326 196.887 23.6055 197.413 23.5199C197.939 23.4344 198.468 23.3916 199.001 23.3916C199.534 23.3916 200.063 23.4343 200.589 23.5197C201.115 23.6052 201.631 23.7322 202.136 23.9009L347.242 72.3398C347.486 72.4213 347.727 72.5123 347.964 72.6126C348.201 72.713 348.434 72.8225 348.663 72.941C348.891 73.0596 349.115 73.1869 349.334 73.3229C349.553 73.4589 349.766 73.6032 349.974 73.7559C350.181 73.9086 350.382 74.0691 350.577 74.2375C350.772 74.4058 350.96 74.5816 351.142 74.7646C351.323 74.9477 351.496 75.1375 351.663 75.3342C351.83 75.5308 351.988 75.7336 352.139 75.9426C352.289 76.1516 352.431 76.3662 352.565 76.5863C352.699 76.8064 352.824 77.0314 352.94 77.2613C353.057 77.4911 353.164 77.7252 353.262 77.9634C353.36 78.2016 353.448 78.4433 353.527 78.6884C353.606 78.9336 353.676 79.1815 353.736 79.432C353.796 79.6826 353.845 79.9351 353.885 80.1896C353.925 80.4441 353.955 80.6997 353.975 80.9565C353.996 81.2133 354.006 81.4705 354.006 81.7282L354.011 138.102C354.01 138.297 354.004 138.493 353.993 138.688C353.981 138.883 353.964 139.077 353.941 139.271C353.918 139.465 353.889 139.658 353.855 139.85C353.82 140.042 353.78 140.233 353.735 140.423C353.689 140.613 353.637 140.801 353.581 140.988C353.523 141.175 353.461 141.36 353.394 141.543C353.326 141.726 353.252 141.906 353.174 142.085C353.095 142.264 353.012 142.44 352.923 142.614C352.834 142.788 352.739 142.959 352.64 143.127C352.541 143.295 352.437 143.46 352.328 143.623C352.219 143.785 352.106 143.944 351.988 144.099C351.869 144.254 351.746 144.406 351.619 144.554C351.492 144.702 351.36 144.846 351.225 144.986C351.089 145.127 350.949 145.263 350.805 145.395C350.662 145.527 350.514 145.655 350.362 145.778C350.211 145.902 350.056 146.02 349.898 146.134C349.739 146.248 349.578 146.358 349.413 146.462C349.248 146.567 349.08 146.667 348.909 146.761C348.738 146.856 348.565 146.945 348.389 147.029C348.213 147.114 348.035 147.193 347.854 147.267C347.674 147.341 347.491 147.409 347.305 147.472C347.121 147.535 346.934 147.592 346.746 147.644C346.558 147.696 346.368 147.743 346.177 147.783C345.987 147.824 345.795 147.859 345.601 147.889C345.409 147.918 345.215 147.942 345.02 147.96C344.826 147.978 344.631 147.99 344.436 147.997C344.241 148.003 344.046 148.003 343.85 147.998C343.655 147.993 343.46 147.982 343.266 147.966C343.072 147.949 342.878 147.926 342.684 147.898C342.491 147.87 342.299 147.836 342.107 147.797C341.916 147.757 341.726 147.711 341.538 147.661C341.35 147.61 341.163 147.554 340.977 147.492L202.142 101.147C201.636 100.978 201.121 100.851 200.595 100.765C200.069 100.68 199.539 100.637 199.007 100.637C198.474 100.637 197.945 100.68 197.419 100.765C196.893 100.851 196.377 100.978 195.872 101.147L57.0436 147.513C56.8584 147.575 56.6716 147.631 56.483 147.682C56.2945 147.733 56.1046 147.778 55.9134 147.818C55.7222 147.857 55.53 147.891 55.3368 147.919C55.1436 147.948 54.9498 147.97 54.7553 147.987C54.5607 148.004 54.3659 148.014 54.1707 148.019C53.9755 148.024 53.7803 148.024 53.5852 148.018C53.39 148.011 53.1953 147.999 53.0008 147.981C52.8064 147.963 52.6127 147.94 52.4197 147.91C52.2266 147.881 52.0346 147.846 51.8437 147.805C51.6527 147.765 51.4631 147.718 51.2749 147.666C51.0867 147.614 50.9002 147.557 50.7154 147.494C50.5306 147.431 50.3478 147.362 50.167 147.288C49.9863 147.215 49.8078 147.136 49.6317 147.051C49.4557 146.967 49.2822 146.878 49.1114 146.783C48.9406 146.689 48.7728 146.589 48.6079 146.485C48.443 146.38 48.2813 146.271 48.1229 146.157C47.9645 146.043 47.8095 145.924 47.6581 145.801C47.5067 145.677 47.3591 145.55 47.2152 145.418C47.0714 145.286 46.9316 145.149 46.7958 145.009C46.66 144.869 46.5284 144.725 46.4012 144.577C46.2739 144.429 46.1511 144.277 46.0328 144.122C45.9146 143.966 45.801 143.808 45.6921 143.646C45.5832 143.483 45.4792 143.318 45.38 143.15C45.2809 142.982 45.1868 142.811 45.0978 142.637C45.0088 142.463 44.925 142.286 44.8465 142.108C44.7679 141.929 44.6947 141.748 44.6268 141.566C44.5589 141.382 44.4965 141.197 44.4396 141.011C44.3827 140.824 44.3313 140.636 44.2855 140.446C44.2397 140.256 44.1996 140.065 44.1651 139.873C44.1306 139.681 44.1019 139.488 44.0788 139.294C44.0557 139.1 44.0384 138.906 44.0269 138.711C44.0153 138.516 44.0095 138.32 44.0095 138.125L44.0053 81.7511C44.0053 81.4935 44.0154 81.2363 44.0354 80.9795C44.0555 80.7227 44.0855 80.467 44.1255 80.2125C44.1656 79.9581 44.2154 79.7055 44.2752 79.4549C44.3349 79.2043 44.4043 78.9565 44.4834 78.7113C44.5625 78.4662 44.651 78.2245 44.749 77.9862C44.8469 77.748 44.954 77.5139 45.0703 77.284C45.1865 77.0541 45.3115 76.8291 45.4453 76.6089C45.5791 76.3889 45.7213 76.1743 45.8718 75.9652C46.0224 75.7562 46.1809 75.5534 46.3473 75.3568C46.5137 75.1601 46.6875 74.9702 46.8687 74.7871C47.0499 74.6041 47.238 74.4283 47.4329 74.2599C47.6278 74.0915 47.829 73.9309 48.0365 73.7783C48.244 73.6256 48.4571 73.4812 48.6758 73.3451C48.8945 73.2091 49.1183 73.0818 49.3469 72.9632C49.5756 72.8446 49.8086 72.7351 50.0458 72.6347C50.283 72.5343 50.5238 72.4433 50.7681 72.3617Z" fill="#FF8A8A"/>
<g filter="url(#filter0_d_6_41)">
<path fill-rule="evenodd" clip-rule="evenodd" d="M196.366 23.4013L51.268 71.8615C51.0237 71.9431 50.7829 72.0341 50.5457 72.1344C50.3084 72.2349 50.0755 72.3444 49.8468 72.463C49.6181 72.5815 49.3944 72.7089 49.1757 72.8449C48.9569 72.981 48.7438 73.1253 48.5364 73.2781C48.3289 73.4308 48.1277 73.5913 47.9328 73.7597C47.7378 73.9281 47.5498 74.1038 47.3686 74.2869C47.1873 74.4699 47.0135 74.6598 46.8471 74.8565C46.6808 75.0532 46.5223 75.256 46.3717 75.465C46.2212 75.6741 46.079 75.8886 45.9452 76.1088C45.8114 76.3289 45.6864 76.5539 45.5701 76.7838C45.4539 77.0137 45.3468 77.2478 45.2489 77.486C45.1509 77.7242 45.0624 77.9659 44.9833 78.2111C44.9042 78.4563 44.8348 78.7042 44.7751 78.9548C44.7153 79.2053 44.6654 79.4578 44.6254 79.7123C44.5854 79.9667 44.5554 80.2224 44.5353 80.4793C44.5152 80.7361 44.5052 80.9933 44.5052 81.2509L44.5094 137.625C44.5094 137.82 44.5152 138.015 44.5268 138.21C44.5383 138.405 44.5556 138.6 44.5787 138.793C44.6017 138.987 44.6305 139.18 44.665 139.373C44.6995 139.565 44.7396 139.756 44.7854 139.946C44.8312 140.135 44.8826 140.324 44.9395 140.51C44.9964 140.697 45.0588 140.882 45.1267 141.065C45.1946 141.248 45.2678 141.429 45.3464 141.608C45.4249 141.787 45.5087 141.963 45.5977 142.137C45.6867 142.31 45.7808 142.481 45.8799 142.65C45.979 142.818 46.0831 142.983 46.192 143.145C46.3008 143.307 46.4144 143.466 46.5327 143.621C46.651 143.776 46.7738 143.928 46.9011 144.076C47.0283 144.224 47.1599 144.369 47.2957 144.509C47.4315 144.649 47.5713 144.785 47.7151 144.917C47.859 145.049 48.0066 145.177 48.158 145.3C48.3094 145.423 48.4644 145.542 48.6228 145.656C48.7812 145.77 48.9429 145.88 49.1078 145.984C49.2727 146.089 49.4405 146.188 49.6113 146.283C49.7821 146.378 49.9555 146.467 50.1316 146.551C50.3077 146.636 50.4861 146.715 50.6669 146.789C50.8477 146.862 51.0305 146.931 51.2153 146.994C51.4001 147.057 51.5866 147.114 51.7748 147.166C51.963 147.218 52.1526 147.264 52.3436 147.305C52.5345 147.346 52.7265 147.381 52.9195 147.41C53.1126 147.44 53.3063 147.463 53.5007 147.481C53.6951 147.499 53.8899 147.511 54.0851 147.518C54.2802 147.524 54.4754 147.524 54.6705 147.519C54.8657 147.514 55.0606 147.503 55.2551 147.486C55.4497 147.47 55.6435 147.447 55.8367 147.419C56.0299 147.391 56.2221 147.357 56.4133 147.318C56.6045 147.278 56.7944 147.233 56.9829 147.182C57.1714 147.131 57.3583 147.075 57.5435 147.013L196.372 100.647C196.877 100.478 197.393 100.351 197.919 100.265C198.445 100.18 198.974 100.137 199.507 100.137C200.039 100.137 200.569 100.18 201.095 100.265C201.621 100.351 202.136 100.478 202.642 100.646L341.477 146.992C341.662 147.054 341.849 147.11 342.038 147.161C342.226 147.212 342.416 147.257 342.607 147.296C342.798 147.336 342.991 147.37 343.184 147.398C343.377 147.426 343.571 147.448 343.766 147.465C343.96 147.482 344.155 147.493 344.35 147.498C344.545 147.503 344.741 147.502 344.936 147.496C345.131 147.49 345.325 147.477 345.52 147.46C345.715 147.442 345.908 147.418 346.101 147.389C346.294 147.359 346.486 147.324 346.677 147.283C346.868 147.243 347.057 147.196 347.246 147.144C347.434 147.092 347.62 147.035 347.805 146.972C347.99 146.909 348.173 146.84 348.354 146.767C348.535 146.693 348.713 146.614 348.889 146.529C349.065 146.445 349.238 146.355 349.409 146.261C349.58 146.166 349.748 146.067 349.913 145.962C350.078 145.857 350.239 145.748 350.398 145.634C350.556 145.52 350.711 145.401 350.862 145.278C351.014 145.155 351.162 145.027 351.305 144.895C351.449 144.763 351.589 144.627 351.725 144.486C351.86 144.346 351.992 144.202 352.119 144.054C352.246 143.906 352.369 143.754 352.488 143.599C352.606 143.443 352.719 143.284 352.828 143.122C352.937 142.96 353.041 142.795 353.14 142.627C353.239 142.459 353.333 142.288 353.423 142.114C353.511 141.94 353.595 141.764 353.674 141.585C353.752 141.406 353.825 141.225 353.893 141.042C353.961 140.859 354.023 140.674 354.081 140.488C354.137 140.301 354.189 140.113 354.235 139.923C354.28 139.733 354.32 139.542 354.355 139.35C354.389 139.158 354.418 138.964 354.44 138.771C354.464 138.577 354.481 138.382 354.492 138.187C354.504 137.993 354.51 137.797 354.51 137.602L354.506 81.2279C354.506 80.9703 354.496 80.7131 354.475 80.4563C354.455 80.1995 354.425 79.9439 354.385 79.6894C354.345 79.435 354.295 79.1824 354.236 78.9319C354.176 78.6813 354.106 78.4334 354.027 78.1883C353.948 77.9431 353.86 77.7014 353.762 77.4632C353.664 77.2249 353.557 76.9909 353.44 76.761C353.324 76.5312 353.199 76.3062 353.065 76.086C352.931 75.8659 352.789 75.6514 352.639 75.4424C352.488 75.2334 352.329 75.0306 352.163 74.8339C351.996 74.6373 351.822 74.4475 351.642 74.2644C351.46 74.0814 351.272 73.9057 351.077 73.7373C350.882 73.5689 350.681 73.4084 350.474 73.2557C350.266 73.1031 350.053 72.9587 349.834 72.8227C349.615 72.6867 349.391 72.5594 349.163 72.4408C348.934 72.3222 348.701 72.2128 348.464 72.1125C348.227 72.0121 347.986 71.9211 347.742 71.8395L202.636 23.4009C202.131 23.2322 201.615 23.1053 201.089 23.02C200.563 22.934 200.034 22.8911 199.501 22.8911C198.968 22.8911 198.439 22.9342 197.913 23.0202C197.387 23.1056 196.871 23.2326 196.366 23.4013ZM55.5053 82.0436L199.502 33.9511L343.506 82.0222L343.51 136.074L206.125 90.2123C201.712 88.7392 197.299 88.7396 192.887 90.2133L55.5093 136.095L55.5053 82.0436Z" fill="#FFB6B6"/>
</g>
<path fill-rule="evenodd" clip-rule="evenodd" d="M50.7681 169.362L195.866 120.901C196.371 120.733 196.887 120.605 197.413 120.52C197.939 120.434 198.468 120.392 199.001 120.392C199.534 120.392 200.063 120.434 200.589 120.52C201.115 120.605 201.631 120.732 202.136 120.901L347.242 169.34C347.486 169.421 347.727 169.512 347.964 169.613C348.201 169.713 348.434 169.822 348.663 169.941C348.891 170.06 349.115 170.187 349.334 170.323C349.553 170.459 349.766 170.603 349.974 170.756C350.181 170.909 350.382 171.069 350.577 171.237C350.772 171.406 350.96 171.582 351.142 171.765C351.323 171.948 351.496 172.138 351.663 172.334C351.83 172.531 351.988 172.734 352.139 172.943C352.289 173.152 352.431 173.366 352.565 173.586C352.699 173.806 352.824 174.031 352.94 174.261C353.057 174.491 353.164 174.725 353.262 174.963C353.36 175.202 353.448 175.443 353.527 175.688C353.606 175.934 353.676 176.181 353.736 176.432C353.796 176.683 353.845 176.935 353.885 177.19C353.925 177.444 353.955 177.7 353.975 177.956C353.996 178.213 354.006 178.471 354.006 178.728L354.011 235.102C354.01 235.297 354.004 235.493 353.993 235.688C353.981 235.883 353.964 236.077 353.941 236.271C353.918 236.465 353.889 236.658 353.855 236.85C353.82 237.042 353.78 237.233 353.735 237.423C353.689 237.613 353.637 237.801 353.581 237.988C353.523 238.175 353.461 238.36 353.394 238.543C353.326 238.726 353.252 238.906 353.174 239.085C353.095 239.264 353.012 239.44 352.923 239.614C352.834 239.788 352.739 239.959 352.64 240.127C352.541 240.295 352.437 240.46 352.328 240.623C352.219 240.785 352.106 240.944 351.988 241.099C351.869 241.254 351.746 241.406 351.619 241.554C351.492 241.702 351.36 241.846 351.225 241.986C351.089 242.127 350.949 242.263 350.805 242.395C350.662 242.527 350.514 242.655 350.362 242.778C350.211 242.902 350.056 243.02 349.898 243.134C349.739 243.248 349.578 243.358 349.413 243.462C349.248 243.567 349.08 243.667 348.909 243.761C348.738 243.856 348.565 243.945 348.389 244.029C348.213 244.114 348.035 244.193 347.854 244.267C347.674 244.341 347.491 244.409 347.305 244.472C347.121 244.535 346.934 244.592 346.746 244.644C346.558 244.696 346.368 244.743 346.177 244.783C345.987 244.824 345.795 244.859 345.601 244.889C345.409 244.918 345.215 244.942 345.02 244.96C344.826 244.978 344.631 244.99 344.436 244.997C344.241 245.003 344.046 245.003 343.85 244.998C343.655 244.993 343.46 244.982 343.266 244.966C343.072 244.949 342.878 244.926 342.684 244.898C342.491 244.87 342.299 244.836 342.107 244.797C341.916 244.757 341.726 244.711 341.538 244.661C341.35 244.61 341.163 244.554 340.977 244.492L202.142 198.147C201.636 197.978 201.121 197.851 200.595 197.765C200.069 197.68 199.539 197.637 199.007 197.637C198.474 197.637 197.945 197.68 197.419 197.765C196.893 197.851 196.377 197.978 195.872 198.147L57.0436 244.513C56.8584 244.575 56.6716 244.631 56.483 244.682C56.2945 244.733 56.1046 244.778 55.9134 244.818C55.7222 244.857 55.53 244.891 55.3368 244.919C55.1436 244.948 54.9498 244.97 54.7553 244.987C54.5607 245.004 54.3659 245.014 54.1707 245.019C53.9755 245.024 53.7803 245.024 53.5852 245.018C53.39 245.011 53.1953 244.999 53.0008 244.981C52.8064 244.963 52.6127 244.94 52.4197 244.91C52.2266 244.881 52.0346 244.846 51.8437 244.805C51.6527 244.765 51.4631 244.718 51.2749 244.666C51.0867 244.614 50.9002 244.557 50.7154 244.494C50.5306 244.431 50.3478 244.362 50.167 244.288C49.9863 244.215 49.8078 244.136 49.6317 244.051C49.4557 243.967 49.2822 243.878 49.1114 243.783C48.9406 243.689 48.7728 243.589 48.6079 243.485C48.443 243.38 48.2813 243.271 48.1229 243.157C47.9645 243.043 47.8095 242.924 47.6581 242.801C47.5067 242.677 47.3591 242.55 47.2152 242.418C47.0714 242.286 46.9316 242.149 46.7958 242.009C46.66 241.869 46.5284 241.725 46.4012 241.577C46.2739 241.429 46.1511 241.277 46.0328 241.122C45.9146 240.966 45.801 240.808 45.6921 240.646C45.5832 240.483 45.4792 240.318 45.38 240.15C45.2809 239.982 45.1868 239.811 45.0978 239.637C45.0088 239.463 44.925 239.286 44.8465 239.108C44.7679 238.929 44.6947 238.748 44.6268 238.566C44.5589 238.382 44.4965 238.197 44.4396 238.011C44.3827 237.824 44.3313 237.636 44.2855 237.446C44.2397 237.256 44.1996 237.065 44.1651 236.873C44.1306 236.681 44.1019 236.488 44.0788 236.294C44.0557 236.1 44.0384 235.906 44.0269 235.711C44.0153 235.516 44.0095 235.32 44.0095 235.125L44.0053 178.751C44.0053 178.493 44.0154 178.236 44.0354 177.979C44.0555 177.723 44.0855 177.467 44.1255 177.213C44.1656 176.958 44.2154 176.706 44.2752 176.455C44.3349 176.204 44.4043 175.956 44.4834 175.711C44.5625 175.466 44.651 175.224 44.749 174.986C44.8469 174.748 44.954 174.514 45.0703 174.284C45.1865 174.054 45.3115 173.829 45.4453 173.609C45.5791 173.389 45.7213 173.174 45.8718 172.965C46.0224 172.756 46.1809 172.553 46.3473 172.357C46.5137 172.16 46.6875 171.97 46.8687 171.787C47.0499 171.604 47.238 171.428 47.4329 171.26C47.6278 171.091 47.829 170.931 48.0365 170.778C48.244 170.626 48.4571 170.481 48.6758 170.345C48.8945 170.209 49.1183 170.082 49.3469 169.963C49.5756 169.845 49.8086 169.735 50.0458 169.635C50.283 169.534 50.5238 169.443 50.7681 169.362Z" fill="#FF8A8A"/>
<g filter="url(#filter1_d_6_41)">
<path fill-rule="evenodd" clip-rule="evenodd" d="M196.366 120.401L51.268 168.861C51.0237 168.943 50.7829 169.034 50.5457 169.134C50.3084 169.235 50.0755 169.344 49.8468 169.463C49.6181 169.582 49.3944 169.709 49.1757 169.845C48.9569 169.981 48.7438 170.125 48.5364 170.278C48.3289 170.431 48.1277 170.591 47.9328 170.76C47.7378 170.928 47.5498 171.104 47.3686 171.287C47.1873 171.47 47.0135 171.66 46.8471 171.857C46.6808 172.053 46.5223 172.256 46.3717 172.465C46.2212 172.674 46.079 172.889 45.9452 173.109C45.8114 173.329 45.6864 173.554 45.5701 173.784C45.4539 174.014 45.3468 174.248 45.2489 174.486C45.1509 174.724 45.0624 174.966 44.9833 175.211C44.9042 175.456 44.8348 175.704 44.7751 175.955C44.7153 176.205 44.6654 176.458 44.6254 176.712C44.5854 176.967 44.5554 177.222 44.5353 177.479C44.5152 177.736 44.5052 177.993 44.5052 178.251L44.5094 234.625C44.5094 234.82 44.5152 235.015 44.5268 235.21C44.5383 235.405 44.5556 235.6 44.5787 235.793C44.6017 235.987 44.6305 236.18 44.665 236.373C44.6995 236.565 44.7396 236.756 44.7854 236.946C44.8312 237.135 44.8826 237.324 44.9395 237.51C44.9964 237.697 45.0588 237.882 45.1267 238.065C45.1946 238.248 45.2678 238.429 45.3464 238.608C45.4249 238.787 45.5087 238.963 45.5977 239.137C45.6867 239.31 45.7808 239.481 45.8799 239.65C45.979 239.818 46.0831 239.983 46.192 240.145C46.3008 240.307 46.4144 240.466 46.5327 240.621C46.651 240.776 46.7738 240.928 46.9011 241.076C47.0283 241.224 47.1599 241.369 47.2957 241.509C47.4315 241.649 47.5713 241.785 47.7151 241.917C47.859 242.049 48.0066 242.177 48.158 242.3C48.3094 242.423 48.4644 242.542 48.6228 242.656C48.7812 242.77 48.9429 242.88 49.1078 242.984C49.2727 243.089 49.4405 243.188 49.6113 243.283C49.7821 243.378 49.9555 243.467 50.1316 243.551C50.3077 243.636 50.4861 243.715 50.6669 243.789C50.8477 243.862 51.0305 243.931 51.2153 243.994C51.4001 244.057 51.5866 244.114 51.7748 244.166C51.963 244.218 52.1526 244.264 52.3436 244.305C52.5345 244.346 52.7265 244.381 52.9195 244.41C53.1126 244.44 53.3063 244.463 53.5007 244.481C53.6951 244.499 53.8899 244.511 54.0851 244.518C54.2802 244.524 54.4754 244.524 54.6705 244.519C54.8657 244.514 55.0606 244.503 55.2551 244.486C55.4497 244.47 55.6435 244.447 55.8367 244.419C56.0299 244.391 56.2221 244.357 56.4133 244.318C56.6045 244.278 56.7944 244.233 56.9829 244.182C57.1714 244.131 57.3583 244.075 57.5435 244.013L196.372 197.647C196.877 197.478 197.393 197.351 197.919 197.265C198.445 197.18 198.974 197.137 199.507 197.137C200.039 197.137 200.569 197.18 201.095 197.265C201.621 197.351 202.136 197.478 202.642 197.646L341.477 243.992C341.662 244.054 341.849 244.11 342.038 244.161C342.226 244.212 342.416 244.257 342.607 244.296C342.798 244.336 342.991 244.37 343.184 244.398C343.377 244.426 343.571 244.448 343.766 244.465C343.96 244.482 344.155 244.493 344.35 244.498C344.545 244.503 344.741 244.502 344.936 244.496C345.131 244.49 345.325 244.477 345.52 244.46C345.715 244.442 345.908 244.418 346.101 244.389C346.294 244.359 346.486 244.324 346.677 244.283C346.868 244.243 347.057 244.196 347.246 244.144C347.434 244.092 347.62 244.035 347.805 243.972C347.99 243.909 348.173 243.84 348.354 243.767C348.535 243.693 348.713 243.614 348.889 243.529C349.065 243.445 349.238 243.355 349.409 243.261C349.58 243.166 349.748 243.067 349.913 242.962C350.078 242.857 350.239 242.748 350.398 242.634C350.556 242.52 350.711 242.401 350.862 242.278C351.014 242.155 351.162 242.027 351.305 241.895C351.449 241.763 351.589 241.627 351.725 241.486C351.86 241.346 351.992 241.202 352.119 241.054C352.246 240.906 352.369 240.754 352.488 240.599C352.606 240.443 352.719 240.284 352.828 240.122C352.937 239.96 353.041 239.795 353.14 239.627C353.239 239.459 353.333 239.288 353.423 239.114C353.511 238.94 353.595 238.764 353.674 238.585C353.752 238.406 353.825 238.225 353.893 238.042C353.961 237.859 354.023 237.674 354.081 237.488C354.137 237.301 354.189 237.113 354.235 236.923C354.28 236.733 354.32 236.542 354.355 236.35C354.389 236.158 354.418 235.964 354.44 235.771C354.464 235.577 354.481 235.382 354.492 235.187C354.504 234.993 354.51 234.797 354.51 234.602L354.506 178.228C354.506 177.97 354.496 177.713 354.475 177.456C354.455 177.2 354.425 176.944 354.385 176.689C354.345 176.435 354.295 176.182 354.236 175.932C354.176 175.681 354.106 175.433 354.027 175.188C353.948 174.943 353.86 174.701 353.762 174.463C353.664 174.225 353.557 173.991 353.44 173.761C353.324 173.531 353.199 173.306 353.065 173.086C352.931 172.866 352.789 172.651 352.639 172.442C352.488 172.233 352.329 172.031 352.163 171.834C351.996 171.637 351.822 171.448 351.642 171.264C351.46 171.081 351.272 170.906 351.077 170.737C350.882 170.569 350.681 170.408 350.474 170.256C350.266 170.103 350.053 169.959 349.834 169.823C349.615 169.687 349.391 169.559 349.163 169.441C348.934 169.322 348.701 169.213 348.464 169.112C348.227 169.012 347.986 168.921 347.742 168.84L202.636 120.401C202.131 120.232 201.615 120.105 201.089 120.02C200.563 119.934 200.034 119.891 199.501 119.891C198.968 119.891 198.439 119.934 197.913 120.02C197.387 120.106 196.871 120.233 196.366 120.401ZM55.5053 179.044L199.502 130.951L343.506 179.022L343.51 233.074L206.125 187.212C201.712 185.739 197.299 185.74 192.887 187.213L55.5093 233.095L55.5053 179.044Z" fill="#FFB6B6"/>
</g>
<defs>
<filter id="filter0_d_6_41" x="41.5052" y="19.8911" width="316.005" height="130.632" filterUnits="userSpaceOnUse" color-interpolation-filters="sRGB">
<feFlood flood-opacity="0" result="BackgroundImageFix"/>
<feColorMatrix in="SourceAlpha" type="matrix" values="0 0 0 0 0 0 0 0 0 0 0 0 0 0 0 0 0 0 127 0" result="hardAlpha"/>
<feOffset/>
<feGaussianBlur stdDeviation="1.5"/>
<feColorMatrix type="matrix" values="0 0 0 0 1 0 0 0 0 1 0 0 0 0 1 0 0 0 0.729 0"/>
<feBlend mode="normal" in2="BackgroundImageFix" result="effect1_dropShadow_6_41"/>
<feBlend mode="normal" in="SourceGraphic" in2="effect1_dropShadow_6_41" result="shape"/>
</filter>
<filter id="filter1_d_6_41" x="41.5052" y="116.891" width="316.005" height="130.632" filterUnits="userSpaceOnUse" color-interpolation-filters="sRGB">
<feFlood flood-opacity="0" result="BackgroundImageFix"/>
<feColorMatrix in="SourceAlpha" type="matrix" values="0 0 0 0 0 0 0 0 0 0 0 0 0 0 0 0 0 0 127 0" result="hardAlpha"/>
<feOffset/>
<feGaussianBlur stdDeviation="1.5"/>
<feColorMatrix type="matrix" values="0 0 0 0 1 0 0 0 0 1 0 0 0 0 1 0 0 0 0.729 0"/>
<feBlend mode="normal" in2="BackgroundImageFix" result="effect1_dropShadow_6_41"/>
<feBlend mode="normal" in="SourceGraphic" in2="effect1_dropShadow_6_41" result="shape"/>
</filter>
</defs>
</svg>
