<svg width="400" height="400" viewBox="0 0 400 400" fill="none" xmlns="http://www.w3.org/2000/svg">
<g clip-path="url(#clip0_19_80)">
<mask id="path-1-inside-1_19_80" fill="white">
<path d="M337.513 318.147C342.764 323.574 342.796 332.228 337.208 337.309C320.037 352.92 300.474 365.527 279.289 374.596C253.993 385.426 226.881 391 199.5 391C172.119 391 145.007 385.426 119.71 374.596C98.5263 365.527 78.9631 352.92 61.7918 337.309C56.2039 332.228 56.2355 323.574 61.4867 318.147L90.2723 288.395C95.7746 282.708 104.854 282.768 110.907 287.866C121.454 296.749 133.215 304.015 145.832 309.417C162.847 316.701 181.083 320.45 199.5 320.45C217.917 320.45 236.153 316.701 253.168 309.417C265.785 304.015 277.546 296.749 288.093 287.866C294.146 282.768 303.225 282.708 308.728 288.395L337.513 318.147Z"/>
</mask>
<path d="M337.513 318.147C342.764 323.574 342.796 332.228 337.208 337.309C320.037 352.92 300.474 365.527 279.289 374.596C253.993 385.426 226.881 391 199.5 391C172.119 391 145.007 385.426 119.71 374.596C98.5263 365.527 78.9631 352.92 61.7918 337.309C56.2039 332.228 56.2355 323.574 61.4867 318.147L90.2723 288.395C95.7746 282.708 104.854 282.768 110.907 287.866C121.454 296.749 133.215 304.015 145.832 309.417C162.847 316.701 181.083 320.45 199.5 320.45C217.917 320.45 236.153 316.701 253.168 309.417C265.785 304.015 277.546 296.749 288.093 287.866C294.146 282.768 303.225 282.708 308.728 288.395L337.513 318.147Z" fill="#FF8A8A" stroke="#FFB6B6" stroke-width="32" mask="url(#path-1-inside-1_19_80)"/>
</g>
<defs>
<clipPath id="clip0_19_80">
<rect width="400" height="400" fill="white"/>
</clipPath>
</defs>
</svg>
