<svg width="400" height="400" viewBox="0 0 400 400" fill="none" xmlns="http://www.w3.org/2000/svg">
<path fill-rule="evenodd" clip-rule="evenodd" d="M34.5426 191.485L196.276 143.023C196.839 142.854 197.414 142.727 198 142.642C198.586 142.556 199.176 142.513 199.77 142.513C200.364 142.513 200.954 142.556 201.54 142.641C202.127 142.727 202.701 142.854 203.265 143.023L365.006 191.46C365.278 191.542 365.547 191.633 365.81 191.733C366.075 191.833 366.335 191.943 366.589 192.061C366.844 192.18 367.094 192.307 367.337 192.443C367.582 192.579 367.82 192.724 368.051 192.876C368.282 193.029 368.506 193.19 368.723 193.358C368.941 193.526 369.151 193.702 369.353 193.885C369.554 194.068 369.748 194.258 369.934 194.455C370.119 194.651 370.296 194.854 370.464 195.063C370.631 195.272 370.79 195.487 370.939 195.707C371.088 195.927 371.228 196.152 371.357 196.382C371.487 196.612 371.607 196.846 371.716 197.084C371.825 197.322 371.924 197.564 372.012 197.809C372.1 198.054 372.178 198.302 372.245 198.552C372.311 198.803 372.366 199.056 372.411 199.31C372.455 199.564 372.489 199.82 372.511 200.077C372.534 200.334 372.546 200.591 372.546 200.849L372.55 257.222C372.549 257.418 372.542 257.613 372.53 257.808C372.517 258.003 372.498 258.197 372.472 258.391C372.447 258.585 372.415 258.778 372.376 258.97C372.337 259.162 372.293 259.353 372.242 259.543C372.191 259.733 372.134 259.922 372.071 260.108C372.007 260.295 371.937 260.48 371.862 260.663C371.787 260.846 371.705 261.027 371.617 261.205C371.53 261.384 371.436 261.56 371.337 261.734C371.238 261.908 371.133 262.079 371.022 262.247C370.912 262.415 370.796 262.581 370.674 262.743C370.553 262.905 370.427 263.064 370.295 263.219C370.163 263.375 370.026 263.526 369.884 263.674C369.742 263.822 369.596 263.966 369.445 264.106C369.293 264.247 369.137 264.384 368.977 264.516C368.817 264.648 368.653 264.775 368.483 264.899C368.314 265.022 368.142 265.141 367.966 265.255C367.789 265.369 367.609 265.478 367.425 265.583C367.241 265.687 367.054 265.787 366.864 265.882C366.673 265.976 366.48 266.066 366.284 266.15C366.088 266.234 365.889 266.314 365.688 266.388C365.486 266.461 365.282 266.529 365.076 266.593C364.87 266.655 364.662 266.713 364.453 266.765C364.242 266.817 364.031 266.863 363.818 266.904C363.606 266.945 363.392 266.98 363.176 267.009C362.962 267.038 362.746 267.062 362.529 267.08C362.312 267.098 362.095 267.11 361.878 267.117C361.66 267.123 361.442 267.123 361.225 267.118C361.007 267.113 360.79 267.103 360.574 267.086C360.357 267.069 360.141 267.047 359.925 267.018C359.71 266.99 359.495 266.957 359.282 266.917C359.069 266.877 358.857 266.832 358.648 266.781C358.437 266.731 358.229 266.674 358.022 266.612L203.27 220.268C202.707 220.099 202.132 219.972 201.546 219.887C200.96 219.802 200.37 219.759 199.776 219.759C199.182 219.759 198.592 219.802 198.006 219.887C197.42 219.973 196.845 220.1 196.282 220.269L41.5369 266.636C41.3304 266.698 41.1222 266.754 40.912 266.805C40.7019 266.855 40.4902 266.901 40.2771 266.941C40.064 266.98 39.8498 267.014 39.6344 267.042C39.4191 267.071 39.203 267.093 38.9861 267.11C38.7693 267.127 38.5521 267.137 38.3345 267.142C38.117 267.147 37.8995 267.147 37.6819 267.141C37.4644 267.134 37.2473 267.122 37.0306 267.104C36.8139 267.086 36.5979 267.062 36.3828 267.033C36.1676 267.004 35.9536 266.969 35.7408 266.928C35.5279 266.888 35.3166 266.841 35.1068 266.789C34.897 266.737 34.6891 266.68 34.4831 266.617C34.2771 266.554 34.0734 266.485 33.8719 266.411C33.6704 266.338 33.4715 266.259 33.2753 266.174C33.079 266.09 32.8857 266.001 32.6953 265.906C32.5049 265.812 32.3178 265.712 32.134 265.607C31.9502 265.503 31.77 265.393 31.5934 265.28C31.4168 265.166 31.2441 265.047 31.0754 264.924C30.9066 264.8 30.7421 264.673 30.5817 264.541C30.4214 264.409 30.2655 264.272 30.1142 264.132C29.9628 263.992 29.8162 263.848 29.6743 263.7C29.5325 263.552 29.3956 263.4 29.2638 263.245C29.1319 263.089 29.0053 262.931 28.8839 262.769C28.7626 262.606 28.6466 262.441 28.5361 262.273C28.4256 262.105 28.3208 261.934 28.2216 261.76C28.1224 261.586 28.029 261.409 27.9414 261.231C27.8538 261.052 27.7722 260.871 27.6966 260.689C27.6209 260.505 27.5514 260.32 27.4879 260.134C27.4245 259.947 27.3672 259.759 27.3162 259.569C27.2651 259.379 27.2204 259.188 27.182 258.996C27.1435 258.804 27.1115 258.611 27.0858 258.417C27.0601 258.223 27.0408 258.029 27.0279 257.834C27.015 257.639 27.0086 257.443 27.0085 257.248L27.0044 200.874C27.0044 200.616 27.0155 200.359 27.0379 200.102C27.0603 199.846 27.0937 199.59 27.1384 199.336C27.183 199.081 27.2386 198.829 27.3052 198.578C27.3717 198.327 27.4491 198.079 27.5373 197.834C27.6254 197.589 27.7241 197.347 27.8333 197.109C27.9425 196.871 28.0619 196.637 28.1914 196.407C28.321 196.177 28.4603 195.952 28.6095 195.732C28.7586 195.512 28.9171 195.297 29.0849 195.088C29.2527 194.879 29.4294 194.676 29.6148 194.48C29.8003 194.283 29.994 194.093 30.196 193.91C30.398 193.727 30.6076 193.551 30.8249 193.383C31.0422 193.214 31.2665 193.054 31.4977 192.901C31.729 192.749 31.9665 192.604 32.2103 192.468C32.4542 192.332 32.7035 192.205 32.9584 192.086C33.2133 191.968 33.473 191.858 33.7374 191.758C34.0018 191.657 34.2702 191.566 34.5426 191.485Z" fill="#FF8A8A"/>
<g filter="url(#filter0_d_29_18)">
<path fill-rule="evenodd" clip-rule="evenodd" d="M196.833 142.523L35.0998 190.984C34.8275 191.066 34.5591 191.157 34.2947 191.257C34.0302 191.358 33.7706 191.467 33.5157 191.586C33.2608 191.705 33.0114 191.832 32.7676 191.968C32.5238 192.104 32.2862 192.248 32.055 192.401C31.8237 192.554 31.5995 192.714 31.3822 192.883C31.1649 193.051 30.9553 193.227 30.7533 193.41C30.5513 193.593 30.3576 193.783 30.1721 193.98C29.9866 194.176 29.81 194.379 29.6422 194.588C29.4743 194.797 29.3159 195.012 29.1667 195.232C29.0176 195.452 28.8782 195.677 28.7487 195.907C28.6191 196.137 28.4997 196.371 28.3905 196.609C28.2814 196.847 28.1827 197.089 28.0945 197.334C28.0064 197.579 27.929 197.827 27.8624 198.078C27.7958 198.328 27.7402 198.581 27.6956 198.835C27.651 199.09 27.6175 199.345 27.5951 199.602C27.5728 199.859 27.5616 200.116 27.5616 200.374L27.5658 256.748C27.5658 256.943 27.5723 257.138 27.5851 257.333C27.598 257.528 27.6173 257.723 27.643 257.917C27.6687 258.11 27.7008 258.303 27.7392 258.496C27.7777 258.688 27.8224 258.879 27.8734 259.069C27.9245 259.258 27.9817 259.447 28.0452 259.633C28.1086 259.82 28.1782 260.005 28.2538 260.188C28.3295 260.371 28.4111 260.552 28.4987 260.731C28.5863 260.91 28.6796 261.086 28.7789 261.26C28.8781 261.433 28.9829 261.604 29.0934 261.773C29.2039 261.941 29.3198 262.106 29.4412 262.268C29.5626 262.43 29.6892 262.589 29.821 262.744C29.9529 262.9 30.0897 263.051 30.2316 263.199C30.3735 263.347 30.5201 263.492 30.6714 263.632C30.8228 263.772 30.9787 263.908 31.139 264.04C31.2993 264.172 31.4639 264.3 31.6327 264.423C31.8014 264.546 31.9741 264.665 32.1507 264.779C32.3273 264.893 32.5075 265.003 32.6913 265.107C32.8751 265.212 33.0622 265.311 33.2525 265.406C33.4429 265.501 33.6362 265.59 33.8325 265.674C34.0288 265.759 34.2277 265.838 34.4292 265.912C34.6306 265.985 34.8344 266.054 35.0404 266.117C35.2464 266.18 35.4543 266.237 35.6641 266.289C35.8739 266.341 36.0852 266.387 36.298 266.428C36.5109 266.469 36.7249 266.504 36.94 266.533C37.1552 266.563 37.3711 266.586 37.5878 266.604C37.8046 266.622 38.0217 266.634 38.2392 266.64C38.4567 266.647 38.6742 266.647 38.8918 266.642C39.1094 266.637 39.3266 266.626 39.5434 266.609C39.7602 266.593 39.9763 266.57 40.1917 266.542C40.407 266.514 40.6212 266.48 40.8344 266.44C41.0475 266.401 41.2591 266.356 41.4693 266.305C41.6794 266.254 41.8877 266.198 42.0941 266.136L196.839 219.768C197.402 219.6 197.977 219.473 198.563 219.387C199.149 219.302 199.739 219.259 200.333 219.259C200.927 219.259 201.517 219.301 202.103 219.387C202.69 219.472 203.264 219.599 203.828 219.768L358.58 266.113C358.786 266.174 358.995 266.231 359.205 266.281C359.414 266.332 359.626 266.377 359.839 266.417C360.052 266.456 360.267 266.49 360.482 266.518C360.698 266.547 360.914 266.569 361.131 266.586C361.347 266.602 361.564 266.613 361.782 266.618C362 266.624 362.217 266.623 362.435 266.617C362.652 266.61 362.869 266.598 363.086 266.58C363.303 266.562 363.519 266.538 363.734 266.509C363.949 266.48 364.163 266.445 364.376 266.404C364.588 266.363 364.8 266.317 365.01 266.265C365.219 266.213 365.427 266.155 365.633 266.092C365.84 266.029 366.044 265.961 366.245 265.887C366.446 265.813 366.645 265.734 366.841 265.65C367.037 265.565 367.231 265.476 367.421 265.381C367.611 265.287 367.798 265.187 367.983 265.082C368.166 264.978 368.346 264.869 368.523 264.754C368.699 264.64 368.872 264.522 369.04 264.398C369.21 264.275 369.374 264.147 369.534 264.015C369.695 263.883 369.851 263.747 370.002 263.607C370.153 263.466 370.299 263.322 370.441 263.174C370.583 263.026 370.72 262.874 370.853 262.719C370.984 262.564 371.11 262.405 371.232 262.243C371.353 262.081 371.469 261.916 371.579 261.747C371.69 261.579 371.795 261.408 371.895 261.234C371.994 261.061 372.087 260.884 372.174 260.705C372.262 260.527 372.343 260.346 372.419 260.163C372.494 259.98 372.564 259.795 372.628 259.608C372.691 259.421 372.748 259.233 372.8 259.043C372.85 258.853 372.895 258.662 372.933 258.47C372.972 258.278 373.004 258.085 373.029 257.891C373.055 257.697 373.074 257.503 373.087 257.308C373.1 257.113 373.106 256.918 373.107 256.723L373.103 200.348C373.103 200.091 373.091 199.834 373.068 199.577C373.046 199.32 373.013 199.064 372.968 198.81C372.923 198.555 372.868 198.303 372.802 198.052C372.735 197.802 372.657 197.554 372.569 197.309C372.481 197.064 372.383 196.822 372.273 196.584C372.164 196.345 372.044 196.111 371.914 195.881C371.785 195.652 371.646 195.427 371.496 195.206C371.347 194.986 371.189 194.772 371.021 194.563C370.854 194.354 370.677 194.151 370.491 193.954C370.305 193.758 370.111 193.568 369.91 193.385C369.708 193.202 369.498 193.026 369.28 192.858C369.063 192.689 368.839 192.529 368.608 192.376C368.377 192.224 368.139 192.079 367.895 191.943C367.651 191.807 367.402 191.68 367.147 191.561C366.892 191.443 366.632 191.333 366.368 191.233C366.104 191.133 365.836 191.042 365.563 190.96L203.822 142.523C203.259 142.354 202.684 142.227 202.097 142.142C201.511 142.056 200.921 142.013 200.327 142.013C199.734 142.013 199.144 142.056 198.557 142.142C197.971 142.227 197.396 142.354 196.833 142.523ZM39.8228 201.167L200.328 153.073L360.842 201.143L360.846 255.194L207.71 209.334C202.792 207.861 197.873 207.861 192.955 209.335L39.8268 255.218L39.8228 201.167Z" fill="#FFB6B6"/>
</g>
<path fill-rule="evenodd" clip-rule="evenodd" d="M34.5426 73.4846L196.276 25.0231C196.839 24.8543 197.414 24.7272 198 24.6416C198.586 24.5561 199.176 24.5133 199.77 24.5133C200.364 24.5132 200.954 24.5559 201.54 24.6414C202.127 24.7268 202.701 24.8539 203.265 25.0226L365.006 73.4602C365.278 73.5417 365.547 73.6327 365.81 73.7331C366.075 73.8334 366.335 73.9429 366.589 74.0614C366.844 74.18 367.094 74.3073 367.337 74.4433C367.582 74.5793 367.82 74.7236 368.051 74.8763C368.282 75.029 368.506 75.1895 368.723 75.3578C368.941 75.5262 369.151 75.702 369.353 75.885C369.554 76.0681 369.748 76.2579 369.934 76.4546C370.119 76.6511 370.296 76.854 370.464 77.063C370.631 77.272 370.79 77.4866 370.939 77.7067C371.088 77.9267 371.228 78.1517 371.357 78.3816C371.487 78.6115 371.607 78.8455 371.716 79.0837C371.825 79.322 371.924 79.5637 372.012 79.8088C372.1 80.054 372.178 80.3019 372.245 80.5524C372.311 80.803 372.366 81.0555 372.411 81.31C372.455 81.5644 372.489 81.8201 372.511 82.0769C372.534 82.3337 372.546 82.5909 372.546 82.8486L372.55 139.222C372.549 139.418 372.542 139.613 372.53 139.808C372.517 140.003 372.498 140.197 372.472 140.391C372.447 140.585 372.415 140.778 372.376 140.97C372.337 141.162 372.293 141.353 372.242 141.543C372.191 141.733 372.134 141.922 372.071 142.108C372.007 142.295 371.937 142.48 371.862 142.663C371.787 142.846 371.705 143.027 371.617 143.205C371.53 143.384 371.436 143.56 371.337 143.734C371.238 143.908 371.133 144.079 371.022 144.247C370.912 144.415 370.796 144.581 370.674 144.743C370.553 144.905 370.427 145.064 370.295 145.219C370.163 145.375 370.026 145.526 369.884 145.674C369.742 145.822 369.596 145.966 369.445 146.106C369.293 146.247 369.137 146.384 368.977 146.516C368.817 146.648 368.653 146.775 368.483 146.899C368.314 147.022 368.142 147.141 367.966 147.255C367.789 147.369 367.609 147.478 367.425 147.583C367.241 147.687 367.054 147.787 366.864 147.882C366.673 147.976 366.48 148.066 366.284 148.15C366.088 148.234 365.889 148.314 365.688 148.388C365.486 148.461 365.282 148.529 365.076 148.593C364.87 148.655 364.662 148.713 364.453 148.765C364.242 148.817 364.031 148.863 363.818 148.904C363.606 148.945 363.392 148.98 363.176 149.009C362.962 149.038 362.746 149.062 362.529 149.08C362.312 149.098 362.095 149.11 361.878 149.117C361.66 149.123 361.442 149.123 361.225 149.118C361.007 149.113 360.79 149.103 360.574 149.086C360.357 149.069 360.141 149.047 359.925 149.018C359.71 148.99 359.495 148.957 359.282 148.917C359.069 148.877 358.857 148.832 358.648 148.781C358.437 148.731 358.229 148.674 358.022 148.612L203.27 102.268C202.707 102.099 202.132 101.972 201.546 101.887C200.96 101.802 200.37 101.759 199.776 101.759C199.182 101.759 198.592 101.802 198.006 101.887C197.42 101.973 196.845 102.1 196.282 102.269L41.5369 148.636C41.3304 148.698 41.1222 148.754 40.912 148.805C40.7019 148.855 40.4902 148.901 40.2771 148.941C40.064 148.98 39.8498 149.014 39.6344 149.042C39.4191 149.071 39.203 149.093 38.9861 149.11C38.7693 149.127 38.5521 149.137 38.3345 149.142C38.117 149.147 37.8995 149.147 37.6819 149.141C37.4644 149.134 37.2473 149.122 37.0306 149.104C36.8139 149.086 36.5979 149.062 36.3828 149.033C36.1676 149.004 35.9536 148.969 35.7408 148.928C35.5279 148.888 35.3166 148.841 35.1068 148.789C34.897 148.737 34.6891 148.68 34.4831 148.617C34.2771 148.554 34.0734 148.485 33.8719 148.411C33.6704 148.338 33.4715 148.259 33.2753 148.174C33.079 148.09 32.8857 148.001 32.6953 147.906C32.5049 147.812 32.3178 147.712 32.134 147.607C31.9502 147.503 31.77 147.393 31.5934 147.28C31.4168 147.166 31.2441 147.047 31.0754 146.924C30.9066 146.8 30.7421 146.673 30.5817 146.541C30.4214 146.409 30.2655 146.272 30.1142 146.132C29.9628 145.992 29.8162 145.848 29.6743 145.7C29.5325 145.552 29.3956 145.4 29.2638 145.245C29.1319 145.089 29.0053 144.931 28.8839 144.769C28.7626 144.606 28.6466 144.441 28.5361 144.273C28.4256 144.105 28.3208 143.934 28.2216 143.76C28.1224 143.586 28.029 143.409 27.9414 143.231C27.8538 143.052 27.7722 142.871 27.6966 142.689C27.6209 142.505 27.5514 142.32 27.4879 142.134C27.4245 141.947 27.3672 141.759 27.3162 141.569C27.2651 141.379 27.2204 141.188 27.182 140.996C27.1435 140.804 27.1115 140.611 27.0858 140.417C27.0601 140.223 27.0408 140.029 27.0279 139.834C27.015 139.639 27.0086 139.443 27.0085 139.248L27.0044 82.874C27.0044 82.6164 27.0155 82.3592 27.0379 82.1024C27.0603 81.8456 27.0937 81.59 27.1384 81.3355C27.183 81.0811 27.2386 80.8285 27.3052 80.5779C27.3717 80.3273 27.4491 80.0794 27.5373 79.8343C27.6254 79.5892 27.7241 79.3475 27.8333 79.1092C27.9425 78.871 28.0619 78.6369 28.1914 78.407C28.321 78.1771 28.4603 77.9521 28.6095 77.7319C28.7586 77.5118 28.9171 77.2973 29.0849 77.0882C29.2527 76.8792 29.4294 76.6764 29.6148 76.4797C29.8003 76.2831 29.994 76.0932 30.196 75.9101C30.398 75.727 30.6076 75.5513 30.8249 75.3829C31.0422 75.2144 31.2665 75.0539 31.4977 74.9012C31.729 74.7485 31.9665 74.6041 32.2103 74.4681C32.4542 74.332 32.7035 74.2047 32.9584 74.0861C33.2133 73.9675 33.473 73.8581 33.7374 73.7576C34.0018 73.6572 34.2702 73.5662 34.5426 73.4846Z" fill="#FF8A8A"/>
<g filter="url(#filter1_d_29_18)">
<path fill-rule="evenodd" clip-rule="evenodd" d="M196.833 24.5231L35.0998 72.9845C34.8275 73.0661 34.5591 73.1571 34.2947 73.2574C34.0302 73.3578 33.7706 73.4674 33.5157 73.586C33.2608 73.7045 33.0114 73.8318 32.7676 73.9679C32.5238 74.1039 32.2862 74.2483 32.055 74.4011C31.8237 74.5538 31.5995 74.7143 31.3822 74.8827C31.1649 75.0511 30.9553 75.2268 30.7533 75.4099C30.5513 75.593 30.3576 75.7828 30.1721 75.9795C29.9866 76.1762 29.81 76.379 29.6422 76.5881C29.4743 76.7971 29.3159 77.0116 29.1667 77.2318C29.0176 77.4519 28.8782 77.6769 28.7487 77.9068C28.6191 78.1367 28.4997 78.3708 28.3905 78.6091C28.2814 78.8473 28.1827 79.089 28.0945 79.3342C28.0064 79.5793 27.929 79.8272 27.8624 80.0778C27.7958 80.3283 27.7402 80.5808 27.6956 80.8353C27.651 81.0898 27.6175 81.3454 27.5951 81.6023C27.5728 81.8591 27.5616 82.1163 27.5616 82.3739L27.5658 138.748C27.5658 138.943 27.5723 139.138 27.5851 139.333C27.598 139.528 27.6173 139.723 27.643 139.917C27.6687 140.11 27.7008 140.303 27.7392 140.496C27.7777 140.688 27.8224 140.879 27.8734 141.069C27.9245 141.258 27.9817 141.447 28.0452 141.633C28.1086 141.82 28.1782 142.005 28.2538 142.188C28.3295 142.371 28.4111 142.552 28.4987 142.731C28.5863 142.91 28.6796 143.086 28.7789 143.26C28.8781 143.433 28.9829 143.604 29.0934 143.773C29.2039 143.941 29.3198 144.106 29.4412 144.268C29.5626 144.43 29.6892 144.589 29.821 144.744C29.9529 144.9 30.0897 145.051 30.2316 145.199C30.3735 145.347 30.5201 145.492 30.6714 145.632C30.8228 145.772 30.9787 145.908 31.139 146.04C31.2993 146.172 31.4639 146.3 31.6327 146.423C31.8014 146.546 31.9741 146.665 32.1507 146.779C32.3273 146.893 32.5075 147.003 32.6913 147.107C32.8751 147.212 33.0622 147.311 33.2525 147.406C33.4429 147.501 33.6362 147.59 33.8325 147.674C34.0288 147.759 34.2277 147.838 34.4292 147.912C34.6306 147.985 34.8344 148.054 35.0404 148.117C35.2464 148.18 35.4543 148.237 35.6641 148.289C35.8739 148.341 36.0852 148.387 36.298 148.428C36.5109 148.469 36.7249 148.504 36.94 148.533C37.1552 148.563 37.3711 148.586 37.5878 148.604C37.8046 148.622 38.0217 148.634 38.2392 148.64C38.4567 148.647 38.6742 148.647 38.8918 148.642C39.1094 148.637 39.3266 148.626 39.5434 148.609C39.7602 148.593 39.9763 148.57 40.1917 148.542C40.407 148.514 40.6212 148.48 40.8344 148.44C41.0475 148.401 41.2591 148.356 41.4693 148.305C41.6794 148.254 41.8877 148.198 42.0941 148.136L196.839 101.768C197.402 101.6 197.977 101.473 198.563 101.387C199.149 101.302 199.739 101.259 200.333 101.259C200.927 101.259 201.517 101.301 202.103 101.387C202.69 101.472 203.264 101.599 203.828 101.768L358.58 148.113C358.786 148.174 358.995 148.231 359.205 148.281C359.414 148.332 359.626 148.377 359.839 148.417C360.052 148.456 360.267 148.49 360.482 148.518C360.698 148.547 360.914 148.569 361.131 148.586C361.347 148.602 361.564 148.613 361.782 148.618C362 148.624 362.217 148.623 362.435 148.617C362.652 148.61 362.869 148.598 363.086 148.58C363.303 148.562 363.519 148.538 363.734 148.509C363.949 148.48 364.163 148.445 364.376 148.404C364.588 148.363 364.8 148.317 365.01 148.265C365.219 148.213 365.427 148.155 365.633 148.092C365.84 148.029 366.044 147.961 366.245 147.887C366.446 147.813 366.645 147.734 366.841 147.65C367.037 147.565 367.231 147.476 367.421 147.381C367.611 147.287 367.798 147.187 367.983 147.082C368.166 146.978 368.346 146.869 368.523 146.754C368.699 146.64 368.872 146.522 369.04 146.398C369.21 146.275 369.374 146.147 369.534 146.015C369.695 145.883 369.851 145.747 370.002 145.607C370.153 145.466 370.299 145.322 370.441 145.174C370.583 145.026 370.72 144.874 370.853 144.719C370.984 144.564 371.11 144.405 371.232 144.243C371.353 144.081 371.469 143.916 371.579 143.747C371.69 143.579 371.795 143.408 371.895 143.234C371.994 143.061 372.087 142.884 372.174 142.705C372.262 142.527 372.343 142.346 372.419 142.163C372.494 141.98 372.564 141.795 372.628 141.608C372.691 141.421 372.748 141.233 372.8 141.043C372.85 140.853 372.895 140.662 372.933 140.47C372.972 140.278 373.004 140.085 373.029 139.891C373.055 139.697 373.074 139.503 373.087 139.308C373.1 139.113 373.106 138.918 373.107 138.723L373.103 82.3483C373.103 82.0907 373.091 81.8335 373.068 81.5767C373.046 81.3199 373.013 81.0643 372.968 80.8098C372.923 80.5554 372.868 80.3028 372.802 80.0523C372.735 79.8017 372.657 79.5538 372.569 79.3087C372.481 79.0635 372.383 78.8219 372.273 78.5836C372.164 78.3453 372.044 78.1113 371.914 77.8814C371.785 77.6516 371.646 77.4266 371.496 77.2064C371.347 76.9863 371.189 76.7718 371.021 76.5628C370.854 76.3538 370.677 76.151 370.491 75.9543C370.305 75.7577 370.111 75.5679 369.91 75.3849C369.708 75.2018 369.498 75.0261 369.28 74.8577C369.063 74.6893 368.839 74.5288 368.608 74.3762C368.377 74.2235 368.139 74.0792 367.895 73.9431C367.651 73.8071 367.402 73.6799 367.147 73.5613C366.892 73.4427 366.632 73.3332 366.368 73.2329C366.104 73.1325 365.836 73.0416 365.563 72.96L203.822 24.5226C203.259 24.3539 202.684 24.227 202.097 24.1417C201.511 24.0557 200.921 24.0128 200.327 24.0128C199.734 24.0129 199.144 24.0559 198.557 24.142C197.971 24.2273 197.396 24.3544 196.833 24.5231ZM39.8228 83.1665L200.328 35.0728L360.842 83.1427L360.846 137.194L207.71 91.334C202.792 89.8609 197.873 89.8613 192.955 91.3351L39.8268 137.218L39.8228 83.1665Z" fill="#FFB6B6"/>
</g>
<defs>
<filter id="filter0_d_29_18" x="24.5616" y="139.013" width="351.546" height="130.633" filterUnits="userSpaceOnUse" color-interpolation-filters="sRGB">
<feFlood flood-opacity="0" result="BackgroundImageFix"/>
<feColorMatrix in="SourceAlpha" type="matrix" values="0 0 0 0 0 0 0 0 0 0 0 0 0 0 0 0 0 0 127 0" result="hardAlpha"/>
<feOffset/>
<feGaussianBlur stdDeviation="1.5"/>
<feColorMatrix type="matrix" values="0 0 0 0 1 0 0 0 0 1 0 0 0 0 1 0 0 0 0.729 0"/>
<feBlend mode="normal" in2="BackgroundImageFix" result="effect1_dropShadow_29_18"/>
<feBlend mode="normal" in="SourceGraphic" in2="effect1_dropShadow_29_18" result="shape"/>
</filter>
<filter id="filter1_d_29_18" x="24.5616" y="21.0128" width="351.546" height="130.633" filterUnits="userSpaceOnUse" color-interpolation-filters="sRGB">
<feFlood flood-opacity="0" result="BackgroundImageFix"/>
<feColorMatrix in="SourceAlpha" type="matrix" values="0 0 0 0 0 0 0 0 0 0 0 0 0 0 0 0 0 0 127 0" result="hardAlpha"/>
<feOffset/>
<feGaussianBlur stdDeviation="1.5"/>
<feColorMatrix type="matrix" values="0 0 0 0 1 0 0 0 0 1 0 0 0 0 1 0 0 0 0.729 0"/>
<feBlend mode="normal" in2="BackgroundImageFix" result="effect1_dropShadow_29_18"/>
<feBlend mode="normal" in="SourceGraphic" in2="effect1_dropShadow_29_18" result="shape"/>
</filter>
</defs>
</svg>
