<svg width="100" height="100" viewBox="0 0 100 100" fill="none" xmlns="http://www.w3.org/2000/svg">
<g filter="url(#filter0_d_69_160)">
<path fill-rule="evenodd" clip-rule="evenodd" d="M29.4874 25.1452L36.8449 49.7001C36.8706 49.7856 36.8899 49.8729 36.9029 49.9619C36.9158 50.0509 36.9223 50.1405 36.9223 50.2306C36.9223 50.3208 36.9159 50.4104 36.9029 50.4994C36.8899 50.5884 36.8706 50.6757 36.845 50.7612L29.4911 75.3172C29.4787 75.3587 29.4649 75.3994 29.4496 75.4394C29.4344 75.4796 29.4178 75.519 29.3998 75.5577C29.3818 75.5964 29.3624 75.6343 29.3418 75.6713C29.3211 75.7084 29.2992 75.7445 29.2761 75.7796C29.2529 75.8147 29.2285 75.8487 29.2029 75.8816C29.1774 75.9147 29.1507 75.9466 29.1229 75.9773C29.0951 76.0078 29.0663 76.0372 29.0364 76.0654C29.0066 76.0937 28.9758 76.1205 28.9441 76.146C28.9123 76.1714 28.8798 76.1954 28.8463 76.2181C28.8129 76.2408 28.7788 76.2619 28.7439 76.2816C28.709 76.3013 28.6734 76.3195 28.6373 76.3361C28.6011 76.3527 28.5644 76.3676 28.5272 76.3809C28.49 76.3944 28.4523 76.4061 28.4143 76.4163C28.3762 76.4263 28.3379 76.4348 28.2993 76.4415C28.2606 76.4483 28.2218 76.4534 28.1828 76.4568C28.1439 76.4603 28.1048 76.462 28.0657 76.462L19.5068 76.4627C19.4772 76.4625 19.4475 76.4615 19.4179 76.4596C19.3883 76.4577 19.3588 76.4548 19.3293 76.4508C19.2999 76.447 19.2706 76.4421 19.2414 76.4363C19.2123 76.4304 19.1833 76.4236 19.1544 76.416C19.1256 76.4082 19.097 76.3995 19.0687 76.3899C19.0403 76.3802 19.0122 76.3697 18.9844 76.3583C18.9567 76.3468 18.9292 76.3344 18.9021 76.3211C18.875 76.3077 18.8482 76.2936 18.8218 76.2786C18.7954 76.2635 18.7694 76.2475 18.7439 76.2307C18.7184 76.214 18.6933 76.1964 18.6686 76.1779C18.644 76.1595 18.6199 76.1403 18.5963 76.1204C18.5727 76.1003 18.5497 76.0795 18.5272 76.0579C18.5048 76.0364 18.4829 76.0142 18.4616 75.9913C18.4403 75.9682 18.4196 75.9446 18.3995 75.9202C18.3795 75.8959 18.3601 75.8709 18.3414 75.8452C18.3227 75.8196 18.3046 75.7934 18.2873 75.7667C18.27 75.7399 18.2534 75.7125 18.2375 75.6846C18.2216 75.6567 18.2065 75.6282 18.1921 75.5993C18.1778 75.5705 18.1642 75.5411 18.1514 75.5113C18.1386 75.4816 18.1265 75.4514 18.1153 75.4208C18.1042 75.3902 18.0938 75.3593 18.0842 75.3279C18.0746 75.2967 18.0659 75.2651 18.058 75.2333C18.0501 75.2014 18.0431 75.1693 18.0369 75.137C18.0308 75.1048 18.0254 75.0723 18.021 75.0395C18.0165 75.0069 18.0129 74.9742 18.0102 74.9412C18.0075 74.9083 18.0056 74.8753 18.0046 74.8424C18.0037 74.8093 18.0036 74.7763 18.0044 74.7432C18.0051 74.7102 18.0067 74.6772 18.0093 74.6444C18.0118 74.6115 18.0152 74.5786 18.0196 74.5459C18.0238 74.5132 18.0289 74.4806 18.0349 74.4483C18.041 74.4159 18.0479 74.3838 18.0555 74.352C18.0632 74.32 18.0718 74.2884 18.0812 74.257L25.1173 50.762C25.1429 50.6765 25.1622 50.5893 25.1752 50.5002C25.1882 50.4112 25.1947 50.3216 25.1947 50.2315C25.1946 50.1414 25.1882 50.0518 25.1752 49.9628C25.1622 49.8738 25.1429 49.7865 25.1172 49.701L18.0776 26.2071C18.0682 26.1758 18.0597 26.1441 18.052 26.1122C18.0443 26.0803 18.0374 26.0482 18.0313 26.0158C18.0253 25.9835 18.0202 25.951 18.016 25.9183C18.0116 25.8856 18.0082 25.8528 18.0056 25.8198C18.0031 25.7869 18.0015 25.7539 18.0008 25.7209C18 25.6879 18 25.6549 18.0009 25.6218C18.0019 25.5888 18.0038 25.5558 18.0065 25.5229C18.0093 25.49 18.0129 25.4572 18.0173 25.4246C18.0218 25.3919 18.0271 25.3594 18.0332 25.3271C18.0394 25.2948 18.0464 25.2627 18.0543 25.2309C18.0622 25.199 18.0709 25.1674 18.0804 25.1362C18.0901 25.1049 18.1005 25.074 18.1117 25.0434C18.1228 25.0128 18.1348 24.9826 18.1477 24.9528C18.1604 24.923 18.174 24.8936 18.1884 24.8647C18.2027 24.8358 18.2179 24.8074 18.2338 24.7795C18.2497 24.7516 18.2662 24.7243 18.2836 24.6974C18.3009 24.6706 18.3189 24.6444 18.3376 24.6188C18.3563 24.5932 18.3757 24.5682 18.3957 24.5438C18.4158 24.5195 18.4365 24.4958 18.4578 24.4729C18.4791 24.4499 18.5009 24.4276 18.5234 24.4061C18.5459 24.3845 18.5689 24.3638 18.5925 24.3438C18.6161 24.3237 18.6402 24.3045 18.6648 24.2861C18.6894 24.2677 18.7145 24.2501 18.7401 24.2333C18.7656 24.2165 18.7915 24.2006 18.8179 24.1855C18.8444 24.1705 18.8711 24.1563 18.8982 24.143C18.9254 24.1297 18.9528 24.1173 18.9805 24.1058C19.0084 24.0943 19.0365 24.0838 19.0648 24.0741C19.0931 24.0645 19.1217 24.0558 19.1506 24.0481C19.1794 24.0403 19.2084 24.0335 19.2376 24.0277C19.2667 24.0218 19.296 24.017 19.3255 24.0131C19.3549 24.0092 19.3844 24.0062 19.414 24.0043C19.4436 24.0023 19.4733 24.0014 19.5029 24.0014L28.0618 24.0007C28.1009 24.0007 28.14 24.0024 28.179 24.0058C28.2179 24.0092 28.2568 24.0143 28.2954 24.0211C28.334 24.0278 28.3724 24.0363 28.4104 24.0464C28.4485 24.0565 28.4861 24.0682 28.5233 24.0816C28.5605 24.095 28.5972 24.11 28.6334 24.1266C28.6696 24.1431 28.7051 24.1613 28.74 24.1809C28.7749 24.2006 28.8091 24.2218 28.8425 24.2444C28.8759 24.2671 28.9085 24.2911 28.9402 24.3166C28.972 24.3421 29.0028 24.3689 29.0326 24.397C29.0625 24.4252 29.0913 24.4546 29.1191 24.4853C29.1469 24.516 29.1736 24.5478 29.1991 24.5808C29.2247 24.6138 29.2491 24.6478 29.2723 24.6829C29.2955 24.718 29.3174 24.7541 29.338 24.7911C29.3587 24.8281 29.378 24.866 29.396 24.9047C29.414 24.9434 29.4306 24.9828 29.4459 25.023C29.4611 25.0631 29.475 25.1038 29.4874 25.1452Z" fill="#FF8A8A"/>
<path fill-rule="evenodd" clip-rule="evenodd" d="M36.9208 49.7848L29.5633 25.2299C29.5509 25.1886 29.5371 25.1478 29.5218 25.1077C29.5066 25.0675 29.49 25.0281 29.4719 24.9894C29.4539 24.9507 29.4346 24.9128 29.414 24.8758C29.3933 24.8388 29.3714 24.8027 29.3482 24.7676C29.325 24.7325 29.3006 24.6985 29.2751 24.6655C29.2495 24.6325 29.2228 24.6007 29.195 24.57C29.1672 24.5393 29.1384 24.5099 29.1085 24.4818C29.0787 24.4536 29.0479 24.4268 29.0162 24.4013C28.9844 24.3758 28.9518 24.3518 28.9184 24.3291C28.885 24.3065 28.8508 24.2853 28.8159 24.2657C28.781 24.246 28.7455 24.2279 28.7093 24.2113C28.6732 24.1947 28.6365 24.1797 28.5992 24.1663C28.562 24.153 28.5244 24.1412 28.4863 24.1311C28.4483 24.121 28.41 24.1126 28.3713 24.1058C28.3327 24.099 28.2939 24.0939 28.2549 24.0905C28.2159 24.0871 28.1768 24.0854 28.1377 24.0854L19.5788 24.0861C19.5492 24.0861 19.5195 24.0871 19.49 24.089C19.4604 24.091 19.4308 24.0939 19.4014 24.0978C19.372 24.1017 19.3427 24.1066 19.3135 24.1124C19.2843 24.1182 19.2553 24.125 19.2265 24.1328C19.1977 24.1405 19.1691 24.1492 19.1407 24.1588C19.1124 24.1685 19.0843 24.179 19.0565 24.1905C19.0287 24.202 19.0013 24.2144 18.9741 24.2277C18.947 24.241 18.9202 24.2552 18.8938 24.2702C18.8675 24.2853 18.8415 24.3012 18.816 24.318C18.7904 24.3348 18.7653 24.3524 18.7407 24.3708C18.7161 24.3892 18.692 24.4085 18.6685 24.4285C18.6449 24.4485 18.6218 24.4693 18.5994 24.4908C18.5769 24.5123 18.555 24.5346 18.5337 24.5576C18.5124 24.5806 18.4917 24.6042 18.4717 24.6286C18.4516 24.6529 18.4323 24.6779 18.4135 24.7035C18.3948 24.7291 18.3768 24.7554 18.3595 24.7822C18.3422 24.809 18.3256 24.8363 18.3097 24.8642C18.2938 24.8921 18.2787 24.9206 18.2643 24.9495C18.25 24.9784 18.2364 25.0077 18.2236 25.0375C18.2108 25.0673 18.1988 25.0975 18.1876 25.1281C18.1764 25.1587 18.166 25.1896 18.1564 25.2209C18.1469 25.2522 18.1381 25.2837 18.1303 25.3156C18.1224 25.3474 18.1153 25.3795 18.1092 25.4118C18.103 25.4441 18.0977 25.4766 18.0932 25.5093C18.0887 25.542 18.0851 25.5748 18.0824 25.6077C18.0797 25.6406 18.0779 25.6735 18.0769 25.7065C18.0759 25.7396 18.0759 25.7726 18.0766 25.8056C18.0774 25.8387 18.0791 25.8716 18.0816 25.9046C18.0842 25.9375 18.0876 25.9703 18.0919 26.003C18.0961 26.0357 18.1013 26.0682 18.1073 26.1006C18.1133 26.1329 18.1201 26.165 18.1279 26.1969C18.1356 26.2288 18.1441 26.2605 18.1535 26.2918L25.1932 49.7857C25.2188 49.8712 25.2381 49.9585 25.2511 50.0475C25.2641 50.1365 25.2706 50.2261 25.2706 50.3162C25.2706 50.4064 25.2641 50.4959 25.2511 50.585C25.2382 50.674 25.2189 50.7612 25.1933 50.8468L18.1571 74.3417C18.1477 74.3731 18.1391 74.4048 18.1314 74.4367C18.1237 74.4685 18.1169 74.5006 18.1109 74.533C18.1049 74.5654 18.0997 74.5979 18.0954 74.6306C18.0912 74.6633 18.0878 74.6962 18.0852 74.7291C18.0827 74.7619 18.081 74.7949 18.0803 74.8279C18.0795 74.861 18.0796 74.8941 18.0805 74.9271C18.0815 74.9601 18.0834 74.993 18.0861 75.0259C18.0888 75.0589 18.0924 75.0917 18.0969 75.1243C18.1013 75.157 18.1066 75.1895 18.1128 75.2217C18.119 75.254 18.1261 75.2861 18.1339 75.318C18.1418 75.3498 18.1506 75.3814 18.1601 75.4126C18.1697 75.444 18.1801 75.475 18.1913 75.5055C18.2025 75.5361 18.2145 75.5663 18.2273 75.5961C18.2401 75.6258 18.2537 75.6552 18.2681 75.6841C18.2825 75.7129 18.2976 75.7414 18.3135 75.7694C18.3293 75.7972 18.3459 75.8246 18.3633 75.8514C18.3806 75.8782 18.3986 75.9043 18.4173 75.9299C18.4361 75.9557 18.4554 75.9807 18.4755 76.0049C18.4955 76.0293 18.5162 76.053 18.5375 76.076C18.5588 76.0989 18.5807 76.1211 18.6032 76.1427C18.6257 76.1642 18.6487 76.185 18.6723 76.2051C18.6959 76.2251 18.72 76.2442 18.7446 76.2626C18.7692 76.2811 18.7943 76.2987 18.8198 76.3154C18.8453 76.3322 18.8713 76.3482 18.8977 76.3633C18.9241 76.3783 18.9508 76.3925 18.978 76.4058C19.0051 76.4191 19.0326 76.4314 19.0604 76.4428C19.0882 76.4543 19.1163 76.4649 19.1446 76.4746C19.173 76.4842 19.2016 76.4929 19.2304 76.5007C19.2592 76.5084 19.2882 76.5151 19.3174 76.521C19.3465 76.5269 19.3759 76.5317 19.4053 76.5355C19.4347 76.5395 19.4642 76.5424 19.4938 76.5443C19.5234 76.5462 19.553 76.5473 19.5827 76.5474L28.1416 76.5467C28.1807 76.5467 28.2198 76.545 28.2588 76.5415C28.2977 76.5381 28.3366 76.533 28.3752 76.5262C28.4138 76.5195 28.4522 76.5111 28.4902 76.501C28.5283 76.4909 28.5659 76.4791 28.6031 76.4656C28.6403 76.4523 28.677 76.4374 28.7132 76.4208C28.7494 76.4042 28.7849 76.386 28.8198 76.3663C28.8547 76.3467 28.8889 76.3255 28.9223 76.3028C28.9557 76.2801 28.9883 76.2561 29.02 76.2307C29.0517 76.2052 29.0825 76.1784 29.1124 76.1502C29.1422 76.122 29.171 76.0926 29.1988 76.062C29.2266 76.0313 29.2533 75.9994 29.2789 75.9664C29.3044 75.9334 29.3288 75.8994 29.352 75.8643C29.3752 75.8292 29.3971 75.7931 29.4177 75.756C29.4384 75.719 29.4577 75.6811 29.4757 75.6424C29.4937 75.6037 29.5103 75.5643 29.5255 75.5242C29.5408 75.4841 29.5546 75.4434 29.567 75.402L36.9209 50.8459C36.9465 50.7604 36.9658 50.6731 36.9787 50.5841C36.9918 50.4951 36.9983 50.4055 36.9983 50.3153C36.9983 50.2252 36.9918 50.1356 36.9787 50.0466C36.9657 49.9576 36.9465 49.8703 36.9208 49.7848ZM28.0174 25.947L35.3191 50.3155L28.021 74.6852L19.8147 74.6858L26.7774 51.4362C27.001 50.6895 27.001 49.9427 26.7772 49.196L19.8111 25.9476L28.0174 25.947Z" fill="#FFB6B6"/>
</g>
<g filter="url(#filter1_d_69_160)">
<path fill-rule="evenodd" clip-rule="evenodd" d="M47.4933 27.046L54.2141 49.476C54.2376 49.5541 54.2552 49.6338 54.267 49.7151C54.2789 49.7964 54.2848 49.8782 54.2848 49.9606C54.2849 50.0429 54.2789 50.1247 54.2671 50.2061C54.2552 50.2874 54.2376 50.3671 54.2142 50.4452L47.4966 72.8763C47.4853 72.9141 47.4727 72.9513 47.4588 72.9879C47.4449 73.0246 47.4297 73.0606 47.4133 73.0959C47.3968 73.1313 47.3792 73.1659 47.3603 73.1997C47.3414 73.2336 47.3214 73.2665 47.3003 73.2986C47.2791 73.3306 47.2568 73.3617 47.2335 73.3918C47.2101 73.422 47.1857 73.4511 47.1604 73.4792C47.135 73.5071 47.1086 73.5339 47.0814 73.5597C47.0541 73.5855 47.026 73.61 46.997 73.6333C46.968 73.6565 46.9382 73.6784 46.9077 73.6992C46.8772 73.7199 46.846 73.7392 46.8141 73.7571C46.7822 73.7752 46.7498 73.7918 46.7167 73.8069C46.6837 73.8221 46.6502 73.8357 46.6162 73.8479C46.5822 73.8602 46.5478 73.8709 46.5131 73.8802C46.4783 73.8894 46.4433 73.8971 46.408 73.9032C46.3727 73.9094 46.3373 73.9141 46.3016 73.9172C46.266 73.9204 46.2304 73.922 46.1946 73.922L38.3764 73.9225C38.3493 73.9224 38.3223 73.9215 38.2952 73.9198C38.2682 73.918 38.2412 73.9153 38.2143 73.9117C38.1874 73.9082 38.1606 73.9038 38.134 73.8984C38.1074 73.8931 38.0809 73.8869 38.0545 73.8799C38.0282 73.8728 38.0021 73.8649 37.9762 73.8561C37.9503 73.8472 37.9246 73.8376 37.8992 73.8272C37.8739 73.8167 37.8488 73.8054 37.824 73.7932C37.7993 73.781 37.7748 73.7681 37.7507 73.7544C37.7265 73.7406 37.7028 73.726 37.6795 73.7107C37.6562 73.6954 37.6333 73.6793 37.6107 73.6624C37.5883 73.6456 37.5663 73.6281 37.5447 73.6099C37.5232 73.5915 37.5021 73.5725 37.4816 73.5528C37.4611 73.5332 37.4411 73.5129 37.4217 73.4919C37.4022 73.4709 37.3833 73.4493 37.365 73.427C37.3467 73.4049 37.329 73.382 37.3118 73.3585C37.2947 73.3351 37.2783 73.3112 37.2625 73.2868C37.2467 73.2623 37.2315 73.2373 37.217 73.2118C37.2025 73.1863 37.1886 73.1603 37.1755 73.1339C37.1624 73.1076 37.15 73.0808 37.1383 73.0536C37.1266 73.0264 37.1156 72.9988 37.1053 72.9709C37.0951 72.9429 37.0857 72.9146 37.0769 72.886C37.0682 72.8574 37.0602 72.8286 37.053 72.7996C37.0458 72.7704 37.0394 72.7411 37.0337 72.7116C37.0281 72.6821 37.0232 72.6525 37.0192 72.6226C37.0151 72.5928 37.0118 72.5629 37.0093 72.5328C37.0068 72.5027 37.0051 72.4726 37.0042 72.4425C37.0033 72.4123 37.0033 72.3821 37.004 72.3519C37.0047 72.3217 37.0062 72.2916 37.0085 72.2616C37.0108 72.2315 37.0139 72.2015 37.0179 72.1717C37.0218 72.1418 37.0264 72.112 37.0319 72.0825C37.0374 72.0529 37.0437 72.0236 37.0507 71.9945C37.0578 71.9653 37.0656 71.9364 37.0742 71.9078L43.5014 50.446C43.5248 50.3679 43.5424 50.2882 43.5543 50.2068C43.5661 50.1255 43.5721 50.0437 43.572 49.9614C43.572 49.879 43.5661 49.7972 43.5542 49.7159C43.5424 49.6346 43.5248 49.5549 43.5013 49.4768L37.0709 28.016C37.0623 27.9874 37.0545 27.9585 37.0475 27.9293C37.0404 27.9002 37.0342 27.8708 37.0286 27.8413C37.0232 27.8117 37.0185 27.782 37.0146 27.7521C37.0106 27.7223 37.0075 27.6923 37.0052 27.6622C37.0028 27.6322 37.0014 27.602 37.0007 27.5719C37 27.5417 37 27.5115 37.0008 27.4814C37.0018 27.4512 37.0035 27.4211 37.006 27.391C37.0085 27.361 37.0117 27.331 37.0158 27.3012C37.0199 27.2713 37.0247 27.2417 37.0304 27.2121C37.036 27.1826 37.0424 27.1533 37.0496 27.1242C37.0568 27.0951 37.0648 27.0663 37.0735 27.0377C37.0823 27.0092 37.0918 26.9809 37.102 26.953C37.1122 26.925 37.1232 26.8974 37.1349 26.8702C37.1466 26.843 37.1589 26.8162 37.1721 26.7898C37.1852 26.7634 37.199 26.7374 37.2135 26.7119C37.228 26.6865 37.2432 26.6615 37.259 26.637C37.2748 26.6125 37.2913 26.5885 37.3084 26.5651C37.3255 26.5417 37.3432 26.5189 37.3615 26.4967C37.3798 26.4744 37.3987 26.4528 37.4182 26.4318C37.4376 26.4108 37.4576 26.3905 37.4781 26.3708C37.4986 26.3512 37.5197 26.3322 37.5412 26.3139C37.5628 26.2956 37.5848 26.278 37.6072 26.2612C37.6298 26.2444 37.6527 26.2283 37.676 26.213C37.6993 26.1977 37.723 26.1831 37.7472 26.1694C37.7713 26.1556 37.7957 26.1426 37.8205 26.1305C37.8453 26.1183 37.8703 26.107 37.8957 26.0965C37.9211 26.086 37.9468 26.0764 37.9726 26.0676C37.9985 26.0588 38.0247 26.0509 38.051 26.0438C38.0774 26.0367 38.1038 26.0305 38.1305 26.0252C38.1571 26.0198 38.1839 26.0154 38.2108 26.0118C38.2377 26.0083 38.2646 26.0056 38.2916 26.0038C38.3187 26.002 38.3458 26.0011 38.3729 26.0011L46.1911 26.0005C46.2268 26.0005 46.2625 26.0021 46.2981 26.0052C46.3337 26.0083 46.3692 26.0129 46.4045 26.0191C46.4397 26.0253 46.4748 26.033 46.5095 26.0423C46.5443 26.0515 46.5787 26.0622 46.6127 26.0744C46.6466 26.0867 46.6802 26.1004 46.7132 26.1155C46.7463 26.1306 46.7787 26.1472 46.8106 26.1652C46.8425 26.1831 46.8737 26.2025 46.9042 26.2231C46.9347 26.2438 46.9645 26.2658 46.9935 26.2891C47.0225 26.3124 47.0506 26.3369 47.0779 26.3626C47.1052 26.3883 47.1315 26.4152 47.1569 26.4432C47.1823 26.4712 47.2066 26.5003 47.23 26.5304C47.2534 26.5605 47.2756 26.5916 47.2968 26.6237C47.318 26.6558 47.338 26.6887 47.3569 26.7225C47.3757 26.7563 47.3934 26.7909 47.4098 26.8263C47.4263 26.8616 47.4415 26.8976 47.4554 26.9343C47.4693 26.971 47.4819 27.0082 47.4933 27.046Z" fill="#FF8A8A"/>
<path fill-rule="evenodd" clip-rule="evenodd" d="M54.2835 49.5534L47.5626 27.1234C47.5513 27.0856 47.5387 27.0484 47.5248 27.0117C47.5108 26.975 47.4956 26.939 47.4792 26.9037C47.4627 26.8683 47.4451 26.8337 47.4262 26.7999C47.4074 26.7661 47.3873 26.7332 47.3661 26.7011C47.345 26.669 47.3227 26.6379 47.2993 26.6078C47.276 26.5777 47.2516 26.5486 47.2262 26.5206C47.2008 26.4926 47.1745 26.4657 47.1472 26.44C47.12 26.4142 47.0918 26.3897 47.0628 26.3665C47.0339 26.3432 47.0041 26.3212 46.9736 26.3005C46.943 26.2799 46.9118 26.2605 46.88 26.2426C46.8481 26.2246 46.8156 26.208 46.7826 26.1929C46.7495 26.1777 46.716 26.1641 46.682 26.1518C46.648 26.1396 46.6136 26.1289 46.5789 26.1196C46.5441 26.1104 46.5091 26.1027 46.4738 26.0965C46.4385 26.0903 46.4031 26.0857 46.3674 26.0826C46.3318 26.0795 46.2962 26.0779 46.2604 26.0779L38.4422 26.0785C38.4151 26.0785 38.388 26.0794 38.361 26.0812C38.334 26.083 38.307 26.0857 38.2801 26.0892C38.2532 26.0928 38.2265 26.0972 38.1998 26.1026C38.1732 26.1079 38.1467 26.1141 38.1204 26.1212C38.094 26.1283 38.0679 26.1362 38.042 26.145C38.0161 26.1538 37.9905 26.1634 37.9651 26.1739C37.9397 26.1844 37.9146 26.1957 37.8898 26.2079C37.865 26.22 37.8406 26.233 37.8165 26.2467C37.7924 26.2605 37.7687 26.275 37.7453 26.2904C37.722 26.3057 37.6991 26.3218 37.6766 26.3386C37.6542 26.3554 37.6322 26.373 37.6106 26.3913C37.5891 26.4096 37.568 26.4285 37.5475 26.4482C37.527 26.4679 37.507 26.4882 37.4875 26.5092C37.4681 26.5302 37.4492 26.5518 37.4309 26.5741C37.4126 26.5963 37.3949 26.6191 37.3778 26.6425C37.3607 26.6659 37.3442 26.6899 37.3284 26.7144C37.3125 26.7389 37.2974 26.7638 37.2829 26.7893C37.2684 26.8148 37.2546 26.8408 37.2415 26.8672C37.2283 26.8936 37.2159 26.9204 37.2042 26.9476C37.1925 26.9748 37.1816 27.0024 37.1713 27.0304C37.1611 27.0583 37.1516 27.0866 37.1429 27.1151C37.1341 27.1437 37.1262 27.1725 37.119 27.2016C37.1118 27.2307 37.1054 27.26 37.0997 27.2895C37.0941 27.3191 37.0892 27.3487 37.0851 27.3786C37.0811 27.4084 37.0778 27.4384 37.0753 27.4684C37.0728 27.4985 37.0711 27.5286 37.0703 27.5588C37.0694 27.5889 37.0693 27.6191 37.07 27.6493C37.0707 27.6794 37.0722 27.7096 37.0746 27.7396C37.0769 27.7697 37.08 27.7997 37.0839 27.8295C37.0878 27.8594 37.0925 27.8891 37.098 27.9187C37.1035 27.9482 37.1097 27.9776 37.1168 28.0067C37.1238 28.0359 37.1316 28.0647 37.1402 28.0934L43.5707 49.5541C43.5941 49.6323 43.6117 49.712 43.6236 49.7933C43.6355 49.8746 43.6414 49.9564 43.6414 50.0388C43.6414 50.1211 43.6355 50.2029 43.6236 50.2842C43.6118 50.3656 43.5942 50.4453 43.5708 50.5234L37.1435 71.9852C37.1349 72.0138 37.1271 72.0427 37.12 72.0719C37.113 72.101 37.1067 72.1303 37.1013 72.1599C37.0958 72.1894 37.0911 72.2192 37.0872 72.2491C37.0833 72.2789 37.0802 72.3089 37.0779 72.339C37.0755 72.369 37.074 72.3991 37.0733 72.4293C37.0726 72.4595 37.0727 72.4897 37.0736 72.5199C37.0745 72.55 37.0761 72.5801 37.0786 72.6102C37.0811 72.6403 37.0844 72.6702 37.0885 72.7C37.0926 72.7299 37.0974 72.7595 37.1031 72.789C37.1087 72.8185 37.1151 72.8478 37.1224 72.877C37.1296 72.906 37.1375 72.9348 37.1463 72.9634C37.155 72.992 37.1645 73.0203 37.1747 73.0482C37.185 73.0762 37.1959 73.1037 37.2076 73.131C37.2193 73.1582 37.2318 73.1849 37.2449 73.2113C37.258 73.2377 37.2718 73.2637 37.2863 73.2892C37.3008 73.3147 37.316 73.3397 37.3318 73.3642C37.3477 73.3886 37.3641 73.4125 37.3812 73.4359C37.3983 73.4594 37.416 73.4823 37.4343 73.5044C37.4526 73.5267 37.4715 73.5483 37.491 73.5693C37.5104 73.5903 37.5304 73.6106 37.551 73.6302C37.5715 73.6499 37.5926 73.6689 37.6141 73.6873C37.6357 73.7055 37.6577 73.723 37.6801 73.7398C37.7026 73.7567 37.7255 73.7728 37.7489 73.7881C37.7722 73.8034 37.7959 73.818 37.82 73.8318C37.8441 73.8455 37.8686 73.8584 37.8933 73.8706C37.9181 73.8827 37.9432 73.894 37.9686 73.9044C37.994 73.9149 38.0197 73.9246 38.0456 73.9335C38.0715 73.9423 38.0976 73.9502 38.1239 73.9573C38.1502 73.9643 38.1767 73.9705 38.2034 73.9758C38.23 73.9812 38.2568 73.9856 38.2837 73.9891C38.3106 73.9927 38.3375 73.9954 38.3646 73.9972C38.3916 73.9989 38.4186 73.9998 38.4457 73.9999L46.264 73.9994C46.2997 73.9994 46.3354 73.9978 46.371 73.9946C46.4066 73.9915 46.4421 73.9868 46.4773 73.9806C46.5126 73.9744 46.5477 73.9668 46.5824 73.9576C46.6172 73.9483 46.6515 73.9375 46.6855 73.9253C46.7195 73.9131 46.753 73.8995 46.7861 73.8843C46.8191 73.8692 46.8516 73.8526 46.8835 73.8345C46.9154 73.8166 46.9466 73.7973 46.9771 73.7765C47.0076 73.7558 47.0374 73.7339 47.0663 73.7107C47.0953 73.6874 47.1235 73.6629 47.1507 73.6371C47.178 73.6113 47.2043 73.5845 47.2297 73.5566C47.2551 73.5285 47.2795 73.4994 47.3028 73.4692C47.3262 73.4391 47.3484 73.408 47.3696 73.376C47.3908 73.3439 47.4108 73.311 47.4297 73.2771C47.4485 73.2432 47.4662 73.2087 47.4826 73.1733C47.4991 73.138 47.5142 73.102 47.5281 73.0653C47.5421 73.0287 47.5547 72.9915 47.566 72.9536L54.2835 50.5226C54.3069 50.4445 54.3245 50.3648 54.3364 50.2834C54.3483 50.2021 54.3542 50.1203 54.3542 50.038C54.3542 49.9556 54.3483 49.8738 54.3363 49.7925C54.3245 49.7112 54.3069 49.6315 54.2835 49.5534ZM46.1505 27.7784L52.8204 50.0381L46.1538 72.2989L38.6577 72.2995L45.0178 51.0619C45.2221 50.3797 45.222 49.6976 45.0177 49.0155L38.6544 27.7789L46.1505 27.7784Z" fill="#FFB6B6"/>
</g>
<g filter="url(#filter2_d_69_160)">
<path fill-rule="evenodd" clip-rule="evenodd" d="M63.4188 28.939L69.4516 49.0723C69.4726 49.1425 69.4884 49.214 69.499 49.287C69.5097 49.36 69.515 49.4334 69.515 49.5073C69.515 49.5812 69.5097 49.6547 69.4991 49.7277C69.4884 49.8007 69.4726 49.8722 69.4516 49.9423L63.4219 70.0766C63.4117 70.1106 63.4004 70.144 63.3879 70.1768C63.3754 70.2098 63.3618 70.2421 63.347 70.2738C63.3323 70.3055 63.3164 70.3366 63.2995 70.3669C63.2826 70.3974 63.2646 70.427 63.2456 70.4557C63.2266 70.4845 63.2066 70.5124 63.1856 70.5394C63.1647 70.5665 63.1428 70.5926 63.12 70.6178C63.0972 70.6429 63.0736 70.667 63.0491 70.6901C63.0247 70.7132 62.9994 70.7353 62.9734 70.7562C62.9474 70.777 62.9207 70.7967 62.8933 70.8153C62.8659 70.8339 62.8379 70.8512 62.8092 70.8673C62.7806 70.8835 62.7515 70.8984 62.7218 70.912C62.6922 70.9256 62.6621 70.9379 62.6316 70.9488C62.601 70.9598 62.5702 70.9695 62.539 70.9778C62.5078 70.986 62.4764 70.9929 62.4447 70.9985C62.413 71.004 62.3812 71.0082 62.3492 71.011C62.3173 71.0138 62.2852 71.0153 62.2532 71.0153L55.2355 71.0158C55.2112 71.0157 55.1869 71.0149 55.1626 71.0133C55.1383 71.0117 55.1141 71.0093 55.09 71.0061C55.0658 71.0029 55.0418 70.999 55.0179 70.9942C54.994 70.9894 54.9702 70.9838 54.9466 70.9775C54.9229 70.9711 54.8995 70.964 54.8762 70.9562C54.853 70.9482 54.83 70.9396 54.8071 70.9302C54.7844 70.9208 54.7619 70.9106 54.7397 70.8997C54.7174 70.8888 54.6955 70.8772 54.6738 70.8649C54.6522 70.8525 54.6309 70.8394 54.6099 70.8256C54.589 70.8119 54.5685 70.7975 54.5482 70.7823C54.528 70.7672 54.5083 70.7515 54.4889 70.7351C54.4696 70.7187 54.4507 70.7016 54.4323 70.6839C54.4139 70.6663 54.3959 70.6481 54.3785 70.6293C54.361 70.6104 54.344 70.591 54.3276 70.571C54.3112 70.5511 54.2953 70.5306 54.2799 70.5095C54.2646 70.4885 54.2498 70.4671 54.2356 70.4452C54.2214 70.4231 54.2078 70.4007 54.1948 70.3779C54.1817 70.3549 54.1693 70.3316 54.1575 70.3079C54.1457 70.2843 54.1346 70.2602 54.1242 70.2358C54.1136 70.2114 54.1037 70.1866 54.0945 70.1616C54.0854 70.1365 54.0769 70.1111 54.069 70.0854C54.0612 70.0598 54.0541 70.0339 54.0476 70.0078C54.0411 69.9816 54.0353 69.9553 54.0303 69.9289C54.0252 69.9024 54.0209 69.8758 54.0172 69.8489C54.0136 69.8222 54.0106 69.7953 54.0084 69.7683C54.0061 69.7413 54.0046 69.7143 54.0037 69.6873C54.003 69.6602 54.003 69.6331 54.0036 69.606C54.0042 69.5789 54.0055 69.5519 54.0076 69.5249C54.0097 69.4979 54.0125 69.471 54.0161 69.4442C54.0195 69.4174 54.0237 69.3907 54.0286 69.3641C54.0336 69.3376 54.0392 69.3113 54.0455 69.2852C54.0519 69.259 54.0589 69.233 54.0666 69.2073L59.8357 49.9431C59.8567 49.8729 59.8725 49.8014 59.8832 49.7284C59.8938 49.6554 59.8991 49.582 59.8991 49.508C59.8991 49.4341 59.8938 49.3607 59.8831 49.2877C59.8725 49.2147 59.8567 49.1432 59.8357 49.073L54.0637 29.8097C54.0559 29.784 54.0489 29.7581 54.0426 29.7319C54.0363 29.7057 54.0307 29.6794 54.0257 29.6529C54.0208 29.6263 54.0166 29.5997 54.0131 29.5729C54.0095 29.5461 54.0067 29.5192 54.0046 29.4922C54.0026 29.4652 54.0012 29.4381 54.0006 29.411C54 29.384 54 29.3569 54.0008 29.3298C54.0016 29.3027 54.0031 29.2757 54.0054 29.2487C54.0076 29.2217 54.0105 29.1949 54.0142 29.1681C54.0178 29.1413 54.0222 29.1147 54.0273 29.0882C54.0323 29.0617 54.0381 29.0354 54.0446 29.0092C54.051 28.9831 54.0582 28.9572 54.066 28.9316C54.0738 28.906 54.0824 28.8806 54.0916 28.8555C54.1007 28.8304 54.1106 28.8057 54.1211 28.7812C54.1316 28.7568 54.1427 28.7327 54.1545 28.709C54.1662 28.6853 54.1786 28.6621 54.1917 28.6392C54.2047 28.6163 54.2183 28.5939 54.2325 28.5719C54.2467 28.5499 54.2615 28.5284 54.2768 28.5074C54.2922 28.4864 54.308 28.4659 54.3245 28.4459C54.3409 28.426 54.3579 28.4066 54.3754 28.3877C54.3928 28.3689 54.4107 28.3506 54.4292 28.333C54.4476 28.3153 54.4665 28.2983 54.4858 28.2819C54.5051 28.2655 54.5249 28.2497 54.5451 28.2346C54.5653 28.2195 54.5859 28.205 54.6068 28.1913C54.6277 28.1775 54.649 28.1645 54.6706 28.1521C54.6923 28.1398 54.7143 28.1282 54.7365 28.1173C54.7587 28.1064 54.7812 28.0962 54.804 28.0868C54.8268 28.0774 54.8498 28.0687 54.8731 28.0608C54.8963 28.0529 54.9197 28.0458 54.9434 28.0394C54.967 28.0331 54.9908 28.0275 55.0147 28.0227C55.0386 28.0179 55.0626 28.0139 55.0868 28.0107C55.1109 28.0075 55.1351 28.0051 55.1594 28.0035C55.1837 28.0019 55.208 28.0011 55.2323 28.0011L62.25 28.0006C62.2821 28.0006 62.3141 28.002 62.346 28.0048C62.378 28.0076 62.4098 28.0117 62.4415 28.0173C62.4732 28.0228 62.5046 28.0298 62.5358 28.0381C62.567 28.0463 62.5979 28.056 62.6284 28.0669C62.6589 28.0779 62.689 28.0902 62.7187 28.1038C62.7483 28.1174 62.7775 28.1323 62.8061 28.1484C62.8347 28.1645 62.8627 28.1819 62.8901 28.2004C62.9175 28.219 62.9442 28.2387 62.9702 28.2596C62.9963 28.2805 63.0215 28.3025 63.046 28.3256C63.0705 28.3487 63.0941 28.3728 63.1169 28.3979C63.1397 28.4231 63.1616 28.4492 63.1825 28.4762C63.2035 28.5033 63.2235 28.5312 63.2425 28.56C63.2615 28.5888 63.2795 28.6183 63.2964 28.6487C63.3133 28.679 63.3292 28.7101 63.344 28.7418C63.3587 28.7735 63.3723 28.8059 63.3848 28.8388C63.3973 28.8717 63.4087 28.9051 63.4188 28.939Z" fill="#FF8A8A"/>
<path fill-rule="evenodd" clip-rule="evenodd" d="M69.5138 49.1417L63.4811 29.0083C63.4709 28.9744 63.4596 28.941 63.4471 28.9081C63.4346 28.8752 63.421 28.8429 63.4062 28.8111C63.3914 28.7794 63.3756 28.7484 63.3587 28.718C63.3417 28.6877 63.3237 28.6581 63.3047 28.6293C63.2857 28.6005 63.2657 28.5726 63.2448 28.5455C63.2238 28.5185 63.2019 28.4924 63.1792 28.4673C63.1564 28.4421 63.1327 28.418 63.1082 28.3949C63.0838 28.3718 63.0585 28.3498 63.0325 28.3289C63.0065 28.3081 62.9798 28.2883 62.9524 28.2698C62.9249 28.2512 62.8969 28.2338 62.8683 28.2177C62.8397 28.2016 62.8106 28.1867 62.7809 28.1731C62.7513 28.1595 62.7212 28.1473 62.6906 28.1363C62.6601 28.1253 62.6293 28.1157 62.5981 28.1074C62.5669 28.0991 62.5354 28.0922 62.5038 28.0866C62.4721 28.0811 62.4403 28.0769 62.4083 28.0741C62.3763 28.0713 62.3443 28.0699 62.3122 28.0699L55.2945 28.0705C55.2702 28.0705 55.2459 28.0713 55.2217 28.0729C55.1974 28.0745 55.1732 28.0769 55.1491 28.0801C55.1249 28.0833 55.1009 28.0873 55.077 28.0921C55.053 28.0968 55.0293 28.1024 55.0056 28.1088C54.982 28.1151 54.9586 28.1222 54.9353 28.1301C54.9121 28.138 54.8891 28.1467 54.8663 28.1561C54.8435 28.1655 54.821 28.1757 54.7987 28.1866C54.7765 28.1975 54.7545 28.2091 54.7329 28.2215C54.7113 28.2338 54.69 28.2469 54.669 28.2606C54.6481 28.2744 54.6275 28.2888 54.6074 28.3039C54.5872 28.319 54.5674 28.3348 54.5481 28.3512C54.5288 28.3676 54.5099 28.3847 54.4914 28.4023C54.473 28.42 54.4551 28.4382 54.4376 28.4571C54.4201 28.4759 54.4032 28.4953 54.3867 28.5153C54.3703 28.5352 54.3544 28.5557 54.3391 28.5767C54.3237 28.5977 54.309 28.6192 54.2947 28.6412C54.2805 28.6632 54.2669 28.6856 54.2539 28.7085C54.2409 28.7314 54.2285 28.7547 54.2167 28.7784C54.205 28.8021 54.1938 28.8261 54.1833 28.8506C54.1728 28.875 54.163 28.8998 54.1538 28.9249C54.1446 28.9499 54.1361 28.9753 54.1282 29.0009C54.1204 29.0266 54.1133 29.0525 54.1068 29.0786C54.1003 29.1047 54.0946 29.131 54.0895 29.1575C54.0844 29.184 54.0801 29.2106 54.0764 29.2374C54.0728 29.2642 54.0698 29.2911 54.0676 29.3181C54.0654 29.345 54.0638 29.3721 54.0631 29.3991C54.0623 29.4262 54.0622 29.4533 54.0628 29.4804C54.0635 29.5075 54.0648 29.5345 54.0669 29.5615C54.069 29.5885 54.0718 29.6154 54.0753 29.6422C54.0788 29.669 54.083 29.6957 54.088 29.7222C54.0929 29.7487 54.0985 29.7751 54.1048 29.8012C54.1112 29.8274 54.1182 29.8533 54.1259 29.879L59.8979 49.1424C59.9189 49.2125 59.9347 49.2841 59.9454 49.357C59.956 49.43 59.9614 49.5035 59.9614 49.5774C59.9614 49.6513 59.9561 49.7247 59.9454 49.7977C59.9348 49.8707 59.919 49.9423 59.898 50.0124L54.1288 69.2767C54.1211 69.3024 54.1141 69.3283 54.1078 69.3545C54.1014 69.3806 54.0958 69.4069 54.0909 69.4335C54.086 69.46 54.0818 69.4867 54.0783 69.5135C54.0748 69.5404 54.072 69.5673 54.0699 69.5943C54.0678 69.6212 54.0664 69.6482 54.0658 69.6753C54.0652 69.7024 54.0652 69.7295 54.066 69.7566C54.0668 69.7836 54.0683 69.8106 54.0706 69.8377C54.0728 69.8647 54.0758 69.8915 54.0794 69.9183C54.0831 69.9451 54.0874 69.9717 54.0925 69.9982C54.0976 70.0247 54.1034 70.051 54.1098 70.0771C54.1163 70.1032 54.1234 70.1291 54.1313 70.1547C54.1391 70.1804 54.1476 70.2058 54.1568 70.2309C54.166 70.256 54.1759 70.2807 54.1864 70.3051C54.1969 70.3295 54.208 70.3536 54.2198 70.3773C54.2316 70.401 54.244 70.4243 54.257 70.4472C54.27 70.4701 54.2836 70.4925 54.2978 70.5145C54.312 70.5364 54.3268 70.5579 54.3422 70.5789C54.3575 70.6 54.3734 70.6205 54.3899 70.6403C54.4063 70.6603 54.4232 70.6797 54.4407 70.6986C54.4582 70.7174 54.4761 70.7356 54.4946 70.7533C54.513 70.771 54.5319 70.788 54.5512 70.8045C54.5706 70.8209 54.5903 70.8366 54.6105 70.8517C54.6307 70.8668 54.6512 70.8813 54.6722 70.8949C54.6931 70.9087 54.7144 70.9218 54.736 70.9342C54.7577 70.9465 54.7796 70.9581 54.8019 70.969C54.8241 70.9799 54.8466 70.9901 54.8694 70.9994C54.8922 71.0088 54.9152 71.0175 54.9385 71.0255C54.9617 71.0334 54.9852 71.0405 55.0088 71.0469C55.0324 71.0531 55.0562 71.0587 55.0801 71.0635C55.1041 71.0683 55.1281 71.0723 55.1522 71.0754C55.1764 71.0787 55.2006 71.0811 55.2248 71.0826C55.2491 71.0842 55.2734 71.085 55.2977 71.0851L62.3154 71.0846C62.3475 71.0846 62.3795 71.0832 62.4115 71.0803C62.4434 71.0775 62.4753 71.0734 62.5069 71.0678C62.5386 71.0623 62.5701 71.0554 62.6012 71.0471C62.6324 71.0388 62.6633 71.0291 62.6938 71.0181C62.7243 71.0072 62.7544 70.9949 62.7841 70.9813C62.8137 70.9677 62.8429 70.9528 62.8715 70.9367C62.9001 70.9206 62.9281 70.9032 62.9555 70.8846C62.9829 70.866 63.0096 70.8463 63.0356 70.8255C63.0616 70.8046 63.0869 70.7826 63.1114 70.7594C63.1359 70.7363 63.1595 70.7122 63.1823 70.6871C63.2051 70.662 63.2269 70.6358 63.2479 70.6087C63.2689 70.5817 63.2888 70.5538 63.3078 70.5251C63.3268 70.4963 63.3448 70.4667 63.3617 70.4363C63.3787 70.4059 63.3945 70.3749 63.4093 70.3431C63.424 70.3114 63.4377 70.2791 63.4502 70.2462C63.4626 70.2133 63.474 70.1799 63.4841 70.146L69.5139 50.0117C69.5348 49.9416 69.5506 49.87 69.5613 49.797C69.572 49.724 69.5773 49.6506 69.5773 49.5767C69.5773 49.5028 69.5719 49.4293 69.5612 49.3563C69.5506 49.2833 69.5348 49.2118 69.5138 49.1417ZM62.2136 29.5963L68.2005 49.5768L62.2165 69.5583L55.4879 69.5588L61.1968 50.4957C61.3802 49.8834 61.3802 49.2711 61.1967 48.6589L55.485 29.5968L62.2136 29.5963Z" fill="#FFB6B6"/>
</g>
<g filter="url(#filter3_d_69_160)">
<path fill-rule="evenodd" clip-rule="evenodd" d="M77.3252 31.8299L82.6574 49.6254C82.6759 49.6874 82.6899 49.7506 82.6993 49.8151C82.7088 49.8796 82.7135 49.9445 82.7135 50.0099C82.7135 50.0752 82.7088 50.1401 82.6994 50.2046C82.69 50.2691 82.676 50.3324 82.6574 50.3944L77.3278 68.1907C77.3189 68.2207 77.3089 68.2503 77.2978 68.2793C77.2868 68.3084 77.2747 68.337 77.2617 68.365C77.2486 68.3931 77.2346 68.4205 77.2197 68.4473C77.2047 68.4742 77.1888 68.5004 77.172 68.5258C77.1552 68.5512 77.1376 68.5759 77.119 68.5998C77.1005 68.6237 77.0812 68.6468 77.061 68.6691C77.0409 68.6912 77.02 68.7125 76.9984 68.733C76.9767 68.7534 76.9544 68.7729 76.9314 68.7913C76.9084 68.8097 76.8848 68.8272 76.8606 68.8436C76.8364 68.86 76.8116 68.8754 76.7863 68.8896C76.761 68.9039 76.7353 68.9171 76.7091 68.9291C76.6829 68.9411 76.6563 68.9519 76.6293 68.9616C76.6023 68.9713 76.575 68.9799 76.5475 68.9872C76.5199 68.9945 76.4921 69.0006 76.4641 69.0055C76.4361 69.0104 76.408 69.0141 76.3797 69.0166C76.3515 69.0191 76.3232 69.0204 76.2948 69.0204L70.092 69.0208C70.0705 69.0207 70.0491 69.02 70.0276 69.0186C70.0061 69.0172 69.9848 69.0151 69.9634 69.0123C69.9421 69.0095 69.9208 69.006 69.8997 69.0017C69.8786 68.9975 69.8576 68.9926 69.8367 68.987C69.8157 68.9814 69.795 68.9751 69.7745 68.9681C69.7539 68.9611 69.7336 68.9534 69.7134 68.9452C69.6933 68.9368 69.6734 68.9279 69.6538 68.9182C69.6341 68.9086 69.6147 68.8983 69.5956 68.8874C69.5764 68.8765 69.5576 68.8649 69.5391 68.8527C69.5206 68.8406 69.5024 68.8279 69.4845 68.8145C69.4667 68.8011 69.4493 68.7872 69.4322 68.7728C69.4151 68.7582 69.3984 68.7431 69.3821 68.7275C69.3658 68.7119 69.35 68.6958 69.3346 68.6792C69.3191 68.6625 69.3041 68.6453 69.2896 68.6277C69.275 68.6101 69.261 68.592 69.2474 68.5734C69.2338 68.5548 69.2208 68.5358 69.2082 68.5165C69.1957 68.497 69.1837 68.4772 69.1721 68.457C69.1606 68.4367 69.1497 68.4161 69.1392 68.3952C69.1288 68.3742 69.119 68.353 69.1097 68.3314C69.1004 68.3098 69.0917 68.2879 69.0836 68.2658C69.0755 68.2436 69.068 68.2212 69.061 68.1985C69.0541 68.1758 69.0478 68.1529 69.0421 68.1299C69.0363 68.1068 69.0312 68.0835 69.0268 68.0601C69.0223 68.0367 69.0184 68.0132 69.0152 67.9895C69.012 67.9658 69.0094 67.9421 69.0074 67.9182C69.0054 67.8943 69.004 67.8705 69.0033 67.8466C69.0027 67.8226 69.0026 67.7987 69.0032 67.7747C69.0037 67.7508 69.0049 67.7269 69.0067 67.7031C69.0085 67.6792 69.011 67.6554 69.0142 67.6317C69.0173 67.608 69.021 67.5844 69.0253 67.5609C69.0297 67.5375 69.0347 67.5142 69.0403 67.4912C69.0458 67.468 69.052 67.4451 69.0588 67.4224L74.1581 50.395C74.1767 50.333 74.1906 50.2698 74.2 50.2053C74.2094 50.1407 74.2141 50.0758 74.2141 50.0105C74.2141 49.9452 74.2094 49.8802 74.2 49.8157C74.1906 49.7512 74.1766 49.688 74.158 49.626L69.0563 32.5994C69.0494 32.5767 69.0432 32.5538 69.0377 32.5307C69.0321 32.5076 69.0271 32.4843 69.0227 32.4608C69.0184 32.4374 69.0147 32.4138 69.0116 32.3901C69.0084 32.3664 69.0059 32.3427 69.0041 32.3188C69.0023 32.2949 69.0011 32.271 69.0006 32.2471C69 32.2232 69 32.1992 69.0007 32.1753C69.0014 32.1514 69.0028 32.1275 69.0047 32.1036C69.0067 32.0798 69.0093 32.056 69.0125 32.0323C69.0158 32.0087 69.0196 31.9851 69.0241 31.9617C69.0286 31.9383 69.0337 31.915 69.0394 31.8919C69.0451 31.8689 69.0514 31.846 69.0583 31.8233C69.0653 31.8007 69.0728 31.7782 69.081 31.7561C69.089 31.7339 69.0977 31.712 69.107 31.6904C69.1163 31.6688 69.1261 31.6476 69.1365 31.6266C69.1469 31.6057 69.1579 31.5851 69.1694 31.5649C69.1809 31.5446 69.193 31.5248 69.2055 31.5054C69.218 31.4859 69.2311 31.4669 69.2447 31.4484C69.2582 31.4298 69.2723 31.4117 69.2868 31.3941C69.3013 31.3764 69.3163 31.3593 69.3318 31.3426C69.3472 31.326 69.363 31.3098 69.3793 31.2942C69.3956 31.2786 69.4123 31.2635 69.4294 31.249C69.4465 31.2345 69.4639 31.2206 69.4818 31.2072C69.4997 31.1939 69.5178 31.1811 69.5363 31.169C69.5548 31.1568 69.5736 31.1453 69.5928 31.1344C69.6119 31.1235 69.6313 31.1132 69.651 31.1035C69.6706 31.0939 69.6905 31.0849 69.7106 31.0766C69.7308 31.0683 69.7511 31.0606 69.7717 31.0536C69.7922 31.0467 69.8129 31.0404 69.8338 31.0347C69.8547 31.0291 69.8758 31.0242 69.8969 31.02C69.918 31.0157 69.9393 31.0122 69.9606 31.0094C69.9819 31.0066 70.0033 31.0044 70.0247 31.003C70.0462 31.0016 70.0677 31.0009 70.0892 31.0009L76.292 31.0004C76.3204 31.0004 76.3487 31.0017 76.3769 31.0041C76.4052 31.0066 76.4333 31.0103 76.4613 31.0152C76.4893 31.0201 76.5171 31.0262 76.5447 31.0335C76.5722 31.0409 76.5995 31.0494 76.6265 31.0591C76.6535 31.0688 76.6801 31.0796 76.7063 31.0916C76.7325 31.1037 76.7582 31.1168 76.7835 31.131C76.8088 31.1453 76.8336 31.1606 76.8578 31.177C76.882 31.1935 76.9056 31.2109 76.9286 31.2294C76.9516 31.2478 76.974 31.2673 76.9956 31.2877C77.0172 31.3081 77.0381 31.3294 77.0583 31.3516C77.0784 31.3738 77.0978 31.3969 77.1163 31.4208C77.1348 31.4447 77.1525 31.4694 77.1693 31.4948C77.1861 31.5203 77.202 31.5464 77.2169 31.5733C77.2319 31.6001 77.2459 31.6275 77.259 31.6556C77.272 31.6836 77.2841 31.7122 77.2951 31.7413C77.3062 31.7704 77.3162 31.7999 77.3252 31.8299Z" fill="#FF8A8A"/>
<path fill-rule="evenodd" clip-rule="evenodd" d="M82.7124 49.6867L77.3802 31.8911C77.3712 31.8612 77.3612 31.8316 77.3501 31.8026C77.3391 31.7735 77.327 31.7449 77.314 31.7168C77.3009 31.6888 77.2869 31.6614 77.272 31.6345C77.257 31.6077 77.2411 31.5816 77.2243 31.5561C77.2075 31.5307 77.1898 31.506 77.1713 31.4821C77.1528 31.4582 77.1334 31.4351 77.1133 31.4129C77.0932 31.3907 77.0723 31.3694 77.0506 31.3489C77.029 31.3285 77.0067 31.3091 76.9837 31.2906C76.9607 31.2722 76.9371 31.2547 76.9128 31.2383C76.8886 31.2219 76.8639 31.2066 76.8386 31.1923C76.8133 31.1781 76.7875 31.1649 76.7613 31.1529C76.7351 31.1409 76.7085 31.1301 76.6815 31.1204C76.6545 31.1107 76.6273 31.1021 76.5997 31.0948C76.5721 31.0875 76.5443 31.0814 76.5163 31.0765C76.4883 31.0715 76.4602 31.0679 76.4319 31.0654C76.4037 31.0629 76.3754 31.0617 76.347 31.0617L70.1442 31.0622C70.1227 31.0622 70.1012 31.0629 70.0798 31.0643C70.0584 31.0657 70.037 31.0678 70.0156 31.0707C69.9943 31.0735 69.9731 31.077 69.9519 31.0813C69.9308 31.0855 69.9098 31.0904 69.8889 31.096C69.868 31.1016 69.8473 31.1079 69.8267 31.1149C69.8062 31.1219 69.7858 31.1296 69.7657 31.1379C69.7455 31.1462 69.7256 31.1552 69.706 31.1648C69.6863 31.1745 69.6669 31.1847 69.6478 31.1956C69.6287 31.2066 69.6099 31.2181 69.5913 31.2303C69.5728 31.2424 69.5547 31.2552 69.5368 31.2685C69.519 31.2819 69.5015 31.2958 69.4844 31.3103C69.4674 31.3248 69.4507 31.3399 69.4344 31.3555C69.4181 31.3711 69.4022 31.3872 69.3868 31.4039C69.3713 31.4205 69.3564 31.4377 69.3418 31.4553C69.3273 31.473 69.3133 31.4911 69.2997 31.5097C69.2861 31.5282 69.2731 31.5472 69.2605 31.5667C69.248 31.5861 69.2359 31.6059 69.2244 31.6261C69.2129 31.6464 69.202 31.6669 69.1916 31.6879C69.1812 31.7088 69.1713 31.7301 69.162 31.7517C69.1528 31.7733 69.1441 31.7952 69.1359 31.8174C69.1278 31.8395 69.1203 31.8619 69.1134 31.8846C69.1064 31.9073 69.1001 31.9301 69.0944 31.9532C69.0887 31.9763 69.0836 31.9996 69.0791 32.023C69.0746 32.0464 69.0708 32.0699 69.0675 32.0936C69.0643 32.1173 69.0617 32.1411 69.0597 32.1649C69.0578 32.1887 69.0564 32.2126 69.0557 32.2366C69.055 32.2605 69.055 32.2844 69.0555 32.3084C69.0561 32.3323 69.0573 32.3562 69.0592 32.3801C69.061 32.4039 69.0635 32.4277 69.0666 32.4514C69.0697 32.4751 69.0734 32.4987 69.0777 32.5221C69.0821 32.5456 69.0871 32.5689 69.0927 32.592C69.0983 32.6151 69.1044 32.638 69.1113 32.6607L74.2131 49.6873C74.2316 49.7493 74.2456 49.8125 74.255 49.877C74.2644 49.9415 74.2691 50.0064 74.2692 50.0718C74.2692 50.1371 74.2645 50.202 74.2551 50.2665C74.2457 50.331 74.2317 50.3943 74.2131 50.4563L69.1138 67.4836C69.107 67.5064 69.1008 67.5293 69.0952 67.5524C69.0897 67.5755 69.0847 67.5988 69.0803 67.6222C69.076 67.6457 69.0723 67.6693 69.0692 67.693C69.0661 67.7167 69.0636 67.7405 69.0618 67.7644C69.0599 67.7882 69.0587 67.812 69.0582 67.836C69.0576 67.86 69.0577 67.8839 69.0584 67.9079C69.0591 67.9317 69.0604 67.9556 69.0624 67.9795C69.0644 68.0034 69.067 68.0271 69.0702 68.0507C69.0734 68.0745 69.0773 68.098 69.0818 68.1214C69.0863 68.1448 69.0914 68.168 69.0971 68.1912C69.1028 68.2142 69.1091 68.2371 69.1161 68.2597C69.123 68.2825 69.1305 68.3049 69.1386 68.3271C69.1468 68.3492 69.1555 68.3711 69.1647 68.3927C69.174 68.4143 69.1839 68.4355 69.1943 68.4564C69.2047 68.4774 69.2157 68.498 69.2272 68.5183C69.2387 68.5385 69.2507 68.5583 69.2633 68.5777C69.2758 68.5971 69.2889 68.6161 69.3024 68.6346C69.316 68.6533 69.3301 68.6714 69.3446 68.689C69.3591 68.7066 69.3741 68.7238 69.3895 68.7405C69.405 68.7571 69.4208 68.7732 69.4371 68.7888C69.4534 68.8044 69.4701 68.8195 69.4872 68.834C69.5043 68.8485 69.5218 68.8624 69.5396 68.8757C69.5574 68.8891 69.5756 68.9019 69.5941 68.914C69.6126 68.9262 69.6315 68.9378 69.6506 68.9487C69.6697 68.9596 69.6891 68.9698 69.7088 68.9795C69.7284 68.9891 69.7483 68.9981 69.7685 69.0063C69.7886 69.0147 69.809 69.0224 69.8295 69.0294C69.8501 69.0363 69.8708 69.0426 69.8917 69.0483C69.9126 69.0538 69.9336 69.0587 69.9547 69.063C69.9759 69.0672 69.9971 69.0708 70.0184 69.0735C70.0398 69.0764 70.0612 69.0785 70.0826 69.0799C70.1041 69.0813 70.1255 69.082 70.147 69.0821L76.3499 69.0816C76.3782 69.0816 76.4065 69.0804 76.4348 69.0778C76.463 69.0754 76.4911 69.0717 76.5191 69.0668C76.5471 69.0619 76.5749 69.0558 76.6025 69.0485C76.6301 69.0412 76.6573 69.0326 76.6843 69.0229C76.7113 69.0132 76.7379 69.0024 76.7641 68.9904C76.7903 68.9783 76.8161 68.9652 76.8414 68.9509C76.8666 68.9366 76.8914 68.9213 76.9156 68.9049C76.9398 68.8884 76.9635 68.871 76.9864 68.8526C77.0094 68.8341 77.0318 68.8147 77.0534 68.7942C77.075 68.7738 77.0959 68.7525 77.1161 68.7303C77.1362 68.7081 77.1555 68.685 77.1741 68.661C77.1926 68.6372 77.2102 68.6125 77.227 68.5871C77.2438 68.5616 77.2597 68.5355 77.2747 68.5086C77.2897 68.4818 77.3037 68.4543 77.3167 68.4263C77.3298 68.3982 77.3418 68.3697 77.3528 68.3406C77.3639 68.3115 77.3739 68.282 77.3829 68.252L82.7124 50.4556C82.731 50.3937 82.745 50.3304 82.7543 50.2659C82.7638 50.2014 82.7685 50.1365 82.7685 50.0711C82.7685 50.0058 82.7638 49.9409 82.7543 49.8764C82.7449 49.8119 82.7309 49.7486 82.7124 49.6867ZM76.2598 32.4108L81.5516 50.0712L76.2625 67.7326L70.3152 67.733L75.3612 50.8835C75.5233 50.3423 75.5232 49.8011 75.3611 49.2599L70.3125 32.4113L76.2598 32.4108Z" fill="#FFB6B6"/>
</g>
<defs>
<filter id="filter0_d_69_160" x="4.70021" y="10.7007" width="45.5981" height="79.1466" filterUnits="userSpaceOnUse" color-interpolation-filters="sRGB">
<feFlood flood-opacity="0" result="BackgroundImageFix"/>
<feColorMatrix in="SourceAlpha" type="matrix" values="0 0 0 0 0 0 0 0 0 0 0 0 0 0 0 0 0 0 127 0" result="hardAlpha"/>
<feOffset/>
<feGaussianBlur stdDeviation="6.65"/>
<feComposite in2="hardAlpha" operator="out"/>
<feColorMatrix type="matrix" values="0 0 0 0 1 0 0 0 0 0.596154 0 0 0 0 0.596154 0 0 0 0.6 0"/>
<feBlend mode="normal" in2="BackgroundImageFix" result="effect1_dropShadow_69_160"/>
<feBlend mode="normal" in="SourceGraphic" in2="effect1_dropShadow_69_160" result="shape"/>
</filter>
<filter id="filter1_d_69_160" x="23.7002" y="12.7005" width="43.9541" height="74.5995" filterUnits="userSpaceOnUse" color-interpolation-filters="sRGB">
<feFlood flood-opacity="0" result="BackgroundImageFix"/>
<feColorMatrix in="SourceAlpha" type="matrix" values="0 0 0 0 0 0 0 0 0 0 0 0 0 0 0 0 0 0 127 0" result="hardAlpha"/>
<feOffset/>
<feGaussianBlur stdDeviation="6.65"/>
<feComposite in2="hardAlpha" operator="out"/>
<feColorMatrix type="matrix" values="0 0 0 0 1 0 0 0 0 0.596154 0 0 0 0 0.596154 0 0 0 0.5 0"/>
<feBlend mode="normal" in2="BackgroundImageFix" result="effect1_dropShadow_69_160"/>
<feBlend mode="normal" in="SourceGraphic" in2="effect1_dropShadow_69_160" result="shape"/>
</filter>
<filter id="filter2_d_69_160" x="40.7002" y="14.7005" width="42.1771" height="69.6847" filterUnits="userSpaceOnUse" color-interpolation-filters="sRGB">
<feFlood flood-opacity="0" result="BackgroundImageFix"/>
<feColorMatrix in="SourceAlpha" type="matrix" values="0 0 0 0 0 0 0 0 0 0 0 0 0 0 0 0 0 0 127 0" result="hardAlpha"/>
<feOffset/>
<feGaussianBlur stdDeviation="6.65"/>
<feComposite in2="hardAlpha" operator="out"/>
<feColorMatrix type="matrix" values="0 0 0 0 1 0 0 0 0 0.596154 0 0 0 0 0.596154 0 0 0 0.44 0"/>
<feBlend mode="normal" in2="BackgroundImageFix" result="effect1_dropShadow_69_160"/>
<feBlend mode="normal" in="SourceGraphic" in2="effect1_dropShadow_69_160" result="shape"/>
</filter>
<filter id="filter3_d_69_160" x="55.7002" y="17.7005" width="40.3684" height="64.6815" filterUnits="userSpaceOnUse" color-interpolation-filters="sRGB">
<feFlood flood-opacity="0" result="BackgroundImageFix"/>
<feColorMatrix in="SourceAlpha" type="matrix" values="0 0 0 0 0 0 0 0 0 0 0 0 0 0 0 0 0 0 127 0" result="hardAlpha"/>
<feOffset/>
<feGaussianBlur stdDeviation="6.65"/>
<feComposite in2="hardAlpha" operator="out"/>
<feColorMatrix type="matrix" values="0 0 0 0 1 0 0 0 0 0.596154 0 0 0 0 0.596154 0 0 0 0.38 0"/>
<feBlend mode="normal" in2="BackgroundImageFix" result="effect1_dropShadow_69_160"/>
<feBlend mode="normal" in="SourceGraphic" in2="effect1_dropShadow_69_160" result="shape"/>
</filter>
</defs>
</svg>
