<svg width="400" height="400" viewBox="0 0 400 400" fill="none" xmlns="http://www.w3.org/2000/svg">
<mask id="path-1-inside-1_19_78" fill="white">
<path d="M310.068 327.15C315.326 332.579 315.364 341.251 309.693 346.247C296.244 358.095 281.057 367.71 264.673 374.717C244.169 383.486 222.193 388 200 388C177.807 388 155.83 383.486 135.326 374.717C118.943 367.71 103.755 358.095 90.307 346.247C84.6363 341.251 84.674 332.579 89.9317 327.15L109.564 306.879C115.065 301.199 124.132 301.276 130.302 306.221C138.299 312.63 147.107 317.921 156.499 321.938C170.291 327.837 185.072 330.873 200 330.873C214.928 330.873 229.709 327.837 243.501 321.938C252.893 317.921 261.701 312.63 269.698 306.221C275.868 301.276 284.935 301.199 290.436 306.879L310.068 327.15Z"/>
</mask>
<path d="M310.068 327.15C315.326 332.579 315.364 341.251 309.693 346.247C296.244 358.095 281.057 367.71 264.673 374.717C244.169 383.486 222.193 388 200 388C177.807 388 155.83 383.486 135.326 374.717C118.943 367.71 103.755 358.095 90.307 346.247C84.6363 341.251 84.674 332.579 89.9317 327.15L109.564 306.879C115.065 301.199 124.132 301.276 130.302 306.221C138.299 312.63 147.107 317.921 156.499 321.938C170.291 327.837 185.072 330.873 200 330.873C214.928 330.873 229.709 327.837 243.501 321.938C252.893 317.921 261.701 312.63 269.698 306.221C275.868 301.276 284.935 301.199 290.436 306.879L310.068 327.15Z" fill="#FF8A8A" stroke="#FFB6B6" stroke-width="32" mask="url(#path-1-inside-1_19_78)"/>
</svg>
