<svg width="100" height="100" viewBox="0 0 100 100" fill="none" xmlns="http://www.w3.org/2000/svg">
<g filter="url(#filter0_d_69_161)">
<path fill-rule="evenodd" clip-rule="evenodd" d="M71.2825 25.1452L63.9249 49.7001C63.8993 49.7856 63.88 49.8729 63.867 49.9619C63.854 50.0509 63.8475 50.1405 63.8475 50.2306C63.8475 50.3208 63.854 50.4104 63.867 50.4994C63.88 50.5884 63.8992 50.6757 63.9249 50.7612L71.2788 75.3172C71.2912 75.3587 71.305 75.3994 71.3203 75.4394C71.3355 75.4796 71.3521 75.519 71.3701 75.5577C71.3881 75.5964 71.4074 75.6343 71.4281 75.6713C71.4487 75.7084 71.4706 75.7445 71.4938 75.7796C71.517 75.8147 71.5414 75.8487 71.5669 75.8816C71.5925 75.9147 71.6192 75.9466 71.647 75.9773C71.6748 76.0078 71.7036 76.0372 71.7334 76.0654C71.7633 76.0937 71.7941 76.1205 71.8258 76.146C71.8576 76.1714 71.8901 76.1954 71.9235 76.2181C71.957 76.2408 71.9911 76.2619 72.026 76.2816C72.0609 76.3013 72.0964 76.3195 72.1326 76.3361C72.1688 76.3527 72.2055 76.3676 72.2427 76.3809C72.2799 76.3944 72.3176 76.4061 72.3556 76.4163C72.3936 76.4263 72.432 76.4348 72.4706 76.4415C72.5092 76.4483 72.5481 76.4534 72.587 76.4568C72.626 76.4603 72.6651 76.462 72.7042 76.462L81.2631 76.4627C81.2927 76.4625 81.3224 76.4615 81.352 76.4596C81.3816 76.4577 81.4111 76.4548 81.4405 76.4508C81.47 76.447 81.4993 76.4421 81.5284 76.4363C81.5576 76.4304 81.5866 76.4236 81.6154 76.416C81.6443 76.4082 81.6729 76.3995 81.7012 76.3899C81.7296 76.3802 81.7576 76.3697 81.7855 76.3583C81.8132 76.3468 81.8406 76.3344 81.8678 76.3211C81.8949 76.3077 81.9217 76.2936 81.9481 76.2786C81.9745 76.2635 82.0005 76.2475 82.026 76.2307C82.0515 76.214 82.0766 76.1964 82.1013 76.1779C82.1259 76.1595 82.15 76.1403 82.1736 76.1204C82.1971 76.1003 82.2202 76.0795 82.2426 76.0579C82.2651 76.0364 82.287 76.0142 82.3082 75.9913C82.3296 75.9682 82.3503 75.9446 82.3703 75.9202C82.3904 75.8959 82.4098 75.8709 82.4285 75.8452C82.4472 75.8196 82.4652 75.7934 82.4825 75.7667C82.4999 75.7399 82.5165 75.7125 82.5324 75.6846C82.5482 75.6567 82.5634 75.6282 82.5778 75.5993C82.5921 75.5705 82.6057 75.5411 82.6184 75.5113C82.6313 75.4816 82.6434 75.4514 82.6546 75.4208C82.6657 75.3902 82.6761 75.3593 82.6857 75.3279C82.6952 75.2967 82.7039 75.2651 82.7118 75.2333C82.7197 75.2014 82.7268 75.1693 82.733 75.137C82.7391 75.1048 82.7444 75.0723 82.7489 75.0395C82.7534 75.0069 82.757 74.9742 82.7597 74.9412C82.7624 74.9083 82.7643 74.8753 82.7653 74.8424C82.7662 74.8093 82.7663 74.7763 82.7655 74.7432C82.7648 74.7102 82.7631 74.6772 82.7606 74.6444C82.7581 74.6115 82.7547 74.5786 82.7503 74.5459C82.7461 74.5132 82.7409 74.4806 82.735 74.4483C82.7289 74.4159 82.722 74.3838 82.7143 74.352C82.7066 74.32 82.6981 74.2884 82.6887 74.257L75.6526 50.762C75.6269 50.6765 75.6076 50.5893 75.5947 50.5002C75.5817 50.4112 75.5752 50.3216 75.5752 50.2315C75.5752 50.1414 75.5817 50.0518 75.5947 49.9628C75.6077 49.8738 75.627 49.7865 75.6526 49.701L82.6922 26.2071C82.7017 26.1758 82.7102 26.1441 82.7179 26.1122C82.7256 26.0803 82.7325 26.0482 82.7386 26.0158C82.7445 25.9835 82.7496 25.951 82.7539 25.9183C82.7583 25.8856 82.7617 25.8528 82.7642 25.8198C82.7668 25.7869 82.7684 25.7539 82.7691 25.7209C82.7699 25.6879 82.7699 25.6549 82.769 25.6218C82.7679 25.5888 82.7661 25.5558 82.7633 25.5229C82.7606 25.49 82.757 25.4572 82.7526 25.4246C82.7481 25.3919 82.7428 25.3594 82.7366 25.3271C82.7305 25.2948 82.7234 25.2627 82.7155 25.2309C82.7077 25.199 82.6989 25.1674 82.6894 25.1362C82.6798 25.1049 82.6694 25.074 82.6582 25.0434C82.647 25.0128 82.635 24.9826 82.6222 24.9528C82.6094 24.923 82.5959 24.8936 82.5815 24.8647C82.5671 24.8358 82.552 24.8074 82.5361 24.7795C82.5202 24.7516 82.5036 24.7243 82.4863 24.6974C82.469 24.6706 82.451 24.6444 82.4323 24.6188C82.4136 24.5932 82.3942 24.5682 82.3741 24.5438C82.3541 24.5195 82.3334 24.4958 82.3121 24.4729C82.2908 24.4499 82.2689 24.4276 82.2465 24.4061C82.224 24.3845 82.201 24.3638 82.1774 24.3438C82.1538 24.3237 82.1297 24.3045 82.1051 24.2861C82.0804 24.2677 82.0553 24.2501 82.0298 24.2333C82.0043 24.2165 81.9784 24.2006 81.9519 24.1855C81.9255 24.1705 81.8988 24.1563 81.8716 24.143C81.8445 24.1297 81.8171 24.1173 81.7894 24.1058C81.7615 24.0943 81.7334 24.0838 81.7051 24.0741C81.6768 24.0645 81.6482 24.0558 81.6193 24.0481C81.5905 24.0403 81.5615 24.0335 81.5323 24.0277C81.5032 24.0218 81.4739 24.017 81.4444 24.0131C81.415 24.0092 81.3855 24.0062 81.3559 24.0043C81.3262 24.0023 81.2966 24.0014 81.2669 24.0014L72.7081 24.0007C72.669 24.0007 72.6299 24.0024 72.5909 24.0058C72.5519 24.0092 72.5131 24.0143 72.4745 24.0211C72.4359 24.0278 72.3975 24.0363 72.3595 24.0464C72.3214 24.0565 72.2838 24.0682 72.2466 24.0816C72.2093 24.095 72.1727 24.11 72.1365 24.1266C72.1003 24.1431 72.0648 24.1613 72.0299 24.1809C71.995 24.2006 71.9608 24.2218 71.9274 24.2444C71.894 24.2671 71.8614 24.2911 71.8296 24.3166C71.7979 24.3421 71.7671 24.3689 71.7373 24.397C71.7074 24.4252 71.6786 24.4546 71.6508 24.4853C71.623 24.516 71.5963 24.5478 71.5707 24.5808C71.5452 24.6138 71.5208 24.6478 71.4976 24.6829C71.4744 24.718 71.4525 24.7541 71.4318 24.7911C71.4112 24.8281 71.3919 24.866 71.3739 24.9047C71.3559 24.9434 71.3392 24.9828 71.324 25.023C71.3087 25.0631 71.2949 25.1038 71.2825 25.1452Z" fill="#FFA58A"/>
<path fill-rule="evenodd" clip-rule="evenodd" d="M63.849 49.7848L71.2066 25.2299C71.219 25.1886 71.2328 25.1478 71.2481 25.1077C71.2633 25.0675 71.2799 25.0281 71.2979 24.9894C71.3159 24.9507 71.3353 24.9128 71.3559 24.8758C71.3766 24.8388 71.3985 24.8027 71.4217 24.7676C71.4449 24.7325 71.4692 24.6985 71.4948 24.6655C71.5204 24.6325 71.5471 24.6007 71.5748 24.57C71.6026 24.5393 71.6315 24.5099 71.6613 24.4818C71.6912 24.4536 71.722 24.4268 71.7537 24.4013C71.7855 24.3758 71.818 24.3518 71.8515 24.3291C71.8849 24.3065 71.919 24.2853 71.9539 24.2657C71.9888 24.246 72.0244 24.2279 72.0606 24.2113C72.0967 24.1947 72.1334 24.1797 72.1706 24.1663C72.2079 24.153 72.2455 24.1412 72.2835 24.1311C72.3216 24.121 72.3599 24.1126 72.3986 24.1058C72.4372 24.099 72.476 24.0939 72.515 24.0905C72.554 24.0871 72.593 24.0854 72.6322 24.0854L81.1911 24.0861C81.2207 24.0861 81.2503 24.0871 81.2799 24.089C81.3095 24.091 81.339 24.0939 81.3685 24.0978C81.3979 24.1017 81.4272 24.1066 81.4564 24.1124C81.4856 24.1182 81.5146 24.125 81.5434 24.1328C81.5722 24.1405 81.6008 24.1492 81.6291 24.1588C81.6575 24.1685 81.6856 24.179 81.7134 24.1905C81.7412 24.202 81.7686 24.2144 81.7958 24.2277C81.8229 24.241 81.8497 24.2552 81.876 24.2702C81.9024 24.2853 81.9284 24.3012 81.9539 24.318C81.9795 24.3348 82.0045 24.3524 82.0291 24.3708C82.0537 24.3892 82.0778 24.4085 82.1014 24.4285C82.125 24.4485 82.148 24.4693 82.1705 24.4908C82.193 24.5123 82.2149 24.5346 82.2362 24.5576C82.2575 24.5806 82.2782 24.6042 82.2982 24.6286C82.3182 24.6529 82.3376 24.6779 82.3563 24.7035C82.3751 24.7291 82.3931 24.7554 82.4104 24.7822C82.4277 24.809 82.4443 24.8363 82.4602 24.8642C82.4761 24.8921 82.4912 24.9206 82.5055 24.9495C82.5199 24.9784 82.5335 25.0077 82.5463 25.0375C82.5591 25.0673 82.5711 25.0975 82.5823 25.1281C82.5935 25.1587 82.6039 25.1896 82.6135 25.2209C82.623 25.2522 82.6317 25.2837 82.6396 25.3156C82.6475 25.3474 82.6545 25.3795 82.6607 25.4118C82.6669 25.4441 82.6722 25.4766 82.6767 25.5093C82.6811 25.542 82.6847 25.5748 82.6874 25.6077C82.6902 25.6406 82.692 25.6735 82.693 25.7065C82.6939 25.7396 82.694 25.7726 82.6932 25.8056C82.6925 25.8387 82.6908 25.8716 82.6883 25.9046C82.6857 25.9375 82.6823 25.9703 82.678 26.003C82.6737 26.0357 82.6686 26.0682 82.6626 26.1006C82.6566 26.1329 82.6497 26.165 82.642 26.1969C82.6343 26.2288 82.6258 26.2605 82.6164 26.2918L75.5767 49.7857C75.5511 49.8712 75.5318 49.9585 75.5188 50.0475C75.5058 50.1365 75.4993 50.2261 75.4993 50.3162C75.4993 50.4064 75.5058 50.4959 75.5188 50.585C75.5317 50.674 75.551 50.7612 75.5766 50.8468L82.6128 74.3417C82.6222 74.3731 82.6308 74.4048 82.6385 74.4367C82.6462 74.4685 82.653 74.5006 82.659 74.533C82.665 74.5654 82.6702 74.5979 82.6744 74.6306C82.6787 74.6633 82.6821 74.6962 82.6846 74.7291C82.6872 74.7619 82.6888 74.7949 82.6896 74.8279C82.6904 74.861 82.6903 74.8941 82.6893 74.9271C82.6884 74.9601 82.6865 74.993 82.6838 75.0259C82.6811 75.0589 82.6775 75.0917 82.673 75.1243C82.6686 75.157 82.6632 75.1895 82.657 75.2217C82.6509 75.254 82.6438 75.2861 82.6359 75.318C82.628 75.3498 82.6193 75.3814 82.6098 75.4126C82.6002 75.444 82.5898 75.475 82.5786 75.5055C82.5674 75.5361 82.5554 75.5663 82.5426 75.5961C82.5298 75.6258 82.5162 75.6552 82.5018 75.6841C82.4874 75.7129 82.4723 75.7414 82.4564 75.7694C82.4406 75.7972 82.424 75.8246 82.4066 75.8514C82.3893 75.8782 82.3713 75.9043 82.3526 75.9299C82.3338 75.9557 82.3144 75.9807 82.2944 76.0049C82.2744 76.0293 82.2537 76.053 82.2324 76.076C82.2111 76.0989 82.1892 76.1211 82.1667 76.1427C82.1442 76.1642 82.1212 76.185 82.0976 76.2051C82.074 76.2251 82.0499 76.2442 82.0253 76.2626C82.0007 76.2811 81.9756 76.2987 81.9501 76.3154C81.9245 76.3322 81.8986 76.3482 81.8722 76.3633C81.8458 76.3783 81.819 76.3925 81.7919 76.4058C81.7648 76.4191 81.7373 76.4314 81.7095 76.4428C81.6817 76.4543 81.6536 76.4649 81.6253 76.4746C81.5969 76.4842 81.5683 76.4929 81.5395 76.5007C81.5107 76.5084 81.4817 76.5151 81.4525 76.521C81.4233 76.5269 81.394 76.5317 81.3646 76.5355C81.3352 76.5395 81.3056 76.5424 81.2761 76.5443C81.2465 76.5462 81.2168 76.5473 81.1872 76.5474L72.6283 76.5467C72.5892 76.5467 72.5501 76.545 72.5111 76.5415C72.4721 76.5381 72.4333 76.533 72.3947 76.5262C72.3561 76.5195 72.3177 76.5111 72.2797 76.501C72.2416 76.4909 72.204 76.4791 72.1668 76.4656C72.1296 76.4523 72.0929 76.4374 72.0567 76.4208C72.0205 76.4042 71.985 76.386 71.9501 76.3663C71.9152 76.3467 71.881 76.3255 71.8476 76.3028C71.8142 76.2801 71.7816 76.2561 71.7499 76.2307C71.7182 76.2052 71.6874 76.1784 71.6575 76.1502C71.6277 76.122 71.5988 76.0926 71.5711 76.062C71.5433 76.0313 71.5166 75.9994 71.491 75.9664C71.4655 75.9334 71.4411 75.8994 71.4179 75.8643C71.3947 75.8292 71.3728 75.7931 71.3522 75.756C71.3315 75.719 71.3122 75.6811 71.2942 75.6424C71.2762 75.6037 71.2596 75.5643 71.2443 75.5242C71.2291 75.4841 71.2153 75.4434 71.2029 75.402L63.849 50.8459C63.8234 50.7604 63.8041 50.6731 63.7911 50.5841C63.7781 50.4951 63.7716 50.4055 63.7716 50.3153C63.7716 50.2252 63.7781 50.1356 63.7912 50.0466C63.8041 49.9576 63.8234 49.8703 63.849 49.7848ZM72.7525 25.947L65.4507 50.3155L72.7489 74.6852L80.9552 74.6858L73.9925 51.4362C73.7689 50.6895 73.7689 49.9427 73.9927 49.196L80.9588 25.9476L72.7525 25.947Z" fill="#FFD4B6"/>
</g>
<g filter="url(#filter1_d_69_161)">
<path fill-rule="evenodd" clip-rule="evenodd" d="M53.2766 27.046L46.5557 49.476C46.5323 49.5541 46.5147 49.6338 46.5028 49.7151C46.491 49.7964 46.485 49.8782 46.485 49.9606C46.485 50.0429 46.491 50.1247 46.5028 50.2061C46.5146 50.2874 46.5323 50.3671 46.5557 50.4452L53.2732 72.8763C53.2845 72.9141 53.2972 72.9513 53.3111 72.9879C53.325 73.0246 53.3402 73.0606 53.3566 73.0959C53.3731 73.1313 53.3907 73.1659 53.4096 73.1997C53.4284 73.2336 53.4485 73.2665 53.4696 73.2986C53.4908 73.3306 53.5131 73.3617 53.5364 73.3918C53.5598 73.422 53.5841 73.4511 53.6095 73.4792C53.6349 73.5071 53.6612 73.5339 53.6885 73.5597C53.7158 73.5855 53.7439 73.61 53.7729 73.6333C53.8019 73.6565 53.8316 73.6784 53.8622 73.6992C53.8927 73.7199 53.9239 73.7392 53.9558 73.7571C53.9876 73.7752 54.0201 73.7918 54.0531 73.8069C54.0862 73.8221 54.1197 73.8357 54.1537 73.8479C54.1877 73.8602 54.2221 73.8709 54.2568 73.8802C54.2916 73.8894 54.3266 73.8971 54.3619 73.9032C54.3972 73.9094 54.4326 73.9141 54.4682 73.9172C54.5039 73.9204 54.5395 73.922 54.5753 73.922L62.3934 73.9225C62.4205 73.9224 62.4476 73.9215 62.4747 73.9198C62.5017 73.918 62.5287 73.9153 62.5556 73.9117C62.5825 73.9082 62.6092 73.9038 62.6359 73.8984C62.6625 73.8931 62.689 73.8869 62.7153 73.8799C62.7417 73.8728 62.7678 73.8649 62.7937 73.8561C62.8196 73.8472 62.8452 73.8376 62.8707 73.8272C62.896 73.8167 62.9211 73.8054 62.9458 73.7932C62.9706 73.781 62.9951 73.7681 63.0192 73.7544C63.0433 73.7406 63.0671 73.726 63.0904 73.7107C63.1137 73.6954 63.1366 73.6793 63.1591 73.6624C63.1816 73.6456 63.2036 73.6281 63.2252 73.6099C63.2467 73.5915 63.2677 73.5725 63.2883 73.5528C63.3088 73.5332 63.3288 73.5129 63.3482 73.4919C63.3677 73.4709 63.3866 73.4493 63.4049 73.427C63.4232 73.4049 63.4409 73.382 63.458 73.3585C63.4751 73.3351 63.4916 73.3112 63.5074 73.2868C63.5232 73.2623 63.5384 73.2373 63.5529 73.2118C63.5674 73.1863 63.5812 73.1603 63.5944 73.1339C63.6075 73.1076 63.6199 73.0808 63.6316 73.0536C63.6433 73.0264 63.6543 72.9988 63.6646 72.9709C63.6747 72.9429 63.6842 72.9146 63.693 72.886C63.7017 72.8574 63.7097 72.8286 63.7169 72.7996C63.7241 72.7704 63.7305 72.7411 63.7361 72.7116C63.7418 72.6821 63.7466 72.6525 63.7507 72.6226C63.7548 72.5928 63.7581 72.5629 63.7606 72.5328C63.7631 72.5027 63.7648 72.4726 63.7657 72.4425C63.7665 72.4123 63.7666 72.3821 63.7659 72.3519C63.7652 72.3217 63.7637 72.2916 63.7614 72.2616C63.7591 72.2315 63.756 72.2015 63.752 72.1717C63.7481 72.1418 63.7434 72.112 63.738 72.0825C63.7325 72.0529 63.7262 72.0236 63.7191 71.9945C63.7121 71.9653 63.7043 71.9364 63.6957 71.9078L57.2685 50.446C57.2451 50.3679 57.2274 50.2882 57.2156 50.2068C57.2038 50.1255 57.1978 50.0437 57.1978 49.9614C57.1978 49.879 57.2038 49.7972 57.2156 49.7159C57.2275 49.6346 57.2451 49.5549 57.2685 49.4768L63.699 28.016C63.7076 27.9874 63.7154 27.9585 63.7224 27.9293C63.7294 27.9002 63.7357 27.8708 63.7413 27.8413C63.7467 27.8117 63.7514 27.782 63.7553 27.7521C63.7593 27.7223 63.7624 27.6923 63.7647 27.6622C63.767 27.6322 63.7685 27.602 63.7692 27.5719C63.7699 27.5417 63.7699 27.5115 63.769 27.4814C63.7681 27.4512 63.7664 27.4211 63.7639 27.391C63.7614 27.361 63.7581 27.331 63.7541 27.3012C63.75 27.2713 63.7452 27.2417 63.7395 27.2121C63.7339 27.1826 63.7275 27.1533 63.7202 27.1242C63.713 27.0951 63.7051 27.0663 63.6964 27.0377C63.6876 27.0092 63.6781 26.9809 63.6678 26.953C63.6577 26.925 63.6467 26.8974 63.635 26.8702C63.6233 26.843 63.6109 26.8162 63.5978 26.7898C63.5847 26.7634 63.5709 26.7374 63.5564 26.7119C63.5418 26.6865 63.5267 26.6615 63.5109 26.637C63.4951 26.6125 63.4786 26.5885 63.4615 26.5651C63.4444 26.5417 63.4267 26.5189 63.4084 26.4967C63.3901 26.4744 63.3712 26.4528 63.3517 26.4318C63.3323 26.4108 63.3123 26.3905 63.2918 26.3708C63.2712 26.3512 63.2502 26.3322 63.2287 26.3139C63.2071 26.2956 63.1851 26.278 63.1627 26.2612C63.1401 26.2444 63.1172 26.2283 63.0939 26.213C63.0706 26.1977 63.0469 26.1831 63.0227 26.1694C62.9986 26.1556 62.9741 26.1426 62.9494 26.1305C62.9246 26.1183 62.8995 26.107 62.8742 26.0965C62.8488 26.086 62.8231 26.0764 62.7972 26.0676C62.7713 26.0588 62.7452 26.0509 62.7189 26.0438C62.6925 26.0367 62.666 26.0305 62.6394 26.0252C62.6128 26.0198 62.586 26.0154 62.5591 26.0118C62.5322 26.0083 62.5053 26.0056 62.4783 26.0038C62.4512 26.002 62.4241 26.0011 62.397 26.0011L54.5788 26.0005C54.5431 26.0005 54.5074 26.0021 54.4718 26.0052C54.4362 26.0083 54.4007 26.0129 54.3654 26.0191C54.3301 26.0253 54.2951 26.033 54.2604 26.0423C54.2256 26.0515 54.1912 26.0622 54.1572 26.0744C54.1232 26.0867 54.0897 26.1004 54.0567 26.1155C54.0236 26.1306 53.9912 26.1472 53.9593 26.1652C53.9274 26.1831 53.8962 26.2025 53.8657 26.2231C53.8351 26.2438 53.8054 26.2658 53.7764 26.2891C53.7474 26.3124 53.7193 26.3369 53.692 26.3626C53.6647 26.3883 53.6384 26.4152 53.613 26.4432C53.5876 26.4712 53.5632 26.5003 53.5399 26.5304C53.5165 26.5605 53.4943 26.5916 53.4731 26.6237C53.4519 26.6558 53.4319 26.6887 53.413 26.7225C53.3941 26.7563 53.3765 26.7909 53.36 26.8263C53.3436 26.8616 53.3284 26.8976 53.3145 26.9343C53.3006 26.971 53.2879 27.0082 53.2766 27.046Z" fill="#FFA58A"/>
<path fill-rule="evenodd" clip-rule="evenodd" d="M46.4864 49.5534L53.2073 27.1234C53.2186 27.0856 53.2312 27.0484 53.2451 27.0117C53.2591 26.975 53.2742 26.939 53.2907 26.9037C53.3071 26.8683 53.3248 26.8337 53.3437 26.7999C53.3625 26.7661 53.3826 26.7332 53.4037 26.7011C53.4249 26.669 53.4472 26.6379 53.4705 26.6078C53.4939 26.5777 53.5183 26.5486 53.5436 26.5206C53.569 26.4926 53.5954 26.4657 53.6226 26.44C53.6499 26.4142 53.6781 26.3897 53.707 26.3665C53.736 26.3432 53.7658 26.3212 53.7963 26.3005C53.8268 26.2799 53.8581 26.2605 53.8899 26.2426C53.9218 26.2246 53.9543 26.208 53.9873 26.1929C54.0204 26.1777 54.0539 26.1641 54.0879 26.1518C54.1219 26.1396 54.1563 26.1289 54.191 26.1196C54.2258 26.1104 54.2608 26.1027 54.2961 26.0965C54.3314 26.0903 54.3668 26.0857 54.4024 26.0826C54.4381 26.0795 54.4737 26.0779 54.5095 26.0779L62.3277 26.0785C62.3548 26.0785 62.3818 26.0794 62.4089 26.0812C62.4359 26.083 62.4629 26.0857 62.4897 26.0892C62.5166 26.0928 62.5434 26.0972 62.5701 26.1026C62.5967 26.1079 62.6232 26.1141 62.6495 26.1212C62.6758 26.1283 62.702 26.1362 62.7279 26.145C62.7538 26.1538 62.7794 26.1634 62.8048 26.1739C62.8302 26.1844 62.8553 26.1957 62.8801 26.2079C62.9048 26.22 62.9293 26.233 62.9534 26.2467C62.9775 26.2605 63.0012 26.275 63.0245 26.2904C63.0479 26.3057 63.0708 26.3218 63.0932 26.3386C63.1157 26.3554 63.1377 26.373 63.1593 26.3913C63.1808 26.4096 63.2019 26.4285 63.2224 26.4482C63.2429 26.4679 63.2629 26.4882 63.2824 26.5092C63.3018 26.5302 63.3207 26.5518 63.339 26.5741C63.3573 26.5963 63.375 26.6191 63.3921 26.6425C63.4092 26.6659 63.4257 26.6899 63.4415 26.7144C63.4573 26.7389 63.4725 26.7638 63.487 26.7893C63.5015 26.8148 63.5153 26.8408 63.5284 26.8672C63.5415 26.8936 63.554 26.9204 63.5657 26.9476C63.5774 26.9748 63.5883 27.0024 63.5986 27.0304C63.6088 27.0583 63.6183 27.0866 63.627 27.1151C63.6357 27.1437 63.6437 27.1725 63.6509 27.2016C63.6581 27.2307 63.6645 27.26 63.6702 27.2895C63.6758 27.3191 63.6807 27.3487 63.6848 27.3786C63.6888 27.4084 63.6921 27.4384 63.6946 27.4684C63.6971 27.4985 63.6987 27.5286 63.6996 27.5588C63.7005 27.5889 63.7006 27.6191 63.6999 27.6493C63.6992 27.6794 63.6976 27.7096 63.6953 27.7396C63.693 27.7697 63.6899 27.7997 63.686 27.8295C63.6821 27.8594 63.6774 27.8891 63.6719 27.9187C63.6664 27.9482 63.6601 27.9776 63.6531 28.0067C63.646 28.0359 63.6382 28.0647 63.6297 28.0934L57.1992 49.5541C57.1758 49.6323 57.1581 49.712 57.1463 49.7933C57.1344 49.8746 57.1285 49.9564 57.1285 50.0388C57.1285 50.1211 57.1344 50.2029 57.1463 50.2842C57.1581 50.3656 57.1757 50.4453 57.1991 50.5234L63.6264 71.9852C63.635 72.0138 63.6428 72.0427 63.6498 72.0719C63.6569 72.101 63.6631 72.1303 63.6686 72.1599C63.6741 72.1894 63.6788 72.2192 63.6827 72.2491C63.6866 72.2789 63.6897 72.3089 63.692 72.339C63.6943 72.369 63.6959 72.3991 63.6966 72.4293C63.6973 72.4595 63.6972 72.4897 63.6963 72.5199C63.6954 72.55 63.6937 72.5801 63.6912 72.6102C63.6888 72.6403 63.6855 72.6702 63.6814 72.7C63.6773 72.7299 63.6725 72.7595 63.6668 72.789C63.6612 72.8185 63.6547 72.8478 63.6475 72.877C63.6403 72.906 63.6323 72.9348 63.6236 72.9634C63.6149 72.992 63.6054 73.0203 63.5951 73.0482C63.5849 73.0762 63.5739 73.1037 63.5622 73.131C63.5505 73.1582 63.5381 73.1849 63.525 73.2113C63.5119 73.2377 63.4981 73.2637 63.4836 73.2892C63.4691 73.3147 63.4539 73.3397 63.4381 73.3642C63.4222 73.3886 63.4058 73.4125 63.3887 73.4359C63.3716 73.4594 63.3539 73.4823 63.3355 73.5044C63.3172 73.5267 63.2984 73.5483 63.2789 73.5693C63.2594 73.5903 63.2394 73.6106 63.2189 73.6302C63.1984 73.6499 63.1773 73.6689 63.1558 73.6873C63.1342 73.7055 63.1122 73.723 63.0897 73.7398C63.0673 73.7567 63.0444 73.7728 63.021 73.7881C62.9977 73.8034 62.974 73.818 62.9499 73.8318C62.9258 73.8455 62.9013 73.8584 62.8765 73.8706C62.8517 73.8827 62.8267 73.894 62.8013 73.9044C62.7759 73.9149 62.7502 73.9246 62.7243 73.9335C62.6984 73.9423 62.6723 73.9502 62.646 73.9573C62.6197 73.9643 62.5932 73.9705 62.5665 73.9758C62.5399 73.9812 62.5131 73.9856 62.4862 73.9891C62.4593 73.9927 62.4324 73.9954 62.4053 73.9972C62.3783 73.9989 62.3512 73.9998 62.3242 73.9999L54.5059 73.9994C54.4702 73.9994 54.4345 73.9978 54.3989 73.9946C54.3633 73.9915 54.3278 73.9868 54.2925 73.9806C54.2572 73.9744 54.2222 73.9668 54.1875 73.9576C54.1527 73.9483 54.1183 73.9375 54.0843 73.9253C54.0504 73.9131 54.0168 73.8995 53.9838 73.8843C53.9507 73.8692 53.9183 73.8526 53.8864 73.8345C53.8545 73.8166 53.8233 73.7973 53.7928 73.7765C53.7623 73.7558 53.7325 73.7339 53.7035 73.7107C53.6746 73.6874 53.6464 73.6629 53.6191 73.6371C53.5919 73.6113 53.5656 73.5845 53.5402 73.5566C53.5148 73.5285 53.4904 73.4994 53.4671 73.4692C53.4437 73.4391 53.4215 73.408 53.4003 73.376C53.3791 73.3439 53.3591 73.311 53.3402 73.2771C53.3214 73.2432 53.3037 73.2087 53.2873 73.1733C53.2708 73.138 53.2556 73.102 53.2417 73.0653C53.2278 73.0287 53.2152 72.9915 53.2039 72.9536L46.4863 50.5226C46.463 50.4445 46.4453 50.3648 46.4335 50.2834C46.4216 50.2021 46.4156 50.1203 46.4156 50.038C46.4156 49.9556 46.4216 49.8738 46.4336 49.7925C46.4454 49.7112 46.463 49.6315 46.4864 49.5534ZM54.6194 27.7784L47.9495 50.0381L54.6161 72.2989L62.1122 72.2995L55.7521 51.0619C55.5478 50.3797 55.5478 49.6976 55.7522 49.0155L62.1155 27.7789L54.6194 27.7784Z" fill="#FFD4B6"/>
</g>
<g filter="url(#filter2_d_69_161)">
<path fill-rule="evenodd" clip-rule="evenodd" d="M37.351 28.939L31.3183 49.0723C31.2973 49.1425 31.2815 49.214 31.2708 49.287C31.2602 49.36 31.2549 49.4334 31.2549 49.5073C31.2549 49.5812 31.2602 49.6547 31.2708 49.7277C31.2814 49.8007 31.2973 49.8722 31.3183 49.9423L37.348 70.0766C37.3582 70.1106 37.3695 70.144 37.382 70.1768C37.3945 70.2098 37.4081 70.2421 37.4228 70.2738C37.4376 70.3055 37.4535 70.3366 37.4704 70.3669C37.4873 70.3974 37.5053 70.427 37.5243 70.4557C37.5433 70.4845 37.5633 70.5124 37.5842 70.5394C37.6052 70.5665 37.6271 70.5926 37.6499 70.6178C37.6726 70.6429 37.6963 70.667 37.7208 70.6901C37.7452 70.7132 37.7705 70.7353 37.7965 70.7562C37.8225 70.777 37.8492 70.7967 37.8766 70.8153C37.904 70.8339 37.932 70.8512 37.9607 70.8673C37.9893 70.8835 38.0184 70.8984 38.0481 70.912C38.0777 70.9256 38.1078 70.9379 38.1383 70.9488C38.1688 70.9598 38.1997 70.9695 38.2309 70.9778C38.2621 70.986 38.2935 70.9929 38.3252 70.9985C38.3569 71.004 38.3887 71.0082 38.4207 71.011C38.4526 71.0138 38.4846 71.0153 38.5167 71.0153L45.5344 71.0158C45.5587 71.0157 45.583 71.0149 45.6073 71.0133C45.6316 71.0117 45.6558 71.0093 45.6799 71.0061C45.7041 71.0029 45.7281 70.999 45.752 70.9942C45.7759 70.9894 45.7997 70.9838 45.8233 70.9775C45.847 70.9711 45.8704 70.964 45.8937 70.9562C45.9169 70.9482 45.9399 70.9396 45.9627 70.9302C45.9855 70.9208 46.008 70.9106 46.0302 70.8997C46.0525 70.8888 46.0744 70.8772 46.0961 70.8649C46.1177 70.8525 46.139 70.8394 46.1599 70.8256C46.1808 70.8119 46.2014 70.7975 46.2217 70.7823C46.2419 70.7672 46.2616 70.7515 46.2809 70.7351C46.3003 70.7187 46.3192 70.7016 46.3376 70.6839C46.356 70.6663 46.3739 70.6481 46.3914 70.6293C46.4089 70.6104 46.4259 70.591 46.4423 70.571C46.4587 70.5511 46.4746 70.5306 46.49 70.5095C46.5053 70.4885 46.5201 70.4671 46.5343 70.4452C46.5485 70.4231 46.5621 70.4007 46.5751 70.3779C46.5882 70.3549 46.6006 70.3316 46.6124 70.3079C46.6241 70.2843 46.6353 70.2602 46.6457 70.2358C46.6563 70.2114 46.6661 70.1866 46.6754 70.1616C46.6845 70.1365 46.693 70.1111 46.7009 70.0854C46.7087 70.0598 46.7158 70.0339 46.7223 70.0078C46.7288 69.9816 46.7345 69.9553 46.7396 69.9289C46.7447 69.9024 46.749 69.8758 46.7527 69.8489C46.7563 69.8222 46.7593 69.7953 46.7615 69.7683C46.7638 69.7413 46.7653 69.7143 46.7661 69.6873C46.7669 69.6602 46.7669 69.6331 46.7663 69.606C46.7657 69.5789 46.7644 69.5519 46.7623 69.5249C46.7602 69.4979 46.7574 69.471 46.7538 69.4442C46.7503 69.4174 46.7462 69.3907 46.7413 69.3641C46.7363 69.3376 46.7306 69.3113 46.7243 69.2852C46.718 69.259 46.711 69.233 46.7033 69.2073L40.9342 49.9431C40.9132 49.8729 40.8973 49.8014 40.8867 49.7284C40.8761 49.6554 40.8708 49.582 40.8708 49.508C40.8708 49.4341 40.8761 49.3607 40.8867 49.2877C40.8974 49.2147 40.9132 49.1432 40.9342 49.073L46.7062 29.8097C46.7139 29.784 46.721 29.7581 46.7273 29.7319C46.7336 29.7057 46.7392 29.6794 46.7442 29.6529C46.7491 29.6263 46.7533 29.5997 46.7568 29.5729C46.7604 29.5461 46.7632 29.5192 46.7653 29.4922C46.7673 29.4652 46.7687 29.4381 46.7692 29.411C46.7699 29.384 46.7699 29.3569 46.7691 29.3298C46.7683 29.3027 46.7668 29.2757 46.7645 29.2487C46.7623 29.2217 46.7593 29.1949 46.7557 29.1681C46.752 29.1413 46.7477 29.1147 46.7426 29.0882C46.7376 29.0617 46.7318 29.0354 46.7253 29.0092C46.7189 28.9831 46.7117 28.9572 46.7039 28.9316C46.696 28.906 46.6875 28.8806 46.6783 28.8555C46.6692 28.8304 46.6593 28.8057 46.6488 28.7812C46.6383 28.7568 46.6272 28.7327 46.6154 28.709C46.6036 28.6853 46.5912 28.6621 46.5782 28.6392C46.5652 28.6163 46.5516 28.5939 46.5374 28.5719C46.5232 28.5499 46.5084 28.5284 46.4931 28.5074C46.4777 28.4864 46.4618 28.4659 46.4454 28.4459C46.429 28.426 46.412 28.4066 46.3945 28.3877C46.3771 28.3689 46.3591 28.3506 46.3407 28.333C46.3223 28.3153 46.3034 28.2983 46.2841 28.2819C46.2647 28.2655 46.245 28.2497 46.2248 28.2346C46.2046 28.2195 46.184 28.205 46.1631 28.1913C46.1422 28.1775 46.1209 28.1645 46.0992 28.1521C46.0776 28.1398 46.0556 28.1282 46.0334 28.1173C46.0111 28.1064 45.9887 28.0962 45.9659 28.0868C45.9431 28.0774 45.9201 28.0687 45.8968 28.0608C45.8736 28.0529 45.8501 28.0458 45.8265 28.0394C45.8028 28.0331 45.7791 28.0275 45.7552 28.0227C45.7313 28.0179 45.7072 28.0139 45.6831 28.0107C45.6589 28.0075 45.6348 28.0051 45.6105 28.0035C45.5862 28.0019 45.5619 28.0011 45.5376 28.0011L38.5199 28.0006C38.4878 28.0006 38.4558 28.002 38.4238 28.0048C38.3919 28.0076 38.36 28.0117 38.3284 28.0173C38.2967 28.0228 38.2653 28.0298 38.2341 28.0381C38.2029 28.0463 38.172 28.056 38.1415 28.0669C38.111 28.0779 38.0809 28.0902 38.0512 28.1038C38.0216 28.1174 37.9924 28.1323 37.9638 28.1484C37.9352 28.1645 37.9072 28.1819 37.8798 28.2004C37.8524 28.219 37.8257 28.2387 37.7996 28.2596C37.7736 28.2805 37.7484 28.3025 37.7239 28.3256C37.6994 28.3487 37.6758 28.3728 37.653 28.3979C37.6302 28.4231 37.6083 28.4492 37.5874 28.4762C37.5664 28.5033 37.5464 28.5312 37.5274 28.56C37.5084 28.5888 37.4904 28.6183 37.4735 28.6487C37.4565 28.679 37.4407 28.7101 37.4259 28.7418C37.4112 28.7735 37.3975 28.8059 37.385 28.8388C37.3725 28.8717 37.3612 28.9051 37.351 28.939Z" fill="#FFA58A"/>
<path fill-rule="evenodd" clip-rule="evenodd" d="M31.2561 49.1417L37.2888 29.0083C37.299 28.9744 37.3103 28.941 37.3228 28.9081C37.3353 28.8752 37.3489 28.8429 37.3637 28.8111C37.3784 28.7794 37.3943 28.7484 37.4112 28.718C37.4282 28.6877 37.4461 28.6581 37.4651 28.6293C37.4842 28.6005 37.5041 28.5726 37.5251 28.5455C37.5461 28.5185 37.5679 28.4924 37.5907 28.4673C37.6135 28.4421 37.6372 28.418 37.6616 28.3949C37.6861 28.3718 37.7114 28.3498 37.7374 28.3289C37.7634 28.3081 37.7901 28.2883 37.8175 28.2698C37.8449 28.2512 37.8729 28.2338 37.9016 28.2177C37.9302 28.2016 37.9593 28.1867 37.989 28.1731C38.0186 28.1595 38.0487 28.1473 38.0792 28.1363C38.1098 28.1253 38.1406 28.1157 38.1718 28.1074C38.203 28.0991 38.2344 28.0922 38.2661 28.0866C38.2978 28.0811 38.3296 28.0769 38.3616 28.0741C38.3936 28.0713 38.4256 28.0699 38.4576 28.0699L45.4754 28.0705C45.4997 28.0705 45.524 28.0713 45.5482 28.0729C45.5725 28.0745 45.5967 28.0769 45.6208 28.0801C45.645 28.0833 45.669 28.0873 45.6929 28.0921C45.7168 28.0968 45.7406 28.1024 45.7642 28.1088C45.7879 28.1151 45.8113 28.1222 45.8346 28.1301C45.8578 28.138 45.8808 28.1467 45.9036 28.1561C45.9264 28.1655 45.9489 28.1757 45.9712 28.1866C45.9934 28.1975 46.0154 28.2091 46.037 28.2215C46.0586 28.2338 46.0799 28.2469 46.1009 28.2606C46.1218 28.2744 46.1424 28.2888 46.1625 28.3039C46.1827 28.319 46.2025 28.3348 46.2218 28.3512C46.2411 28.3676 46.26 28.3847 46.2784 28.4023C46.2969 28.42 46.3148 28.4382 46.3323 28.4571C46.3498 28.4759 46.3667 28.4953 46.3831 28.5153C46.3996 28.5352 46.4155 28.5557 46.4308 28.5767C46.4462 28.5977 46.4609 28.6192 46.4751 28.6412C46.4893 28.6632 46.5029 28.6856 46.516 28.7085C46.529 28.7314 46.5414 28.7547 46.5532 28.7784C46.5649 28.8021 46.5761 28.8261 46.5866 28.8506C46.5971 28.875 46.6069 28.8998 46.6161 28.9249C46.6253 28.9499 46.6338 28.9753 46.6416 29.0009C46.6495 29.0266 46.6566 29.0525 46.6631 29.0786C46.6696 29.1047 46.6753 29.131 46.6804 29.1575C46.6855 29.184 46.6898 29.2106 46.6935 29.2374C46.6971 29.2642 46.7001 29.2911 46.7023 29.3181C46.7045 29.345 46.706 29.3721 46.7068 29.3991C46.7076 29.4262 46.7077 29.4533 46.707 29.4804C46.7064 29.5075 46.705 29.5345 46.703 29.5615C46.7009 29.5885 46.6981 29.6154 46.6946 29.6422C46.6911 29.669 46.6868 29.6957 46.6819 29.7222C46.677 29.7487 46.6714 29.7751 46.6651 29.8012C46.6587 29.8274 46.6517 29.8533 46.644 29.879L40.872 49.1424C40.851 49.2125 40.8351 49.2841 40.8245 49.357C40.8138 49.43 40.8085 49.5035 40.8085 49.5774C40.8085 49.6513 40.8138 49.7247 40.8245 49.7977C40.8351 49.8707 40.8509 49.9423 40.8719 50.0124L46.6411 69.2767C46.6488 69.3024 46.6558 69.3283 46.6621 69.3545C46.6684 69.3806 46.6741 69.4069 46.679 69.4335C46.6839 69.46 46.6881 69.4867 46.6916 69.5135C46.6951 69.5404 46.6979 69.5673 46.7 69.5943C46.7021 69.6212 46.7034 69.6482 46.7041 69.6753C46.7047 69.7024 46.7046 69.7295 46.7038 69.7566C46.703 69.7836 46.7015 69.8106 46.6993 69.8377C46.6971 69.8647 46.6941 69.8915 46.6905 69.9183C46.6868 69.9451 46.6824 69.9717 46.6774 69.9982C46.6723 70.0247 46.6665 70.051 46.6601 70.0771C46.6536 70.1032 46.6464 70.1291 46.6386 70.1547C46.6307 70.1804 46.6222 70.2058 46.613 70.2309C46.6039 70.256 46.594 70.2807 46.5835 70.3051C46.573 70.3295 46.5619 70.3536 46.5501 70.3773C46.5383 70.401 46.5259 70.4243 46.5129 70.4472C46.4999 70.4701 46.4862 70.4925 46.472 70.5145C46.4578 70.5364 46.4431 70.5579 46.4277 70.5789C46.4124 70.6 46.3965 70.6205 46.38 70.6403C46.3636 70.6603 46.3466 70.6797 46.3292 70.6986C46.3117 70.7174 46.2938 70.7356 46.2753 70.7533C46.2569 70.771 46.238 70.788 46.2187 70.8045C46.1993 70.8209 46.1796 70.8366 46.1594 70.8517C46.1392 70.8668 46.1186 70.8813 46.0977 70.8949C46.0768 70.9087 46.0555 70.9218 46.0338 70.9342C46.0122 70.9465 45.9903 70.9581 45.968 70.969C45.9458 70.9799 45.9232 70.9901 45.9004 70.9994C45.8777 71.0088 45.8546 71.0175 45.8314 71.0255C45.8081 71.0334 45.7847 71.0405 45.7611 71.0469C45.7374 71.0531 45.7137 71.0587 45.6897 71.0635C45.6658 71.0683 45.6418 71.0723 45.6176 71.0754C45.5935 71.0787 45.5693 71.0811 45.545 71.0826C45.5208 71.0842 45.4965 71.085 45.4722 71.0851L38.4545 71.0846C38.4224 71.0846 38.3904 71.0832 38.3584 71.0803C38.3264 71.0775 38.2946 71.0734 38.2629 71.0678C38.2313 71.0623 38.1998 71.0554 38.1686 71.0471C38.1374 71.0388 38.1066 71.0291 38.0761 71.0181C38.0456 71.0072 38.0155 70.9949 37.9858 70.9813C37.9561 70.9677 37.927 70.9528 37.8984 70.9367C37.8698 70.9206 37.8418 70.9032 37.8144 70.8846C37.787 70.866 37.7603 70.8463 37.7342 70.8255C37.7082 70.8046 37.683 70.7826 37.6585 70.7594C37.634 70.7363 37.6104 70.7122 37.5876 70.6871C37.5648 70.662 37.543 70.6358 37.522 70.6087C37.501 70.5817 37.481 70.5538 37.462 70.5251C37.443 70.4963 37.4251 70.4667 37.4081 70.4363C37.3912 70.4059 37.3754 70.3749 37.3606 70.3431C37.3458 70.3114 37.3322 70.2791 37.3197 70.2462C37.3072 70.2133 37.2959 70.1799 37.2858 70.146L31.256 50.0117C31.235 49.9416 31.2192 49.87 31.2086 49.797C31.1979 49.724 31.1926 49.6506 31.1926 49.5767C31.1926 49.5028 31.1979 49.4293 31.2087 49.3563C31.2193 49.2833 31.2351 49.2118 31.2561 49.1417ZM38.5563 29.5963L32.5694 49.5768L38.5534 69.5583L45.282 69.5588L39.573 50.4957C39.3897 49.8834 39.3897 49.2711 39.5732 48.6589L45.2849 29.5968L38.5563 29.5963Z" fill="#FFD4B6"/>
</g>
<g filter="url(#filter3_d_69_161)">
<path fill-rule="evenodd" clip-rule="evenodd" d="M23.4447 31.8299L18.1125 49.6254C18.0939 49.6874 18.08 49.7506 18.0705 49.8151C18.0611 49.8796 18.0564 49.9445 18.0564 50.0099C18.0564 50.0752 18.0611 50.1401 18.0705 50.2046C18.0799 50.2691 18.0939 50.3324 18.1125 50.3944L23.442 68.1907C23.451 68.2207 23.461 68.2503 23.4721 68.2793C23.4831 68.3084 23.4952 68.337 23.5082 68.365C23.5212 68.3931 23.5353 68.4205 23.5502 68.4473C23.5652 68.4742 23.5811 68.5004 23.5979 68.5258C23.6147 68.5512 23.6323 68.5759 23.6508 68.5998C23.6694 68.6237 23.6887 68.6468 23.7088 68.6691C23.729 68.6912 23.7499 68.7125 23.7715 68.733C23.7931 68.7534 23.8155 68.7729 23.8385 68.7913C23.8615 68.8097 23.8851 68.8272 23.9093 68.8436C23.9335 68.86 23.9583 68.8754 23.9836 68.8896C24.0088 68.9039 24.0346 68.9171 24.0608 68.9291C24.087 68.9411 24.1136 68.9519 24.1406 68.9616C24.1676 68.9713 24.1948 68.9799 24.2224 68.9872C24.25 68.9945 24.2778 69.0006 24.3058 69.0055C24.3338 69.0104 24.3619 69.0141 24.3901 69.0166C24.4184 69.0191 24.4467 69.0204 24.475 69.0204L30.6778 69.0208C30.6993 69.0207 30.7208 69.02 30.7423 69.0186C30.7637 69.0172 30.7851 69.0151 30.8065 69.0123C30.8278 69.0095 30.8491 69.006 30.8702 69.0017C30.8913 68.9975 30.9123 68.9926 30.9332 68.987C30.9541 68.9814 30.9749 68.9751 30.9954 68.9681C31.0159 68.9611 31.0363 68.9534 31.0565 68.9452C31.0766 68.9368 31.0964 68.9279 31.1161 68.9182C31.1358 68.9086 31.1552 68.8983 31.1743 68.8874C31.1935 68.8765 31.2123 68.8649 31.2308 68.8527C31.2492 68.8406 31.2674 68.8279 31.2853 68.8145C31.3032 68.8011 31.3206 68.7872 31.3377 68.7728C31.3548 68.7582 31.3715 68.7431 31.3878 68.7275C31.4041 68.7119 31.4199 68.6958 31.4353 68.6792C31.4508 68.6625 31.4658 68.6453 31.4803 68.6277C31.4948 68.6101 31.5089 68.592 31.5225 68.5734C31.536 68.5548 31.5491 68.5358 31.5616 68.5165C31.5742 68.497 31.5862 68.4772 31.5977 68.457C31.6093 68.4367 31.6202 68.4161 31.6306 68.3952C31.6411 68.3742 31.6509 68.353 31.6601 68.3314C31.6695 68.3098 31.6782 68.2879 31.6863 68.2658C31.6944 68.2436 31.7019 68.2212 31.7089 68.1985C31.7158 68.1758 31.7221 68.1529 31.7278 68.1299C31.7335 68.1068 31.7386 68.0835 31.7431 68.0601C31.7476 68.0367 31.7514 68.0132 31.7547 67.9895C31.7579 67.9658 31.7605 67.9421 31.7625 67.9182C31.7645 67.8943 31.7658 67.8705 31.7666 67.8466C31.7672 67.8226 31.7673 67.7987 31.7667 67.7747C31.7662 67.7508 31.765 67.7269 31.7632 67.7031C31.7613 67.6792 31.7588 67.6554 31.7557 67.6317C31.7526 67.608 31.7489 67.5844 31.7446 67.5609C31.7402 67.5375 31.7352 67.5142 31.7296 67.4912C31.7241 67.468 31.7179 67.4451 31.711 67.4224L26.6118 50.395C26.5932 50.333 26.5792 50.2698 26.5698 50.2053C26.5604 50.1407 26.5557 50.0758 26.5557 50.0105C26.5558 49.9452 26.5605 49.8802 26.5699 49.8157C26.5793 49.7512 26.5933 49.688 26.6118 49.626L31.7136 32.5994C31.7204 32.5767 31.7266 32.5538 31.7322 32.5307C31.7378 32.5076 31.7428 32.4843 31.7472 32.4608C31.7515 32.4374 31.7552 32.4138 31.7583 32.3901C31.7615 32.3664 31.764 32.3427 31.7658 32.3188C31.7676 32.2949 31.7688 32.271 31.7693 32.2471C31.7699 32.2232 31.7699 32.1992 31.7692 32.1753C31.7685 32.1514 31.7671 32.1275 31.7651 32.1036C31.7632 32.0798 31.7606 32.056 31.7573 32.0323C31.7541 32.0087 31.7503 31.9851 31.7458 31.9617C31.7413 31.9383 31.7362 31.915 31.7305 31.8919C31.7248 31.8689 31.7185 31.846 31.7116 31.8233C31.7046 31.8007 31.6971 31.7782 31.6889 31.7561C31.6809 31.7339 31.6722 31.712 31.6628 31.6904C31.6536 31.6688 31.6438 31.6476 31.6334 31.6266C31.6229 31.6057 31.612 31.5851 31.6005 31.5649C31.589 31.5446 31.5769 31.5248 31.5644 31.5054C31.5518 31.4859 31.5388 31.4669 31.5252 31.4484C31.5116 31.4298 31.4976 31.4117 31.4831 31.3941C31.4686 31.3764 31.4536 31.3593 31.4381 31.3426C31.4227 31.326 31.4068 31.3098 31.3906 31.2942C31.3743 31.2786 31.3576 31.2635 31.3405 31.249C31.3234 31.2345 31.3059 31.2206 31.2881 31.2072C31.2702 31.1939 31.252 31.1811 31.2335 31.169C31.2151 31.1568 31.1963 31.1453 31.1771 31.1344C31.158 31.1235 31.1386 31.1132 31.1189 31.1035C31.0992 31.0939 31.0794 31.0849 31.0593 31.0766C31.0391 31.0683 31.0187 31.0606 30.9982 31.0536C30.9777 31.0467 30.9569 31.0404 30.936 31.0347C30.9151 31.0291 30.8941 31.0242 30.873 31.02C30.8519 31.0157 30.8306 31.0122 30.8093 31.0094C30.7879 31.0066 30.7666 31.0044 30.7451 31.003C30.7236 31.0016 30.7022 31.0009 30.6807 31.0009L24.4779 31.0004C24.4495 31.0004 24.4212 31.0017 24.393 31.0041C24.3647 31.0066 24.3366 31.0103 24.3086 31.0152C24.2806 31.0201 24.2528 31.0262 24.2252 31.0335C24.1976 31.0409 24.1704 31.0494 24.1434 31.0591C24.1164 31.0688 24.0898 31.0796 24.0636 31.0916C24.0374 31.1037 24.0116 31.1168 23.9863 31.131C23.961 31.1453 23.9363 31.1606 23.9121 31.177C23.8878 31.1935 23.8642 31.2109 23.8412 31.2294C23.8182 31.2478 23.7959 31.2673 23.7743 31.2877C23.7526 31.3081 23.7318 31.3294 23.7116 31.3516C23.6915 31.3738 23.6721 31.3969 23.6536 31.4208C23.6351 31.4447 23.6174 31.4694 23.6006 31.4948C23.5838 31.5203 23.5679 31.5464 23.5529 31.5733C23.538 31.6001 23.524 31.6275 23.5109 31.6556C23.4979 31.6836 23.4858 31.7122 23.4748 31.7413C23.4637 31.7704 23.4537 31.7999 23.4447 31.8299Z" fill="#FFA58A"/>
<path fill-rule="evenodd" clip-rule="evenodd" d="M18.0575 49.6867L23.3897 31.8911C23.3987 31.8612 23.4087 31.8316 23.4197 31.8026C23.4308 31.7735 23.4428 31.7449 23.4559 31.7168C23.4689 31.6888 23.483 31.6614 23.4979 31.6345C23.5129 31.6077 23.5288 31.5816 23.5456 31.5561C23.5624 31.5307 23.58 31.506 23.5986 31.4821C23.6171 31.4582 23.6364 31.4351 23.6566 31.4129C23.6767 31.3907 23.6976 31.3694 23.7193 31.3489C23.7409 31.3285 23.7632 31.3091 23.7862 31.2906C23.8092 31.2722 23.8328 31.2547 23.857 31.2383C23.8813 31.2219 23.906 31.2066 23.9313 31.1923C23.9566 31.1781 23.9824 31.1649 24.0086 31.1529C24.0348 31.1409 24.0614 31.1301 24.0884 31.1204C24.1153 31.1107 24.1426 31.1021 24.1702 31.0948C24.1978 31.0875 24.2255 31.0814 24.2535 31.0765C24.2815 31.0715 24.3097 31.0679 24.3379 31.0654C24.3662 31.0629 24.3945 31.0617 24.4228 31.0617L30.6257 31.0622C30.6472 31.0622 30.6686 31.0629 30.6901 31.0643C30.7115 31.0657 30.7329 31.0678 30.7542 31.0707C30.7756 31.0735 30.7968 31.077 30.818 31.0813C30.8391 31.0855 30.8601 31.0904 30.881 31.096C30.9019 31.1016 30.9226 31.1079 30.9432 31.1149C30.9637 31.1219 30.9841 31.1296 31.0042 31.1379C31.0243 31.1462 31.0442 31.1552 31.0639 31.1648C31.0836 31.1745 31.103 31.1847 31.1221 31.1956C31.1412 31.2066 31.16 31.2181 31.1785 31.2303C31.197 31.2424 31.2152 31.2552 31.233 31.2685C31.2509 31.2819 31.2683 31.2958 31.2854 31.3103C31.3025 31.3248 31.3192 31.3399 31.3355 31.3555C31.3518 31.3711 31.3677 31.3872 31.3831 31.4039C31.3985 31.4205 31.4135 31.4377 31.428 31.4553C31.4426 31.473 31.4566 31.4911 31.4702 31.5097C31.4837 31.5282 31.4968 31.5472 31.5094 31.5667C31.5219 31.5861 31.5339 31.6059 31.5454 31.6261C31.5569 31.6464 31.5679 31.6669 31.5783 31.6879C31.5887 31.7088 31.5986 31.7301 31.6079 31.7517C31.6171 31.7733 31.6258 31.7952 31.634 31.8174C31.6421 31.8395 31.6496 31.8619 31.6565 31.8846C31.6635 31.9073 31.6698 31.9301 31.6755 31.9532C31.6812 31.9763 31.6863 31.9996 31.6908 32.023C31.6953 32.0464 31.6991 32.0699 31.7023 32.0936C31.7056 32.1173 31.7082 32.1411 31.7101 32.1649C31.7121 32.1887 31.7134 32.2126 31.7141 32.2366C31.7148 32.2605 31.7149 32.2844 31.7143 32.3084C31.7138 32.3323 31.7126 32.3562 31.7107 32.3801C31.7089 32.4039 31.7064 32.4277 31.7033 32.4514C31.7002 32.4751 31.6965 32.4987 31.6921 32.5221C31.6878 32.5456 31.6828 32.5689 31.6772 32.592C31.6716 32.6151 31.6654 32.638 31.6586 32.6607L26.5568 49.6873C26.5382 49.7493 26.5243 49.8125 26.5148 49.877C26.5054 49.9415 26.5007 50.0064 26.5007 50.0718C26.5007 50.1371 26.5054 50.202 26.5148 50.2665C26.5242 50.331 26.5382 50.3943 26.5568 50.4563L31.6561 67.4836C31.6629 67.5064 31.6691 67.5293 31.6746 67.5524C31.6802 67.5755 31.6852 67.5988 31.6895 67.6222C31.6939 67.6457 31.6976 67.6693 31.7007 67.693C31.7038 67.7167 31.7063 67.7405 31.7081 67.7644C31.7099 67.7882 31.7111 67.812 31.7117 67.836C31.7123 67.86 31.7122 67.8839 31.7115 67.9079C31.7108 67.9317 31.7095 67.9556 31.7075 67.9795C31.7055 68.0034 31.7029 68.0271 31.6997 68.0507C31.6965 68.0745 31.6926 68.098 31.6881 68.1214C31.6836 68.1448 31.6785 68.168 31.6728 68.1912C31.6671 68.2142 31.6608 68.2371 31.6538 68.2597C31.6469 68.2825 31.6394 68.3049 31.6313 68.3271C31.6231 68.3492 31.6144 68.3711 31.6051 68.3927C31.5959 68.4143 31.586 68.4355 31.5756 68.4564C31.5652 68.4774 31.5542 68.498 31.5427 68.5183C31.5312 68.5385 31.5192 68.5583 31.5066 68.5777C31.4941 68.5971 31.481 68.6161 31.4674 68.6346C31.4539 68.6533 31.4398 68.6714 31.4253 68.689C31.4108 68.7066 31.3958 68.7238 31.3803 68.7405C31.3649 68.7571 31.349 68.7732 31.3327 68.7888C31.3164 68.8044 31.2998 68.8195 31.2827 68.834C31.2656 68.8485 31.2481 68.8624 31.2303 68.8757C31.2124 68.8891 31.1943 68.9019 31.1758 68.914C31.1572 68.9262 31.1384 68.9378 31.1193 68.9487C31.1002 68.9596 31.0808 68.9698 31.0611 68.9795C31.0415 68.9891 31.0215 68.9981 31.0014 69.0063C30.9813 69.0147 30.9609 69.0224 30.9404 69.0294C30.9198 69.0363 30.8991 69.0426 30.8782 69.0483C30.8573 69.0538 30.8363 69.0587 30.8152 69.063C30.794 69.0672 30.7728 69.0708 30.7514 69.0735C30.7301 69.0764 30.7087 69.0785 30.6873 69.0799C30.6658 69.0813 30.6444 69.082 30.6229 69.0821L24.42 69.0816C24.3917 69.0816 24.3634 69.0804 24.3351 69.0778C24.3069 69.0754 24.2787 69.0717 24.2507 69.0668C24.2227 69.0619 24.195 69.0558 24.1674 69.0485C24.1398 69.0412 24.1125 69.0326 24.0856 69.0229C24.0586 69.0132 24.032 69.0024 24.0058 68.9904C23.9796 68.9783 23.9538 68.9652 23.9285 68.9509C23.9032 68.9366 23.8785 68.9213 23.8543 68.9049C23.83 68.8884 23.8064 68.871 23.7834 68.8526C23.7604 68.8341 23.7381 68.8147 23.7165 68.7942C23.6949 68.7738 23.674 68.7525 23.6538 68.7303C23.6337 68.7081 23.6144 68.685 23.5958 68.661C23.5773 68.6372 23.5596 68.6125 23.5428 68.5871C23.526 68.5616 23.5102 68.5355 23.4952 68.5086C23.4802 68.4818 23.4662 68.4543 23.4532 68.4263C23.4401 68.3982 23.4281 68.3697 23.4171 68.3406C23.406 68.3115 23.396 68.282 23.387 68.252L18.0575 50.4556C18.0389 50.3937 18.0249 50.3304 18.0155 50.2659C18.0061 50.2014 18.0014 50.1365 18.0014 50.0711C18.0014 50.0058 18.0061 49.9409 18.0156 49.8764C18.025 49.8119 18.0389 49.7486 18.0575 49.6867ZM24.51 32.4108L19.2183 50.0712L24.5074 67.7326L30.4547 67.733L25.4087 50.8835C25.2466 50.3423 25.2467 49.8011 25.4088 49.2599L30.4573 32.4113L24.51 32.4108Z" fill="#FFD4B6"/>
</g>
<defs>
<filter id="filter0_d_69_161" x="50.4716" y="10.7007" width="45.5981" height="79.1466" filterUnits="userSpaceOnUse" color-interpolation-filters="sRGB">
<feFlood flood-opacity="0" result="BackgroundImageFix"/>
<feColorMatrix in="SourceAlpha" type="matrix" values="0 0 0 0 0 0 0 0 0 0 0 0 0 0 0 0 0 0 127 0" result="hardAlpha"/>
<feOffset/>
<feGaussianBlur stdDeviation="6.65"/>
<feComposite in2="hardAlpha" operator="out"/>
<feColorMatrix type="matrix" values="0 0 0 0 1 0 0 0 0 0.596154 0 0 0 0 0.596154 0 0 0 0.6 0"/>
<feBlend mode="normal" in2="BackgroundImageFix" result="effect1_dropShadow_69_161"/>
<feBlend mode="normal" in="SourceGraphic" in2="effect1_dropShadow_69_161" result="shape"/>
</filter>
<filter id="filter1_d_69_161" x="33.1156" y="12.7005" width="43.9541" height="74.5995" filterUnits="userSpaceOnUse" color-interpolation-filters="sRGB">
<feFlood flood-opacity="0" result="BackgroundImageFix"/>
<feColorMatrix in="SourceAlpha" type="matrix" values="0 0 0 0 0 0 0 0 0 0 0 0 0 0 0 0 0 0 127 0" result="hardAlpha"/>
<feOffset/>
<feGaussianBlur stdDeviation="6.65"/>
<feComposite in2="hardAlpha" operator="out"/>
<feColorMatrix type="matrix" values="0 0 0 0 1 0 0 0 0 0.596154 0 0 0 0 0.596154 0 0 0 0.5 0"/>
<feBlend mode="normal" in2="BackgroundImageFix" result="effect1_dropShadow_69_161"/>
<feBlend mode="normal" in="SourceGraphic" in2="effect1_dropShadow_69_161" result="shape"/>
</filter>
<filter id="filter2_d_69_161" x="17.8926" y="14.7005" width="42.1771" height="69.6847" filterUnits="userSpaceOnUse" color-interpolation-filters="sRGB">
<feFlood flood-opacity="0" result="BackgroundImageFix"/>
<feColorMatrix in="SourceAlpha" type="matrix" values="0 0 0 0 0 0 0 0 0 0 0 0 0 0 0 0 0 0 127 0" result="hardAlpha"/>
<feOffset/>
<feGaussianBlur stdDeviation="6.65"/>
<feComposite in2="hardAlpha" operator="out"/>
<feColorMatrix type="matrix" values="0 0 0 0 1 0 0 0 0 0.596154 0 0 0 0 0.596154 0 0 0 0.44 0"/>
<feBlend mode="normal" in2="BackgroundImageFix" result="effect1_dropShadow_69_161"/>
<feBlend mode="normal" in="SourceGraphic" in2="effect1_dropShadow_69_161" result="shape"/>
</filter>
<filter id="filter3_d_69_161" x="4.70136" y="17.7005" width="40.3684" height="64.6815" filterUnits="userSpaceOnUse" color-interpolation-filters="sRGB">
<feFlood flood-opacity="0" result="BackgroundImageFix"/>
<feColorMatrix in="SourceAlpha" type="matrix" values="0 0 0 0 0 0 0 0 0 0 0 0 0 0 0 0 0 0 127 0" result="hardAlpha"/>
<feOffset/>
<feGaussianBlur stdDeviation="6.65"/>
<feComposite in2="hardAlpha" operator="out"/>
<feColorMatrix type="matrix" values="0 0 0 0 1 0 0 0 0 0.596154 0 0 0 0 0.596154 0 0 0 0.38 0"/>
<feBlend mode="normal" in2="BackgroundImageFix" result="effect1_dropShadow_69_161"/>
<feBlend mode="normal" in="SourceGraphic" in2="effect1_dropShadow_69_161" result="shape"/>
</filter>
</defs>
</svg>
