<?xml version="1.0" encoding="utf-8"?>
<svg width="400" height="400" viewBox="0 0 400 400" fill="none" xmlns="http://www.w3.org/2000/svg">
  <defs>
    <filter color-interpolation-filters="sRGB" x="-308" y="-127" width="310" height="129" id="filter_1">
      <feFlood flood-opacity="0" result="BackgroundImageFix_1" />
      <feColorMatrix type="matrix" values="0 0 0 0 0 0 0 0 0 0 0 0 0 0 0 0 0 0 1 0" in="SourceAlpha" />
      <feMorphology radius="4" operator="dilate" in="SourceAlpha" />
      <feOffset dx="0" dy="0" />
      <feGaussianBlur stdDeviation="1.5" />
      <feColorMatrix type="matrix" values="0 0 0 0 1 0 0 0 0 1 0 0 0 0 1 0 0 0 0.729 0" />
      <feBlend mode="normal" in2="BackgroundImageFix_1" result="Shadow_2" />
      <feBlend mode="normal" in="SourceGraphic" in2="Shadow_2" result="Shape_3" />
    </filter>
    <filter color-interpolation-filters="sRGB" x="-314" y="-140" width="316" height="142" id="filter_2">
      <feFlood flood-opacity="0" result="BackgroundImageFix_1" />
      <feColorMatrix type="matrix" values="0 0 0 0 0 0 0 0 0 0 0 0 0 0 0 0 0 0 1 0" in="SourceAlpha" />
      <feMorphology radius="4" operator="dilate" in="SourceAlpha" />
      <feOffset dx="0" dy="0" />
      <feGaussianBlur stdDeviation="1.5" />
      <feColorMatrix type="matrix" values="0 0 0 0 1 0 0 0 0 1 0 0 0 0 1 0 0 0 0.729 0" />
      <feBlend mode="normal" in2="BackgroundImageFix_1" result="Shadow_2" />
      <feBlend mode="normal" in="SourceGraphic" in2="Shadow_2" result="Shape_3" />
    </filter>
    <filter color-interpolation-filters="sRGB" x="-314" y="-140" width="316" height="142" id="filter_3">
      <feFlood flood-opacity="0" result="BackgroundImageFix_1" />
      <feColorMatrix type="matrix" values="0 0 0 0 0 0 0 0 0 0 0 0 0 0 0 0 0 0 1 0" in="SourceAlpha" />
      <feMorphology radius="4" operator="dilate" in="SourceAlpha" />
      <feOffset dx="0" dy="0" />
      <feGaussianBlur stdDeviation="1.5" />
      <feColorMatrix type="matrix" values="0 0 0 0 1 0 0 0 0 1 0 0 0 0 1 0 0 0 0.729 0" />
      <feBlend mode="normal" in2="BackgroundImageFix_1" result="Shadow_2" />
      <feBlend mode="normal" in="SourceGraphic" in2="Shadow_2" result="Shape_3" />
    </filter>
  </defs>
  <g transform="matrix(-1 0 0 1 400 0)">
    <g fill="#FF8A8A" fill-rule="evenodd" filter="url(#filter_1)" transform="translate(40 131)">
      <path d="M6.76348 49.4962L151.865 1.04677Q152.623 0.793651 153.412 0.66543Q154.201 0.537209 155 0.537207Q155.799 0.537206 156.588 0.665422Q157.377 0.793639 158.135 1.04675L303.237 49.4962Q303.603 49.6186 303.959 49.7692Q304.315 49.9198 304.658 50.0976Q305.001 50.2755 305.329 50.4796Q305.657 50.6836 305.968 50.9126Q306.28 51.1416 306.572 51.3942Q306.864 51.6468 307.136 51.9214Q307.408 52.196 307.658 52.491Q307.907 52.7859 308.133 53.0995Q308.359 53.413 308.56 53.7432Q308.76 54.0733 308.935 54.4182Q309.109 54.763 309.256 55.1203Q309.403 55.4777 309.522 55.8454Q309.64 56.2132 309.73 56.589Q309.82 56.9649 309.88 57.3466Q309.94 57.7283 309.97 58.1135Q310 58.4987 310 58.8851L310 115.259Q310 115.552 309.983 115.844Q309.965 116.137 309.931 116.428Q309.896 116.719 309.845 117.007Q309.793 117.295 309.724 117.58Q309.656 117.864 309.57 118.145Q309.485 118.425 309.383 118.699Q309.281 118.974 309.163 119.242Q309.046 119.51 308.912 119.771Q308.779 120.032 308.63 120.284Q308.481 120.536 308.318 120.779Q308.155 121.022 307.977 121.255Q307.8 121.489 307.609 121.711Q307.418 121.933 307.214 122.143Q307.011 122.354 306.795 122.552Q306.579 122.75 306.352 122.935Q306.125 123.12 305.887 123.291Q305.65 123.462 305.402 123.619Q305.155 123.776 304.899 123.918Q304.643 124.06 304.378 124.186Q304.114 124.313 303.843 124.423Q303.572 124.534 303.295 124.628Q303.018 124.723 302.735 124.801Q302.453 124.879 302.167 124.94Q301.88 125.001 301.591 125.045Q301.301 125.089 301.009 125.116Q300.718 125.143 300.425 125.152Q300.132 125.162 299.84 125.154Q299.547 125.146 299.255 125.121Q298.963 125.096 298.673 125.054Q298.384 125.012 298.097 124.953Q297.81 124.893 297.527 124.817Q297.244 124.741 296.967 124.648L158.135 78.2922Q157.377 78.0391 156.588 77.9109Q155.799 77.7827 155 77.7827Q154.201 77.7827 153.412 77.9109Q152.623 78.0391 151.865 78.2922L13.0334 124.648Q12.7556 124.741 12.4728 124.817Q12.19 124.893 11.9032 124.953Q11.6164 125.012 11.3266 125.054Q11.0368 125.096 10.745 125.121Q10.4532 125.146 10.1604 125.154Q9.86766 125.162 9.57494 125.152Q9.28223 125.143 8.99059 125.116Q8.69895 125.089 8.40942 125.045Q8.11988 125.001 7.83345 124.94Q7.54702 124.879 7.26471 124.801Q6.98239 124.723 6.70518 124.628Q6.42797 124.534 6.15683 124.423Q5.88568 124.313 5.62156 124.186Q5.35744 124.059 5.10126 123.918Q4.84508 123.776 4.59774 123.619Q4.3504 123.462 4.11277 123.291Q3.87514 123.12 3.64804 122.935Q3.42094 122.75 3.20518 122.552Q2.98941 122.354 2.78573 122.143Q2.58205 121.933 2.39117 121.711Q2.20029 121.488 2.02288 121.255Q1.84546 121.022 1.68214 120.779Q1.51881 120.536 1.37014 120.284Q1.22147 120.032 1.08799 119.771Q0.954496 119.51 0.836653 119.242Q0.718809 118.974 0.617024 118.699Q0.515239 118.425 0.429868 118.145Q0.344498 117.864 0.27584 117.58Q0.207182 117.295 0.155477 117.007Q0.103772 116.718 0.0692018 116.428Q0.0346312 116.137 0.0173156 115.844Q0 115.552 0 115.259L0 58.8851Q0 58.4987 0.0301216 58.1135Q0.0602432 57.7283 0.120303 57.3466Q0.180363 56.9649 0.269995 56.589Q0.359628 56.2132 0.478288 55.8454Q0.596948 55.4777 0.743912 55.1203Q0.890877 54.763 1.06525 54.4182Q1.23963 54.0733 1.44035 53.7432Q1.64108 53.413 1.86693 53.0995Q2.09278 52.7859 2.34239 52.491Q2.59199 52.196 2.86383 51.9214Q3.13567 51.6468 3.42809 51.3942Q3.72051 51.1416 4.03173 50.9126Q4.34295 50.6836 4.67107 50.4796Q4.9992 50.2755 5.34223 50.0976Q5.68526 49.9198 6.04112 49.7692Q6.39697 49.6186 6.76348 49.4962Z" />
      <path d="M151.865 0.509567L6.76348 48.959Q6.39697 49.0814 6.04112 49.232Q5.68526 49.3826 5.34223 49.5604Q4.9992 49.7383 4.67107 49.9424Q4.34295 50.1464 4.03173 50.3754Q3.72051 50.6044 3.42809 50.857Q3.13567 51.1096 2.86383 51.3842Q2.59199 51.6588 2.34239 51.9538Q2.09278 52.2487 1.86693 52.5623Q1.64108 52.8758 1.44035 53.206Q1.23963 53.5361 1.06525 53.881Q0.890877 54.2258 0.743912 54.5831Q0.596948 54.9405 0.478288 55.3082Q0.359628 55.676 0.269995 56.0518Q0.180363 56.4277 0.120303 56.8094Q0.0602432 57.1911 0.0301216 57.5763Q0 57.9615 0 58.3479L0 114.722Q0 115.015 0.0173156 115.307Q0.0346311 115.6 0.0692017 115.89Q0.103772 116.181 0.155477 116.47Q0.207181 116.758 0.275839 117.043Q0.344497 117.327 0.429868 117.607Q0.515238 117.888 0.617023 118.162Q0.718808 118.437 0.836651 118.705Q0.954494 118.973 1.08798 119.234Q1.22147 119.494 1.37014 119.747Q1.51881 119.999 1.68213 120.242Q1.84546 120.485 2.02287 120.718Q2.20029 120.951 2.39117 121.173Q2.58205 121.396 2.78573 121.606Q2.98941 121.816 3.20517 122.014Q3.42094 122.213 3.64803 122.397Q3.87513 122.582 4.11276 122.754Q4.3504 122.925 4.59773 123.082Q4.84507 123.238 5.10125 123.38Q5.35743 123.522 5.62155 123.649Q5.88568 123.775 6.15682 123.886Q6.42796 123.997 6.70518 124.091Q6.98239 124.186 7.2647 124.264Q7.54702 124.342 7.83345 124.403Q8.11987 124.464 8.40941 124.508Q8.69895 124.552 8.99059 124.579Q9.28223 124.606 9.57494 124.615Q9.86766 124.625 10.1604 124.617Q10.4532 124.609 10.745 124.584Q11.0368 124.559 11.3266 124.517Q11.6164 124.475 11.9032 124.415Q12.19 124.356 12.4728 124.28Q12.7556 124.204 13.0334 124.111L151.865 77.755Q152.623 77.5019 153.412 77.3737Q154.201 77.2455 155 77.2455Q155.799 77.2455 156.588 77.3737Q157.377 77.5019 158.135 77.755L296.967 124.111Q297.244 124.204 297.527 124.28Q297.81 124.356 298.097 124.415Q298.384 124.475 298.673 124.517Q298.963 124.559 299.255 124.584Q299.547 124.609 299.84 124.617Q300.132 124.625 300.425 124.615Q300.718 124.606 301.009 124.579Q301.301 124.552 301.591 124.508Q301.88 124.464 302.167 124.403Q302.453 124.342 302.735 124.264Q303.018 124.186 303.295 124.091Q303.572 123.997 303.843 123.886Q304.114 123.775 304.378 123.649Q304.643 123.522 304.899 123.38Q305.155 123.238 305.402 123.082Q305.65 122.925 305.887 122.754Q306.125 122.582 306.352 122.397Q306.579 122.213 306.795 122.014Q307.011 121.816 307.214 121.606Q307.418 121.396 307.609 121.173Q307.8 120.951 307.977 120.718Q308.155 120.485 308.318 120.242Q308.481 119.999 308.63 119.747Q308.779 119.494 308.912 119.234Q309.046 118.973 309.163 118.705Q309.281 118.437 309.383 118.162Q309.485 117.888 309.57 117.607Q309.655 117.327 309.724 117.043Q309.793 116.758 309.845 116.47Q309.896 116.181 309.931 115.89Q309.965 115.6 309.983 115.307Q310 115.015 310 114.722L310 58.3479Q310 57.9615 309.97 57.5763Q309.94 57.1911 309.88 56.8094Q309.82 56.4277 309.73 56.0518Q309.64 55.6759 309.522 55.3082Q309.403 54.9405 309.256 54.5831Q309.109 54.2258 308.935 53.8809Q308.76 53.5361 308.56 53.206Q308.359 52.8758 308.133 52.5623Q307.907 52.2487 307.658 51.9538Q307.408 51.6588 307.136 51.3842Q306.864 51.1096 306.572 50.857Q306.28 50.6044 305.968 50.3754Q305.657 50.1464 305.329 49.9424Q305.001 49.7383 304.658 49.5604Q304.315 49.3826 303.959 49.232Q303.603 49.0814 303.237 48.959L158.135 0.509552Q157.377 0.256438 156.588 0.128221Q155.799 4.65449e-06 155 6.60121e-06Q154.201 8.54794e-06 153.412 0.128229Q152.623 0.25645 151.865 0.509567ZM11 59.1415L11 113.193L148.381 67.3213Q155 65.1113 161.619 67.3213L299 113.193L299 59.1415L155 11.0598L11 59.1415Z" fill="#FFB6B6" fill-rule="evenodd" />
    </g>
    <g fill="#FF8A8A" fill-rule="evenodd" filter="url(#filter_2)" transform="translate(40 7)">
      <path d="M13.6727 36.3651L162.669 0.76675Q163.446 0.581324 164.241 0.522612Q165.037 0.463901 165.832 0.533421Q166.627 0.60294 167.4 0.798896Q168.174 0.994852 168.906 1.31218L309.454 62.2301Q309.808 62.3838 310.15 62.5648Q310.492 62.7457 310.818 62.9527Q311.144 63.1597 311.454 63.3916Q311.763 63.6235 312.053 63.8787Q312.344 64.134 312.613 64.4111Q312.883 64.6883 313.13 64.9856Q313.377 65.2829 313.6 65.5986Q313.823 65.9143 314.021 66.2464Q314.219 66.5785 314.39 66.925Q314.562 67.2716 314.705 67.6304Q314.849 67.9893 314.965 68.3582Q315.08 68.7272 315.166 69.104Q315.252 69.4809 315.309 69.8633Q315.366 70.2457 315.392 70.6314Q315.419 71.017 315.415 71.4036Q315.412 71.7902 315.378 72.1753L310.463 128.32Q310.438 128.612 310.395 128.901Q310.352 129.191 310.292 129.478Q310.233 129.764 310.156 130.047Q310.079 130.329 309.986 130.607Q309.893 130.884 309.784 131.156Q309.674 131.428 309.549 131.692Q309.424 131.957 309.283 132.214Q309.142 132.47 308.987 132.718Q308.831 132.966 308.661 133.205Q308.491 133.443 308.307 133.671Q308.124 133.899 307.927 134.116Q307.73 134.332 307.52 134.537Q307.311 134.741 307.09 134.933Q306.868 135.125 306.636 135.304Q306.404 135.482 306.162 135.647Q305.92 135.811 305.668 135.961Q305.417 136.111 305.157 136.245Q304.897 136.38 304.629 136.499Q304.362 136.618 304.088 136.721Q303.814 136.824 303.534 136.911Q303.255 136.998 302.97 137.068Q302.686 137.138 302.398 137.191Q302.11 137.244 301.82 137.28Q301.529 137.316 301.237 137.335Q300.945 137.354 300.652 137.355Q300.359 137.357 300.067 137.341Q299.774 137.325 299.483 137.292Q299.193 137.259 298.904 137.209Q298.616 137.158 298.331 137.091Q298.046 137.024 297.765 136.94Q297.485 136.856 297.21 136.756Q296.935 136.655 296.666 136.539L162.172 78.2451Q161.44 77.9278 160.666 77.7318Q159.893 77.5359 159.098 77.4664Q158.303 77.3968 157.507 77.4556Q156.711 77.5143 155.935 77.6997L13.3586 111.764Q13.0738 111.832 12.7855 111.883Q12.4972 111.934 12.2063 111.968Q11.9155 112.002 11.6232 112.019Q11.3308 112.036 11.038 112.035Q10.7452 112.034 10.453 112.017Q10.1607 111.999 9.87004 111.964Q9.57935 111.928 9.29125 111.876Q9.00314 111.824 8.71864 111.755Q8.43413 111.685 8.15421 111.599Q7.87429 111.514 7.59994 111.411Q7.32559 111.309 7.05776 111.191Q6.78994 111.072 6.52958 110.938Q6.26921 110.804 6.01723 110.655Q5.76524 110.506 5.52251 110.342Q5.27978 110.179 5.04715 110.001Q4.81452 109.823 4.59281 109.632Q4.3711 109.44 4.16108 109.236Q3.95107 109.032 3.75348 108.816Q3.55589 108.6 3.37141 108.373Q3.18694 108.145 3.01623 107.908Q2.84553 107.67 2.68918 107.422Q2.53283 107.174 2.39139 106.918Q2.24995 106.662 2.12391 106.397Q1.99787 106.133 1.88768 105.862Q1.77748 105.591 1.68352 105.313Q1.58955 105.036 1.51214 104.754Q1.43473 104.471 1.37414 104.185Q1.31356 103.898 1.27002 103.609Q1.22647 103.319 1.20012 103.028Q1.17376 102.736 1.1647 102.443Q1.15563 102.151 1.16387 101.858Q1.17212 101.565 1.19765 101.274L6.11213 45.1294Q6.14583 44.7443 6.20946 44.3631Q6.27309 43.9818 6.36626 43.6067Q6.45943 43.2315 6.58156 42.8648Q6.7037 42.4981 6.85406 42.142Q7.00443 41.7859 7.1821 41.4426Q7.35977 41.0994 7.56367 40.771Q7.76758 40.4426 7.99646 40.1311Q8.22535 39.8196 8.47783 39.527Q8.73031 39.2343 9.00484 38.9622Q9.27938 38.6901 9.5743 38.4402Q9.86921 38.1904 10.1827 37.9643Q10.4962 37.7382 10.8264 37.5372Q11.1566 37.3362 11.5014 37.1616Q11.8463 36.987 12.2037 36.8398Q12.5611 36.6926 12.9289 36.5738Q13.2967 36.4549 13.6727 36.3651Z" />
      <path d="M161.51 0.270968L12.5127 35.8693Q12.1368 35.9591 11.769 36.078Q11.4012 36.1968 11.0437 36.344Q10.6863 36.4912 10.3415 36.6658Q9.99664 36.8404 9.66646 37.0414Q9.33628 37.2424 9.02277 37.4685Q8.70927 37.6946 8.41435 37.9444Q8.11943 38.1943 7.8449 38.4664Q7.57037 38.7385 7.31789 39.0312Q7.06541 39.3239 6.83652 39.6353Q6.60763 39.9468 6.40373 40.2752Q6.19983 40.6036 6.02215 40.9469Q5.84448 41.2901 5.69412 41.6462Q5.54375 42.0023 5.42162 42.369Q5.29948 42.7358 5.20631 43.1109Q5.11314 43.486 5.04951 43.8673Q4.98588 44.2486 4.95218 44.6336L0.0377045 100.778Q0.0121718 101.069 0.00392557 101.362Q-0.00432063 101.655 0.00474852 101.947Q0.0138177 102.24 0.0401705 102.532Q0.0665232 102.823 0.110067 103.113Q0.153612 103.402 0.214195 103.689Q0.274779 103.975 0.352189 104.258Q0.4296 104.54 0.523568 104.817Q0.617535 105.095 0.72773 105.366Q0.837926 105.637 0.963964 105.902Q1.09 106.166 1.23144 106.422Q1.37288 106.679 1.52923 106.926Q1.68558 107.174 1.85628 107.412Q2.02699 107.65 2.21146 107.877Q2.39593 108.104 2.59352 108.32Q2.79111 108.537 3.00113 108.741Q3.21115 108.945 3.43286 109.136Q3.65457 109.327 3.8872 109.505Q4.11982 109.683 4.36256 109.847Q4.60529 110.01 4.85728 110.159Q5.10926 110.309 5.36963 110.443Q5.62999 110.576 5.89781 110.695Q6.16564 110.813 6.43999 110.915Q6.71434 111.018 6.99426 111.104Q7.27418 111.19 7.55869 111.259Q7.8432 111.328 8.1313 111.38Q8.4194 111.433 8.71009 111.468Q9.00078 111.503 9.29303 111.521Q9.58529 111.539 9.8781 111.539Q10.1709 111.54 10.4632 111.523Q10.7556 111.506 11.0464 111.473Q11.3372 111.439 11.6255 111.387Q11.9138 111.336 12.1986 111.268L154.775 77.2039Q155.551 77.0185 156.347 76.9598Q157.143 76.9011 157.938 76.9706Q158.733 77.0401 159.506 77.2361Q160.28 77.432 161.012 77.7493L295.506 136.043Q295.775 136.16 296.05 136.26Q296.325 136.36 296.605 136.444Q296.886 136.528 297.171 136.595Q297.456 136.663 297.744 136.713Q298.033 136.763 298.324 136.796Q298.615 136.829 298.907 136.845Q299.199 136.861 299.492 136.859Q299.785 136.858 300.077 136.839Q300.369 136.82 300.66 136.784Q300.95 136.748 301.238 136.695Q301.526 136.642 301.81 136.572Q302.095 136.502 302.374 136.415Q302.654 136.329 302.928 136.226Q303.202 136.122 303.469 136.003Q303.737 135.884 303.997 135.75Q304.257 135.615 304.508 135.465Q304.76 135.315 305.002 135.151Q305.244 134.986 305.476 134.808Q305.709 134.629 305.93 134.437Q306.151 134.246 306.36 134.041Q306.57 133.836 306.767 133.62Q306.964 133.403 307.147 133.175Q307.331 132.947 307.501 132.709Q307.671 132.471 307.827 132.223Q307.982 131.975 308.123 131.718Q308.264 131.461 308.389 131.196Q308.514 130.932 308.624 130.66Q308.733 130.389 308.826 130.111Q308.92 129.834 308.996 129.551Q309.073 129.268 309.133 128.982Q309.192 128.695 309.235 128.406Q309.278 128.116 309.303 127.824L314.218 71.6795Q314.252 71.2944 314.255 70.9078Q314.259 70.5213 314.232 70.1356Q314.206 69.7499 314.149 69.3675Q314.092 68.9851 314.006 68.6082Q313.92 68.2314 313.805 67.8624Q313.689 67.4935 313.545 67.1346Q313.402 66.7758 313.23 66.4293Q313.059 66.0827 312.861 65.7506Q312.663 65.4185 312.44 65.1028Q312.217 64.7871 311.97 64.4898Q311.723 64.1925 311.453 63.9154Q311.184 63.6382 310.893 63.3829Q310.603 63.1277 310.294 62.8958Q309.985 62.664 309.658 62.4569Q309.332 62.2499 308.99 62.069Q308.648 61.888 308.294 61.7343L167.746 0.816401Q167.014 0.49907 166.24 0.303114Q165.467 0.107158 164.672 0.0376386Q163.877 -0.0318812 163.081 0.0268303Q162.286 0.0855419 161.51 0.270968ZM15.8411 46.3837L11.1291 100.214L152.219 66.505Q158.995 64.8862 165.386 67.6566L298.478 125.343L303.191 71.5113L163.709 11.0552L15.8411 46.3837Z" fill="#FFB6B6" fill-rule="evenodd" />
    </g>
    <g fill="#FF8A8A" fill-rule="evenodd" filter="url(#filter_3)" transform="translate(44 256)">
      <path d="M6.54647 62.2296L147.094 1.31216Q147.826 0.994838 148.6 0.798886Q149.373 0.602934 150.168 0.533417Q150.963 0.4639 151.759 0.522613Q152.554 0.581327 153.331 0.766754L302.328 36.3651Q302.704 36.4549 303.072 36.5738Q303.439 36.6926 303.797 36.8398Q304.154 36.987 304.499 37.1616Q304.844 37.3362 305.174 37.5372Q305.504 37.7382 305.818 37.9643Q306.131 38.1904 306.426 38.4402Q306.721 38.6901 306.996 38.9622Q307.27 39.2343 307.523 39.527Q307.775 39.8197 308.004 40.1312Q308.233 40.4426 308.437 40.771Q308.641 41.0994 308.818 41.4427Q308.996 41.786 309.146 42.142Q309.297 42.4981 309.419 42.8649Q309.541 43.2316 309.634 43.6067Q309.727 43.9819 309.791 44.3631Q309.855 44.7444 309.888 45.1295L315.137 105.094Q315.158 105.336 315.167 105.579Q315.177 105.822 315.174 106.065Q315.171 106.307 315.157 106.55Q315.142 106.793 315.116 107.034Q315.089 107.276 315.051 107.516Q315.013 107.756 314.963 107.994Q314.913 108.231 314.851 108.466Q314.79 108.701 314.716 108.933Q314.643 109.165 314.559 109.393Q314.475 109.621 314.379 109.844Q314.284 110.068 314.178 110.286Q314.071 110.505 313.954 110.718Q313.838 110.931 313.71 111.138Q313.583 111.345 313.446 111.546Q313.309 111.746 313.162 111.94Q313.015 112.133 312.859 112.319Q312.703 112.506 312.537 112.684Q312.372 112.862 312.199 113.032Q312.025 113.202 311.843 113.363Q311.661 113.524 311.472 113.677Q311.282 113.829 311.085 113.971Q310.889 114.114 310.685 114.247Q310.482 114.379 310.272 114.502Q310.062 114.625 309.847 114.737Q309.631 114.849 309.41 114.951Q309.189 115.052 308.964 115.143Q308.738 115.233 308.509 115.313Q308.279 115.392 308.046 115.46Q307.812 115.528 307.576 115.584Q307.34 115.641 307.101 115.686Q306.862 115.73 306.621 115.763Q306.381 115.796 306.138 115.818L16.5942 141.138Q16.3521 141.159 16.1093 141.168Q15.8665 141.177 15.6235 141.175Q15.3806 141.172 15.138 141.158Q14.8955 141.143 14.6539 141.117Q14.4124 141.09 14.1725 141.052Q13.9325 141.014 13.6947 140.964Q13.457 140.914 13.2219 140.852Q12.9869 140.79 12.7552 140.717Q12.5234 140.644 12.2956 140.56Q12.0677 140.475 11.8442 140.38Q11.6208 140.285 11.4023 140.178Q11.1838 140.072 10.9707 139.955Q10.7577 139.838 10.5507 139.711Q10.3436 139.584 10.1431 139.447Q9.94255 139.31 9.74898 139.163Q9.55541 139.016 9.36928 138.86Q9.18314 138.703 9.0049 138.538Q8.82665 138.373 8.65672 138.199Q8.48679 138.026 8.32559 137.844Q8.16438 137.662 8.01229 137.473Q7.8602 137.283 7.7176 137.086Q7.57499 136.89 7.4422 136.686Q7.30942 136.483 7.18678 136.273Q7.06414 136.063 6.95194 135.848Q6.83974 135.632 6.73825 135.411Q6.63675 135.191 6.54622 134.965Q6.45568 134.74 6.37632 134.51Q6.29695 134.28 6.22895 134.047Q6.16095 133.814 6.10448 133.578Q6.04801 133.341 6.0032 133.102Q5.95839 132.864 5.92535 132.623Q5.89231 132.382 5.87112 132.14L0.622166 72.1748Q0.588456 71.7897 0.584883 71.4031Q0.581311 71.0166 0.607898 70.6309Q0.634485 70.2452 0.691069 69.8628Q0.747654 69.4804 0.833891 69.1036Q0.920128 68.7267 1.03549 68.3578Q1.15086 67.9888 1.29464 67.6299Q1.43843 67.2711 1.60977 66.9246Q1.78111 66.578 1.97895 66.2459Q2.17679 65.9138 2.39993 65.5981Q2.62308 65.2824 2.87016 64.9851Q3.11724 64.6878 3.38676 64.4107Q3.65627 64.1335 3.94658 63.8783Q4.2369 63.623 4.54623 63.3911Q4.85557 63.1593 5.18204 62.9522Q5.50852 62.7452 5.85014 62.5643Q6.19177 62.3834 6.54647 62.2296Z" />
      <path d="M146.509 0.816376L5.96201 61.7338Q5.60731 61.8876 5.26568 62.0685Q4.92405 62.2494 4.59758 62.4565Q4.2711 62.6635 3.96177 62.8953Q3.65243 63.1272 3.36212 63.3825Q3.07181 63.6377 2.8023 63.9149Q2.53278 64.192 2.2857 64.4893Q2.03861 64.7867 1.81547 65.1023Q1.59233 65.418 1.39449 65.7501Q1.19665 66.0822 1.02531 66.4288Q0.853972 66.7753 0.710183 67.1342Q0.566395 67.493 0.451031 67.862Q0.335666 68.2309 0.249429 68.6078Q0.163192 68.9846 0.106608 69.367Q0.0500239 69.7495 0.0234369 70.1351Q-0.00315004 70.5208 0.000422284 70.9073Q0.00399461 71.2939 0.0377045 71.679L5.28666 131.644Q5.30785 131.886 5.34089 132.127Q5.37392 132.368 5.41873 132.607Q5.46354 132.845 5.52002 133.082Q5.57649 133.318 5.64449 133.551Q5.71249 133.785 5.79186 134.014Q5.87122 134.244 5.96176 134.469Q6.05229 134.695 6.15378 134.916Q6.25528 135.136 6.36748 135.352Q6.47968 135.567 6.60232 135.777Q6.72496 135.987 6.85774 136.19Q6.99053 136.394 7.13313 136.591Q7.27574 136.787 7.42783 136.977Q7.57992 137.166 7.74113 137.348Q7.90233 137.53 8.07226 137.704Q8.24219 137.877 8.42043 138.043Q8.59868 138.208 8.78481 138.364Q8.97095 138.52 9.16452 138.667Q9.35809 138.814 9.55864 138.951Q9.75919 139.088 9.96622 139.215Q10.1733 139.342 10.3863 139.459Q10.5993 139.576 10.8178 139.683Q11.0363 139.789 11.2598 139.884Q11.4832 139.98 11.7111 140.064Q11.939 140.148 12.1707 140.221Q12.4024 140.294 12.6375 140.356Q12.8725 140.418 13.1103 140.468Q13.3481 140.518 13.588 140.556Q13.828 140.594 14.0695 140.621Q14.311 140.647 14.5536 140.662Q14.7961 140.676 15.0391 140.679Q15.282 140.682 15.5248 140.672Q15.7676 140.663 16.0097 140.642L305.554 115.322Q306.038 115.28 306.516 115.19Q306.994 115.1 307.461 114.964Q307.928 114.828 308.379 114.647Q308.831 114.466 309.262 114.241Q309.693 114.017 310.101 113.751Q310.508 113.485 310.887 113.181Q311.266 112.876 311.614 112.536Q311.962 112.196 312.274 111.824Q312.587 111.451 312.861 111.05Q313.136 110.648 313.37 110.222Q313.604 109.796 313.795 109.348Q313.986 108.901 314.132 108.437Q314.278 107.974 314.378 107.498Q314.478 107.022 314.531 106.538Q314.584 106.055 314.589 105.569Q314.595 105.082 314.552 104.598L309.304 44.6337Q309.27 44.2486 309.207 43.8673Q309.143 43.4861 309.05 43.1109Q308.957 42.7358 308.834 42.3691Q308.712 42.0023 308.562 41.6463Q308.412 41.2902 308.234 40.9469Q308.056 40.6036 307.852 40.2752Q307.648 39.9468 307.42 39.6354Q307.191 39.3239 306.938 39.0312Q306.686 38.7385 306.411 38.4664Q306.137 38.1943 305.842 37.9445Q305.547 37.6946 305.233 37.4685Q304.92 37.2424 304.59 37.0414Q304.259 36.8404 303.915 36.6658Q303.57 36.4912 303.212 36.344Q302.855 36.1969 302.487 36.078Q302.119 35.9591 301.743 35.8693L152.746 0.270966Q151.97 0.085538 151.174 0.0268246Q150.378 -0.0318889 149.584 0.0376281Q148.789 0.107145 148.015 0.303097Q147.242 0.499049 146.509 0.816376ZM11.065 71.5108L16.1487 129.588L303.498 104.46L298.415 46.3837L150.547 11.0552L11.065 71.5108Z" fill="#FFB6B6" fill-rule="evenodd" />
    </g>
  </g>
</svg>