<svg width="400" height="400" viewBox="0 0 400 400" fill="none" xmlns="http://www.w3.org/2000/svg">
<g clip-path="url(#clip0_6_32)">
<mask id="mask0_6_32" style="mask-type:luminance" maskUnits="userSpaceOnUse" x="0" y="-16" width="400" height="400">
<path d="M400 -16H0V384H400V-16Z" fill="white"/>
</mask>
<g mask="url(#mask0_6_32)">
<g filter="url(#filter0_d_6_32)">
<path fill-rule="evenodd" clip-rule="evenodd" d="M109.735 276.111C100.61 285.236 89.1052 296.741 79.9806 305.865C71.4267 314.419 71.3581 328.4 80.8248 335.93C94.8757 347.105 110.445 356.287 127.097 363.184C150.51 372.882 175.602 377.873 200.944 377.873C226.286 377.873 251.379 372.882 274.791 363.184C291.443 356.287 307.012 347.105 321.063 335.929C330.53 328.4 330.462 314.419 321.908 305.865C312.783 296.741 301.278 285.236 292.153 276.111C283.599 267.557 269.82 267.788 259.707 274.425C254.101 278.105 248.149 281.259 241.924 283.837C228.932 289.219 215.007 291.989 200.944 291.988C186.881 291.989 172.956 289.219 159.964 283.837C153.739 281.259 147.787 278.105 142.181 274.425C132.068 267.788 118.288 267.558 109.735 276.111Z" fill="#FF8A8A"/>
<path fill-rule="evenodd" clip-rule="evenodd" d="M78.699 304.963L108.453 275.209C117.007 266.655 130.787 266.885 140.899 273.523C146.505 277.203 152.457 280.357 158.682 282.935C171.675 288.317 185.6 291.086 199.662 291.086C213.725 291.086 227.65 288.317 240.643 282.935C246.868 280.357 252.82 277.203 258.426 273.523C268.538 266.885 282.318 266.655 290.872 275.209L320.626 304.963C329.179 313.517 329.249 327.498 319.781 335.027C305.731 346.203 290.161 355.384 273.509 362.282C250.097 371.98 225.004 376.971 199.662 376.971C174.321 376.971 149.228 371.98 125.816 362.282C109.164 355.384 93.594 346.203 79.5441 335.027C70.0762 327.498 70.1458 313.517 78.699 304.963ZM104.181 300.691L119.058 285.814C120.422 284.451 122.257 283.732 124.564 283.659C127.393 283.57 130.095 284.371 132.67 286.061C139.09 290.275 145.848 293.852 152.943 296.791C167.9 302.987 183.473 306.084 199.663 306.084C215.852 306.084 231.425 302.987 246.382 296.791C253.477 293.852 260.235 290.275 266.655 286.061C269.23 284.371 271.932 283.57 274.761 283.659C277.068 283.732 278.903 284.451 280.267 285.814L310.021 315.568C311.348 316.895 311.996 318.411 311.966 320.115C311.943 321.444 311.436 322.502 310.446 323.29C297.398 333.667 283.172 342.046 267.77 348.426C245.966 357.457 223.263 361.973 199.662 361.973C176.062 361.973 153.359 357.457 131.555 348.426C116.153 342.046 101.927 333.667 88.8794 323.29C87.8891 322.502 87.3824 321.444 87.3591 320.115C87.3289 318.411 87.9772 316.895 89.304 315.568L104.181 300.691Z" fill="#FFB6B6"/>
</g>
</g>
</g>
<defs>
<filter id="filter0_d_6_32" x="64.3617" y="260.657" width="271.883" height="125.215" filterUnits="userSpaceOnUse" color-interpolation-filters="sRGB">
<feFlood flood-opacity="0" result="BackgroundImageFix"/>
<feColorMatrix in="SourceAlpha" type="matrix" values="0 0 0 0 0 0 0 0 0 0 0 0 0 0 0 0 0 0 127 0" result="hardAlpha"/>
<feOffset/>
<feGaussianBlur stdDeviation="3.9994"/>
<feColorMatrix type="matrix" values="0 0 0 0 1 0 0 0 0 1 0 0 0 0 1 0 0 0 0.251 0"/>
<feBlend mode="normal" in2="BackgroundImageFix" result="effect1_dropShadow_6_32"/>
<feBlend mode="normal" in="SourceGraphic" in2="effect1_dropShadow_6_32" result="shape"/>
</filter>
<clipPath id="clip0_6_32">
<rect width="400" height="400" fill="white"/>
</clipPath>
</defs>
</svg>
