<svg width="168" height="370" viewBox="0 0 168 370" fill="none" xmlns="http://www.w3.org/2000/svg">
<path fill-rule="evenodd" clip-rule="evenodd" d="M27.3239 311.95L51.3142 330.504C51.3978 330.568 51.4679 330.639 51.5246 330.716C51.5814 330.793 51.624 330.876 51.6524 330.963C51.6808 331.051 51.6947 331.142 51.6941 331.238C51.6935 331.334 51.6784 331.432 51.6488 331.534L43.146 360.645C43.1317 360.694 43.114 360.744 43.093 360.794C43.072 360.844 43.0477 360.894 43.0202 360.944C42.9926 360.995 42.9618 361.045 42.9279 361.096C42.894 361.147 42.857 361.198 42.8168 361.248C42.7767 361.299 42.7336 361.35 42.6875 361.4C42.6415 361.45 42.5926 361.5 42.5409 361.55C42.4891 361.6 42.4347 361.649 42.3777 361.698C42.3207 361.747 42.2611 361.795 42.199 361.842C42.137 361.89 42.0726 361.936 42.0059 361.982C41.9393 362.028 41.8705 362.073 41.7996 362.117C41.7287 362.162 41.656 362.205 41.5813 362.247C41.5067 362.289 41.4303 362.33 41.3523 362.369C41.2743 362.409 41.1949 362.448 41.1141 362.485C41.0333 362.522 40.9512 362.557 40.868 362.592C40.7848 362.626 40.7007 362.659 40.6157 362.69C40.5307 362.721 40.445 362.751 40.3586 362.779L21.4547 368.922C21.3892 368.943 21.3234 368.963 21.2573 368.982C21.1914 369.002 21.1253 369.02 21.059 369.037C20.9927 369.055 20.9265 369.071 20.8602 369.086C20.794 369.102 20.7278 369.116 20.6617 369.129C20.5955 369.142 20.5296 369.154 20.464 369.165C20.3984 369.176 20.333 369.186 20.2679 369.195C20.2031 369.204 20.1386 369.211 20.0744 369.218C20.0103 369.225 19.9467 369.23 19.8837 369.234C19.8205 369.239 19.7582 369.242 19.6965 369.244C19.6349 369.246 19.5739 369.247 19.5136 369.247C19.4534 369.246 19.3942 369.245 19.3358 369.243C19.2774 369.24 19.2199 369.236 19.1635 369.232C19.1071 369.227 19.0518 369.221 18.9976 369.214C18.9432 369.207 18.89 369.199 18.8381 369.19C18.7862 369.18 18.7355 369.17 18.686 369.159C18.6366 369.147 18.5885 369.135 18.5419 369.121C18.4952 369.107 18.4499 369.093 18.406 369.077C18.3621 369.061 18.3197 369.045 18.2788 369.027C18.238 369.009 18.1988 368.991 18.1612 368.971C18.1234 368.951 18.0873 368.93 18.0528 368.909C18.0186 368.887 17.9859 368.865 17.9548 368.841C17.9239 368.817 17.8948 368.793 17.8673 368.768C17.8398 368.743 17.8141 368.716 17.7903 368.69C17.7665 368.663 17.7445 368.635 17.7244 368.606C17.7042 368.578 17.686 368.549 17.6696 368.519C17.6531 368.489 17.6386 368.458 17.626 368.427C17.6135 368.395 17.603 368.363 17.5944 368.331C17.5855 368.298 17.5787 368.265 17.5739 368.231C17.5691 368.197 17.5664 368.163 17.5657 368.128C17.5647 368.093 17.5658 368.058 17.5687 368.023C17.5719 367.987 17.577 367.951 17.584 367.914C17.5909 367.878 17.5998 367.841 17.6107 367.804L25.746 339.95C25.7756 339.849 25.7908 339.75 25.7913 339.654C25.7919 339.559 25.778 339.467 25.7496 339.379C25.7212 339.292 25.6786 339.21 25.6218 339.133C25.5651 339.056 25.495 338.985 25.4114 338.92L2.45781 321.168C2.42714 321.144 2.39827 321.12 2.37122 321.094C2.34417 321.069 2.31884 321.042 2.29522 321.015C2.27183 320.988 2.25028 320.96 2.23058 320.932C2.21066 320.903 2.19271 320.874 2.17674 320.844C2.16077 320.813 2.14679 320.783 2.13481 320.751C2.12261 320.72 2.1123 320.688 2.1039 320.655C2.09572 320.622 2.08946 320.589 2.08512 320.555C2.08078 320.521 2.07838 320.486 2.07791 320.452C2.07745 320.417 2.07894 320.381 2.08238 320.346C2.08583 320.31 2.09125 320.274 2.09864 320.237C2.10604 320.2 2.11531 320.164 2.12646 320.126C2.13784 320.089 2.15111 320.052 2.16627 320.014C2.18122 319.976 2.19819 319.938 2.21718 319.9C2.23595 319.862 2.25665 319.824 2.27928 319.785C2.30191 319.747 2.32638 319.709 2.35267 319.67C2.37897 319.632 2.40701 319.593 2.43678 319.555C2.46655 319.516 2.49808 319.478 2.53136 319.44C2.56464 319.401 2.59957 319.363 2.63615 319.325C2.67274 319.287 2.711 319.249 2.75092 319.212C2.79062 319.174 2.83189 319.137 2.87473 319.1C2.91756 319.063 2.96187 319.026 3.00765 318.99C3.05342 318.953 3.10057 318.917 3.14908 318.882C3.19782 318.846 3.24771 318.811 3.29875 318.777C3.3498 318.742 3.40212 318.708 3.45572 318.674C3.50932 318.641 3.56398 318.608 3.6197 318.576C3.67542 318.543 3.73209 318.511 3.78972 318.48C3.84758 318.449 3.90629 318.419 3.96585 318.389C4.0254 318.359 4.08581 318.331 4.14708 318.302C4.20835 318.274 4.27026 318.247 4.33281 318.22C4.39535 318.194 4.45853 318.168 4.52236 318.143C4.58618 318.118 4.65043 318.094 4.71509 318.071C4.77997 318.048 4.84516 318.025 4.91067 318.004L23.8145 311.862C23.9009 311.834 23.9877 311.807 24.0749 311.783C24.1621 311.758 24.2494 311.735 24.3369 311.714C24.4243 311.693 24.5117 311.674 24.5989 311.656C24.6861 311.639 24.7729 311.623 24.8594 311.609C24.9458 311.596 25.0315 311.584 25.1167 311.574C25.2018 311.564 25.286 311.556 25.3693 311.55C25.4526 311.544 25.5347 311.54 25.6157 311.538C25.6966 311.536 25.7761 311.536 25.8543 311.538C25.9324 311.54 26.0089 311.544 26.0837 311.55C26.1585 311.556 26.2314 311.564 26.3025 311.574C26.3736 311.583 26.4425 311.595 26.5094 311.609C26.5763 311.622 26.6408 311.638 26.7031 311.655C26.7654 311.673 26.8252 311.692 26.8825 311.713C26.9397 311.734 26.9944 311.757 27.0463 311.782C27.0983 311.807 27.1474 311.833 27.1938 311.861C27.2401 311.889 27.2835 311.919 27.3239 311.95Z" fill="#EDEFFF"/>
<path fill-rule="evenodd" clip-rule="evenodd" d="M64.1734 291.227L92.7231 301.459C92.8225 301.495 92.9111 301.541 92.9889 301.597C93.0667 301.652 93.1326 301.717 93.1867 301.792C93.2407 301.866 93.2823 301.949 93.3113 302.04C93.3403 302.132 93.3564 302.23 93.3596 302.335L94.2689 332.65C94.2705 332.701 94.2689 332.753 94.2643 332.807C94.2598 332.861 94.2522 332.917 94.2416 332.973C94.231 333.03 94.2174 333.087 94.2008 333.146C94.1842 333.205 94.1647 333.265 94.1422 333.325C94.1197 333.386 94.0943 333.447 94.066 333.509C94.0378 333.571 94.0068 333.634 93.973 333.697C93.9391 333.761 93.9026 333.824 93.8634 333.888C93.8243 333.952 93.7825 334.016 93.7382 334.081C93.6938 334.145 93.647 334.209 93.5978 334.274C93.5486 334.338 93.4971 334.402 93.4433 334.466C93.3896 334.53 93.3337 334.593 93.2757 334.657C93.2177 334.72 93.1577 334.782 93.0958 334.844C93.0339 334.906 92.9703 334.967 92.9049 335.027C92.8394 335.087 92.7725 335.147 92.7039 335.205C92.6354 335.263 92.5655 335.32 92.4943 335.377C92.4232 335.433 92.3508 335.487 92.2773 335.541L76.1968 347.224C76.141 347.264 76.0847 347.304 76.0278 347.343C75.9711 347.382 75.9139 347.42 75.8562 347.456C75.7986 347.494 75.7406 347.529 75.6823 347.564C75.624 347.599 75.5655 347.633 75.5067 347.666C75.4478 347.699 75.3889 347.731 75.3299 347.762C75.2708 347.793 75.2117 347.822 75.1526 347.851C75.0936 347.879 75.0346 347.906 74.9757 347.932C74.9167 347.959 74.8579 347.983 74.7993 348.007C74.7406 348.031 74.6822 348.053 74.6242 348.074C74.5663 348.095 74.5086 348.115 74.4511 348.133C74.3938 348.151 74.3371 348.168 74.2808 348.184C74.2244 348.2 74.1687 348.214 74.1135 348.227C74.0584 348.24 74.004 348.251 73.9503 348.261C73.8964 348.272 73.8433 348.28 73.791 348.287C73.7388 348.295 73.6874 348.301 73.6368 348.305C73.5862 348.309 73.5367 348.312 73.4881 348.314C73.4395 348.315 73.3919 348.315 73.3453 348.314C73.2987 348.313 73.2532 348.31 73.2089 348.306C73.1646 348.301 73.1215 348.296 73.0797 348.289C73.0376 348.282 72.9969 348.273 72.9575 348.263C72.9182 348.253 72.8801 348.242 72.8433 348.229C72.8066 348.216 72.7714 348.202 72.7374 348.186C72.7035 348.171 72.671 348.154 72.64 348.136C72.6091 348.118 72.5796 348.098 72.5516 348.077C72.5237 348.056 72.4973 348.034 72.4724 348.011C72.4475 347.987 72.4242 347.962 72.4025 347.937C72.381 347.911 72.3611 347.883 72.3428 347.855C72.3243 347.827 72.3076 347.797 72.2926 347.767C72.2776 347.736 72.2644 347.704 72.2529 347.671C72.2413 347.639 72.2314 347.605 72.2232 347.57C72.2152 347.535 72.2088 347.499 72.2042 347.462C72.1995 347.425 72.1966 347.387 72.1955 347.349L71.3253 318.344C71.3222 318.239 71.3061 318.14 71.2771 318.049C71.2481 317.958 71.2065 317.875 71.1524 317.801C71.0984 317.726 71.0324 317.661 70.9547 317.605C70.8769 317.55 70.7883 317.504 70.6888 317.468L43.3729 307.678C43.3364 307.665 43.3014 307.65 43.2678 307.635C43.2342 307.619 43.202 307.602 43.1712 307.583C43.1406 307.565 43.1115 307.545 43.0839 307.524C43.0561 307.503 43.0299 307.48 43.0054 307.456C42.9809 307.433 42.9581 307.408 42.937 307.381C42.9156 307.355 42.8959 307.328 42.8778 307.299C42.8599 307.271 42.8436 307.241 42.829 307.21C42.8144 307.179 42.8015 307.147 42.7903 307.114C42.7791 307.081 42.7696 307.047 42.7618 307.012C42.754 306.977 42.748 306.941 42.7437 306.904C42.7394 306.867 42.7368 306.829 42.736 306.79C42.7353 306.751 42.7363 306.711 42.7391 306.67C42.7416 306.63 42.7461 306.589 42.7523 306.547C42.7584 306.505 42.7663 306.462 42.776 306.418C42.7856 306.375 42.797 306.331 42.8101 306.286C42.8233 306.241 42.838 306.196 42.8545 306.15C42.8709 306.105 42.889 306.058 42.9088 306.012C42.9287 305.965 42.9501 305.918 42.9731 305.87C42.9962 305.823 43.0209 305.775 43.0472 305.727C43.0734 305.679 43.1011 305.631 43.1304 305.582C43.1597 305.534 43.1905 305.485 43.2228 305.437C43.2551 305.388 43.2888 305.339 43.324 305.29C43.3593 305.241 43.3959 305.193 43.4338 305.144C43.4717 305.095 43.5109 305.047 43.5515 304.998C43.5921 304.95 43.6339 304.901 43.6769 304.853C43.7199 304.805 43.764 304.758 43.8092 304.71C43.8546 304.663 43.901 304.616 43.9485 304.569C43.996 304.523 44.0445 304.476 44.094 304.431C44.1436 304.385 44.194 304.34 44.2453 304.295C44.2965 304.25 44.3487 304.206 44.4017 304.163C44.4547 304.12 44.5083 304.077 44.5627 304.035C44.6172 303.993 44.6724 303.952 44.7281 303.911L60.8087 292.228C60.8822 292.174 60.9565 292.123 61.0318 292.072C61.1071 292.022 61.1831 291.973 61.2597 291.926C61.3364 291.879 61.4135 291.833 61.491 291.79C61.5686 291.746 61.6463 291.704 61.7243 291.665C61.8023 291.625 61.8802 291.587 61.9581 291.552C62.036 291.516 62.1136 291.482 62.191 291.451C62.2684 291.419 62.3453 291.39 62.4216 291.363C62.498 291.336 62.5736 291.312 62.6486 291.29C62.7235 291.267 62.7974 291.247 62.8704 291.23C62.9434 291.212 63.0152 291.197 63.0858 291.185C63.1564 291.172 63.2256 291.162 63.2934 291.154C63.3613 291.147 63.4275 291.142 63.4921 291.139C63.5567 291.136 63.6195 291.136 63.6805 291.138C63.7415 291.141 63.8006 291.146 63.8576 291.153C63.9146 291.16 63.9695 291.17 64.0222 291.183C64.0749 291.195 64.1253 291.21 64.1734 291.227Z" fill="#EDEFFF"/>
<path fill-rule="evenodd" clip-rule="evenodd" d="M92.8159 260.132L123.13 261.041C123.236 261.044 123.334 261.06 123.425 261.089C123.517 261.118 123.599 261.16 123.674 261.214C123.748 261.268 123.813 261.334 123.869 261.412C123.925 261.489 123.971 261.578 124.006 261.677L134.239 290.227C134.256 290.275 134.271 290.326 134.283 290.378C134.295 290.431 134.305 290.486 134.313 290.543C134.32 290.6 134.325 290.659 134.327 290.72C134.33 290.781 134.33 290.844 134.327 290.909C134.324 290.973 134.319 291.039 134.311 291.107C134.304 291.175 134.294 291.244 134.281 291.315C134.268 291.385 134.253 291.457 134.236 291.53C134.218 291.603 134.199 291.677 134.176 291.752C134.154 291.827 134.129 291.903 134.102 291.979C134.075 292.055 134.046 292.132 134.015 292.21C133.984 292.287 133.95 292.365 133.914 292.443C133.879 292.52 133.841 292.598 133.801 292.676C133.761 292.754 133.72 292.832 133.676 292.91C133.633 292.987 133.587 293.064 133.54 293.141C133.493 293.217 133.444 293.293 133.394 293.369C133.343 293.444 133.291 293.518 133.238 293.592L121.555 309.673C121.514 309.728 121.473 309.783 121.431 309.838C121.389 309.892 121.346 309.946 121.303 309.999C121.259 310.052 121.215 310.104 121.171 310.155C121.126 310.207 121.081 310.257 121.035 310.307C120.989 310.356 120.943 310.405 120.897 310.452C120.85 310.5 120.803 310.546 120.755 310.591C120.708 310.637 120.66 310.681 120.612 310.724C120.564 310.767 120.516 310.808 120.468 310.849C120.419 310.89 120.371 310.929 120.322 310.967C120.273 311.005 120.224 311.041 120.175 311.077C120.127 311.112 120.078 311.145 120.029 311.178C119.981 311.21 119.932 311.241 119.883 311.27C119.835 311.299 119.787 311.327 119.739 311.353C119.691 311.38 119.643 311.404 119.595 311.427C119.548 311.451 119.501 311.472 119.454 311.492C119.407 311.512 119.361 311.53 119.316 311.546C119.27 311.563 119.225 311.577 119.18 311.59C119.135 311.604 119.091 311.615 119.047 311.625C119.004 311.634 118.961 311.642 118.919 311.648C118.877 311.655 118.836 311.659 118.795 311.662C118.755 311.664 118.715 311.665 118.676 311.665C118.637 311.664 118.599 311.661 118.562 311.657C118.525 311.653 118.489 311.647 118.454 311.639C118.419 311.631 118.385 311.622 118.352 311.61C118.319 311.599 118.287 311.586 118.256 311.572C118.225 311.557 118.195 311.541 118.167 311.523C118.138 311.505 118.111 311.485 118.084 311.464C118.058 311.442 118.033 311.42 118.009 311.395C117.986 311.371 117.963 311.345 117.942 311.317C117.921 311.289 117.901 311.26 117.883 311.229C117.864 311.199 117.847 311.166 117.831 311.133C117.815 311.099 117.801 311.064 117.788 311.028L107.997 283.712C107.962 283.612 107.916 283.524 107.86 283.446C107.805 283.368 107.74 283.302 107.665 283.248C107.591 283.194 107.508 283.152 107.417 283.123C107.325 283.094 107.227 283.078 107.121 283.075L78.1171 282.205C78.0784 282.204 78.0406 282.201 78.0037 282.196C77.9669 282.192 77.931 282.185 77.896 282.177C77.8611 282.169 77.8273 282.159 77.7945 282.148C77.7615 282.136 77.7298 282.123 77.6991 282.108C77.6685 282.093 77.639 282.076 77.6108 282.058C77.5824 282.039 77.5552 282.02 77.5292 281.998C77.5033 281.976 77.4787 281.953 77.4552 281.928C77.4318 281.903 77.4096 281.877 77.3888 281.849C77.3679 281.821 77.3483 281.792 77.33 281.761C77.3118 281.73 77.2949 281.697 77.2794 281.663C77.2639 281.629 77.2497 281.594 77.2369 281.557C77.2242 281.52 77.2128 281.482 77.2029 281.443C77.1929 281.404 77.1843 281.363 77.1773 281.321C77.1701 281.279 77.1643 281.236 77.1601 281.192C77.1559 281.147 77.1531 281.102 77.1517 281.055C77.1504 281.009 77.1504 280.961 77.1519 280.912C77.1534 280.864 77.1564 280.814 77.1608 280.764C77.1652 280.713 77.171 280.662 77.1783 280.61C77.1855 280.557 77.1943 280.504 77.2044 280.45C77.2145 280.397 77.226 280.342 77.2388 280.287C77.2517 280.232 77.266 280.176 77.2817 280.12C77.2974 280.064 77.3144 280.007 77.3327 279.949C77.3512 279.892 77.371 279.834 77.3919 279.776C77.4129 279.718 77.4352 279.66 77.4588 279.601C77.4825 279.543 77.5073 279.484 77.5333 279.425C77.5594 279.366 77.5866 279.307 77.615 279.248C77.6435 279.189 77.6731 279.13 77.7039 279.071C77.7346 279.012 77.7664 278.953 77.7994 278.894C77.8324 278.835 77.8664 278.777 77.9014 278.718C77.9363 278.66 77.9723 278.602 78.0093 278.544C78.0463 278.487 78.0841 278.429 78.1229 278.373C78.1617 278.316 78.2014 278.26 78.2419 278.204L89.9251 262.123C89.9785 262.05 90.0332 261.977 90.0893 261.906C90.1453 261.835 90.2025 261.765 90.2608 261.697C90.3191 261.628 90.3784 261.561 90.4387 261.496C90.499 261.43 90.5601 261.367 90.6219 261.305C90.6838 261.243 90.7462 261.183 90.8093 261.125C90.8724 261.067 90.9358 261.011 90.9997 260.957C91.0636 260.903 91.1277 260.852 91.192 260.803C91.2563 260.754 91.3207 260.707 91.385 260.662C91.4494 260.618 91.5136 260.576 91.5776 260.537C91.6416 260.498 91.7052 260.461 91.7685 260.428C91.8317 260.394 91.8944 260.363 91.9566 260.334C92.0187 260.306 92.0801 260.281 92.1407 260.258C92.2013 260.236 92.261 260.216 92.3198 260.2C92.3785 260.183 92.4362 260.17 92.4927 260.159C92.5492 260.148 92.6045 260.141 92.6584 260.136C92.7124 260.132 92.7649 260.13 92.8159 260.132Z" fill="#EDEFFF"/>
<path fill-rule="evenodd" clip-rule="evenodd" d="M110.447 221.707L139.559 213.204C139.66 213.175 139.759 213.16 139.855 213.159C139.95 213.158 140.042 213.172 140.13 213.201C140.217 213.229 140.299 213.272 140.376 213.328C140.453 213.385 140.524 213.455 140.589 213.539L159.143 237.529C159.174 237.57 159.204 237.613 159.232 237.659C159.26 237.706 159.286 237.755 159.311 237.807C159.335 237.859 159.358 237.913 159.379 237.971C159.401 238.028 159.42 238.088 159.437 238.15C159.455 238.212 159.47 238.277 159.484 238.344C159.498 238.411 159.509 238.48 159.519 238.551C159.529 238.622 159.537 238.695 159.543 238.769C159.549 238.844 159.553 238.921 159.555 238.999C159.557 239.077 159.557 239.157 159.555 239.237C159.553 239.318 159.549 239.401 159.543 239.484C159.537 239.567 159.529 239.651 159.519 239.736C159.509 239.822 159.497 239.907 159.484 239.994C159.47 240.08 159.454 240.167 159.437 240.254C159.419 240.341 159.4 240.429 159.379 240.516C159.358 240.604 159.335 240.691 159.31 240.778C159.285 240.865 159.259 240.952 159.231 241.039L153.089 259.942C153.067 260.008 153.045 260.073 153.022 260.138C152.999 260.203 152.975 260.267 152.95 260.331C152.925 260.395 152.899 260.458 152.873 260.52C152.846 260.583 152.819 260.645 152.791 260.706C152.762 260.767 152.733 260.828 152.704 260.887C152.674 260.947 152.644 261.006 152.612 261.063C152.581 261.121 152.55 261.178 152.517 261.233C152.485 261.289 152.452 261.344 152.418 261.397C152.385 261.451 152.351 261.503 152.316 261.554C152.282 261.605 152.246 261.655 152.211 261.704C152.175 261.753 152.139 261.8 152.103 261.845C152.067 261.891 152.03 261.936 151.993 261.978C151.956 262.021 151.919 262.062 151.881 262.102C151.843 262.142 151.806 262.18 151.768 262.217C151.73 262.254 151.691 262.288 151.653 262.322C151.615 262.355 151.576 262.387 151.538 262.416C151.5 262.446 151.461 262.474 151.423 262.5C151.384 262.527 151.346 262.551 151.307 262.574C151.269 262.596 151.231 262.617 151.193 262.636C151.155 262.655 151.117 262.672 151.079 262.687C151.041 262.702 151.004 262.715 150.966 262.727C150.929 262.738 150.892 262.747 150.856 262.754C150.819 262.762 150.783 262.767 150.747 262.771C150.711 262.774 150.676 262.776 150.641 262.775C150.606 262.775 150.572 262.772 150.538 262.768C150.504 262.764 150.471 262.757 150.438 262.749C150.405 262.741 150.373 262.731 150.342 262.718C150.31 262.706 150.279 262.692 150.249 262.676C150.219 262.66 150.19 262.642 150.161 262.623C150.132 262.603 150.104 262.581 150.077 262.558C150.05 262.534 150.024 262.509 149.999 262.482C149.973 262.455 149.949 262.426 149.925 262.395L132.173 239.442C132.108 239.358 132.037 239.288 131.96 239.231C131.883 239.175 131.801 239.132 131.713 239.104C131.626 239.075 131.534 239.061 131.438 239.062C131.343 239.062 131.244 239.077 131.143 239.107L103.289 247.242C103.252 247.253 103.215 247.262 103.179 247.269C103.142 247.276 103.106 247.281 103.07 247.284C103.035 247.287 102.999 247.288 102.965 247.287C102.93 247.287 102.895 247.284 102.862 247.279C102.828 247.274 102.795 247.268 102.762 247.259C102.729 247.25 102.697 247.24 102.666 247.227C102.635 247.215 102.604 247.2 102.574 247.184C102.544 247.167 102.515 247.149 102.486 247.129C102.458 247.109 102.43 247.087 102.403 247.063C102.376 247.039 102.35 247.013 102.325 246.986C102.3 246.958 102.275 246.929 102.252 246.898C102.228 246.867 102.206 246.834 102.184 246.8C102.162 246.766 102.142 246.73 102.122 246.692C102.102 246.654 102.084 246.615 102.066 246.574C102.048 246.533 102.031 246.491 102.016 246.447C102 246.403 101.985 246.358 101.972 246.311C101.958 246.265 101.946 246.217 101.934 246.167C101.923 246.118 101.912 246.067 101.903 246.015C101.894 245.963 101.886 245.91 101.879 245.855C101.872 245.801 101.866 245.746 101.861 245.69C101.856 245.633 101.853 245.576 101.85 245.517C101.848 245.459 101.846 245.4 101.846 245.34C101.846 245.279 101.847 245.218 101.849 245.157C101.851 245.095 101.854 245.033 101.858 244.969C101.863 244.906 101.868 244.843 101.875 244.779C101.881 244.715 101.889 244.65 101.898 244.585C101.907 244.52 101.917 244.455 101.928 244.389C101.939 244.323 101.951 244.258 101.964 244.191C101.977 244.125 101.991 244.059 102.006 243.993C102.022 243.927 102.038 243.86 102.055 243.794C102.073 243.728 102.091 243.662 102.11 243.596C102.13 243.53 102.15 243.464 102.171 243.398L108.314 224.495C108.342 224.408 108.371 224.322 108.403 224.237C108.434 224.152 108.467 224.068 108.501 223.985C108.535 223.902 108.571 223.82 108.608 223.739C108.645 223.658 108.684 223.579 108.723 223.501C108.763 223.423 108.804 223.346 108.846 223.272C108.888 223.197 108.931 223.124 108.975 223.053C109.019 222.983 109.064 222.914 109.11 222.847C109.156 222.781 109.203 222.716 109.251 222.654C109.298 222.592 109.346 222.532 109.395 222.475C109.444 222.418 109.493 222.364 109.543 222.312C109.592 222.261 109.642 222.212 109.693 222.166C109.743 222.12 109.794 222.076 109.844 222.036C109.895 221.996 109.946 221.959 109.997 221.925C110.047 221.891 110.098 221.861 110.148 221.833C110.199 221.805 110.249 221.781 110.299 221.76C110.349 221.739 110.398 221.721 110.447 221.707Z" fill="#EDEFFF"/>
<path fill-rule="evenodd" clip-rule="evenodd" d="M115.342 179.715L140.402 162.632C140.489 162.572 140.578 162.528 140.669 162.497C140.76 162.467 140.851 162.452 140.943 162.452C141.035 162.452 141.126 162.467 141.217 162.497C141.308 162.528 141.397 162.572 141.484 162.632L166.544 179.715C166.586 179.743 166.628 179.775 166.669 179.811C166.71 179.846 166.75 179.885 166.789 179.927C166.829 179.968 166.867 180.013 166.905 180.061C166.943 180.109 166.98 180.16 167.016 180.214C167.051 180.268 167.086 180.324 167.12 180.384C167.154 180.443 167.186 180.505 167.217 180.57C167.249 180.634 167.279 180.701 167.307 180.77C167.336 180.84 167.364 180.911 167.39 180.985C167.415 181.059 167.44 181.134 167.463 181.212C167.486 181.29 167.508 181.369 167.528 181.45C167.548 181.531 167.567 181.614 167.583 181.698C167.6 181.782 167.616 181.867 167.629 181.953C167.643 182.04 167.655 182.127 167.665 182.215C167.676 182.304 167.684 182.393 167.691 182.483C167.698 182.572 167.703 182.662 167.707 182.753C167.71 182.843 167.712 182.934 167.712 183.025V202.902C167.712 202.971 167.711 203.039 167.709 203.108C167.707 203.177 167.704 203.245 167.7 203.314C167.696 203.382 167.691 203.45 167.685 203.518C167.679 203.586 167.672 203.653 167.664 203.72C167.656 203.787 167.648 203.853 167.638 203.919C167.628 203.985 167.617 204.05 167.605 204.115C167.594 204.179 167.581 204.243 167.567 204.306C167.554 204.369 167.539 204.431 167.524 204.493C167.509 204.554 167.492 204.614 167.475 204.673C167.458 204.733 167.44 204.791 167.421 204.848C167.403 204.905 167.383 204.961 167.363 205.016C167.342 205.071 167.321 205.124 167.299 205.177C167.277 205.229 167.254 205.28 167.231 205.329C167.207 205.378 167.183 205.427 167.158 205.473C167.134 205.52 167.108 205.565 167.082 205.608C167.056 205.652 167.029 205.693 167.002 205.734C166.974 205.774 166.946 205.812 166.918 205.849C166.889 205.886 166.86 205.921 166.831 205.955C166.801 205.988 166.771 206.02 166.741 206.049C166.711 206.079 166.68 206.107 166.649 206.133C166.617 206.159 166.586 206.183 166.554 206.205C166.522 206.228 166.49 206.248 166.457 206.266C166.425 206.284 166.392 206.301 166.359 206.315C166.326 206.329 166.293 206.342 166.26 206.352C166.226 206.362 166.193 206.371 166.159 206.377C166.126 206.383 166.092 206.388 166.058 206.39C166.025 206.392 165.991 206.392 165.957 206.391C165.923 206.389 165.89 206.385 165.856 206.379C165.823 206.373 165.789 206.365 165.756 206.355C165.722 206.345 165.689 206.334 165.656 206.32C165.623 206.306 165.59 206.29 165.558 206.272C165.525 206.254 165.493 206.234 165.461 206.212L141.484 189.868C141.397 189.808 141.308 189.763 141.217 189.733C141.126 189.703 141.035 189.688 140.943 189.688C140.851 189.688 140.76 189.703 140.669 189.733C140.578 189.763 140.489 189.808 140.402 189.868L116.425 206.212C116.393 206.234 116.361 206.254 116.328 206.272C116.296 206.29 116.263 206.306 116.23 206.32C116.197 206.334 116.164 206.345 116.13 206.355C116.097 206.365 116.064 206.373 116.03 206.379C115.996 206.385 115.963 206.389 115.929 206.391C115.895 206.392 115.862 206.392 115.828 206.39C115.794 206.388 115.761 206.383 115.727 206.377C115.693 206.371 115.66 206.362 115.627 206.352C115.593 206.342 115.56 206.329 115.527 206.315C115.494 206.301 115.461 206.284 115.429 206.266C115.396 206.248 115.364 206.228 115.332 206.205C115.3 206.183 115.269 206.159 115.238 206.133C115.206 206.107 115.176 206.079 115.145 206.049C115.115 206.02 115.085 205.988 115.055 205.955C115.026 205.921 114.997 205.886 114.968 205.849C114.94 205.812 114.912 205.774 114.885 205.734C114.857 205.693 114.83 205.652 114.804 205.608C114.778 205.565 114.753 205.52 114.728 205.473C114.703 205.427 114.679 205.378 114.655 205.329C114.632 205.28 114.609 205.229 114.587 205.177C114.565 205.124 114.544 205.071 114.524 205.016C114.503 204.961 114.484 204.905 114.465 204.848C114.446 204.791 114.428 204.733 114.411 204.673C114.394 204.614 114.378 204.554 114.362 204.493C114.347 204.431 114.332 204.369 114.319 204.306C114.305 204.243 114.293 204.179 114.281 204.115C114.269 204.05 114.258 203.985 114.248 203.919C114.239 203.853 114.23 203.787 114.222 203.72C114.214 203.653 114.207 203.586 114.201 203.518C114.195 203.45 114.19 203.382 114.186 203.314C114.182 203.245 114.179 203.177 114.177 203.108C114.175 203.039 114.174 202.971 114.174 202.902L114.174 183.025C114.174 182.934 114.176 182.843 114.179 182.753C114.183 182.662 114.188 182.572 114.195 182.483C114.202 182.393 114.211 182.304 114.221 182.215C114.231 182.127 114.243 182.04 114.257 181.953C114.271 181.867 114.286 181.782 114.303 181.698C114.32 181.614 114.338 181.531 114.358 181.45C114.378 181.369 114.4 181.29 114.423 181.212C114.446 181.134 114.471 181.059 114.497 180.985C114.523 180.911 114.55 180.84 114.579 180.77C114.608 180.701 114.638 180.634 114.669 180.57C114.7 180.505 114.733 180.443 114.766 180.384C114.8 180.324 114.835 180.268 114.871 180.214C114.906 180.16 114.943 180.109 114.981 180.061C115.019 180.013 115.057 179.968 115.097 179.927C115.136 179.885 115.177 179.846 115.218 179.811C115.259 179.775 115.3 179.743 115.342 179.715Z" fill="#EDEFFF"/>
<path fill-rule="evenodd" clip-rule="evenodd" d="M107.021 138.265L125.575 114.274C125.64 114.191 125.711 114.121 125.788 114.064C125.865 114.007 125.947 113.965 126.035 113.936C126.122 113.908 126.214 113.894 126.309 113.894C126.405 113.895 126.504 113.91 126.605 113.94L155.717 122.443C155.766 122.457 155.815 122.474 155.865 122.496C155.915 122.517 155.965 122.541 156.016 122.568C156.066 122.596 156.117 122.627 156.167 122.661C156.218 122.695 156.269 122.732 156.32 122.772C156.37 122.812 156.421 122.855 156.471 122.901C156.522 122.947 156.572 122.996 156.621 123.048C156.671 123.099 156.72 123.154 156.769 123.211C156.818 123.268 156.866 123.327 156.914 123.389C156.961 123.452 157.008 123.516 157.054 123.583C157.1 123.649 157.145 123.718 157.189 123.789C157.233 123.86 157.276 123.933 157.318 124.007C157.36 124.082 157.401 124.158 157.441 124.236C157.481 124.314 157.519 124.394 157.556 124.474C157.593 124.555 157.629 124.637 157.663 124.72C157.697 124.804 157.73 124.888 157.761 124.973C157.793 125.058 157.823 125.144 157.851 125.23L163.993 144.134C164.014 144.199 164.034 144.265 164.054 144.331C164.073 144.397 164.091 144.463 164.109 144.53C164.126 144.596 164.142 144.662 164.158 144.728C164.173 144.794 164.187 144.861 164.2 144.927C164.214 144.993 164.226 145.059 164.237 145.124C164.248 145.19 164.258 145.255 164.266 145.321C164.275 145.385 164.283 145.45 164.289 145.514C164.296 145.578 164.301 145.642 164.306 145.705C164.31 145.768 164.313 145.83 164.315 145.892C164.317 145.954 164.318 146.015 164.318 146.075C164.318 146.135 164.316 146.194 164.314 146.253C164.311 146.311 164.308 146.369 164.303 146.425C164.298 146.481 164.292 146.537 164.285 146.591C164.278 146.645 164.27 146.698 164.261 146.75C164.252 146.802 164.241 146.853 164.23 146.903C164.218 146.952 164.206 147 164.192 147.047C164.179 147.093 164.164 147.139 164.149 147.183C164.133 147.226 164.116 147.269 164.098 147.31C164.081 147.351 164.062 147.39 164.042 147.427C164.022 147.465 164.002 147.501 163.98 147.536C163.958 147.57 163.936 147.603 163.912 147.634C163.889 147.665 163.864 147.694 163.839 147.721C163.814 147.749 163.788 147.774 163.761 147.798C163.734 147.822 163.706 147.844 163.678 147.864C163.649 147.884 163.62 147.903 163.59 147.919C163.56 147.935 163.529 147.95 163.498 147.963C163.467 147.975 163.435 147.985 163.402 147.994C163.369 148.003 163.336 148.01 163.303 148.015C163.269 148.019 163.235 148.022 163.2 148.023C163.165 148.024 163.13 148.023 163.094 148.02C163.058 148.017 163.022 148.011 162.986 148.005C162.949 147.998 162.912 147.989 162.875 147.978L135.021 139.842C134.92 139.813 134.821 139.798 134.726 139.797C134.63 139.797 134.538 139.81 134.451 139.839C134.363 139.867 134.281 139.91 134.204 139.967C134.127 140.023 134.056 140.094 133.991 140.177L116.239 163.131C116.216 163.161 116.191 163.19 116.166 163.217C116.14 163.244 116.114 163.27 116.087 163.293C116.06 163.317 116.032 163.338 116.003 163.358C115.974 163.378 115.945 163.396 115.915 163.412C115.885 163.428 115.854 163.442 115.822 163.454C115.791 163.466 115.759 163.476 115.726 163.485C115.693 163.493 115.66 163.499 115.626 163.503C115.592 163.508 115.558 163.51 115.523 163.511C115.488 163.511 115.453 163.51 115.417 163.506C115.381 163.503 115.345 163.497 115.308 163.49C115.272 163.482 115.235 163.473 115.198 163.462C115.16 163.451 115.123 163.437 115.085 163.422C115.048 163.407 115.01 163.39 114.971 163.371C114.933 163.353 114.895 163.332 114.857 163.309C114.818 163.287 114.78 163.262 114.742 163.236C114.703 163.21 114.665 163.181 114.626 163.152C114.588 163.122 114.549 163.09 114.511 163.057C114.473 163.024 114.435 162.989 114.397 162.952C114.359 162.916 114.321 162.878 114.283 162.838C114.246 162.798 114.208 162.757 114.171 162.714C114.134 162.671 114.097 162.627 114.061 162.581C114.025 162.535 113.989 162.488 113.953 162.439C113.918 162.391 113.883 162.341 113.848 162.29C113.813 162.239 113.779 162.186 113.746 162.133C113.712 162.079 113.679 162.025 113.647 161.969C113.614 161.913 113.583 161.856 113.552 161.799C113.521 161.741 113.49 161.682 113.461 161.623C113.431 161.563 113.402 161.503 113.374 161.441C113.345 161.38 113.318 161.318 113.291 161.256C113.265 161.193 113.239 161.13 113.214 161.066C113.189 161.002 113.165 160.938 113.142 160.873C113.119 160.809 113.097 160.743 113.075 160.678L106.933 141.774C106.905 141.688 106.879 141.601 106.854 141.514C106.829 141.426 106.807 141.339 106.785 141.252C106.764 141.164 106.745 141.077 106.727 140.99C106.71 140.902 106.694 140.816 106.681 140.729C106.667 140.643 106.655 140.557 106.645 140.472C106.635 140.387 106.627 140.303 106.621 140.219C106.616 140.136 106.612 140.054 106.61 139.973C106.608 139.892 106.608 139.812 106.609 139.734C106.611 139.656 106.615 139.58 106.621 139.505C106.627 139.43 106.635 139.357 106.645 139.286C106.655 139.215 106.666 139.146 106.68 139.079C106.694 139.012 106.709 138.948 106.727 138.885C106.744 138.823 106.764 138.763 106.785 138.706C106.806 138.649 106.829 138.594 106.853 138.542C106.878 138.49 106.904 138.441 106.932 138.395C106.96 138.348 106.99 138.305 107.021 138.265Z" fill="#EDEFFF"/>
<path fill-rule="evenodd" clip-rule="evenodd" d="M86.2988 101.415L96.5313 72.8655C96.5669 72.766 96.6126 72.6774 96.6684 72.5997C96.7242 72.5219 96.7893 72.456 96.8637 72.4019C96.9381 72.3478 97.0209 72.3063 97.1121 72.2773C97.2033 72.2482 97.3017 72.2322 97.4073 72.229L127.722 71.3197C127.773 71.3181 127.825 71.3196 127.879 71.3242C127.933 71.3288 127.988 71.3364 128.045 71.347C128.101 71.3576 128.159 71.3712 128.218 71.3878C128.277 71.4043 128.336 71.4238 128.397 71.4464C128.458 71.4689 128.519 71.4943 128.581 71.5225C128.643 71.5507 128.706 71.5817 128.769 71.6155C128.832 71.6494 128.896 71.686 128.96 71.7251C129.024 71.7643 129.088 71.806 129.153 71.8504C129.217 71.8948 129.281 71.9416 129.346 71.9908C129.41 72.0399 129.474 72.0914 129.538 72.1452C129.602 72.199 129.665 72.2548 129.728 72.3128C129.791 72.3708 129.854 72.4308 129.916 72.4928C129.978 72.5546 130.039 72.6183 130.099 72.6837C130.159 72.7491 130.219 72.8161 130.277 72.8846C130.335 72.9532 130.392 73.023 130.448 73.0943C130.504 73.1654 130.559 73.2377 130.613 73.3112L142.296 89.3918C142.336 89.4476 142.376 89.5039 142.415 89.5608C142.454 89.6174 142.491 89.6746 142.528 89.7323C142.565 89.79 142.601 89.848 142.636 89.9062C142.671 89.9645 142.705 90.0231 142.738 90.0819C142.771 90.1407 142.803 90.1997 142.834 90.2587C142.865 90.3177 142.894 90.3768 142.923 90.436C142.951 90.495 142.978 90.5539 143.004 90.6129C143.03 90.6718 143.055 90.7306 143.079 90.7893C143.102 90.848 143.125 90.9063 143.146 90.9643C143.167 91.0223 143.186 91.08 143.205 91.1375C143.223 91.1947 143.24 91.2515 143.256 91.3078C143.272 91.3641 143.286 91.4199 143.299 91.475C143.312 91.5302 143.323 91.5846 143.333 91.6383C143.343 91.6922 143.352 91.7453 143.359 91.7976C143.367 91.8498 143.372 91.9012 143.377 91.9518C143.381 92.0023 143.384 92.0519 143.386 92.1004C143.387 92.149 143.387 92.1966 143.386 92.2432C143.385 92.2899 143.382 92.3353 143.378 92.3797C143.373 92.424 143.368 92.4671 143.36 92.5089C143.353 92.5509 143.345 92.5917 143.335 92.6311C143.325 92.6704 143.314 92.7084 143.301 92.7453C143.288 92.7819 143.274 92.8172 143.258 92.8511C143.243 92.8851 143.226 92.9176 143.208 92.9485C143.189 92.9795 143.17 93.009 143.149 93.0369C143.128 93.0649 143.106 93.0913 143.082 93.1162C143.059 93.1411 143.034 93.1644 143.008 93.186C142.982 93.2076 142.955 93.2275 142.927 93.2458C142.899 93.2643 142.869 93.281 142.839 93.2959C142.808 93.3109 142.776 93.3242 142.743 93.3356C142.71 93.3473 142.677 93.3572 142.642 93.3654C142.607 93.3734 142.571 93.3797 142.534 93.3844C142.497 93.389 142.459 93.392 142.421 93.3931L113.416 94.2632C113.311 94.2664 113.212 94.2825 113.121 94.3115C113.03 94.3405 112.947 94.382 112.872 94.4361C112.798 94.4902 112.733 94.5561 112.677 94.6339C112.621 94.7117 112.576 94.8003 112.54 94.8997L102.75 122.216C102.737 122.252 102.722 122.287 102.706 122.321C102.691 122.354 102.673 122.387 102.655 122.417C102.636 122.448 102.617 122.477 102.595 122.505C102.574 122.532 102.552 122.559 102.528 122.583C102.505 122.608 102.479 122.63 102.453 122.652C102.427 122.673 102.4 122.693 102.371 122.711C102.343 122.729 102.313 122.745 102.282 122.76C102.251 122.774 102.219 122.787 102.186 122.798C102.153 122.809 102.119 122.819 102.084 122.827C102.049 122.835 102.013 122.841 101.975 122.845C101.938 122.849 101.9 122.852 101.862 122.853C101.823 122.853 101.783 122.852 101.742 122.85C101.702 122.847 101.661 122.843 101.618 122.836C101.576 122.83 101.534 122.822 101.49 122.813C101.447 122.803 101.403 122.792 101.358 122.778C101.313 122.765 101.268 122.751 101.222 122.734C101.176 122.718 101.13 122.7 101.083 122.68C101.037 122.66 100.99 122.638 100.942 122.615C100.895 122.592 100.847 122.568 100.799 122.541C100.751 122.515 100.703 122.487 100.654 122.458C100.606 122.429 100.557 122.398 100.508 122.366C100.46 122.333 100.411 122.3 100.362 122.265C100.313 122.229 100.264 122.193 100.216 122.155C100.167 122.117 100.118 122.078 100.07 122.037C100.021 121.996 99.9732 121.955 99.9252 121.912C99.8772 121.869 99.8296 121.825 99.7822 121.779C99.7348 121.734 99.6877 121.688 99.6411 121.64C99.5944 121.593 99.5482 121.544 99.5024 121.495C99.4567 121.445 99.4115 121.395 99.3669 121.343C99.3223 121.292 99.2783 121.24 99.2348 121.187C99.1914 121.134 99.1487 121.08 99.1068 121.026C99.0647 120.971 99.0234 120.916 98.9829 120.86L87.2997 104.78C87.2463 104.706 87.1944 104.632 87.144 104.557C87.0935 104.481 87.0448 104.405 86.9976 104.329C86.9505 104.252 86.9051 104.175 86.8615 104.098C86.8179 104.02 86.7763 103.942 86.7365 103.864C86.6968 103.786 86.6591 103.708 86.6234 103.63C86.5877 103.553 86.5541 103.475 86.5227 103.398C86.4913 103.32 86.4622 103.243 86.4352 103.167C86.4083 103.091 86.3837 103.015 86.3614 102.94C86.3392 102.865 86.3193 102.791 86.3018 102.718C86.2843 102.645 86.2692 102.573 86.2566 102.503C86.244 102.432 86.2338 102.363 86.2262 102.295C86.2185 102.227 86.2134 102.161 86.2107 102.096C86.2081 102.032 86.2079 101.969 86.2103 101.908C86.2127 101.847 86.2175 101.788 86.2249 101.731C86.2323 101.674 86.2421 101.619 86.2545 101.566C86.2668 101.514 86.2816 101.463 86.2988 101.415Z" fill="#EDEFFF"/>
<path fill-rule="evenodd" clip-rule="evenodd" d="M55.2031 72.7726L56.1124 42.4582C56.1156 42.3527 56.1317 42.2543 56.1607 42.1631C56.1897 42.0719 56.2312 41.989 56.2853 41.9146C56.3394 41.8402 56.4053 41.7751 56.4831 41.7193C56.5609 41.6635 56.6495 41.6178 56.7489 41.5822L85.2987 31.3497C85.3467 31.3324 85.3971 31.3177 85.4498 31.3054C85.5025 31.293 85.5574 31.2832 85.6144 31.2758C85.6715 31.2684 85.7305 31.2636 85.7915 31.2612C85.8526 31.2587 85.9154 31.2589 85.98 31.2615C86.0446 31.2642 86.1108 31.2694 86.1786 31.2771C86.2464 31.2847 86.3157 31.2948 86.3863 31.3074C86.4569 31.3201 86.5287 31.3352 86.6017 31.3527C86.6747 31.3701 86.7486 31.39 86.8236 31.4123C86.8984 31.4346 86.974 31.4592 87.0504 31.4861C87.1268 31.513 87.2037 31.5422 87.281 31.5736C87.3584 31.605 87.4361 31.6385 87.514 31.6742C87.5919 31.7098 87.6698 31.7476 87.7477 31.7874C87.8257 31.8271 87.9035 31.8688 87.9811 31.9123C88.0586 31.956 88.1356 32.0014 88.2123 32.0485C88.2889 32.0957 88.3649 32.1444 88.4402 32.1949C88.5155 32.2452 88.59 32.2971 88.6635 32.3505L104.744 44.0337C104.8 44.0742 104.855 44.1156 104.909 44.1576C104.964 44.1996 105.017 44.2423 105.07 44.2857C105.123 44.3291 105.176 44.3731 105.227 44.4177C105.278 44.4624 105.328 44.5075 105.378 44.5532C105.428 44.5991 105.476 44.6453 105.524 44.6919C105.571 44.7386 105.617 44.7856 105.663 44.833C105.708 44.8804 105.752 44.9281 105.795 44.9761C105.838 45.0241 105.88 45.0723 105.921 45.1208C105.961 45.1693 106 45.2179 106.038 45.2666C106.076 45.3152 106.113 45.364 106.148 45.413C106.183 45.4618 106.217 45.5105 106.249 45.5592C106.282 45.6079 106.312 45.6566 106.342 45.705C106.371 45.7535 106.399 45.8017 106.425 45.8496C106.451 45.8978 106.476 45.9456 106.499 45.993C106.522 46.0404 106.543 46.0875 106.563 46.1343C106.583 46.181 106.601 46.2272 106.618 46.2729C106.634 46.3187 106.649 46.364 106.662 46.4087C106.675 46.4535 106.686 46.4976 106.696 46.5411C106.706 46.5845 106.714 46.6273 106.72 46.6693C106.726 46.7114 106.731 46.7527 106.733 46.7933C106.736 46.8338 106.737 46.8735 106.736 46.9125C106.735 46.9513 106.733 46.9892 106.728 47.0263C106.724 47.0634 106.718 47.0995 106.71 47.1346C106.703 47.1696 106.693 47.2037 106.682 47.2368C106.671 47.2698 106.658 47.3018 106.643 47.3327C106.628 47.3636 106.612 47.3934 106.594 47.422C106.576 47.4505 106.556 47.4779 106.535 47.504C106.514 47.5304 106.491 47.5554 106.467 47.579C106.442 47.6028 106.416 47.6252 106.388 47.6462C106.361 47.6674 106.331 47.6873 106.301 47.7059C106.27 47.7244 106.238 47.7415 106.204 47.7572C106.171 47.7731 106.136 47.7875 106.099 47.8006L78.7832 57.591C78.6837 57.6266 78.5951 57.6723 78.5173 57.7281C78.4396 57.7839 78.3736 57.849 78.3196 57.9234C78.2655 57.9978 78.2239 58.0807 78.1949 58.1719C78.1659 58.2631 78.1498 58.3615 78.1467 58.4671L77.2766 87.4714C77.2755 87.5101 77.2726 87.5479 77.2679 87.5848C77.2632 87.6216 77.2568 87.6575 77.2488 87.6925C77.2407 87.7274 77.2307 87.7612 77.2191 87.794C77.2077 87.827 77.1945 87.8587 77.1795 87.8894C77.1645 87.92 77.1477 87.9495 77.1293 87.9777C77.111 88.0061 77.0911 88.0333 77.0695 88.0593C77.0478 88.0852 77.0245 88.1098 76.9997 88.1333C76.9748 88.1567 76.9484 88.1789 76.9204 88.1997C76.8925 88.2206 76.863 88.2402 76.832 88.2585C76.801 88.2767 76.7686 88.2936 76.7346 88.3091C76.7007 88.3246 76.6654 88.3388 76.6288 88.3516C76.5919 88.3643 76.5538 88.3757 76.5143 88.3856C76.4751 88.3956 76.4344 88.4042 76.3924 88.4112C76.3506 88.4184 76.3075 88.4242 76.2631 88.4284C76.2188 88.4326 76.1733 88.4354 76.1267 88.4368C76.0801 88.4381 76.0325 88.4381 75.9839 88.4366C75.9353 88.4351 75.8858 88.4321 75.8352 88.4277C75.7847 88.4233 75.7333 88.4175 75.681 88.4102C75.6288 88.403 75.5757 88.3942 75.5218 88.3841C75.468 88.374 75.4136 88.3625 75.3585 88.3497C75.3033 88.3368 75.2476 88.3225 75.1913 88.3068C75.135 88.2911 75.0782 88.2741 75.0209 88.2558C74.9635 88.2373 74.9058 88.2175 74.8478 88.1966C74.7898 88.1756 74.7315 88.1533 74.6728 88.1297C74.6141 88.1061 74.5553 88.0812 74.4964 88.0552C74.4375 88.0291 74.3785 88.0019 74.3195 87.9735C74.2603 87.945 74.2012 87.9154 74.1422 87.8846C74.0832 87.8539 74.0242 87.8221 73.9654 87.7891C73.9065 87.7561 73.848 87.7221 73.7897 87.6871C73.7315 87.6522 73.6735 87.6162 73.6158 87.5792C73.5581 87.5422 73.5009 87.5044 73.4442 87.4656C73.3873 87.4268 73.331 87.3871 73.2753 87.3466L57.1947 75.6634C57.1213 75.61 57.0489 75.5553 56.9777 75.4993C56.9065 75.4432 56.8366 75.386 56.7681 75.3277C56.6996 75.2694 56.6326 75.2101 56.5672 75.1498C56.5018 75.0895 56.4381 75.0284 56.3762 74.9666C56.3143 74.9047 56.2544 74.8423 56.1964 74.7792C56.1384 74.7161 56.0825 74.6527 56.0287 74.5888C55.9749 74.5249 55.9234 74.4608 55.8742 74.3965C55.825 74.3322 55.7782 74.2678 55.7339 74.2035C55.6896 74.1391 55.6478 74.0749 55.6086 74.0109C55.5694 73.9469 55.5329 73.8833 55.4991 73.82C55.4652 73.7568 55.4342 73.6941 55.406 73.6319C55.3777 73.5698 55.3523 73.5084 55.3299 73.4478C55.3074 73.3872 55.2878 73.3275 55.2712 73.2687C55.2546 73.21 55.241 73.1523 55.2304 73.0958C55.2198 73.0393 55.2122 72.984 55.2077 72.9301C55.2031 72.8761 55.2016 72.8236 55.2031 72.7726Z" fill="#EDEFFF"/>
<path fill-rule="evenodd" clip-rule="evenodd" d="M16.7785 55.1409L8.27562 26.0292C8.246 25.9278 8.2309 25.8293 8.23031 25.7336C8.22971 25.6379 8.24363 25.5463 8.27206 25.4588C8.30049 25.3713 8.34307 25.289 8.3998 25.2119C8.45654 25.1348 8.52668 25.064 8.61023 24.9994L32.6006 6.44535C32.641 6.41404 32.6844 6.38442 32.7307 6.35649C32.777 6.32845 32.8262 6.30211 32.8781 6.27746C32.9301 6.25283 32.9847 6.22996 33.042 6.20887C33.0993 6.18766 33.1591 6.16835 33.2214 6.15093C33.2837 6.13352 33.3482 6.118 33.415 6.10436C33.4819 6.09063 33.5509 6.07884 33.622 6.069C33.693 6.05927 33.766 6.05144 33.8408 6.04549C33.9156 6.03954 33.9921 6.03557 34.0702 6.03361C34.1483 6.03174 34.2279 6.0318 34.3088 6.03377C34.3898 6.03574 34.4719 6.03972 34.5552 6.04572C34.6385 6.0516 34.7227 6.05948 34.8078 6.06933C34.8929 6.0792 34.9787 6.09102 35.0651 6.10481C35.1516 6.11849 35.2384 6.13406 35.3256 6.1515C35.4128 6.16906 35.5001 6.18841 35.5876 6.20957C35.6751 6.23073 35.7624 6.25365 35.8496 6.27835C35.9368 6.30293 36.0236 6.32926 36.11 6.35734L55.0138 12.4996C55.0793 12.521 55.1445 12.5432 55.2094 12.5664C55.274 12.5894 55.3383 12.6135 55.4021 12.6384C55.4659 12.6633 55.5291 12.689 55.5917 12.7156C55.6542 12.7423 55.7161 12.7696 55.7774 12.7978C55.8387 12.826 55.8991 12.855 55.9586 12.8846C56.0182 12.9144 56.0769 12.9448 56.1348 12.9758C56.1924 13.0069 56.2491 13.0386 56.3048 13.071C56.3605 13.1034 56.4152 13.1364 56.4688 13.1699C56.5224 13.2035 56.5747 13.2376 56.6257 13.2722C56.6768 13.3068 56.7267 13.3419 56.7754 13.3775C56.8239 13.413 56.8711 13.4489 56.9168 13.4852C56.9626 13.5217 57.0069 13.5584 57.0497 13.5954C57.0926 13.6325 57.1338 13.6697 57.1736 13.7072C57.2135 13.7449 57.2517 13.7827 57.2883 13.8208C57.3249 13.8587 57.3598 13.8968 57.3931 13.9353C57.4264 13.9735 57.4579 14.0119 57.4877 14.0502C57.5175 14.0887 57.5455 14.1272 57.5718 14.1656C57.5981 14.2042 57.6225 14.2427 57.6452 14.281C57.6678 14.3194 57.6885 14.3576 57.7073 14.3956C57.7263 14.4337 57.7434 14.4717 57.7586 14.5094C57.7735 14.5471 57.7866 14.5846 57.798 14.6219C57.8092 14.6591 57.8184 14.6959 57.8258 14.7325C57.8332 14.7691 57.8386 14.8053 57.8421 14.8411C57.8455 14.8768 57.847 14.9122 57.8466 14.9471C57.8461 14.982 57.8437 15.0164 57.8394 15.0503C57.835 15.0842 57.8287 15.1176 57.8206 15.1503C57.8122 15.183 57.8019 15.2151 57.7897 15.2466C57.7777 15.2782 57.7637 15.309 57.7478 15.339C57.7318 15.3692 57.7138 15.3986 57.6939 15.4272C57.6742 15.4559 57.6526 15.4839 57.6292 15.511C57.6056 15.5381 57.5803 15.5643 57.5533 15.5896C57.5262 15.6151 57.4973 15.6397 57.4667 15.6634L34.513 33.4157C34.4295 33.4803 34.3593 33.5512 34.3026 33.6282C34.2459 33.7053 34.2033 33.7876 34.1749 33.8751C34.1464 33.9626 34.1325 34.0542 34.1331 34.1499C34.1337 34.2456 34.1488 34.3442 34.1784 34.4455L42.3137 62.2992C42.3247 62.3364 42.3336 62.3732 42.3405 62.4097C42.3474 62.4462 42.3525 62.4823 42.3557 62.5181C42.3587 62.5538 42.3597 62.589 42.3588 62.6238C42.3581 62.6586 42.3554 62.693 42.3506 62.7267C42.3458 62.7605 42.339 62.7937 42.3301 62.8262C42.3215 62.8589 42.3109 62.8909 42.2985 62.9223C42.2859 62.9536 42.2713 62.9843 42.2549 63.0142C42.2385 63.0442 42.2202 63.0735 42.2001 63.102C42.18 63.1305 42.158 63.1582 42.1342 63.1851C42.1103 63.2121 42.0847 63.2381 42.0572 63.2634C42.0297 63.2886 42.0005 63.313 41.9697 63.3366C41.9386 63.36 41.9058 63.3825 41.8713 63.4042C41.8371 63.4259 41.8011 63.4466 41.7633 63.4663C41.7257 63.486 41.6865 63.5048 41.6456 63.5225C41.6048 63.5403 41.5624 63.557 41.5185 63.5727C41.4746 63.5883 41.4293 63.603 41.3826 63.6166C41.3359 63.6302 41.2879 63.6427 41.2384 63.6541C41.189 63.6655 41.1383 63.6759 41.0864 63.6851C41.0344 63.6944 40.9813 63.7025 40.9268 63.7095C40.8727 63.7165 40.8173 63.7224 40.7609 63.7272C40.7045 63.732 40.6471 63.7356 40.5887 63.7381C40.5303 63.7406 40.471 63.742 40.4109 63.7422C40.3505 63.7424 40.2895 63.7414 40.2279 63.7394C40.1663 63.7374 40.1039 63.7342 40.0408 63.7299C39.9777 63.7255 39.9141 63.7201 39.85 63.7135C39.7859 63.7069 39.7214 63.6993 39.6566 63.6905C39.5915 63.6817 39.5261 63.6718 39.4605 63.6608C39.3948 63.6498 39.3289 63.6377 39.2628 63.6245C39.1966 63.6114 39.1304 63.5971 39.0642 63.5819C38.998 63.5666 38.9317 63.5503 38.8655 63.533C38.7992 63.5156 38.7331 63.4973 38.6672 63.478C38.6011 63.4586 38.5353 63.4382 38.4698 63.417L19.5659 57.2747C19.4795 57.2467 19.3938 57.217 19.3088 57.1857C19.2237 57.1544 19.1396 57.1216 19.0564 57.0873C18.9732 57.053 18.8912 57.0173 18.8104 56.9802C18.7295 56.9431 18.6501 56.9047 18.5721 56.865C18.4942 56.8253 18.4178 56.7844 18.3432 56.7423C18.2685 56.7003 18.1957 56.6572 18.1248 56.6131C18.054 56.5689 17.9852 56.5239 17.9185 56.4779C17.8519 56.4319 17.7875 56.3852 17.7254 56.3377C17.6634 56.2902 17.6038 56.2421 17.5468 56.1933C17.4897 56.1446 17.4353 56.0953 17.3836 56.0456C17.3319 55.9959 17.283 55.9459 17.2369 55.8955C17.1909 55.8451 17.1478 55.7946 17.1076 55.7439C17.0675 55.6932 17.0305 55.6424 16.9965 55.5917C16.9626 55.5409 16.9319 55.4903 16.9043 55.4398C16.8768 55.3893 16.8525 55.3392 16.8315 55.2892C16.8105 55.2393 16.7928 55.1899 16.7785 55.1409Z" fill="#EDEFFF"/>
</svg>
