<svg width="100" height="100" viewBox="0 0 100 100" fill="none" xmlns="http://www.w3.org/2000/svg">
<g filter="url(#filter0_d_152_10)">
<path fill-rule="evenodd" clip-rule="evenodd" d="M9.83268 43.6076L49.1504 22.2249C49.2873 22.1504 49.427 22.0943 49.5696 22.0566C49.7121 22.0189 49.8555 22 49.9999 22C50.1442 22 50.2876 22.0189 50.4302 22.0566C50.5727 22.0943 50.7124 22.1504 50.8493 22.2249L90.1672 43.6076C90.2335 43.6436 90.2987 43.6838 90.3628 43.7281C90.4271 43.7724 90.4903 43.8207 90.5522 43.873C90.6142 43.9253 90.6748 43.9815 90.734 44.0416C90.7935 44.1016 90.8513 44.1653 90.9075 44.2327C90.9636 44.3001 91.0181 44.371 91.0708 44.4452C91.1238 44.5196 91.1748 44.5971 91.2239 44.6779C91.2729 44.7587 91.32 44.8425 91.3651 44.9293C91.4103 45.0161 91.4533 45.1056 91.4941 45.1979C91.5347 45.2901 91.5732 45.3848 91.6095 45.482C91.6458 45.5791 91.6797 45.6784 91.7111 45.7799C91.7428 45.8813 91.7718 45.9846 91.7984 46.0897C91.8249 46.1949 91.8489 46.3016 91.8702 46.4097C91.8917 46.518 91.9106 46.6273 91.9268 46.7379C91.9429 46.8485 91.9564 46.96 91.9672 47.0723C91.978 47.1846 91.9862 47.2974 91.9916 47.4107C91.9972 47.5241 92 47.6376 92 47.7513V72.6313C91.9998 72.7175 91.9982 72.8037 91.9951 72.8899C91.992 72.9758 91.9874 73.0616 91.981 73.1472C91.9749 73.2328 91.9671 73.318 91.9577 73.4027C91.9483 73.4875 91.9375 73.5718 91.9252 73.6556C91.9127 73.7395 91.8988 73.8226 91.8835 73.905C91.8679 73.9874 91.8511 74.069 91.8328 74.1499C91.8144 74.2305 91.7945 74.3103 91.7732 74.3891C91.7519 74.468 91.7292 74.5458 91.7052 74.6226C91.681 74.6994 91.6554 74.7749 91.6285 74.849C91.6018 74.9232 91.5736 74.9961 91.544 75.0679C91.5145 75.1394 91.4838 75.2094 91.4518 75.278C91.4197 75.3465 91.3863 75.4135 91.3518 75.4788C91.3173 75.5441 91.2818 75.6077 91.2451 75.6695C91.2082 75.7315 91.1703 75.7917 91.1313 75.85C91.0924 75.9082 91.0524 75.9646 91.0112 76.019C90.9702 76.0734 90.9283 76.1258 90.8855 76.1761C90.8425 76.2264 90.7987 76.2747 90.7541 76.3209C90.7093 76.3671 90.6638 76.4111 90.6175 76.4528C90.5713 76.4946 90.5243 76.534 90.4766 76.5711C90.4289 76.6085 90.3806 76.6435 90.3317 76.6762C90.2827 76.7085 90.2331 76.7387 90.1829 76.7666C90.1329 76.7943 90.0824 76.8196 90.0314 76.8425C89.9803 76.8655 89.9289 76.8859 89.8772 76.9039C89.8256 76.9218 89.7736 76.9373 89.7212 76.9502C89.669 76.9632 89.6165 76.9736 89.5637 76.9816C89.511 76.9895 89.4582 76.995 89.4055 76.9979C89.3526 77.0005 89.2996 77.0007 89.2467 76.9983C89.1938 76.9963 89.141 76.9916 89.0885 76.9842C89.0357 76.9769 88.9831 76.9669 88.9308 76.9542C88.8784 76.9418 88.8262 76.927 88.7744 76.9096C88.7226 76.892 88.6712 76.872 88.6202 76.8496C88.5691 76.8272 88.5184 76.8024 88.4682 76.775L50.8493 56.3164C50.7124 56.242 50.5727 56.1858 50.4302 56.1481C50.2876 56.1104 50.1442 56.0915 49.9999 56.0915C49.8555 56.0915 49.7121 56.1104 49.5696 56.1481C49.427 56.1858 49.2873 56.242 49.1504 56.3164L11.5316 76.775C11.4814 76.8024 11.4308 76.8272 11.3797 76.8496C11.3286 76.872 11.2772 76.892 11.2254 76.9096C11.1736 76.927 11.1215 76.9418 11.0691 76.9542C11.0168 76.9669 10.9643 76.9769 10.9115 76.9842C10.8588 76.9916 10.806 76.9963 10.7531 76.9983C10.7002 77.0007 10.6474 77.0005 10.5945 76.9979C10.5416 76.995 10.4888 76.9895 10.4362 76.9816C10.3835 76.9736 10.331 76.9632 10.2787 76.9502C10.2264 76.9373 10.1743 76.9218 10.1226 76.9039C10.0709 76.8859 10.0195 76.8655 9.96849 76.8425C9.9175 76.8196 9.86696 76.7943 9.81688 76.7666C9.7668 76.7387 9.71727 76.7084 9.66829 76.6757C9.61931 76.6434 9.57097 76.6085 9.52326 76.5711C9.47554 76.534 9.42855 76.4946 9.38227 76.4528C9.33599 76.4111 9.29052 76.3671 9.24584 76.3209C9.20115 76.2747 9.15735 76.2264 9.11442 76.1761C9.0715 76.1258 9.02952 76.0734 8.9885 76.019C8.94747 75.9646 8.90747 75.9082 8.8685 75.85C8.82952 75.7917 8.79163 75.7315 8.75484 75.6695C8.71805 75.6077 8.68241 75.5441 8.64793 75.4788C8.61345 75.4135 8.58018 75.3465 8.54813 75.278C8.51608 75.2094 8.48531 75.1394 8.4558 75.0679C8.4263 74.9961 8.39812 74.9232 8.37126 74.849C8.34441 74.7749 8.31892 74.6994 8.29481 74.6226C8.27069 74.5458 8.24799 74.468 8.2267 74.3891C8.20542 74.3103 8.18558 74.2305 8.16719 74.1499C8.14881 74.069 8.1319 73.9874 8.11648 73.905C8.10106 73.8226 8.08715 73.7395 8.07474 73.6556C8.06234 73.5718 8.05147 73.4875 8.04213 73.4027C8.03279 73.318 8.025 73.2328 8.01875 73.1472C8.01251 73.0616 8.00782 72.9758 8.00469 72.8899C8.00156 72.8037 8 72.7175 8 72.6313V47.7513C8 47.6376 8.00272 47.5241 8.00816 47.4107C8.0136 47.2974 8.02175 47.1846 8.0326 47.0723C8.04345 46.96 8.05697 46.8485 8.07316 46.7379C8.08935 46.6273 8.10816 46.5179 8.1296 46.4097C8.15104 46.3016 8.17503 46.1949 8.20158 46.0897C8.22812 45.9846 8.25715 45.8813 8.28865 45.7798C8.32015 45.6784 8.35403 45.5791 8.39029 45.4819C8.42655 45.3848 8.46508 45.2901 8.50588 45.1978C8.54667 45.1056 8.58962 45.0161 8.63471 44.9293C8.6798 44.8425 8.7269 44.7587 8.77601 44.6779C8.82511 44.5971 8.87608 44.5196 8.9289 44.4452C8.98172 44.3709 9.03625 44.3001 9.09247 44.2327C9.14869 44.1653 9.20643 44.1016 9.26571 44.0416C9.32498 43.9815 9.3856 43.9253 9.44757 43.873C9.50954 43.8207 9.57266 43.7724 9.63694 43.7281C9.70123 43.6838 9.76647 43.6436 9.83268 43.6076Z" fill="white"/>
</g>
<g filter="url(#filter1_d_152_10)">
<path fill-rule="evenodd" clip-rule="evenodd" d="M90.1673 55.3924L50.8496 76.7751C50.7127 76.8496 50.573 76.9057 50.4304 76.9434C50.2879 76.9811 50.1445 77 50.0001 77C49.8558 77 49.7124 76.9811 49.5698 76.9434C49.4273 76.9057 49.2876 76.8496 49.1507 76.7751L9.83282 55.3924C9.76653 55.3564 9.70131 55.3162 9.63718 55.2719C9.57287 55.2276 9.50974 55.1793 9.44778 55.127C9.38582 55.0747 9.32521 55.0185 9.26596 54.9584C9.20653 54.8984 9.14872 54.8347 9.09254 54.7673C9.03636 54.6999 8.9819 54.629 8.92915 54.5548C8.87622 54.4804 8.82519 54.4029 8.77605 54.3221C8.7271 54.2413 8.68004 54.1575 8.63488 54.0707C8.58972 53.9839 8.54672 53.8944 8.5059 53.8021C8.46525 53.7099 8.42678 53.6152 8.39047 53.518C8.35416 53.4209 8.32029 53.3216 8.28885 53.2201C8.25724 53.1187 8.22816 53.0154 8.20161 52.9103C8.17505 52.8051 8.15111 52.6984 8.1298 52.5903C8.1083 52.482 8.08943 52.3727 8.07317 52.2621C8.05709 52.1515 8.04363 52.04 8.03279 51.9277C8.02195 51.8154 8.01382 51.7026 8.0084 51.5893C8.0028 51.4759 8 51.3624 8 51.2487V26.3687C8.00018 26.2825 8.00181 26.1963 8.00488 26.1101C8.00795 26.0242 8.01265 25.9384 8.01897 25.8528C8.02511 25.7672 8.03288 25.682 8.04227 25.5973C8.05167 25.5125 8.0625 25.4282 8.07479 25.3444C8.08725 25.2605 8.10116 25.1774 8.11652 25.095C8.13205 25.0126 8.14894 24.931 8.16719 24.8501C8.18561 24.7695 8.20549 24.6897 8.2268 24.6109C8.24812 24.532 8.27079 24.4542 8.29482 24.3774C8.31902 24.3006 8.34458 24.2251 8.3715 24.151C8.39823 24.0768 8.42642 24.0039 8.45604 23.9321C8.48549 23.8606 8.5162 23.7906 8.54817 23.722C8.58032 23.6535 8.61365 23.5865 8.64815 23.5212C8.68266 23.4559 8.71825 23.3923 8.75492 23.3305C8.79177 23.2685 8.8297 23.2083 8.86872 23.15C8.90756 23.0918 8.94758 23.0354 8.98876 22.981C9.02977 22.9266 9.07168 22.8742 9.11449 22.8239C9.15748 22.7736 9.20129 22.7253 9.2459 22.6791C9.2907 22.6329 9.33623 22.5889 9.38248 22.5472C9.42872 22.5054 9.47569 22.466 9.52338 22.4289C9.57107 22.3915 9.61939 22.3565 9.66835 22.3238C9.7173 22.2915 9.76688 22.2613 9.8171 22.2334C9.86714 22.2057 9.91764 22.1804 9.96858 22.1575C10.0197 22.1345 10.0711 22.1141 10.1228 22.0961C10.1744 22.0782 10.2264 22.0627 10.2788 22.0498C10.331 22.0368 10.3835 22.0264 10.4363 22.0184C10.489 22.0105 10.5418 22.005 10.5945 22.0021C10.6474 21.9995 10.7004 21.9993 10.7533 22.0017C10.8062 22.0037 10.859 22.0084 10.9115 22.0158C10.9643 22.0231 11.0169 22.0331 11.0692 22.0458C11.1216 22.0582 11.1738 22.073 11.2256 22.0904C11.2774 22.108 11.3288 22.128 11.3798 22.1504C11.4309 22.1728 11.4816 22.1976 11.5318 22.225L49.1507 42.6836C49.2876 42.758 49.4273 42.8142 49.5698 42.8519C49.7124 42.8896 49.8558 42.9085 50.0001 42.9085C50.1445 42.9085 50.2879 42.8896 50.4304 42.8519C50.573 42.8142 50.7127 42.758 50.8496 42.6836L88.4684 22.225C88.5186 22.1976 88.5692 22.1728 88.6203 22.1504C88.6714 22.128 88.7228 22.108 88.7746 22.0904C88.8264 22.073 88.8785 22.0582 88.9309 22.0458C88.9832 22.0331 89.0357 22.0231 89.0885 22.0158C89.1412 22.0084 89.194 22.0037 89.2469 22.0017C89.2998 21.9993 89.3526 21.9995 89.4055 22.0021C89.4584 22.005 89.5112 22.0105 89.5638 22.0184C89.6165 22.0264 89.669 22.0368 89.7213 22.0498C89.7736 22.0627 89.8257 22.0782 89.8774 22.0961C89.9291 22.1141 89.9805 22.1345 90.0315 22.1575C90.0825 22.1804 90.133 22.2057 90.1831 22.2334C90.2332 22.2613 90.2827 22.2916 90.3317 22.3243C90.3807 22.3566 90.429 22.3915 90.4767 22.4289C90.5245 22.466 90.5715 22.5054 90.6177 22.5472C90.664 22.5889 90.7095 22.6329 90.7542 22.6791C90.7988 22.7253 90.8426 22.7736 90.8856 22.8239C90.9285 22.8742 90.9705 22.9266 91.0115 22.981C91.0525 23.0354 91.0925 23.0918 91.1315 23.15C91.1705 23.2083 91.2084 23.2685 91.2452 23.3305C91.282 23.3923 91.3176 23.4559 91.3521 23.5212C91.3866 23.5865 91.4198 23.6535 91.4519 23.722C91.4839 23.7906 91.5147 23.8606 91.5442 23.9321C91.5737 24.0039 91.6019 24.0768 91.6287 24.151C91.6556 24.2251 91.6811 24.3006 91.7052 24.3774C91.7293 24.4542 91.752 24.532 91.7733 24.6109C91.7946 24.6897 91.8144 24.7695 91.8328 24.8501C91.8512 24.931 91.8681 25.0126 91.8835 25.095C91.8989 25.1774 91.9129 25.2605 91.9253 25.3444C91.9377 25.4282 91.9485 25.5125 91.9579 25.5973C91.9672 25.682 91.975 25.7672 91.9812 25.8528C91.9875 25.9384 91.9922 26.0242 91.9953 26.1101C91.9984 26.1963 92 26.2825 92 26.3687V51.2487C92 51.3624 91.9973 51.4759 91.9918 51.5893C91.9864 51.7026 91.9783 51.8154 91.9674 51.9277C91.9566 52.04 91.943 52.1515 91.9268 52.2621C91.9106 52.3727 91.8918 52.4821 91.8704 52.5903C91.849 52.6984 91.825 52.8051 91.7984 52.9103C91.7719 53.0154 91.7429 53.1187 91.7114 53.2202C91.6799 53.3216 91.646 53.4209 91.6097 53.5181C91.5735 53.6152 91.5349 53.7099 91.4941 53.8022C91.4533 53.8944 91.4104 53.9839 91.3653 54.0707C91.3202 54.1575 91.2731 54.2413 91.224 54.3221C91.1749 54.4029 91.1239 54.4804 91.0711 54.5548C91.0183 54.6291 90.9638 54.6999 90.9075 54.7673C90.8513 54.8347 90.7936 54.8984 90.7343 54.9584C90.675 55.0185 90.6144 55.0747 90.5524 55.127C90.4905 55.1793 90.4273 55.2276 90.3631 55.2719C90.2988 55.3162 90.2335 55.3564 90.1673 55.3924Z" fill="white"/>
</g>
<defs>
<filter id="filter0_d_152_10" x="4" y="18" width="92" height="63" filterUnits="userSpaceOnUse" color-interpolation-filters="sRGB">
<feFlood flood-opacity="0" result="BackgroundImageFix"/>
<feColorMatrix in="SourceAlpha" type="matrix" values="0 0 0 0 0 0 0 0 0 0 0 0 0 0 0 0 0 0 127 0" result="hardAlpha"/>
<feOffset/>
<feGaussianBlur stdDeviation="2"/>
<feComposite in2="hardAlpha" operator="out"/>
<feColorMatrix type="matrix" values="0 0 0 0 1 0 0 0 0 1 0 0 0 0 1 0 0 0 0.25 0"/>
<feBlend mode="normal" in2="BackgroundImageFix" result="effect1_dropShadow_152_10"/>
<feBlend mode="normal" in="SourceGraphic" in2="effect1_dropShadow_152_10" result="shape"/>
</filter>
<filter id="filter1_d_152_10" x="4" y="18" width="92" height="63" filterUnits="userSpaceOnUse" color-interpolation-filters="sRGB">
<feFlood flood-opacity="0" result="BackgroundImageFix"/>
<feColorMatrix in="SourceAlpha" type="matrix" values="0 0 0 0 0 0 0 0 0 0 0 0 0 0 0 0 0 0 127 0" result="hardAlpha"/>
<feOffset/>
<feGaussianBlur stdDeviation="2"/>
<feComposite in2="hardAlpha" operator="out"/>
<feColorMatrix type="matrix" values="0 0 0 0 1 0 0 0 0 1 0 0 0 0 1 0 0 0 0.25 0"/>
<feBlend mode="normal" in2="BackgroundImageFix" result="effect1_dropShadow_152_10"/>
<feBlend mode="normal" in="SourceGraphic" in2="effect1_dropShadow_152_10" result="shape"/>
</filter>
</defs>
</svg>
