<svg width="740" height="740" viewBox="0 0 740 740" fill="none" xmlns="http://www.w3.org/2000/svg">
<path fill-rule="evenodd" clip-rule="evenodd" d="M476.889 104.504L521.63 105.644C521.786 105.648 521.935 105.67 522.077 105.708C522.22 105.747 522.353 105.802 522.478 105.874C522.603 105.947 522.718 106.035 522.823 106.139C522.927 106.242 523.02 106.361 523.102 106.494L546.461 144.671C546.5 144.735 546.536 144.802 546.57 144.873C546.603 144.943 546.634 145.017 546.661 145.093C546.689 145.169 546.713 145.248 546.734 145.33C546.756 145.412 546.774 145.496 546.789 145.582C546.804 145.669 546.816 145.757 546.824 145.848C546.833 145.939 546.838 146.032 546.841 146.126C546.843 146.221 546.841 146.317 546.837 146.414C546.833 146.512 546.825 146.611 546.815 146.711C546.804 146.812 546.79 146.913 546.772 147.015C546.755 147.117 546.735 147.22 546.712 147.324C546.688 147.428 546.662 147.532 546.632 147.636C546.603 147.74 546.57 147.845 546.534 147.949C546.499 148.053 546.46 148.158 546.419 148.262C546.378 148.365 546.334 148.469 546.287 148.571C546.24 148.674 546.191 148.776 546.139 148.877C546.087 148.978 546.033 149.077 545.976 149.176L533.536 170.722C533.493 170.797 533.448 170.871 533.402 170.944C533.357 171.017 533.31 171.089 533.262 171.16C533.213 171.231 533.164 171.301 533.114 171.369C533.063 171.438 533.012 171.506 532.959 171.572C532.906 171.639 532.853 171.704 532.798 171.767C532.744 171.831 532.688 171.893 532.632 171.954C532.576 172.015 532.519 172.074 532.461 172.131C532.403 172.189 532.344 172.245 532.285 172.3C532.226 172.354 532.166 172.407 532.105 172.457C532.045 172.508 531.984 172.557 531.923 172.605C531.861 172.652 531.8 172.697 531.738 172.74C531.676 172.784 531.613 172.825 531.551 172.864C531.488 172.904 531.426 172.941 531.363 172.976C531.3 173.011 531.237 173.045 531.174 173.076C531.112 173.107 531.049 173.135 530.986 173.162C530.923 173.189 530.861 173.213 530.798 173.235C530.736 173.257 530.674 173.277 530.612 173.295C530.55 173.312 530.489 173.328 530.428 173.341C530.367 173.354 530.307 173.364 530.247 173.373C530.187 173.381 530.127 173.387 530.069 173.391C530.01 173.395 529.952 173.396 529.895 173.395C529.837 173.394 529.781 173.391 529.725 173.385C529.67 173.38 529.615 173.372 529.561 173.361C529.508 173.351 529.455 173.338 529.403 173.323C529.351 173.308 529.301 173.291 529.251 173.272C529.201 173.252 529.153 173.231 529.106 173.207C529.059 173.183 529.013 173.156 528.968 173.128C528.923 173.1 528.88 173.069 528.838 173.036C528.796 173.004 528.756 172.969 528.716 172.932C528.677 172.895 528.64 172.856 528.603 172.815C528.567 172.774 528.533 172.731 528.5 172.686C528.467 172.641 528.435 172.594 528.405 172.545L506.056 136.018C505.975 135.885 505.882 135.767 505.777 135.663C505.672 135.559 505.558 135.471 505.433 135.399C505.308 135.326 505.174 135.271 505.032 135.232C504.889 135.194 504.74 135.173 504.585 135.169L461.776 134.077C461.719 134.075 461.663 134.072 461.608 134.065C461.552 134.059 461.498 134.051 461.444 134.04C461.39 134.029 461.338 134.016 461.286 134.001C461.235 133.986 461.184 133.968 461.135 133.948C461.085 133.928 461.037 133.906 460.991 133.881C460.944 133.857 460.898 133.83 460.853 133.801C460.809 133.772 460.766 133.741 460.724 133.708C460.683 133.675 460.643 133.639 460.604 133.602C460.565 133.565 460.528 133.525 460.492 133.484C460.456 133.443 460.422 133.399 460.389 133.354C460.356 133.308 460.325 133.261 460.296 133.212C460.266 133.163 460.238 133.112 460.212 133.059C460.186 133.007 460.162 132.952 460.139 132.896C460.116 132.84 460.095 132.782 460.076 132.723C460.057 132.664 460.04 132.603 460.024 132.541C460.008 132.478 459.995 132.415 459.983 132.35C459.971 132.285 459.96 132.218 459.952 132.151C459.944 132.083 459.937 132.014 459.933 131.944C459.928 131.874 459.925 131.803 459.924 131.731C459.923 131.659 459.924 131.586 459.927 131.512C459.93 131.439 459.935 131.364 459.941 131.289C459.948 131.213 459.956 131.137 459.966 131.061C459.977 130.984 459.989 130.906 460.002 130.829C460.016 130.751 460.032 130.673 460.049 130.594C460.067 130.516 460.086 130.437 460.107 130.358C460.128 130.279 460.151 130.2 460.175 130.121C460.2 130.042 460.226 129.963 460.254 129.884C460.282 129.805 460.311 129.726 460.342 129.647C460.374 129.568 460.406 129.49 460.441 129.412C460.475 129.334 460.511 129.256 460.548 129.179C460.586 129.101 460.624 129.025 460.665 128.949C460.705 128.873 460.747 128.797 460.79 128.722L473.23 107.176C473.287 107.077 473.346 106.98 473.407 106.885C473.469 106.789 473.532 106.696 473.598 106.604C473.663 106.512 473.731 106.422 473.8 106.335C473.869 106.247 473.94 106.162 474.013 106.079C474.085 105.996 474.16 105.915 474.235 105.838C474.311 105.76 474.388 105.685 474.466 105.613C474.544 105.541 474.623 105.472 474.703 105.406C474.782 105.34 474.863 105.277 474.945 105.217C475.026 105.158 475.108 105.102 475.19 105.049C475.273 104.997 475.356 104.948 475.439 104.902C475.521 104.857 475.604 104.815 475.687 104.777C475.77 104.739 475.853 104.705 475.935 104.675C476.018 104.645 476.099 104.618 476.181 104.596C476.262 104.574 476.343 104.555 476.423 104.541C476.502 104.527 476.581 104.516 476.659 104.51C476.737 104.504 476.813 104.502 476.889 104.504Z" fill="#EDEFFF"/>
<path fill-rule="evenodd" clip-rule="evenodd" d="M452.32 147.058L497.061 148.199C497.217 148.203 497.366 148.225 497.508 148.263C497.651 148.302 497.784 148.357 497.909 148.429C498.034 148.501 498.149 148.59 498.254 148.693C498.358 148.797 498.451 148.916 498.533 149.049L521.891 187.226C521.931 187.29 521.967 187.357 522.001 187.428C522.034 187.498 522.065 187.572 522.092 187.648C522.12 187.724 522.144 187.803 522.165 187.885C522.187 187.967 522.205 188.051 522.22 188.137C522.235 188.224 522.247 188.312 522.255 188.403C522.264 188.494 522.269 188.586 522.271 188.681C522.273 188.775 522.272 188.872 522.268 188.969C522.264 189.067 522.256 189.166 522.245 189.266C522.235 189.367 522.221 189.468 522.203 189.57C522.186 189.672 522.166 189.775 522.142 189.879C522.119 189.983 522.093 190.087 522.063 190.191C522.033 190.295 522.001 190.4 521.965 190.504C521.93 190.608 521.891 190.713 521.85 190.816C521.809 190.92 521.765 191.024 521.718 191.126C521.671 191.229 521.622 191.331 521.57 191.432C521.518 191.532 521.464 191.632 521.407 191.731L508.967 213.277C508.924 213.352 508.879 213.426 508.833 213.499C508.788 213.572 508.741 213.644 508.692 213.715C508.644 213.786 508.595 213.856 508.545 213.924C508.494 213.993 508.442 214.061 508.39 214.127C508.337 214.193 508.284 214.259 508.229 214.322C508.174 214.386 508.119 214.448 508.063 214.509C508.006 214.57 507.949 214.629 507.892 214.686C507.834 214.744 507.775 214.8 507.716 214.855C507.657 214.909 507.597 214.961 507.536 215.012C507.476 215.063 507.415 215.112 507.354 215.16C507.292 215.207 507.231 215.252 507.169 215.295C507.107 215.339 507.044 215.38 506.982 215.419C506.919 215.459 506.857 215.496 506.794 215.531C506.731 215.566 506.668 215.6 506.605 215.63C506.542 215.662 506.48 215.69 506.417 215.717C506.354 215.743 506.292 215.768 506.229 215.79C506.167 215.812 506.105 215.832 506.043 215.85C505.981 215.867 505.92 215.883 505.859 215.896C505.798 215.909 505.737 215.919 505.678 215.928C505.618 215.936 505.558 215.942 505.5 215.946C505.441 215.95 505.383 215.951 505.326 215.95C505.268 215.949 505.212 215.946 505.156 215.94C505.101 215.934 505.046 215.926 504.992 215.916C504.938 215.906 504.886 215.893 504.834 215.878C504.782 215.863 504.732 215.846 504.682 215.827C504.632 215.807 504.584 215.786 504.537 215.762C504.489 215.738 504.444 215.711 504.399 215.683C504.354 215.654 504.311 215.624 504.269 215.591C504.227 215.559 504.186 215.524 504.147 215.487C504.108 215.45 504.07 215.411 504.034 215.37C503.998 215.329 503.964 215.285 503.931 215.241C503.898 215.196 503.866 215.149 503.836 215.1L481.487 178.573C481.405 178.44 481.312 178.322 481.208 178.218C481.103 178.114 480.989 178.026 480.864 177.953C480.739 177.881 480.605 177.826 480.463 177.787C480.32 177.749 480.171 177.727 480.015 177.724L437.207 176.632C437.15 176.63 437.094 176.627 437.038 176.62C436.983 176.614 436.929 176.606 436.875 176.595C436.821 176.584 436.769 176.571 436.717 176.556C436.666 176.54 436.615 176.523 436.566 176.503C436.516 176.483 436.468 176.461 436.421 176.436C436.375 176.412 436.329 176.385 436.284 176.356C436.24 176.327 436.197 176.296 436.155 176.263C436.114 176.23 436.073 176.194 436.035 176.157C435.996 176.12 435.958 176.08 435.923 176.039C435.887 175.997 435.853 175.954 435.82 175.909C435.787 175.863 435.756 175.816 435.727 175.767C435.697 175.718 435.669 175.667 435.643 175.614C435.617 175.562 435.593 175.507 435.57 175.451C435.547 175.395 435.526 175.337 435.507 175.278C435.488 175.219 435.47 175.158 435.455 175.096C435.439 175.033 435.425 174.97 435.413 174.905C435.401 174.839 435.391 174.773 435.383 174.705C435.375 174.638 435.368 174.569 435.364 174.499C435.359 174.429 435.356 174.358 435.355 174.286C435.354 174.214 435.355 174.141 435.358 174.067C435.361 173.994 435.366 173.919 435.372 173.844C435.379 173.768 435.387 173.692 435.397 173.615C435.407 173.539 435.42 173.461 435.433 173.384C435.447 173.306 435.463 173.228 435.48 173.149C435.498 173.071 435.517 172.992 435.538 172.913C435.559 172.834 435.582 172.755 435.606 172.676C435.631 172.597 435.657 172.518 435.685 172.439C435.713 172.36 435.742 172.281 435.773 172.202C435.804 172.123 435.837 172.045 435.871 171.967C435.906 171.888 435.942 171.811 435.979 171.734C436.016 171.656 436.055 171.58 436.095 171.504C436.136 171.427 436.178 171.352 436.221 171.277L448.661 149.731C448.718 149.632 448.777 149.535 448.838 149.44C448.899 149.344 448.963 149.251 449.028 149.159C449.094 149.067 449.161 148.977 449.231 148.89C449.3 148.802 449.371 148.717 449.444 148.634C449.516 148.551 449.591 148.47 449.666 148.392C449.742 148.315 449.818 148.24 449.896 148.168C449.974 148.096 450.053 148.026 450.133 147.96C450.213 147.894 450.294 147.832 450.376 147.772C450.457 147.713 450.539 147.657 450.621 147.604C450.704 147.551 450.787 147.502 450.869 147.457C450.952 147.412 451.035 147.37 451.118 147.332C451.201 147.294 451.284 147.26 451.366 147.23C451.449 147.199 451.53 147.173 451.612 147.151C451.693 147.128 451.774 147.11 451.854 147.096C451.933 147.081 452.012 147.071 452.09 147.065C452.168 147.059 452.244 147.057 452.32 147.058Z" fill="#EDEFFF"/>
<path fill-rule="evenodd" clip-rule="evenodd" d="M427.028 190.865L471.77 192.006C471.925 192.01 472.074 192.031 472.217 192.07C472.359 192.108 472.493 192.164 472.618 192.236C472.743 192.308 472.857 192.396 472.962 192.5C473.067 192.604 473.16 192.722 473.241 192.855L496.6 231.032C496.639 231.096 496.676 231.164 496.709 231.234C496.743 231.305 496.773 231.378 496.801 231.454C496.828 231.531 496.852 231.61 496.874 231.691C496.895 231.773 496.913 231.857 496.928 231.944C496.943 232.03 496.955 232.119 496.964 232.209C496.972 232.3 496.978 232.393 496.98 232.487C496.982 232.582 496.981 232.678 496.976 232.776C496.972 232.873 496.965 232.972 496.954 233.073C496.943 233.173 496.929 233.274 496.912 233.377C496.895 233.479 496.874 233.582 496.851 233.685C496.827 233.789 496.801 233.893 496.771 233.997C496.742 234.102 496.709 234.206 496.674 234.31C496.638 234.415 496.6 234.519 496.559 234.623C496.517 234.727 496.473 234.83 496.426 234.933C496.38 235.035 496.33 235.137 496.278 235.238C496.226 235.339 496.172 235.439 496.115 235.537L483.675 257.084C483.632 257.158 483.587 257.232 483.542 257.305C483.496 257.378 483.449 257.45 483.401 257.521C483.353 257.592 483.303 257.662 483.253 257.731C483.202 257.799 483.151 257.867 483.098 257.933C483.046 258 482.992 258.065 482.937 258.129C482.883 258.192 482.827 258.254 482.771 258.315C482.715 258.376 482.658 258.435 482.6 258.493C482.542 258.55 482.483 258.606 482.424 258.661C482.365 258.715 482.305 258.768 482.245 258.819C482.184 258.869 482.124 258.919 482.062 258.966C482.001 259.013 481.939 259.058 481.877 259.102C481.815 259.145 481.753 259.186 481.69 259.226C481.628 259.265 481.565 259.302 481.502 259.337C481.439 259.373 481.376 259.406 481.314 259.437C481.251 259.468 481.188 259.497 481.125 259.523C481.062 259.55 481 259.574 480.938 259.596C480.875 259.619 480.813 259.638 480.751 259.656C480.69 259.674 480.628 259.689 480.567 259.702C480.506 259.715 480.446 259.726 480.386 259.734C480.326 259.743 480.267 259.749 480.208 259.753C480.149 259.756 480.091 259.757 480.034 259.757C479.977 259.755 479.92 259.752 479.865 259.747C479.809 259.741 479.754 259.733 479.701 259.723C479.647 259.712 479.594 259.7 479.542 259.685C479.491 259.67 479.44 259.653 479.39 259.633C479.341 259.614 479.292 259.592 479.245 259.568C479.198 259.544 479.152 259.518 479.107 259.489C479.062 259.461 479.019 259.43 478.977 259.398C478.935 259.365 478.895 259.33 478.856 259.293C478.817 259.256 478.779 259.217 478.743 259.176C478.707 259.135 478.672 259.092 478.639 259.047C478.606 259.002 478.575 258.955 478.545 258.906L456.195 222.379C456.114 222.246 456.021 222.128 455.916 222.024C455.812 221.92 455.697 221.832 455.572 221.76C455.447 221.688 455.313 221.632 455.171 221.594C455.029 221.555 454.88 221.534 454.724 221.53L411.916 220.438C411.859 220.437 411.802 220.433 411.747 220.427C411.691 220.421 411.637 220.412 411.583 220.402C411.53 220.391 411.477 220.378 411.426 220.362C411.374 220.347 411.323 220.329 411.274 220.309C411.225 220.289 411.177 220.267 411.13 220.242C411.083 220.218 411.037 220.191 410.993 220.163C410.948 220.134 410.905 220.103 410.864 220.069C410.822 220.036 410.782 220.001 410.743 219.963C410.704 219.926 410.667 219.887 410.631 219.845C410.595 219.804 410.561 219.76 410.528 219.715C410.496 219.67 410.464 219.623 410.435 219.574C410.406 219.524 410.378 219.473 410.352 219.42C410.325 219.368 410.301 219.314 410.278 219.257C410.256 219.201 410.235 219.144 410.215 219.084C410.196 219.025 410.179 218.964 410.163 218.902C410.148 218.84 410.134 218.776 410.122 218.711C410.11 218.646 410.1 218.58 410.091 218.512C410.083 218.444 410.077 218.375 410.072 218.305C410.067 218.236 410.065 218.164 410.064 218.092C410.063 218.02 410.064 217.948 410.066 217.874C410.069 217.8 410.074 217.725 410.08 217.65C410.087 217.575 410.095 217.499 410.106 217.422C410.116 217.345 410.128 217.268 410.142 217.19C410.156 217.112 410.171 217.034 410.189 216.956C410.206 216.877 410.226 216.798 410.247 216.719C410.268 216.641 410.29 216.562 410.315 216.483C410.339 216.403 410.365 216.324 410.393 216.245C410.421 216.166 410.45 216.087 410.482 216.008C410.513 215.929 410.546 215.851 410.58 215.773C410.614 215.695 410.65 215.617 410.687 215.54C410.725 215.463 410.764 215.386 410.804 215.31C410.844 215.234 410.886 215.158 410.929 215.084L423.369 193.537C423.426 193.439 423.485 193.342 423.546 193.246C423.608 193.151 423.671 193.057 423.737 192.965C423.802 192.873 423.87 192.784 423.939 192.696C424.008 192.608 424.079 192.523 424.152 192.44C424.225 192.357 424.299 192.277 424.374 192.199C424.45 192.121 424.527 192.046 424.605 191.974C424.683 191.902 424.762 191.833 424.842 191.767C424.922 191.701 425.002 191.638 425.084 191.579C425.165 191.519 425.247 191.463 425.33 191.411C425.412 191.358 425.495 191.309 425.578 191.263C425.661 191.218 425.744 191.176 425.827 191.138C425.909 191.1 425.992 191.066 426.075 191.036C426.157 191.006 426.239 190.98 426.32 190.957C426.401 190.935 426.482 190.917 426.562 190.902C426.642 190.888 426.721 190.878 426.798 190.871C426.876 190.865 426.953 190.863 427.028 190.865Z" fill="#EDEFFF"/>
<path fill-rule="evenodd" clip-rule="evenodd" d="M401.014 235.923L445.755 237.064C445.911 237.068 446.06 237.089 446.202 237.128C446.345 237.166 446.478 237.222 446.603 237.294C446.728 237.366 446.843 237.454 446.948 237.558C447.052 237.662 447.145 237.78 447.227 237.913L470.586 276.09C470.625 276.155 470.661 276.222 470.695 276.292C470.728 276.363 470.759 276.436 470.786 276.513C470.814 276.589 470.838 276.668 470.859 276.75C470.881 276.831 470.899 276.915 470.914 277.002C470.929 277.088 470.941 277.177 470.949 277.267C470.958 277.358 470.963 277.451 470.966 277.546C470.968 277.64 470.966 277.736 470.962 277.834C470.958 277.932 470.95 278.031 470.94 278.131C470.929 278.231 470.915 278.332 470.897 278.435C470.88 278.537 470.86 278.64 470.837 278.743C470.813 278.847 470.787 278.951 470.757 279.055C470.728 279.16 470.695 279.264 470.659 279.368C470.624 279.473 470.585 279.577 470.544 279.681C470.503 279.785 470.459 279.888 470.412 279.991C470.365 280.093 470.316 280.195 470.264 280.296C470.212 280.397 470.158 280.497 470.101 280.595L457.661 302.142C457.618 302.216 457.573 302.29 457.527 302.363C457.482 302.436 457.435 302.508 457.387 302.579C457.338 302.65 457.289 302.72 457.239 302.789C457.188 302.858 457.137 302.925 457.084 302.992C457.031 303.058 456.978 303.123 456.923 303.187C456.869 303.25 456.813 303.313 456.757 303.373C456.701 303.434 456.644 303.493 456.586 303.551C456.528 303.608 456.469 303.665 456.41 303.719C456.351 303.773 456.291 303.826 456.23 303.877C456.17 303.928 456.109 303.977 456.048 304.024C455.986 304.071 455.925 304.117 455.863 304.16C455.801 304.203 455.738 304.245 455.676 304.284C455.613 304.323 455.551 304.36 455.488 304.396C455.425 304.431 455.362 304.464 455.299 304.495C455.237 304.526 455.174 304.555 455.111 304.581C455.048 304.608 454.986 304.632 454.923 304.655C454.861 304.677 454.799 304.697 454.737 304.714C454.675 304.732 454.614 304.747 454.553 304.76C454.492 304.773 454.432 304.784 454.372 304.792C454.312 304.801 454.252 304.807 454.194 304.811C454.135 304.814 454.077 304.816 454.02 304.815C453.962 304.814 453.906 304.81 453.85 304.805C453.795 304.799 453.74 304.791 453.686 304.781C453.633 304.77 453.58 304.758 453.528 304.743C453.476 304.728 453.426 304.711 453.376 304.691C453.326 304.672 453.278 304.65 453.231 304.626C453.184 304.602 453.138 304.576 453.093 304.547C453.048 304.519 453.005 304.489 452.963 304.456C452.921 304.423 452.881 304.388 452.841 304.351C452.802 304.314 452.765 304.275 452.728 304.234C452.692 304.193 452.658 304.15 452.625 304.105C452.592 304.06 452.56 304.013 452.53 303.965L430.181 267.437C430.1 267.305 430.007 267.186 429.902 267.082C429.797 266.978 429.683 266.89 429.558 266.818C429.433 266.746 429.299 266.69 429.157 266.652C429.014 266.613 428.865 266.592 428.71 266.588L385.901 265.496C385.844 265.495 385.788 265.491 385.733 265.485C385.677 265.479 385.623 265.47 385.569 265.46C385.515 265.449 385.463 265.436 385.411 265.42C385.36 265.405 385.309 265.387 385.26 265.367C385.21 265.347 385.162 265.325 385.116 265.3C385.069 265.276 385.023 265.249 384.978 265.221C384.934 265.192 384.891 265.161 384.849 265.127C384.808 265.094 384.768 265.059 384.729 265.022C384.69 264.984 384.653 264.945 384.617 264.903C384.581 264.862 384.547 264.819 384.514 264.773C384.481 264.728 384.45 264.681 384.421 264.632C384.391 264.582 384.363 264.531 384.337 264.479C384.311 264.426 384.287 264.372 384.264 264.316C384.241 264.26 384.22 264.202 384.201 264.143C384.182 264.083 384.165 264.022 384.149 263.96C384.133 263.898 384.12 263.834 384.108 263.769C384.096 263.704 384.085 263.638 384.077 263.57C384.069 263.502 384.062 263.434 384.058 263.364C384.053 263.294 384.05 263.223 384.049 263.15C384.048 263.079 384.049 263.006 384.052 262.932C384.055 262.858 384.06 262.783 384.066 262.708C384.073 262.633 384.081 262.557 384.091 262.48C384.102 262.403 384.114 262.326 384.127 262.248C384.141 262.17 384.157 262.092 384.174 262.014C384.192 261.935 384.211 261.857 384.232 261.778C384.253 261.699 384.276 261.62 384.3 261.541C384.325 261.461 384.351 261.382 384.379 261.303C384.407 261.224 384.436 261.145 384.467 261.066C384.499 260.988 384.531 260.909 384.566 260.831C384.6 260.753 384.636 260.675 384.673 260.598C384.711 260.521 384.749 260.444 384.79 260.368C384.83 260.292 384.872 260.217 384.915 260.142L397.355 238.595C397.412 238.497 397.471 238.4 397.532 238.304C397.594 238.209 397.657 238.115 397.723 238.023C397.788 237.932 397.856 237.842 397.925 237.754C397.994 237.666 398.065 237.581 398.138 237.498C398.21 237.415 398.285 237.335 398.36 237.257C398.436 237.179 398.513 237.104 398.591 237.032C398.669 236.96 398.748 236.891 398.828 236.825C398.907 236.759 398.988 236.696 399.07 236.637C399.151 236.577 399.233 236.521 399.315 236.469C399.398 236.416 399.481 236.367 399.564 236.322C399.646 236.276 399.729 236.234 399.812 236.197C399.895 236.159 399.978 236.124 400.06 236.094C400.143 236.064 400.224 236.038 400.306 236.015C400.387 235.993 400.468 235.975 400.548 235.96C400.627 235.946 400.706 235.936 400.784 235.929C400.862 235.923 400.938 235.921 401.014 235.923Z" fill="#EDEFFF"/>
<path fill-rule="evenodd" clip-rule="evenodd" d="M376.445 278.478L421.186 279.619C421.342 279.623 421.491 279.644 421.633 279.682C421.776 279.721 421.909 279.776 422.034 279.849C422.159 279.921 422.274 280.009 422.379 280.113C422.483 280.217 422.576 280.335 422.658 280.468L446.016 318.645C446.056 318.709 446.092 318.777 446.126 318.847C446.159 318.918 446.19 318.991 446.217 319.067C446.245 319.144 446.269 319.223 446.29 319.304C446.312 319.386 446.33 319.47 446.345 319.556C446.36 319.643 446.372 319.731 446.38 319.822C446.389 319.913 446.394 320.006 446.396 320.1C446.398 320.195 446.397 320.291 446.393 320.389C446.389 320.486 446.381 320.585 446.37 320.686C446.36 320.786 446.346 320.887 446.328 320.989C446.311 321.092 446.291 321.195 446.267 321.298C446.244 321.402 446.218 321.506 446.188 321.61C446.158 321.714 446.126 321.819 446.09 321.923C446.055 322.028 446.016 322.132 445.975 322.236C445.934 322.339 445.89 322.443 445.843 322.545C445.796 322.648 445.747 322.75 445.695 322.851C445.643 322.952 445.589 323.051 445.532 323.15L433.092 344.697C433.049 344.771 433.004 344.845 432.958 344.918C432.913 344.991 432.866 345.063 432.817 345.134C432.769 345.205 432.72 345.275 432.67 345.344C432.619 345.412 432.567 345.48 432.515 345.546C432.462 345.613 432.409 345.678 432.354 345.741C432.299 345.805 432.244 345.867 432.188 345.928C432.131 345.989 432.074 346.048 432.017 346.106C431.959 346.163 431.9 346.219 431.841 346.274C431.782 346.328 431.722 346.381 431.661 346.431C431.601 346.482 431.54 346.531 431.479 346.579C431.417 346.626 431.356 346.671 431.294 346.715C431.232 346.758 431.169 346.799 431.107 346.839C431.044 346.878 430.982 346.915 430.919 346.95C430.856 346.986 430.793 347.019 430.73 347.05C430.667 347.081 430.605 347.109 430.542 347.136C430.479 347.163 430.417 347.187 430.354 347.209C430.292 347.231 430.23 347.251 430.168 347.269C430.106 347.287 430.045 347.302 429.984 347.315C429.923 347.328 429.862 347.339 429.803 347.347C429.743 347.355 429.683 347.362 429.625 347.365C429.566 347.369 429.508 347.37 429.451 347.369C429.393 347.368 429.337 347.365 429.281 347.359C429.226 347.354 429.171 347.346 429.117 347.335C429.063 347.325 429.011 347.312 428.959 347.297C428.907 347.283 428.857 347.265 428.807 347.246C428.757 347.226 428.709 347.205 428.662 347.181C428.614 347.157 428.569 347.13 428.524 347.102C428.479 347.074 428.436 347.043 428.394 347.011C428.352 346.978 428.311 346.943 428.272 346.906C428.233 346.869 428.195 346.83 428.159 346.789C428.123 346.748 428.089 346.705 428.056 346.66C428.023 346.615 427.991 346.568 427.961 346.519L405.612 309.992C405.53 309.859 405.437 309.741 405.333 309.637C405.228 309.533 405.114 309.445 404.989 309.373C404.864 309.3 404.73 309.245 404.588 309.207C404.445 309.168 404.296 309.147 404.14 309.143L361.332 308.051C361.275 308.05 361.219 308.046 361.163 308.04C361.108 308.033 361.054 308.025 361 308.014C360.946 308.004 360.894 307.99 360.842 307.975C360.791 307.96 360.74 307.942 360.691 307.922C360.641 307.902 360.593 307.88 360.546 307.855C360.5 307.831 360.454 307.804 360.409 307.775C360.365 307.746 360.322 307.715 360.28 307.682C360.239 307.649 360.198 307.614 360.16 307.576C360.121 307.539 360.083 307.499 360.048 307.458C360.012 307.417 359.978 307.373 359.945 307.328C359.912 307.282 359.881 307.235 359.852 307.186C359.822 307.137 359.794 307.086 359.768 307.033C359.742 306.981 359.718 306.926 359.695 306.87C359.672 306.814 359.651 306.757 359.632 306.697C359.613 306.638 359.595 306.577 359.58 306.515C359.564 306.452 359.55 306.389 359.538 306.324C359.526 306.259 359.516 306.192 359.508 306.125C359.5 306.057 359.493 305.988 359.489 305.918C359.484 305.848 359.481 305.777 359.48 305.705C359.479 305.633 359.48 305.56 359.483 305.487C359.486 305.413 359.491 305.338 359.497 305.263C359.504 305.187 359.512 305.111 359.522 305.035C359.532 304.958 359.545 304.88 359.558 304.803C359.572 304.725 359.588 304.647 359.605 304.569C359.623 304.49 359.642 304.411 359.663 304.332C359.684 304.253 359.707 304.174 359.731 304.095C359.756 304.016 359.782 303.937 359.81 303.858C359.838 303.779 359.867 303.7 359.898 303.621C359.929 303.542 359.962 303.464 359.996 303.386C360.031 303.308 360.067 303.23 360.104 303.153C360.141 303.075 360.18 302.999 360.22 302.923C360.261 302.847 360.303 302.771 360.346 302.697L372.786 281.15C372.843 281.051 372.902 280.954 372.963 280.859C373.024 280.764 373.088 280.67 373.153 280.578C373.219 280.486 373.286 280.397 373.356 280.309C373.425 280.221 373.496 280.136 373.569 280.053C373.641 279.97 373.716 279.889 373.791 279.812C373.867 279.734 373.943 279.659 374.021 279.587C374.099 279.515 374.178 279.446 374.258 279.38C374.338 279.314 374.419 279.251 374.501 279.191C374.582 279.132 374.664 279.076 374.746 279.023C374.829 278.971 374.912 278.922 374.994 278.876C375.077 278.831 375.16 278.789 375.243 278.751C375.326 278.713 375.409 278.679 375.491 278.649C375.574 278.619 375.655 278.592 375.737 278.57C375.818 278.548 375.899 278.529 375.979 278.515C376.058 278.501 376.137 278.49 376.215 278.484C376.293 278.478 376.369 278.476 376.445 278.478Z" fill="#EDEFFF"/>
<path fill-rule="evenodd" clip-rule="evenodd" d="M350.43 323.536L395.172 324.677C395.328 324.681 395.477 324.702 395.619 324.74C395.761 324.779 395.895 324.834 396.02 324.907C396.145 324.979 396.26 325.067 396.364 325.171C396.469 325.275 396.562 325.393 396.643 325.526L420.002 363.703C420.042 363.767 420.078 363.835 420.111 363.905C420.145 363.976 420.175 364.049 420.203 364.125C420.23 364.202 420.255 364.281 420.276 364.362C420.298 364.444 420.316 364.528 420.331 364.615C420.346 364.701 420.357 364.79 420.366 364.88C420.375 364.971 420.38 365.064 420.382 365.158C420.384 365.253 420.383 365.349 420.379 365.447C420.374 365.544 420.367 365.643 420.356 365.744C420.345 365.844 420.331 365.945 420.314 366.047C420.297 366.15 420.277 366.253 420.253 366.356C420.23 366.46 420.203 366.564 420.174 366.668C420.144 366.773 420.112 366.877 420.076 366.981C420.04 367.086 420.002 367.19 419.961 367.294C419.92 367.398 419.875 367.501 419.829 367.604C419.782 367.706 419.733 367.808 419.681 367.909C419.629 368.01 419.574 368.11 419.518 368.208L407.078 389.755C407.034 389.829 406.99 389.903 406.944 389.976C406.898 390.049 406.851 390.121 406.803 390.192C406.755 390.263 406.706 390.333 406.655 390.402C406.605 390.47 406.553 390.538 406.501 390.604C406.448 390.671 406.394 390.736 406.34 390.799C406.285 390.863 406.23 390.925 406.173 390.986C406.117 391.047 406.06 391.106 406.002 391.164C405.944 391.221 405.886 391.277 405.827 391.332C405.767 391.386 405.707 391.439 405.647 391.49C405.587 391.54 405.526 391.589 405.464 391.637C405.403 391.684 405.341 391.729 405.279 391.773C405.217 391.816 405.155 391.857 405.093 391.897C405.03 391.936 404.967 391.973 404.905 392.008C404.842 392.044 404.779 392.077 404.716 392.108C404.653 392.139 404.59 392.168 404.527 392.194C404.465 392.221 404.402 392.245 404.34 392.267C404.278 392.289 404.216 392.309 404.154 392.327C404.092 392.345 404.03 392.36 403.97 392.373C403.909 392.386 403.848 392.397 403.788 392.405C403.728 392.413 403.669 392.42 403.61 392.423C403.552 392.427 403.494 392.428 403.436 392.427C403.379 392.426 403.323 392.423 403.267 392.417C403.211 392.412 403.157 392.404 403.103 392.393C403.049 392.383 402.996 392.371 402.945 392.356C402.893 392.341 402.842 392.323 402.793 392.304C402.743 392.284 402.695 392.263 402.647 392.239C402.6 392.215 402.554 392.188 402.51 392.16C402.465 392.132 402.422 392.101 402.38 392.069C402.338 392.036 402.297 392.001 402.258 391.964C402.219 391.927 402.181 391.888 402.145 391.847C402.109 391.806 402.074 391.763 402.041 391.718C402.008 391.673 401.977 391.626 401.947 391.577L379.597 355.05C379.516 354.917 379.423 354.799 379.319 354.695C379.214 354.591 379.099 354.503 378.974 354.431C378.849 354.359 378.716 354.303 378.573 354.265C378.431 354.226 378.282 354.205 378.126 354.201L335.318 353.109C335.261 353.108 335.205 353.104 335.149 353.098C335.094 353.092 335.039 353.083 334.986 353.073C334.932 353.062 334.879 353.048 334.828 353.033C334.776 353.018 334.726 353 334.676 352.98C334.627 352.96 334.579 352.938 334.532 352.913C334.485 352.889 334.44 352.862 334.395 352.834C334.351 352.805 334.308 352.773 334.266 352.74C334.224 352.707 334.184 352.672 334.145 352.634C334.107 352.597 334.069 352.558 334.033 352.516C333.998 352.475 333.963 352.431 333.931 352.386C333.898 352.341 333.867 352.293 333.837 352.244C333.808 352.195 333.78 352.144 333.754 352.091C333.728 352.039 333.703 351.985 333.681 351.928C333.658 351.872 333.637 351.815 333.618 351.755C333.599 351.696 333.581 351.635 333.566 351.573C333.55 351.511 333.536 351.447 333.524 351.382C333.512 351.317 333.502 351.25 333.494 351.183C333.485 351.115 333.479 351.046 333.474 350.976C333.47 350.906 333.467 350.835 333.466 350.763C333.465 350.691 333.466 350.618 333.469 350.545C333.472 350.471 333.476 350.396 333.483 350.321C333.489 350.245 333.498 350.169 333.508 350.093C333.518 350.016 333.53 349.939 333.544 349.861C333.558 349.783 333.574 349.705 333.591 349.627C333.609 349.548 333.628 349.469 333.649 349.39C333.67 349.311 333.693 349.232 333.717 349.153C333.741 349.074 333.768 348.995 333.795 348.916C333.823 348.837 333.853 348.758 333.884 348.679C333.915 348.6 333.948 348.522 333.982 348.444C334.016 348.366 334.052 348.288 334.09 348.211C334.127 348.134 334.166 348.057 334.206 347.981C334.247 347.905 334.288 347.829 334.331 347.755L346.771 326.208C346.828 326.109 346.887 326.013 346.949 325.917C347.01 325.822 347.074 325.728 347.139 325.636C347.205 325.544 347.272 325.455 347.341 325.367C347.411 325.279 347.482 325.194 347.554 325.111C347.627 325.028 347.701 324.948 347.777 324.87C347.852 324.792 347.929 324.717 348.007 324.645C348.085 324.573 348.164 324.504 348.244 324.438C348.324 324.372 348.405 324.309 348.486 324.25C348.568 324.19 348.65 324.134 348.732 324.081C348.815 324.029 348.897 323.98 348.98 323.934C349.063 323.889 349.146 323.847 349.229 323.809C349.312 323.771 349.394 323.737 349.477 323.707C349.559 323.677 349.641 323.65 349.722 323.628C349.804 323.606 349.884 323.587 349.964 323.573C350.044 323.559 350.123 323.548 350.201 323.542C350.279 323.536 350.355 323.534 350.43 323.536Z" fill="#EDEFFF"/>
<path fill-rule="evenodd" clip-rule="evenodd" d="M325.139 367.342L369.88 368.483C370.036 368.487 370.185 368.509 370.327 368.547C370.47 368.586 370.603 368.641 370.728 368.713C370.853 368.785 370.968 368.873 371.073 368.977C371.177 369.081 371.27 369.2 371.352 369.333L394.711 407.51C394.75 407.574 394.786 407.641 394.82 407.712C394.853 407.782 394.884 407.856 394.911 407.932C394.939 408.008 394.963 408.087 394.984 408.169C395.006 408.251 395.024 408.335 395.039 408.421C395.054 408.508 395.066 408.596 395.074 408.687C395.083 408.778 395.088 408.87 395.091 408.965C395.093 409.059 395.091 409.156 395.087 409.253C395.083 409.351 395.075 409.45 395.065 409.55C395.054 409.651 395.04 409.752 395.022 409.854C395.005 409.956 394.985 410.059 394.962 410.163C394.938 410.267 394.912 410.371 394.882 410.475C394.853 410.579 394.82 410.684 394.784 410.788C394.749 410.892 394.71 410.997 394.669 411.1C394.628 411.204 394.584 411.307 394.537 411.41C394.49 411.513 394.441 411.615 394.389 411.715C394.337 411.816 394.283 411.916 394.226 412.015L381.786 433.561C381.743 433.636 381.698 433.71 381.652 433.783C381.607 433.856 381.56 433.928 381.512 433.999C381.463 434.07 381.414 434.14 381.364 434.208C381.313 434.277 381.262 434.345 381.209 434.411C381.156 434.477 381.103 434.542 381.048 434.606C380.994 434.67 380.938 434.732 380.882 434.793C380.826 434.854 380.769 434.913 380.711 434.97C380.653 435.028 380.594 435.084 380.535 435.138C380.476 435.193 380.416 435.245 380.355 435.296C380.295 435.347 380.234 435.396 380.173 435.443C380.111 435.491 380.05 435.536 379.988 435.579C379.926 435.623 379.863 435.664 379.801 435.703C379.738 435.743 379.676 435.78 379.613 435.815C379.55 435.85 379.487 435.883 379.424 435.914C379.362 435.945 379.299 435.974 379.236 436.001C379.173 436.027 379.111 436.052 379.048 436.074C378.986 436.096 378.924 436.116 378.862 436.134C378.8 436.151 378.739 436.167 378.678 436.18C378.617 436.193 378.557 436.203 378.497 436.212C378.437 436.22 378.377 436.226 378.319 436.23C378.26 436.234 378.202 436.235 378.145 436.234C378.087 436.233 378.031 436.23 377.975 436.224C377.92 436.218 377.865 436.21 377.811 436.2C377.758 436.19 377.705 436.177 377.653 436.162C377.601 436.147 377.551 436.13 377.501 436.111C377.451 436.091 377.403 436.069 377.356 436.046C377.309 436.021 377.263 435.995 377.218 435.967C377.173 435.938 377.13 435.908 377.088 435.875C377.046 435.843 377.006 435.808 376.966 435.77C376.927 435.734 376.89 435.695 376.853 435.654C376.817 435.612 376.783 435.569 376.75 435.525C376.717 435.48 376.685 435.433 376.655 435.384L354.306 398.857C354.225 398.724 354.132 398.605 354.027 398.502C353.922 398.398 353.808 398.31 353.683 398.237C353.558 398.165 353.424 398.11 353.282 398.071C353.139 398.033 352.99 398.011 352.835 398.007L310.026 396.916C309.969 396.914 309.913 396.911 309.858 396.904C309.802 396.898 309.748 396.89 309.694 396.879C309.64 396.868 309.588 396.855 309.536 396.84C309.485 396.824 309.434 396.807 309.385 396.787C309.335 396.767 309.287 396.745 309.241 396.72C309.194 396.695 309.148 396.669 309.103 396.64C309.059 396.611 309.016 396.58 308.974 396.547C308.933 396.514 308.893 396.478 308.854 396.441C308.815 396.404 308.778 396.364 308.742 396.323C308.706 396.281 308.672 396.238 308.639 396.193C308.606 396.147 308.575 396.1 308.546 396.051C308.516 396.002 308.488 395.951 308.462 395.898C308.436 395.846 308.412 395.791 308.389 395.735C308.366 395.679 308.345 395.621 308.326 395.562C308.307 395.503 308.29 395.442 308.274 395.38C308.258 395.317 308.245 395.253 308.233 395.188C308.221 395.123 308.21 395.057 308.202 394.989C308.194 394.922 308.187 394.853 308.183 394.783C308.178 394.713 308.175 394.642 308.174 394.57C308.173 394.498 308.174 394.425 308.177 394.351C308.18 394.277 308.185 394.203 308.191 394.127C308.198 394.052 308.206 393.976 308.216 393.899C308.227 393.822 308.239 393.745 308.252 393.668C308.266 393.59 308.282 393.512 308.299 393.433C308.317 393.355 308.336 393.276 308.357 393.197C308.378 393.118 308.401 393.039 308.425 392.96C308.45 392.881 308.476 392.802 308.504 392.723C308.532 392.644 308.561 392.565 308.592 392.486C308.624 392.407 308.656 392.329 308.691 392.25C308.725 392.172 308.761 392.095 308.798 392.017C308.836 391.94 308.874 391.864 308.915 391.788C308.955 391.711 308.997 391.636 309.04 391.561L321.48 370.015C321.537 369.916 321.596 369.819 321.657 369.724C321.719 369.628 321.782 369.535 321.848 369.443C321.913 369.351 321.981 369.261 322.05 369.174C322.119 369.086 322.19 369.001 322.263 368.918C322.335 368.835 322.41 368.754 322.485 368.676C322.561 368.599 322.638 368.524 322.716 368.452C322.794 368.379 322.873 368.31 322.953 368.244C323.032 368.178 323.113 368.116 323.195 368.056C323.276 367.997 323.358 367.941 323.44 367.888C323.523 367.835 323.606 367.786 323.689 367.741C323.771 367.696 323.854 367.654 323.937 367.616C324.02 367.578 324.103 367.544 324.185 367.514C324.268 367.483 324.349 367.457 324.431 367.435C324.512 367.412 324.593 367.394 324.673 367.38C324.752 367.365 324.831 367.355 324.909 367.349C324.987 367.343 325.063 367.34 325.139 367.342Z" fill="#EDEFFF"/>
<path fill-rule="evenodd" clip-rule="evenodd" d="M299.847 411.149L344.589 412.29C344.744 412.294 344.893 412.315 345.036 412.354C345.178 412.392 345.312 412.447 345.437 412.52C345.562 412.592 345.676 412.68 345.781 412.784C345.886 412.888 345.979 413.006 346.06 413.139L369.419 451.316C369.458 451.38 369.495 451.448 369.528 451.518C369.562 451.589 369.592 451.662 369.62 451.738C369.647 451.815 369.671 451.894 369.693 451.975C369.714 452.057 369.732 452.141 369.747 452.228C369.762 452.314 369.774 452.403 369.783 452.493C369.791 452.584 369.797 452.677 369.799 452.771C369.801 452.866 369.8 452.962 369.795 453.06C369.791 453.157 369.784 453.256 369.773 453.357C369.762 453.457 369.748 453.558 369.731 453.66C369.714 453.763 369.693 453.866 369.67 453.969C369.646 454.073 369.62 454.177 369.59 454.281C369.561 454.386 369.528 454.49 369.493 454.594C369.457 454.699 369.419 454.803 369.378 454.907C369.336 455.011 369.292 455.114 369.245 455.217C369.199 455.319 369.149 455.421 369.097 455.522C369.045 455.623 368.991 455.723 368.934 455.821L356.494 477.368C356.451 477.442 356.406 477.516 356.361 477.589C356.315 477.662 356.268 477.734 356.22 477.805C356.172 477.876 356.122 477.946 356.072 478.015C356.021 478.083 355.97 478.151 355.917 478.217C355.865 478.284 355.811 478.349 355.756 478.413C355.702 478.476 355.646 478.538 355.59 478.599C355.534 478.66 355.477 478.719 355.419 478.777C355.361 478.834 355.302 478.89 355.243 478.945C355.184 478.999 355.124 479.052 355.064 479.103C355.003 479.153 354.943 479.203 354.881 479.25C354.82 479.297 354.758 479.342 354.696 479.386C354.634 479.429 354.572 479.47 354.509 479.51C354.447 479.549 354.384 479.586 354.321 479.621C354.258 479.657 354.195 479.69 354.133 479.721C354.07 479.752 354.007 479.781 353.944 479.807C353.881 479.834 353.819 479.858 353.757 479.88C353.694 479.902 353.632 479.922 353.57 479.94C353.509 479.958 353.447 479.973 353.386 479.986C353.325 479.999 353.265 480.01 353.205 480.018C353.145 480.027 353.086 480.033 353.027 480.036C352.968 480.04 352.91 480.041 352.853 480.04C352.796 480.039 352.739 480.036 352.684 480.03C352.628 480.025 352.573 480.017 352.52 480.007C352.466 479.996 352.413 479.984 352.361 479.969C352.31 479.954 352.259 479.937 352.209 479.917C352.16 479.898 352.111 479.876 352.064 479.852C352.017 479.828 351.971 479.802 351.926 479.773C351.881 479.745 351.838 479.714 351.796 479.682C351.754 479.649 351.714 479.614 351.675 479.577C351.636 479.54 351.598 479.501 351.562 479.46C351.526 479.419 351.491 479.376 351.458 479.331C351.425 479.286 351.394 479.239 351.364 479.19L329.014 442.663C328.933 442.53 328.84 442.412 328.735 442.308C328.631 442.204 328.516 442.116 328.391 442.044C328.266 441.972 328.132 441.916 327.99 441.878C327.848 441.839 327.699 441.818 327.543 441.814L284.735 440.722C284.678 440.721 284.621 440.717 284.566 440.711C284.51 440.705 284.456 440.696 284.402 440.686C284.349 440.675 284.296 440.662 284.245 440.646C284.193 440.631 284.142 440.613 284.093 440.593C284.044 440.573 283.996 440.551 283.949 440.526C283.902 440.502 283.856 440.475 283.812 440.447C283.767 440.418 283.724 440.386 283.683 440.353C283.641 440.32 283.601 440.285 283.562 440.247C283.523 440.21 283.486 440.171 283.45 440.129C283.414 440.088 283.38 440.044 283.347 439.999C283.315 439.954 283.283 439.906 283.254 439.857C283.224 439.808 283.197 439.757 283.171 439.704C283.144 439.652 283.12 439.598 283.097 439.541C283.075 439.485 283.054 439.428 283.034 439.368C283.015 439.309 282.998 439.248 282.982 439.186C282.967 439.124 282.953 439.06 282.941 438.995C282.929 438.93 282.919 438.863 282.91 438.796C282.902 438.728 282.896 438.659 282.891 438.589C282.886 438.519 282.884 438.448 282.883 438.376C282.882 438.304 282.883 438.232 282.885 438.158C282.888 438.084 282.893 438.009 282.899 437.934C282.906 437.858 282.914 437.782 282.924 437.706C282.935 437.629 282.947 437.552 282.961 437.474C282.975 437.396 282.99 437.318 283.008 437.24C283.025 437.161 283.044 437.082 283.065 437.003C283.086 436.924 283.109 436.845 283.134 436.766C283.158 436.687 283.184 436.608 283.212 436.529C283.24 436.45 283.269 436.371 283.301 436.292C283.332 436.213 283.365 436.135 283.399 436.057C283.433 435.979 283.469 435.901 283.506 435.824C283.544 435.747 283.583 435.67 283.623 435.594C283.663 435.518 283.705 435.442 283.748 435.368L296.188 413.821C296.245 413.723 296.304 413.626 296.365 413.53C296.427 413.435 296.49 413.341 296.556 413.249C296.621 413.157 296.689 413.068 296.758 412.98C296.827 412.892 296.898 412.807 296.971 412.724C297.044 412.641 297.118 412.561 297.193 412.483C297.269 412.405 297.346 412.33 297.424 412.258C297.502 412.186 297.581 412.117 297.661 412.051C297.741 411.985 297.821 411.922 297.903 411.863C297.984 411.803 298.066 411.747 298.149 411.694C298.231 411.642 298.314 411.593 298.397 411.547C298.48 411.502 298.563 411.46 298.646 411.422C298.728 411.384 298.811 411.35 298.893 411.32C298.976 411.29 299.058 411.263 299.139 411.241C299.22 411.219 299.301 411.2 299.381 411.186C299.461 411.172 299.539 411.161 299.617 411.155C299.695 411.149 299.772 411.147 299.847 411.149Z" fill="#EDEFFF"/>
<path fill-rule="evenodd" clip-rule="evenodd" d="M275.278 453.703L320.02 454.844C320.175 454.848 320.324 454.87 320.467 454.908C320.609 454.947 320.743 455.002 320.868 455.074C320.993 455.147 321.107 455.235 321.212 455.339C321.317 455.442 321.41 455.561 321.491 455.694L344.85 493.871C344.889 493.935 344.926 494.002 344.959 494.073C344.993 494.143 345.023 494.217 345.051 494.293C345.078 494.369 345.102 494.448 345.124 494.53C345.145 494.612 345.163 494.696 345.178 494.782C345.193 494.869 345.205 494.957 345.214 495.048C345.222 495.139 345.228 495.232 345.23 495.326C345.232 495.42 345.231 495.517 345.226 495.614C345.222 495.712 345.215 495.811 345.204 495.911C345.193 496.012 345.179 496.113 345.162 496.215C345.145 496.317 345.124 496.42 345.101 496.524C345.077 496.628 345.051 496.732 345.021 496.836C344.992 496.94 344.959 497.045 344.924 497.149C344.888 497.253 344.85 497.358 344.809 497.461C344.767 497.565 344.723 497.669 344.676 497.771C344.63 497.874 344.58 497.976 344.528 498.077C344.476 498.178 344.422 498.277 344.365 498.376L331.925 519.922C331.882 519.997 331.837 520.071 331.792 520.144C331.746 520.217 331.699 520.289 331.651 520.36C331.603 520.431 331.553 520.501 331.503 520.569C331.452 520.638 331.401 520.706 331.348 520.772C331.296 520.838 331.242 520.904 331.187 520.967C331.133 521.031 331.077 521.093 331.021 521.154C330.965 521.215 330.908 521.274 330.85 521.331C330.792 521.389 330.733 521.445 330.674 521.5C330.615 521.554 330.555 521.606 330.495 521.657C330.434 521.708 330.374 521.757 330.312 521.805C330.251 521.852 330.189 521.897 330.127 521.94C330.065 521.984 330.003 522.025 329.94 522.064C329.878 522.104 329.815 522.141 329.752 522.176C329.689 522.211 329.626 522.245 329.564 522.275C329.501 522.307 329.438 522.335 329.375 522.362C329.312 522.388 329.25 522.413 329.188 522.435C329.125 522.457 329.063 522.477 329.001 522.495C328.94 522.512 328.878 522.528 328.817 522.541C328.756 522.554 328.696 522.564 328.636 522.573C328.576 522.581 328.517 522.587 328.458 522.591C328.399 522.595 328.341 522.596 328.284 522.595C328.227 522.594 328.17 522.591 328.115 522.585C328.059 522.579 328.004 522.571 327.951 522.561C327.897 522.551 327.844 522.538 327.792 522.523C327.741 522.508 327.69 522.491 327.64 522.472C327.591 522.452 327.542 522.431 327.495 522.407C327.448 522.383 327.402 522.356 327.357 522.328C327.312 522.299 327.269 522.269 327.227 522.236C327.185 522.204 327.145 522.169 327.106 522.132C327.067 522.095 327.029 522.056 326.993 522.015C326.957 521.974 326.922 521.931 326.889 521.886C326.856 521.841 326.825 521.794 326.795 521.745L304.445 485.218C304.364 485.085 304.271 484.967 304.166 484.863C304.062 484.759 303.947 484.671 303.822 484.598C303.697 484.526 303.563 484.471 303.421 484.432C303.279 484.394 303.13 484.372 302.974 484.369L260.166 483.277C260.109 483.275 260.052 483.272 259.997 483.265C259.941 483.259 259.887 483.251 259.833 483.24C259.78 483.229 259.727 483.216 259.676 483.201C259.624 483.185 259.573 483.168 259.524 483.148C259.475 483.128 259.427 483.106 259.38 483.081C259.333 483.057 259.287 483.03 259.243 483.001C259.198 482.972 259.155 482.941 259.114 482.908C259.072 482.875 259.032 482.839 258.993 482.802C258.954 482.765 258.917 482.725 258.881 482.684C258.845 482.642 258.811 482.599 258.778 482.554C258.746 482.508 258.714 482.461 258.685 482.412C258.656 482.363 258.628 482.312 258.602 482.259C258.575 482.207 258.551 482.152 258.528 482.096C258.506 482.04 258.485 481.982 258.465 481.923C258.446 481.864 258.429 481.803 258.413 481.741C258.398 481.678 258.384 481.615 258.372 481.55C258.36 481.484 258.35 481.418 258.341 481.35C258.333 481.283 258.327 481.214 258.322 481.144C258.317 481.074 258.315 481.003 258.314 480.931C258.313 480.859 258.314 480.786 258.316 480.712C258.319 480.639 258.324 480.564 258.33 480.489C258.337 480.413 258.345 480.337 258.356 480.26C258.366 480.184 258.378 480.106 258.392 480.029C258.406 479.951 258.421 479.873 258.439 479.794C258.456 479.716 258.476 479.637 258.497 479.558C258.518 479.479 258.54 479.4 258.565 479.321C258.589 479.242 258.615 479.163 258.643 479.084C258.671 479.005 258.7 478.926 258.732 478.847C258.763 478.768 258.796 478.69 258.83 478.612C258.864 478.534 258.9 478.456 258.937 478.379C258.975 478.301 259.014 478.225 259.054 478.149C259.094 478.072 259.136 477.997 259.179 477.922L271.619 456.376C271.676 456.277 271.735 456.18 271.796 456.085C271.858 455.989 271.921 455.896 271.987 455.804C272.052 455.712 272.12 455.622 272.189 455.535C272.258 455.447 272.329 455.362 272.402 455.279C272.475 455.196 272.549 455.115 272.624 455.038C272.7 454.96 272.777 454.885 272.855 454.813C272.933 454.741 273.012 454.671 273.092 454.605C273.172 454.54 273.252 454.477 273.334 454.417C273.415 454.358 273.497 454.302 273.58 454.249C273.662 454.197 273.745 454.147 273.828 454.102C273.911 454.057 273.994 454.015 274.077 453.977C274.159 453.939 274.242 453.905 274.325 453.875C274.407 453.844 274.489 453.818 274.57 453.796C274.651 453.773 274.732 453.755 274.812 453.741C274.892 453.726 274.971 453.716 275.048 453.71C275.126 453.704 275.203 453.702 275.278 453.703Z" fill="#EDEFFF"/>
<path fill-rule="evenodd" clip-rule="evenodd" d="M249.986 497.51L294.728 498.651C294.884 498.655 295.033 498.676 295.175 498.715C295.317 498.753 295.451 498.809 295.576 498.881C295.701 498.953 295.816 499.041 295.92 499.145C296.025 499.249 296.118 499.368 296.199 499.5L319.558 537.677C319.597 537.742 319.634 537.809 319.667 537.88C319.701 537.95 319.731 538.023 319.759 538.1C319.786 538.176 319.811 538.255 319.832 538.337C319.853 538.418 319.872 538.502 319.887 538.589C319.902 538.675 319.913 538.764 319.922 538.855C319.931 538.945 319.936 539.038 319.938 539.133C319.94 539.227 319.939 539.323 319.935 539.421C319.93 539.519 319.923 539.618 319.912 539.718C319.901 539.818 319.887 539.92 319.87 540.022C319.853 540.124 319.833 540.227 319.809 540.331C319.786 540.434 319.759 540.538 319.73 540.643C319.7 540.747 319.667 540.851 319.632 540.956C319.596 541.06 319.558 541.164 319.517 541.268C319.475 541.372 319.431 541.475 319.385 541.578C319.338 541.681 319.288 541.782 319.236 541.883C319.185 541.984 319.13 542.084 319.073 542.182L306.633 563.729C306.59 563.804 306.546 563.877 306.5 563.951C306.454 564.023 306.407 564.095 306.359 564.166C306.311 564.237 306.262 564.307 306.211 564.376C306.161 564.445 306.109 564.512 306.057 564.579C306.004 564.645 305.95 564.71 305.896 564.774C305.841 564.837 305.786 564.9 305.729 564.961C305.673 565.021 305.616 565.08 305.558 565.138C305.5 565.196 305.442 565.252 305.383 565.306C305.323 565.361 305.263 565.413 305.203 565.464C305.143 565.515 305.082 565.564 305.02 565.611C304.959 565.658 304.897 565.704 304.835 565.747C304.773 565.79 304.711 565.832 304.648 565.871C304.586 565.91 304.523 565.948 304.461 565.983C304.398 566.018 304.335 566.051 304.272 566.082C304.209 566.113 304.146 566.142 304.083 566.169C304.021 566.195 303.958 566.22 303.896 566.242C303.834 566.264 303.771 566.284 303.71 566.301C303.648 566.319 303.586 566.334 303.525 566.347C303.465 566.36 303.404 566.371 303.344 566.379C303.284 566.388 303.225 566.394 303.166 566.398C303.108 566.401 303.05 566.403 302.992 566.402C302.935 566.401 302.879 566.397 302.823 566.392C302.767 566.386 302.713 566.378 302.659 566.368C302.605 566.358 302.552 566.345 302.5 566.33C302.449 566.315 302.398 566.298 302.348 566.278C302.299 566.259 302.25 566.237 302.203 566.213C302.156 566.189 302.11 566.163 302.066 566.134C302.021 566.106 301.977 566.076 301.936 566.043C301.894 566.01 301.853 565.975 301.814 565.938C301.775 565.901 301.737 565.862 301.701 565.821C301.665 565.78 301.63 565.737 301.597 565.692C301.564 565.647 301.533 565.601 301.503 565.552L279.153 529.025C279.072 528.892 278.979 528.773 278.875 528.669C278.77 528.565 278.655 528.477 278.53 528.405C278.405 528.333 278.272 528.278 278.129 528.239C277.987 528.2 277.838 528.179 277.682 528.175L234.874 527.083C234.817 527.082 234.761 527.078 234.705 527.072C234.65 527.066 234.595 527.057 234.541 527.047C234.488 527.036 234.435 527.023 234.384 527.007C234.332 526.992 234.282 526.975 234.232 526.955C234.183 526.935 234.135 526.912 234.088 526.888C234.041 526.863 233.995 526.837 233.951 526.808C233.907 526.779 233.864 526.748 233.822 526.715C233.78 526.681 233.74 526.646 233.701 526.609C233.662 526.571 233.625 526.532 233.589 526.491C233.553 526.449 233.519 526.406 233.486 526.36C233.454 526.315 233.423 526.268 233.393 526.219C233.364 526.17 233.336 526.119 233.31 526.066C233.284 526.013 233.259 525.959 233.237 525.903C233.214 525.847 233.193 525.789 233.174 525.73C233.154 525.67 233.137 525.61 233.121 525.547C233.106 525.485 233.092 525.421 233.08 525.356C233.068 525.291 233.058 525.225 233.05 525.157C233.041 525.089 233.035 525.021 233.03 524.951C233.026 524.881 233.023 524.81 233.022 524.738C233.021 524.666 233.022 524.593 233.025 524.519C233.028 524.445 233.032 524.371 233.039 524.295C233.045 524.22 233.054 524.144 233.064 524.067C233.074 523.99 233.086 523.913 233.1 523.835C233.114 523.758 233.129 523.68 233.147 523.601C233.165 523.522 233.184 523.444 233.205 523.365C233.226 523.286 233.248 523.207 233.273 523.128C233.297 523.049 233.324 522.969 233.351 522.89C233.379 522.811 233.409 522.732 233.44 522.654C233.471 522.575 233.504 522.496 233.538 522.418C233.572 522.34 233.608 522.262 233.646 522.185C233.683 522.108 233.722 522.031 233.762 521.955C233.803 521.879 233.844 521.804 233.887 521.729L246.327 500.182C246.384 500.084 246.443 499.987 246.505 499.891C246.566 499.796 246.63 499.702 246.695 499.611C246.761 499.519 246.828 499.429 246.897 499.341C246.967 499.254 247.038 499.168 247.11 499.085C247.183 499.002 247.257 498.922 247.333 498.844C247.408 498.766 247.485 498.691 247.563 498.619C247.641 498.547 247.72 498.478 247.8 498.412C247.88 498.346 247.961 498.283 248.042 498.224C248.124 498.164 248.206 498.108 248.288 498.056C248.37 498.003 248.453 497.954 248.536 497.909C248.619 497.863 248.702 497.822 248.785 497.784C248.868 497.746 248.95 497.712 249.033 497.681C249.115 497.651 249.197 497.625 249.278 497.602C249.36 497.58 249.44 497.562 249.52 497.547C249.6 497.533 249.679 497.523 249.757 497.517C249.834 497.51 249.911 497.508 249.986 497.51Z" fill="#EDEFFF"/>
<path fill-rule="evenodd" clip-rule="evenodd" d="M224.695 541.317L269.436 542.457C269.592 542.461 269.741 542.483 269.883 542.521C270.026 542.56 270.159 542.615 270.284 542.687C270.409 542.76 270.524 542.848 270.629 542.952C270.733 543.055 270.826 543.174 270.908 543.307L294.266 581.484C294.306 581.548 294.342 581.615 294.376 581.686C294.409 581.756 294.44 581.83 294.467 581.906C294.495 581.982 294.519 582.061 294.54 582.143C294.562 582.225 294.58 582.309 294.595 582.395C294.61 582.482 294.622 582.57 294.63 582.661C294.639 582.752 294.644 582.845 294.646 582.939C294.648 583.034 294.647 583.13 294.643 583.227C294.639 583.325 294.631 583.424 294.62 583.524C294.61 583.625 294.596 583.726 294.578 583.828C294.561 583.93 294.541 584.033 294.517 584.137C294.494 584.241 294.468 584.345 294.438 584.449C294.408 584.553 294.376 584.658 294.34 584.762C294.305 584.866 294.266 584.971 294.225 585.075C294.184 585.178 294.14 585.282 294.093 585.384C294.046 585.487 293.997 585.589 293.945 585.69C293.893 585.791 293.839 585.89 293.782 585.989L281.342 607.535C281.299 607.61 281.254 607.684 281.208 607.757C281.163 607.83 281.116 607.902 281.067 607.973C281.019 608.044 280.97 608.114 280.92 608.182C280.869 608.251 280.817 608.319 280.765 608.385C280.712 608.452 280.659 608.517 280.604 608.58C280.549 608.644 280.494 608.706 280.438 608.767C280.381 608.828 280.324 608.887 280.267 608.944C280.209 609.002 280.15 609.058 280.091 609.113C280.032 609.167 279.972 609.22 279.911 609.27C279.851 609.321 279.79 609.37 279.729 609.418C279.667 609.465 279.606 609.51 279.544 609.553C279.482 609.597 279.419 609.638 279.357 609.677C279.294 609.717 279.232 609.754 279.169 609.789C279.106 609.824 279.043 609.858 278.98 609.889C278.917 609.92 278.855 609.948 278.792 609.975C278.729 610.002 278.667 610.026 278.604 610.048C278.542 610.07 278.48 610.09 278.418 610.108C278.356 610.125 278.295 610.141 278.234 610.154C278.173 610.167 278.112 610.177 278.053 610.186C277.993 610.194 277.933 610.2 277.875 610.204C277.816 610.208 277.758 610.209 277.701 610.208C277.643 610.207 277.587 610.204 277.531 610.198C277.476 610.193 277.421 610.185 277.367 610.174C277.313 610.164 277.261 610.151 277.209 610.136C277.157 610.121 277.107 610.104 277.057 610.085C277.007 610.065 276.959 610.044 276.912 610.02C276.864 609.996 276.819 609.969 276.774 609.941C276.729 609.913 276.686 609.882 276.644 609.849C276.602 609.817 276.561 609.782 276.522 609.745C276.483 609.708 276.445 609.669 276.409 609.628C276.373 609.587 276.339 609.544 276.306 609.499C276.273 609.454 276.241 609.407 276.211 609.358L253.862 572.831C253.78 572.698 253.687 572.58 253.583 572.476C253.478 572.372 253.364 572.284 253.239 572.212C253.114 572.139 252.98 572.084 252.838 572.045C252.695 572.007 252.546 571.986 252.39 571.982L209.582 570.89C209.525 570.888 209.469 570.885 209.413 570.878C209.358 570.872 209.304 570.864 209.25 570.853C209.196 570.842 209.144 570.829 209.092 570.814C209.041 570.799 208.99 570.781 208.941 570.761C208.891 570.741 208.843 570.719 208.796 570.694C208.75 570.67 208.704 570.643 208.659 570.614C208.615 570.585 208.572 570.554 208.53 570.521C208.489 570.488 208.448 570.452 208.41 570.415C208.371 570.378 208.333 570.338 208.298 570.297C208.262 570.256 208.228 570.212 208.195 570.167C208.162 570.121 208.131 570.074 208.102 570.025C208.072 569.976 208.044 569.925 208.018 569.872C207.992 569.82 207.968 569.765 207.945 569.709C207.922 569.653 207.901 569.595 207.882 569.536C207.863 569.477 207.845 569.416 207.83 569.354C207.814 569.291 207.8 569.228 207.788 569.163C207.776 569.098 207.766 569.031 207.758 568.964C207.75 568.896 207.743 568.827 207.739 568.757C207.734 568.687 207.731 568.616 207.73 568.544C207.729 568.472 207.73 568.399 207.733 568.325C207.736 568.252 207.741 568.177 207.747 568.102C207.754 568.026 207.762 567.95 207.772 567.874C207.782 567.797 207.795 567.719 207.808 567.642C207.822 567.564 207.838 567.486 207.855 567.407C207.873 567.329 207.892 567.25 207.913 567.171C207.934 567.092 207.957 567.013 207.981 566.934C208.006 566.855 208.032 566.776 208.06 566.697C208.088 566.618 208.117 566.539 208.148 566.46C208.179 566.381 208.212 566.303 208.246 566.225C208.281 566.147 208.317 566.069 208.354 565.992C208.391 565.914 208.43 565.838 208.47 565.762C208.511 565.686 208.553 565.61 208.596 565.535L221.036 543.989C221.093 543.89 221.152 543.793 221.213 543.698C221.274 543.602 221.338 543.509 221.403 543.417C221.469 543.325 221.536 543.235 221.606 543.148C221.675 543.06 221.746 542.975 221.819 542.892C221.891 542.809 221.966 542.728 222.041 542.651C222.117 542.573 222.193 542.498 222.271 542.426C222.349 542.354 222.428 542.285 222.508 542.219C222.588 542.153 222.669 542.09 222.751 542.03C222.832 541.971 222.914 541.915 222.996 541.862C223.079 541.81 223.162 541.761 223.244 541.715C223.327 541.67 223.41 541.628 223.493 541.59C223.576 541.552 223.659 541.518 223.741 541.488C223.824 541.458 223.905 541.431 223.987 541.409C224.068 541.387 224.149 541.368 224.229 541.354C224.308 541.339 224.387 541.329 224.465 541.323C224.543 541.317 224.619 541.315 224.695 541.317Z" fill="#EDEFFF"/>
<path fill-rule="evenodd" clip-rule="evenodd" d="M199.403 585.123L244.144 586.264C244.3 586.268 244.449 586.289 244.592 586.328C244.734 586.366 244.868 586.422 244.993 586.494C245.118 586.566 245.232 586.654 245.337 586.758C245.441 586.862 245.534 586.98 245.616 587.113L268.975 625.29C269.014 625.355 269.051 625.422 269.084 625.492C269.117 625.563 269.148 625.636 269.175 625.713C269.203 625.789 269.227 625.868 269.249 625.949C269.27 626.031 269.288 626.115 269.303 626.202C269.318 626.288 269.33 626.377 269.338 626.467C269.347 626.558 269.353 626.651 269.355 626.745C269.357 626.84 269.356 626.936 269.351 627.034C269.347 627.131 269.339 627.231 269.329 627.331C269.318 627.431 269.304 627.532 269.287 627.635C269.27 627.737 269.249 627.84 269.226 627.943C269.202 628.047 269.176 628.151 269.146 628.255C269.117 628.36 269.084 628.464 269.048 628.568C269.013 628.673 268.975 628.777 268.933 628.881C268.892 628.985 268.848 629.088 268.801 629.191C268.754 629.293 268.705 629.395 268.653 629.496C268.601 629.597 268.547 629.697 268.49 629.795L256.05 651.342C256.007 651.416 255.962 651.49 255.917 651.563C255.871 651.636 255.824 651.708 255.776 651.779C255.728 651.85 255.678 651.92 255.628 651.989C255.577 652.057 255.526 652.125 255.473 652.192C255.42 652.258 255.367 652.323 255.312 652.387C255.258 652.45 255.202 652.512 255.146 652.573C255.09 652.634 255.033 652.693 254.975 652.751C254.917 652.808 254.858 652.864 254.799 652.919C254.74 652.973 254.68 653.026 254.62 653.077C254.559 653.128 254.498 653.177 254.437 653.224C254.376 653.271 254.314 653.316 254.252 653.36C254.19 653.403 254.128 653.444 254.065 653.484C254.003 653.523 253.94 653.56 253.877 653.596C253.814 653.631 253.751 653.664 253.688 653.695C253.626 653.726 253.563 653.755 253.5 653.781C253.437 653.808 253.375 653.832 253.313 653.855C253.25 653.877 253.188 653.896 253.126 653.914C253.064 653.932 253.003 653.947 252.942 653.96C252.881 653.973 252.821 653.984 252.761 653.992C252.701 654.001 252.642 654.007 252.583 654.011C252.524 654.014 252.466 654.015 252.409 654.015C252.352 654.014 252.295 654.01 252.24 654.005C252.184 653.999 252.129 653.991 252.075 653.981C252.022 653.97 251.969 653.958 251.917 653.943C251.865 653.928 251.815 653.911 251.765 653.891C251.715 653.872 251.667 653.85 251.62 653.826C251.573 653.802 251.527 653.776 251.482 653.747C251.437 653.719 251.394 653.688 251.352 653.656C251.31 653.623 251.27 653.588 251.231 653.551C251.191 653.514 251.154 653.475 251.118 653.434C251.081 653.393 251.047 653.35 251.014 653.305C250.981 653.26 250.949 653.213 250.92 653.165L228.57 616.637C228.489 616.504 228.396 616.386 228.291 616.282C228.187 616.178 228.072 616.09 227.947 616.018C227.822 615.946 227.688 615.89 227.546 615.852C227.404 615.813 227.255 615.792 227.099 615.788L184.291 614.696C184.233 614.695 184.177 614.691 184.122 614.685C184.066 614.679 184.012 614.67 183.958 614.66C183.905 614.649 183.852 614.636 183.8 614.62C183.749 614.605 183.698 614.587 183.649 614.567C183.6 614.547 183.552 614.525 183.505 614.5C183.458 614.476 183.412 614.449 183.368 614.421C183.323 614.392 183.28 614.361 183.239 614.327C183.197 614.294 183.157 614.259 183.118 614.221C183.079 614.184 183.042 614.145 183.006 614.103C182.97 614.062 182.936 614.019 182.903 613.973C182.87 613.928 182.839 613.881 182.81 613.832C182.78 613.782 182.753 613.731 182.727 613.679C182.7 613.626 182.676 613.572 182.653 613.515C182.63 613.459 182.609 613.402 182.59 613.343C182.571 613.283 182.554 613.222 182.538 613.16C182.523 613.098 182.509 613.034 182.497 612.969C182.485 612.904 182.475 612.838 182.466 612.77C182.458 612.702 182.451 612.633 182.447 612.564C182.442 612.494 182.439 612.423 182.439 612.35C182.438 612.278 182.439 612.206 182.441 612.132C182.444 612.058 182.449 611.983 182.455 611.908C182.462 611.833 182.47 611.757 182.48 611.68C182.491 611.603 182.503 611.526 182.517 611.448C182.53 611.37 182.546 611.292 182.564 611.214C182.581 611.135 182.6 611.056 182.621 610.978C182.642 610.899 182.665 610.82 182.689 610.741C182.714 610.661 182.74 610.582 182.768 610.503C182.796 610.424 182.825 610.345 182.857 610.266C182.888 610.187 182.92 610.109 182.955 610.031C182.989 609.953 183.025 609.875 183.062 609.798C183.1 609.721 183.138 609.644 183.179 609.568C183.219 609.492 183.261 609.416 183.304 609.342L195.744 587.795C195.801 587.697 195.86 587.6 195.921 587.504C195.983 587.409 196.046 587.315 196.112 587.223C196.177 587.132 196.245 587.042 196.314 586.954C196.383 586.866 196.454 586.781 196.527 586.698C196.6 586.615 196.674 586.535 196.749 586.457C196.825 586.379 196.902 586.304 196.98 586.232C197.058 586.16 197.137 586.091 197.217 586.025C197.297 585.959 197.377 585.896 197.459 585.837C197.54 585.777 197.622 585.721 197.705 585.669C197.787 585.616 197.87 585.567 197.953 585.522C198.036 585.476 198.119 585.434 198.201 585.396C198.284 585.358 198.367 585.324 198.449 585.294C198.532 585.264 198.614 585.238 198.695 585.215C198.776 585.193 198.857 585.175 198.937 585.16C199.017 585.146 199.095 585.136 199.173 585.129C199.251 585.123 199.328 585.121 199.403 585.123Z" fill="#EDEFFF"/>
</svg>
