<?xml version="1.0" encoding="utf-8"?>
<svg width="400" height="400" viewBox="0 0 400 400" fill="none" xmlns="http://www.w3.org/2000/svg">
  <defs>
    <filter color-interpolation-filters="sRGB" x="-384" y="-384" width="386" height="386" id="filter_1">
      <feFlood flood-opacity="0" result="BackgroundImageFix_1" />
      <feColorMatrix type="matrix" values="0 0 0 0 0 0 0 0 0 0 0 0 0 0 0 0 0 0 1 0" in="SourceAlpha" />
      <feOffset dx="0" dy="0" />
      <feGaussianBlur stdDeviation="3.5" />
      <feColorMatrix type="matrix" values="0 0 0 0 0.608 0 0 0 0 1 0 0 0 0 0.192 0 0 0 0.741 0" />
      <feBlend mode="normal" in2="BackgroundImageFix_1" result="Shadow_2" />
      <feBlend mode="normal" in="SourceGraphic" in2="Shadow_2" result="Shape_3" />
    </filter>
    <filter color-interpolation-filters="sRGB" x="-88" y="-88" width="90" height="90" id="filter_2">
      <feFlood flood-opacity="0" result="BackgroundImageFix_1" />
      <feColorMatrix type="matrix" values="0 0 0 0 0 0 0 0 0 0 0 0 0 0 0 0 0 0 1 0" in="SourceAlpha" />
      <feOffset dx="0" dy="0" />
      <feGaussianBlur stdDeviation="25" />
      <feColorMatrix type="matrix" values="0 0 0 0 0.812 0 0 0 0 1 0 0 0 0 0.882 0 0 0 0.251 0" />
      <feBlend mode="normal" in2="BackgroundImageFix_1" result="Shadow_2" />
      <feBlend mode="normal" in="SourceGraphic" in2="Shadow_2" result="Shape_3" />
    </filter>
  </defs>
  <g>
    <g filter="url(#filter_1)" transform="translate(7 7)">
      <path d="M193 0C299.605 0 386 86.3945 386 193L386 193C386 299.605 299.605 386 193 386L193 386C86.3945 386 0 299.605 0 193L0 193C0 86.3945 86.3945 0 193 0Z" />
      <path d="M386 193C386 86.3945 299.605 0 193 0C86.3945 0 0 86.3945 0 193C0 299.605 86.3945 386 193 386C299.605 386 386 299.605 386 193ZM141.24 70.4264Q165.894 60 193 60Q220.106 60 244.76 70.4263Q268.617 80.5153 287.051 98.9494Q305.485 117.383 315.574 141.24Q326 165.894 326 193Q326 220.106 315.574 244.76Q305.485 268.617 287.051 287.051Q268.617 305.485 244.76 315.574Q220.106 326 193 326Q165.894 326 141.24 315.574Q117.383 305.485 98.9494 287.051Q80.5153 268.617 70.4264 244.76Q60 220.106 60 193Q60 165.894 70.4263 141.24Q80.5152 117.383 98.9494 98.9494Q117.383 80.5153 141.24 70.4264Z" fill="#89FF89" fill-rule="evenodd" />
    </g>
    <path d="M45 0L83.9711 22.5L83.9711 67.5L45 90L6.02885 67.5L6.02885 22.5L45 0Z" fill="#E1FFEF" fill-rule="evenodd" fill-opacity="0.9" filter="url(#filter_2)" transform="translate(155 155)" />
  </g>
</svg>