<?xml version="1.0" encoding="utf-8"?>
<svg width="400" height="400" viewBox="0 0 400 400" fill="none" xmlns="http://www.w3.org/2000/svg">
  <defs>
    <filter color-interpolation-filters="sRGB" x="-384" y="-384" width="386" height="386" id="filter_1">
      <feFlood flood-opacity="0" result="BackgroundImageFix_1" />
      <feColorMatrix type="matrix" values="0 0 0 0 0 0 0 0 0 0 0 0 0 0 0 0 0 0 1 0" in="SourceAlpha" />
      <feOffset dx="0" dy="0" />
      <feGaussianBlur stdDeviation="3.5" />
      <feColorMatrix type="matrix" values="0 0 0 0 0.608 0 0 0 0 1 0 0 0 0 0.192 0 0 0 0.741 0" />
      <feBlend mode="normal" in2="BackgroundImageFix_1" result="Shadow_2" />
      <feBlend mode="normal" in="SourceGraphic" in2="Shadow_2" result="Shape_3" />
    </filter>
  </defs>
  <g>
    <g filter="url(#filter_1)" transform="translate(7 7)">
      <path d="M193 0C299.605 0 386 86.3945 386 193L386 193C386 299.605 299.605 386 193 386L193 386C86.3945 386 0 299.605 0 193L0 193C0 86.3945 86.3945 0 193 0Z" />
      <path d="M386 193C386 86.3945 299.605 0 193 0C86.3945 0 0 86.3945 0 193C0 299.605 86.3945 386 193 386C299.605 386 386 299.605 386 193ZM152.535 97.1361Q171.774 89 193 89Q214.226 89 233.465 97.1361Q252.111 105.022 266.545 119.455Q280.978 133.889 288.864 152.535Q297 171.774 297 193Q297 214.226 288.864 233.465Q280.978 252.111 266.545 266.545Q252.111 280.978 233.465 288.864Q214.226 297 193 297Q171.774 297 152.535 288.864Q133.889 280.978 119.455 266.545Q105.022 252.111 97.1361 233.465Q89 214.226 89 193Q89 171.774 97.1361 152.535Q105.022 133.889 119.455 119.455Q133.889 105.022 152.535 97.1361Z" fill="#AFFFD8" fill-rule="evenodd" />
    </g>
  </g>
</svg>