<svg width="740" height="740" viewBox="0 0 740 740" fill="none" xmlns="http://www.w3.org/2000/svg">
<path fill-rule="evenodd" clip-rule="evenodd" d="M192.833 136.358L232.15 114.975C232.287 114.9 232.427 114.844 232.57 114.807C232.712 114.769 232.856 114.75 233 114.75C233.144 114.75 233.288 114.769 233.43 114.807C233.573 114.844 233.712 114.9 233.849 114.975L273.167 136.358C273.233 136.394 273.299 136.434 273.363 136.478C273.427 136.522 273.49 136.571 273.552 136.623C273.614 136.675 273.675 136.732 273.734 136.792C273.793 136.852 273.851 136.915 273.907 136.983C273.964 137.05 274.018 137.121 274.071 137.195C274.124 137.27 274.175 137.347 274.224 137.428C274.273 137.509 274.32 137.593 274.365 137.679C274.41 137.766 274.453 137.856 274.494 137.948C274.535 138.04 274.573 138.135 274.61 138.232C274.646 138.329 274.68 138.428 274.711 138.53C274.743 138.631 274.772 138.735 274.798 138.84C274.825 138.945 274.849 139.052 274.87 139.16C274.892 139.268 274.911 139.377 274.927 139.488C274.943 139.599 274.956 139.71 274.967 139.822C274.978 139.935 274.986 140.047 274.992 140.161C274.997 140.274 275 140.388 275 140.501V165.381C275 165.467 274.998 165.554 274.995 165.64C274.992 165.726 274.987 165.812 274.981 165.897C274.975 165.983 274.967 166.068 274.958 166.153C274.948 166.237 274.937 166.322 274.925 166.406C274.913 166.489 274.899 166.573 274.883 166.655C274.868 166.737 274.851 166.819 274.833 166.9C274.814 166.981 274.795 167.06 274.773 167.139C274.752 167.218 274.729 167.296 274.705 167.373C274.681 167.449 274.655 167.525 274.629 167.599C274.602 167.673 274.574 167.746 274.544 167.818C274.515 167.889 274.484 167.959 274.452 168.028C274.42 168.097 274.386 168.163 274.352 168.229C274.317 168.294 274.282 168.358 274.245 168.419C274.208 168.482 274.17 168.542 274.131 168.6C274.092 168.658 274.052 168.715 274.011 168.769C273.97 168.823 273.928 168.876 273.886 168.926C273.843 168.976 273.799 169.025 273.754 169.071C273.709 169.117 273.664 169.161 273.618 169.203C273.571 169.245 273.524 169.284 273.477 169.321C273.429 169.358 273.381 169.394 273.332 169.426C273.283 169.459 273.233 169.489 273.183 169.517C273.133 169.544 273.082 169.57 273.031 169.593C272.98 169.615 272.929 169.636 272.877 169.654C272.826 169.672 272.774 169.687 272.721 169.7C272.669 169.713 272.616 169.724 272.564 169.732C272.511 169.74 272.458 169.745 272.405 169.748C272.353 169.751 272.3 169.751 272.247 169.748C272.194 169.746 272.141 169.742 272.088 169.734C272.036 169.727 271.983 169.717 271.931 169.704C271.878 169.692 271.826 169.677 271.774 169.66C271.723 169.642 271.671 169.622 271.62 169.6C271.569 169.577 271.518 169.552 271.468 169.525L233.849 149.066C233.712 148.992 233.573 148.936 233.43 148.898C233.288 148.86 233.144 148.842 233 148.842C232.856 148.842 232.712 148.86 232.57 148.898C232.427 148.936 232.287 148.992 232.15 149.066L194.532 169.525C194.481 169.552 194.431 169.577 194.38 169.6C194.329 169.622 194.277 169.642 194.225 169.66C194.174 169.677 194.121 169.692 194.069 169.704C194.017 169.717 193.964 169.727 193.912 169.734C193.859 169.742 193.806 169.746 193.753 169.748C193.7 169.751 193.647 169.751 193.594 169.748C193.542 169.745 193.489 169.74 193.436 169.732C193.383 169.724 193.331 169.713 193.279 169.7C193.226 169.687 193.174 169.672 193.123 169.654C193.071 169.636 193.019 169.615 192.968 169.593C192.917 169.57 192.867 169.544 192.817 169.517C192.767 169.489 192.717 169.458 192.668 169.426C192.619 169.393 192.571 169.358 192.523 169.321C192.476 169.284 192.429 169.245 192.382 169.203C192.336 169.161 192.291 169.117 192.246 169.071C192.201 169.025 192.157 168.976 192.114 168.926C192.071 168.876 192.03 168.823 191.988 168.769C191.947 168.715 191.907 168.658 191.868 168.6C191.83 168.542 191.792 168.482 191.755 168.419C191.718 168.358 191.682 168.294 191.648 168.229C191.613 168.163 191.58 168.097 191.548 168.028C191.516 167.959 191.485 167.889 191.456 167.818C191.426 167.746 191.398 167.673 191.371 167.599C191.344 167.525 191.319 167.449 191.295 167.373C191.271 167.296 191.248 167.218 191.227 167.139C191.205 167.06 191.186 166.981 191.167 166.9C191.149 166.819 191.132 166.737 191.116 166.655C191.101 166.573 191.087 166.489 191.075 166.406C191.062 166.322 191.051 166.237 191.042 166.153C191.033 166.068 191.025 165.983 191.019 165.897C191.013 165.812 191.008 165.726 191.005 165.64C191.002 165.554 191 165.467 191 165.381V140.501C191 140.388 191.003 140.274 191.008 140.161C191.014 140.047 191.022 139.935 191.033 139.822C191.043 139.71 191.057 139.599 191.073 139.488C191.089 139.377 191.108 139.268 191.13 139.16C191.151 139.052 191.175 138.945 191.202 138.84C191.228 138.735 191.257 138.631 191.289 138.53C191.32 138.428 191.354 138.329 191.39 138.232C191.427 138.135 191.465 138.04 191.506 137.948C191.547 137.856 191.59 137.766 191.635 137.679C191.68 137.593 191.727 137.509 191.776 137.428C191.825 137.347 191.876 137.27 191.929 137.195C191.982 137.121 192.036 137.05 192.092 136.983C192.149 136.915 192.206 136.852 192.266 136.792C192.325 136.732 192.386 136.675 192.448 136.623C192.51 136.571 192.573 136.522 192.637 136.478C192.701 136.434 192.766 136.394 192.833 136.358Z" fill="#EDEFFF"/>
<path fill-rule="evenodd" clip-rule="evenodd" d="M192.833 186.941L232.15 165.558C232.287 165.484 232.427 165.428 232.57 165.39C232.712 165.352 232.856 165.333 233 165.333C233.144 165.333 233.288 165.352 233.43 165.39C233.573 165.428 233.712 165.484 233.849 165.558L273.167 186.941C273.233 186.977 273.299 187.017 273.363 187.061C273.427 187.106 273.49 187.154 273.552 187.206C273.614 187.259 273.675 187.315 273.734 187.375C273.793 187.435 273.851 187.499 273.907 187.566C273.964 187.633 274.018 187.704 274.071 187.778C274.124 187.853 274.175 187.93 274.224 188.011C274.273 188.092 274.32 188.176 274.365 188.263C274.41 188.349 274.453 188.439 274.494 188.531C274.535 188.623 274.573 188.718 274.61 188.815C274.646 188.912 274.68 189.012 274.711 189.113C274.743 189.215 274.772 189.318 274.798 189.423C274.825 189.528 274.849 189.635 274.87 189.743C274.892 189.851 274.911 189.961 274.927 190.071C274.943 190.182 274.956 190.293 274.967 190.406C274.978 190.518 274.986 190.631 274.992 190.744C274.997 190.857 275 190.971 275 191.085V215.965C275 216.051 274.998 216.137 274.995 216.223C274.992 216.309 274.987 216.395 274.981 216.48C274.975 216.566 274.967 216.651 274.958 216.736C274.948 216.821 274.937 216.905 274.925 216.989C274.913 217.073 274.899 217.156 274.883 217.238C274.868 217.321 274.851 217.402 274.833 217.483C274.814 217.564 274.795 217.644 274.773 217.722C274.752 217.801 274.729 217.879 274.705 217.956C274.681 218.033 274.655 218.108 274.629 218.182C274.602 218.256 274.574 218.329 274.544 218.401C274.515 218.473 274.484 218.543 274.452 218.611C274.42 218.68 274.386 218.747 274.352 218.812C274.317 218.877 274.282 218.941 274.245 219.003C274.208 219.065 274.17 219.125 274.131 219.183C274.092 219.241 274.052 219.298 274.011 219.352C273.97 219.407 273.928 219.459 273.886 219.509C273.843 219.56 273.799 219.608 273.754 219.654C273.709 219.7 273.664 219.744 273.618 219.786C273.571 219.828 273.524 219.867 273.477 219.904C273.429 219.942 273.381 219.977 273.332 220.009C273.283 220.042 273.233 220.072 273.183 220.1C273.133 220.128 273.082 220.153 273.031 220.176C272.98 220.199 272.929 220.219 272.877 220.237C272.826 220.255 272.774 220.271 272.721 220.283C272.669 220.296 272.616 220.307 272.564 220.315C272.511 220.323 272.458 220.328 272.405 220.331C272.353 220.334 272.3 220.334 272.247 220.332C272.194 220.33 272.141 220.325 272.088 220.317C272.036 220.31 271.983 220.3 271.931 220.287C271.878 220.275 271.826 220.26 271.774 220.243C271.723 220.225 271.671 220.205 271.62 220.183C271.569 220.16 271.518 220.136 271.468 220.108L233.849 199.65C233.712 199.575 233.573 199.519 233.43 199.481C233.288 199.444 233.144 199.425 233 199.425C232.856 199.425 232.712 199.444 232.57 199.481C232.427 199.519 232.287 199.575 232.15 199.65L194.532 220.108C194.481 220.136 194.431 220.16 194.38 220.183C194.329 220.205 194.277 220.225 194.225 220.243C194.174 220.26 194.121 220.275 194.069 220.287C194.017 220.3 193.964 220.31 193.912 220.317C193.859 220.325 193.806 220.33 193.753 220.332C193.7 220.334 193.647 220.334 193.594 220.331C193.542 220.328 193.489 220.323 193.436 220.315C193.383 220.307 193.331 220.296 193.279 220.283C193.226 220.271 193.174 220.255 193.123 220.237C193.071 220.219 193.019 220.199 192.968 220.176C192.917 220.153 192.867 220.128 192.817 220.1C192.767 220.072 192.717 220.042 192.668 220.009C192.619 219.977 192.571 219.942 192.523 219.904C192.476 219.867 192.429 219.828 192.382 219.786C192.336 219.744 192.291 219.7 192.246 219.654C192.201 219.608 192.157 219.56 192.114 219.509C192.071 219.459 192.03 219.407 191.988 219.352C191.947 219.298 191.907 219.241 191.868 219.183C191.83 219.125 191.792 219.065 191.755 219.003C191.718 218.941 191.682 218.877 191.648 218.812C191.613 218.747 191.58 218.68 191.548 218.611C191.516 218.543 191.485 218.473 191.456 218.401C191.426 218.329 191.398 218.256 191.371 218.182C191.344 218.108 191.319 218.033 191.295 217.956C191.271 217.879 191.248 217.801 191.227 217.722C191.205 217.644 191.186 217.564 191.167 217.483C191.149 217.402 191.132 217.321 191.116 217.238C191.101 217.156 191.087 217.073 191.075 216.989C191.062 216.905 191.051 216.821 191.042 216.736C191.033 216.651 191.025 216.566 191.019 216.48C191.013 216.395 191.008 216.309 191.005 216.223C191.002 216.137 191 216.051 191 215.965V191.085C191 190.971 191.003 190.857 191.008 190.744C191.014 190.631 191.022 190.518 191.033 190.406C191.043 190.293 191.057 190.182 191.073 190.071C191.089 189.961 191.108 189.851 191.13 189.743C191.151 189.635 191.175 189.528 191.202 189.423C191.228 189.318 191.257 189.215 191.289 189.113C191.32 189.012 191.354 188.912 191.39 188.815C191.427 188.718 191.465 188.623 191.506 188.531C191.547 188.439 191.59 188.349 191.635 188.263C191.68 188.176 191.727 188.092 191.776 188.011C191.825 187.93 191.876 187.853 191.929 187.778C191.982 187.704 192.036 187.633 192.092 187.566C192.149 187.499 192.206 187.435 192.266 187.375C192.325 187.315 192.386 187.259 192.448 187.206C192.51 187.154 192.573 187.106 192.637 187.061C192.701 187.017 192.766 186.977 192.833 186.941Z" fill="#EDEFFF"/>
<path fill-rule="evenodd" clip-rule="evenodd" d="M192.833 238.969L232.15 217.587C232.287 217.512 232.427 217.456 232.57 217.418C232.712 217.381 232.856 217.362 233 217.362C233.144 217.362 233.288 217.381 233.43 217.418C233.573 217.456 233.712 217.512 233.849 217.587L273.167 238.969C273.233 239.005 273.299 239.046 273.363 239.09C273.427 239.134 273.49 239.183 273.552 239.235C273.614 239.287 273.675 239.343 273.734 239.403C273.793 239.463 273.851 239.527 273.907 239.595C273.964 239.662 274.018 239.733 274.071 239.807C274.124 239.881 274.175 239.959 274.224 240.04C274.273 240.121 274.32 240.204 274.365 240.291C274.41 240.378 274.453 240.467 274.494 240.56C274.535 240.652 274.573 240.747 274.61 240.844C274.646 240.941 274.68 241.04 274.711 241.142C274.743 241.243 274.772 241.346 274.798 241.452C274.825 241.557 274.849 241.663 274.87 241.772C274.892 241.88 274.911 241.989 274.927 242.1C274.943 242.21 274.956 242.322 274.967 242.434C274.978 242.546 274.986 242.659 274.992 242.773C274.997 242.886 275 242.999 275 243.113V267.993C275 268.079 274.998 268.166 274.995 268.252C274.992 268.338 274.987 268.423 274.981 268.509C274.975 268.595 274.967 268.68 274.958 268.765C274.948 268.849 274.937 268.934 274.925 269.017C274.913 269.101 274.899 269.184 274.883 269.267C274.868 269.349 274.851 269.431 274.833 269.512C274.814 269.592 274.795 269.672 274.773 269.751C274.752 269.83 274.729 269.908 274.705 269.984C274.681 270.061 274.655 270.137 274.629 270.211C274.602 270.285 274.574 270.358 274.544 270.43C274.515 270.501 274.484 270.571 274.452 270.64C274.42 270.708 274.386 270.775 274.352 270.841C274.317 270.906 274.282 270.969 274.245 271.031C274.208 271.093 274.17 271.154 274.131 271.212C274.092 271.27 274.052 271.326 274.011 271.381C273.97 271.435 273.928 271.488 273.886 271.538C273.843 271.588 273.799 271.637 273.754 271.683C273.709 271.729 273.664 271.773 273.618 271.815C273.571 271.856 273.524 271.896 273.477 271.933C273.429 271.97 273.381 272.005 273.332 272.038C273.283 272.07 273.233 272.1 273.183 272.128C273.133 272.156 273.082 272.181 273.031 272.204C272.98 272.227 272.929 272.248 272.877 272.266C272.826 272.284 272.774 272.299 272.721 272.312C272.669 272.325 272.616 272.335 272.564 272.343C272.511 272.351 272.458 272.357 272.405 272.36C272.353 272.362 272.3 272.363 272.247 272.36C272.194 272.358 272.141 272.353 272.088 272.346C272.036 272.339 271.983 272.329 271.931 272.316C271.878 272.304 271.826 272.289 271.774 272.271C271.723 272.254 271.671 272.234 271.62 272.211C271.569 272.189 271.518 272.164 271.468 272.137L233.849 251.678C233.712 251.604 233.573 251.548 233.43 251.51C233.288 251.472 233.144 251.453 233 251.453C232.856 251.453 232.712 251.472 232.57 251.51C232.427 251.548 232.287 251.604 232.15 251.678L194.532 272.137C194.481 272.164 194.431 272.189 194.38 272.211C194.329 272.234 194.277 272.254 194.225 272.271C194.174 272.289 194.121 272.304 194.069 272.316C194.017 272.329 193.964 272.339 193.912 272.346C193.859 272.353 193.806 272.358 193.753 272.36C193.7 272.363 193.647 272.362 193.594 272.36C193.542 272.357 193.489 272.351 193.436 272.343C193.383 272.335 193.331 272.325 193.279 272.312C193.226 272.299 193.174 272.284 193.123 272.266C193.071 272.248 193.019 272.227 192.968 272.204C192.917 272.181 192.867 272.156 192.817 272.128C192.767 272.1 192.717 272.07 192.668 272.038C192.619 272.005 192.571 271.97 192.523 271.933C192.476 271.896 192.429 271.856 192.382 271.815C192.336 271.773 192.291 271.729 192.246 271.683C192.201 271.637 192.157 271.588 192.114 271.538C192.071 271.488 192.03 271.435 191.988 271.381C191.947 271.326 191.907 271.27 191.868 271.212C191.83 271.154 191.792 271.093 191.755 271.031C191.718 270.969 191.682 270.906 191.648 270.841C191.613 270.775 191.58 270.708 191.548 270.64C191.516 270.571 191.485 270.501 191.456 270.43C191.426 270.358 191.398 270.285 191.371 270.211C191.344 270.137 191.319 270.061 191.295 269.984C191.271 269.908 191.248 269.83 191.227 269.751C191.205 269.672 191.186 269.592 191.167 269.512C191.149 269.431 191.132 269.349 191.116 269.267C191.101 269.184 191.087 269.101 191.075 269.017C191.062 268.934 191.051 268.849 191.042 268.765C191.033 268.68 191.025 268.595 191.019 268.509C191.013 268.423 191.008 268.338 191.005 268.252C191.002 268.166 191 268.079 191 267.993V243.113C191 242.999 191.003 242.886 191.008 242.773C191.014 242.659 191.022 242.546 191.033 242.434C191.043 242.322 191.057 242.21 191.073 242.1C191.089 241.989 191.108 241.88 191.13 241.772C191.151 241.663 191.175 241.557 191.202 241.452C191.228 241.346 191.257 241.243 191.289 241.142C191.32 241.04 191.354 240.941 191.39 240.844C191.427 240.747 191.465 240.652 191.506 240.56C191.547 240.467 191.59 240.378 191.635 240.291C191.68 240.204 191.727 240.121 191.776 240.04C191.825 239.959 191.876 239.881 191.929 239.807C191.982 239.733 192.036 239.662 192.092 239.595C192.149 239.527 192.206 239.463 192.266 239.403C192.325 239.343 192.386 239.287 192.448 239.235C192.51 239.183 192.573 239.134 192.637 239.09C192.701 239.046 192.766 239.005 192.833 238.969Z" fill="#EDEFFF"/>
<path fill-rule="evenodd" clip-rule="evenodd" d="M192.833 288.108L232.15 266.725C232.287 266.65 232.427 266.594 232.57 266.557C232.712 266.519 232.856 266.5 233 266.5C233.144 266.5 233.288 266.519 233.43 266.557C233.573 266.594 233.712 266.65 233.849 266.725L273.167 288.108C273.233 288.144 273.299 288.184 273.363 288.228C273.427 288.272 273.49 288.321 273.552 288.373C273.614 288.425 273.675 288.482 273.734 288.542C273.793 288.602 273.851 288.665 273.907 288.733C273.964 288.8 274.018 288.871 274.071 288.945C274.124 289.02 274.175 289.097 274.224 289.178C274.273 289.259 274.32 289.343 274.365 289.429C274.41 289.516 274.453 289.606 274.494 289.698C274.535 289.79 274.573 289.885 274.61 289.982C274.646 290.079 274.68 290.178 274.711 290.28C274.743 290.381 274.772 290.485 274.798 290.59C274.825 290.695 274.849 290.802 274.87 290.91C274.892 291.018 274.911 291.127 274.927 291.238C274.943 291.349 274.956 291.46 274.967 291.572C274.978 291.685 274.986 291.797 274.992 291.911C274.997 292.024 275 292.138 275 292.251V317.131C275 317.217 274.998 317.304 274.995 317.39C274.992 317.476 274.987 317.562 274.981 317.647C274.975 317.733 274.967 317.818 274.958 317.903C274.948 317.987 274.937 318.072 274.925 318.156C274.913 318.239 274.899 318.323 274.883 318.405C274.868 318.487 274.851 318.569 274.833 318.65C274.814 318.731 274.795 318.81 274.773 318.889C274.752 318.968 274.729 319.046 274.705 319.123C274.681 319.199 274.655 319.275 274.629 319.349C274.602 319.423 274.574 319.496 274.544 319.568C274.515 319.639 274.484 319.709 274.452 319.778C274.42 319.847 274.386 319.913 274.352 319.979C274.317 320.044 274.282 320.108 274.245 320.169C274.208 320.232 274.17 320.292 274.131 320.35C274.092 320.408 274.052 320.465 274.011 320.519C273.97 320.573 273.928 320.626 273.886 320.676C273.843 320.726 273.799 320.775 273.754 320.821C273.709 320.867 273.664 320.911 273.618 320.953C273.571 320.995 273.524 321.034 273.477 321.071C273.429 321.108 273.381 321.144 273.332 321.176C273.283 321.209 273.233 321.239 273.183 321.267C273.133 321.294 273.082 321.32 273.031 321.343C272.98 321.365 272.929 321.386 272.877 321.404C272.826 321.422 272.774 321.437 272.721 321.45C272.669 321.463 272.616 321.474 272.564 321.482C272.511 321.49 272.458 321.495 272.405 321.498C272.353 321.501 272.3 321.501 272.247 321.498C272.194 321.496 272.141 321.492 272.088 321.484C272.036 321.477 271.983 321.467 271.931 321.454C271.878 321.442 271.826 321.427 271.774 321.41C271.723 321.392 271.671 321.372 271.62 321.35C271.569 321.327 271.518 321.302 271.468 321.275L233.849 300.816C233.712 300.742 233.573 300.686 233.43 300.648C233.288 300.61 233.144 300.592 233 300.592C232.856 300.592 232.712 300.61 232.57 300.648C232.427 300.686 232.287 300.742 232.15 300.816L194.532 321.275C194.481 321.302 194.431 321.327 194.38 321.35C194.329 321.372 194.277 321.392 194.225 321.41C194.174 321.427 194.121 321.442 194.069 321.454C194.017 321.467 193.964 321.477 193.912 321.484C193.859 321.492 193.806 321.496 193.753 321.498C193.7 321.501 193.647 321.501 193.594 321.498C193.542 321.495 193.489 321.49 193.436 321.482C193.383 321.474 193.331 321.463 193.279 321.45C193.226 321.437 193.174 321.422 193.123 321.404C193.071 321.386 193.019 321.365 192.968 321.343C192.917 321.32 192.867 321.294 192.817 321.267C192.767 321.239 192.717 321.208 192.668 321.176C192.619 321.143 192.571 321.108 192.523 321.071C192.476 321.034 192.429 320.995 192.382 320.953C192.336 320.911 192.291 320.867 192.246 320.821C192.201 320.775 192.157 320.726 192.114 320.676C192.071 320.626 192.03 320.573 191.988 320.519C191.947 320.465 191.907 320.408 191.868 320.35C191.83 320.292 191.792 320.232 191.755 320.169C191.718 320.108 191.682 320.044 191.648 319.979C191.613 319.913 191.58 319.847 191.548 319.778C191.516 319.709 191.485 319.639 191.456 319.568C191.426 319.496 191.398 319.423 191.371 319.349C191.344 319.275 191.319 319.199 191.295 319.123C191.271 319.046 191.248 318.968 191.227 318.889C191.205 318.81 191.186 318.731 191.167 318.65C191.149 318.569 191.132 318.487 191.116 318.405C191.101 318.323 191.087 318.239 191.075 318.156C191.062 318.072 191.051 317.987 191.042 317.903C191.033 317.818 191.025 317.733 191.019 317.647C191.013 317.562 191.008 317.476 191.005 317.39C191.002 317.304 191 317.217 191 317.131V292.251C191 292.138 191.003 292.024 191.008 291.911C191.014 291.797 191.022 291.685 191.033 291.572C191.043 291.46 191.057 291.349 191.073 291.238C191.089 291.127 191.108 291.018 191.13 290.91C191.151 290.802 191.175 290.695 191.202 290.59C191.228 290.485 191.257 290.381 191.289 290.28C191.32 290.178 191.354 290.079 191.39 289.982C191.427 289.885 191.465 289.79 191.506 289.698C191.547 289.606 191.59 289.516 191.635 289.429C191.68 289.343 191.727 289.259 191.776 289.178C191.825 289.097 191.876 289.02 191.929 288.945C191.982 288.871 192.036 288.8 192.092 288.733C192.149 288.665 192.206 288.602 192.266 288.542C192.325 288.482 192.386 288.425 192.448 288.373C192.51 288.321 192.573 288.272 192.637 288.228C192.701 288.184 192.766 288.144 192.833 288.108Z" fill="#EDEFFF"/>
<path fill-rule="evenodd" clip-rule="evenodd" d="M192.833 340.136L232.15 318.753C232.287 318.679 232.427 318.623 232.57 318.585C232.712 318.547 232.856 318.528 233 318.528C233.144 318.528 233.288 318.547 233.43 318.585C233.573 318.623 233.712 318.679 233.849 318.753L273.167 340.136C273.233 340.172 273.299 340.212 273.363 340.256C273.427 340.301 273.49 340.349 273.552 340.401C273.614 340.454 273.675 340.51 273.734 340.57C273.793 340.63 273.851 340.694 273.907 340.761C273.964 340.828 274.018 340.899 274.071 340.974C274.124 341.048 274.175 341.125 274.224 341.206C274.273 341.287 274.32 341.371 274.365 341.458C274.41 341.544 274.453 341.634 274.494 341.726C274.535 341.818 274.573 341.913 274.61 342.01C274.646 342.107 274.68 342.207 274.711 342.308C274.743 342.41 274.772 342.513 274.798 342.618C274.825 342.723 274.849 342.83 274.87 342.938C274.892 343.046 274.911 343.156 274.927 343.266C274.943 343.377 274.956 343.488 274.967 343.601C274.978 343.713 274.986 343.826 274.992 343.939C274.997 344.052 275 344.166 275 344.28V369.16C275 369.246 274.998 369.332 274.995 369.418C274.992 369.504 274.987 369.59 274.981 369.676C274.975 369.761 274.967 369.846 274.958 369.931C274.948 370.016 274.937 370.1 274.925 370.184C274.913 370.268 274.899 370.351 274.883 370.433C274.868 370.516 274.851 370.597 274.833 370.678C274.814 370.759 274.795 370.839 274.773 370.917C274.752 370.996 274.729 371.074 274.705 371.151C274.681 371.228 274.655 371.303 274.629 371.377C274.602 371.451 274.574 371.524 274.544 371.596C274.515 371.668 274.484 371.738 274.452 371.806C274.42 371.875 274.386 371.942 274.352 372.007C274.317 372.072 274.282 372.136 274.245 372.198C274.208 372.26 274.17 372.32 274.131 372.378C274.092 372.437 274.052 372.493 274.011 372.547C273.97 372.602 273.928 372.654 273.886 372.704C273.843 372.755 273.799 372.803 273.754 372.849C273.709 372.895 273.664 372.939 273.618 372.981C273.571 373.023 273.524 373.062 273.477 373.099C273.429 373.137 273.381 373.172 273.332 373.204C273.283 373.237 273.233 373.267 273.183 373.295C273.133 373.323 273.082 373.348 273.031 373.371C272.98 373.394 272.929 373.414 272.877 373.432C272.826 373.45 272.774 373.466 272.721 373.479C272.669 373.491 272.616 373.502 272.564 373.51C272.511 373.518 272.458 373.523 272.405 373.526C272.353 373.529 272.3 373.529 272.247 373.527C272.194 373.525 272.141 373.52 272.088 373.513C272.036 373.505 271.983 373.495 271.931 373.483C271.878 373.47 271.826 373.455 271.774 373.438C271.723 373.42 271.671 373.4 271.62 373.378C271.569 373.356 271.518 373.331 271.468 373.303L233.849 352.845C233.712 352.77 233.573 352.714 233.43 352.676C233.288 352.639 233.144 352.62 233 352.62C232.856 352.62 232.712 352.639 232.57 352.676C232.427 352.714 232.287 352.77 232.15 352.845L194.532 373.303C194.481 373.331 194.431 373.356 194.38 373.378C194.329 373.4 194.277 373.42 194.225 373.438C194.174 373.455 194.121 373.47 194.069 373.483C194.017 373.495 193.964 373.505 193.912 373.513C193.859 373.52 193.806 373.525 193.753 373.527C193.7 373.529 193.647 373.529 193.594 373.526C193.542 373.523 193.489 373.518 193.436 373.51C193.383 373.502 193.331 373.491 193.279 373.479C193.226 373.466 193.174 373.45 193.123 373.432C193.071 373.414 193.019 373.394 192.968 373.371C192.917 373.348 192.867 373.323 192.817 373.295C192.767 373.267 192.717 373.237 192.668 373.204C192.619 373.172 192.571 373.137 192.523 373.099C192.476 373.062 192.429 373.023 192.382 372.981C192.336 372.939 192.291 372.895 192.246 372.849C192.201 372.803 192.157 372.755 192.114 372.704C192.071 372.654 192.03 372.602 191.988 372.547C191.947 372.493 191.907 372.437 191.868 372.378C191.83 372.32 191.792 372.26 191.755 372.198C191.718 372.136 191.682 372.072 191.648 372.007C191.613 371.942 191.58 371.875 191.548 371.806C191.516 371.738 191.485 371.668 191.456 371.596C191.426 371.524 191.398 371.451 191.371 371.377C191.344 371.303 191.319 371.228 191.295 371.151C191.271 371.074 191.248 370.996 191.227 370.917C191.205 370.839 191.186 370.759 191.167 370.678C191.149 370.597 191.132 370.516 191.116 370.433C191.101 370.351 191.087 370.268 191.075 370.184C191.062 370.1 191.051 370.016 191.042 369.931C191.033 369.846 191.025 369.761 191.019 369.676C191.013 369.59 191.008 369.504 191.005 369.418C191.002 369.332 191 369.246 191 369.16V344.28C191 344.166 191.003 344.052 191.008 343.939C191.014 343.826 191.022 343.713 191.033 343.601C191.043 343.488 191.057 343.377 191.073 343.266C191.089 343.156 191.108 343.046 191.13 342.938C191.151 342.83 191.175 342.723 191.202 342.618C191.228 342.513 191.257 342.41 191.289 342.308C191.32 342.207 191.354 342.107 191.39 342.01C191.427 341.913 191.465 341.818 191.506 341.726C191.547 341.634 191.59 341.544 191.635 341.458C191.68 341.371 191.727 341.287 191.776 341.206C191.825 341.125 191.876 341.048 191.929 340.974C191.982 340.899 192.036 340.828 192.092 340.761C192.149 340.694 192.206 340.63 192.266 340.57C192.325 340.51 192.386 340.454 192.448 340.401C192.51 340.349 192.573 340.301 192.637 340.256C192.701 340.212 192.766 340.172 192.833 340.136Z" fill="#EDEFFF"/>
<path fill-rule="evenodd" clip-rule="evenodd" d="M192.833 390.719L232.15 369.337C232.287 369.262 232.427 369.206 232.57 369.168C232.712 369.131 232.856 369.112 233 369.112C233.144 369.112 233.288 369.131 233.43 369.168C233.573 369.206 233.712 369.262 233.849 369.337L273.167 390.719C273.233 390.755 273.299 390.796 273.363 390.84C273.427 390.884 273.49 390.933 273.552 390.985C273.614 391.037 273.675 391.093 273.734 391.153C273.793 391.213 273.851 391.277 273.907 391.345C273.964 391.412 274.018 391.483 274.071 391.557C274.124 391.631 274.175 391.709 274.224 391.79C274.273 391.871 274.32 391.954 274.365 392.041C274.41 392.128 274.453 392.217 274.494 392.31C274.535 392.402 274.573 392.497 274.61 392.594C274.646 392.691 274.68 392.79 274.711 392.892C274.743 392.993 274.772 393.096 274.798 393.202C274.825 393.307 274.849 393.413 274.87 393.522C274.892 393.63 274.911 393.739 274.927 393.85C274.943 393.96 274.956 394.072 274.967 394.184C274.978 394.296 274.986 394.409 274.992 394.523C274.997 394.636 275 394.749 275 394.863V419.743C275 419.829 274.998 419.916 274.995 420.002C274.992 420.088 274.987 420.173 274.981 420.259C274.975 420.345 274.967 420.43 274.958 420.515C274.948 420.599 274.937 420.684 274.925 420.767C274.913 420.851 274.899 420.934 274.883 421.017C274.868 421.099 274.851 421.181 274.833 421.262C274.814 421.342 274.795 421.422 274.773 421.501C274.752 421.58 274.729 421.658 274.705 421.734C274.681 421.811 274.655 421.887 274.629 421.961C274.602 422.035 274.574 422.108 274.544 422.18C274.515 422.251 274.484 422.321 274.452 422.39C274.42 422.458 274.386 422.525 274.352 422.591C274.317 422.656 274.282 422.719 274.245 422.781C274.208 422.843 274.17 422.904 274.131 422.962C274.092 423.02 274.052 423.076 274.011 423.131C273.97 423.185 273.928 423.238 273.886 423.288C273.843 423.338 273.799 423.387 273.754 423.433C273.709 423.479 273.664 423.523 273.618 423.565C273.571 423.606 273.524 423.646 273.477 423.683C273.429 423.72 273.381 423.755 273.332 423.788C273.283 423.82 273.233 423.85 273.183 423.878C273.133 423.906 273.082 423.931 273.031 423.954C272.98 423.977 272.929 423.998 272.877 424.016C272.826 424.034 272.774 424.049 272.721 424.062C272.669 424.075 272.616 424.085 272.564 424.093C272.511 424.101 272.458 424.107 272.405 424.11C272.353 424.112 272.3 424.113 272.247 424.11C272.194 424.108 272.141 424.103 272.088 424.096C272.036 424.089 271.983 424.079 271.931 424.066C271.878 424.054 271.826 424.039 271.774 424.021C271.723 424.004 271.671 423.984 271.62 423.961C271.569 423.939 271.518 423.914 271.468 423.887L233.849 403.428C233.712 403.354 233.573 403.298 233.43 403.26C233.288 403.222 233.144 403.203 233 403.203C232.856 403.203 232.712 403.222 232.57 403.26C232.427 403.298 232.287 403.354 232.15 403.428L194.532 423.887C194.481 423.914 194.431 423.939 194.38 423.961C194.329 423.984 194.277 424.004 194.225 424.021C194.174 424.039 194.121 424.054 194.069 424.066C194.017 424.079 193.964 424.089 193.912 424.096C193.859 424.103 193.806 424.108 193.753 424.11C193.7 424.113 193.647 424.112 193.594 424.11C193.542 424.107 193.489 424.101 193.436 424.093C193.383 424.085 193.331 424.075 193.279 424.062C193.226 424.049 193.174 424.034 193.123 424.016C193.071 423.998 193.019 423.977 192.968 423.954C192.917 423.931 192.867 423.906 192.817 423.878C192.767 423.85 192.717 423.82 192.668 423.788C192.619 423.755 192.571 423.72 192.523 423.683C192.476 423.646 192.429 423.606 192.382 423.565C192.336 423.523 192.291 423.479 192.246 423.433C192.201 423.387 192.157 423.338 192.114 423.288C192.071 423.238 192.03 423.185 191.988 423.131C191.947 423.076 191.907 423.02 191.868 422.962C191.83 422.904 191.792 422.843 191.755 422.781C191.718 422.719 191.682 422.656 191.648 422.591C191.613 422.525 191.58 422.458 191.548 422.39C191.516 422.321 191.485 422.251 191.456 422.18C191.426 422.108 191.398 422.035 191.371 421.961C191.344 421.887 191.319 421.811 191.295 421.734C191.271 421.658 191.248 421.58 191.227 421.501C191.205 421.422 191.186 421.342 191.167 421.262C191.149 421.181 191.132 421.099 191.116 421.017C191.101 420.934 191.087 420.851 191.075 420.767C191.062 420.684 191.051 420.599 191.042 420.515C191.033 420.43 191.025 420.345 191.019 420.259C191.013 420.173 191.008 420.088 191.005 420.002C191.002 419.916 191 419.829 191 419.743V394.863C191 394.749 191.003 394.636 191.008 394.523C191.014 394.409 191.022 394.296 191.033 394.184C191.043 394.072 191.057 393.96 191.073 393.85C191.089 393.739 191.108 393.63 191.13 393.522C191.151 393.413 191.175 393.307 191.202 393.202C191.228 393.096 191.257 392.993 191.289 392.892C191.32 392.79 191.354 392.691 191.39 392.594C191.427 392.497 191.465 392.402 191.506 392.31C191.547 392.217 191.59 392.128 191.635 392.041C191.68 391.954 191.727 391.871 191.776 391.79C191.825 391.709 191.876 391.631 191.929 391.557C191.982 391.483 192.036 391.412 192.092 391.345C192.149 391.277 192.206 391.213 192.266 391.153C192.325 391.093 192.386 391.037 192.448 390.985C192.51 390.933 192.573 390.884 192.637 390.84C192.701 390.796 192.766 390.755 192.833 390.719Z" fill="#EDEFFF"/>
<path fill-rule="evenodd" clip-rule="evenodd" d="M192.833 441.303L232.15 419.92C232.287 419.846 232.427 419.79 232.57 419.752C232.712 419.714 232.856 419.695 233 419.695C233.144 419.695 233.288 419.714 233.43 419.752C233.573 419.79 233.712 419.846 233.849 419.92L273.167 441.303C273.233 441.339 273.299 441.379 273.363 441.423C273.427 441.468 273.49 441.516 273.552 441.568C273.614 441.621 273.675 441.677 273.734 441.737C273.793 441.797 273.851 441.861 273.907 441.928C273.964 441.995 274.018 442.066 274.071 442.141C274.124 442.215 274.175 442.292 274.224 442.373C274.273 442.454 274.32 442.538 274.365 442.625C274.41 442.711 274.453 442.801 274.494 442.893C274.535 442.985 274.573 443.08 274.61 443.177C274.646 443.274 274.68 443.374 274.711 443.475C274.743 443.577 274.772 443.68 274.798 443.785C274.825 443.89 274.849 443.997 274.87 444.105C274.892 444.213 274.911 444.323 274.927 444.433C274.943 444.544 274.956 444.655 274.967 444.768C274.978 444.88 274.986 444.993 274.992 445.106C274.997 445.219 275 445.333 275 445.447V470.327C275 470.413 274.998 470.499 274.995 470.585C274.992 470.671 274.987 470.757 274.981 470.843C274.975 470.928 274.967 471.013 274.958 471.098C274.948 471.183 274.937 471.267 274.925 471.351C274.913 471.435 274.899 471.518 274.883 471.6C274.868 471.683 274.851 471.764 274.833 471.845C274.814 471.926 274.795 472.006 274.773 472.084C274.752 472.163 274.729 472.241 274.705 472.318C274.681 472.395 274.655 472.47 274.629 472.544C274.602 472.618 274.574 472.691 274.544 472.763C274.515 472.835 274.484 472.905 274.452 472.973C274.42 473.042 274.386 473.109 274.352 473.174C274.317 473.239 274.282 473.303 274.245 473.365C274.208 473.427 274.17 473.487 274.131 473.545C274.092 473.604 274.052 473.66 274.011 473.714C273.97 473.769 273.928 473.821 273.886 473.871C273.843 473.922 273.799 473.97 273.754 474.016C273.709 474.062 273.664 474.106 273.618 474.148C273.571 474.19 273.524 474.229 273.477 474.266C273.429 474.304 273.381 474.339 273.332 474.371C273.283 474.404 273.233 474.434 273.183 474.462C273.133 474.49 273.082 474.515 273.031 474.538C272.98 474.561 272.929 474.581 272.877 474.599C272.826 474.617 272.774 474.633 272.721 474.646C272.669 474.658 272.616 474.669 272.564 474.677C272.511 474.685 272.458 474.69 272.405 474.693C272.353 474.696 272.3 474.696 272.247 474.694C272.194 474.692 272.141 474.687 272.088 474.68C272.036 474.672 271.983 474.662 271.931 474.65C271.878 474.637 271.826 474.622 271.774 474.605C271.723 474.587 271.671 474.567 271.62 474.545C271.569 474.523 271.518 474.498 271.468 474.47L233.849 454.012C233.712 453.937 233.573 453.881 233.43 453.843C233.288 453.806 233.144 453.787 233 453.787C232.856 453.787 232.712 453.806 232.57 453.843C232.427 453.881 232.287 453.937 232.15 454.012L194.532 474.47C194.481 474.498 194.431 474.523 194.38 474.545C194.329 474.567 194.277 474.587 194.225 474.605C194.174 474.622 194.121 474.637 194.069 474.65C194.017 474.662 193.964 474.672 193.912 474.68C193.859 474.687 193.806 474.692 193.753 474.694C193.7 474.696 193.647 474.696 193.594 474.693C193.542 474.69 193.489 474.685 193.436 474.677C193.383 474.669 193.331 474.658 193.279 474.646C193.226 474.633 193.174 474.617 193.123 474.599C193.071 474.581 193.019 474.561 192.968 474.538C192.917 474.515 192.867 474.49 192.817 474.462C192.767 474.434 192.717 474.404 192.668 474.371C192.619 474.339 192.571 474.304 192.523 474.266C192.476 474.229 192.429 474.19 192.382 474.148C192.336 474.106 192.291 474.062 192.246 474.016C192.201 473.97 192.157 473.922 192.114 473.871C192.071 473.821 192.03 473.769 191.988 473.714C191.947 473.66 191.907 473.604 191.868 473.545C191.83 473.487 191.792 473.427 191.755 473.365C191.718 473.303 191.682 473.239 191.648 473.174C191.613 473.109 191.58 473.042 191.548 472.973C191.516 472.905 191.485 472.835 191.456 472.763C191.426 472.691 191.398 472.618 191.371 472.544C191.344 472.47 191.319 472.395 191.295 472.318C191.271 472.241 191.248 472.163 191.227 472.084C191.205 472.006 191.186 471.926 191.167 471.845C191.149 471.764 191.132 471.683 191.116 471.6C191.101 471.518 191.087 471.435 191.075 471.351C191.062 471.267 191.051 471.183 191.042 471.098C191.033 471.013 191.025 470.928 191.019 470.843C191.013 470.757 191.008 470.671 191.005 470.585C191.002 470.499 191 470.413 191 470.327V445.447C191 445.333 191.003 445.219 191.008 445.106C191.014 444.993 191.022 444.88 191.033 444.768C191.043 444.655 191.057 444.544 191.073 444.433C191.089 444.323 191.108 444.213 191.13 444.105C191.151 443.997 191.175 443.89 191.202 443.785C191.228 443.68 191.257 443.577 191.289 443.475C191.32 443.374 191.354 443.274 191.39 443.177C191.427 443.08 191.465 442.985 191.506 442.893C191.547 442.801 191.59 442.711 191.635 442.625C191.68 442.538 191.727 442.454 191.776 442.373C191.825 442.292 191.876 442.215 191.929 442.141C191.982 442.066 192.036 441.995 192.092 441.928C192.149 441.861 192.206 441.797 192.266 441.737C192.325 441.677 192.386 441.621 192.448 441.568C192.51 441.516 192.573 441.468 192.637 441.423C192.701 441.379 192.766 441.339 192.833 441.303Z" fill="#EDEFFF"/>
<path fill-rule="evenodd" clip-rule="evenodd" d="M192.833 490.441L232.15 469.058C232.287 468.984 232.427 468.928 232.57 468.89C232.712 468.852 232.856 468.833 233 468.833C233.144 468.833 233.288 468.852 233.43 468.89C233.573 468.928 233.712 468.984 233.849 469.058L273.167 490.441C273.233 490.477 273.299 490.517 273.363 490.561C273.427 490.606 273.49 490.654 273.552 490.706C273.614 490.759 273.675 490.815 273.734 490.875C273.793 490.935 273.851 490.999 273.907 491.066C273.964 491.133 274.018 491.204 274.071 491.278C274.124 491.353 274.175 491.43 274.224 491.511C274.273 491.592 274.32 491.676 274.365 491.763C274.41 491.849 274.453 491.939 274.494 492.031C274.535 492.123 274.573 492.218 274.61 492.315C274.646 492.412 274.68 492.512 274.711 492.613C274.743 492.715 274.772 492.818 274.798 492.923C274.825 493.028 274.849 493.135 274.87 493.243C274.892 493.351 274.911 493.461 274.927 493.571C274.943 493.682 274.956 493.793 274.967 493.906C274.978 494.018 274.986 494.131 274.992 494.244C274.997 494.357 275 494.471 275 494.585V519.465C275 519.551 274.998 519.637 274.995 519.723C274.992 519.809 274.987 519.895 274.981 519.98C274.975 520.066 274.967 520.151 274.958 520.236C274.948 520.321 274.937 520.405 274.925 520.489C274.913 520.573 274.899 520.656 274.883 520.738C274.868 520.821 274.851 520.902 274.833 520.983C274.814 521.064 274.795 521.144 274.773 521.222C274.752 521.301 274.729 521.379 274.705 521.456C274.681 521.533 274.655 521.608 274.629 521.682C274.602 521.756 274.574 521.829 274.544 521.901C274.515 521.973 274.484 522.043 274.452 522.111C274.42 522.18 274.386 522.247 274.352 522.312C274.317 522.377 274.282 522.441 274.245 522.503C274.208 522.565 274.17 522.625 274.131 522.683C274.092 522.741 274.052 522.798 274.011 522.852C273.97 522.907 273.928 522.959 273.886 523.009C273.843 523.06 273.799 523.108 273.754 523.154C273.709 523.2 273.664 523.244 273.618 523.286C273.571 523.328 273.524 523.367 273.477 523.404C273.429 523.442 273.381 523.477 273.332 523.509C273.283 523.542 273.233 523.572 273.183 523.6C273.133 523.628 273.082 523.653 273.031 523.676C272.98 523.699 272.929 523.719 272.877 523.737C272.826 523.755 272.774 523.771 272.721 523.783C272.669 523.796 272.616 523.807 272.564 523.815C272.511 523.823 272.458 523.828 272.405 523.831C272.353 523.834 272.3 523.834 272.247 523.832C272.194 523.83 272.141 523.825 272.088 523.817C272.036 523.81 271.983 523.8 271.931 523.787C271.878 523.775 271.826 523.76 271.774 523.743C271.723 523.725 271.671 523.705 271.62 523.683C271.569 523.66 271.518 523.636 271.468 523.608L233.849 503.15C233.712 503.075 233.573 503.019 233.43 502.981C233.288 502.944 233.144 502.925 233 502.925C232.856 502.925 232.712 502.944 232.57 502.981C232.427 503.019 232.287 503.075 232.15 503.15L194.532 523.608C194.481 523.636 194.431 523.66 194.38 523.683C194.329 523.705 194.277 523.725 194.225 523.743C194.174 523.76 194.121 523.775 194.069 523.787C194.017 523.8 193.964 523.81 193.912 523.817C193.859 523.825 193.806 523.83 193.753 523.832C193.7 523.834 193.647 523.834 193.594 523.831C193.542 523.828 193.489 523.823 193.436 523.815C193.383 523.807 193.331 523.796 193.279 523.783C193.226 523.771 193.174 523.755 193.123 523.737C193.071 523.719 193.019 523.699 192.968 523.676C192.917 523.653 192.867 523.628 192.817 523.6C192.767 523.572 192.717 523.542 192.668 523.509C192.619 523.477 192.571 523.442 192.523 523.404C192.476 523.367 192.429 523.328 192.382 523.286C192.336 523.244 192.291 523.2 192.246 523.154C192.201 523.108 192.157 523.06 192.114 523.009C192.071 522.959 192.03 522.907 191.988 522.852C191.947 522.798 191.907 522.741 191.868 522.683C191.83 522.625 191.792 522.565 191.755 522.503C191.718 522.441 191.682 522.377 191.648 522.312C191.613 522.247 191.58 522.18 191.548 522.111C191.516 522.043 191.485 521.973 191.456 521.901C191.426 521.829 191.398 521.756 191.371 521.682C191.344 521.608 191.319 521.533 191.295 521.456C191.271 521.379 191.248 521.301 191.227 521.222C191.205 521.144 191.186 521.064 191.167 520.983C191.149 520.902 191.132 520.821 191.116 520.738C191.101 520.656 191.087 520.573 191.075 520.489C191.062 520.405 191.051 520.321 191.042 520.236C191.033 520.151 191.025 520.066 191.019 519.98C191.013 519.895 191.008 519.809 191.005 519.723C191.002 519.637 191 519.551 191 519.465V494.585C191 494.471 191.003 494.357 191.008 494.244C191.014 494.131 191.022 494.018 191.033 493.906C191.043 493.793 191.057 493.682 191.073 493.571C191.089 493.461 191.108 493.351 191.13 493.243C191.151 493.135 191.175 493.028 191.202 492.923C191.228 492.818 191.257 492.715 191.289 492.613C191.32 492.512 191.354 492.412 191.39 492.315C191.427 492.218 191.465 492.123 191.506 492.031C191.547 491.939 191.59 491.849 191.635 491.763C191.68 491.676 191.727 491.592 191.776 491.511C191.825 491.43 191.876 491.353 191.929 491.278C191.982 491.204 192.036 491.133 192.092 491.066C192.149 490.999 192.206 490.935 192.266 490.875C192.325 490.815 192.386 490.759 192.448 490.706C192.51 490.654 192.573 490.606 192.637 490.561C192.701 490.517 192.766 490.477 192.833 490.441Z" fill="#EDEFFF"/>
<path fill-rule="evenodd" clip-rule="evenodd" d="M192.833 541.024L232.15 519.642C232.287 519.567 232.427 519.511 232.57 519.473C232.712 519.436 232.856 519.417 233 519.417C233.144 519.417 233.288 519.436 233.43 519.473C233.573 519.511 233.712 519.567 233.849 519.642L273.167 541.024C273.233 541.06 273.299 541.101 273.363 541.145C273.427 541.189 273.49 541.237 273.552 541.29C273.614 541.342 273.675 541.398 273.734 541.458C273.793 541.518 273.851 541.582 273.907 541.649C273.964 541.717 274.018 541.788 274.071 541.862C274.124 541.936 274.175 542.014 274.224 542.095C274.273 542.175 274.32 542.259 274.365 542.346C274.41 542.433 274.453 542.522 274.494 542.615C274.535 542.707 274.573 542.802 274.61 542.899C274.646 542.996 274.68 543.095 274.711 543.197C274.743 543.298 274.772 543.401 274.798 543.506C274.825 543.612 274.849 543.718 274.87 543.826C274.892 543.935 274.911 544.044 274.927 544.155C274.943 544.265 274.956 544.377 274.967 544.489C274.978 544.601 274.986 544.714 274.992 544.827C274.997 544.941 275 545.054 275 545.168V570.048C275 570.134 274.998 570.22 274.995 570.307C274.992 570.393 274.987 570.478 274.981 570.564C274.975 570.65 274.967 570.735 274.958 570.819C274.948 570.904 274.937 570.989 274.925 571.072C274.913 571.156 274.899 571.239 274.883 571.322C274.868 571.404 274.851 571.486 274.833 571.567C274.814 571.647 274.795 571.727 274.773 571.806C274.752 571.885 274.729 571.963 274.705 572.039C274.681 572.116 274.655 572.192 274.629 572.266C274.602 572.34 274.574 572.413 274.544 572.485C274.515 572.556 274.484 572.626 274.452 572.695C274.42 572.763 274.386 572.83 274.352 572.896C274.317 572.961 274.282 573.024 274.245 573.086C274.208 573.148 274.17 573.208 274.131 573.267C274.092 573.325 274.052 573.381 274.011 573.436C273.97 573.49 273.928 573.543 273.886 573.593C273.843 573.643 273.799 573.691 273.754 573.738C273.709 573.784 273.664 573.828 273.618 573.87C273.571 573.911 273.524 573.951 273.477 573.988C273.429 574.025 273.381 574.06 273.332 574.093C273.283 574.125 273.233 574.155 273.183 574.183C273.133 574.211 273.082 574.236 273.031 574.259C272.98 574.282 272.929 574.303 272.877 574.321C272.826 574.339 272.774 574.354 272.721 574.367C272.669 574.38 272.616 574.39 272.564 574.398C272.511 574.406 272.458 574.412 272.405 574.415C272.353 574.417 272.3 574.417 272.247 574.415C272.194 574.413 272.141 574.408 272.088 574.401C272.036 574.394 271.983 574.384 271.931 574.371C271.878 574.359 271.826 574.344 271.774 574.326C271.723 574.309 271.671 574.289 271.62 574.266C271.569 574.244 271.518 574.219 271.468 574.192L233.849 553.733C233.712 553.659 233.573 553.603 233.43 553.565C233.288 553.527 233.144 553.508 233 553.508C232.856 553.508 232.712 553.527 232.57 553.565C232.427 553.603 232.287 553.659 232.15 553.733L194.532 574.192C194.481 574.219 194.431 574.244 194.38 574.266C194.329 574.289 194.277 574.309 194.225 574.326C194.174 574.344 194.121 574.359 194.069 574.371C194.017 574.384 193.964 574.394 193.912 574.401C193.859 574.408 193.806 574.413 193.753 574.415C193.7 574.417 193.647 574.417 193.594 574.415C193.542 574.412 193.489 574.406 193.436 574.398C193.383 574.39 193.331 574.38 193.279 574.367C193.226 574.354 193.174 574.339 193.123 574.321C193.071 574.303 193.019 574.282 192.968 574.259C192.917 574.236 192.867 574.211 192.817 574.183C192.767 574.155 192.717 574.125 192.668 574.092C192.619 574.06 192.571 574.025 192.523 573.988C192.476 573.951 192.429 573.911 192.382 573.87C192.336 573.828 192.291 573.784 192.246 573.738C192.201 573.691 192.157 573.643 192.114 573.593C192.071 573.543 192.03 573.49 191.988 573.436C191.947 573.381 191.907 573.325 191.868 573.267C191.83 573.208 191.792 573.148 191.755 573.086C191.718 573.024 191.682 572.961 191.648 572.896C191.613 572.83 191.58 572.763 191.548 572.695C191.516 572.626 191.485 572.556 191.456 572.485C191.426 572.413 191.398 572.34 191.371 572.266C191.344 572.192 191.319 572.116 191.295 572.039C191.271 571.963 191.248 571.885 191.227 571.806C191.205 571.727 191.186 571.647 191.167 571.567C191.149 571.486 191.132 571.404 191.116 571.322C191.101 571.239 191.087 571.156 191.075 571.072C191.062 570.989 191.051 570.904 191.042 570.819C191.033 570.735 191.025 570.65 191.019 570.564C191.013 570.478 191.008 570.393 191.005 570.307C191.002 570.22 191 570.134 191 570.048V545.168C191 545.054 191.003 544.941 191.008 544.827C191.014 544.714 191.022 544.601 191.033 544.489C191.043 544.377 191.057 544.265 191.073 544.155C191.089 544.044 191.108 543.935 191.13 543.826C191.151 543.718 191.175 543.612 191.202 543.506C191.228 543.401 191.257 543.298 191.289 543.197C191.32 543.095 191.354 542.996 191.39 542.899C191.427 542.802 191.465 542.707 191.506 542.615C191.547 542.522 191.59 542.433 191.635 542.346C191.68 542.259 191.727 542.175 191.776 542.095C191.825 542.014 191.876 541.936 191.929 541.862C191.982 541.788 192.036 541.717 192.092 541.649C192.149 541.582 192.206 541.518 192.266 541.458C192.325 541.398 192.386 541.342 192.448 541.29C192.51 541.237 192.573 541.189 192.637 541.145C192.701 541.101 192.766 541.06 192.833 541.024Z" fill="#EDEFFF"/>
<path fill-rule="evenodd" clip-rule="evenodd" d="M192.833 591.608L232.15 570.225C232.287 570.15 232.427 570.094 232.57 570.057C232.712 570.019 232.856 570 233 570C233.144 570 233.288 570.019 233.43 570.057C233.573 570.094 233.712 570.15 233.849 570.225L273.167 591.608C273.233 591.644 273.299 591.684 273.363 591.728C273.427 591.772 273.49 591.821 273.552 591.873C273.614 591.925 273.675 591.982 273.734 592.042C273.793 592.102 273.851 592.165 273.907 592.233C273.964 592.3 274.018 592.371 274.071 592.445C274.124 592.52 274.175 592.597 274.224 592.678C274.273 592.759 274.32 592.843 274.365 592.929C274.41 593.016 274.453 593.106 274.494 593.198C274.535 593.29 274.573 593.385 274.61 593.482C274.646 593.579 274.68 593.678 274.711 593.78C274.743 593.881 274.772 593.985 274.798 594.09C274.825 594.195 274.849 594.302 274.87 594.41C274.892 594.518 274.911 594.627 274.927 594.738C274.943 594.849 274.956 594.96 274.967 595.072C274.978 595.185 274.986 595.297 274.992 595.411C274.997 595.524 275 595.638 275 595.751V620.631C275 620.717 274.998 620.804 274.995 620.89C274.992 620.976 274.987 621.062 274.981 621.147C274.975 621.233 274.967 621.318 274.958 621.403C274.948 621.487 274.937 621.572 274.925 621.656C274.913 621.739 274.899 621.823 274.883 621.905C274.868 621.987 274.851 622.069 274.833 622.15C274.814 622.231 274.795 622.31 274.773 622.389C274.752 622.468 274.729 622.546 274.705 622.623C274.681 622.699 274.655 622.775 274.629 622.849C274.602 622.923 274.574 622.996 274.544 623.068C274.515 623.139 274.484 623.209 274.452 623.278C274.42 623.347 274.386 623.413 274.352 623.479C274.317 623.544 274.282 623.608 274.245 623.669C274.208 623.732 274.17 623.792 274.131 623.85C274.092 623.908 274.052 623.965 274.011 624.019C273.97 624.073 273.928 624.126 273.886 624.176C273.843 624.226 273.799 624.275 273.754 624.321C273.709 624.367 273.664 624.411 273.618 624.453C273.571 624.495 273.524 624.534 273.477 624.571C273.429 624.608 273.381 624.644 273.332 624.676C273.283 624.709 273.233 624.739 273.183 624.767C273.133 624.794 273.082 624.82 273.031 624.843C272.98 624.865 272.929 624.886 272.877 624.904C272.826 624.922 272.774 624.937 272.721 624.95C272.669 624.963 272.616 624.974 272.564 624.982C272.511 624.99 272.458 624.995 272.405 624.998C272.353 625.001 272.3 625.001 272.247 624.998C272.194 624.996 272.141 624.992 272.088 624.984C272.036 624.977 271.983 624.967 271.931 624.954C271.878 624.942 271.826 624.927 271.774 624.91C271.723 624.892 271.671 624.872 271.62 624.85C271.569 624.827 271.518 624.802 271.468 624.775L233.849 604.316C233.712 604.242 233.573 604.186 233.43 604.148C233.288 604.11 233.144 604.092 233 604.092C232.856 604.092 232.712 604.11 232.57 604.148C232.427 604.186 232.287 604.242 232.15 604.316L194.532 624.775C194.481 624.802 194.431 624.827 194.38 624.85C194.329 624.872 194.277 624.892 194.225 624.91C194.174 624.927 194.121 624.942 194.069 624.954C194.017 624.967 193.964 624.977 193.912 624.984C193.859 624.992 193.806 624.996 193.753 624.998C193.7 625.001 193.647 625.001 193.594 624.998C193.542 624.995 193.489 624.99 193.436 624.982C193.383 624.974 193.331 624.963 193.279 624.95C193.226 624.937 193.174 624.922 193.123 624.904C193.071 624.886 193.019 624.865 192.968 624.843C192.917 624.82 192.867 624.794 192.817 624.767C192.767 624.739 192.717 624.708 192.668 624.676C192.619 624.643 192.571 624.608 192.523 624.571C192.476 624.534 192.429 624.495 192.382 624.453C192.336 624.411 192.291 624.367 192.246 624.321C192.201 624.275 192.157 624.226 192.114 624.176C192.071 624.126 192.03 624.073 191.988 624.019C191.947 623.965 191.907 623.908 191.868 623.85C191.83 623.792 191.792 623.732 191.755 623.669C191.718 623.608 191.682 623.544 191.648 623.479C191.613 623.413 191.58 623.347 191.548 623.278C191.516 623.209 191.485 623.139 191.456 623.068C191.426 622.996 191.398 622.923 191.371 622.849C191.344 622.775 191.319 622.699 191.295 622.623C191.271 622.546 191.248 622.468 191.227 622.389C191.205 622.31 191.186 622.231 191.167 622.15C191.149 622.069 191.132 621.987 191.116 621.905C191.101 621.823 191.087 621.739 191.075 621.656C191.062 621.572 191.051 621.487 191.042 621.403C191.033 621.318 191.025 621.233 191.019 621.147C191.013 621.062 191.008 620.976 191.005 620.89C191.002 620.804 191 620.717 191 620.631V595.751C191 595.638 191.003 595.524 191.008 595.411C191.014 595.297 191.022 595.185 191.033 595.072C191.043 594.96 191.057 594.849 191.073 594.738C191.089 594.627 191.108 594.518 191.13 594.41C191.151 594.302 191.175 594.195 191.202 594.09C191.228 593.985 191.257 593.881 191.289 593.78C191.32 593.678 191.354 593.579 191.39 593.482C191.427 593.385 191.465 593.29 191.506 593.198C191.547 593.106 191.59 593.016 191.635 592.929C191.68 592.843 191.727 592.759 191.776 592.678C191.825 592.597 191.876 592.52 191.929 592.445C191.982 592.371 192.036 592.3 192.092 592.233C192.149 592.165 192.206 592.102 192.266 592.042C192.325 591.982 192.386 591.925 192.448 591.873C192.51 591.821 192.573 591.772 192.637 591.728C192.701 591.684 192.766 591.644 192.833 591.608Z" fill="#EDEFFF"/>
</svg>
