<svg width="740" height="740" viewBox="0 0 740 740" fill="none" xmlns="http://www.w3.org/2000/svg">
<g filter="url(#filter0_d_109_8111)">
<path fill-rule="evenodd" clip-rule="evenodd" d="M585.69 183.234L514.657 204.51C514.41 204.584 514.158 204.64 513.9 204.677C513.643 204.715 513.384 204.734 513.123 204.734C512.862 204.734 512.603 204.715 512.345 204.677C512.088 204.64 511.836 204.584 511.588 204.51L440.557 183.229C440.437 183.193 440.319 183.153 440.204 183.109C440.087 183.065 439.973 183.017 439.861 182.965C439.75 182.913 439.64 182.857 439.533 182.797C439.426 182.737 439.321 182.674 439.22 182.607C439.118 182.54 439.02 182.469 438.925 182.395C438.829 182.321 438.737 182.244 438.648 182.164C438.56 182.084 438.475 182 438.393 181.914C438.311 181.827 438.234 181.738 438.16 181.646C438.086 181.555 438.017 181.46 437.951 181.364C437.886 181.267 437.825 181.168 437.768 181.067C437.711 180.966 437.658 180.864 437.61 180.759C437.562 180.654 437.519 180.548 437.48 180.441C437.442 180.333 437.408 180.224 437.378 180.114C437.349 180.004 437.325 179.893 437.305 179.781C437.286 179.669 437.271 179.557 437.261 179.444C437.251 179.332 437.246 179.219 437.246 179.105L437.247 154.347C437.247 154.262 437.25 154.176 437.256 154.09C437.261 154.004 437.27 153.919 437.281 153.834C437.292 153.749 437.306 153.664 437.323 153.58C437.34 153.495 437.36 153.411 437.382 153.328C437.405 153.245 437.43 153.162 437.458 153.08C437.486 152.998 437.516 152.917 437.549 152.836C437.582 152.756 437.618 152.677 437.657 152.598C437.695 152.52 437.736 152.442 437.78 152.366C437.823 152.289 437.87 152.214 437.918 152.14C437.967 152.067 438.017 151.994 438.071 151.923C438.124 151.851 438.18 151.782 438.237 151.714C438.295 151.645 438.356 151.579 438.418 151.514C438.48 151.449 438.545 151.386 438.611 151.324C438.678 151.262 438.746 151.202 438.817 151.144C438.887 151.086 438.959 151.03 439.033 150.976C439.107 150.922 439.183 150.87 439.261 150.82C439.338 150.77 439.417 150.722 439.498 150.676C439.579 150.63 439.661 150.586 439.745 150.545C439.828 150.503 439.913 150.464 439.999 150.427C440.085 150.39 440.173 150.355 440.261 150.322C440.35 150.29 440.439 150.26 440.53 150.232C440.62 150.205 440.712 150.18 440.804 150.157C440.896 150.134 440.989 150.114 441.082 150.096C441.175 150.078 441.269 150.063 441.364 150.05C441.458 150.037 441.553 150.026 441.649 150.018C441.744 150.011 441.839 150.005 441.934 150.002C442.03 150 442.126 149.999 442.221 150.002C442.317 150.004 442.412 150.009 442.507 150.016C442.602 150.023 442.697 150.033 442.792 150.046C442.887 150.058 442.981 150.073 443.075 150.09C443.168 150.108 443.261 150.128 443.353 150.15C443.445 150.172 443.537 150.197 443.628 150.224L511.589 170.585C511.837 170.659 512.089 170.715 512.347 170.753C512.604 170.79 512.863 170.809 513.124 170.809C513.385 170.809 513.644 170.79 513.901 170.753C514.159 170.715 514.411 170.659 514.659 170.585L582.622 150.229C582.712 150.202 582.804 150.177 582.896 150.155C582.989 150.133 583.081 150.113 583.175 150.095C583.269 150.078 583.363 150.063 583.457 150.051C583.552 150.038 583.647 150.028 583.742 150.021C583.837 150.014 583.933 150.009 584.028 150.007C584.124 150.005 584.219 150.005 584.315 150.008C584.41 150.01 584.506 150.016 584.601 150.024C584.696 150.032 584.791 150.042 584.885 150.055C584.98 150.068 585.074 150.083 585.167 150.101C585.261 150.119 585.354 150.139 585.446 150.162C585.538 150.185 585.629 150.21 585.72 150.238C585.81 150.266 585.9 150.296 585.988 150.328C586.077 150.36 586.164 150.395 586.25 150.432C586.336 150.469 586.421 150.508 586.505 150.55C586.588 150.592 586.671 150.635 586.751 150.681C586.832 150.727 586.911 150.775 586.989 150.825C587.066 150.875 587.142 150.928 587.216 150.982C587.29 151.036 587.363 151.092 587.433 151.15C587.503 151.208 587.572 151.268 587.638 151.33C587.705 151.391 587.769 151.454 587.831 151.519C587.894 151.584 587.954 151.651 588.012 151.719C588.07 151.787 588.125 151.857 588.179 151.928C588.232 152 588.283 152.072 588.331 152.146C588.38 152.22 588.426 152.295 588.469 152.371C588.513 152.448 588.554 152.525 588.592 152.604C588.631 152.682 588.667 152.762 588.7 152.842C588.733 152.922 588.764 153.003 588.792 153.085C588.819 153.167 588.845 153.25 588.867 153.334C588.889 153.417 588.909 153.501 588.926 153.585C588.943 153.67 588.957 153.754 588.968 153.84C588.979 153.925 588.988 154.01 588.993 154.096C588.999 154.181 589.002 154.267 589.002 154.353L589.001 179.111C589.001 179.224 588.996 179.337 588.986 179.45C588.976 179.563 588.962 179.675 588.942 179.787C588.922 179.899 588.898 180.01 588.869 180.12C588.84 180.23 588.806 180.339 588.767 180.446C588.728 180.554 588.685 180.66 588.637 180.765C588.589 180.869 588.536 180.972 588.479 181.073C588.423 181.174 588.361 181.273 588.296 181.369C588.23 181.466 588.161 181.56 588.087 181.652C588.013 181.744 587.936 181.833 587.854 181.919C587.773 182.006 587.688 182.089 587.599 182.169C587.51 182.25 587.418 182.327 587.323 182.401C587.227 182.475 587.129 182.545 587.027 182.612C586.926 182.68 586.821 182.743 586.714 182.803C586.607 182.862 586.498 182.918 586.386 182.97C586.274 183.022 586.16 183.071 586.044 183.115C585.927 183.159 585.81 183.199 585.69 183.234Z" fill="#EDEFFF"/>
<path fill-rule="evenodd" clip-rule="evenodd" d="M514.412 204.729L585.445 183.454C585.564 183.418 585.682 183.378 585.798 183.334C585.915 183.29 586.029 183.242 586.141 183.19C586.253 183.138 586.362 183.082 586.469 183.022C586.576 182.963 586.681 182.899 586.782 182.832C586.884 182.765 586.982 182.694 587.078 182.621C587.173 182.547 587.265 182.469 587.354 182.389C587.443 182.309 587.528 182.225 587.609 182.139C587.691 182.053 587.768 181.963 587.842 181.872C587.916 181.78 587.985 181.686 588.051 181.589C588.116 181.492 588.177 181.393 588.234 181.293C588.291 181.192 588.344 181.089 588.392 180.984C588.44 180.88 588.483 180.773 588.522 180.666C588.56 180.558 588.594 180.449 588.624 180.339C588.653 180.229 588.677 180.118 588.697 180.006C588.717 179.895 588.731 179.782 588.741 179.67C588.751 179.557 588.756 179.444 588.756 179.331L588.757 154.572C588.757 154.487 588.754 154.401 588.748 154.315C588.743 154.23 588.734 154.144 588.723 154.059C588.712 153.974 588.698 153.889 588.681 153.805C588.664 153.72 588.644 153.637 588.622 153.553C588.599 153.47 588.574 153.387 588.546 153.305C588.519 153.223 588.488 153.142 588.455 153.061C588.422 152.981 588.386 152.902 588.347 152.823C588.309 152.745 588.268 152.667 588.224 152.591C588.181 152.515 588.135 152.439 588.086 152.366C588.038 152.292 587.987 152.219 587.933 152.148C587.88 152.077 587.825 152.007 587.767 151.939C587.709 151.871 587.649 151.804 587.586 151.739C587.524 151.674 587.46 151.611 587.393 151.549C587.327 151.487 587.258 151.428 587.188 151.37C587.118 151.312 587.045 151.256 586.971 151.201C586.897 151.147 586.821 151.095 586.744 151.045C586.666 150.995 586.587 150.947 586.506 150.901C586.426 150.855 586.343 150.811 586.26 150.77C586.176 150.728 586.091 150.689 586.005 150.652C585.919 150.615 585.832 150.58 585.743 150.548C585.655 150.515 585.565 150.485 585.475 150.457C585.384 150.43 585.293 150.405 585.201 150.382C585.109 150.359 585.016 150.339 584.922 150.321C584.829 150.303 584.735 150.287 584.64 150.274C584.546 150.262 584.451 150.251 584.356 150.243C584.261 150.235 584.165 150.23 584.07 150.227C583.974 150.224 583.879 150.224 583.783 150.226C583.688 150.229 583.592 150.234 583.497 150.241C583.402 150.248 583.307 150.258 583.212 150.27C583.118 150.283 583.024 150.298 582.93 150.315C582.836 150.332 582.743 150.352 582.651 150.374C582.559 150.397 582.467 150.422 582.377 150.449L514.414 170.805C514.166 170.879 513.914 170.935 513.656 170.972C513.399 171.01 513.14 171.028 512.879 171.028C512.618 171.028 512.359 171.01 512.102 170.972C511.844 170.935 511.592 170.879 511.344 170.805L443.383 150.443C443.292 150.416 443.2 150.392 443.108 150.369C443.016 150.347 442.923 150.327 442.829 150.31C442.736 150.292 442.642 150.278 442.547 150.265C442.452 150.253 442.357 150.243 442.262 150.236C442.167 150.228 442.072 150.223 441.976 150.221C441.881 150.219 441.785 150.219 441.689 150.222C441.594 150.225 441.499 150.23 441.403 150.238C441.308 150.246 441.213 150.256 441.119 150.269C441.024 150.282 440.93 150.297 440.837 150.315C440.744 150.333 440.651 150.353 440.559 150.376C440.466 150.399 440.375 150.424 440.285 150.452C440.194 150.48 440.105 150.51 440.016 150.542C439.928 150.574 439.84 150.609 439.754 150.646C439.668 150.683 439.583 150.723 439.5 150.764C439.416 150.806 439.334 150.849 439.253 150.895C439.172 150.941 439.093 150.989 439.015 151.039C438.938 151.09 438.862 151.142 438.788 151.196C438.714 151.25 438.642 151.306 438.571 151.364C438.501 151.422 438.432 151.482 438.366 151.543C438.3 151.605 438.235 151.668 438.173 151.733C438.111 151.798 438.05 151.865 437.992 151.933C437.935 152.001 437.879 152.071 437.826 152.142C437.772 152.214 437.721 152.286 437.673 152.36C437.625 152.434 437.578 152.509 437.535 152.585C437.491 152.662 437.45 152.739 437.412 152.817C437.373 152.896 437.337 152.975 437.305 153.056C437.271 153.136 437.241 153.217 437.212 153.299C437.185 153.381 437.16 153.464 437.137 153.548C437.115 153.631 437.095 153.715 437.078 153.799C437.061 153.884 437.047 153.968 437.036 154.053C437.025 154.139 437.016 154.224 437.011 154.31C437.005 154.395 437.002 154.481 437.002 154.567L437.001 179.325C437.001 179.438 437.006 179.551 437.016 179.664C437.026 179.777 437.041 179.889 437.06 180.001C437.08 180.113 437.104 180.223 437.133 180.333C437.163 180.444 437.197 180.552 437.235 180.66C437.274 180.768 437.317 180.874 437.365 180.979C437.413 181.083 437.466 181.186 437.523 181.287C437.58 181.388 437.641 181.487 437.706 181.583C437.772 181.68 437.841 181.774 437.915 181.866C437.989 181.958 438.066 182.047 438.148 182.133C438.229 182.22 438.314 182.303 438.403 182.383C438.492 182.464 438.584 182.541 438.679 182.615C438.775 182.689 438.873 182.759 438.975 182.827C439.076 182.894 439.181 182.957 439.288 183.017C439.395 183.076 439.504 183.132 439.616 183.184C439.728 183.237 439.842 183.285 439.959 183.329C440.074 183.373 440.192 183.413 440.312 183.449L511.343 204.729C511.59 204.803 511.843 204.859 512.1 204.897C512.358 204.934 512.617 204.953 512.878 204.953C513.139 204.953 513.398 204.934 513.655 204.897C513.913 204.859 514.165 204.803 514.412 204.729ZM583.371 178.982L512.878 200.096L442.386 178.977L442.387 155.238L509.639 175.387C511.799 176.034 513.959 176.034 516.119 175.387L583.372 155.244L583.371 178.982Z" fill="#E0E5FF"/>
</g>
<g filter="url(#filter1_d_109_8111)">
<path fill-rule="evenodd" clip-rule="evenodd" d="M585.702 238.235L514.67 259.51C514.422 259.584 514.17 259.64 513.913 259.678C513.655 259.715 513.396 259.734 513.135 259.734C512.874 259.734 512.615 259.715 512.358 259.678C512.1 259.64 511.848 259.584 511.6 259.51L440.569 238.229C440.45 238.193 440.332 238.154 440.216 238.109C440.1 238.065 439.986 238.017 439.874 237.965C439.762 237.913 439.652 237.857 439.545 237.797C439.438 237.738 439.334 237.674 439.232 237.607C439.131 237.54 439.032 237.47 438.937 237.396C438.841 237.322 438.749 237.245 438.66 237.164C438.572 237.084 438.487 237 438.405 236.914C438.324 236.828 438.246 236.739 438.172 236.647C438.099 236.555 438.029 236.461 437.964 236.364C437.898 236.267 437.837 236.169 437.78 236.068C437.723 235.967 437.671 235.864 437.623 235.759C437.575 235.655 437.531 235.548 437.493 235.441C437.454 235.333 437.42 235.224 437.391 235.114C437.361 235.004 437.337 234.893 437.318 234.781C437.298 234.67 437.283 234.557 437.274 234.445C437.263 234.332 437.258 234.219 437.258 234.106L437.259 209.348C437.26 209.262 437.263 209.176 437.268 209.09C437.274 209.005 437.282 208.919 437.294 208.834C437.305 208.749 437.319 208.664 437.336 208.58C437.353 208.496 437.372 208.412 437.394 208.328C437.417 208.245 437.442 208.162 437.47 208.08C437.498 207.998 437.528 207.917 437.561 207.836C437.595 207.756 437.631 207.677 437.669 207.598C437.708 207.52 437.749 207.442 437.792 207.366C437.836 207.29 437.882 207.214 437.931 207.141C437.979 207.067 438.03 206.994 438.083 206.923C438.136 206.852 438.192 206.782 438.25 206.714C438.308 206.646 438.368 206.579 438.43 206.514C438.493 206.449 438.557 206.386 438.623 206.324C438.69 206.262 438.758 206.203 438.829 206.145C438.899 206.087 438.971 206.031 439.046 205.976C439.12 205.922 439.196 205.87 439.273 205.82C439.351 205.77 439.43 205.722 439.51 205.676C439.591 205.63 439.673 205.586 439.757 205.545C439.841 205.503 439.925 205.464 440.012 205.427C440.098 205.39 440.185 205.355 440.273 205.323C440.362 205.29 440.452 205.26 440.542 205.233C440.633 205.205 440.724 205.18 440.816 205.157C440.908 205.134 441.001 205.114 441.094 205.096C441.188 205.078 441.282 205.063 441.376 205.05C441.471 205.037 441.566 205.027 441.661 205.019C441.756 205.011 441.851 205.005 441.947 205.002C442.042 205 442.138 205 442.234 205.002C442.329 205.004 442.424 205.009 442.519 205.016C442.615 205.023 442.71 205.033 442.804 205.046C442.899 205.058 442.993 205.073 443.087 205.09C443.181 205.108 443.273 205.128 443.365 205.15C443.458 205.172 443.549 205.197 443.64 205.224L511.602 225.585C511.849 225.659 512.102 225.715 512.359 225.753C512.617 225.79 512.876 225.809 513.136 225.809C513.397 225.809 513.656 225.79 513.914 225.753C514.171 225.715 514.424 225.66 514.671 225.585L582.634 205.229C582.725 205.202 582.816 205.178 582.909 205.155C583.001 205.133 583.094 205.113 583.187 205.096C583.281 205.078 583.375 205.064 583.47 205.051C583.564 205.039 583.659 205.029 583.754 205.021C583.85 205.014 583.945 205.009 584.041 205.007C584.136 205.005 584.232 205.005 584.327 205.008C584.423 205.011 584.518 205.016 584.613 205.024C584.708 205.032 584.803 205.042 584.898 205.055C584.992 205.068 585.086 205.083 585.18 205.101C585.273 205.119 585.366 205.14 585.458 205.162C585.55 205.185 585.642 205.21 585.732 205.238C585.822 205.266 585.912 205.296 586 205.328C586.089 205.361 586.176 205.395 586.262 205.433C586.349 205.469 586.434 205.509 586.517 205.55C586.601 205.592 586.683 205.636 586.764 205.682C586.844 205.728 586.923 205.776 587.001 205.826C587.079 205.876 587.154 205.928 587.229 205.982C587.303 206.036 587.375 206.092 587.445 206.15C587.516 206.208 587.584 206.268 587.651 206.33C587.717 206.391 587.782 206.455 587.844 206.52C587.906 206.585 587.966 206.651 588.024 206.719C588.082 206.788 588.138 206.857 588.191 206.928C588.244 207 588.295 207.073 588.344 207.146C588.392 207.22 588.438 207.295 588.482 207.372C588.525 207.448 588.566 207.525 588.605 207.604C588.643 207.682 588.679 207.762 588.712 207.842C588.745 207.922 588.776 208.004 588.804 208.086C588.832 208.168 588.857 208.25 588.879 208.334C588.902 208.417 588.921 208.501 588.938 208.586C588.955 208.67 588.969 208.755 588.98 208.84C588.992 208.925 589 209.01 589.006 209.096C589.011 209.182 589.014 209.267 589.014 209.353L589.013 234.111C589.013 234.225 589.008 234.338 588.999 234.45C588.989 234.563 588.974 234.675 588.954 234.787C588.935 234.899 588.91 235.01 588.881 235.12C588.852 235.23 588.818 235.339 588.779 235.446C588.74 235.554 588.697 235.66 588.649 235.765C588.601 235.869 588.549 235.972 588.492 236.073C588.435 236.174 588.374 236.273 588.308 236.37C588.243 236.466 588.173 236.561 588.099 236.652C588.026 236.744 587.948 236.833 587.867 236.92C587.785 237.006 587.7 237.089 587.611 237.17C587.523 237.25 587.43 237.327 587.335 237.401C587.24 237.475 587.141 237.546 587.04 237.613C586.938 237.68 586.834 237.743 586.727 237.803C586.619 237.863 586.51 237.919 586.398 237.971C586.286 238.023 586.172 238.071 586.056 238.115C585.94 238.159 585.822 238.199 585.702 238.235Z" fill="#EDEFFF"/>
<path fill-rule="evenodd" clip-rule="evenodd" d="M514.425 259.73L585.457 238.454C585.577 238.418 585.695 238.379 585.811 238.334C585.927 238.29 586.041 238.242 586.153 238.19C586.265 238.138 586.374 238.082 586.481 238.022C586.589 237.963 586.693 237.899 586.794 237.832C586.896 237.765 586.995 237.695 587.09 237.621C587.185 237.547 587.277 237.47 587.366 237.389C587.455 237.309 587.54 237.226 587.621 237.139C587.703 237.053 587.781 236.964 587.854 236.872C587.928 236.78 587.998 236.686 588.063 236.589C588.129 236.493 588.19 236.394 588.247 236.293C588.304 236.192 588.356 236.089 588.404 235.984C588.452 235.88 588.495 235.774 588.534 235.666C588.573 235.558 588.607 235.449 588.636 235.339C588.665 235.229 588.69 235.118 588.709 235.007C588.729 234.895 588.744 234.783 588.754 234.67C588.763 234.557 588.768 234.444 588.768 234.331L588.769 209.573C588.769 209.487 588.766 209.401 588.761 209.316C588.755 209.23 588.747 209.145 588.735 209.059C588.724 208.974 588.71 208.889 588.693 208.805C588.676 208.721 588.657 208.637 588.634 208.553C588.612 208.47 588.587 208.387 588.559 208.305C588.531 208.223 588.5 208.142 588.467 208.062C588.434 207.981 588.398 207.902 588.36 207.823C588.321 207.745 588.28 207.667 588.237 207.591C588.193 207.515 588.147 207.44 588.099 207.366C588.05 207.292 587.999 207.219 587.946 207.148C587.893 207.077 587.837 207.007 587.779 206.939C587.721 206.871 587.661 206.804 587.599 206.739C587.536 206.674 587.472 206.611 587.406 206.549C587.339 206.488 587.271 206.428 587.2 206.37C587.13 206.312 587.058 206.256 586.983 206.202C586.909 206.147 586.834 206.095 586.756 206.045C586.678 205.995 586.599 205.947 586.519 205.901C586.438 205.855 586.356 205.811 586.272 205.77C586.188 205.728 586.104 205.689 586.017 205.652C585.931 205.615 585.844 205.58 585.755 205.548C585.667 205.515 585.577 205.485 585.487 205.458C585.396 205.43 585.305 205.405 585.213 205.382C585.121 205.359 585.028 205.339 584.935 205.321C584.841 205.303 584.747 205.288 584.653 205.275C584.558 205.262 584.463 205.251 584.368 205.244C584.273 205.236 584.178 205.23 584.082 205.228C583.987 205.225 583.891 205.224 583.796 205.227C583.7 205.229 583.605 205.234 583.509 205.241C583.414 205.248 583.319 205.258 583.225 205.271C583.13 205.283 583.036 205.298 582.942 205.315C582.849 205.333 582.756 205.352 582.664 205.375C582.571 205.397 582.48 205.422 582.389 205.449L514.426 225.805C514.179 225.879 513.926 225.935 513.669 225.972C513.411 226.01 513.152 226.029 512.891 226.029C512.631 226.029 512.371 226.01 512.114 225.972C511.856 225.935 511.604 225.879 511.357 225.805L443.395 205.444C443.304 205.417 443.213 205.392 443.12 205.37C443.028 205.347 442.935 205.327 442.842 205.31C442.748 205.293 442.654 205.278 442.559 205.265C442.465 205.253 442.37 205.243 442.274 205.236C442.179 205.228 442.084 205.224 441.989 205.221C441.893 205.219 441.797 205.219 441.702 205.222C441.606 205.225 441.511 205.23 441.416 205.238C441.32 205.246 441.226 205.256 441.131 205.269C441.037 205.282 440.943 205.298 440.849 205.315C440.756 205.333 440.663 205.354 440.571 205.377C440.479 205.399 440.388 205.425 440.297 205.452C440.206 205.48 440.117 205.51 440.028 205.542C439.94 205.575 439.853 205.609 439.767 205.647C439.68 205.684 439.596 205.723 439.512 205.764C439.428 205.806 439.346 205.85 439.265 205.896C439.185 205.942 439.105 205.99 439.028 206.04C438.95 206.09 438.875 206.142 438.801 206.196C438.726 206.25 438.654 206.306 438.584 206.364C438.513 206.422 438.445 206.482 438.378 206.544C438.312 206.605 438.248 206.669 438.185 206.734C438.123 206.799 438.063 206.865 438.005 206.933C437.947 207.002 437.891 207.071 437.838 207.143C437.785 207.214 437.734 207.286 437.685 207.36C437.637 207.434 437.591 207.509 437.547 207.585C437.504 207.662 437.463 207.739 437.424 207.818C437.386 207.896 437.35 207.976 437.317 208.056C437.284 208.136 437.253 208.218 437.225 208.3C437.197 208.382 437.172 208.464 437.149 208.548C437.127 208.631 437.108 208.715 437.091 208.799C437.074 208.884 437.06 208.969 437.049 209.054C437.037 209.139 437.029 209.224 437.023 209.31C437.018 209.395 437.015 209.481 437.014 209.567L437.013 234.325C437.013 234.438 437.018 234.551 437.028 234.664C437.038 234.777 437.053 234.889 437.073 235.001C437.092 235.113 437.116 235.224 437.145 235.334C437.175 235.444 437.209 235.553 437.248 235.66C437.286 235.768 437.33 235.874 437.377 235.979C437.425 236.083 437.478 236.186 437.535 236.287C437.592 236.388 437.653 236.487 437.719 236.584C437.784 236.68 437.854 236.775 437.927 236.866C438.001 236.958 438.079 237.047 438.16 237.134C438.242 237.22 438.327 237.303 438.415 237.384C438.504 237.464 438.596 237.541 438.692 237.615C438.787 237.689 438.885 237.76 438.987 237.827C439.088 237.894 439.193 237.957 439.3 238.017C439.407 238.077 439.517 238.133 439.629 238.185C439.741 238.237 439.855 238.285 439.971 238.329C440.087 238.373 440.205 238.413 440.324 238.449L511.355 259.73C511.603 259.804 511.855 259.859 512.113 259.897C512.37 259.935 512.629 259.954 512.89 259.954C513.151 259.954 513.41 259.935 513.667 259.897C513.925 259.859 514.177 259.804 514.425 259.73ZM583.383 233.982L512.89 255.096L442.398 233.977L442.399 210.239L509.651 230.387C511.811 231.034 513.971 231.034 516.131 230.387L583.384 210.244L583.383 233.982Z" fill="#E0E5FF"/>
</g>
<g filter="url(#filter2_d_109_8111)">
<path fill-rule="evenodd" clip-rule="evenodd" d="M585.7 293.234L514.668 314.51C514.42 314.584 514.168 314.64 513.91 314.677C513.653 314.715 513.394 314.734 513.133 314.734C512.872 314.734 512.613 314.715 512.356 314.677C512.098 314.64 511.846 314.584 511.598 314.51L440.567 293.229C440.447 293.193 440.33 293.153 440.214 293.109C440.098 293.065 439.984 293.017 439.872 292.965C439.76 292.913 439.65 292.857 439.543 292.797C439.436 292.737 439.331 292.674 439.23 292.607C439.128 292.54 439.03 292.469 438.935 292.395C438.839 292.321 438.747 292.244 438.658 292.164C438.57 292.084 438.485 292 438.403 291.914C438.321 291.827 438.244 291.738 438.17 291.646C438.097 291.555 438.027 291.46 437.962 291.364C437.896 291.267 437.835 291.168 437.778 291.067C437.721 290.966 437.668 290.864 437.62 290.759C437.572 290.654 437.529 290.548 437.491 290.441C437.452 290.333 437.418 290.224 437.388 290.114C437.359 290.004 437.335 289.893 437.315 289.781C437.296 289.669 437.281 289.557 437.271 289.444C437.261 289.332 437.256 289.219 437.256 289.105L437.257 264.347C437.257 264.262 437.26 264.176 437.266 264.09C437.271 264.004 437.28 263.919 437.291 263.834C437.302 263.749 437.317 263.664 437.334 263.58C437.35 263.495 437.37 263.411 437.392 263.328C437.415 263.245 437.44 263.162 437.468 263.08C437.496 262.998 437.526 262.917 437.559 262.836C437.592 262.756 437.628 262.677 437.667 262.598C437.705 262.52 437.746 262.442 437.79 262.366C437.834 262.289 437.88 262.214 437.928 262.14C437.977 262.067 438.028 261.994 438.081 261.923C438.134 261.851 438.19 261.782 438.248 261.714C438.306 261.645 438.366 261.579 438.428 261.514C438.491 261.449 438.555 261.386 438.621 261.324C438.688 261.262 438.756 261.202 438.827 261.144C438.897 261.086 438.969 261.03 439.044 260.976C439.118 260.922 439.193 260.87 439.271 260.82C439.348 260.77 439.427 260.722 439.508 260.676C439.589 260.63 439.671 260.586 439.755 260.545C439.838 260.503 439.923 260.464 440.009 260.427C440.096 260.39 440.183 260.355 440.271 260.322C440.36 260.29 440.449 260.26 440.54 260.232C440.63 260.205 440.722 260.18 440.814 260.157C440.906 260.134 440.999 260.114 441.092 260.096C441.186 260.078 441.28 260.063 441.374 260.05C441.469 260.037 441.563 260.026 441.659 260.018C441.754 260.011 441.849 260.005 441.945 260.002C442.04 260 442.136 259.999 442.231 260.002C442.327 260.004 442.422 260.009 442.517 260.016C442.613 260.023 442.708 260.033 442.802 260.046C442.897 260.058 442.991 260.073 443.085 260.09C443.178 260.108 443.271 260.128 443.363 260.15C443.456 260.172 443.547 260.197 443.638 260.224L511.6 280.585C511.847 280.659 512.099 280.715 512.357 280.753C512.614 280.79 512.873 280.809 513.134 280.809C513.395 280.809 513.654 280.79 513.912 280.753C514.169 280.715 514.422 280.659 514.669 280.585L582.632 260.229C582.723 260.202 582.814 260.177 582.906 260.155C582.999 260.133 583.092 260.113 583.185 260.095C583.279 260.078 583.373 260.063 583.467 260.051C583.562 260.038 583.657 260.028 583.752 260.021C583.847 260.014 583.943 260.009 584.038 260.007C584.134 260.005 584.229 260.005 584.325 260.008C584.421 260.01 584.516 260.016 584.611 260.024C584.706 260.032 584.801 260.042 584.896 260.055C584.99 260.068 585.084 260.083 585.177 260.101C585.271 260.119 585.364 260.139 585.456 260.162C585.548 260.185 585.639 260.21 585.73 260.238C585.82 260.266 585.91 260.296 585.998 260.328C586.087 260.36 586.174 260.395 586.26 260.432C586.346 260.469 586.431 260.508 586.515 260.55C586.599 260.592 586.681 260.635 586.761 260.681C586.842 260.727 586.921 260.775 586.999 260.825C587.076 260.875 587.152 260.928 587.226 260.982C587.3 261.036 587.373 261.092 587.443 261.15C587.514 261.208 587.582 261.268 587.648 261.33C587.715 261.391 587.779 261.454 587.842 261.519C587.904 261.584 587.964 261.651 588.022 261.719C588.08 261.787 588.135 261.857 588.189 261.928C588.242 262 588.293 262.072 588.341 262.146C588.39 262.22 588.436 262.295 588.48 262.371C588.523 262.448 588.564 262.525 588.603 262.604C588.641 262.682 588.677 262.762 588.71 262.842C588.743 262.922 588.774 263.003 588.802 263.085C588.83 263.167 588.855 263.25 588.877 263.334C588.899 263.417 588.919 263.501 588.936 263.585C588.953 263.67 588.967 263.754 588.978 263.84C588.989 263.925 588.998 264.01 589.004 264.096C589.009 264.181 589.012 264.267 589.012 264.353L589.011 289.111C589.011 289.224 589.006 289.337 588.996 289.45C588.987 289.563 588.972 289.675 588.952 289.787C588.933 289.899 588.908 290.01 588.879 290.12C588.85 290.23 588.816 290.339 588.777 290.446C588.738 290.554 588.695 290.66 588.647 290.765C588.599 290.869 588.546 290.972 588.49 291.073C588.433 291.174 588.371 291.273 588.306 291.369C588.24 291.466 588.171 291.56 588.097 291.652C588.023 291.744 587.946 291.833 587.864 291.919C587.783 292.006 587.698 292.089 587.609 292.169C587.52 292.25 587.428 292.327 587.333 292.401C587.237 292.475 587.139 292.545 587.037 292.612C586.936 292.68 586.831 292.743 586.724 292.803C586.617 292.862 586.508 292.918 586.396 292.97C586.284 293.022 586.17 293.071 586.054 293.115C585.938 293.159 585.82 293.199 585.7 293.234Z" fill="#EDEFFF"/>
<path fill-rule="evenodd" clip-rule="evenodd" d="M514.423 314.729L585.455 293.454C585.575 293.418 585.692 293.378 585.809 293.334C585.925 293.29 586.039 293.242 586.151 293.19C586.263 293.138 586.372 293.082 586.479 293.022C586.586 292.963 586.691 292.899 586.792 292.832C586.894 292.765 586.992 292.694 587.088 292.621C587.183 292.547 587.275 292.469 587.364 292.389C587.453 292.309 587.538 292.225 587.619 292.139C587.701 292.053 587.778 291.963 587.852 291.872C587.926 291.78 587.995 291.686 588.061 291.589C588.126 291.492 588.188 291.393 588.245 291.293C588.301 291.192 588.354 291.089 588.402 290.984C588.45 290.88 588.493 290.773 588.532 290.666C588.571 290.558 588.605 290.449 588.634 290.339C588.663 290.229 588.688 290.118 588.707 290.006C588.727 289.895 588.741 289.782 588.751 289.67C588.761 289.557 588.766 289.444 588.766 289.331L588.767 264.572C588.767 264.487 588.764 264.401 588.759 264.315C588.753 264.23 588.744 264.144 588.733 264.059C588.722 263.974 588.708 263.889 588.691 263.805C588.674 263.72 588.654 263.637 588.632 263.553C588.61 263.47 588.584 263.387 588.557 263.305C588.529 263.223 588.498 263.142 588.465 263.061C588.432 262.981 588.396 262.902 588.357 262.823C588.319 262.745 588.278 262.667 588.234 262.591C588.191 262.515 588.145 262.439 588.096 262.366C588.048 262.292 587.997 262.219 587.944 262.148C587.89 262.077 587.835 262.007 587.777 261.939C587.719 261.871 587.659 261.804 587.597 261.739C587.534 261.674 587.47 261.611 587.403 261.549C587.337 261.487 587.268 261.428 587.198 261.37C587.128 261.312 587.055 261.256 586.981 261.201C586.907 261.147 586.831 261.095 586.754 261.045C586.676 260.995 586.597 260.947 586.516 260.901C586.436 260.855 586.354 260.811 586.27 260.77C586.186 260.728 586.101 260.689 586.015 260.652C585.929 260.615 585.842 260.58 585.753 260.548C585.665 260.515 585.575 260.485 585.485 260.457C585.394 260.43 585.303 260.405 585.211 260.382C585.119 260.359 585.026 260.339 584.932 260.321C584.839 260.303 584.745 260.287 584.65 260.274C584.556 260.262 584.461 260.251 584.366 260.243C584.271 260.235 584.175 260.23 584.08 260.227C583.984 260.224 583.889 260.224 583.793 260.226C583.698 260.229 583.602 260.234 583.507 260.241C583.412 260.248 583.317 260.258 583.222 260.27C583.128 260.283 583.034 260.298 582.94 260.315C582.847 260.332 582.754 260.352 582.661 260.374C582.569 260.397 582.478 260.422 582.387 260.449L514.424 280.805C514.176 280.879 513.924 280.935 513.667 280.972C513.409 281.01 513.15 281.028 512.889 281.028C512.628 281.028 512.369 281.01 512.112 280.972C511.854 280.935 511.602 280.879 511.354 280.805L443.393 260.443C443.302 260.416 443.21 260.392 443.118 260.369C443.026 260.347 442.933 260.327 442.84 260.31C442.746 260.292 442.652 260.278 442.557 260.265C442.462 260.253 442.368 260.243 442.272 260.236C442.177 260.228 442.082 260.223 441.986 260.221C441.891 260.219 441.795 260.219 441.699 260.222C441.604 260.225 441.509 260.23 441.414 260.238C441.318 260.246 441.223 260.256 441.129 260.269C441.035 260.282 440.941 260.297 440.847 260.315C440.754 260.333 440.661 260.353 440.569 260.376C440.477 260.399 440.385 260.424 440.295 260.452C440.204 260.48 440.115 260.51 440.026 260.542C439.938 260.574 439.85 260.609 439.764 260.646C439.678 260.683 439.593 260.723 439.51 260.764C439.426 260.806 439.344 260.849 439.263 260.895C439.182 260.941 439.103 260.989 439.026 261.039C438.948 261.09 438.873 261.142 438.798 261.196C438.724 261.25 438.652 261.306 438.582 261.364C438.511 261.422 438.443 261.482 438.376 261.543C438.31 261.605 438.245 261.668 438.183 261.733C438.121 261.798 438.061 261.865 438.002 261.933C437.945 262.001 437.889 262.071 437.836 262.142C437.783 262.214 437.732 262.286 437.683 262.36C437.635 262.434 437.588 262.509 437.545 262.585C437.501 262.662 437.46 262.739 437.422 262.817C437.383 262.896 437.348 262.975 437.315 263.056C437.281 263.136 437.251 263.217 437.223 263.299C437.195 263.381 437.17 263.464 437.147 263.548C437.125 263.631 437.105 263.715 437.088 263.799C437.071 263.884 437.057 263.968 437.046 264.053C437.035 264.139 437.026 264.224 437.021 264.31C437.015 264.395 437.012 264.481 437.012 264.567L437.011 289.325C437.011 289.438 437.016 289.551 437.026 289.664C437.036 289.777 437.051 289.889 437.07 290.001C437.09 290.113 437.114 290.223 437.143 290.333C437.173 290.444 437.207 290.552 437.246 290.66C437.284 290.768 437.327 290.874 437.375 290.979C437.423 291.083 437.476 291.186 437.533 291.287C437.59 291.388 437.651 291.487 437.716 291.583C437.782 291.68 437.852 291.774 437.925 291.866C437.999 291.958 438.076 292.047 438.158 292.133C438.24 292.22 438.325 292.303 438.413 292.383C438.502 292.464 438.594 292.541 438.69 292.615C438.785 292.689 438.883 292.759 438.985 292.827C439.086 292.894 439.191 292.957 439.298 293.017C439.405 293.076 439.515 293.132 439.627 293.184C439.738 293.237 439.853 293.285 439.969 293.329C440.085 293.373 440.202 293.413 440.322 293.449L511.353 314.729C511.601 314.803 511.853 314.859 512.111 314.897C512.368 314.934 512.627 314.953 512.888 314.953C513.149 314.953 513.408 314.934 513.665 314.897C513.923 314.859 514.175 314.803 514.423 314.729ZM583.381 288.982L512.888 310.096L442.396 288.977L442.397 265.238L509.649 285.387C511.809 286.034 513.969 286.034 516.129 285.387L583.382 265.244L583.381 288.982Z" fill="#E0E5FF"/>
</g>
<g filter="url(#filter3_d_109_8111)">
<path fill-rule="evenodd" clip-rule="evenodd" d="M585.698 348.235L514.666 369.51C514.418 369.584 514.166 369.64 513.908 369.678C513.651 369.715 513.392 369.734 513.131 369.734C512.87 369.734 512.611 369.715 512.354 369.678C512.096 369.64 511.844 369.584 511.596 369.51L440.565 348.229C440.445 348.193 440.328 348.154 440.212 348.109C440.096 348.065 439.982 348.017 439.87 347.965C439.758 347.913 439.648 347.857 439.541 347.797C439.434 347.738 439.329 347.674 439.228 347.607C439.126 347.54 439.028 347.47 438.933 347.396C438.837 347.322 438.745 347.245 438.656 347.164C438.568 347.084 438.483 347 438.401 346.914C438.32 346.828 438.242 346.739 438.168 346.647C438.095 346.555 438.025 346.461 437.96 346.364C437.894 346.267 437.833 346.169 437.776 346.068C437.719 345.967 437.666 345.864 437.618 345.759C437.57 345.655 437.527 345.548 437.489 345.441C437.45 345.333 437.416 345.224 437.386 345.114C437.357 345.004 437.333 344.893 437.313 344.781C437.294 344.67 437.279 344.557 437.269 344.445C437.259 344.332 437.254 344.219 437.254 344.106L437.255 319.348C437.255 319.262 437.258 319.176 437.264 319.09C437.27 319.005 437.278 318.919 437.289 318.834C437.301 318.749 437.315 318.664 437.332 318.58C437.349 318.496 437.368 318.412 437.39 318.328C437.413 318.245 437.438 318.162 437.466 318.08C437.494 317.998 437.524 317.917 437.557 317.836C437.591 317.756 437.626 317.677 437.665 317.598C437.703 317.52 437.744 317.442 437.788 317.366C437.832 317.29 437.878 317.214 437.926 317.141C437.975 317.067 438.026 316.994 438.079 316.923C438.132 316.852 438.188 316.782 438.246 316.714C438.304 316.646 438.364 316.579 438.426 316.514C438.489 316.449 438.553 316.386 438.619 316.324C438.686 316.262 438.754 316.203 438.825 316.145C438.895 316.087 438.967 316.031 439.042 315.976C439.116 315.922 439.191 315.87 439.269 315.82C439.346 315.77 439.426 315.722 439.506 315.676C439.587 315.63 439.669 315.586 439.753 315.545C439.836 315.503 439.921 315.464 440.007 315.427C440.094 315.39 440.181 315.355 440.269 315.323C440.358 315.29 440.447 315.26 440.538 315.233C440.628 315.205 440.72 315.18 440.812 315.157C440.904 315.134 440.997 315.114 441.09 315.096C441.184 315.078 441.278 315.063 441.372 315.05C441.467 315.037 441.561 315.027 441.657 315.019C441.752 315.011 441.847 315.005 441.943 315.002C442.038 315 442.134 315 442.229 315.002C442.325 315.004 442.42 315.009 442.515 315.016C442.611 315.023 442.706 315.033 442.8 315.046C442.895 315.058 442.989 315.073 443.083 315.09C443.176 315.108 443.269 315.128 443.361 315.15C443.454 315.172 443.545 315.197 443.636 315.224L511.598 335.585C511.845 335.659 512.097 335.715 512.355 335.753C512.612 335.79 512.871 335.809 513.132 335.809C513.393 335.809 513.652 335.79 513.91 335.753C514.167 335.715 514.42 335.66 514.667 335.585L582.63 315.229C582.721 315.202 582.812 315.178 582.904 315.155C582.997 315.133 583.09 315.113 583.183 315.096C583.277 315.078 583.371 315.064 583.466 315.051C583.56 315.039 583.655 315.029 583.75 315.021C583.845 315.014 583.941 315.009 584.036 315.007C584.132 315.005 584.228 315.005 584.323 315.008C584.419 315.011 584.514 315.016 584.609 315.024C584.704 315.032 584.799 315.042 584.894 315.055C584.988 315.068 585.082 315.083 585.176 315.101C585.269 315.119 585.362 315.14 585.454 315.162C585.546 315.185 585.637 315.21 585.728 315.238C585.818 315.266 585.908 315.296 585.996 315.328C586.085 315.361 586.172 315.395 586.258 315.433C586.345 315.469 586.429 315.509 586.513 315.55C586.597 315.592 586.679 315.636 586.759 315.682C586.84 315.728 586.919 315.776 586.997 315.826C587.074 315.876 587.15 315.928 587.224 315.982C587.299 316.036 587.371 316.092 587.441 316.15C587.512 316.208 587.58 316.268 587.647 316.33C587.713 316.391 587.777 316.455 587.84 316.52C587.902 316.585 587.962 316.651 588.02 316.719C588.078 316.788 588.133 316.857 588.187 316.928C588.24 317 588.291 317.073 588.339 317.146C588.388 317.22 588.434 317.295 588.478 317.372C588.521 317.448 588.562 317.525 588.601 317.604C588.639 317.682 588.675 317.762 588.708 317.842C588.741 317.922 588.772 318.004 588.8 318.086C588.828 318.168 588.853 318.25 588.875 318.334C588.898 318.417 588.917 318.501 588.934 318.586C588.951 318.67 588.965 318.755 588.976 318.84C588.988 318.925 588.996 319.01 589.002 319.096C589.007 319.182 589.01 319.267 589.01 319.353L589.009 344.111C589.009 344.225 589.004 344.338 588.994 344.45C588.985 344.563 588.97 344.675 588.95 344.787C588.931 344.899 588.906 345.01 588.877 345.12C588.848 345.23 588.814 345.339 588.775 345.446C588.736 345.554 588.693 345.66 588.645 345.765C588.597 345.869 588.545 345.972 588.488 346.073C588.431 346.174 588.369 346.273 588.304 346.37C588.238 346.466 588.169 346.561 588.095 346.652C588.021 346.744 587.944 346.833 587.862 346.92C587.781 347.006 587.696 347.089 587.607 347.17C587.518 347.25 587.426 347.327 587.331 347.401C587.235 347.475 587.137 347.546 587.035 347.613C586.934 347.68 586.829 347.743 586.722 347.803C586.615 347.863 586.506 347.919 586.394 347.971C586.282 348.023 586.168 348.071 586.052 348.115C585.936 348.159 585.818 348.199 585.698 348.235Z" fill="#EDEFFF"/>
<path fill-rule="evenodd" clip-rule="evenodd" d="M514.421 369.73L585.453 348.454C585.573 348.418 585.691 348.379 585.807 348.334C585.923 348.29 586.037 348.242 586.149 348.19C586.261 348.138 586.37 348.082 586.477 348.022C586.584 347.963 586.689 347.899 586.79 347.832C586.892 347.765 586.99 347.695 587.086 347.621C587.181 347.547 587.273 347.47 587.362 347.389C587.451 347.309 587.536 347.226 587.617 347.139C587.699 347.053 587.776 346.964 587.85 346.872C587.924 346.78 587.993 346.686 588.059 346.589C588.124 346.493 588.186 346.394 588.243 346.293C588.299 346.192 588.352 346.089 588.4 345.984C588.448 345.88 588.491 345.774 588.53 345.666C588.569 345.558 588.603 345.449 588.632 345.339C588.661 345.229 588.686 345.118 588.705 345.007C588.725 344.895 588.74 344.783 588.749 344.67C588.759 344.557 588.764 344.444 588.764 344.331L588.765 319.573C588.765 319.487 588.762 319.401 588.757 319.316C588.751 319.23 588.742 319.145 588.731 319.059C588.72 318.974 588.706 318.889 588.689 318.805C588.672 318.721 588.652 318.637 588.63 318.553C588.608 318.47 588.583 318.387 588.555 318.305C588.527 318.223 588.496 318.142 588.463 318.062C588.43 317.981 588.394 317.902 588.356 317.823C588.317 317.745 588.276 317.667 588.233 317.591C588.189 317.515 588.143 317.44 588.094 317.366C588.046 317.292 587.995 317.219 587.942 317.148C587.888 317.077 587.833 317.007 587.775 316.939C587.717 316.871 587.657 316.804 587.595 316.739C587.532 316.674 587.468 316.611 587.401 316.549C587.335 316.488 587.267 316.428 587.196 316.37C587.126 316.312 587.053 316.256 586.979 316.202C586.905 316.147 586.829 316.095 586.752 316.045C586.674 315.995 586.595 315.947 586.514 315.901C586.434 315.855 586.352 315.811 586.268 315.77C586.184 315.728 586.099 315.689 586.013 315.652C585.927 315.615 585.84 315.58 585.751 315.548C585.663 315.515 585.573 315.485 585.483 315.458C585.392 315.43 585.301 315.405 585.209 315.382C585.117 315.359 585.024 315.339 584.93 315.321C584.837 315.303 584.743 315.288 584.649 315.275C584.554 315.262 584.459 315.251 584.364 315.244C584.269 315.236 584.174 315.23 584.078 315.228C583.982 315.225 583.887 315.224 583.791 315.227C583.696 315.229 583.6 315.234 583.505 315.241C583.41 315.248 583.315 315.258 583.22 315.271C583.126 315.283 583.032 315.298 582.938 315.315C582.845 315.333 582.752 315.352 582.659 315.375C582.567 315.397 582.476 315.422 582.385 315.449L514.422 335.805C514.175 335.879 513.922 335.935 513.665 335.972C513.407 336.01 513.148 336.029 512.887 336.029C512.626 336.029 512.367 336.01 512.11 335.972C511.852 335.935 511.6 335.879 511.353 335.805L443.391 315.444C443.3 315.417 443.209 315.392 443.116 315.37C443.024 315.347 442.931 315.327 442.838 315.31C442.744 315.293 442.65 315.278 442.555 315.265C442.461 315.253 442.366 315.243 442.27 315.236C442.175 315.228 442.08 315.224 441.984 315.221C441.889 315.219 441.793 315.219 441.698 315.222C441.602 315.225 441.507 315.23 441.412 315.238C441.316 315.246 441.222 315.256 441.127 315.269C441.033 315.282 440.939 315.298 440.845 315.315C440.752 315.333 440.659 315.354 440.567 315.377C440.475 315.399 440.383 315.425 440.293 315.452C440.202 315.48 440.113 315.51 440.024 315.542C439.936 315.575 439.849 315.609 439.762 315.647C439.676 315.684 439.591 315.723 439.508 315.764C439.424 315.806 439.342 315.85 439.261 315.896C439.18 315.942 439.101 315.99 439.024 316.04C438.946 316.09 438.871 316.142 438.797 316.196C438.722 316.25 438.65 316.306 438.58 316.364C438.509 316.422 438.441 316.482 438.374 316.544C438.308 316.605 438.243 316.669 438.181 316.734C438.119 316.799 438.059 316.865 438.001 316.933C437.943 317.002 437.887 317.071 437.834 317.143C437.781 317.214 437.73 317.286 437.681 317.36C437.633 317.434 437.587 317.509 437.543 317.585C437.499 317.662 437.458 317.739 437.42 317.818C437.381 317.896 437.346 317.976 437.313 318.056C437.279 318.136 437.249 318.218 437.221 318.3C437.193 318.382 437.168 318.464 437.145 318.548C437.123 318.631 437.103 318.715 437.086 318.799C437.07 318.884 437.055 318.969 437.044 319.054C437.033 319.139 437.024 319.224 437.019 319.31C437.013 319.395 437.01 319.481 437.01 319.567L437.009 344.325C437.009 344.438 437.014 344.551 437.024 344.664C437.034 344.777 437.049 344.889 437.068 345.001C437.088 345.113 437.112 345.224 437.141 345.334C437.171 345.444 437.205 345.553 437.244 345.66C437.282 345.768 437.325 345.874 437.373 345.979C437.421 346.083 437.474 346.186 437.531 346.287C437.588 346.388 437.649 346.487 437.715 346.584C437.78 346.68 437.85 346.775 437.923 346.866C437.997 346.958 438.074 347.047 438.156 347.134C438.238 347.22 438.323 347.303 438.411 347.384C438.5 347.464 438.592 347.541 438.688 347.615C438.783 347.689 438.881 347.76 438.983 347.827C439.084 347.894 439.189 347.957 439.296 348.017C439.403 348.077 439.513 348.133 439.625 348.185C439.737 348.237 439.851 348.285 439.967 348.329C440.083 348.373 440.2 348.413 440.32 348.449L511.351 369.73C511.599 369.804 511.851 369.859 512.109 369.897C512.366 369.935 512.625 369.954 512.886 369.954C513.147 369.954 513.406 369.935 513.663 369.897C513.921 369.859 514.173 369.804 514.421 369.73ZM583.379 343.982L512.886 365.096L442.394 343.977L442.395 320.239L509.647 340.387C511.807 341.034 513.967 341.034 516.127 340.387L583.38 320.244L583.379 343.982Z" fill="#E0E5FF"/>
</g>
<g filter="url(#filter4_d_109_8111)">
<path fill-rule="evenodd" clip-rule="evenodd" d="M585.696 403.235L514.664 424.51C514.416 424.584 514.164 424.64 513.906 424.678C513.649 424.715 513.39 424.734 513.129 424.734C512.868 424.734 512.609 424.715 512.352 424.678C512.094 424.64 511.842 424.584 511.594 424.51L440.563 403.229C440.443 403.193 440.326 403.154 440.21 403.109C440.094 403.065 439.98 403.017 439.868 402.965C439.756 402.913 439.646 402.857 439.539 402.797C439.432 402.738 439.327 402.674 439.226 402.607C439.124 402.54 439.026 402.47 438.931 402.396C438.835 402.322 438.743 402.245 438.654 402.164C438.566 402.084 438.481 402 438.399 401.914C438.317 401.828 438.24 401.739 438.166 401.647C438.093 401.555 438.023 401.461 437.957 401.364C437.892 401.267 437.831 401.169 437.774 401.068C437.717 400.967 437.664 400.864 437.616 400.759C437.568 400.655 437.525 400.548 437.487 400.441C437.448 400.333 437.414 400.224 437.384 400.114C437.355 400.004 437.331 399.893 437.311 399.781C437.292 399.67 437.277 399.557 437.267 399.445C437.257 399.332 437.252 399.219 437.252 399.106L437.253 374.348C437.253 374.262 437.256 374.176 437.262 374.09C437.267 374.005 437.276 373.919 437.287 373.834C437.298 373.749 437.313 373.664 437.329 373.58C437.346 373.496 437.366 373.412 437.388 373.328C437.411 373.245 437.436 373.162 437.464 373.08C437.492 372.998 437.522 372.917 437.555 372.836C437.588 372.756 437.624 372.677 437.663 372.598C437.701 372.52 437.742 372.442 437.786 372.366C437.83 372.29 437.876 372.214 437.924 372.141C437.973 372.067 438.024 371.994 438.077 371.923C438.13 371.852 438.186 371.782 438.244 371.714C438.302 371.646 438.362 371.579 438.424 371.514C438.486 371.449 438.551 371.386 438.617 371.324C438.684 371.262 438.752 371.203 438.823 371.145C438.893 371.087 438.965 371.031 439.04 370.976C439.114 370.922 439.189 370.87 439.267 370.82C439.344 370.77 439.423 370.722 439.504 370.676C439.585 370.63 439.667 370.586 439.751 370.545C439.834 370.503 439.919 370.464 440.005 370.427C440.092 370.39 440.179 370.355 440.267 370.323C440.356 370.29 440.445 370.26 440.536 370.233C440.626 370.205 440.718 370.18 440.81 370.157C440.902 370.134 440.995 370.114 441.088 370.096C441.182 370.078 441.276 370.063 441.37 370.05C441.465 370.037 441.559 370.027 441.655 370.019C441.75 370.011 441.845 370.005 441.94 370.002C442.036 370 442.132 370 442.227 370.002C442.323 370.004 442.418 370.009 442.513 370.016C442.609 370.023 442.704 370.033 442.798 370.046C442.893 370.058 442.987 370.073 443.081 370.09C443.174 370.108 443.267 370.128 443.359 370.15C443.452 370.172 443.543 370.197 443.634 370.224L511.596 390.585C511.843 390.659 512.095 390.715 512.353 390.753C512.61 390.79 512.869 390.809 513.13 390.809C513.391 390.809 513.65 390.79 513.908 390.753C514.165 390.715 514.417 390.66 514.665 390.585L582.628 370.229C582.719 370.202 582.81 370.178 582.902 370.155C582.995 370.133 583.088 370.113 583.181 370.096C583.275 370.078 583.369 370.064 583.463 370.051C583.558 370.039 583.653 370.029 583.748 370.021C583.843 370.014 583.939 370.009 584.034 370.007C584.13 370.005 584.225 370.005 584.321 370.008C584.416 370.011 584.512 370.016 584.607 370.024C584.702 370.032 584.797 370.042 584.892 370.055C584.986 370.068 585.08 370.083 585.173 370.101C585.267 370.119 585.36 370.14 585.452 370.162C585.544 370.185 585.635 370.21 585.726 370.238C585.816 370.266 585.906 370.296 585.994 370.328C586.083 370.361 586.17 370.395 586.256 370.433C586.342 370.469 586.427 370.509 586.511 370.55C586.595 370.592 586.677 370.636 586.757 370.682C586.838 370.728 586.917 370.776 586.995 370.826C587.072 370.876 587.148 370.928 587.222 370.982C587.296 371.036 587.369 371.092 587.439 371.15C587.51 371.208 587.578 371.268 587.644 371.33C587.711 371.391 587.775 371.455 587.838 371.52C587.9 371.585 587.96 371.651 588.018 371.719C588.076 371.788 588.131 371.857 588.185 371.928C588.238 372 588.289 372.073 588.337 372.146C588.386 372.22 588.432 372.295 588.475 372.372C588.519 372.448 588.56 372.525 588.599 372.604C588.637 372.682 588.673 372.762 588.706 372.842C588.739 372.922 588.77 373.004 588.798 373.086C588.825 373.168 588.851 373.25 588.873 373.334C588.895 373.417 588.915 373.501 588.932 373.586C588.949 373.67 588.963 373.755 588.974 373.84C588.985 373.925 588.994 374.01 589 374.096C589.005 374.182 589.008 374.267 589.008 374.353L589.007 399.111C589.007 399.225 589.002 399.338 588.992 399.45C588.983 399.563 588.968 399.675 588.948 399.787C588.929 399.899 588.904 400.01 588.875 400.12C588.846 400.23 588.812 400.339 588.773 400.446C588.734 400.554 588.691 400.66 588.643 400.765C588.595 400.869 588.542 400.972 588.486 401.073C588.429 401.174 588.367 401.273 588.302 401.37C588.236 401.466 588.167 401.561 588.093 401.652C588.019 401.744 587.942 401.833 587.86 401.92C587.779 402.006 587.694 402.089 587.605 402.17C587.516 402.25 587.424 402.327 587.329 402.401C587.233 402.475 587.135 402.546 587.033 402.613C586.932 402.68 586.827 402.743 586.72 402.803C586.613 402.863 586.504 402.919 586.392 402.971C586.28 403.023 586.166 403.071 586.05 403.115C585.933 403.159 585.816 403.199 585.696 403.235Z" fill="#EDEFFF"/>
<path fill-rule="evenodd" clip-rule="evenodd" d="M514.419 424.73L585.451 403.454C585.571 403.418 585.688 403.379 585.805 403.334C585.921 403.29 586.035 403.242 586.147 403.19C586.259 403.138 586.368 403.082 586.475 403.022C586.582 402.963 586.687 402.899 586.788 402.832C586.89 402.765 586.988 402.695 587.084 402.621C587.179 402.547 587.271 402.47 587.36 402.389C587.449 402.309 587.534 402.226 587.615 402.139C587.697 402.053 587.774 401.964 587.848 401.872C587.922 401.78 587.991 401.686 588.057 401.589C588.122 401.493 588.184 401.394 588.24 401.293C588.297 401.192 588.35 401.089 588.398 400.984C588.446 400.88 588.489 400.774 588.528 400.666C588.567 400.558 588.601 400.449 588.63 400.339C588.659 400.229 588.684 400.118 588.703 400.007C588.723 399.895 588.737 399.783 588.747 399.67C588.757 399.557 588.762 399.444 588.762 399.331L588.763 374.573C588.763 374.487 588.76 374.401 588.754 374.316C588.749 374.23 588.74 374.145 588.729 374.059C588.718 373.974 588.704 373.889 588.687 373.805C588.67 373.721 588.65 373.637 588.628 373.553C588.606 373.47 588.58 373.387 588.553 373.305C588.525 373.223 588.494 373.142 588.461 373.062C588.428 372.981 588.392 372.902 588.353 372.823C588.315 372.745 588.274 372.667 588.23 372.591C588.187 372.515 588.141 372.44 588.092 372.366C588.044 372.292 587.993 372.219 587.94 372.148C587.886 372.077 587.831 372.007 587.773 371.939C587.715 371.871 587.655 371.804 587.593 371.739C587.53 371.674 587.466 371.611 587.399 371.549C587.333 371.488 587.264 371.428 587.194 371.37C587.124 371.312 587.051 371.256 586.977 371.202C586.903 371.147 586.827 371.095 586.75 371.045C586.672 370.995 586.593 370.947 586.512 370.901C586.432 370.855 586.349 370.811 586.266 370.77C586.182 370.728 586.097 370.689 586.011 370.652C585.925 370.615 585.838 370.58 585.749 370.548C585.661 370.515 585.571 370.485 585.481 370.458C585.39 370.43 585.299 370.405 585.207 370.382C585.115 370.359 585.022 370.339 584.928 370.321C584.835 370.303 584.741 370.288 584.646 370.275C584.552 370.262 584.457 370.251 584.362 370.244C584.267 370.236 584.171 370.23 584.076 370.228C583.98 370.225 583.885 370.224 583.789 370.227C583.694 370.229 583.598 370.234 583.503 370.241C583.408 370.248 583.313 370.258 583.218 370.271C583.124 370.283 583.03 370.298 582.936 370.315C582.843 370.333 582.75 370.352 582.657 370.375C582.565 370.397 582.474 370.422 582.383 370.449L514.42 390.805C514.172 390.879 513.92 390.935 513.662 390.972C513.405 391.01 513.146 391.029 512.885 391.029C512.624 391.029 512.365 391.01 512.108 390.972C511.85 390.935 511.598 390.879 511.35 390.805L443.389 370.444C443.298 370.417 443.206 370.392 443.114 370.37C443.022 370.347 442.929 370.327 442.836 370.31C442.742 370.293 442.648 370.278 442.553 370.265C442.458 370.253 442.363 370.243 442.268 370.236C442.173 370.228 442.078 370.224 441.982 370.221C441.887 370.219 441.791 370.219 441.695 370.222C441.6 370.225 441.505 370.23 441.41 370.238C441.314 370.246 441.219 370.256 441.125 370.269C441.03 370.282 440.937 370.298 440.843 370.315C440.75 370.333 440.657 370.354 440.565 370.377C440.473 370.399 440.381 370.425 440.291 370.452C440.2 370.48 440.111 370.51 440.022 370.542C439.934 370.575 439.846 370.609 439.76 370.647C439.674 370.684 439.589 370.723 439.506 370.764C439.422 370.806 439.34 370.85 439.259 370.896C439.178 370.942 439.099 370.99 439.022 371.04C438.944 371.09 438.869 371.142 438.794 371.196C438.72 371.25 438.648 371.306 438.578 371.364C438.507 371.422 438.439 371.482 438.372 371.544C438.306 371.605 438.241 371.669 438.179 371.734C438.117 371.799 438.057 371.865 437.998 371.933C437.941 372.002 437.885 372.071 437.832 372.143C437.778 372.214 437.728 372.286 437.679 372.36C437.631 372.434 437.584 372.509 437.541 372.585C437.497 372.662 437.456 372.739 437.418 372.818C437.379 372.896 437.344 372.976 437.311 373.056C437.277 373.136 437.247 373.218 437.219 373.3C437.191 373.382 437.166 373.464 437.143 373.548C437.121 373.631 437.101 373.715 437.084 373.799C437.067 373.884 437.053 373.969 437.042 374.054C437.031 374.139 437.022 374.224 437.017 374.31C437.011 374.395 437.008 374.481 437.008 374.567L437.007 399.325C437.007 399.438 437.012 399.551 437.022 399.664C437.032 399.777 437.047 399.889 437.066 400.001C437.086 400.113 437.11 400.224 437.139 400.334C437.169 400.444 437.203 400.553 437.242 400.66C437.28 400.768 437.323 400.874 437.371 400.979C437.419 401.083 437.472 401.186 437.529 401.287C437.586 401.388 437.647 401.487 437.712 401.584C437.778 401.68 437.848 401.775 437.921 401.866C437.995 401.958 438.072 402.047 438.154 402.134C438.236 402.22 438.321 402.303 438.409 402.384C438.498 402.464 438.59 402.541 438.686 402.615C438.781 402.689 438.879 402.76 438.981 402.827C439.082 402.894 439.187 402.957 439.294 403.017C439.401 403.077 439.511 403.133 439.623 403.185C439.734 403.237 439.849 403.285 439.965 403.329C440.081 403.373 440.198 403.413 440.318 403.449L511.349 424.73C511.597 424.804 511.849 424.859 512.106 424.897C512.364 424.935 512.623 424.954 512.884 424.954C513.145 424.954 513.404 424.935 513.661 424.897C513.919 424.859 514.171 424.804 514.419 424.73ZM583.377 398.982L512.884 420.096L442.392 398.977L442.393 375.239L509.645 395.387C511.805 396.034 513.965 396.034 516.125 395.387L583.378 375.244L583.377 398.982Z" fill="#E0E5FF"/>
</g>
<g filter="url(#filter5_d_109_8111)">
<path fill-rule="evenodd" clip-rule="evenodd" d="M585.694 458.235L514.662 479.51C514.414 479.584 514.162 479.64 513.904 479.678C513.647 479.715 513.388 479.734 513.127 479.734C512.866 479.734 512.607 479.715 512.349 479.678C512.092 479.64 511.84 479.584 511.592 479.51L440.561 458.229C440.441 458.193 440.324 458.154 440.208 458.109C440.091 458.065 439.977 458.017 439.866 457.965C439.754 457.913 439.644 457.857 439.537 457.797C439.43 457.738 439.325 457.674 439.224 457.607C439.122 457.54 439.024 457.47 438.929 457.396C438.833 457.322 438.741 457.245 438.652 457.164C438.564 457.084 438.479 457 438.397 456.914C438.315 456.828 438.238 456.739 438.164 456.647C438.091 456.555 438.021 456.461 437.955 456.364C437.89 456.267 437.829 456.169 437.772 456.068C437.715 455.967 437.662 455.864 437.614 455.759C437.566 455.655 437.523 455.548 437.485 455.441C437.446 455.333 437.412 455.224 437.382 455.114C437.353 455.004 437.329 454.893 437.309 454.781C437.29 454.67 437.275 454.557 437.265 454.445C437.255 454.332 437.25 454.219 437.25 454.106L437.251 429.348C437.251 429.262 437.254 429.176 437.26 429.09C437.265 429.005 437.274 428.919 437.285 428.834C437.296 428.749 437.31 428.664 437.327 428.58C437.344 428.496 437.364 428.412 437.386 428.328C437.409 428.245 437.434 428.162 437.462 428.08C437.49 427.998 437.52 427.917 437.553 427.836C437.586 427.756 437.622 427.677 437.661 427.598C437.699 427.52 437.74 427.442 437.784 427.366C437.827 427.29 437.874 427.214 437.922 427.141C437.971 427.067 438.021 426.994 438.075 426.923C438.128 426.852 438.184 426.782 438.241 426.714C438.3 426.646 438.36 426.579 438.422 426.514C438.484 426.449 438.549 426.386 438.615 426.324C438.682 426.262 438.75 426.203 438.821 426.145C438.891 426.087 438.963 426.031 439.037 425.976C439.112 425.922 439.187 425.87 439.265 425.82C439.342 425.77 439.421 425.722 439.502 425.676C439.583 425.63 439.665 425.586 439.749 425.545C439.832 425.503 439.917 425.464 440.003 425.427C440.089 425.39 440.177 425.355 440.265 425.323C440.354 425.29 440.443 425.26 440.534 425.233C440.624 425.205 440.716 425.18 440.808 425.157C440.9 425.134 440.993 425.114 441.086 425.096C441.179 425.078 441.273 425.063 441.368 425.05C441.462 425.037 441.557 425.027 441.653 425.019C441.748 425.011 441.843 425.005 441.938 425.002C442.034 425 442.13 425 442.225 425.002C442.321 425.004 442.416 425.009 442.511 425.016C442.606 425.023 442.701 425.033 442.796 425.046C442.891 425.058 442.985 425.073 443.079 425.09C443.172 425.108 443.265 425.128 443.357 425.15C443.449 425.172 443.541 425.197 443.632 425.224L511.593 445.585C511.841 445.659 512.093 445.715 512.351 445.753C512.608 445.79 512.867 445.809 513.128 445.809C513.389 445.809 513.648 445.79 513.905 445.753C514.163 445.715 514.415 445.66 514.663 445.585L582.626 425.229C582.717 425.202 582.808 425.178 582.9 425.155C582.993 425.133 583.086 425.113 583.179 425.096C583.273 425.078 583.367 425.064 583.461 425.051C583.556 425.039 583.651 425.029 583.746 425.021C583.841 425.014 583.937 425.009 584.032 425.007C584.128 425.005 584.223 425.005 584.319 425.008C584.414 425.011 584.51 425.016 584.605 425.024C584.7 425.032 584.795 425.042 584.889 425.055C584.984 425.068 585.078 425.083 585.171 425.101C585.265 425.119 585.358 425.14 585.45 425.162C585.542 425.185 585.633 425.21 585.724 425.238C585.814 425.266 585.904 425.296 585.992 425.328C586.081 425.361 586.168 425.395 586.254 425.433C586.34 425.469 586.425 425.509 586.509 425.55C586.592 425.592 586.675 425.636 586.755 425.682C586.836 425.728 586.915 425.776 586.993 425.826C587.07 425.876 587.146 425.928 587.22 425.982C587.294 426.036 587.367 426.092 587.437 426.15C587.507 426.208 587.576 426.268 587.642 426.33C587.709 426.391 587.773 426.455 587.835 426.52C587.898 426.585 587.958 426.651 588.016 426.719C588.074 426.788 588.129 426.857 588.183 426.928C588.236 427 588.287 427.073 588.335 427.146C588.384 427.22 588.43 427.295 588.473 427.372C588.517 427.448 588.558 427.525 588.596 427.604C588.635 427.682 588.671 427.762 588.704 427.842C588.737 427.922 588.768 428.004 588.796 428.086C588.823 428.168 588.849 428.25 588.871 428.334C588.893 428.417 588.913 428.501 588.93 428.586C588.947 428.67 588.961 428.755 588.972 428.84C588.983 428.925 588.992 429.01 588.997 429.096C589.003 429.182 589.006 429.267 589.006 429.353L589.005 454.111C589.005 454.225 589 454.338 588.99 454.45C588.98 454.563 588.966 454.675 588.946 454.787C588.926 454.899 588.902 455.01 588.873 455.12C588.844 455.23 588.81 455.339 588.771 455.446C588.732 455.554 588.689 455.66 588.641 455.765C588.593 455.869 588.54 455.972 588.483 456.073C588.427 456.174 588.365 456.273 588.3 456.37C588.234 456.466 588.165 456.561 588.091 456.652C588.017 456.744 587.94 456.833 587.858 456.92C587.777 457.006 587.692 457.089 587.603 457.17C587.514 457.25 587.422 457.327 587.327 457.401C587.231 457.475 587.133 457.546 587.031 457.613C586.93 457.68 586.825 457.743 586.718 457.803C586.611 457.863 586.502 457.919 586.39 457.971C586.278 458.023 586.164 458.071 586.048 458.115C585.931 458.159 585.814 458.199 585.694 458.235Z" fill="#EDEFFF"/>
<path fill-rule="evenodd" clip-rule="evenodd" d="M514.416 479.73L585.449 458.454C585.568 458.418 585.686 458.379 585.802 458.334C585.919 458.29 586.033 458.242 586.145 458.19C586.257 458.138 586.366 458.082 586.473 458.022C586.58 457.963 586.685 457.899 586.786 457.832C586.888 457.765 586.986 457.695 587.082 457.621C587.177 457.547 587.269 457.47 587.358 457.389C587.447 457.309 587.532 457.226 587.613 457.139C587.695 457.053 587.772 456.964 587.846 456.872C587.92 456.78 587.989 456.686 588.055 456.589C588.12 456.493 588.182 456.394 588.238 456.293C588.295 456.192 588.348 456.089 588.396 455.984C588.444 455.88 588.487 455.774 588.526 455.666C588.565 455.558 588.598 455.449 588.628 455.339C588.657 455.229 588.681 455.118 588.701 455.007C588.721 454.895 588.735 454.783 588.745 454.67C588.755 454.557 588.76 454.444 588.76 454.331L588.761 429.573C588.761 429.487 588.758 429.401 588.752 429.316C588.747 429.23 588.738 429.145 588.727 429.059C588.716 428.974 588.702 428.889 588.685 428.805C588.668 428.721 588.648 428.637 588.626 428.553C588.603 428.47 588.578 428.387 588.55 428.305C588.523 428.223 588.492 428.142 588.459 428.062C588.426 427.981 588.39 427.902 588.351 427.823C588.313 427.745 588.272 427.667 588.228 427.591C588.185 427.515 588.139 427.44 588.09 427.366C588.042 427.292 587.991 427.219 587.938 427.148C587.884 427.077 587.829 427.007 587.771 426.939C587.713 426.871 587.653 426.804 587.59 426.739C587.528 426.674 587.464 426.611 587.397 426.549C587.331 426.488 587.262 426.428 587.192 426.37C587.122 426.312 587.049 426.256 586.975 426.202C586.901 426.147 586.825 426.095 586.748 426.045C586.67 425.995 586.591 425.947 586.51 425.901C586.43 425.855 586.347 425.811 586.264 425.77C586.18 425.728 586.095 425.689 586.009 425.652C585.923 425.615 585.836 425.58 585.747 425.548C585.659 425.515 585.569 425.485 585.479 425.458C585.388 425.43 585.297 425.405 585.205 425.382C585.113 425.359 585.02 425.339 584.926 425.321C584.833 425.303 584.739 425.288 584.644 425.275C584.55 425.262 584.455 425.251 584.36 425.244C584.265 425.236 584.169 425.23 584.074 425.228C583.978 425.225 583.883 425.224 583.787 425.227C583.692 425.229 583.596 425.234 583.501 425.241C583.406 425.248 583.311 425.258 583.216 425.271C583.122 425.283 583.028 425.298 582.934 425.315C582.84 425.333 582.748 425.352 582.655 425.375C582.563 425.397 582.471 425.422 582.381 425.449L514.418 445.805C514.17 445.879 513.918 445.935 513.66 445.972C513.403 446.01 513.144 446.029 512.883 446.029C512.622 446.029 512.363 446.01 512.106 445.972C511.848 445.935 511.596 445.879 511.348 445.805L443.387 425.444C443.296 425.417 443.204 425.392 443.112 425.37C443.02 425.347 442.927 425.327 442.833 425.31C442.74 425.293 442.646 425.278 442.551 425.265C442.456 425.253 442.361 425.243 442.266 425.236C442.171 425.228 442.076 425.224 441.98 425.221C441.885 425.219 441.789 425.219 441.693 425.222C441.598 425.225 441.503 425.23 441.407 425.238C441.312 425.246 441.217 425.256 441.123 425.269C441.028 425.282 440.934 425.298 440.841 425.315C440.748 425.333 440.655 425.354 440.563 425.377C440.471 425.399 440.379 425.425 440.289 425.452C440.198 425.48 440.109 425.51 440.02 425.542C439.932 425.575 439.844 425.609 439.758 425.647C439.672 425.684 439.587 425.723 439.504 425.764C439.42 425.806 439.338 425.85 439.257 425.896C439.176 425.942 439.097 425.99 439.02 426.04C438.942 426.09 438.866 426.142 438.792 426.196C438.718 426.25 438.646 426.306 438.575 426.364C438.505 426.422 438.436 426.482 438.37 426.544C438.304 426.605 438.239 426.669 438.177 426.734C438.115 426.799 438.054 426.865 437.996 426.933C437.939 427.002 437.883 427.071 437.83 427.143C437.776 427.214 437.725 427.286 437.677 427.36C437.629 427.434 437.582 427.509 437.539 427.585C437.495 427.662 437.454 427.739 437.416 427.818C437.377 427.896 437.342 427.976 437.309 428.056C437.275 428.136 437.245 428.218 437.216 428.3C437.189 428.382 437.164 428.464 437.141 428.548C437.119 428.631 437.099 428.715 437.082 428.799C437.065 428.884 437.051 428.969 437.04 429.054C437.029 429.139 437.02 429.224 437.015 429.31C437.009 429.395 437.006 429.481 437.006 429.567L437.005 454.325C437.005 454.438 437.01 454.551 437.02 454.664C437.03 454.777 437.045 454.889 437.064 455.001C437.084 455.113 437.108 455.224 437.137 455.334C437.167 455.444 437.201 455.553 437.239 455.66C437.278 455.768 437.321 455.874 437.369 455.979C437.417 456.083 437.47 456.186 437.527 456.287C437.584 456.388 437.645 456.487 437.71 456.584C437.776 456.68 437.845 456.775 437.919 456.866C437.993 456.958 438.07 457.047 438.152 457.134C438.233 457.22 438.318 457.303 438.407 457.384C438.496 457.464 438.588 457.541 438.684 457.615C438.779 457.689 438.877 457.76 438.979 457.827C439.08 457.894 439.185 457.957 439.292 458.017C439.399 458.077 439.509 458.133 439.62 458.185C439.732 458.237 439.846 458.285 439.963 458.329C440.078 458.373 440.196 458.413 440.316 458.449L511.347 479.73C511.594 479.804 511.847 479.859 512.104 479.897C512.362 479.935 512.621 479.954 512.882 479.954C513.143 479.954 513.402 479.935 513.659 479.897C513.917 479.859 514.169 479.804 514.416 479.73ZM583.375 453.982L512.882 475.096L442.39 453.977L442.391 430.239L509.643 450.387C511.803 451.034 513.963 451.034 516.123 450.387L583.376 430.244L583.375 453.982Z" fill="#E0E5FF"/>
</g>
<g filter="url(#filter6_d_109_8111)">
<path fill-rule="evenodd" clip-rule="evenodd" d="M585.692 513.235L514.659 534.51C514.412 534.584 514.16 534.64 513.902 534.678C513.645 534.715 513.386 534.734 513.125 534.734C512.864 534.734 512.605 534.715 512.347 534.678C512.09 534.64 511.837 534.584 511.59 534.51L440.559 513.229C440.439 513.193 440.321 513.154 440.206 513.109C440.089 513.065 439.975 513.017 439.863 512.965C439.751 512.913 439.642 512.857 439.535 512.797C439.428 512.738 439.323 512.674 439.222 512.607C439.12 512.54 439.022 512.47 438.926 512.396C438.831 512.322 438.739 512.245 438.65 512.164C438.561 512.084 438.476 512 438.395 511.914C438.313 511.828 438.236 511.739 438.162 511.647C438.088 511.555 438.019 511.461 437.953 511.364C437.888 511.267 437.827 511.169 437.77 511.068C437.713 510.967 437.66 510.864 437.612 510.759C437.564 510.655 437.521 510.548 437.482 510.441C437.444 510.333 437.41 510.224 437.38 510.114C437.351 510.004 437.327 509.893 437.307 509.781C437.288 509.67 437.273 509.557 437.263 509.445C437.253 509.332 437.248 509.219 437.248 509.106L437.249 484.348C437.249 484.262 437.252 484.176 437.258 484.09C437.263 484.005 437.272 483.919 437.283 483.834C437.294 483.749 437.308 483.664 437.325 483.58C437.342 483.496 437.362 483.412 437.384 483.328C437.407 483.245 437.432 483.162 437.459 483.08C437.488 482.998 437.518 482.917 437.551 482.836C437.584 482.756 437.62 482.677 437.659 482.598C437.697 482.52 437.738 482.442 437.782 482.366C437.825 482.29 437.872 482.214 437.92 482.141C437.968 482.067 438.019 481.994 438.073 481.923C438.126 481.852 438.182 481.782 438.239 481.714C438.297 481.646 438.358 481.579 438.42 481.514C438.482 481.449 438.547 481.386 438.613 481.324C438.679 481.262 438.748 481.203 438.818 481.145C438.889 481.087 438.961 481.031 439.035 480.976C439.109 480.922 439.185 480.87 439.262 480.82C439.34 480.77 439.419 480.722 439.5 480.676C439.581 480.63 439.663 480.586 439.747 480.545C439.83 480.503 439.915 480.464 440.001 480.427C440.087 480.39 440.175 480.355 440.263 480.323C440.352 480.29 440.441 480.26 440.532 480.233C440.622 480.205 440.713 480.18 440.806 480.157C440.898 480.134 440.991 480.114 441.084 480.096C441.177 480.078 441.271 480.063 441.366 480.05C441.46 480.037 441.555 480.027 441.65 480.019C441.746 480.011 441.841 480.005 441.936 480.002C442.032 480 442.128 480 442.223 480.002C442.319 480.004 442.414 480.009 442.509 480.016C442.604 480.023 442.699 480.033 442.794 480.046C442.889 480.058 442.983 480.073 443.076 480.09C443.17 480.108 443.263 480.128 443.355 480.15C443.447 480.172 443.539 480.197 443.63 480.224L511.591 500.585C511.839 500.659 512.091 500.715 512.349 500.753C512.606 500.79 512.865 500.809 513.126 500.809C513.387 500.809 513.646 500.79 513.903 500.753C514.161 500.715 514.413 500.66 514.661 500.585L582.624 480.229C582.714 480.202 582.806 480.178 582.898 480.155C582.991 480.133 583.083 480.113 583.177 480.096C583.271 480.078 583.365 480.064 583.459 480.051C583.554 480.039 583.649 480.029 583.744 480.021C583.839 480.014 583.935 480.009 584.03 480.007C584.126 480.005 584.221 480.005 584.317 480.008C584.412 480.011 584.508 480.016 584.603 480.024C584.698 480.032 584.793 480.042 584.887 480.055C584.982 480.068 585.076 480.083 585.169 480.101C585.263 480.119 585.356 480.14 585.448 480.162C585.54 480.185 585.631 480.21 585.722 480.238C585.812 480.266 585.902 480.296 585.99 480.328C586.079 480.361 586.166 480.395 586.252 480.433C586.338 480.469 586.423 480.509 586.507 480.55C586.59 480.592 586.673 480.636 586.753 480.682C586.834 480.728 586.913 480.776 586.991 480.826C587.068 480.876 587.144 480.928 587.218 480.982C587.292 481.036 587.365 481.092 587.435 481.15C587.505 481.208 587.574 481.268 587.64 481.33C587.707 481.391 587.771 481.455 587.833 481.52C587.896 481.585 587.956 481.651 588.014 481.719C588.072 481.788 588.127 481.857 588.18 481.928C588.234 482 588.285 482.073 588.333 482.146C588.382 482.22 588.428 482.295 588.471 482.372C588.515 482.448 588.556 482.525 588.594 482.604C588.633 482.682 588.669 482.762 588.702 482.842C588.735 482.922 588.766 483.004 588.793 483.086C588.821 483.168 588.846 483.25 588.869 483.334C588.891 483.417 588.911 483.501 588.928 483.586C588.945 483.67 588.959 483.755 588.97 483.84C588.981 483.925 588.99 484.01 588.995 484.096C589.001 484.182 589.004 484.267 589.004 484.353L589.003 509.111C589.003 509.225 588.998 509.338 588.988 509.45C588.978 509.563 588.964 509.675 588.944 509.787C588.924 509.899 588.9 510.01 588.871 510.12C588.841 510.23 588.807 510.339 588.769 510.446C588.73 510.554 588.687 510.66 588.639 510.765C588.591 510.869 588.538 510.972 588.481 511.073C588.424 511.174 588.363 511.273 588.298 511.37C588.232 511.466 588.163 511.561 588.089 511.652C588.015 511.744 587.938 511.833 587.856 511.92C587.775 512.006 587.69 512.089 587.601 512.17C587.512 512.25 587.42 512.327 587.325 512.401C587.229 512.475 587.131 512.546 587.029 512.613C586.928 512.68 586.823 512.743 586.716 512.803C586.609 512.863 586.5 512.919 586.388 512.971C586.276 513.023 586.162 513.071 586.045 513.115C585.929 513.159 585.811 513.199 585.692 513.235Z" fill="#EDEFFF"/>
<path fill-rule="evenodd" clip-rule="evenodd" d="M514.414 534.73L585.447 513.454C585.566 513.418 585.684 513.379 585.8 513.334C585.917 513.29 586.031 513.242 586.143 513.19C586.255 513.138 586.364 513.082 586.471 513.022C586.578 512.963 586.683 512.899 586.784 512.832C586.886 512.765 586.984 512.695 587.08 512.621C587.175 512.547 587.267 512.47 587.356 512.389C587.445 512.309 587.53 512.226 587.611 512.139C587.693 512.053 587.77 511.964 587.844 511.872C587.918 511.78 587.987 511.686 588.053 511.589C588.118 511.493 588.179 511.394 588.236 511.293C588.293 511.192 588.346 511.089 588.394 510.984C588.442 510.88 588.485 510.774 588.524 510.666C588.562 510.558 588.596 510.449 588.626 510.339C588.655 510.229 588.679 510.118 588.699 510.007C588.719 509.895 588.733 509.783 588.743 509.67C588.753 509.557 588.758 509.444 588.758 509.331L588.759 484.573C588.759 484.487 588.756 484.401 588.75 484.316C588.745 484.23 588.736 484.145 588.725 484.059C588.714 483.974 588.7 483.889 588.683 483.805C588.666 483.721 588.646 483.637 588.624 483.553C588.601 483.47 588.576 483.387 588.548 483.305C588.521 483.223 588.49 483.142 588.457 483.062C588.424 482.981 588.388 482.902 588.349 482.823C588.311 482.745 588.27 482.667 588.226 482.591C588.183 482.515 588.137 482.44 588.088 482.366C588.04 482.292 587.989 482.219 587.935 482.148C587.882 482.077 587.827 482.007 587.769 481.939C587.711 481.871 587.651 481.804 587.588 481.739C587.526 481.674 587.462 481.611 587.395 481.549C587.329 481.488 587.26 481.428 587.19 481.37C587.119 481.312 587.047 481.256 586.973 481.202C586.899 481.147 586.823 481.095 586.746 481.045C586.668 480.995 586.589 480.947 586.508 480.901C586.427 480.855 586.345 480.811 586.262 480.77C586.178 480.728 586.093 480.689 586.007 480.652C585.921 480.615 585.833 480.58 585.745 480.548C585.657 480.515 585.567 480.485 585.477 480.458C585.386 480.43 585.295 480.405 585.203 480.382C585.111 480.359 585.018 480.339 584.924 480.321C584.831 480.303 584.737 480.288 584.642 480.275C584.548 480.262 584.453 480.251 584.358 480.244C584.263 480.236 584.167 480.23 584.072 480.228C583.976 480.225 583.881 480.224 583.785 480.227C583.69 480.229 583.594 480.234 583.499 480.241C583.404 480.248 583.309 480.258 583.214 480.271C583.12 480.283 583.026 480.298 582.932 480.315C582.838 480.333 582.745 480.352 582.653 480.375C582.561 480.397 582.469 480.422 582.379 480.449L514.416 500.805C514.168 500.879 513.916 500.935 513.658 500.972C513.401 501.01 513.142 501.029 512.881 501.029C512.62 501.029 512.361 501.01 512.104 500.972C511.846 500.935 511.594 500.879 511.346 500.805L443.385 480.444C443.294 480.417 443.202 480.392 443.11 480.37C443.018 480.347 442.925 480.327 442.831 480.31C442.738 480.293 442.644 480.278 442.549 480.265C442.454 480.253 442.359 480.243 442.264 480.236C442.169 480.228 442.074 480.224 441.978 480.221C441.883 480.219 441.787 480.219 441.691 480.222C441.596 480.225 441.501 480.23 441.405 480.238C441.31 480.246 441.215 480.256 441.121 480.269C441.026 480.282 440.932 480.298 440.839 480.315C440.746 480.333 440.653 480.354 440.56 480.377C440.468 480.399 440.377 480.425 440.287 480.452C440.196 480.48 440.107 480.51 440.018 480.542C439.93 480.575 439.842 480.609 439.756 480.647C439.67 480.684 439.585 480.723 439.502 480.764C439.418 480.806 439.336 480.85 439.255 480.896C439.174 480.942 439.095 480.99 439.017 481.04C438.94 481.09 438.864 481.142 438.79 481.196C438.716 481.25 438.644 481.306 438.573 481.364C438.503 481.422 438.434 481.482 438.368 481.544C438.302 481.605 438.237 481.669 438.175 481.734C438.113 481.799 438.052 481.865 437.994 481.933C437.937 482.002 437.881 482.071 437.828 482.143C437.774 482.214 437.723 482.286 437.675 482.36C437.626 482.434 437.58 482.509 437.537 482.585C437.493 482.662 437.452 482.739 437.414 482.818C437.375 482.896 437.339 482.976 437.306 483.056C437.273 483.136 437.242 483.218 437.214 483.3C437.187 483.382 437.162 483.464 437.139 483.548C437.117 483.631 437.097 483.715 437.08 483.799C437.063 483.884 437.049 483.969 437.038 484.054C437.027 484.139 437.018 484.224 437.013 484.31C437.007 484.395 437.004 484.481 437.004 484.567L437.003 509.325C437.003 509.438 437.008 509.551 437.018 509.664C437.028 509.777 437.043 509.889 437.062 510.001C437.082 510.113 437.106 510.224 437.135 510.334C437.164 510.444 437.199 510.553 437.237 510.66C437.276 510.768 437.319 510.874 437.367 510.979C437.415 511.083 437.468 511.186 437.525 511.287C437.581 511.388 437.643 511.487 437.708 511.584C437.774 511.68 437.843 511.775 437.917 511.866C437.991 511.958 438.068 512.047 438.15 512.134C438.231 512.22 438.316 512.303 438.405 512.384C438.494 512.464 438.586 512.541 438.681 512.615C438.777 512.689 438.875 512.76 438.977 512.827C439.078 512.894 439.183 512.957 439.29 513.017C439.397 513.077 439.506 513.133 439.618 513.185C439.73 513.237 439.844 513.285 439.961 513.329C440.076 513.373 440.194 513.413 440.314 513.449L511.345 534.73C511.592 534.804 511.845 534.859 512.102 534.897C512.36 534.935 512.619 534.954 512.88 534.954C513.14 534.954 513.4 534.935 513.657 534.897C513.915 534.859 514.167 534.804 514.414 534.73ZM583.373 508.982L512.88 530.096L442.388 508.977L442.389 485.239L509.641 505.387C511.801 506.034 513.961 506.034 516.121 505.387L583.374 485.244L583.373 508.982Z" fill="#E0E5FF"/>
</g>
<g filter="url(#filter7_d_109_8111)">
<path fill-rule="evenodd" clip-rule="evenodd" d="M585.69 568.235L514.657 589.51C514.41 589.584 514.158 589.64 513.9 589.678C513.643 589.715 513.384 589.734 513.123 589.734C512.862 589.734 512.603 589.715 512.345 589.678C512.088 589.64 511.836 589.584 511.588 589.51L440.557 568.23C440.437 568.194 440.319 568.154 440.204 568.11C440.087 568.066 439.973 568.017 439.861 567.965C439.75 567.913 439.64 567.857 439.533 567.798C439.426 567.738 439.321 567.675 439.22 567.607C439.118 567.54 439.02 567.47 438.925 567.396C438.829 567.322 438.737 567.245 438.648 567.164C438.56 567.084 438.475 567.001 438.393 566.914C438.311 566.828 438.234 566.739 438.16 566.647C438.086 566.555 438.017 566.461 437.951 566.364C437.886 566.268 437.825 566.169 437.768 566.068C437.711 565.967 437.658 565.864 437.61 565.759C437.562 565.655 437.519 565.549 437.48 565.441C437.442 565.333 437.408 565.224 437.378 565.114C437.349 565.004 437.325 564.893 437.305 564.782C437.286 564.67 437.271 564.558 437.261 564.445C437.251 564.332 437.246 564.219 437.246 564.106L437.247 539.348C437.247 539.262 437.25 539.176 437.256 539.09C437.261 539.005 437.27 538.92 437.281 538.834C437.292 538.749 437.306 538.664 437.323 538.58C437.34 538.496 437.36 538.412 437.382 538.328C437.405 538.245 437.43 538.162 437.458 538.08C437.486 537.998 437.516 537.917 437.549 537.837C437.582 537.756 437.618 537.677 437.657 537.599C437.695 537.52 437.736 537.443 437.78 537.366C437.823 537.29 437.87 537.215 437.918 537.141C437.967 537.067 438.017 536.995 438.071 536.923C438.124 536.852 438.18 536.782 438.237 536.714C438.295 536.646 438.356 536.579 438.418 536.514C438.48 536.449 438.545 536.386 438.611 536.325C438.678 536.263 438.746 536.203 438.817 536.145C438.887 536.087 438.959 536.031 439.033 535.977C439.107 535.923 439.183 535.87 439.261 535.82C439.338 535.77 439.417 535.722 439.498 535.676C439.579 535.63 439.661 535.587 439.745 535.545C439.828 535.503 439.913 535.464 439.999 535.427C440.085 535.39 440.173 535.355 440.261 535.323C440.35 535.291 440.439 535.261 440.53 535.233C440.62 535.205 440.712 535.18 440.804 535.157C440.896 535.134 440.989 535.114 441.082 535.096C441.175 535.078 441.269 535.063 441.364 535.05C441.458 535.037 441.553 535.027 441.649 535.019C441.744 535.011 441.839 535.006 441.934 535.003C442.03 535 442.126 535 442.221 535.002C442.317 535.004 442.412 535.009 442.507 535.016C442.602 535.024 442.697 535.034 442.792 535.046C442.887 535.059 442.981 535.073 443.075 535.091C443.168 535.108 443.261 535.128 443.353 535.15C443.445 535.173 443.537 535.197 443.628 535.225L511.589 555.586C511.837 555.66 512.089 555.716 512.347 555.753C512.604 555.791 512.863 555.809 513.124 555.809C513.385 555.809 513.644 555.791 513.901 555.753C514.159 555.716 514.411 555.66 514.659 555.586L582.622 535.23C582.712 535.203 582.804 535.178 582.896 535.156C582.989 535.133 583.081 535.113 583.175 535.096C583.269 535.079 583.363 535.064 583.457 535.051C583.552 535.039 583.647 535.029 583.742 535.022C583.837 535.014 583.933 535.01 584.028 535.008C584.124 535.005 584.219 535.005 584.315 535.008C584.41 535.011 584.506 535.016 584.601 535.024C584.696 535.032 584.791 535.043 584.885 535.055C584.98 535.068 585.074 535.084 585.167 535.102C585.261 535.119 585.354 535.14 585.446 535.163C585.538 535.185 585.629 535.211 585.72 535.238C585.81 535.266 585.9 535.296 585.988 535.329C586.077 535.361 586.164 535.396 586.25 535.433C586.336 535.47 586.421 535.509 586.505 535.55C586.588 535.592 586.671 535.636 586.751 535.682C586.832 535.728 586.911 535.776 586.989 535.826C587.066 535.876 587.142 535.928 587.216 535.982C587.29 536.036 587.363 536.092 587.433 536.15C587.503 536.208 587.572 536.268 587.638 536.33C587.705 536.392 587.769 536.455 587.831 536.52C587.894 536.585 587.954 536.651 588.012 536.72C588.07 536.788 588.125 536.858 588.179 536.929C588.232 537 588.283 537.073 588.331 537.147C588.38 537.22 588.426 537.295 588.469 537.372C588.513 537.448 588.554 537.526 588.592 537.604C588.631 537.683 588.667 537.762 588.7 537.842C588.733 537.923 588.764 538.004 588.792 538.086C588.819 538.168 588.845 538.251 588.867 538.334C588.889 538.418 588.909 538.501 588.926 538.586C588.943 538.67 588.957 538.755 588.968 538.84C588.979 538.925 588.988 539.011 588.993 539.096C588.999 539.182 589.002 539.268 589.002 539.353L589.001 564.112C589.001 564.225 588.996 564.338 588.986 564.451C588.976 564.563 588.962 564.676 588.942 564.787C588.922 564.899 588.898 565.01 588.869 565.12C588.84 565.23 588.806 565.339 588.767 565.447C588.728 565.554 588.685 565.66 588.637 565.765C588.589 565.87 588.536 565.973 588.479 566.073C588.423 566.174 588.361 566.273 588.296 566.37C588.23 566.467 588.161 566.561 588.087 566.653C588.013 566.744 587.936 566.833 587.854 566.92C587.773 567.006 587.688 567.09 587.599 567.17C587.51 567.25 587.418 567.328 587.323 567.401C587.227 567.475 587.129 567.546 587.027 567.613C586.926 567.68 586.821 567.743 586.714 567.803C586.607 567.863 586.498 567.919 586.386 567.971C586.274 568.023 586.16 568.071 586.044 568.115C585.927 568.159 585.81 568.199 585.69 568.235Z" fill="#EDEFFF"/>
<path fill-rule="evenodd" clip-rule="evenodd" d="M514.412 589.73L585.445 568.455C585.564 568.419 585.682 568.379 585.798 568.335C585.915 568.291 586.029 568.243 586.141 568.19C586.253 568.138 586.362 568.082 586.469 568.023C586.576 567.963 586.681 567.9 586.782 567.833C586.884 567.765 586.982 567.695 587.078 567.621C587.173 567.547 587.265 567.47 587.354 567.39C587.443 567.309 587.528 567.226 587.609 567.139C587.691 567.053 587.768 566.964 587.842 566.872C587.916 566.78 587.985 566.686 588.051 566.589C588.116 566.493 588.177 566.394 588.234 566.293C588.291 566.192 588.344 566.089 588.392 565.985C588.44 565.88 588.483 565.774 588.522 565.666C588.56 565.559 588.594 565.45 588.624 565.34C588.653 565.23 588.677 565.119 588.697 565.007C588.717 564.895 588.731 564.783 588.741 564.67C588.751 564.557 588.756 564.444 588.756 564.331L588.757 539.573C588.757 539.487 588.754 539.401 588.748 539.316C588.743 539.23 588.734 539.145 588.723 539.06C588.712 538.975 588.698 538.89 588.681 538.805C588.664 538.721 588.644 538.637 588.622 538.554C588.599 538.47 588.574 538.388 588.546 538.306C588.519 538.224 588.488 538.142 588.455 538.062C588.422 537.982 588.386 537.902 588.347 537.824C588.309 537.745 588.268 537.668 588.224 537.591C588.181 537.515 588.135 537.44 588.086 537.366C588.038 537.292 587.987 537.22 587.933 537.148C587.88 537.077 587.825 537.008 587.767 536.939C587.709 536.871 587.649 536.804 587.586 536.739C587.524 536.674 587.46 536.611 587.393 536.549C587.327 536.488 587.258 536.428 587.188 536.37C587.118 536.312 587.045 536.256 586.971 536.202C586.897 536.148 586.821 536.096 586.744 536.045C586.666 535.995 586.587 535.947 586.506 535.901C586.426 535.855 586.343 535.812 586.26 535.77C586.176 535.729 586.091 535.689 586.005 535.652C585.919 535.615 585.832 535.58 585.743 535.548C585.655 535.516 585.565 535.486 585.475 535.458C585.384 535.43 585.293 535.405 585.201 535.382C585.109 535.359 585.016 535.339 584.922 535.321C584.829 535.303 584.735 535.288 584.64 535.275C584.546 535.262 584.451 535.252 584.356 535.244C584.261 535.236 584.165 535.231 584.07 535.228C583.974 535.225 583.879 535.225 583.783 535.227C583.688 535.229 583.592 535.234 583.497 535.241C583.402 535.249 583.307 535.259 583.212 535.271C583.118 535.283 583.024 535.298 582.93 535.315C582.836 535.333 582.743 535.353 582.651 535.375C582.559 535.397 582.467 535.422 582.377 535.449L514.414 555.805C514.166 555.879 513.914 555.935 513.656 555.973C513.399 556.01 513.14 556.029 512.879 556.029C512.618 556.029 512.359 556.01 512.102 555.973C511.844 555.935 511.592 555.879 511.344 555.805L443.383 535.444C443.292 535.417 443.2 535.392 443.108 535.37C443.016 535.347 442.923 535.328 442.829 535.31C442.736 535.293 442.642 535.278 442.547 535.266C442.452 535.253 442.357 535.243 442.262 535.236C442.167 535.229 442.072 535.224 441.976 535.222C441.881 535.219 441.785 535.22 441.689 535.222C441.594 535.225 441.499 535.231 441.403 535.238C441.308 535.246 441.213 535.257 441.119 535.27C441.024 535.282 440.93 535.298 440.837 535.316C440.744 535.334 440.651 535.354 440.559 535.377C440.466 535.4 440.375 535.425 440.285 535.452C440.194 535.48 440.105 535.51 440.016 535.543C439.928 535.575 439.84 535.61 439.754 535.647C439.668 535.684 439.583 535.723 439.5 535.765C439.416 535.806 439.334 535.85 439.253 535.896C439.172 535.942 439.093 535.99 439.015 536.04C438.938 536.09 438.862 536.142 438.788 536.196C438.714 536.25 438.642 536.307 438.571 536.365C438.501 536.422 438.432 536.482 438.366 536.544C438.3 536.606 438.235 536.669 438.173 536.734C438.111 536.799 438.05 536.866 437.992 536.934C437.935 537.002 437.879 537.072 437.826 537.143C437.772 537.214 437.721 537.287 437.673 537.36C437.625 537.434 437.578 537.509 437.535 537.586C437.491 537.662 437.45 537.739 437.412 537.818C437.373 537.896 437.337 537.976 437.305 538.056C437.271 538.137 437.241 538.218 437.212 538.3C437.185 538.382 437.16 538.465 437.137 538.548C437.115 538.631 437.095 538.715 437.078 538.8C437.061 538.884 437.047 538.969 437.036 539.054C437.025 539.139 437.016 539.225 437.011 539.31C437.005 539.396 437.002 539.481 437.002 539.567L437.001 564.326C437.001 564.439 437.006 564.552 437.016 564.664C437.026 564.777 437.041 564.889 437.06 565.001C437.08 565.113 437.104 565.224 437.133 565.334C437.163 565.444 437.197 565.553 437.235 565.661C437.274 565.768 437.317 565.874 437.365 565.979C437.413 566.084 437.466 566.186 437.523 566.287C437.58 566.388 437.641 566.487 437.706 566.584C437.772 566.681 437.841 566.775 437.915 566.867C437.989 566.958 438.066 567.047 438.148 567.134C438.229 567.22 438.314 567.304 438.403 567.384C438.492 567.464 438.584 567.542 438.679 567.615C438.775 567.689 438.873 567.76 438.975 567.827C439.076 567.894 439.181 567.957 439.288 568.017C439.395 568.077 439.504 568.133 439.616 568.185C439.728 568.237 439.842 568.285 439.959 568.329C440.074 568.373 440.192 568.413 440.312 568.449L511.343 589.73C511.59 589.804 511.843 589.86 512.1 589.897C512.358 589.935 512.617 589.954 512.878 589.954C513.139 589.954 513.398 589.935 513.655 589.897C513.913 589.86 514.165 589.804 514.412 589.73ZM583.371 563.983L512.878 585.096L442.386 563.977L442.387 540.239L509.639 560.387C511.799 561.035 513.959 561.035 516.119 560.388L583.372 540.244L583.371 563.983Z" fill="#E0E5FF"/>
</g>
<defs>
<filter id="filter0_d_109_8111" x="423.701" y="136.7" width="178.601" height="81.5531" filterUnits="userSpaceOnUse" color-interpolation-filters="sRGB">
<feFlood flood-opacity="0" result="BackgroundImageFix"/>
<feColorMatrix in="SourceAlpha" type="matrix" values="0 0 0 0 0 0 0 0 0 0 0 0 0 0 0 0 0 0 127 0" result="hardAlpha"/>
<feOffset/>
<feGaussianBlur stdDeviation="6.65"/>
<feComposite in2="hardAlpha" operator="out"/>
<feColorMatrix type="matrix" values="0 0 0 0 1 0 0 0 0 1 0 0 0 0 1 0 0 0 0.6 0"/>
<feBlend mode="normal" in2="BackgroundImageFix" result="effect1_dropShadow_109_8111"/>
<feBlend mode="normal" in="SourceGraphic" in2="effect1_dropShadow_109_8111" result="shape"/>
</filter>
<filter id="filter1_d_109_8111" x="423.713" y="191.7" width="178.601" height="81.5531" filterUnits="userSpaceOnUse" color-interpolation-filters="sRGB">
<feFlood flood-opacity="0" result="BackgroundImageFix"/>
<feColorMatrix in="SourceAlpha" type="matrix" values="0 0 0 0 0 0 0 0 0 0 0 0 0 0 0 0 0 0 127 0" result="hardAlpha"/>
<feOffset/>
<feGaussianBlur stdDeviation="6.65"/>
<feComposite in2="hardAlpha" operator="out"/>
<feColorMatrix type="matrix" values="0 0 0 0 1 0 0 0 0 1 0 0 0 0 1 0 0 0 0.6 0"/>
<feBlend mode="normal" in2="BackgroundImageFix" result="effect1_dropShadow_109_8111"/>
<feBlend mode="normal" in="SourceGraphic" in2="effect1_dropShadow_109_8111" result="shape"/>
</filter>
<filter id="filter2_d_109_8111" x="423.711" y="246.7" width="178.601" height="81.5531" filterUnits="userSpaceOnUse" color-interpolation-filters="sRGB">
<feFlood flood-opacity="0" result="BackgroundImageFix"/>
<feColorMatrix in="SourceAlpha" type="matrix" values="0 0 0 0 0 0 0 0 0 0 0 0 0 0 0 0 0 0 127 0" result="hardAlpha"/>
<feOffset/>
<feGaussianBlur stdDeviation="6.65"/>
<feComposite in2="hardAlpha" operator="out"/>
<feColorMatrix type="matrix" values="0 0 0 0 1 0 0 0 0 1 0 0 0 0 1 0 0 0 0.6 0"/>
<feBlend mode="normal" in2="BackgroundImageFix" result="effect1_dropShadow_109_8111"/>
<feBlend mode="normal" in="SourceGraphic" in2="effect1_dropShadow_109_8111" result="shape"/>
</filter>
<filter id="filter3_d_109_8111" x="423.709" y="301.7" width="178.601" height="81.5531" filterUnits="userSpaceOnUse" color-interpolation-filters="sRGB">
<feFlood flood-opacity="0" result="BackgroundImageFix"/>
<feColorMatrix in="SourceAlpha" type="matrix" values="0 0 0 0 0 0 0 0 0 0 0 0 0 0 0 0 0 0 127 0" result="hardAlpha"/>
<feOffset/>
<feGaussianBlur stdDeviation="6.65"/>
<feComposite in2="hardAlpha" operator="out"/>
<feColorMatrix type="matrix" values="0 0 0 0 1 0 0 0 0 1 0 0 0 0 1 0 0 0 0.6 0"/>
<feBlend mode="normal" in2="BackgroundImageFix" result="effect1_dropShadow_109_8111"/>
<feBlend mode="normal" in="SourceGraphic" in2="effect1_dropShadow_109_8111" result="shape"/>
</filter>
<filter id="filter4_d_109_8111" x="423.707" y="356.7" width="178.601" height="81.5531" filterUnits="userSpaceOnUse" color-interpolation-filters="sRGB">
<feFlood flood-opacity="0" result="BackgroundImageFix"/>
<feColorMatrix in="SourceAlpha" type="matrix" values="0 0 0 0 0 0 0 0 0 0 0 0 0 0 0 0 0 0 127 0" result="hardAlpha"/>
<feOffset/>
<feGaussianBlur stdDeviation="6.65"/>
<feComposite in2="hardAlpha" operator="out"/>
<feColorMatrix type="matrix" values="0 0 0 0 1 0 0 0 0 1 0 0 0 0 1 0 0 0 0.6 0"/>
<feBlend mode="normal" in2="BackgroundImageFix" result="effect1_dropShadow_109_8111"/>
<feBlend mode="normal" in="SourceGraphic" in2="effect1_dropShadow_109_8111" result="shape"/>
</filter>
<filter id="filter5_d_109_8111" x="423.705" y="411.7" width="178.601" height="81.5531" filterUnits="userSpaceOnUse" color-interpolation-filters="sRGB">
<feFlood flood-opacity="0" result="BackgroundImageFix"/>
<feColorMatrix in="SourceAlpha" type="matrix" values="0 0 0 0 0 0 0 0 0 0 0 0 0 0 0 0 0 0 127 0" result="hardAlpha"/>
<feOffset/>
<feGaussianBlur stdDeviation="6.65"/>
<feComposite in2="hardAlpha" operator="out"/>
<feColorMatrix type="matrix" values="0 0 0 0 1 0 0 0 0 1 0 0 0 0 1 0 0 0 0.6 0"/>
<feBlend mode="normal" in2="BackgroundImageFix" result="effect1_dropShadow_109_8111"/>
<feBlend mode="normal" in="SourceGraphic" in2="effect1_dropShadow_109_8111" result="shape"/>
</filter>
<filter id="filter6_d_109_8111" x="423.703" y="466.7" width="178.601" height="81.5531" filterUnits="userSpaceOnUse" color-interpolation-filters="sRGB">
<feFlood flood-opacity="0" result="BackgroundImageFix"/>
<feColorMatrix in="SourceAlpha" type="matrix" values="0 0 0 0 0 0 0 0 0 0 0 0 0 0 0 0 0 0 127 0" result="hardAlpha"/>
<feOffset/>
<feGaussianBlur stdDeviation="6.65"/>
<feComposite in2="hardAlpha" operator="out"/>
<feColorMatrix type="matrix" values="0 0 0 0 1 0 0 0 0 1 0 0 0 0 1 0 0 0 0.6 0"/>
<feBlend mode="normal" in2="BackgroundImageFix" result="effect1_dropShadow_109_8111"/>
<feBlend mode="normal" in="SourceGraphic" in2="effect1_dropShadow_109_8111" result="shape"/>
</filter>
<filter id="filter7_d_109_8111" x="423.701" y="521.701" width="178.601" height="81.5531" filterUnits="userSpaceOnUse" color-interpolation-filters="sRGB">
<feFlood flood-opacity="0" result="BackgroundImageFix"/>
<feColorMatrix in="SourceAlpha" type="matrix" values="0 0 0 0 0 0 0 0 0 0 0 0 0 0 0 0 0 0 127 0" result="hardAlpha"/>
<feOffset/>
<feGaussianBlur stdDeviation="6.65"/>
<feComposite in2="hardAlpha" operator="out"/>
<feColorMatrix type="matrix" values="0 0 0 0 1 0 0 0 0 1 0 0 0 0 1 0 0 0 0.6 0"/>
<feBlend mode="normal" in2="BackgroundImageFix" result="effect1_dropShadow_109_8111"/>
<feBlend mode="normal" in="SourceGraphic" in2="effect1_dropShadow_109_8111" result="shape"/>
</filter>
</defs>
</svg>
