<svg width="400" height="400" viewBox="0 0 400 400" fill="none" xmlns="http://www.w3.org/2000/svg">
<path fill-rule="evenodd" clip-rule="evenodd" d="M74.7314 235.268L197.629 198.443C198.057 198.315 198.494 198.218 198.939 198.153C199.385 198.088 199.833 198.056 200.284 198.056C200.736 198.056 201.184 198.088 201.629 198.153C202.075 198.218 202.512 198.314 202.94 198.443L325.843 235.249C326.05 235.311 326.254 235.38 326.455 235.457C326.656 235.533 326.853 235.616 327.047 235.706C327.24 235.796 327.43 235.893 327.615 235.996C327.801 236.1 327.982 236.209 328.157 236.325C328.333 236.441 328.503 236.563 328.668 236.691C328.833 236.819 328.993 236.953 329.147 237.092C329.3 237.231 329.447 237.375 329.588 237.525C329.729 237.674 329.863 237.828 329.991 237.987C330.118 238.146 330.238 238.309 330.352 238.476C330.465 238.643 330.571 238.814 330.67 238.989C330.768 239.164 330.859 239.342 330.942 239.523C331.025 239.704 331.1 239.887 331.167 240.074C331.234 240.26 331.293 240.448 331.344 240.639C331.394 240.829 331.436 241.021 331.47 241.214C331.504 241.408 331.53 241.602 331.546 241.797C331.564 241.992 331.573 242.188 331.573 242.383L331.576 285.221C331.575 285.369 331.57 285.517 331.561 285.666C331.551 285.814 331.536 285.961 331.517 286.109C331.498 286.256 331.473 286.403 331.444 286.549C331.415 286.695 331.381 286.84 331.342 286.984C331.303 287.129 331.26 287.272 331.212 287.414C331.163 287.555 331.111 287.696 331.054 287.835C330.996 287.974 330.934 288.111 330.867 288.247C330.801 288.383 330.73 288.517 330.655 288.649C330.579 288.781 330.499 288.911 330.415 289.039C330.331 289.167 330.243 289.292 330.151 289.416C330.059 289.539 329.963 289.66 329.863 289.778C329.762 289.896 329.658 290.011 329.55 290.123C329.442 290.236 329.331 290.345 329.217 290.452C329.101 290.559 328.983 290.662 328.861 290.763C328.739 290.863 328.614 290.96 328.486 291.054C328.358 291.147 328.227 291.238 328.093 291.324C327.958 291.411 327.821 291.494 327.682 291.573C327.542 291.653 327.4 291.729 327.255 291.801C327.11 291.873 326.964 291.94 326.815 292.004C326.666 292.069 326.515 292.129 326.361 292.185C326.208 292.241 326.053 292.293 325.897 292.341C325.74 292.389 325.582 292.432 325.423 292.472C325.263 292.511 325.103 292.547 324.941 292.577C324.78 292.608 324.617 292.635 324.453 292.657C324.29 292.68 324.126 292.698 323.961 292.711C323.796 292.725 323.631 292.734 323.467 292.739C323.301 292.744 323.136 292.744 322.97 292.74C322.805 292.737 322.64 292.729 322.476 292.716C322.311 292.703 322.146 292.686 321.983 292.664C321.819 292.643 321.656 292.617 321.494 292.588C321.332 292.557 321.171 292.523 321.012 292.484C320.852 292.446 320.694 292.403 320.537 292.356L202.944 257.14C202.516 257.012 202.079 256.915 201.634 256.85C201.188 256.785 200.74 256.753 200.289 256.753C199.838 256.753 199.389 256.785 198.944 256.85C198.498 256.915 198.061 257.012 197.633 257.14L80.0463 292.374C79.8894 292.421 79.7311 292.464 79.5714 292.502C79.4118 292.541 79.2509 292.575 79.089 292.606C78.9271 292.635 78.7643 292.661 78.6006 292.682C78.437 292.704 78.2728 292.721 78.108 292.734C77.9432 292.747 77.7782 292.755 77.6129 292.758C77.4476 292.762 77.2823 292.762 77.117 292.758C76.9517 292.753 76.7867 292.743 76.622 292.73C76.4574 292.716 76.2933 292.698 76.1298 292.676C75.9663 292.653 75.8037 292.627 75.6419 292.596C75.4802 292.565 75.3196 292.53 75.1602 292.49C75.0008 292.451 74.8428 292.407 74.6863 292.36C74.5297 292.312 74.3749 292.259 74.2218 292.203C74.0687 292.147 73.9176 292.087 73.7684 292.023C73.6193 291.959 73.4724 291.891 73.3277 291.819C73.1831 291.748 73.0409 291.672 72.9012 291.592C72.7616 291.513 72.6246 291.43 72.4904 291.343C72.3562 291.256 72.225 291.166 72.0968 291.073C71.9686 290.979 71.8435 290.882 71.7217 290.782C71.5998 290.681 71.4814 290.578 71.3664 290.471C71.2514 290.364 71.14 290.255 71.0322 290.143C70.9244 290.03 70.8204 289.915 70.7202 289.797C70.62 289.679 70.5238 289.558 70.4316 289.435C70.3393 289.312 70.2512 289.186 70.1673 289.058C70.0833 288.931 70.0036 288.801 69.9283 288.668C69.8529 288.536 69.7819 288.402 69.7154 288.267C69.6488 288.131 69.5868 287.993 69.5293 287.855C69.4718 287.715 69.419 287.575 69.3708 287.433C69.3225 287.291 69.279 287.148 69.2403 287.004C69.2015 286.859 69.1675 286.714 69.1383 286.568C69.1091 286.422 69.0847 286.276 69.0652 286.128C69.0456 285.981 69.031 285.833 69.0212 285.685C69.0114 285.537 69.0065 285.388 69.0065 285.24L69.0033 242.403C69.0033 242.207 69.0118 242.012 69.0288 241.816C69.0458 241.621 69.0712 241.427 69.1051 241.234C69.139 241.04 69.1813 240.848 69.2319 240.658C69.2825 240.468 69.3413 240.279 69.4083 240.093C69.4752 239.907 69.5502 239.723 69.6332 239.542C69.7162 239.361 69.8069 239.183 69.9053 239.008C70.0038 238.834 70.1097 238.663 70.223 238.495C70.3363 238.328 70.4568 238.165 70.5843 238.006C70.7118 237.847 70.846 237.693 70.987 237.544C71.1279 237.394 71.2751 237.25 71.4286 237.111C71.5821 236.972 71.7414 236.838 71.9065 236.71C72.0716 236.582 72.242 236.46 72.4177 236.344C72.5935 236.228 72.774 236.119 72.9592 236.015C73.1445 235.912 73.334 235.815 73.5277 235.725C73.7214 235.635 73.9187 235.552 74.1196 235.475C74.3205 235.399 74.5245 235.33 74.7314 235.268Z" fill="#FF8A8A"/>
<g filter="url(#filter0_d_31_27)">
<path fill-rule="evenodd" clip-rule="evenodd" d="M198.052 198.063L75.1549 234.888C74.9479 234.95 74.744 235.019 74.543 235.095C74.3421 235.171 74.1448 235.255 73.9511 235.345C73.7574 235.435 73.5679 235.532 73.3827 235.635C73.1974 235.738 73.0169 235.848 72.8412 235.964C72.6654 236.08 72.495 236.202 72.3299 236.33C72.1648 236.458 72.0055 236.592 71.852 236.731C71.6985 236.87 71.5513 237.014 71.4104 237.164C71.2695 237.313 71.1352 237.467 71.0077 237.626C70.8802 237.785 70.7598 237.948 70.6464 238.115C70.5331 238.282 70.4272 238.453 70.3288 238.628C70.2303 238.803 70.1396 238.981 70.0566 239.162C69.9737 239.343 69.8987 239.526 69.8317 239.713C69.7647 239.899 69.7059 240.087 69.6553 240.278C69.6047 240.468 69.5625 240.66 69.5286 240.853C69.4947 241.047 69.4692 241.241 69.4522 241.436C69.4352 241.631 69.4267 241.827 69.4268 242.023L69.4299 284.86C69.4299 285.008 69.4348 285.157 69.4446 285.305C69.4544 285.453 69.4691 285.601 69.4886 285.748C69.5081 285.895 69.5325 286.042 69.5617 286.188C69.5909 286.334 69.6249 286.479 69.6637 286.623C69.7025 286.768 69.746 286.911 69.7942 287.053C69.8424 287.194 69.8953 287.335 69.9527 287.474C70.0102 287.613 70.0722 287.751 70.1388 287.887C70.2053 288.022 70.2763 288.156 70.3517 288.288C70.4271 288.42 70.5068 288.55 70.5907 288.678C70.6747 288.806 70.7628 288.931 70.855 289.055C70.9472 289.178 71.0434 289.298 71.1436 289.416C71.2438 289.534 71.3478 289.65 71.4556 289.762C71.5634 289.875 71.6748 289.984 71.7898 290.091C71.9048 290.197 72.0233 290.301 72.1451 290.401C72.267 290.502 72.392 290.599 72.5202 290.692C72.6485 290.786 72.7797 290.876 72.9139 290.963C73.0481 291.049 73.185 291.133 73.3247 291.212C73.4643 291.291 73.6065 291.367 73.7512 291.439C73.8958 291.511 74.0427 291.579 74.1919 291.643C74.341 291.707 74.4921 291.767 74.6452 291.823C74.7984 291.879 74.9532 291.931 75.1097 291.979C75.2662 292.027 75.4242 292.071 75.5836 292.11C75.7431 292.15 75.9036 292.185 76.0654 292.216C76.2271 292.247 76.3897 292.273 76.5532 292.296C76.7167 292.318 76.8808 292.336 77.0455 292.349C77.2101 292.363 77.3751 292.372 77.5404 292.377C77.7057 292.382 77.871 292.382 78.0363 292.378C78.2016 292.374 78.3667 292.366 78.5314 292.353C78.6962 292.341 78.8604 292.324 79.0241 292.302C79.1877 292.281 79.3505 292.255 79.5124 292.225C79.6744 292.195 79.8352 292.161 79.9949 292.122C80.1546 292.083 80.3128 292.041 80.4697 291.994L198.057 256.76C198.485 256.632 198.922 256.535 199.367 256.47C199.813 256.405 200.261 256.373 200.712 256.373C201.163 256.373 201.612 256.405 202.057 256.47C202.503 256.535 202.939 256.631 203.367 256.76L320.96 291.976C321.117 292.023 321.276 292.066 321.435 292.104C321.595 292.143 321.755 292.177 321.917 292.207C322.079 292.237 322.242 292.263 322.406 292.284C322.57 292.306 322.734 292.323 322.899 292.335C323.063 292.348 323.228 292.356 323.394 292.36C323.559 292.364 323.724 292.364 323.89 292.359C324.055 292.354 324.22 292.345 324.385 292.331C324.549 292.318 324.714 292.3 324.877 292.277C325.04 292.255 325.203 292.228 325.365 292.197C325.526 292.166 325.687 292.131 325.846 292.092C326.006 292.052 326.164 292.008 326.32 291.961C326.477 291.913 326.632 291.861 326.785 291.805C326.938 291.748 327.089 291.688 327.238 291.624C327.387 291.56 327.534 291.492 327.678 291.42C327.823 291.348 327.965 291.273 328.105 291.193C328.245 291.114 328.382 291.031 328.516 290.944C328.65 290.857 328.781 290.767 328.909 290.673C329.038 290.58 329.163 290.483 329.284 290.382C329.406 290.282 329.525 290.178 329.64 290.072C329.755 289.965 329.866 289.856 329.974 289.743C330.082 289.631 330.186 289.515 330.286 289.397C330.386 289.279 330.482 289.159 330.574 289.035C330.667 288.912 330.755 288.787 330.838 288.659C330.923 288.531 331.002 288.401 331.078 288.269C331.153 288.137 331.224 288.003 331.291 287.867C331.357 287.731 331.419 287.594 331.476 287.455C331.534 287.316 331.587 287.175 331.635 287.033C331.683 286.891 331.727 286.748 331.766 286.604C331.804 286.46 331.838 286.315 331.867 286.169C331.897 286.023 331.921 285.876 331.94 285.729C331.96 285.581 331.975 285.433 331.984 285.285C331.994 285.137 331.999 284.989 331.999 284.841L331.996 242.003C331.996 241.807 331.987 241.612 331.97 241.417C331.953 241.222 331.928 241.027 331.894 240.834C331.86 240.641 331.818 240.449 331.767 240.258C331.717 240.068 331.658 239.88 331.59 239.693C331.524 239.507 331.449 239.323 331.366 239.142C331.283 238.961 331.192 238.783 331.093 238.609C330.995 238.434 330.889 238.263 330.775 238.096C330.662 237.929 330.542 237.766 330.415 237.607C330.287 237.448 330.152 237.294 330.011 237.144C329.87 236.995 329.723 236.851 329.57 236.712C329.416 236.573 329.257 236.439 329.091 236.311C328.927 236.183 328.756 236.061 328.581 235.945C328.405 235.829 328.224 235.72 328.039 235.616C327.853 235.513 327.664 235.416 327.47 235.326C327.277 235.236 327.079 235.153 326.878 235.076C326.678 235 326.474 234.931 326.267 234.869L203.363 198.063C202.935 197.934 202.498 197.838 202.053 197.773C201.607 197.708 201.159 197.675 200.708 197.675C200.257 197.675 199.808 197.708 199.363 197.773C198.917 197.838 198.48 197.935 198.052 198.063ZM78.7437 242.625L200.708 206.079L322.679 242.607L322.682 283.679L206.318 248.831C202.58 247.712 198.843 247.712 195.105 248.832L78.7468 283.697L78.7437 242.625Z" fill="#FFB6B6"/>
</g>
<path fill-rule="evenodd" clip-rule="evenodd" d="M74.7314 145.602L197.629 108.777C198.057 108.649 198.494 108.553 198.939 108.488C199.385 108.423 199.833 108.39 200.284 108.39C200.736 108.39 201.184 108.422 201.629 108.487C202.075 108.552 202.512 108.649 202.94 108.777L325.843 145.584C326.05 145.646 326.254 145.715 326.455 145.791C326.656 145.867 326.853 145.951 327.047 146.041C327.24 146.131 327.43 146.227 327.615 146.331C327.801 146.434 327.982 146.544 328.157 146.66C328.333 146.776 328.503 146.898 328.668 147.026C328.833 147.154 328.993 147.287 329.147 147.426C329.3 147.565 329.447 147.71 329.588 147.859C329.729 148.008 329.863 148.163 329.991 148.321C330.118 148.48 330.238 148.643 330.352 148.811C330.465 148.978 330.571 149.149 330.67 149.323C330.768 149.498 330.859 149.676 330.942 149.857C331.025 150.038 331.1 150.222 331.167 150.408C331.234 150.594 331.293 150.783 331.344 150.973C331.394 151.163 331.436 151.355 331.47 151.549C331.504 151.742 331.53 151.936 331.546 152.131C331.564 152.326 331.573 152.522 331.573 152.718L331.576 195.555C331.575 195.703 331.57 195.852 331.561 196C331.551 196.148 331.536 196.296 331.517 196.443C331.498 196.591 331.473 196.737 331.444 196.883C331.415 197.029 331.381 197.174 331.342 197.319C331.303 197.463 331.26 197.606 331.212 197.748C331.163 197.89 331.111 198.03 331.054 198.17C330.996 198.308 330.934 198.446 330.867 198.582C330.801 198.717 330.73 198.851 330.655 198.984C330.579 199.116 330.499 199.246 330.415 199.373C330.331 199.501 330.243 199.627 330.151 199.75C330.059 199.873 329.963 199.994 329.863 200.112C329.762 200.23 329.658 200.345 329.55 200.458C329.442 200.57 329.331 200.68 329.217 200.786C329.101 200.893 328.983 200.997 328.861 201.097C328.739 201.197 328.614 201.294 328.486 201.388C328.358 201.482 328.227 201.572 328.093 201.658C327.958 201.745 327.821 201.828 327.682 201.908C327.542 201.987 327.4 202.063 327.255 202.135C327.11 202.207 326.964 202.275 326.815 202.339C326.666 202.403 326.515 202.463 326.361 202.52C326.208 202.575 326.053 202.627 325.897 202.675C325.74 202.723 325.582 202.767 325.423 202.806C325.263 202.846 325.103 202.881 324.941 202.912C324.78 202.943 324.617 202.969 324.453 202.992C324.29 203.014 324.126 203.032 323.961 203.046C323.796 203.059 323.631 203.069 323.467 203.074C323.301 203.078 323.136 203.079 322.97 203.075C322.805 203.071 322.64 203.063 322.476 203.05C322.311 203.038 322.146 203.02 321.983 202.999C321.819 202.977 321.656 202.952 321.494 202.922C321.332 202.892 321.171 202.857 321.012 202.819C320.852 202.78 320.694 202.737 320.537 202.69L202.944 167.474C202.516 167.346 202.079 167.249 201.634 167.185C201.188 167.12 200.74 167.087 200.289 167.087C199.838 167.087 199.389 167.12 198.944 167.185C198.498 167.25 198.061 167.346 197.633 167.475L80.0463 202.708C79.8894 202.755 79.7311 202.798 79.5714 202.836C79.4118 202.875 79.2509 202.909 79.089 202.94C78.9271 202.97 78.7643 202.995 78.6006 203.017C78.437 203.038 78.2728 203.056 78.108 203.068C77.9432 203.081 77.7782 203.089 77.6129 203.093C77.4476 203.097 77.2823 203.097 77.117 203.092C76.9517 203.087 76.7867 203.078 76.622 203.064C76.4574 203.05 76.2933 203.032 76.1298 203.01C75.9663 202.988 75.8037 202.961 75.6419 202.93C75.4802 202.899 75.3196 202.864 75.1602 202.825C75.0008 202.785 74.8428 202.742 74.6863 202.694C74.5297 202.646 74.3749 202.594 74.2218 202.537C74.0687 202.482 73.9176 202.422 73.7684 202.357C73.6193 202.294 73.4724 202.226 73.3277 202.154C73.1831 202.082 73.0409 202.006 72.9012 201.927C72.7616 201.847 72.6246 201.764 72.4904 201.677C72.3562 201.591 72.225 201.501 72.0968 201.407C71.9686 201.313 71.8435 201.216 71.7217 201.116C71.5998 201.016 71.4814 200.912 71.3664 200.805C71.2514 200.699 71.14 200.589 71.0322 200.477C70.9244 200.364 70.8204 200.249 70.7202 200.131C70.62 200.013 70.5238 199.893 70.4316 199.77C70.3393 199.646 70.2512 199.52 70.1673 199.393C70.0833 199.265 70.0036 199.135 69.9283 199.003C69.8529 198.871 69.7819 198.737 69.7154 198.601C69.6488 198.465 69.5868 198.328 69.5293 198.189C69.4718 198.05 69.419 197.909 69.3708 197.767C69.3225 197.625 69.279 197.482 69.2403 197.338C69.2015 197.194 69.1675 197.048 69.1383 196.903C69.1091 196.757 69.0847 196.61 69.0652 196.463C69.0456 196.315 69.031 196.168 69.0212 196.02C69.0114 195.871 69.0065 195.723 69.0065 195.574L69.0033 152.737C69.0033 152.541 69.0118 152.346 69.0288 152.151C69.0458 151.956 69.0712 151.761 69.1051 151.568C69.139 151.375 69.1813 151.183 69.2319 150.992C69.2825 150.802 69.3413 150.614 69.4083 150.427C69.4752 150.241 69.5502 150.057 69.6332 149.876C69.7162 149.695 69.8069 149.517 69.9053 149.343C70.0038 149.168 70.1097 148.997 70.223 148.83C70.3363 148.662 70.4568 148.499 70.5843 148.341C70.7118 148.182 70.846 148.028 70.987 147.878C71.1279 147.729 71.2751 147.584 71.4286 147.445C71.5821 147.306 71.7414 147.173 71.9065 147.045C72.0716 146.917 72.242 146.795 72.4177 146.679C72.5935 146.563 72.774 146.453 72.9592 146.35C73.1445 146.246 73.334 146.149 73.5277 146.059C73.7214 145.969 73.9187 145.886 74.1196 145.81C74.3205 145.733 74.5245 145.664 74.7314 145.602Z" fill="#FF8A8A"/>
<g filter="url(#filter1_d_31_27)">
<path fill-rule="evenodd" clip-rule="evenodd" d="M198.052 108.398L75.1549 145.222C74.9479 145.284 74.744 145.353 74.543 145.43C74.3421 145.506 74.1448 145.589 73.9511 145.679C73.7574 145.769 73.5679 145.866 73.3827 145.97C73.1974 146.073 73.0169 146.183 72.8412 146.299C72.6654 146.415 72.495 146.537 72.3299 146.665C72.1648 146.793 72.0055 146.926 71.852 147.065C71.6985 147.204 71.5513 147.349 71.4104 147.498C71.2695 147.648 71.1352 147.802 71.0077 147.961C70.8802 148.119 70.7598 148.282 70.6464 148.45C70.5331 148.617 70.4272 148.788 70.3288 148.963C70.2303 149.137 70.1396 149.315 70.0566 149.496C69.9737 149.677 69.8987 149.861 69.8317 150.047C69.7647 150.234 69.7059 150.422 69.6553 150.612C69.6047 150.803 69.5625 150.995 69.5286 151.188C69.4947 151.381 69.4692 151.576 69.4522 151.771C69.4352 151.966 69.4267 152.161 69.4268 152.357L69.4299 195.195C69.4299 195.343 69.4348 195.491 69.4446 195.639C69.4544 195.787 69.4691 195.935 69.4886 196.083C69.5081 196.23 69.5325 196.377 69.5617 196.523C69.5909 196.669 69.6249 196.814 69.6637 196.958C69.7025 197.102 69.746 197.245 69.7942 197.387C69.8424 197.529 69.8953 197.67 69.9527 197.809C70.0102 197.948 70.0722 198.085 70.1388 198.221C70.2053 198.357 70.2763 198.491 70.3517 198.623C70.4271 198.755 70.5068 198.885 70.5907 199.013C70.6747 199.141 70.7628 199.266 70.855 199.389C70.9472 199.512 71.0434 199.633 71.1436 199.751C71.2438 199.869 71.3478 199.984 71.4556 200.097C71.5634 200.209 71.6748 200.319 71.7898 200.425C71.9048 200.532 72.0233 200.636 72.1451 200.736C72.267 200.836 72.392 200.933 72.5202 201.027C72.6485 201.12 72.7797 201.211 72.9139 201.297C73.0481 201.384 73.185 201.467 73.3247 201.547C73.4643 201.626 73.6065 201.702 73.7512 201.774C73.8958 201.846 74.0427 201.913 74.1919 201.978C74.341 202.042 74.4921 202.102 74.6452 202.158C74.7984 202.214 74.9532 202.266 75.1097 202.314C75.2662 202.362 75.4242 202.405 75.5836 202.445C75.7431 202.484 75.9036 202.519 76.0654 202.55C76.2271 202.581 76.3897 202.608 76.5532 202.63C76.7167 202.652 76.8808 202.67 77.0455 202.684C77.2101 202.698 77.3751 202.707 77.5404 202.712C77.7057 202.716 77.871 202.717 78.0363 202.713C78.2016 202.709 78.3667 202.701 78.5314 202.688C78.6962 202.675 78.8604 202.658 79.0241 202.637C79.1877 202.615 79.3505 202.59 79.5124 202.56C79.6744 202.53 79.8352 202.495 79.9949 202.457C80.1546 202.418 80.3128 202.375 80.4697 202.328L198.057 167.095C198.485 166.966 198.922 166.87 199.367 166.805C199.813 166.74 200.261 166.707 200.712 166.707C201.163 166.707 201.612 166.74 202.057 166.805C202.503 166.87 202.939 166.966 203.367 167.094L320.96 202.31C321.117 202.357 321.276 202.4 321.435 202.439C321.595 202.477 321.755 202.512 321.917 202.542C322.079 202.572 322.242 202.597 322.406 202.619C322.57 202.64 322.734 202.657 322.899 202.67C323.063 202.683 323.228 202.691 323.394 202.695C323.559 202.699 323.724 202.698 323.89 202.693C324.055 202.689 324.22 202.679 324.385 202.666C324.549 202.652 324.714 202.634 324.877 202.612C325.04 202.589 325.203 202.563 325.365 202.532C325.526 202.501 325.687 202.466 325.846 202.426C326.006 202.387 326.164 202.343 326.32 202.295C326.477 202.247 326.632 202.195 326.785 202.139C326.938 202.083 327.089 202.023 327.238 201.959C327.387 201.895 327.534 201.827 327.678 201.755C327.823 201.683 327.965 201.607 328.105 201.528C328.245 201.448 328.382 201.365 328.516 201.278C328.65 201.192 328.781 201.102 328.909 201.008C329.038 200.914 329.163 200.817 329.284 200.717C329.406 200.616 329.525 200.513 329.64 200.406C329.755 200.3 329.866 200.19 329.974 200.078C330.082 199.965 330.186 199.85 330.286 199.732C330.386 199.614 330.482 199.493 330.574 199.37C330.667 199.247 330.755 199.121 330.838 198.993C330.923 198.866 331.002 198.736 331.078 198.604C331.153 198.472 331.224 198.338 331.291 198.202C331.357 198.066 331.419 197.928 331.476 197.789C331.534 197.65 331.587 197.51 331.635 197.368C331.683 197.226 331.727 197.083 331.766 196.939C331.804 196.794 331.838 196.649 331.867 196.503C331.897 196.357 331.921 196.21 331.94 196.063C331.96 195.916 331.975 195.768 331.984 195.62C331.994 195.472 331.999 195.324 331.999 195.175L331.996 152.338C331.996 152.142 331.987 151.946 331.97 151.751C331.953 151.556 331.928 151.362 331.894 151.169C331.86 150.975 331.818 150.783 331.767 150.593C331.717 150.403 331.658 150.214 331.59 150.028C331.524 149.842 331.449 149.658 331.366 149.477C331.283 149.296 331.192 149.118 331.093 148.943C330.995 148.769 330.889 148.598 330.775 148.43C330.662 148.263 330.542 148.1 330.415 147.941C330.287 147.783 330.152 147.628 330.011 147.479C329.87 147.33 329.723 147.185 329.57 147.046C329.416 146.907 329.257 146.774 329.091 146.646C328.927 146.518 328.756 146.396 328.581 146.28C328.405 146.164 328.224 146.054 328.039 145.951C327.853 145.847 327.664 145.751 327.47 145.661C327.277 145.57 327.079 145.487 326.878 145.411C326.678 145.335 326.474 145.266 326.267 145.204L203.363 108.397C202.935 108.269 202.498 108.173 202.053 108.108C201.607 108.042 201.159 108.01 200.708 108.01C200.257 108.01 199.808 108.043 199.363 108.108C198.917 108.173 198.48 108.269 198.052 108.398ZM78.7437 152.959L200.708 116.414L322.679 152.941L322.682 194.014L206.318 159.166C202.58 158.046 198.843 158.047 195.105 159.167L78.7468 194.032L78.7437 152.959Z" fill="#FFB6B6"/>
</g>
<defs>
<filter id="filter0_d_31_27" x="66.4268" y="194.675" width="268.573" height="100.706" filterUnits="userSpaceOnUse" color-interpolation-filters="sRGB">
<feFlood flood-opacity="0" result="BackgroundImageFix"/>
<feColorMatrix in="SourceAlpha" type="matrix" values="0 0 0 0 0 0 0 0 0 0 0 0 0 0 0 0 0 0 127 0" result="hardAlpha"/>
<feOffset/>
<feGaussianBlur stdDeviation="1.5"/>
<feColorMatrix type="matrix" values="0 0 0 0 1 0 0 0 0 1 0 0 0 0 1 0 0 0 0.729 0"/>
<feBlend mode="normal" in2="BackgroundImageFix" result="effect1_dropShadow_31_27"/>
<feBlend mode="normal" in="SourceGraphic" in2="effect1_dropShadow_31_27" result="shape"/>
</filter>
<filter id="filter1_d_31_27" x="66.4268" y="105.01" width="268.573" height="100.706" filterUnits="userSpaceOnUse" color-interpolation-filters="sRGB">
<feFlood flood-opacity="0" result="BackgroundImageFix"/>
<feColorMatrix in="SourceAlpha" type="matrix" values="0 0 0 0 0 0 0 0 0 0 0 0 0 0 0 0 0 0 127 0" result="hardAlpha"/>
<feOffset/>
<feGaussianBlur stdDeviation="1.5"/>
<feColorMatrix type="matrix" values="0 0 0 0 1 0 0 0 0 1 0 0 0 0 1 0 0 0 0.729 0"/>
<feBlend mode="normal" in2="BackgroundImageFix" result="effect1_dropShadow_31_27"/>
<feBlend mode="normal" in="SourceGraphic" in2="effect1_dropShadow_31_27" result="shape"/>
</filter>
</defs>
</svg>
