<?xml version="1.0" encoding="utf-8"?>
<svg width="400" height="200" viewBox="0 0 400 200" fill="none" xmlns="http://www.w3.org/2000/svg">
  <defs>
    <clipPath id="clip_path_1">
      <rect width="400" height="200" />
    </clipPath>
    <linearGradient id="gradient_2" gradientUnits="userSpaceOnUse" x1="193" y1="0" x2="193" y2="162">
      <stop offset="0" stop-color="#D0FFD0" />
      <stop offset="1" stop-color="#89FF89" />
    </linearGradient>
    <filter color-interpolation-filters="sRGB" x="-384" y="-384" width="386" height="386" id="filter_3">
      <feFlood flood-opacity="0" result="BackgroundImageFix_1" />
      <feColorMatrix type="matrix" values="0 0 0 0 0 0 0 0 0 0 0 0 0 0 0 0 0 0 1 0" in="SourceAlpha" />
      <feOffset dx="0" dy="0" />
      <feGaussianBlur stdDeviation="5" />
      <feColorMatrix type="matrix" values="0 0 0 0 1 0 0 0 0 1 0 0 0 0 1 0 0 0 0.251 0" />
      <feBlend mode="normal" in2="BackgroundImageFix_1" result="Shadow_2" />
      <feBlend mode="normal" in="SourceGraphic" in2="Shadow_2" result="Shape_3" />
    </filter>
  </defs>
  <g clip-path="url(#clip_path_1)" transform="matrix(-1 0 0 -1 400 200)">
    <g filter="url(#filter_3)" transform="translate(7 7)">
      <path d="M200.449 4.30081L352.694 92.1992Q353.116 92.4431 353.522 92.714Q353.927 92.985 354.314 93.2819Q354.701 93.5788 355.068 93.9004Q355.434 94.222 355.779 94.5668Q356.124 94.9117 356.446 95.2784Q356.767 95.6451 357.064 96.032Q357.361 96.419 357.632 96.8245Q357.903 97.23 358.147 97.6524Q358.391 98.0748 358.607 98.5122Q358.822 98.9496 359.009 99.4002Q359.196 99.8508 359.352 100.313Q359.509 100.775 359.635 101.246Q359.762 101.717 359.857 102.195Q359.952 102.673 360.015 103.157Q360.079 103.641 360.111 104.127Q360.143 104.614 360.143 105.102L360.143 280.898Q360.143 281.386 360.111 281.873Q360.079 282.359 360.015 282.843Q359.952 283.327 359.857 283.805Q359.762 284.283 359.635 284.754Q359.509 285.226 359.352 285.687Q359.195 286.149 359.009 286.6Q358.822 287.05 358.607 287.488Q358.391 287.925 358.147 288.348Q357.903 288.77 357.632 289.176Q357.361 289.581 357.064 289.968Q356.767 290.355 356.446 290.722Q356.124 291.088 355.779 291.433Q355.434 291.778 355.068 292.1Q354.701 292.421 354.314 292.718Q353.927 293.015 353.522 293.286Q353.116 293.557 352.694 293.801L200.449 381.699Q200.027 381.943 199.589 382.159Q199.152 382.375 198.701 382.561Q198.251 382.748 197.789 382.905Q197.327 383.061 196.856 383.188Q196.385 383.314 195.907 383.409Q195.428 383.504 194.945 383.568Q194.461 383.631 193.974 383.663Q193.488 383.695 193 383.695Q192.512 383.695 192.026 383.663Q191.539 383.631 191.055 383.568Q190.572 383.504 190.093 383.409Q189.615 383.314 189.144 383.188Q188.673 383.061 188.211 382.905Q187.749 382.748 187.299 382.561Q186.848 382.375 186.411 382.159Q185.973 381.943 185.551 381.699L33.3063 293.801Q32.8839 293.557 32.4784 293.286Q32.0729 293.015 31.6859 292.718Q31.299 292.421 30.9323 292.1Q30.5656 291.778 30.2208 291.433Q29.8759 291.088 29.5543 290.722Q29.2327 290.355 28.9358 289.968Q28.6389 289.581 28.3679 289.176Q28.097 288.77 27.8531 288.348Q27.6093 287.925 27.3935 287.488Q27.1778 287.05 26.9912 286.6Q26.8045 286.149 26.6478 285.687Q26.491 285.226 26.3648 284.754Q26.2385 284.283 26.1434 283.805Q26.0482 283.327 25.9846 282.843Q25.9209 282.359 25.889 281.873Q25.8571 281.386 25.8571 280.898L25.8571 105.102Q25.8571 104.614 25.889 104.127Q25.9209 103.641 25.9845 103.157Q26.0482 102.673 26.1433 102.195Q26.2385 101.717 26.3647 101.246Q26.491 100.775 26.6477 100.313Q26.8045 99.8509 26.9911 99.4003Q27.1778 98.9497 27.3935 98.5123Q27.6092 98.0748 27.8531 97.6524Q28.0969 97.2301 28.3679 96.8245Q28.6389 96.419 28.9358 96.0321Q29.2327 95.6451 29.5543 95.2785Q29.8758 94.9118 30.2207 94.5669Q30.5656 94.222 30.9323 93.9004Q31.299 93.5788 31.6859 93.2819Q32.0728 92.985 32.4784 92.7141Q32.8839 92.4431 33.3063 92.1992L185.551 4.30081Q185.973 4.05695 186.411 3.84123Q186.848 3.62552 187.299 3.43887Q187.749 3.25223 188.211 3.09546Q188.673 2.93868 189.144 2.81245Q189.615 2.68622 190.093 2.59107Q190.572 2.49592 191.055 2.43226Q191.539 2.36859 192.026 2.3367Q192.512 2.3048 193 2.3048Q193.488 2.3048 193.974 2.3367Q194.461 2.36859 194.945 2.43225Q195.428 2.49592 195.907 2.59107Q196.385 2.68622 196.856 2.81245Q197.327 2.93868 197.789 3.09545Q198.251 3.25223 198.701 3.43887Q199.152 3.62552 199.589 3.84123Q200.027 4.05695 200.449 4.30081L200.449 4.30081Z" />
      <path d="M326.837 89.8944L174.592 1.99601Q174.17 1.75215 173.732 1.53643Q173.295 1.32072 172.844 1.13408Q172.394 0.947432 171.932 0.790658Q171.47 0.633884 170.999 0.507652Q170.528 0.38142 170.049 0.286269Q169.571 0.191119 169.088 0.127458Q168.604 0.0637976 168.117 0.031899Q167.631 3.51693e-07 167.143 4.17233e-07Q166.655 4.82772e-07 166.169 0.0318993Q165.682 0.063798 165.198 0.127459Q164.715 0.19112 164.236 0.28627Q163.758 0.381421 163.287 0.507653Q162.816 0.633885 162.354 0.790659Q161.892 0.947433 161.442 1.13408Q160.991 1.32072 160.554 1.53644Q160.116 1.75215 159.694 1.99601L7.44921 89.8944Q7.02683 90.1383 6.62131 90.4093Q6.21578 90.6802 5.82884 90.9771Q5.4419 91.2741 5.07521 91.5956Q4.70852 91.9172 4.36365 92.2621Q4.01877 92.607 3.6972 92.9737Q3.37562 93.3403 3.07871 93.7273Q2.7818 94.1142 2.51084 94.5197Q2.23987 94.9253 1.99601 95.3477Q1.75215 95.77 1.53643 96.2075Q1.32072 96.6449 1.13407 97.0955Q0.94743 97.5461 0.790656 98.0079Q0.633883 98.4698 0.50765 98.9409Q0.381418 99.412 0.286268 99.8903Q0.191118 100.369 0.127457 100.852Q0.0637968 101.336 0.0318983 101.822Q-2.16299e-07 102.309 0 102.797L3.05176e-05 278.594Q3.07339e-05 279.081 0.0319296 279.568Q0.0638285 280.055 0.127489 280.538Q0.19115 281.022 0.286301 281.5Q0.381451 281.978 0.507684 282.45Q0.633916 282.921 0.79069 283.383Q0.947464 283.844 1.13411 284.295Q1.32075 284.746 1.53647 285.183Q1.75218 285.62 1.99604 286.043Q2.23991 286.465 2.51087 286.871Q2.78184 287.276 3.07874 287.663Q3.37565 288.05 3.69723 288.417Q4.01881 288.784 4.36368 289.128Q4.70856 289.473 5.07525 289.795Q5.44194 290.116 5.82888 290.413Q6.21581 290.71 6.62134 290.981Q7.02687 291.252 7.44925 291.496L159.694 379.394Q160.116 379.638 160.554 379.854Q160.991 380.07 161.442 380.256Q161.892 380.443 162.354 380.6Q162.816 380.757 163.287 380.883Q163.758 381.009 164.236 381.104Q164.715 381.199 165.198 381.263Q165.682 381.327 166.169 381.359Q166.655 381.39 167.143 381.39Q167.631 381.39 168.117 381.359Q168.604 381.327 169.088 381.263Q169.571 381.199 170.049 381.104Q170.528 381.009 170.999 380.883Q171.47 380.757 171.932 380.6Q172.394 380.443 172.844 380.256Q173.295 380.07 173.732 379.854Q174.17 379.638 174.592 379.394L326.837 291.496Q327.259 291.252 327.665 290.981Q328.07 290.71 328.457 290.413Q328.844 290.116 329.211 289.795Q329.577 289.473 329.922 289.128Q330.267 288.784 330.589 288.417Q330.91 288.05 331.207 287.663Q331.504 287.276 331.775 286.871Q332.046 286.465 332.29 286.043Q332.534 285.62 332.749 285.183Q332.965 284.746 333.152 284.295Q333.338 283.844 333.495 283.383Q333.652 282.921 333.778 282.45Q333.904 281.978 334 281.5Q334.095 281.022 334.158 280.538Q334.222 280.055 334.254 279.568Q334.286 279.081 334.286 278.594L334.286 102.797Q334.286 102.309 334.254 101.822Q334.222 101.336 334.158 100.852Q334.095 100.369 334 99.8903Q333.904 99.4119 333.778 98.9408Q333.652 98.4697 333.495 98.0079Q333.338 97.546 333.152 97.0954Q332.965 96.6448 332.749 96.2074Q332.534 95.77 332.29 95.3476Q332.046 94.9252 331.775 94.5197Q331.504 94.1142 331.207 93.7272Q330.91 93.3403 330.589 92.9736Q330.267 92.6069 329.922 92.262Q329.577 91.9172 329.211 91.5956Q328.844 91.274 328.457 90.9771Q328.07 90.6802 327.665 90.4092Q327.259 90.1383 326.837 89.8944ZM167.143 66.9772L60 128.836L60 252.554L167.143 314.413L274.286 252.554L274.286 128.836L167.143 66.9772Z" fill="url(#gradient_2)" fill-rule="evenodd" />
    </g>
    <g transform="translate(99 100)">
      <path d="M101.5 0L189.402 50.75L189.402 152.25L101.5 203L13.5984 152.25L13.5984 50.75L101.5 0Z" />
      <path d="M87.9016 69.282L60 85.391L60 117.609L87.9016 133.718L115.803 117.609L115.803 85.391L87.9016 69.282ZM1.52588e-05 152.25L87.9016 203L175.803 152.25L175.803 50.75L87.9016 0L0 50.75L1.52588e-05 152.25Z" fill="#89FF89" fill-rule="evenodd" />
    </g>
  </g>
</svg>