<?xml version="1.0" encoding="utf-8"?>
<svg width="400" height="200" viewBox="0 0 400 200" fill="none" xmlns="http://www.w3.org/2000/svg">
  <defs>
    <clipPath id="clip_path_1">
      <rect width="400" height="200" />
    </clipPath>
    <linearGradient id="gradient_2" gradientUnits="userSpaceOnUse" x1="101.5" y1="0" x2="101" y2="169.748">
      <stop offset="0" stop-color="#FFFFFF" />
      <stop offset="1" stop-color="#89FF89" />
    </linearGradient>
    <filter color-interpolation-filters="sRGB" x="-332" y="-291" width="334" height="293" id="filter_3">
      <feFlood flood-opacity="0" result="BackgroundImageFix_1" />
      <feColorMatrix type="matrix" values="0 0 0 0 0 0 0 0 0 0 0 0 0 0 0 0 0 0 1 0" in="SourceAlpha" />
      <feOffset dx="0" dy="0" />
      <feGaussianBlur stdDeviation="5" />
      <feColorMatrix type="matrix" values="0 0 0 0 1 0 0 0 0 1 0 0 0 0 1 0 0 0 0.251 0" />
      <feBlend mode="normal" in2="BackgroundImageFix_1" result="Shadow_2" />
      <feBlend mode="normal" in="SourceGraphic" in2="Shadow_2" result="Shape_3" />
    </filter>
  </defs>
  <g clip-path="url(#clip_path_1)">
    <g transform="translate(99 14)">
      <path d="M110.307 7.21373L184.31 67.8295Q184.607 68.073 184.891 68.3326Q185.174 68.5921 185.443 68.8669Q185.711 69.1418 185.964 69.431Q186.217 69.7202 186.454 70.023Q186.69 70.3258 186.91 70.6411Q187.13 70.9565 187.331 71.2835Q187.533 71.6106 187.717 71.9482Q187.9 72.2859 188.064 72.6332Q188.229 72.9805 188.374 73.3364Q188.519 73.6922 188.644 74.0555Q188.769 74.4189 188.874 74.7886Q188.979 75.1582 189.063 75.5331Q189.147 75.9081 189.211 76.287Q189.274 76.666 189.317 77.048Q189.359 77.4299 189.38 77.8136Q189.402 78.1973 189.402 78.5815L189.402 209.418Q189.402 209.803 189.38 210.186Q189.359 210.57 189.317 210.952Q189.274 211.334 189.211 211.713Q189.147 212.092 189.063 212.467Q188.979 212.842 188.874 213.211Q188.769 213.581 188.644 213.944Q188.519 214.308 188.374 214.664Q188.229 215.019 188.064 215.367Q187.9 215.714 187.717 216.052Q187.533 216.389 187.331 216.716Q187.13 217.043 186.91 217.359Q186.69 217.674 186.454 217.977Q186.217 218.28 185.964 218.569Q185.711 218.858 185.443 219.133Q185.174 219.408 184.891 219.667Q184.607 219.927 184.31 220.17L110.307 280.786Q110.076 280.975 109.838 281.154Q109.599 281.333 109.353 281.501Q109.107 281.67 108.854 281.828Q108.601 281.985 108.342 282.132Q108.082 282.279 107.817 282.414Q107.551 282.55 107.28 282.674Q107.009 282.798 106.733 282.91Q106.457 283.022 106.176 283.123Q105.895 283.223 105.611 283.311Q105.326 283.399 105.037 283.475Q104.749 283.551 104.458 283.614Q104.167 283.678 103.873 283.729Q103.579 283.78 103.283 283.818Q102.988 283.856 102.691 283.882Q102.394 283.907 102.096 283.92Q101.798 283.933 101.5 283.933Q101.202 283.933 100.904 283.92Q100.606 283.907 100.309 283.882Q100.012 283.856 99.7165 283.818Q99.4209 283.78 99.1271 283.729Q98.8334 283.678 98.5421 283.614Q98.2508 283.551 97.9625 283.475Q97.6742 283.399 97.3895 283.311Q97.1047 283.223 96.8239 283.122Q96.5432 283.022 96.267 282.91Q95.9909 282.798 95.7197 282.674Q95.4486 282.55 95.1831 282.414Q94.9176 282.279 94.6581 282.132Q94.3986 281.985 94.1456 281.828Q93.8927 281.67 93.6467 281.501Q93.4007 281.333 93.1622 281.154Q92.9237 280.975 92.6931 280.786L18.6899 220.17Q18.3927 219.927 18.1093 219.667Q17.8259 219.408 17.5573 219.133Q17.2888 218.858 17.0358 218.569Q16.7828 218.28 16.5461 217.977Q16.3095 217.674 16.09 217.359Q15.8704 217.043 15.6687 216.716Q15.4669 216.389 15.2835 216.052Q15.1001 215.714 14.9356 215.367Q14.7712 215.019 14.6261 214.664Q14.4811 214.308 14.356 213.944Q14.2309 213.581 14.126 213.211Q14.0211 212.842 13.9368 212.467Q13.8526 212.092 13.7891 211.713Q13.7257 211.334 13.6833 210.952Q13.6409 210.57 13.6197 210.186Q13.5984 209.803 13.5984 209.418L13.5984 78.5815Q13.5984 78.1973 13.6196 77.8136Q13.6409 77.4299 13.6833 77.048Q13.7257 76.6661 13.7891 76.2871Q13.8525 75.9081 13.9368 75.5332Q14.0211 75.1583 14.126 74.7886Q14.2308 74.4189 14.356 74.0556Q14.4811 73.6923 14.6261 73.3364Q14.7712 72.9805 14.9356 72.6332Q15.1001 72.2859 15.2835 71.9483Q15.4669 71.6106 15.6686 71.2836Q15.8704 70.9565 16.09 70.6412Q16.3095 70.3258 16.5461 70.023Q16.7828 69.7203 17.0357 69.431Q17.2887 69.1418 17.5573 68.867Q17.8259 68.5922 18.1093 68.3326Q18.3927 68.0731 18.6899 67.8296L92.6931 7.21373Q92.9237 7.02482 93.1622 6.84598Q93.4007 6.66714 93.6467 6.49869Q93.8927 6.33024 94.1456 6.17249Q94.3986 6.01475 94.6581 5.86799Q94.9176 5.72123 95.1831 5.58574Q95.4486 5.45025 95.7197 5.32626Q95.9909 5.20228 96.267 5.09003Q96.5432 4.97779 96.8239 4.87749Q97.1047 4.77719 97.3895 4.68902Q97.6742 4.60085 97.9625 4.52498Q98.2508 4.4491 98.5421 4.38566Q98.8334 4.32221 99.1271 4.27131Q99.4209 4.22042 99.7165 4.18216Q100.012 4.14391 100.309 4.11836Q100.606 4.09282 100.904 4.08004Q101.202 4.06726 101.5 4.06726Q101.798 4.06726 102.096 4.08004Q102.394 4.09282 102.691 4.11836Q102.988 4.14391 103.283 4.18216Q103.579 4.22042 103.873 4.27131Q104.167 4.32221 104.458 4.38566Q104.749 4.4491 105.037 4.52498Q105.326 4.60085 105.611 4.68902Q105.895 4.77719 106.176 4.87749Q106.457 4.97779 106.733 5.09003Q107.009 5.20228 107.28 5.32626Q107.551 5.45025 107.817 5.58574Q108.082 5.72123 108.342 5.86799Q108.601 6.01475 108.854 6.17249Q109.107 6.33024 109.353 6.49869Q109.599 6.66714 109.838 6.84598Q110.076 7.02482 110.307 7.21373Z" />
      <path d="M170.712 63.7623L96.7085 3.14647Q96.4779 2.95757 96.2394 2.77872Q96.0009 2.59988 95.7549 2.43143Q95.5089 2.26299 95.256 2.10524Q95.003 1.94749 94.7435 1.80073Q94.4841 1.65398 94.2185 1.51848Q93.953 1.38299 93.6819 1.25901Q93.4108 1.13502 93.1346 1.02278Q92.8584 0.910533 92.5777 0.810234Q92.2969 0.709935 92.0121 0.621766Q91.7274 0.533597 91.4391 0.45772Q91.1508 0.381843 90.8595 0.318398Q90.5682 0.254953 90.2745 0.204056Q89.9807 0.153159 89.6851 0.114905Q89.3894 0.0766501 89.0924 0.0511078Q88.7954 0.0255655 88.4976 0.0127826Q88.1997 -3.57628e-07 87.9016 -3.57628e-07Q87.6035 -3.57628e-07 87.3056 0.0127826Q87.0078 0.0255655 86.7108 0.0511078Q86.4138 0.0766501 86.1181 0.114905Q85.8225 0.153159 85.5287 0.204056Q85.235 0.254953 84.9437 0.318398Q84.6524 0.381843 84.3641 0.45772Q84.0758 0.533597 83.7911 0.621766Q83.5063 0.709935 83.2255 0.810234Q82.9448 0.910533 82.6686 1.02278Q82.3925 1.13502 82.1213 1.25901Q81.8502 1.38299 81.5847 1.51848Q81.3192 1.65398 81.0597 1.80073Q80.8002 1.94749 80.5472 2.10524Q80.2943 2.26299 80.0483 2.43143Q79.8023 2.59988 79.5638 2.77872Q79.3253 2.95757 79.0947 3.14647L5.09152 63.7623Q4.79425 64.0058 4.51088 64.2654Q4.22752 64.5249 3.95893 64.7997Q3.69034 65.0745 3.43734 65.3638Q3.18435 65.653 2.94772 65.9558Q2.71109 66.2585 2.49155 66.5739Q2.27202 66.8893 2.07024 67.2163Q1.86846 67.5433 1.68507 67.881Q1.50167 68.2187 1.33721 68.566Q1.17275 68.9133 1.02773 69.2691Q0.882712 69.625 0.757577 69.9883Q0.632442 70.3516 0.527573 70.7213Q0.422705 71.091 0.338422 71.4659Q0.25414 71.8408 0.190703 72.2198Q0.127265 72.5988 0.0848647 72.9807Q0.0424648 73.3627 0.0212324 73.7463Q0 74.13 0 74.5143L1.52588e-05 205.351Q1.52588e-05 205.735 0.0212477 206.119Q0.04248 206.503 0.08488 206.885Q0.12728 207.267 0.190718 207.646Q0.254156 208.025 0.338438 208.4Q0.42272 208.775 0.527588 209.144Q0.632457 209.514 0.757592 209.877Q0.882727 210.241 1.02775 210.596Q1.17276 210.952 1.33722 211.299Q1.50168 211.647 1.68508 211.984Q1.86848 212.322 2.07026 212.649Q2.27203 212.976 2.49157 213.292Q2.71111 213.607 2.94773 213.91Q3.18436 214.213 3.43736 214.502Q3.69035 214.791 3.95894 215.066Q4.22754 215.341 4.5109 215.6Q4.79426 215.86 5.09154 216.103L79.0947 276.719Q79.3253 276.908 79.5638 277.087Q79.8023 277.266 80.0483 277.434Q80.2943 277.603 80.5472 277.76Q80.8002 277.918 81.0596 278.065Q81.3191 278.212 81.5847 278.347Q81.8502 278.483 82.1213 278.607Q82.3925 278.73 82.6686 278.843Q82.9448 278.955 83.2255 279.055Q83.5063 279.156 83.7911 279.244Q84.0758 279.332 84.3641 279.408Q84.6524 279.484 84.9437 279.547Q85.235 279.611 85.5287 279.661Q85.8225 279.712 86.1181 279.751Q86.4138 279.789 86.7108 279.814Q87.0078 279.84 87.3057 279.853Q87.6035 279.865 87.9016 279.865Q88.1997 279.865 88.4976 279.853Q88.7954 279.84 89.0924 279.814Q89.3894 279.789 89.6851 279.751Q89.9807 279.712 90.2745 279.661Q90.5682 279.611 90.8595 279.547Q91.1508 279.484 91.4391 279.408Q91.7274 279.332 92.0121 279.244Q92.2969 279.156 92.5777 279.055Q92.8584 278.955 93.1346 278.843Q93.4108 278.73 93.6819 278.607Q93.953 278.483 94.2185 278.347Q94.4841 278.212 94.7435 278.065Q95.003 277.918 95.256 277.76Q95.5089 277.603 95.7549 277.434Q96.0009 277.266 96.2394 277.087Q96.4779 276.908 96.7085 276.719L170.712 216.103Q171.009 215.86 171.292 215.6Q171.576 215.341 171.844 215.066Q172.113 214.791 172.366 214.502Q172.619 214.213 172.855 213.91Q173.092 213.607 173.312 213.292Q173.531 212.976 173.733 212.649Q173.935 212.322 174.118 211.984Q174.301 211.647 174.466 211.299Q174.63 210.952 174.775 210.596Q174.92 210.24 175.046 209.877Q175.171 209.514 175.276 209.144Q175.38 208.775 175.465 208.4Q175.549 208.025 175.612 207.646Q175.676 207.267 175.718 206.885Q175.761 206.503 175.782 206.119Q175.803 205.735 175.803 205.351L175.803 74.5143Q175.803 74.13 175.782 73.7463Q175.761 73.3626 175.718 72.9807Q175.676 72.5988 175.612 72.2198Q175.549 71.8408 175.465 71.4659Q175.38 71.091 175.276 70.7213Q175.171 70.3516 175.046 69.9883Q174.92 69.625 174.775 69.2691Q174.63 68.9133 174.466 68.566Q174.301 68.2187 174.118 67.881Q173.935 67.5433 173.733 67.2163Q173.531 66.8893 173.312 66.5739Q173.092 66.2585 172.855 65.9557Q172.619 65.653 172.366 65.3637Q172.113 65.0745 171.844 64.7997Q171.576 64.5249 171.292 64.2653Q171.009 64.0058 170.712 63.7623ZM87.9016 73.4912L60 96.3454L60 183.52L87.9016 206.374L115.803 183.52L115.803 96.3453L87.9016 73.4912Z" fill="url(#gradient_2)" fill-rule="evenodd" />
    </g>
    <g filter="url(#filter_3)" transform="translate(33 100)">
      <path d="M172.984 2.62491L325.086 69.3401Q325.58 69.5567 326.057 69.8083Q326.533 70.06 326.991 70.3455Q327.448 70.6309 327.883 70.9487Q328.319 71.2665 328.73 71.6149Q329.142 71.9633 329.527 72.3406Q329.912 72.7178 330.269 73.1219Q330.626 73.526 330.952 73.9549Q331.279 74.3837 331.574 74.835Q331.869 75.2864 332.13 75.7578Q332.392 76.2293 332.619 76.7184Q332.845 77.2075 333.036 77.7117Q333.227 78.216 333.381 78.7327Q333.534 79.2494 333.651 79.7758Q333.767 80.3023 333.844 80.8358Q333.922 81.3693 333.961 81.907Q334 82.4447 334 82.9838L334 210.016Q334 210.555 333.961 211.093Q333.922 211.631 333.844 212.164Q333.767 212.698 333.651 213.224Q333.534 213.751 333.381 214.267Q333.227 214.784 333.036 215.288Q332.845 215.792 332.619 216.282Q332.392 216.771 332.13 217.242Q331.869 217.714 331.574 218.165Q331.279 218.616 330.952 219.045Q330.626 219.474 330.269 219.878Q329.912 220.282 329.527 220.659Q329.142 221.037 328.73 221.385Q328.319 221.733 327.883 222.051Q327.448 222.369 326.991 222.654Q326.533 222.94 326.056 223.192Q325.58 223.443 325.086 223.66L172.984 290.375Q172.279 290.685 171.545 290.92Q170.811 291.155 170.057 291.313Q169.303 291.471 168.537 291.55Q167.771 291.63 167 291.63Q166.23 291.63 165.463 291.55Q164.697 291.471 163.943 291.313Q163.189 291.155 162.455 290.92Q161.721 290.685 161.016 290.375L8.91404 223.66Q8.42033 223.443 7.94356 223.192Q7.4668 222.94 7.00947 222.654Q6.55214 222.369 6.11664 222.051Q5.68114 221.733 5.26975 221.385Q4.85836 221.037 4.47322 220.659Q4.08809 220.282 3.73123 219.878Q3.37437 219.474 3.04765 219.045Q2.72093 218.616 2.42606 218.165Q2.13119 217.714 1.86971 217.242Q1.60823 216.771 1.38151 216.282Q1.15479 215.792 0.964018 215.288Q0.773244 214.784 0.619413 214.267Q0.465583 213.751 0.3495 213.224Q0.233417 212.698 0.15569 212.164Q0.0779623 211.631 0.0389965 211.093Q3.07289e-05 210.555 3.05176e-05 210.016L3.8147e-06 82.9838Q3.60342e-06 82.4447 0.038969 81.907Q0.0779344 81.3693 0.155662 80.8358Q0.233389 80.3024 0.349471 79.7759Q0.465553 79.2494 0.619384 78.7327Q0.773214 78.216 0.963988 77.7118Q1.15476 77.2076 1.38148 76.7184Q1.6082 76.2293 1.86968 75.7578Q2.13116 75.2864 2.42603 74.8351Q2.7209 74.3837 3.04762 73.9549Q3.37434 73.5261 3.7312 73.122Q4.08806 72.7179 4.47319 72.3406Q4.85833 71.9634 5.26972 71.615Q5.68111 71.2665 6.11661 70.9488Q6.55211 70.631 7.00944 70.3455Q7.46677 70.06 7.94353 69.8084Q8.4203 69.5567 8.91401 69.3401L161.016 2.62491Q161.721 2.31542 162.455 2.08037Q163.189 1.84532 163.943 1.68721Q164.697 1.52911 165.463 1.44963Q166.23 1.37015 167 1.37015Q167.771 1.37015 168.537 1.44963Q169.303 1.52911 170.057 1.68721Q170.811 1.84532 171.545 2.08037Q172.279 2.31542 172.984 2.62491Z" />
      <path d="M325.086 67.97L172.984 1.25475Q172.279 0.945268 171.545 0.710217Q170.811 0.475167 170.057 0.317059Q169.303 0.158952 168.537 0.0794742Q167.771 -3.57628e-06 167 -3.57628e-06Q166.23 -3.57628e-06 165.463 0.0794742Q164.697 0.158952 163.943 0.317059Q163.189 0.475167 162.455 0.710217Q161.721 0.945268 161.016 1.25475L8.91401 67.97Q8.4203 68.1865 7.94353 68.4382Q7.46676 68.6899 7.00943 68.9754Q6.55211 69.2608 6.11661 69.5786Q5.68111 69.8964 5.26971 70.2448Q4.85832 70.5932 4.47319 70.9705Q4.08805 71.3477 3.73119 71.7518Q3.37433 72.1559 3.04761 72.5847Q2.72089 73.0136 2.42602 73.4649Q2.13115 73.9162 1.86967 74.3877Q1.6082 74.8591 1.38148 75.3483Q1.15476 75.8374 0.963984 76.3416Q0.773211 76.8458 0.61938 77.3625Q0.46555 77.8792 0.349467 78.4057Q0.233385 78.9322 0.155658 79.4657Q0.0779306 79.9991 0.0389652 80.5368Q-2.1128e-07 81.0746 0 81.6137L2.67029e-05 208.646Q2.69142e-05 209.185 0.0389927 209.723Q0.0779585 210.261 0.155686 210.794Q0.233414 211.328 0.349496 211.854Q0.465579 212.38 0.61941 212.897Q0.77324 213.414 0.964014 213.918Q1.15479 214.422 1.38151 214.911Q1.60823 215.401 1.86971 215.872Q2.13118 216.343 2.42605 216.795Q2.72093 217.246 3.04764 217.675Q3.37436 218.104 3.73122 218.508Q4.08809 218.912 4.47322 219.289Q4.85835 219.666 5.26974 220.015Q5.68114 220.363 6.11664 220.681Q6.55214 220.999 7.00947 221.284Q7.46679 221.57 7.94356 221.821Q8.42033 222.073 8.91404 222.29L161.016 289.005Q161.721 289.314 162.455 289.55Q163.189 289.785 163.943 289.943Q164.697 290.101 165.463 290.18Q166.23 290.26 167 290.26Q167.771 290.26 168.537 290.18Q169.303 290.101 170.057 289.943Q170.811 289.785 171.545 289.549Q172.279 289.314 172.984 289.005L325.086 222.29Q325.58 222.073 326.057 221.821Q326.533 221.57 326.991 221.284Q327.448 220.999 327.883 220.681Q328.319 220.363 328.73 220.015Q329.142 219.667 329.527 219.289Q329.912 218.912 330.269 218.508Q330.626 218.104 330.952 217.675Q331.279 217.246 331.574 216.795Q331.869 216.343 332.13 215.872Q332.392 215.401 332.619 214.911Q332.845 214.422 333.036 213.918Q333.227 213.414 333.381 212.897Q333.534 212.38 333.651 211.854Q333.767 211.328 333.844 210.794Q333.922 210.261 333.961 209.723Q334 209.185 334 208.646L334 81.6136Q334 81.0745 333.961 80.5368Q333.922 79.9991 333.844 79.4656Q333.767 78.9322 333.651 78.4057Q333.534 77.8792 333.381 77.3625Q333.227 76.8458 333.036 76.3416Q332.845 75.8374 332.619 75.3482Q332.392 74.8591 332.13 74.3877Q331.869 73.9162 331.574 73.4649Q331.279 73.0135 330.952 72.5847Q330.626 72.1559 330.269 71.7518Q329.912 71.3477 329.527 70.9704Q329.142 70.5932 328.73 70.2448Q328.319 69.8964 327.883 69.5786Q327.448 69.2608 326.991 68.9753Q326.533 68.6899 326.056 68.4382Q325.58 68.1865 325.086 67.97ZM167 64.1478L60 111.08L60 179.179L167 226.112L274 179.179L274 111.08L167 64.1478Z" fill="#89FF89" fill-rule="evenodd" />
    </g>
  </g>
</svg>