<svg width="60" height="370" viewBox="0 0 60 370" fill="none" xmlns="http://www.w3.org/2000/svg">
<path fill-rule="evenodd" clip-rule="evenodd" d="M11.8291 52.2525L29.6156 40.1276C29.6776 40.0853 29.7408 40.0535 29.8053 40.0321C29.8698 40.0107 29.9346 40 29.9999 40C30.0652 40 30.1301 40.0107 30.1946 40.0321C30.2591 40.0535 30.3223 40.0853 30.3842 40.1276L48.1709 52.2525C48.2009 52.2729 48.2304 52.2957 48.2594 52.3208C48.2885 52.3459 48.317 52.3733 48.3451 52.403C48.3731 52.4327 48.4005 52.4646 48.4273 52.4986C48.4542 52.5326 48.4803 52.5688 48.5058 52.607C48.5312 52.6452 48.5558 52.6854 48.5797 52.7275C48.6036 52.7696 48.6267 52.8136 48.6489 52.8594C48.6711 52.9052 48.6924 52.9528 48.7128 53.002C48.7332 53.0512 48.7527 53.1019 48.7711 53.1543C48.7895 53.2066 48.8069 53.2603 48.8234 53.3154C48.8398 53.3704 48.8551 53.4267 48.8693 53.4843C48.8836 53.5418 48.8968 53.6004 48.9088 53.66C48.9208 53.7196 48.9316 53.7801 48.9413 53.8415C48.951 53.9028 48.9595 53.9648 48.9669 54.0275C48.9742 54.0903 48.9803 54.1535 48.9852 54.2171C48.9901 54.2808 48.9937 54.3448 48.9962 54.4091C48.9987 54.4733 49 54.5377 49 54.6022L49 68.7102C48.9999 68.7591 48.9992 68.808 48.9978 68.8569C48.9964 68.9056 48.9943 68.9542 48.9914 69.0028C48.9886 69.0513 48.9851 69.0996 48.9809 69.1477C48.9766 69.1957 48.9717 69.2435 48.9662 69.2911C48.9605 69.3386 48.9542 69.3858 48.9473 69.4325C48.9403 69.4792 48.9326 69.5255 48.9244 69.5714C48.916 69.6171 48.907 69.6623 48.8974 69.707C48.8878 69.7517 48.8775 69.7959 48.8666 69.8394C48.8557 69.883 48.8441 69.9257 48.8319 69.9678C48.8198 70.0098 48.8071 70.0512 48.7937 70.0919C48.7804 70.1325 48.7665 70.1722 48.752 70.211C48.7375 70.2499 48.7224 70.2879 48.7068 70.3249C48.6912 70.362 48.6751 70.398 48.6585 70.433C48.6418 70.4682 48.6247 70.5023 48.607 70.5354C48.5894 70.5684 48.5713 70.6004 48.5527 70.6312C48.5342 70.6621 48.5152 70.6918 48.4958 70.7203C48.4764 70.7489 48.4566 70.7762 48.4364 70.8024C48.4161 70.8286 48.3955 70.8535 48.3746 70.8772C48.3537 70.9009 48.3324 70.9233 48.3109 70.9443C48.2893 70.9655 48.2674 70.9854 48.2453 71.0039C48.2231 71.0222 48.2007 71.0393 48.178 71.0552C48.1553 71.0709 48.1325 71.0852 48.1095 71.0982C48.0863 71.1112 48.0631 71.1228 48.0397 71.133C48.0163 71.1432 47.9928 71.1519 47.9691 71.1593C47.9455 71.1666 47.9217 71.1725 47.8979 71.177C47.874 71.1816 47.8502 71.1846 47.8263 71.1863C47.8023 71.1878 47.7784 71.1879 47.7545 71.1866C47.7305 71.1854 47.7067 71.1827 47.6829 71.1786C47.659 71.1744 47.6352 71.1687 47.6115 71.1615C47.5878 71.1545 47.5643 71.1461 47.5408 71.1363C47.5173 71.1262 47.4941 71.1149 47.4711 71.1022C47.4479 71.0895 47.425 71.0754 47.4023 71.0599L30.3842 59.459C30.3223 59.4168 30.2591 59.3849 30.1946 59.3636C30.1301 59.3422 30.0652 59.3315 29.9999 59.3315C29.9346 59.3315 29.8698 59.3422 29.8053 59.3636C29.7408 59.3849 29.6776 59.4168 29.6156 59.459L12.5976 71.0599C12.5749 71.0754 12.552 71.0895 12.5289 71.1022C12.5058 71.1149 12.4825 71.1262 12.4591 71.1363C12.4357 71.1461 12.4121 71.1545 12.3884 71.1615C12.3647 71.1687 12.341 71.1744 12.3171 71.1786C12.2933 71.1827 12.2694 71.1854 12.2455 71.1866C12.2215 71.1879 12.1976 71.1878 12.1737 71.1863C12.1498 71.1846 12.1259 71.1816 12.1021 71.177C12.0782 71.1725 12.0545 71.1666 12.0308 71.1593C12.0072 71.1519 11.9836 71.1432 11.9602 71.133C11.9368 71.1228 11.9136 71.1112 11.8905 71.0982C11.8674 71.0852 11.8446 71.0709 11.8219 71.0552C11.7993 71.0393 11.7769 71.0221 11.7547 71.0036C11.7325 70.9853 11.7107 70.9655 11.6891 70.9443C11.6675 70.9233 11.6462 70.9009 11.6253 70.8772C11.6044 70.8535 11.5838 70.8286 11.5636 70.8024C11.5434 70.7762 11.5236 70.7489 11.5041 70.7203C11.4847 70.6918 11.4657 70.6621 11.4472 70.6312C11.4286 70.6004 11.4105 70.5684 11.3929 70.5354C11.3753 70.5023 11.3581 70.4682 11.3415 70.433C11.3248 70.398 11.3087 70.362 11.2931 70.3249C11.2775 70.2879 11.2625 70.2499 11.248 70.211C11.2335 70.1722 11.2195 70.1325 11.2062 70.0919C11.1928 70.0512 11.1801 70.0098 11.168 69.9678C11.1558 69.9257 11.1443 69.883 11.1334 69.8394C11.1225 69.7959 11.1122 69.7517 11.1026 69.707C11.0929 69.6623 11.084 69.6171 11.0756 69.5714C11.0673 69.5255 11.0597 69.4792 11.0527 69.4325C11.0457 69.3858 11.0394 69.3386 11.0338 69.2911C11.0282 69.2435 11.0233 69.1957 11.0191 69.1477C11.0148 69.0996 11.0113 69.0513 11.0085 69.0028C11.0057 68.9542 11.0035 68.9056 11.0021 68.8569C11.0007 68.808 11 68.7591 11 68.7102L11 54.6022C11 54.5377 11.0012 54.4733 11.0037 54.4091C11.0062 54.3448 11.0098 54.2808 11.0147 54.2171C11.0197 54.1535 11.0258 54.0903 11.0331 54.0275C11.0404 53.9648 11.0489 53.9028 11.0586 53.8415C11.0683 53.7801 11.0792 53.7196 11.0912 53.66C11.1032 53.6004 11.1163 53.5418 11.1306 53.4843C11.1448 53.4267 11.1602 53.3704 11.1766 53.3153C11.193 53.2603 11.2104 53.2066 11.2288 53.1542C11.2473 53.1019 11.2667 53.0512 11.2871 53.002C11.3075 52.9528 11.3288 52.9052 11.3511 52.8594C11.3733 52.8136 11.3963 52.7696 11.4202 52.7275C11.4441 52.6854 11.4688 52.6452 11.4942 52.607C11.5196 52.5688 11.5458 52.5326 11.5726 52.4986C11.5994 52.4645 11.6268 52.4327 11.6549 52.403C11.6829 52.3733 11.7114 52.3459 11.7405 52.3208C11.7696 52.2957 11.7991 52.2729 11.8291 52.2525Z" fill="#EDEFFF"/>
<path fill-rule="evenodd" clip-rule="evenodd" d="M11.8291 81.7552L29.6156 69.6302C29.6776 69.588 29.7408 69.5562 29.8053 69.5348C29.8698 69.5134 29.9346 69.5027 29.9999 69.5027C30.0652 69.5027 30.1301 69.5134 30.1946 69.5348C30.2591 69.5562 30.3223 69.588 30.3842 69.6302L48.1709 81.7552C48.2009 81.7756 48.2304 81.7984 48.2594 81.8235C48.2885 81.8486 48.317 81.876 48.3451 81.9057C48.3731 81.9354 48.4005 81.9672 48.4273 82.0013C48.4542 82.0353 48.4803 82.0714 48.5058 82.1097C48.5312 82.1479 48.5558 82.1881 48.5797 82.2302C48.6036 82.2723 48.6267 82.3163 48.6489 82.3621C48.6711 82.4079 48.6924 82.4554 48.7128 82.5047C48.7332 82.5539 48.7527 82.6046 48.7711 82.6569C48.7895 82.7093 48.8069 82.763 48.8234 82.818C48.8398 82.8731 48.8551 82.9294 48.8693 82.987C48.8836 83.0445 48.8968 83.1031 48.9088 83.1627C48.9208 83.2223 48.9316 83.2828 48.9413 83.3441C48.951 83.4055 48.9595 83.4675 48.9669 83.5302C48.9742 83.5929 48.9803 83.6561 48.9852 83.7198C48.9901 83.7835 48.9937 83.8475 48.9962 83.9118C48.9987 83.976 49 84.0404 49 84.1049L49 98.2129C48.9999 98.2618 48.9992 98.3107 48.9978 98.3596C48.9964 98.4083 48.9943 98.4569 48.9914 98.5055C48.9886 98.554 48.9851 98.6023 48.9809 98.6504C48.9766 98.6984 48.9717 98.7462 48.9662 98.7938C48.9605 98.8413 48.9542 98.8885 48.9473 98.9352C48.9403 98.9819 48.9326 99.0282 48.9244 99.0741C48.916 99.1198 48.907 99.165 48.8974 99.2097C48.8878 99.2544 48.8775 99.2986 48.8666 99.3421C48.8557 99.3856 48.8441 99.4284 48.8319 99.4705C48.8198 99.5125 48.8071 99.5539 48.7937 99.5946C48.7804 99.6352 48.7665 99.6749 48.752 99.7137C48.7375 99.7526 48.7224 99.7906 48.7068 99.8276C48.6912 99.8646 48.6751 99.9007 48.6585 99.9357C48.6418 99.9709 48.6247 100.005 48.607 100.038C48.5894 100.071 48.5713 100.103 48.5527 100.134C48.5342 100.165 48.5152 100.194 48.4958 100.223C48.4764 100.252 48.4566 100.279 48.4364 100.305C48.4161 100.331 48.3955 100.356 48.3746 100.38C48.3537 100.404 48.3324 100.426 48.3109 100.447C48.2893 100.468 48.2674 100.488 48.2453 100.507C48.2231 100.525 48.2007 100.542 48.178 100.558C48.1553 100.574 48.1325 100.588 48.1095 100.601C48.0863 100.614 48.0631 100.626 48.0397 100.636C48.0163 100.646 47.9928 100.655 47.9691 100.662C47.9455 100.669 47.9217 100.675 47.8979 100.68C47.874 100.684 47.8502 100.687 47.8263 100.689C47.8023 100.69 47.7784 100.691 47.7545 100.689C47.7305 100.688 47.7067 100.685 47.6829 100.681C47.659 100.677 47.6352 100.671 47.6115 100.664C47.5878 100.657 47.5643 100.649 47.5408 100.639C47.5173 100.629 47.4941 100.618 47.4711 100.605C47.4479 100.592 47.425 100.578 47.4023 100.563L30.3842 88.9617C30.3223 88.9194 30.2591 88.8876 30.1946 88.8662C30.1301 88.8448 30.0652 88.8342 29.9999 88.8342C29.9346 88.8342 29.8698 88.8448 29.8053 88.8662C29.7408 88.8876 29.6776 88.9194 29.6156 88.9617L12.5976 100.563C12.5749 100.578 12.552 100.592 12.5289 100.605C12.5058 100.618 12.4825 100.629 12.4591 100.639C12.4357 100.649 12.4121 100.657 12.3884 100.664C12.3647 100.671 12.341 100.677 12.3171 100.681C12.2933 100.685 12.2694 100.688 12.2455 100.689C12.2215 100.691 12.1976 100.69 12.1737 100.689C12.1498 100.687 12.1259 100.684 12.1021 100.68C12.0782 100.675 12.0545 100.669 12.0308 100.662C12.0072 100.655 11.9836 100.646 11.9602 100.636C11.9368 100.626 11.9136 100.614 11.8905 100.601C11.8674 100.588 11.8446 100.574 11.8219 100.558C11.7993 100.542 11.7769 100.525 11.7547 100.506C11.7325 100.488 11.7107 100.468 11.6891 100.447C11.6675 100.426 11.6462 100.404 11.6253 100.38C11.6044 100.356 11.5838 100.331 11.5636 100.305C11.5434 100.279 11.5236 100.252 11.5041 100.223C11.4847 100.194 11.4657 100.165 11.4472 100.134C11.4286 100.103 11.4105 100.071 11.3929 100.038C11.3753 100.005 11.3581 99.9709 11.3415 99.9357C11.3248 99.9007 11.3087 99.8646 11.2931 99.8276C11.2775 99.7906 11.2625 99.7526 11.248 99.7137C11.2335 99.6749 11.2195 99.6352 11.2062 99.5946C11.1928 99.5539 11.1801 99.5125 11.168 99.4705C11.1558 99.4284 11.1443 99.3856 11.1334 99.3421C11.1225 99.2986 11.1122 99.2544 11.1026 99.2097C11.0929 99.165 11.084 99.1198 11.0756 99.0741C11.0673 99.0282 11.0597 98.9819 11.0527 98.9352C11.0457 98.8885 11.0394 98.8413 11.0338 98.7938C11.0282 98.7462 11.0233 98.6984 11.0191 98.6504C11.0148 98.6023 11.0113 98.554 11.0085 98.5055C11.0057 98.4569 11.0035 98.4083 11.0021 98.3596C11.0007 98.3107 11 98.2618 11 98.2129L11 84.1049C11 84.0404 11.0012 83.976 11.0037 83.9118C11.0062 83.8475 11.0098 83.7835 11.0147 83.7198C11.0197 83.6561 11.0258 83.5929 11.0331 83.5302C11.0404 83.4675 11.0489 83.4055 11.0586 83.3441C11.0683 83.2828 11.0792 83.2223 11.0912 83.1627C11.1032 83.1031 11.1163 83.0445 11.1306 82.9869C11.1448 82.9294 11.1602 82.8731 11.1766 82.818C11.193 82.7629 11.2104 82.7092 11.2288 82.6569C11.2473 82.6046 11.2667 82.5539 11.2871 82.5047C11.3075 82.4554 11.3288 82.4079 11.3511 82.3621C11.3733 82.3163 11.3963 82.2723 11.4202 82.2302C11.4441 82.188 11.4688 82.1479 11.4942 82.1097C11.5196 82.0714 11.5458 82.0353 11.5726 82.0013C11.5994 81.9672 11.6268 81.9354 11.6549 81.9057C11.6829 81.876 11.7114 81.8486 11.7405 81.8235C11.7696 81.7984 11.7991 81.7756 11.8291 81.7552Z" fill="#EDEFFF"/>
<path fill-rule="evenodd" clip-rule="evenodd" d="M11.8291 109.619L29.6156 97.4938C29.6776 97.4515 29.7408 97.4197 29.8053 97.3983C29.8698 97.3769 29.9346 97.3662 29.9999 97.3662C30.0652 97.3662 30.1301 97.3769 30.1946 97.3983C30.2591 97.4197 30.3223 97.4515 30.3842 97.4938L48.1709 109.619C48.2009 109.639 48.2304 109.662 48.2594 109.687C48.2885 109.712 48.317 109.74 48.3451 109.769C48.3731 109.799 48.4005 109.831 48.4273 109.865C48.4542 109.899 48.4803 109.935 48.5058 109.973C48.5312 110.011 48.5558 110.052 48.5797 110.094C48.6036 110.136 48.6267 110.18 48.6489 110.226C48.6711 110.271 48.6924 110.319 48.7128 110.368C48.7332 110.417 48.7527 110.468 48.7711 110.52C48.7895 110.573 48.8069 110.626 48.8234 110.682C48.8398 110.737 48.8551 110.793 48.8693 110.85C48.8836 110.908 48.8968 110.967 48.9088 111.026C48.9208 111.086 48.9316 111.146 48.9413 111.208C48.951 111.269 48.9595 111.331 48.9669 111.394C48.9742 111.456 48.9803 111.52 48.9852 111.583C48.9901 111.647 48.9937 111.711 48.9962 111.775C48.9987 111.84 49 111.904 49 111.968L49 126.076C48.9999 126.125 48.9992 126.174 48.9978 126.223C48.9964 126.272 48.9943 126.32 48.9914 126.369C48.9886 126.418 48.9851 126.466 48.9809 126.514C48.9766 126.562 48.9717 126.61 48.9662 126.657C48.9605 126.705 48.9542 126.752 48.9473 126.799C48.9403 126.845 48.9326 126.892 48.9244 126.938C48.916 126.983 48.907 127.029 48.8974 127.073C48.8878 127.118 48.8775 127.162 48.8666 127.206C48.8557 127.249 48.8441 127.292 48.8319 127.334C48.8198 127.376 48.8071 127.417 48.7937 127.458C48.7804 127.499 48.7665 127.538 48.752 127.577C48.7375 127.616 48.7224 127.654 48.7068 127.691C48.6912 127.728 48.6751 127.764 48.6585 127.799C48.6418 127.834 48.6247 127.869 48.607 127.902C48.5894 127.935 48.5713 127.967 48.5527 127.997C48.5342 128.028 48.5152 128.058 48.4958 128.087C48.4764 128.115 48.4566 128.142 48.4364 128.169C48.4161 128.195 48.3955 128.22 48.3746 128.243C48.3537 128.267 48.3324 128.289 48.3109 128.311C48.2893 128.332 48.2674 128.352 48.2453 128.37C48.2231 128.388 48.2007 128.406 48.178 128.421C48.1553 128.437 48.1325 128.451 48.1095 128.464C48.0863 128.477 48.0631 128.489 48.0397 128.499C48.0163 128.509 47.9928 128.518 47.9691 128.525C47.9455 128.533 47.9217 128.539 47.8979 128.543C47.874 128.548 47.8502 128.551 47.8263 128.553C47.8023 128.554 47.7784 128.554 47.7545 128.553C47.7305 128.552 47.7067 128.549 47.6829 128.545C47.659 128.541 47.6352 128.535 47.6115 128.528C47.5878 128.521 47.5643 128.512 47.5408 128.502C47.5173 128.492 47.4941 128.481 47.4711 128.468C47.4479 128.456 47.425 128.442 47.4023 128.426L30.3842 116.825C30.3223 116.783 30.2591 116.751 30.1946 116.73C30.1301 116.708 30.0652 116.698 29.9999 116.698C29.9346 116.698 29.8698 116.708 29.8053 116.73C29.7408 116.751 29.6776 116.783 29.6156 116.825L12.5976 128.426C12.5749 128.442 12.552 128.456 12.5289 128.468C12.5058 128.481 12.4825 128.492 12.4591 128.502C12.4357 128.512 12.4121 128.521 12.3884 128.528C12.3647 128.535 12.341 128.541 12.3171 128.545C12.2933 128.549 12.2694 128.552 12.2455 128.553C12.2215 128.554 12.1976 128.554 12.1737 128.553C12.1498 128.551 12.1259 128.548 12.1021 128.543C12.0782 128.539 12.0545 128.533 12.0308 128.525C12.0072 128.518 11.9836 128.509 11.9602 128.499C11.9368 128.489 11.9136 128.477 11.8905 128.464C11.8674 128.451 11.8446 128.437 11.8219 128.421C11.7993 128.406 11.7769 128.388 11.7547 128.37C11.7325 128.351 11.7107 128.332 11.6891 128.311C11.6675 128.289 11.6462 128.267 11.6253 128.243C11.6044 128.22 11.5838 128.195 11.5636 128.169C11.5434 128.142 11.5236 128.115 11.5041 128.087C11.4847 128.058 11.4657 128.028 11.4472 127.997C11.4286 127.967 11.4105 127.935 11.3929 127.902C11.3753 127.869 11.3581 127.834 11.3415 127.799C11.3248 127.764 11.3087 127.728 11.2931 127.691C11.2775 127.654 11.2625 127.616 11.248 127.577C11.2335 127.538 11.2195 127.499 11.2062 127.458C11.1928 127.417 11.1801 127.376 11.168 127.334C11.1558 127.292 11.1443 127.249 11.1334 127.206C11.1225 127.162 11.1122 127.118 11.1026 127.073C11.0929 127.029 11.084 126.983 11.0756 126.938C11.0673 126.892 11.0597 126.845 11.0527 126.799C11.0457 126.752 11.0394 126.705 11.0338 126.657C11.0282 126.61 11.0233 126.562 11.0191 126.514C11.0148 126.466 11.0113 126.418 11.0085 126.369C11.0057 126.32 11.0035 126.272 11.0021 126.223C11.0007 126.174 11 126.125 11 126.076L11 111.968C11 111.904 11.0012 111.84 11.0037 111.775C11.0062 111.711 11.0098 111.647 11.0147 111.583C11.0197 111.52 11.0258 111.456 11.0331 111.394C11.0404 111.331 11.0489 111.269 11.0586 111.208C11.0683 111.146 11.0792 111.086 11.0912 111.026C11.1032 110.967 11.1163 110.908 11.1306 110.85C11.1448 110.793 11.1602 110.737 11.1766 110.682C11.193 110.626 11.2104 110.573 11.2288 110.52C11.2473 110.468 11.2667 110.417 11.2871 110.368C11.3075 110.319 11.3288 110.271 11.3511 110.226C11.3733 110.18 11.3963 110.136 11.4202 110.094C11.4441 110.052 11.4688 110.011 11.4942 109.973C11.5196 109.935 11.5458 109.899 11.5726 109.865C11.5994 109.831 11.6268 109.799 11.6549 109.769C11.6829 109.74 11.7114 109.712 11.7405 109.687C11.7696 109.662 11.7991 109.639 11.8291 109.619Z" fill="#EDEFFF"/>
<path fill-rule="evenodd" clip-rule="evenodd" d="M11.8291 139.121L29.6156 126.996C29.6776 126.954 29.7408 126.922 29.8053 126.901C29.8698 126.879 29.9346 126.869 29.9999 126.869C30.0652 126.869 30.1301 126.879 30.1946 126.901C30.2591 126.922 30.3223 126.954 30.3842 126.996L48.1709 139.121C48.2009 139.142 48.2304 139.164 48.2594 139.189C48.2885 139.215 48.317 139.242 48.3451 139.272C48.3731 139.301 48.4005 139.333 48.4273 139.367C48.4542 139.401 48.4803 139.437 48.5058 139.476C48.5312 139.514 48.5558 139.554 48.5797 139.596C48.6036 139.638 48.6267 139.682 48.6489 139.728C48.6711 139.774 48.6924 139.821 48.7128 139.871C48.7332 139.92 48.7527 139.971 48.7711 140.023C48.7895 140.075 48.8069 140.129 48.8234 140.184C48.8398 140.239 48.8551 140.295 48.8693 140.353C48.8836 140.41 48.8968 140.469 48.9088 140.529C48.9208 140.588 48.9316 140.649 48.9413 140.71C48.951 140.771 48.9595 140.833 48.9669 140.896C48.9742 140.959 48.9803 141.022 48.9852 141.086C48.9901 141.149 48.9937 141.213 48.9962 141.278C48.9987 141.342 49 141.406 49 141.471L49 155.579C48.9999 155.628 48.9992 155.677 48.9978 155.726C48.9964 155.774 48.9943 155.823 48.9914 155.871C48.9886 155.92 48.9851 155.968 48.9809 156.016C48.9766 156.064 48.9717 156.112 48.9662 156.16C48.9605 156.207 48.9542 156.254 48.9473 156.301C48.9403 156.348 48.9326 156.394 48.9244 156.44C48.916 156.486 48.907 156.531 48.8974 156.576C48.8878 156.62 48.8775 156.665 48.8666 156.708C48.8557 156.752 48.8441 156.794 48.8319 156.836C48.8198 156.878 48.8071 156.92 48.7937 156.961C48.7804 157.001 48.7665 157.041 48.752 157.08C48.7375 157.119 48.7224 157.157 48.7068 157.194C48.6912 157.231 48.6751 157.267 48.6585 157.302C48.6418 157.337 48.6247 157.371 48.607 157.404C48.5894 157.437 48.5713 157.469 48.5527 157.5C48.5342 157.531 48.5152 157.56 48.4958 157.589C48.4764 157.618 48.4566 157.645 48.4364 157.671C48.4161 157.697 48.3955 157.722 48.3746 157.746C48.3537 157.77 48.3324 157.792 48.3109 157.813C48.2893 157.834 48.2674 157.854 48.2453 157.873C48.2231 157.891 48.2007 157.908 48.178 157.924C48.1553 157.94 48.1325 157.954 48.1095 157.967C48.0863 157.98 48.0631 157.991 48.0397 158.002C48.0163 158.012 47.9928 158.021 47.9691 158.028C47.9455 158.035 47.9217 158.041 47.8979 158.046C47.874 158.05 47.8502 158.053 47.8263 158.055C47.8023 158.056 47.7784 158.057 47.7545 158.055C47.7305 158.054 47.7067 158.051 47.6829 158.047C47.659 158.043 47.6352 158.037 47.6115 158.03C47.5878 158.023 47.5643 158.015 47.5408 158.005C47.5173 157.995 47.4941 157.984 47.4711 157.971C47.4479 157.958 47.425 157.944 47.4023 157.929L30.3842 146.328C30.3223 146.285 30.2591 146.254 30.1946 146.232C30.1301 146.211 30.0652 146.2 29.9999 146.2C29.9346 146.2 29.8698 146.211 29.8053 146.232C29.7408 146.254 29.6776 146.285 29.6156 146.328L12.5976 157.929C12.5749 157.944 12.552 157.958 12.5289 157.971C12.5058 157.984 12.4825 157.995 12.4591 158.005C12.4357 158.015 12.4121 158.023 12.3884 158.03C12.3647 158.037 12.341 158.043 12.3171 158.047C12.2933 158.051 12.2694 158.054 12.2455 158.055C12.2215 158.057 12.1976 158.056 12.1737 158.055C12.1498 158.053 12.1259 158.05 12.1021 158.046C12.0782 158.041 12.0545 158.035 12.0308 158.028C12.0072 158.021 11.9836 158.012 11.9602 158.002C11.9368 157.991 11.9136 157.98 11.8905 157.967C11.8674 157.954 11.8446 157.94 11.8219 157.924C11.7993 157.908 11.7769 157.891 11.7547 157.872C11.7325 157.854 11.7107 157.834 11.6891 157.813C11.6675 157.792 11.6462 157.77 11.6253 157.746C11.6044 157.722 11.5838 157.697 11.5636 157.671C11.5434 157.645 11.5236 157.618 11.5041 157.589C11.4847 157.56 11.4657 157.531 11.4472 157.5C11.4286 157.469 11.4105 157.437 11.3929 157.404C11.3753 157.371 11.3581 157.337 11.3415 157.302C11.3248 157.267 11.3087 157.231 11.2931 157.194C11.2775 157.157 11.2625 157.119 11.248 157.08C11.2335 157.041 11.2195 157.001 11.2062 156.961C11.1928 156.92 11.1801 156.878 11.168 156.836C11.1558 156.794 11.1443 156.752 11.1334 156.708C11.1225 156.665 11.1122 156.62 11.1026 156.576C11.0929 156.531 11.084 156.486 11.0756 156.44C11.0673 156.394 11.0597 156.348 11.0527 156.301C11.0457 156.254 11.0394 156.207 11.0338 156.16C11.0282 156.112 11.0233 156.064 11.0191 156.016C11.0148 155.968 11.0113 155.92 11.0085 155.871C11.0057 155.823 11.0035 155.774 11.0021 155.726C11.0007 155.677 11 155.628 11 155.579L11 141.471C11 141.406 11.0012 141.342 11.0037 141.278C11.0062 141.213 11.0098 141.149 11.0147 141.086C11.0197 141.022 11.0258 140.959 11.0331 140.896C11.0404 140.833 11.0489 140.771 11.0586 140.71C11.0683 140.649 11.0792 140.588 11.0912 140.529C11.1032 140.469 11.1163 140.41 11.1306 140.353C11.1448 140.295 11.1602 140.239 11.1766 140.184C11.193 140.129 11.2104 140.075 11.2288 140.023C11.2473 139.971 11.2667 139.92 11.2871 139.871C11.3075 139.821 11.3288 139.774 11.3511 139.728C11.3733 139.682 11.3963 139.638 11.4202 139.596C11.4441 139.554 11.4688 139.514 11.4942 139.476C11.5196 139.437 11.5458 139.401 11.5726 139.367C11.5994 139.333 11.6268 139.301 11.6549 139.272C11.6829 139.242 11.7114 139.215 11.7405 139.189C11.7696 139.164 11.7991 139.142 11.8291 139.121Z" fill="#EDEFFF"/>
<path fill-rule="evenodd" clip-rule="evenodd" d="M11.8291 167.805L29.6156 155.68C29.6776 155.637 29.7408 155.606 29.8053 155.584C29.8698 155.563 29.9346 155.552 29.9999 155.552C30.0652 155.552 30.1301 155.563 30.1946 155.584C30.2591 155.606 30.3223 155.637 30.3842 155.68L48.1709 167.805C48.2009 167.825 48.2304 167.848 48.2594 167.873C48.2885 167.898 48.317 167.925 48.3451 167.955C48.3731 167.985 48.4005 168.017 48.4273 168.051C48.4542 168.085 48.4803 168.121 48.5058 168.159C48.5312 168.197 48.5558 168.237 48.5797 168.279C48.6036 168.322 48.6267 168.366 48.6489 168.411C48.6711 168.457 48.6924 168.505 48.7128 168.554C48.7332 168.603 48.7527 168.654 48.7711 168.706C48.7895 168.759 48.8069 168.812 48.8234 168.867C48.8398 168.922 48.8551 168.979 48.8693 169.036C48.8836 169.094 48.8968 169.152 48.9088 169.212C48.9208 169.272 48.9316 169.332 48.9413 169.393C48.951 169.455 48.9595 169.517 48.9669 169.58C48.9742 169.642 48.9803 169.705 48.9852 169.769C48.9901 169.833 48.9937 169.897 48.9962 169.961C48.9987 170.025 49 170.09 49 170.154L49 184.262C48.9999 184.311 48.9992 184.36 48.9978 184.409C48.9964 184.458 48.9943 184.506 48.9914 184.555C48.9886 184.603 48.9851 184.652 48.9809 184.7C48.9766 184.748 48.9717 184.796 48.9662 184.843C48.9605 184.891 48.9542 184.938 48.9473 184.984C48.9403 185.031 48.9326 185.078 48.9244 185.123C48.916 185.169 48.907 185.214 48.8974 185.259C48.8878 185.304 48.8775 185.348 48.8666 185.391C48.8557 185.435 48.8441 185.478 48.8319 185.52C48.8198 185.562 48.8071 185.603 48.7937 185.644C48.7804 185.684 48.7665 185.724 48.752 185.763C48.7375 185.802 48.7224 185.84 48.7068 185.877C48.6912 185.914 48.6751 185.95 48.6585 185.985C48.6418 186.02 48.6247 186.054 48.607 186.087C48.5894 186.12 48.5713 186.152 48.5527 186.183C48.5342 186.214 48.5152 186.244 48.4958 186.272C48.4764 186.301 48.4566 186.328 48.4364 186.354C48.4161 186.381 48.3955 186.406 48.3746 186.429C48.3537 186.453 48.3324 186.475 48.3109 186.496C48.2893 186.517 48.2674 186.537 48.2453 186.556C48.2231 186.574 48.2007 186.591 48.178 186.607C48.1553 186.623 48.1325 186.637 48.1095 186.65C48.0863 186.663 48.0631 186.675 48.0397 186.685C48.0163 186.695 47.9928 186.704 47.9691 186.711C47.9455 186.719 47.9217 186.725 47.8979 186.729C47.874 186.734 47.8502 186.737 47.8263 186.738C47.8023 186.74 47.7784 186.74 47.7545 186.739C47.7305 186.737 47.7067 186.735 47.6829 186.731C47.659 186.726 47.6352 186.721 47.6115 186.714C47.5878 186.707 47.5643 186.698 47.5408 186.688C47.5173 186.678 47.4941 186.667 47.4711 186.654C47.4479 186.642 47.425 186.627 47.4023 186.612L30.3842 175.011C30.3223 174.969 30.2591 174.937 30.1946 174.916C30.1301 174.894 30.0652 174.883 29.9999 174.883C29.9346 174.883 29.8698 174.894 29.8053 174.916C29.7408 174.937 29.6776 174.969 29.6156 175.011L12.5976 186.612C12.5749 186.627 12.552 186.642 12.5289 186.654C12.5058 186.667 12.4825 186.678 12.4591 186.688C12.4357 186.698 12.4121 186.707 12.3884 186.714C12.3647 186.721 12.341 186.726 12.3171 186.731C12.2933 186.735 12.2694 186.737 12.2455 186.739C12.2215 186.74 12.1976 186.74 12.1737 186.738C12.1498 186.737 12.1259 186.734 12.1021 186.729C12.0782 186.725 12.0545 186.719 12.0308 186.711C12.0072 186.704 11.9836 186.695 11.9602 186.685C11.9368 186.675 11.9136 186.663 11.8905 186.65C11.8674 186.637 11.8446 186.623 11.8219 186.607C11.7993 186.591 11.7769 186.574 11.7547 186.556C11.7325 186.537 11.7107 186.517 11.6891 186.496C11.6675 186.475 11.6462 186.453 11.6253 186.429C11.6044 186.406 11.5838 186.381 11.5636 186.354C11.5434 186.328 11.5236 186.301 11.5041 186.272C11.4847 186.244 11.4657 186.214 11.4472 186.183C11.4286 186.152 11.4105 186.12 11.3929 186.087C11.3753 186.054 11.3581 186.02 11.3415 185.985C11.3248 185.95 11.3087 185.914 11.2931 185.877C11.2775 185.84 11.2625 185.802 11.248 185.763C11.2335 185.724 11.2195 185.684 11.2062 185.644C11.1928 185.603 11.1801 185.562 11.168 185.52C11.1558 185.478 11.1443 185.435 11.1334 185.391C11.1225 185.348 11.1122 185.304 11.1026 185.259C11.0929 185.214 11.084 185.169 11.0756 185.123C11.0673 185.078 11.0597 185.031 11.0527 184.984C11.0457 184.938 11.0394 184.891 11.0338 184.843C11.0282 184.796 11.0233 184.748 11.0191 184.7C11.0148 184.652 11.0113 184.603 11.0085 184.555C11.0057 184.506 11.0035 184.458 11.0021 184.409C11.0007 184.36 11 184.311 11 184.262L11 170.154C11 170.09 11.0012 170.025 11.0037 169.961C11.0062 169.897 11.0098 169.833 11.0147 169.769C11.0197 169.705 11.0258 169.642 11.0331 169.58C11.0404 169.517 11.0489 169.455 11.0586 169.393C11.0683 169.332 11.0792 169.272 11.0912 169.212C11.1032 169.152 11.1163 169.094 11.1306 169.036C11.1448 168.979 11.1602 168.922 11.1766 168.867C11.193 168.812 11.2104 168.759 11.2288 168.706C11.2473 168.654 11.2667 168.603 11.2871 168.554C11.3075 168.505 11.3288 168.457 11.3511 168.411C11.3733 168.366 11.3963 168.322 11.4202 168.279C11.4441 168.237 11.4688 168.197 11.4942 168.159C11.5196 168.121 11.5458 168.085 11.5726 168.051C11.5994 168.017 11.6268 167.985 11.6549 167.955C11.6829 167.925 11.7114 167.898 11.7405 167.873C11.7696 167.848 11.7991 167.825 11.8291 167.805Z" fill="#EDEFFF"/>
<path fill-rule="evenodd" clip-rule="evenodd" d="M11.8291 196.487L29.6156 184.362C29.6776 184.32 29.7408 184.288 29.8053 184.267C29.8698 184.245 29.9346 184.235 29.9999 184.235C30.0652 184.235 30.1301 184.245 30.1946 184.267C30.2591 184.288 30.3223 184.32 30.3842 184.362L48.1709 196.487C48.2009 196.508 48.2304 196.53 48.2594 196.555C48.2885 196.581 48.317 196.608 48.3451 196.638C48.3731 196.667 48.4005 196.699 48.4273 196.733C48.4542 196.767 48.4803 196.803 48.5058 196.842C48.5312 196.88 48.5558 196.92 48.5797 196.962C48.6036 197.004 48.6267 197.048 48.6489 197.094C48.6711 197.14 48.6924 197.187 48.7128 197.237C48.7332 197.286 48.7527 197.337 48.7711 197.389C48.7895 197.441 48.8069 197.495 48.8234 197.55C48.8398 197.605 48.8551 197.661 48.8693 197.719C48.8836 197.776 48.8968 197.835 48.9088 197.895C48.9208 197.954 48.9316 198.015 48.9413 198.076C48.951 198.137 48.9595 198.199 48.9669 198.262C48.9742 198.325 48.9803 198.388 48.9852 198.452C48.9901 198.515 48.9937 198.579 48.9962 198.644C48.9987 198.708 49 198.772 49 198.837L49 212.945C48.9999 212.994 48.9992 213.043 48.9978 213.092C48.9964 213.14 48.9943 213.189 48.9914 213.237C48.9886 213.286 48.9851 213.334 48.9809 213.382C48.9766 213.43 48.9717 213.478 48.9662 213.526C48.9605 213.573 48.9542 213.62 48.9473 213.667C48.9403 213.714 48.9326 213.76 48.9244 213.806C48.916 213.852 48.907 213.897 48.8974 213.942C48.8878 213.986 48.8775 214.03 48.8666 214.074C48.8557 214.118 48.8441 214.16 48.8319 214.202C48.8198 214.244 48.8071 214.286 48.7937 214.327C48.7804 214.367 48.7665 214.407 48.752 214.446C48.7375 214.485 48.7224 214.522 48.7068 214.56C48.6912 214.597 48.6751 214.633 48.6585 214.668C48.6418 214.703 48.6247 214.737 48.607 214.77C48.5894 214.803 48.5713 214.835 48.5527 214.866C48.5342 214.897 48.5152 214.926 48.4958 214.955C48.4764 214.983 48.4566 215.011 48.4364 215.037C48.4161 215.063 48.3955 215.088 48.3746 215.112C48.3537 215.136 48.3324 215.158 48.3109 215.179C48.2893 215.2 48.2674 215.22 48.2453 215.238C48.2231 215.257 48.2007 215.274 48.178 215.29C48.1553 215.305 48.1325 215.32 48.1095 215.333C48.0863 215.346 48.0631 215.357 48.0397 215.368C48.0163 215.378 47.9928 215.387 47.9691 215.394C47.9455 215.401 47.9217 215.407 47.8979 215.412C47.874 215.416 47.8502 215.419 47.8263 215.421C47.8023 215.422 47.7784 215.423 47.7545 215.421C47.7305 215.42 47.7067 215.417 47.6829 215.413C47.659 215.409 47.6352 215.403 47.6115 215.396C47.5878 215.389 47.5643 215.381 47.5408 215.371C47.5173 215.361 47.4941 215.35 47.4711 215.337C47.4479 215.324 47.425 215.31 47.4023 215.295L30.3842 203.694C30.3223 203.651 30.2591 203.62 30.1946 203.598C30.1301 203.577 30.0652 203.566 29.9999 203.566C29.9346 203.566 29.8698 203.577 29.8053 203.598C29.7408 203.62 29.6776 203.651 29.6156 203.694L12.5976 215.295C12.5749 215.31 12.552 215.324 12.5289 215.337C12.5058 215.35 12.4825 215.361 12.4591 215.371C12.4357 215.381 12.4121 215.389 12.3884 215.396C12.3647 215.403 12.341 215.409 12.3171 215.413C12.2933 215.417 12.2694 215.42 12.2455 215.421C12.2215 215.423 12.1976 215.422 12.1737 215.421C12.1498 215.419 12.1259 215.416 12.1021 215.412C12.0782 215.407 12.0545 215.401 12.0308 215.394C12.0072 215.387 11.9836 215.378 11.9602 215.368C11.9368 215.357 11.9136 215.346 11.8905 215.333C11.8674 215.32 11.8446 215.305 11.8219 215.29C11.7993 215.274 11.7769 215.257 11.7547 215.238C11.7325 215.22 11.7107 215.2 11.6891 215.179C11.6675 215.158 11.6462 215.136 11.6253 215.112C11.6044 215.088 11.5838 215.063 11.5636 215.037C11.5434 215.011 11.5236 214.983 11.5041 214.955C11.4847 214.926 11.4657 214.897 11.4472 214.866C11.4286 214.835 11.4105 214.803 11.3929 214.77C11.3753 214.737 11.3581 214.703 11.3415 214.668C11.3248 214.633 11.3087 214.597 11.2931 214.56C11.2775 214.522 11.2625 214.485 11.248 214.446C11.2335 214.407 11.2195 214.367 11.2062 214.327C11.1928 214.286 11.1801 214.244 11.168 214.202C11.1558 214.16 11.1443 214.118 11.1334 214.074C11.1225 214.03 11.1122 213.986 11.1026 213.942C11.0929 213.897 11.084 213.852 11.0756 213.806C11.0673 213.76 11.0597 213.714 11.0527 213.667C11.0457 213.62 11.0394 213.573 11.0338 213.526C11.0282 213.478 11.0233 213.43 11.0191 213.382C11.0148 213.334 11.0113 213.286 11.0085 213.237C11.0057 213.189 11.0035 213.14 11.0021 213.092C11.0007 213.043 11 212.994 11 212.945L11 198.837C11 198.772 11.0012 198.708 11.0037 198.644C11.0062 198.579 11.0098 198.515 11.0147 198.452C11.0197 198.388 11.0258 198.325 11.0331 198.262C11.0404 198.199 11.0489 198.137 11.0586 198.076C11.0683 198.015 11.0792 197.954 11.0912 197.895C11.1032 197.835 11.1163 197.776 11.1306 197.719C11.1448 197.661 11.1602 197.605 11.1766 197.55C11.193 197.495 11.2104 197.441 11.2288 197.389C11.2473 197.337 11.2667 197.286 11.2871 197.237C11.3075 197.187 11.3288 197.14 11.3511 197.094C11.3733 197.048 11.3963 197.004 11.4202 196.962C11.4441 196.92 11.4688 196.88 11.4942 196.842C11.5196 196.803 11.5458 196.767 11.5726 196.733C11.5994 196.699 11.6268 196.667 11.6549 196.638C11.6829 196.608 11.7114 196.581 11.7405 196.555C11.7696 196.53 11.7991 196.508 11.8291 196.487Z" fill="#EDEFFF"/>
<path fill-rule="evenodd" clip-rule="evenodd" d="M11.8291 224.351L29.6156 212.226C29.6776 212.183 29.7408 212.152 29.8053 212.13C29.8698 212.109 29.9346 212.098 29.9999 212.098C30.0652 212.098 30.1301 212.109 30.1946 212.13C30.2591 212.152 30.3223 212.183 30.3842 212.226L48.1709 224.351C48.2009 224.371 48.2304 224.394 48.2594 224.419C48.2885 224.444 48.317 224.471 48.3451 224.501C48.3731 224.531 48.4005 224.563 48.4273 224.597C48.4542 224.631 48.4803 224.667 48.5058 224.705C48.5312 224.743 48.5558 224.784 48.5797 224.826C48.6036 224.868 48.6267 224.912 48.6489 224.958C48.6711 225.003 48.6924 225.051 48.7128 225.1C48.7332 225.149 48.7527 225.2 48.7711 225.252C48.7895 225.305 48.8069 225.358 48.8234 225.414C48.8398 225.469 48.8551 225.525 48.8693 225.582C48.8836 225.64 48.8968 225.699 48.9088 225.758C48.9208 225.818 48.9316 225.878 48.9413 225.94C48.951 226.001 48.9595 226.063 48.9669 226.126C48.9742 226.188 48.9803 226.252 48.9852 226.315C48.9901 226.379 48.9937 226.443 48.9962 226.507C48.9987 226.571 49 226.636 49 226.7L49 240.808C48.9999 240.857 48.9992 240.906 48.9978 240.955C48.9964 241.004 48.9943 241.052 48.9914 241.101C48.9886 241.149 48.9851 241.198 48.9809 241.246C48.9766 241.294 48.9717 241.342 48.9662 241.389C48.9605 241.437 48.9542 241.484 48.9473 241.531C48.9403 241.577 48.9326 241.624 48.9244 241.67C48.916 241.715 48.907 241.76 48.8974 241.805C48.8878 241.85 48.8775 241.894 48.8666 241.938C48.8557 241.981 48.8441 242.024 48.8319 242.066C48.8198 242.108 48.8071 242.149 48.7937 242.19C48.7804 242.231 48.7665 242.27 48.752 242.309C48.7375 242.348 48.7224 242.386 48.7068 242.423C48.6912 242.46 48.6751 242.496 48.6585 242.531C48.6418 242.566 48.6247 242.6 48.607 242.634C48.5894 242.667 48.5713 242.699 48.5527 242.729C48.5342 242.76 48.5152 242.79 48.4958 242.818C48.4764 242.847 48.4566 242.874 48.4364 242.901C48.4161 242.927 48.3955 242.952 48.3746 242.975C48.3537 242.999 48.3324 243.021 48.3109 243.042C48.2893 243.064 48.2674 243.083 48.2453 243.102C48.2231 243.12 48.2007 243.137 48.178 243.153C48.1553 243.169 48.1325 243.183 48.1095 243.196C48.0863 243.209 48.0631 243.221 48.0397 243.231C48.0163 243.241 47.9928 243.25 47.9691 243.257C47.9455 243.265 47.9217 243.271 47.8979 243.275C47.874 243.28 47.8502 243.283 47.8263 243.284C47.8023 243.286 47.7784 243.286 47.7545 243.285C47.7305 243.284 47.7067 243.281 47.6829 243.277C47.659 243.273 47.6352 243.267 47.6115 243.26C47.5878 243.253 47.5643 243.244 47.5408 243.234C47.5173 243.224 47.4941 243.213 47.4711 243.2C47.4479 243.188 47.425 243.174 47.4023 243.158L30.3842 231.557C30.3223 231.515 30.2591 231.483 30.1946 231.462C30.1301 231.44 30.0652 231.43 29.9999 231.43C29.9346 231.43 29.8698 231.44 29.8053 231.462C29.7408 231.483 29.6776 231.515 29.6156 231.557L12.5976 243.158C12.5749 243.174 12.552 243.188 12.5289 243.2C12.5058 243.213 12.4825 243.224 12.4591 243.234C12.4357 243.244 12.4121 243.253 12.3884 243.26C12.3647 243.267 12.341 243.273 12.3171 243.277C12.2933 243.281 12.2694 243.284 12.2455 243.285C12.2215 243.286 12.1976 243.286 12.1737 243.284C12.1498 243.283 12.1259 243.28 12.1021 243.275C12.0782 243.271 12.0545 243.265 12.0308 243.257C12.0072 243.25 11.9836 243.241 11.9602 243.231C11.9368 243.221 11.9136 243.209 11.8905 243.196C11.8674 243.183 11.8446 243.169 11.8219 243.153C11.7993 243.137 11.7769 243.12 11.7547 243.102C11.7325 243.083 11.7107 243.064 11.6891 243.042C11.6675 243.021 11.6462 242.999 11.6253 242.975C11.6044 242.952 11.5838 242.927 11.5636 242.901C11.5434 242.874 11.5236 242.847 11.5041 242.818C11.4847 242.79 11.4657 242.76 11.4472 242.729C11.4286 242.699 11.4105 242.667 11.3929 242.634C11.3753 242.6 11.3581 242.566 11.3415 242.531C11.3248 242.496 11.3087 242.46 11.2931 242.423C11.2775 242.386 11.2625 242.348 11.248 242.309C11.2335 242.27 11.2195 242.231 11.2062 242.19C11.1928 242.149 11.1801 242.108 11.168 242.066C11.1558 242.024 11.1443 241.981 11.1334 241.938C11.1225 241.894 11.1122 241.85 11.1026 241.805C11.0929 241.76 11.084 241.715 11.0756 241.67C11.0673 241.624 11.0597 241.577 11.0527 241.531C11.0457 241.484 11.0394 241.437 11.0338 241.389C11.0282 241.342 11.0233 241.294 11.0191 241.246C11.0148 241.198 11.0113 241.149 11.0085 241.101C11.0057 241.052 11.0035 241.004 11.0021 240.955C11.0007 240.906 11 240.857 11 240.808L11 226.7C11 226.636 11.0012 226.571 11.0037 226.507C11.0062 226.443 11.0098 226.379 11.0147 226.315C11.0197 226.252 11.0258 226.188 11.0331 226.126C11.0404 226.063 11.0489 226.001 11.0586 225.94C11.0683 225.878 11.0792 225.818 11.0912 225.758C11.1032 225.699 11.1163 225.64 11.1306 225.582C11.1448 225.525 11.1602 225.469 11.1766 225.413C11.193 225.358 11.2104 225.305 11.2288 225.252C11.2473 225.2 11.2667 225.149 11.2871 225.1C11.3075 225.051 11.3288 225.003 11.3511 224.958C11.3733 224.912 11.3963 224.868 11.4202 224.826C11.4441 224.783 11.4688 224.743 11.4942 224.705C11.5196 224.667 11.5458 224.631 11.5726 224.597C11.5994 224.563 11.6268 224.531 11.6549 224.501C11.6829 224.471 11.7114 224.444 11.7405 224.419C11.7696 224.394 11.7991 224.371 11.8291 224.351Z" fill="#EDEFFF"/>
<path fill-rule="evenodd" clip-rule="evenodd" d="M11.8291 253.034L29.6156 240.909C29.6776 240.867 29.7408 240.835 29.8053 240.813C29.8698 240.792 29.9346 240.781 29.9999 240.781C30.0652 240.781 30.1301 240.792 30.1946 240.813C30.2591 240.835 30.3223 240.867 30.3842 240.909L48.1709 253.034C48.2009 253.054 48.2304 253.077 48.2594 253.102C48.2885 253.127 48.317 253.155 48.3451 253.184C48.3731 253.214 48.4005 253.246 48.4273 253.28C48.4542 253.314 48.4803 253.35 48.5058 253.388C48.5312 253.426 48.5558 253.467 48.5797 253.509C48.6036 253.551 48.6267 253.595 48.6489 253.641C48.6711 253.686 48.6924 253.734 48.7128 253.783C48.7332 253.832 48.7527 253.883 48.7711 253.936C48.7895 253.988 48.8069 254.042 48.8234 254.097C48.8398 254.152 48.8551 254.208 48.8693 254.266C48.8836 254.323 48.8968 254.382 48.9088 254.441C48.9208 254.501 48.9316 254.561 48.9413 254.623C48.951 254.684 48.9595 254.746 48.9669 254.809C48.9742 254.872 48.9803 254.935 48.9852 254.998C48.9901 255.062 48.9937 255.126 48.9962 255.19C48.9987 255.255 49 255.319 49 255.383L49 269.491C48.9999 269.54 48.9992 269.589 48.9978 269.638C48.9964 269.687 48.9943 269.735 48.9914 269.784C48.9886 269.833 48.9851 269.881 48.9809 269.929C48.9766 269.977 48.9717 270.025 48.9662 270.072C48.9605 270.12 48.9542 270.167 48.9473 270.214C48.9403 270.26 48.9326 270.307 48.9244 270.353C48.916 270.398 48.907 270.444 48.8974 270.488C48.8878 270.533 48.8775 270.577 48.8666 270.621C48.8557 270.664 48.8441 270.707 48.8319 270.749C48.8198 270.791 48.8071 270.832 48.7937 270.873C48.7804 270.914 48.7665 270.953 48.752 270.992C48.7375 271.031 48.7224 271.069 48.7068 271.106C48.6912 271.143 48.6751 271.179 48.6585 271.214C48.6418 271.249 48.6247 271.284 48.607 271.317C48.5894 271.35 48.5713 271.382 48.5527 271.412C48.5342 271.443 48.5152 271.473 48.4958 271.502C48.4764 271.53 48.4566 271.557 48.4364 271.584C48.4161 271.61 48.3955 271.635 48.3746 271.658C48.3537 271.682 48.3324 271.705 48.3109 271.726C48.2893 271.747 48.2674 271.767 48.2453 271.785C48.2231 271.803 48.2007 271.821 48.178 271.836C48.1553 271.852 48.1325 271.866 48.1095 271.879C48.0863 271.892 48.0631 271.904 48.0397 271.914C48.0163 271.924 47.9928 271.933 47.9691 271.941C47.9455 271.948 47.9217 271.954 47.8979 271.958C47.874 271.963 47.8502 271.966 47.8263 271.968C47.8023 271.969 47.7784 271.969 47.7545 271.968C47.7305 271.967 47.7067 271.964 47.6829 271.96C47.659 271.956 47.6352 271.95 47.6115 271.943C47.5878 271.936 47.5643 271.927 47.5408 271.918C47.5173 271.907 47.4941 271.896 47.4711 271.883C47.4479 271.871 47.425 271.857 47.4023 271.841L30.3842 260.24C30.3223 260.198 30.2591 260.166 30.1946 260.145C30.1301 260.123 30.0652 260.113 29.9999 260.113C29.9346 260.113 29.8698 260.123 29.8053 260.145C29.7408 260.166 29.6776 260.198 29.6156 260.24L12.5976 271.841C12.5749 271.857 12.552 271.871 12.5289 271.883C12.5058 271.896 12.4825 271.907 12.4591 271.918C12.4357 271.927 12.4121 271.936 12.3884 271.943C12.3647 271.95 12.341 271.956 12.3171 271.96C12.2933 271.964 12.2694 271.967 12.2455 271.968C12.2215 271.969 12.1976 271.969 12.1737 271.968C12.1498 271.966 12.1259 271.963 12.1021 271.958C12.0782 271.954 12.0545 271.948 12.0308 271.941C12.0072 271.933 11.9836 271.924 11.9602 271.914C11.9368 271.904 11.9136 271.892 11.8905 271.879C11.8674 271.866 11.8446 271.852 11.8219 271.836C11.7993 271.821 11.7769 271.803 11.7547 271.785C11.7325 271.767 11.7107 271.747 11.6891 271.726C11.6675 271.705 11.6462 271.682 11.6253 271.658C11.6044 271.635 11.5838 271.61 11.5636 271.584C11.5434 271.557 11.5236 271.53 11.5041 271.502C11.4847 271.473 11.4657 271.443 11.4472 271.412C11.4286 271.382 11.4105 271.35 11.3929 271.317C11.3753 271.284 11.3581 271.249 11.3415 271.214C11.3248 271.179 11.3087 271.143 11.2931 271.106C11.2775 271.069 11.2625 271.031 11.248 270.992C11.2335 270.953 11.2195 270.914 11.2062 270.873C11.1928 270.832 11.1801 270.791 11.168 270.749C11.1558 270.707 11.1443 270.664 11.1334 270.621C11.1225 270.577 11.1122 270.533 11.1026 270.488C11.0929 270.444 11.084 270.398 11.0756 270.353C11.0673 270.307 11.0597 270.26 11.0527 270.214C11.0457 270.167 11.0394 270.12 11.0338 270.072C11.0282 270.025 11.0233 269.977 11.0191 269.929C11.0148 269.881 11.0113 269.833 11.0085 269.784C11.0057 269.735 11.0035 269.687 11.0021 269.638C11.0007 269.589 11 269.54 11 269.491L11 255.383C11 255.319 11.0012 255.255 11.0037 255.19C11.0062 255.126 11.0098 255.062 11.0147 254.998C11.0197 254.935 11.0258 254.872 11.0331 254.809C11.0404 254.746 11.0489 254.684 11.0586 254.623C11.0683 254.561 11.0792 254.501 11.0912 254.441C11.1032 254.382 11.1163 254.323 11.1306 254.266C11.1448 254.208 11.1602 254.152 11.1766 254.097C11.193 254.042 11.2104 253.988 11.2288 253.935C11.2473 253.883 11.2667 253.832 11.2871 253.783C11.3075 253.734 11.3288 253.686 11.3511 253.641C11.3733 253.595 11.3963 253.551 11.4202 253.509C11.4441 253.467 11.4688 253.426 11.4942 253.388C11.5196 253.35 11.5458 253.314 11.5726 253.28C11.5994 253.246 11.6268 253.214 11.6549 253.184C11.6829 253.155 11.7114 253.127 11.7405 253.102C11.7696 253.077 11.7991 253.054 11.8291 253.034Z" fill="#EDEFFF"/>
<path fill-rule="evenodd" clip-rule="evenodd" d="M11.8291 281.717L29.6156 269.592C29.6776 269.55 29.7408 269.518 29.8053 269.497C29.8698 269.475 29.9346 269.465 29.9999 269.465C30.0652 269.465 30.1301 269.475 30.1946 269.497C30.2591 269.518 30.3223 269.55 30.3842 269.592L48.1709 281.717C48.2009 281.738 48.2304 281.76 48.2594 281.785C48.2885 281.811 48.317 281.838 48.3451 281.868C48.3731 281.897 48.4005 281.929 48.4273 281.963C48.4542 281.997 48.4803 282.033 48.5058 282.072C48.5312 282.11 48.5558 282.15 48.5797 282.192C48.6036 282.234 48.6267 282.278 48.6489 282.324C48.6711 282.37 48.6924 282.417 48.7128 282.467C48.7332 282.516 48.7527 282.567 48.7711 282.619C48.7895 282.671 48.8069 282.725 48.8234 282.78C48.8398 282.835 48.8551 282.891 48.8693 282.949C48.8836 283.006 48.8968 283.065 48.9088 283.125C48.9208 283.184 48.9316 283.245 48.9413 283.306C48.951 283.367 48.9595 283.429 48.9669 283.492C48.9742 283.555 48.9803 283.618 48.9852 283.682C48.9901 283.745 48.9937 283.809 48.9962 283.874C48.9987 283.938 49 284.002 49 284.067L49 298.175C48.9999 298.224 48.9992 298.273 48.9978 298.321C48.9964 298.37 48.9943 298.419 48.9914 298.467C48.9886 298.516 48.9851 298.564 48.9809 298.612C48.9766 298.66 48.9717 298.708 48.9662 298.756C48.9605 298.803 48.9542 298.85 48.9473 298.897C48.9403 298.944 48.9326 298.99 48.9244 299.036C48.916 299.082 48.907 299.127 48.8974 299.172C48.8878 299.216 48.8775 299.26 48.8666 299.304C48.8557 299.348 48.8441 299.39 48.8319 299.432C48.8198 299.474 48.8071 299.516 48.7937 299.557C48.7804 299.597 48.7665 299.637 48.752 299.676C48.7375 299.715 48.7224 299.752 48.7068 299.79C48.6912 299.827 48.6751 299.863 48.6585 299.898C48.6418 299.933 48.6247 299.967 48.607 300C48.5894 300.033 48.5713 300.065 48.5527 300.096C48.5342 300.127 48.5152 300.156 48.4958 300.185C48.4764 300.213 48.4566 300.241 48.4364 300.267C48.4161 300.293 48.3955 300.318 48.3746 300.342C48.3537 300.366 48.3324 300.388 48.3109 300.409C48.2893 300.43 48.2674 300.45 48.2453 300.468C48.2231 300.487 48.2007 300.504 48.178 300.52C48.1553 300.535 48.1325 300.55 48.1095 300.563C48.0863 300.576 48.0631 300.587 48.0397 300.598C48.0163 300.608 47.9928 300.617 47.9691 300.624C47.9455 300.631 47.9217 300.637 47.8979 300.642C47.874 300.646 47.8502 300.649 47.8263 300.651C47.8023 300.652 47.7784 300.652 47.7545 300.651C47.7305 300.65 47.7067 300.647 47.6829 300.643C47.659 300.639 47.6352 300.633 47.6115 300.626C47.5878 300.619 47.5643 300.611 47.5408 300.601C47.5173 300.591 47.4941 300.58 47.4711 300.567C47.4479 300.554 47.425 300.54 47.4023 300.525L30.3842 288.924C30.3223 288.881 30.2591 288.85 30.1946 288.828C30.1301 288.807 30.0652 288.796 29.9999 288.796C29.9346 288.796 29.8698 288.807 29.8053 288.828C29.7408 288.85 29.6776 288.881 29.6156 288.924L12.5976 300.525C12.5749 300.54 12.552 300.554 12.5289 300.567C12.5058 300.58 12.4825 300.591 12.4591 300.601C12.4357 300.611 12.4121 300.619 12.3884 300.626C12.3647 300.633 12.341 300.639 12.3171 300.643C12.2933 300.647 12.2694 300.65 12.2455 300.651C12.2215 300.652 12.1976 300.652 12.1737 300.651C12.1498 300.649 12.1259 300.646 12.1021 300.642C12.0782 300.637 12.0545 300.631 12.0308 300.624C12.0072 300.617 11.9836 300.608 11.9602 300.598C11.9368 300.587 11.9136 300.576 11.8905 300.563C11.8674 300.55 11.8446 300.535 11.8219 300.52C11.7993 300.504 11.7769 300.487 11.7547 300.468C11.7325 300.45 11.7107 300.43 11.6891 300.409C11.6675 300.388 11.6462 300.366 11.6253 300.342C11.6044 300.318 11.5838 300.293 11.5636 300.267C11.5434 300.241 11.5236 300.213 11.5041 300.185C11.4847 300.156 11.4657 300.127 11.4472 300.096C11.4286 300.065 11.4105 300.033 11.3929 300C11.3753 299.967 11.3581 299.933 11.3415 299.898C11.3248 299.863 11.3087 299.827 11.2931 299.79C11.2775 299.752 11.2625 299.715 11.248 299.676C11.2335 299.637 11.2195 299.597 11.2062 299.557C11.1928 299.516 11.1801 299.474 11.168 299.432C11.1558 299.39 11.1443 299.348 11.1334 299.304C11.1225 299.26 11.1122 299.216 11.1026 299.172C11.0929 299.127 11.084 299.082 11.0756 299.036C11.0673 298.99 11.0597 298.944 11.0527 298.897C11.0457 298.85 11.0394 298.803 11.0338 298.756C11.0282 298.708 11.0233 298.66 11.0191 298.612C11.0148 298.564 11.0113 298.516 11.0085 298.467C11.0057 298.419 11.0035 298.37 11.0021 298.321C11.0007 298.273 11 298.224 11 298.175L11 284.067C11 284.002 11.0012 283.938 11.0037 283.874C11.0062 283.809 11.0098 283.745 11.0147 283.682C11.0197 283.618 11.0258 283.555 11.0331 283.492C11.0404 283.429 11.0489 283.367 11.0586 283.306C11.0683 283.245 11.0792 283.184 11.0912 283.125C11.1032 283.065 11.1163 283.006 11.1306 282.949C11.1448 282.891 11.1602 282.835 11.1766 282.78C11.193 282.725 11.2104 282.671 11.2288 282.619C11.2473 282.567 11.2667 282.516 11.2871 282.467C11.3075 282.417 11.3288 282.37 11.3511 282.324C11.3733 282.278 11.3963 282.234 11.4202 282.192C11.4441 282.15 11.4688 282.11 11.4942 282.072C11.5196 282.033 11.5458 281.997 11.5726 281.963C11.5994 281.929 11.6268 281.897 11.6549 281.868C11.6829 281.838 11.7114 281.811 11.7405 281.785C11.7696 281.76 11.7991 281.738 11.8291 281.717Z" fill="#EDEFFF"/>
<path fill-rule="evenodd" clip-rule="evenodd" d="M11.8291 310.4L29.6156 298.275C29.6776 298.233 29.7408 298.201 29.8053 298.179C29.8698 298.158 29.9346 298.147 29.9999 298.147C30.0652 298.147 30.1301 298.158 30.1946 298.179C30.2591 298.201 30.3223 298.233 30.3842 298.275L48.1709 310.4C48.2009 310.42 48.2304 310.443 48.2594 310.468C48.2885 310.493 48.317 310.521 48.3451 310.55C48.3731 310.58 48.4005 310.612 48.4273 310.646C48.4542 310.68 48.4803 310.716 48.5058 310.754C48.5312 310.792 48.5558 310.833 48.5797 310.875C48.6036 310.917 48.6267 310.961 48.6489 311.007C48.6711 311.052 48.6924 311.1 48.7128 311.149C48.7332 311.198 48.7527 311.249 48.7711 311.301C48.7895 311.354 48.8069 311.407 48.8234 311.463C48.8398 311.518 48.8551 311.574 48.8693 311.631C48.8836 311.689 48.8968 311.748 48.9088 311.807C48.9208 311.867 48.9316 311.927 48.9413 311.989C48.951 312.05 48.9595 312.112 48.9669 312.175C48.9742 312.237 48.9803 312.301 48.9852 312.364C48.9901 312.428 48.9937 312.492 48.9962 312.556C48.9987 312.621 49 312.685 49 312.749L49 326.857C48.9999 326.906 48.9992 326.955 48.9978 327.004C48.9964 327.053 48.9943 327.101 48.9914 327.15C48.9886 327.199 48.9851 327.247 48.9809 327.295C48.9766 327.343 48.9717 327.391 48.9662 327.438C48.9605 327.486 48.9542 327.533 48.9473 327.58C48.9403 327.626 48.9326 327.673 48.9244 327.719C48.916 327.764 48.907 327.81 48.8974 327.854C48.8878 327.899 48.8775 327.943 48.8666 327.987C48.8557 328.03 48.8441 328.073 48.8319 328.115C48.8198 328.157 48.8071 328.198 48.7937 328.239C48.7804 328.28 48.7665 328.319 48.752 328.358C48.7375 328.397 48.7224 328.435 48.7068 328.472C48.6912 328.509 48.6751 328.545 48.6585 328.58C48.6418 328.615 48.6247 328.65 48.607 328.683C48.5894 328.716 48.5713 328.748 48.5527 328.778C48.5342 328.809 48.5152 328.839 48.4958 328.868C48.4764 328.896 48.4566 328.923 48.4364 328.95C48.4161 328.976 48.3955 329.001 48.3746 329.024C48.3537 329.048 48.3324 329.071 48.3109 329.092C48.2893 329.113 48.2674 329.133 48.2453 329.151C48.2231 329.169 48.2007 329.187 48.178 329.202C48.1553 329.218 48.1325 329.232 48.1095 329.245C48.0863 329.258 48.0631 329.27 48.0397 329.28C48.0163 329.29 47.9928 329.299 47.9691 329.306C47.9455 329.314 47.9217 329.32 47.8979 329.324C47.874 329.329 47.8502 329.332 47.8263 329.334C47.8023 329.335 47.7784 329.335 47.7545 329.334C47.7305 329.333 47.7067 329.33 47.6829 329.326C47.659 329.322 47.6352 329.316 47.6115 329.309C47.5878 329.302 47.5643 329.293 47.5408 329.283C47.5173 329.273 47.4941 329.262 47.4711 329.249C47.4479 329.237 47.425 329.223 47.4023 329.207L30.3842 317.606C30.3223 317.564 30.2591 317.532 30.1946 317.511C30.1301 317.489 30.0652 317.479 29.9999 317.479C29.9346 317.479 29.8698 317.489 29.8053 317.511C29.7408 317.532 29.6776 317.564 29.6156 317.606L12.5976 329.207C12.5749 329.223 12.552 329.237 12.5289 329.249C12.5058 329.262 12.4825 329.273 12.4591 329.283C12.4357 329.293 12.4121 329.302 12.3884 329.309C12.3647 329.316 12.341 329.322 12.3171 329.326C12.2933 329.33 12.2694 329.333 12.2455 329.334C12.2215 329.335 12.1976 329.335 12.1737 329.334C12.1498 329.332 12.1259 329.329 12.1021 329.324C12.0782 329.32 12.0545 329.314 12.0308 329.306C12.0072 329.299 11.9836 329.29 11.9602 329.28C11.9368 329.27 11.9136 329.258 11.8905 329.245C11.8674 329.232 11.8446 329.218 11.8219 329.202C11.7993 329.187 11.7769 329.169 11.7547 329.151C11.7325 329.132 11.7107 329.113 11.6891 329.092C11.6675 329.071 11.6462 329.048 11.6253 329.024C11.6044 329.001 11.5838 328.976 11.5636 328.95C11.5434 328.923 11.5236 328.896 11.5041 328.868C11.4847 328.839 11.4657 328.809 11.4472 328.778C11.4286 328.748 11.4105 328.716 11.3929 328.683C11.3753 328.65 11.3581 328.615 11.3415 328.58C11.3248 328.545 11.3087 328.509 11.2931 328.472C11.2775 328.435 11.2625 328.397 11.248 328.358C11.2335 328.319 11.2195 328.28 11.2062 328.239C11.1928 328.198 11.1801 328.157 11.168 328.115C11.1558 328.073 11.1443 328.03 11.1334 327.987C11.1225 327.943 11.1122 327.899 11.1026 327.854C11.0929 327.81 11.084 327.764 11.0756 327.719C11.0673 327.673 11.0597 327.626 11.0527 327.58C11.0457 327.533 11.0394 327.486 11.0338 327.438C11.0282 327.391 11.0233 327.343 11.0191 327.295C11.0148 327.247 11.0113 327.199 11.0085 327.15C11.0057 327.101 11.0035 327.053 11.0021 327.004C11.0007 326.955 11 326.906 11 326.857L11 312.749C11 312.685 11.0012 312.621 11.0037 312.556C11.0062 312.492 11.0098 312.428 11.0147 312.364C11.0197 312.301 11.0258 312.237 11.0331 312.175C11.0404 312.112 11.0489 312.05 11.0586 311.989C11.0683 311.927 11.0792 311.867 11.0912 311.807C11.1032 311.748 11.1163 311.689 11.1306 311.631C11.1448 311.574 11.1602 311.518 11.1766 311.463C11.193 311.407 11.2104 311.354 11.2288 311.301C11.2473 311.249 11.2667 311.198 11.2871 311.149C11.3075 311.1 11.3288 311.052 11.3511 311.007C11.3733 310.961 11.3963 310.917 11.4202 310.875C11.4441 310.833 11.4688 310.792 11.4942 310.754C11.5196 310.716 11.5458 310.68 11.5726 310.646C11.5994 310.612 11.6268 310.58 11.6549 310.55C11.6829 310.521 11.7114 310.493 11.7405 310.468C11.7696 310.443 11.7991 310.42 11.8291 310.4Z" fill="#EDEFFF"/>
</svg>
