<svg width="185" height="370" viewBox="0 0 185 370" fill="none" xmlns="http://www.w3.org/2000/svg">
<g opacity="0.5">
<path fill-rule="evenodd" clip-rule="evenodd" d="M54.8291 81.2525L72.6156 69.1276C72.6776 69.0853 72.7408 69.0535 72.8053 69.0321C72.8698 69.0107 72.9346 69 72.9999 69C73.0652 69 73.1301 69.0107 73.1946 69.0321C73.2591 69.0535 73.3223 69.0853 73.3842 69.1276L91.1709 81.2525C91.2009 81.2729 91.2304 81.2957 91.2594 81.3208C91.2885 81.3459 91.317 81.3733 91.3451 81.403C91.3731 81.4327 91.4005 81.4646 91.4273 81.4986C91.4542 81.5326 91.4803 81.5688 91.5058 81.607C91.5312 81.6452 91.5558 81.6854 91.5797 81.7275C91.6036 81.7696 91.6267 81.8136 91.6489 81.8594C91.6711 81.9052 91.6924 81.9528 91.7128 82.002C91.7332 82.0512 91.7527 82.1019 91.7711 82.1543C91.7895 82.2066 91.8069 82.2603 91.8234 82.3154C91.8398 82.3704 91.8551 82.4267 91.8693 82.4843C91.8836 82.5418 91.8968 82.6004 91.9088 82.66C91.9208 82.7196 91.9316 82.7801 91.9413 82.8415C91.951 82.9028 91.9595 82.9648 91.9669 83.0275C91.9742 83.0903 91.9803 83.1535 91.9852 83.2171C91.9901 83.2808 91.9937 83.3448 91.9962 83.4091C91.9987 83.4733 92 83.5377 92 83.6022V97.7102C91.9999 97.7591 91.9992 97.808 91.9978 97.8569C91.9964 97.9056 91.9943 97.9542 91.9914 98.0028C91.9886 98.0513 91.9851 98.0996 91.9809 98.1477C91.9766 98.1957 91.9717 98.2435 91.9662 98.2911C91.9605 98.3386 91.9542 98.3858 91.9473 98.4325C91.9403 98.4792 91.9326 98.5255 91.9244 98.5714C91.916 98.6171 91.907 98.6623 91.8974 98.707C91.8878 98.7517 91.8775 98.7959 91.8666 98.8394C91.8557 98.883 91.8441 98.9257 91.8319 98.9678C91.8198 99.0098 91.8071 99.0512 91.7937 99.0919C91.7804 99.1325 91.7665 99.1722 91.752 99.211C91.7375 99.2499 91.7224 99.2879 91.7068 99.3249C91.6912 99.362 91.6751 99.398 91.6585 99.433C91.6418 99.4682 91.6247 99.5023 91.607 99.5354C91.5894 99.5684 91.5713 99.6004 91.5527 99.6312C91.5342 99.6621 91.5152 99.6918 91.4958 99.7203C91.4764 99.7489 91.4566 99.7762 91.4364 99.8024C91.4161 99.8286 91.3955 99.8535 91.3746 99.8772C91.3537 99.9009 91.3324 99.9233 91.3109 99.9443C91.2893 99.9655 91.2674 99.9854 91.2453 100.004C91.2231 100.022 91.2007 100.039 91.178 100.055C91.1553 100.071 91.1325 100.085 91.1095 100.098C91.0863 100.111 91.0631 100.123 91.0397 100.133C91.0163 100.143 90.9928 100.152 90.9691 100.159C90.9455 100.167 90.9217 100.173 90.8979 100.177C90.874 100.182 90.8502 100.185 90.8263 100.186C90.8023 100.188 90.7784 100.188 90.7545 100.187C90.7305 100.185 90.7067 100.183 90.6829 100.179C90.659 100.174 90.6352 100.169 90.6115 100.162C90.5878 100.155 90.5643 100.146 90.5408 100.136C90.5173 100.126 90.4941 100.115 90.4711 100.102C90.4479 100.09 90.425 100.075 90.4023 100.06L73.3842 88.459C73.3223 88.4168 73.2591 88.3849 73.1946 88.3636C73.1301 88.3422 73.0652 88.3315 72.9999 88.3315C72.9346 88.3315 72.8698 88.3422 72.8053 88.3636C72.7408 88.3849 72.6776 88.4168 72.6156 88.459L55.5976 100.06C55.5749 100.075 55.552 100.09 55.5289 100.102C55.5058 100.115 55.4825 100.126 55.4591 100.136C55.4357 100.146 55.4121 100.155 55.3884 100.162C55.3647 100.169 55.341 100.174 55.3171 100.179C55.2933 100.183 55.2694 100.185 55.2455 100.187C55.2215 100.188 55.1976 100.188 55.1737 100.186C55.1498 100.185 55.1259 100.182 55.1021 100.177C55.0782 100.173 55.0545 100.167 55.0308 100.159C55.0072 100.152 54.9836 100.143 54.9602 100.133C54.9368 100.123 54.9136 100.111 54.8905 100.098C54.8674 100.085 54.8446 100.071 54.8219 100.055C54.7993 100.039 54.7769 100.022 54.7547 100.004C54.7325 99.9853 54.7107 99.9655 54.6891 99.9443C54.6675 99.9233 54.6462 99.9009 54.6253 99.8772C54.6044 99.8535 54.5838 99.8286 54.5636 99.8024C54.5434 99.7762 54.5236 99.7489 54.5041 99.7203C54.4847 99.6918 54.4657 99.6621 54.4472 99.6312C54.4286 99.6004 54.4105 99.5684 54.3929 99.5354C54.3753 99.5023 54.3581 99.4682 54.3415 99.433C54.3248 99.398 54.3087 99.362 54.2931 99.3249C54.2775 99.2879 54.2625 99.2499 54.248 99.211C54.2335 99.1722 54.2195 99.1325 54.2062 99.0919C54.1928 99.0512 54.1801 99.0098 54.168 98.9678C54.1558 98.9257 54.1443 98.883 54.1334 98.8394C54.1225 98.7959 54.1122 98.7517 54.1026 98.707C54.0929 98.6623 54.084 98.6171 54.0756 98.5714C54.0673 98.5255 54.0597 98.4792 54.0527 98.4325C54.0457 98.3858 54.0394 98.3386 54.0338 98.2911C54.0282 98.2435 54.0233 98.1957 54.0191 98.1477C54.0148 98.0996 54.0113 98.0513 54.0085 98.0028C54.0057 97.9542 54.0035 97.9056 54.0021 97.8569C54.0007 97.808 54 97.7591 54 97.7102L54 83.6022C54 83.5377 54.0012 83.4733 54.0037 83.4091C54.0062 83.3448 54.0098 83.2808 54.0147 83.2171C54.0197 83.1535 54.0258 83.0903 54.0331 83.0275C54.0404 82.9648 54.0489 82.9028 54.0586 82.8415C54.0683 82.7801 54.0792 82.7196 54.0912 82.66C54.1032 82.6004 54.1163 82.5418 54.1306 82.4843C54.1448 82.4267 54.1602 82.3704 54.1766 82.3153C54.193 82.2603 54.2104 82.2066 54.2288 82.1542C54.2473 82.1019 54.2667 82.0512 54.2871 82.002C54.3075 81.9528 54.3288 81.9052 54.3511 81.8594C54.3733 81.8136 54.3963 81.7696 54.4202 81.7275C54.4441 81.6854 54.4688 81.6452 54.4942 81.607C54.5196 81.5688 54.5458 81.5326 54.5726 81.4986C54.5994 81.4645 54.6268 81.4327 54.6549 81.403C54.6829 81.3733 54.7114 81.3459 54.7405 81.3208C54.7696 81.2957 54.7991 81.2729 54.8291 81.2525Z" fill="#EDEFFF"/>
<path fill-rule="evenodd" clip-rule="evenodd" d="M54.8291 109.116L72.6156 96.9911C72.6776 96.9488 72.7408 96.917 72.8053 96.8956C72.8698 96.8743 72.9346 96.8636 72.9999 96.8636C73.0652 96.8636 73.1301 96.8743 73.1946 96.8956C73.2591 96.917 73.3223 96.9488 73.3842 96.9911L91.1709 109.116C91.2009 109.136 91.2304 109.159 91.2594 109.184C91.2885 109.209 91.317 109.237 91.3451 109.267C91.3731 109.296 91.4005 109.328 91.4273 109.362C91.4542 109.396 91.4803 109.432 91.5058 109.47C91.5312 109.509 91.5558 109.549 91.5797 109.591C91.6036 109.633 91.6267 109.677 91.6489 109.723C91.6711 109.769 91.6924 109.816 91.7128 109.866C91.7332 109.915 91.7527 109.965 91.7711 110.018C91.7895 110.07 91.8069 110.124 91.8234 110.179C91.8398 110.234 91.8551 110.29 91.8693 110.348C91.8836 110.405 91.8968 110.464 91.9088 110.524C91.9208 110.583 91.9316 110.644 91.9413 110.705C91.951 110.766 91.9595 110.828 91.9669 110.891C91.9742 110.954 91.9803 111.017 91.9852 111.081C91.9901 111.144 91.9937 111.208 91.9962 111.273C91.9987 111.337 92 111.401 92 111.466V125.574C91.9999 125.623 91.9992 125.672 91.9978 125.72C91.9964 125.769 91.9943 125.818 91.9914 125.866C91.9886 125.915 91.9851 125.963 91.9809 126.011C91.9766 126.059 91.9717 126.107 91.9662 126.155C91.9605 126.202 91.9542 126.249 91.9473 126.296C91.9403 126.343 91.9326 126.389 91.9244 126.435C91.916 126.481 91.907 126.526 91.8974 126.571C91.8878 126.615 91.8775 126.659 91.8666 126.703C91.8557 126.746 91.8441 126.789 91.8319 126.831C91.8198 126.873 91.8071 126.915 91.7937 126.955C91.7804 126.996 91.7665 127.036 91.752 127.075C91.7375 127.113 91.7224 127.151 91.7068 127.188C91.6912 127.225 91.6751 127.262 91.6585 127.297C91.6418 127.332 91.6247 127.366 91.607 127.399C91.5894 127.432 91.5713 127.464 91.5527 127.495C91.5342 127.526 91.5152 127.555 91.4958 127.584C91.4764 127.612 91.4566 127.64 91.4364 127.666C91.4161 127.692 91.3955 127.717 91.3746 127.741C91.3537 127.764 91.3324 127.787 91.3109 127.808C91.2893 127.829 91.2674 127.849 91.2453 127.867C91.2231 127.886 91.2007 127.903 91.178 127.919C91.1553 127.934 91.1325 127.949 91.1095 127.962C91.0863 127.975 91.0631 127.986 91.0397 127.997C91.0163 128.007 90.9928 128.015 90.9691 128.023C90.9455 128.03 90.9217 128.036 90.8979 128.041C90.874 128.045 90.8502 128.048 90.8263 128.05C90.8023 128.051 90.7784 128.051 90.7545 128.05C90.7305 128.049 90.7067 128.046 90.6829 128.042C90.659 128.038 90.6352 128.032 90.6115 128.025C90.5878 128.018 90.5643 128.01 90.5408 128C90.5173 127.99 90.4941 127.978 90.4711 127.966C90.4479 127.953 90.425 127.939 90.4023 127.923L73.3842 116.323C73.3223 116.28 73.2591 116.248 73.1946 116.227C73.1301 116.206 73.0652 116.195 72.9999 116.195C72.9346 116.195 72.8698 116.206 72.8053 116.227C72.7408 116.248 72.6776 116.28 72.6156 116.323L55.5976 127.923C55.5749 127.939 55.552 127.953 55.5289 127.966C55.5058 127.978 55.4825 127.99 55.4591 128C55.4357 128.01 55.4121 128.018 55.3884 128.025C55.3647 128.032 55.341 128.038 55.3171 128.042C55.2933 128.046 55.2694 128.049 55.2455 128.05C55.2215 128.051 55.1976 128.051 55.1737 128.05C55.1498 128.048 55.1259 128.045 55.1021 128.041C55.0782 128.036 55.0545 128.03 55.0308 128.023C55.0072 128.015 54.9836 128.007 54.9602 127.997C54.9368 127.986 54.9136 127.975 54.8905 127.962C54.8674 127.949 54.8446 127.934 54.8219 127.919C54.7993 127.903 54.7769 127.886 54.7547 127.867C54.7325 127.849 54.7107 127.829 54.6891 127.808C54.6675 127.787 54.6462 127.764 54.6253 127.741C54.6044 127.717 54.5838 127.692 54.5636 127.666C54.5434 127.64 54.5236 127.612 54.5041 127.584C54.4847 127.555 54.4657 127.526 54.4472 127.495C54.4286 127.464 54.4105 127.432 54.3929 127.399C54.3753 127.366 54.3581 127.332 54.3415 127.297C54.3248 127.262 54.3087 127.225 54.2931 127.188C54.2775 127.151 54.2625 127.113 54.248 127.075C54.2335 127.036 54.2195 126.996 54.2062 126.955C54.1928 126.915 54.1801 126.873 54.168 126.831C54.1558 126.789 54.1443 126.746 54.1334 126.703C54.1225 126.659 54.1122 126.615 54.1026 126.571C54.0929 126.526 54.084 126.481 54.0756 126.435C54.0673 126.389 54.0597 126.343 54.0527 126.296C54.0457 126.249 54.0394 126.202 54.0338 126.155C54.0282 126.107 54.0233 126.059 54.0191 126.011C54.0148 125.963 54.0113 125.915 54.0085 125.866C54.0057 125.818 54.0035 125.769 54.0021 125.72C54.0007 125.672 54 125.623 54 125.574L54 111.466C54 111.401 54.0012 111.337 54.0037 111.273C54.0062 111.208 54.0098 111.144 54.0147 111.081C54.0197 111.017 54.0258 110.954 54.0331 110.891C54.0404 110.828 54.0489 110.766 54.0586 110.705C54.0683 110.644 54.0792 110.583 54.0912 110.524C54.1032 110.464 54.1163 110.405 54.1306 110.348C54.1448 110.29 54.1602 110.234 54.1766 110.179C54.193 110.124 54.2104 110.07 54.2288 110.018C54.2473 109.965 54.2667 109.915 54.2871 109.866C54.3075 109.816 54.3288 109.769 54.3511 109.723C54.3733 109.677 54.3963 109.633 54.4202 109.591C54.4441 109.549 54.4688 109.509 54.4942 109.47C54.5196 109.432 54.5458 109.396 54.5726 109.362C54.5994 109.328 54.6268 109.296 54.6549 109.267C54.6829 109.237 54.7114 109.209 54.7405 109.184C54.7696 109.159 54.7991 109.136 54.8291 109.116Z" fill="#EDEFFF"/>
<path fill-rule="evenodd" clip-rule="evenodd" d="M54.8291 138.618L72.6156 126.494C72.6776 126.451 72.7408 126.419 72.8053 126.398C72.8698 126.377 72.9346 126.366 72.9999 126.366C73.0652 126.366 73.1301 126.377 73.1946 126.398C73.2591 126.419 73.3223 126.451 73.3842 126.494L91.1709 138.618C91.2009 138.639 91.2304 138.662 91.2594 138.687C91.2885 138.712 91.317 138.739 91.3451 138.769C91.3731 138.799 91.4005 138.831 91.4273 138.865C91.4542 138.899 91.4803 138.935 91.5058 138.973C91.5312 139.011 91.5558 139.051 91.5797 139.093C91.6036 139.136 91.6267 139.18 91.6489 139.225C91.6711 139.271 91.6924 139.319 91.7128 139.368C91.7332 139.417 91.7527 139.468 91.7711 139.52C91.7895 139.573 91.8069 139.626 91.8234 139.681C91.8398 139.736 91.8551 139.793 91.8693 139.85C91.8836 139.908 91.8968 139.966 91.9088 140.026C91.9208 140.086 91.9316 140.146 91.9413 140.207C91.951 140.269 91.9595 140.331 91.9669 140.394C91.9742 140.456 91.9803 140.519 91.9852 140.583C91.9901 140.647 91.9937 140.711 91.9962 140.775C91.9987 140.839 92 140.904 92 140.968V155.076C91.9999 155.125 91.9992 155.174 91.9978 155.223C91.9964 155.272 91.9943 155.32 91.9914 155.369C91.9886 155.417 91.9851 155.466 91.9809 155.514C91.9766 155.562 91.9717 155.61 91.9662 155.657C91.9605 155.705 91.9542 155.752 91.9473 155.798C91.9403 155.845 91.9326 155.891 91.9244 155.937C91.916 155.983 91.907 156.028 91.8974 156.073C91.8878 156.118 91.8775 156.162 91.8666 156.205C91.8557 156.249 91.8441 156.292 91.8319 156.334C91.8198 156.376 91.8071 156.417 91.7937 156.458C91.7804 156.498 91.7665 156.538 91.752 156.577C91.7375 156.616 91.7224 156.654 91.7068 156.691C91.6912 156.728 91.6751 156.764 91.6585 156.799C91.6418 156.834 91.6247 156.868 91.607 156.901C91.5894 156.934 91.5713 156.966 91.5527 156.997C91.5342 157.028 91.5152 157.058 91.4958 157.086C91.4764 157.115 91.4566 157.142 91.4364 157.168C91.4161 157.195 91.3955 157.22 91.3746 157.243C91.3537 157.267 91.3324 157.289 91.3109 157.31C91.2893 157.331 91.2674 157.351 91.2453 157.37C91.2231 157.388 91.2007 157.405 91.178 157.421C91.1553 157.437 91.1325 157.451 91.1095 157.464C91.0863 157.477 91.0631 157.489 91.0397 157.499C91.0163 157.509 90.9928 157.518 90.9691 157.525C90.9455 157.533 90.9217 157.539 90.8979 157.543C90.874 157.548 90.8502 157.551 90.8263 157.552C90.8023 157.554 90.7784 157.554 90.7545 157.553C90.7305 157.551 90.7067 157.549 90.6829 157.545C90.659 157.54 90.6352 157.535 90.6115 157.527C90.5878 157.52 90.5643 157.512 90.5408 157.502C90.5173 157.492 90.4941 157.481 90.4711 157.468C90.4479 157.456 90.425 157.441 90.4023 157.426L73.3842 145.825C73.3223 145.783 73.2591 145.751 73.1946 145.73C73.1301 145.708 73.0652 145.697 72.9999 145.697C72.9346 145.697 72.8698 145.708 72.8053 145.73C72.7408 145.751 72.6776 145.783 72.6156 145.825L55.5976 157.426C55.5749 157.441 55.552 157.456 55.5289 157.468C55.5058 157.481 55.4825 157.492 55.4591 157.502C55.4357 157.512 55.4121 157.52 55.3884 157.527C55.3647 157.535 55.341 157.54 55.3171 157.545C55.2933 157.549 55.2694 157.551 55.2455 157.553C55.2215 157.554 55.1976 157.554 55.1737 157.552C55.1498 157.551 55.1259 157.548 55.1021 157.543C55.0782 157.539 55.0545 157.533 55.0308 157.525C55.0072 157.518 54.9836 157.509 54.9602 157.499C54.9368 157.489 54.9136 157.477 54.8905 157.464C54.8674 157.451 54.8446 157.437 54.8219 157.421C54.7993 157.405 54.7769 157.388 54.7547 157.37C54.7325 157.351 54.7107 157.331 54.6891 157.31C54.6675 157.289 54.6462 157.267 54.6253 157.243C54.6044 157.22 54.5838 157.195 54.5636 157.168C54.5434 157.142 54.5236 157.115 54.5041 157.086C54.4847 157.058 54.4657 157.028 54.4472 156.997C54.4286 156.966 54.4105 156.934 54.3929 156.901C54.3753 156.868 54.3581 156.834 54.3415 156.799C54.3248 156.764 54.3087 156.728 54.2931 156.691C54.2775 156.654 54.2625 156.616 54.248 156.577C54.2335 156.538 54.2195 156.498 54.2062 156.458C54.1928 156.417 54.1801 156.376 54.168 156.334C54.1558 156.292 54.1443 156.249 54.1334 156.205C54.1225 156.162 54.1122 156.118 54.1026 156.073C54.0929 156.028 54.084 155.983 54.0756 155.937C54.0673 155.891 54.0597 155.845 54.0527 155.798C54.0457 155.752 54.0394 155.705 54.0338 155.657C54.0282 155.61 54.0233 155.562 54.0191 155.514C54.0148 155.466 54.0113 155.417 54.0085 155.369C54.0057 155.32 54.0035 155.272 54.0021 155.223C54.0007 155.174 54 155.125 54 155.076L54 140.968C54 140.904 54.0012 140.839 54.0037 140.775C54.0062 140.711 54.0098 140.647 54.0147 140.583C54.0197 140.519 54.0258 140.456 54.0331 140.394C54.0404 140.331 54.0489 140.269 54.0586 140.207C54.0683 140.146 54.0792 140.086 54.0912 140.026C54.1032 139.966 54.1163 139.908 54.1306 139.85C54.1448 139.793 54.1602 139.736 54.1766 139.681C54.193 139.626 54.2104 139.573 54.2288 139.52C54.2473 139.468 54.2667 139.417 54.2871 139.368C54.3075 139.319 54.3288 139.271 54.3511 139.225C54.3733 139.18 54.3963 139.136 54.4202 139.093C54.4441 139.051 54.4688 139.011 54.4942 138.973C54.5196 138.935 54.5458 138.899 54.5726 138.865C54.5994 138.831 54.6268 138.799 54.6549 138.769C54.6829 138.739 54.7114 138.712 54.7405 138.687C54.7696 138.662 54.7991 138.639 54.8291 138.618Z" fill="#EDEFFF"/>
<path fill-rule="evenodd" clip-rule="evenodd" d="M54.8291 167.302L72.6156 155.177C72.6776 155.135 72.7408 155.103 72.8053 155.082C72.8698 155.06 72.9346 155.049 72.9999 155.049C73.0652 155.049 73.1301 155.06 73.1946 155.082C73.2591 155.103 73.3223 155.135 73.3842 155.177L91.1709 167.302C91.2009 167.322 91.2304 167.345 91.2594 167.37C91.2885 167.395 91.317 167.423 91.3451 167.452C91.3731 167.482 91.4005 167.514 91.4273 167.548C91.4542 167.582 91.4803 167.618 91.5058 167.656C91.5312 167.695 91.5558 167.735 91.5797 167.777C91.6036 167.819 91.6267 167.863 91.6489 167.909C91.6711 167.955 91.6924 168.002 91.7128 168.051C91.7332 168.101 91.7527 168.151 91.7711 168.204C91.7895 168.256 91.8069 168.31 91.8234 168.365C91.8398 168.42 91.8551 168.476 91.8693 168.534C91.8836 168.591 91.8968 168.65 91.9088 168.709C91.9208 168.769 91.9316 168.83 91.9413 168.891C91.951 168.952 91.9595 169.014 91.9669 169.077C91.9742 169.14 91.9803 169.203 91.9852 169.267C91.9901 169.33 91.9937 169.394 91.9962 169.459C91.9987 169.523 92 169.587 92 169.652V183.76C91.9999 183.809 91.9992 183.857 91.9978 183.906C91.9964 183.955 91.9943 184.004 91.9914 184.052C91.9886 184.101 91.9851 184.149 91.9809 184.197C91.9766 184.245 91.9717 184.293 91.9662 184.341C91.9605 184.388 91.9542 184.435 91.9473 184.482C91.9403 184.529 91.9326 184.575 91.9244 184.621C91.916 184.667 91.907 184.712 91.8974 184.756C91.8878 184.801 91.8775 184.845 91.8666 184.889C91.8557 184.932 91.8441 184.975 91.8319 185.017C91.8198 185.059 91.8071 185.101 91.7937 185.141C91.7804 185.182 91.7665 185.222 91.752 185.26C91.7375 185.299 91.7224 185.337 91.7068 185.374C91.6912 185.411 91.6751 185.447 91.6585 185.482C91.6418 185.518 91.6247 185.552 91.607 185.585C91.5894 185.618 91.5713 185.65 91.5527 185.681C91.5342 185.712 91.5152 185.741 91.4958 185.77C91.4764 185.798 91.4566 185.826 91.4364 185.852C91.4161 185.878 91.3955 185.903 91.3746 185.927C91.3537 185.95 91.3324 185.973 91.3109 185.994C91.2893 186.015 91.2674 186.035 91.2453 186.053C91.2231 186.072 91.2007 186.089 91.178 186.105C91.1553 186.12 91.1325 186.135 91.1095 186.148C91.0863 186.161 91.0631 186.172 91.0397 186.182C91.0163 186.193 90.9928 186.201 90.9691 186.209C90.9455 186.216 90.9217 186.222 90.8979 186.226C90.874 186.231 90.8502 186.234 90.8263 186.236C90.8023 186.237 90.7784 186.237 90.7545 186.236C90.7305 186.235 90.7067 186.232 90.6829 186.228C90.659 186.224 90.6352 186.218 90.6115 186.211C90.5878 186.204 90.5643 186.196 90.5408 186.186C90.5173 186.176 90.4941 186.164 90.4711 186.152C90.4479 186.139 90.425 186.125 90.4023 186.109L73.3842 174.508C73.3223 174.466 73.2591 174.434 73.1946 174.413C73.1301 174.392 73.0652 174.381 72.9999 174.381C72.9346 174.381 72.8698 174.392 72.8053 174.413C72.7408 174.434 72.6776 174.466 72.6156 174.508L55.5976 186.109C55.5749 186.125 55.552 186.139 55.5289 186.152C55.5058 186.164 55.4825 186.176 55.4591 186.186C55.4357 186.196 55.4121 186.204 55.3884 186.211C55.3647 186.218 55.341 186.224 55.3171 186.228C55.2933 186.232 55.2694 186.235 55.2455 186.236C55.2215 186.237 55.1976 186.237 55.1737 186.236C55.1498 186.234 55.1259 186.231 55.1021 186.226C55.0782 186.222 55.0545 186.216 55.0308 186.209C55.0072 186.201 54.9836 186.193 54.9602 186.182C54.9368 186.172 54.9136 186.161 54.8905 186.148C54.8674 186.135 54.8446 186.12 54.8219 186.105C54.7993 186.089 54.7769 186.072 54.7547 186.053C54.7325 186.035 54.7107 186.015 54.6891 185.994C54.6675 185.973 54.6462 185.95 54.6253 185.927C54.6044 185.903 54.5838 185.878 54.5636 185.852C54.5434 185.826 54.5236 185.798 54.5041 185.77C54.4847 185.741 54.4657 185.712 54.4472 185.681C54.4286 185.65 54.4105 185.618 54.3929 185.585C54.3753 185.552 54.3581 185.518 54.3415 185.482C54.3248 185.447 54.3087 185.411 54.2931 185.374C54.2775 185.337 54.2625 185.299 54.248 185.26C54.2335 185.222 54.2195 185.182 54.2062 185.141C54.1928 185.101 54.1801 185.059 54.168 185.017C54.1558 184.975 54.1443 184.932 54.1334 184.889C54.1225 184.845 54.1122 184.801 54.1026 184.756C54.0929 184.712 54.084 184.667 54.0756 184.621C54.0673 184.575 54.0597 184.529 54.0527 184.482C54.0457 184.435 54.0394 184.388 54.0338 184.341C54.0282 184.293 54.0233 184.245 54.0191 184.197C54.0148 184.149 54.0113 184.101 54.0085 184.052C54.0057 184.004 54.0035 183.955 54.0021 183.906C54.0007 183.857 54 183.809 54 183.76L54 169.652C54 169.587 54.0012 169.523 54.0037 169.459C54.0062 169.394 54.0098 169.33 54.0147 169.267C54.0197 169.203 54.0258 169.14 54.0331 169.077C54.0404 169.014 54.0489 168.952 54.0586 168.891C54.0683 168.83 54.0792 168.769 54.0912 168.709C54.1032 168.65 54.1163 168.591 54.1306 168.534C54.1448 168.476 54.1602 168.42 54.1766 168.365C54.193 168.31 54.2104 168.256 54.2288 168.204C54.2473 168.151 54.2667 168.101 54.2871 168.051C54.3075 168.002 54.3288 167.955 54.3511 167.909C54.3733 167.863 54.3963 167.819 54.4202 167.777C54.4441 167.735 54.4688 167.695 54.4942 167.656C54.5196 167.618 54.5458 167.582 54.5726 167.548C54.5994 167.514 54.6268 167.482 54.6549 167.452C54.6829 167.423 54.7114 167.395 54.7405 167.37C54.7696 167.345 54.7991 167.322 54.8291 167.302Z" fill="#EDEFFF"/>
<path fill-rule="evenodd" clip-rule="evenodd" d="M54.8291 195.985L72.6156 183.86C72.6776 183.817 72.7408 183.786 72.8053 183.764C72.8698 183.743 72.9346 183.732 72.9999 183.732C73.0652 183.732 73.1301 183.743 73.1946 183.764C73.2591 183.786 73.3223 183.817 73.3842 183.86L91.1709 195.985C91.2009 196.005 91.2304 196.028 91.2594 196.053C91.2885 196.078 91.317 196.105 91.3451 196.135C91.3731 196.165 91.4005 196.197 91.4273 196.231C91.4542 196.265 91.4803 196.301 91.5058 196.339C91.5312 196.377 91.5558 196.417 91.5797 196.46C91.6036 196.502 91.6267 196.546 91.6489 196.591C91.6711 196.637 91.6924 196.685 91.7128 196.734C91.7332 196.783 91.7527 196.834 91.7711 196.886C91.7895 196.939 91.8069 196.992 91.8234 197.047C91.8398 197.102 91.8551 197.159 91.8693 197.216C91.8836 197.274 91.8968 197.332 91.9088 197.392C91.9208 197.452 91.9316 197.512 91.9413 197.574C91.951 197.635 91.9595 197.697 91.9669 197.76C91.9742 197.822 91.9803 197.886 91.9852 197.949C91.9901 198.013 91.9937 198.077 91.9962 198.141C91.9987 198.205 92 198.27 92 198.334V212.442C91.9999 212.491 91.9992 212.54 91.9978 212.589C91.9964 212.638 91.9943 212.686 91.9914 212.735C91.9886 212.783 91.9851 212.832 91.9809 212.88C91.9766 212.928 91.9717 212.976 91.9662 213.023C91.9605 213.071 91.9542 213.118 91.9473 213.165C91.9403 213.211 91.9326 213.258 91.9244 213.303C91.916 213.349 91.907 213.394 91.8974 213.439C91.8878 213.484 91.8775 213.528 91.8666 213.571C91.8557 213.615 91.8441 213.658 91.8319 213.7C91.8198 213.742 91.8071 213.783 91.7937 213.824C91.7804 213.865 91.7665 213.904 91.752 213.943C91.7375 213.982 91.7224 214.02 91.7068 214.057C91.6912 214.094 91.6751 214.13 91.6585 214.165C91.6418 214.2 91.6247 214.234 91.607 214.267C91.5894 214.3 91.5713 214.332 91.5527 214.363C91.5342 214.394 91.5152 214.424 91.4958 214.452C91.4764 214.481 91.4566 214.508 91.4364 214.534C91.4161 214.561 91.3955 214.586 91.3746 214.609C91.3537 214.633 91.3324 214.655 91.3109 214.676C91.2893 214.698 91.2674 214.717 91.2453 214.736C91.2231 214.754 91.2007 214.771 91.178 214.787C91.1553 214.803 91.1325 214.817 91.1095 214.83C91.0863 214.843 91.0631 214.855 91.0397 214.865C91.0163 214.875 90.9928 214.884 90.9691 214.891C90.9455 214.899 90.9217 214.905 90.8979 214.909C90.874 214.914 90.8502 214.917 90.8263 214.918C90.8023 214.92 90.7784 214.92 90.7545 214.919C90.7305 214.917 90.7067 214.915 90.6829 214.911C90.659 214.906 90.6352 214.901 90.6115 214.894C90.5878 214.887 90.5643 214.878 90.5408 214.868C90.5173 214.858 90.4941 214.847 90.4711 214.834C90.4479 214.822 90.425 214.807 90.4023 214.792L73.3842 203.191C73.3223 203.149 73.2591 203.117 73.1946 203.096C73.1301 203.074 73.0652 203.064 72.9999 203.064C72.9346 203.064 72.8698 203.074 72.8053 203.096C72.7408 203.117 72.6776 203.149 72.6156 203.191L55.5976 214.792C55.5749 214.807 55.552 214.822 55.5289 214.834C55.5058 214.847 55.4825 214.858 55.4591 214.868C55.4357 214.878 55.4121 214.887 55.3884 214.894C55.3647 214.901 55.341 214.906 55.3171 214.911C55.2933 214.915 55.2694 214.917 55.2455 214.919C55.2215 214.92 55.1976 214.92 55.1737 214.918C55.1498 214.917 55.1259 214.914 55.1021 214.909C55.0782 214.905 55.0545 214.899 55.0308 214.891C55.0072 214.884 54.9836 214.875 54.9602 214.865C54.9368 214.855 54.9136 214.843 54.8905 214.83C54.8674 214.817 54.8446 214.803 54.8219 214.787C54.7993 214.771 54.7769 214.754 54.7547 214.736C54.7325 214.717 54.7107 214.698 54.6891 214.676C54.6675 214.655 54.6462 214.633 54.6253 214.609C54.6044 214.586 54.5838 214.561 54.5636 214.534C54.5434 214.508 54.5236 214.481 54.5041 214.452C54.4847 214.424 54.4657 214.394 54.4472 214.363C54.4286 214.332 54.4105 214.3 54.3929 214.267C54.3753 214.234 54.3581 214.2 54.3415 214.165C54.3248 214.13 54.3087 214.094 54.2931 214.057C54.2775 214.02 54.2625 213.982 54.248 213.943C54.2335 213.904 54.2195 213.865 54.2062 213.824C54.1928 213.783 54.1801 213.742 54.168 213.7C54.1558 213.658 54.1443 213.615 54.1334 213.571C54.1225 213.528 54.1122 213.484 54.1026 213.439C54.0929 213.394 54.084 213.349 54.0756 213.303C54.0673 213.258 54.0597 213.211 54.0527 213.165C54.0457 213.118 54.0394 213.071 54.0338 213.023C54.0282 212.976 54.0233 212.928 54.0191 212.88C54.0148 212.832 54.0113 212.783 54.0085 212.735C54.0057 212.686 54.0035 212.638 54.0021 212.589C54.0007 212.54 54 212.491 54 212.442L54 198.334C54 198.27 54.0012 198.205 54.0037 198.141C54.0062 198.077 54.0098 198.013 54.0147 197.949C54.0197 197.886 54.0258 197.822 54.0331 197.76C54.0404 197.697 54.0489 197.635 54.0586 197.574C54.0683 197.512 54.0792 197.452 54.0912 197.392C54.1032 197.332 54.1163 197.274 54.1306 197.216C54.1448 197.159 54.1602 197.102 54.1766 197.047C54.193 196.992 54.2104 196.939 54.2288 196.886C54.2473 196.834 54.2667 196.783 54.2871 196.734C54.3075 196.685 54.3288 196.637 54.3511 196.591C54.3733 196.546 54.3963 196.502 54.4202 196.46C54.4441 196.417 54.4688 196.377 54.4942 196.339C54.5196 196.301 54.5458 196.265 54.5726 196.231C54.5994 196.197 54.6268 196.165 54.6549 196.135C54.6829 196.105 54.7114 196.078 54.7405 196.053C54.7696 196.028 54.7991 196.005 54.8291 195.985Z" fill="#EDEFFF"/>
<path fill-rule="evenodd" clip-rule="evenodd" d="M54.8291 223.848L72.6156 211.723C72.6776 211.681 72.7408 211.649 72.8053 211.628C72.8698 211.606 72.9346 211.596 72.9999 211.596C73.0652 211.596 73.1301 211.606 73.1946 211.628C73.2591 211.649 73.3223 211.681 73.3842 211.723L91.1709 223.848C91.2009 223.869 91.2304 223.891 91.2594 223.916C91.2885 223.942 91.317 223.969 91.3451 223.999C91.3731 224.028 91.4005 224.06 91.4273 224.094C91.4542 224.128 91.4803 224.164 91.5058 224.203C91.5312 224.241 91.5558 224.281 91.5797 224.323C91.6036 224.365 91.6267 224.409 91.6489 224.455C91.6711 224.501 91.6924 224.548 91.7128 224.598C91.7332 224.647 91.7527 224.698 91.7711 224.75C91.7895 224.802 91.8069 224.856 91.8234 224.911C91.8398 224.966 91.8551 225.022 91.8693 225.08C91.8836 225.137 91.8968 225.196 91.9088 225.256C91.9208 225.315 91.9316 225.376 91.9413 225.437C91.951 225.498 91.9595 225.56 91.9669 225.623C91.9742 225.686 91.9803 225.749 91.9852 225.813C91.9901 225.876 91.9937 225.94 91.9962 226.005C91.9987 226.069 92 226.133 92 226.198V240.306C91.9999 240.355 91.9992 240.404 91.9978 240.452C91.9964 240.501 91.9943 240.55 91.9914 240.598C91.9886 240.647 91.9851 240.695 91.9809 240.743C91.9766 240.791 91.9717 240.839 91.9662 240.887C91.9605 240.934 91.9542 240.981 91.9473 241.028C91.9403 241.075 91.9326 241.121 91.9244 241.167C91.916 241.213 91.907 241.258 91.8974 241.303C91.8878 241.347 91.8775 241.391 91.8666 241.435C91.8557 241.479 91.8441 241.521 91.8319 241.563C91.8198 241.605 91.8071 241.647 91.7937 241.688C91.7804 241.728 91.7665 241.768 91.752 241.807C91.7375 241.846 91.7224 241.883 91.7068 241.92C91.6912 241.958 91.6751 241.994 91.6585 242.029C91.6418 242.064 91.6247 242.098 91.607 242.131C91.5894 242.164 91.5713 242.196 91.5527 242.227C91.5342 242.258 91.5152 242.287 91.4958 242.316C91.4764 242.344 91.4566 242.372 91.4364 242.398C91.4161 242.424 91.3955 242.449 91.3746 242.473C91.3537 242.497 91.3324 242.519 91.3109 242.54C91.2893 242.561 91.2674 242.581 91.2453 242.599C91.2231 242.618 91.2007 242.635 91.178 242.651C91.1553 242.666 91.1325 242.681 91.1095 242.694C91.0863 242.707 91.0631 242.718 91.0397 242.729C91.0163 242.739 90.9928 242.748 90.9691 242.755C90.9455 242.762 90.9217 242.768 90.8979 242.773C90.874 242.777 90.8502 242.78 90.8263 242.782C90.8023 242.783 90.7784 242.783 90.7545 242.782C90.7305 242.781 90.7067 242.778 90.6829 242.774C90.659 242.77 90.6352 242.764 90.6115 242.757C90.5878 242.75 90.5643 242.742 90.5408 242.732C90.5173 242.722 90.4941 242.71 90.4711 242.698C90.4479 242.685 90.425 242.671 90.4023 242.656L73.3842 231.055C73.3223 231.012 73.2591 230.981 73.1946 230.959C73.1301 230.938 73.0652 230.927 72.9999 230.927C72.9346 230.927 72.8698 230.938 72.8053 230.959C72.7408 230.981 72.6776 231.012 72.6156 231.055L55.5976 242.656C55.5749 242.671 55.552 242.685 55.5289 242.698C55.5058 242.71 55.4825 242.722 55.4591 242.732C55.4357 242.742 55.4121 242.75 55.3884 242.757C55.3647 242.764 55.341 242.77 55.3171 242.774C55.2933 242.778 55.2694 242.781 55.2455 242.782C55.2215 242.783 55.1976 242.783 55.1737 242.782C55.1498 242.78 55.1259 242.777 55.1021 242.773C55.0782 242.768 55.0545 242.762 55.0308 242.755C55.0072 242.748 54.9836 242.739 54.9602 242.729C54.9368 242.718 54.9136 242.707 54.8905 242.694C54.8674 242.681 54.8446 242.666 54.8219 242.651C54.7993 242.635 54.7769 242.618 54.7547 242.599C54.7325 242.581 54.7107 242.561 54.6891 242.54C54.6675 242.519 54.6462 242.497 54.6253 242.473C54.6044 242.449 54.5838 242.424 54.5636 242.398C54.5434 242.372 54.5236 242.344 54.5041 242.316C54.4847 242.287 54.4657 242.258 54.4472 242.227C54.4286 242.196 54.4105 242.164 54.3929 242.131C54.3753 242.098 54.3581 242.064 54.3415 242.029C54.3248 241.994 54.3087 241.958 54.2931 241.92C54.2775 241.883 54.2625 241.846 54.248 241.807C54.2335 241.768 54.2195 241.728 54.2062 241.688C54.1928 241.647 54.1801 241.605 54.168 241.563C54.1558 241.521 54.1443 241.479 54.1334 241.435C54.1225 241.391 54.1122 241.347 54.1026 241.303C54.0929 241.258 54.084 241.213 54.0756 241.167C54.0673 241.121 54.0597 241.075 54.0527 241.028C54.0457 240.981 54.0394 240.934 54.0338 240.887C54.0282 240.839 54.0233 240.791 54.0191 240.743C54.0148 240.695 54.0113 240.647 54.0085 240.598C54.0057 240.55 54.0035 240.501 54.0021 240.452C54.0007 240.404 54 240.355 54 240.306L54 226.198C54 226.133 54.0012 226.069 54.0037 226.005C54.0062 225.94 54.0098 225.876 54.0147 225.813C54.0197 225.749 54.0258 225.686 54.0331 225.623C54.0404 225.56 54.0489 225.498 54.0586 225.437C54.0683 225.376 54.0792 225.315 54.0912 225.256C54.1032 225.196 54.1163 225.137 54.1306 225.08C54.1448 225.022 54.1602 224.966 54.1766 224.911C54.193 224.856 54.2104 224.802 54.2288 224.75C54.2473 224.698 54.2667 224.647 54.2871 224.598C54.3075 224.548 54.3288 224.501 54.3511 224.455C54.3733 224.409 54.3963 224.365 54.4202 224.323C54.4441 224.281 54.4688 224.241 54.4942 224.203C54.5196 224.164 54.5458 224.128 54.5726 224.094C54.5994 224.06 54.6268 224.028 54.6549 223.999C54.6829 223.969 54.7114 223.942 54.7405 223.916C54.7696 223.891 54.7991 223.869 54.8291 223.848Z" fill="#EDEFFF"/>
<path fill-rule="evenodd" clip-rule="evenodd" d="M54.8291 252.531L72.6156 240.406C72.6776 240.364 72.7408 240.332 72.8053 240.311C72.8698 240.289 72.9346 240.279 72.9999 240.279C73.0652 240.279 73.1301 240.289 73.1946 240.311C73.2591 240.332 73.3223 240.364 73.3842 240.406L91.1709 252.531C91.2009 252.552 91.2304 252.574 91.2594 252.6C91.2885 252.625 91.317 252.652 91.3451 252.682C91.3731 252.711 91.4005 252.743 91.4273 252.777C91.4542 252.811 91.4803 252.847 91.5058 252.886C91.5312 252.924 91.5558 252.964 91.5797 253.006C91.6036 253.048 91.6267 253.092 91.6489 253.138C91.6711 253.184 91.6924 253.231 91.7128 253.281C91.7332 253.33 91.7527 253.381 91.7711 253.433C91.7895 253.485 91.8069 253.539 91.8234 253.594C91.8398 253.649 91.8551 253.705 91.8693 253.763C91.8836 253.82 91.8968 253.879 91.9088 253.939C91.9208 253.998 91.9316 254.059 91.9413 254.12C91.951 254.182 91.9595 254.244 91.9669 254.306C91.9742 254.369 91.9803 254.432 91.9852 254.496C91.9901 254.56 91.9937 254.623 91.9962 254.688C91.9987 254.752 92 254.816 92 254.881V268.989C91.9999 269.038 91.9992 269.087 91.9978 269.136C91.9964 269.184 91.9943 269.233 91.9914 269.281C91.9886 269.33 91.9851 269.378 91.9809 269.426C91.9766 269.474 91.9717 269.522 91.9662 269.57C91.9605 269.617 91.9542 269.664 91.9473 269.711C91.9403 269.758 91.9326 269.804 91.9244 269.85C91.916 269.896 91.907 269.941 91.8974 269.986C91.8878 270.03 91.8775 270.075 91.8666 270.118C91.8557 270.162 91.8441 270.204 91.8319 270.246C91.8198 270.289 91.8071 270.33 91.7937 270.371C91.7804 270.411 91.7665 270.451 91.752 270.49C91.7375 270.529 91.7224 270.567 91.7068 270.604C91.6912 270.641 91.6751 270.677 91.6585 270.712C91.6418 270.747 91.6247 270.781 91.607 270.814C91.5894 270.847 91.5713 270.879 91.5527 270.91C91.5342 270.941 91.5152 270.97 91.4958 270.999C91.4764 271.028 91.4566 271.055 91.4364 271.081C91.4161 271.107 91.3955 271.132 91.3746 271.156C91.3537 271.18 91.3324 271.202 91.3109 271.223C91.2893 271.244 91.2674 271.264 91.2453 271.283C91.2231 271.301 91.2007 271.318 91.178 271.334C91.1553 271.35 91.1325 271.364 91.1095 271.377C91.0863 271.39 91.0631 271.402 91.0397 271.412C91.0163 271.422 90.9928 271.431 90.9691 271.438C90.9455 271.445 90.9217 271.451 90.8979 271.456C90.874 271.46 90.8502 271.463 90.8263 271.465C90.8023 271.466 90.7784 271.467 90.7545 271.465C90.7305 271.464 90.7067 271.461 90.6829 271.457C90.659 271.453 90.6352 271.447 90.6115 271.44C90.5878 271.433 90.5643 271.425 90.5408 271.415C90.5173 271.405 90.4941 271.394 90.4711 271.381C90.4479 271.368 90.425 271.354 90.4023 271.339L73.3842 259.738C73.3223 259.695 73.2591 259.664 73.1946 259.642C73.1301 259.621 73.0652 259.61 72.9999 259.61C72.9346 259.61 72.8698 259.621 72.8053 259.642C72.7408 259.664 72.6776 259.695 72.6156 259.738L55.5976 271.339C55.5749 271.354 55.552 271.368 55.5289 271.381C55.5058 271.394 55.4825 271.405 55.4591 271.415C55.4357 271.425 55.4121 271.433 55.3884 271.44C55.3647 271.447 55.341 271.453 55.3171 271.457C55.2933 271.461 55.2694 271.464 55.2455 271.465C55.2215 271.467 55.1976 271.466 55.1737 271.465C55.1498 271.463 55.1259 271.46 55.1021 271.456C55.0782 271.451 55.0545 271.445 55.0308 271.438C55.0072 271.431 54.9836 271.422 54.9602 271.412C54.9368 271.402 54.9136 271.39 54.8905 271.377C54.8674 271.364 54.8446 271.35 54.8219 271.334C54.7993 271.318 54.7769 271.301 54.7547 271.282C54.7325 271.264 54.7107 271.244 54.6891 271.223C54.6675 271.202 54.6462 271.18 54.6253 271.156C54.6044 271.132 54.5838 271.107 54.5636 271.081C54.5434 271.055 54.5236 271.028 54.5041 270.999C54.4847 270.97 54.4657 270.941 54.4472 270.91C54.4286 270.879 54.4105 270.847 54.3929 270.814C54.3753 270.781 54.3581 270.747 54.3415 270.712C54.3248 270.677 54.3087 270.641 54.2931 270.604C54.2775 270.567 54.2625 270.529 54.248 270.49C54.2335 270.451 54.2195 270.411 54.2062 270.371C54.1928 270.33 54.1801 270.289 54.168 270.246C54.1558 270.204 54.1443 270.162 54.1334 270.118C54.1225 270.075 54.1122 270.03 54.1026 269.986C54.0929 269.941 54.084 269.896 54.0756 269.85C54.0673 269.804 54.0597 269.758 54.0527 269.711C54.0457 269.664 54.0394 269.617 54.0338 269.57C54.0282 269.522 54.0233 269.474 54.0191 269.426C54.0148 269.378 54.0113 269.33 54.0085 269.281C54.0057 269.233 54.0035 269.184 54.0021 269.136C54.0007 269.087 54 269.038 54 268.989L54 254.881C54 254.816 54.0012 254.752 54.0037 254.688C54.0062 254.623 54.0098 254.56 54.0147 254.496C54.0197 254.432 54.0258 254.369 54.0331 254.306C54.0404 254.244 54.0489 254.181 54.0586 254.12C54.0683 254.059 54.0792 253.998 54.0912 253.939C54.1032 253.879 54.1163 253.82 54.1306 253.763C54.1448 253.705 54.1602 253.649 54.1766 253.594C54.193 253.539 54.2104 253.485 54.2288 253.433C54.2473 253.381 54.2667 253.33 54.2871 253.281C54.3075 253.231 54.3288 253.184 54.3511 253.138C54.3733 253.092 54.3963 253.048 54.4202 253.006C54.4441 252.964 54.4688 252.924 54.4942 252.886C54.5196 252.847 54.5458 252.811 54.5726 252.777C54.5994 252.743 54.6268 252.711 54.6549 252.682C54.6829 252.652 54.7114 252.625 54.7405 252.6C54.7696 252.574 54.7991 252.552 54.8291 252.531Z" fill="#EDEFFF"/>
<path fill-rule="evenodd" clip-rule="evenodd" d="M54.8291 281.215L72.6156 269.09C72.6776 269.047 72.7408 269.016 72.8053 268.994C72.8698 268.973 72.9346 268.962 72.9999 268.962C73.0652 268.962 73.1301 268.973 73.1946 268.994C73.2591 269.016 73.3223 269.047 73.3842 269.09L91.1709 281.215C91.2009 281.235 91.2304 281.258 91.2594 281.283C91.2885 281.308 91.317 281.335 91.3451 281.365C91.3731 281.395 91.4005 281.427 91.4273 281.461C91.4542 281.495 91.4803 281.531 91.5058 281.569C91.5312 281.607 91.5558 281.647 91.5797 281.69C91.6036 281.732 91.6267 281.776 91.6489 281.821C91.6711 281.867 91.6924 281.915 91.7128 281.964C91.7332 282.013 91.7527 282.064 91.7711 282.116C91.7895 282.169 91.8069 282.222 91.8234 282.277C91.8398 282.332 91.8551 282.389 91.8693 282.446C91.8836 282.504 91.8968 282.562 91.9088 282.622C91.9208 282.682 91.9316 282.742 91.9413 282.803C91.951 282.865 91.9595 282.927 91.9669 282.99C91.9742 283.052 91.9803 283.115 91.9852 283.179C91.9901 283.243 91.9937 283.307 91.9962 283.371C91.9987 283.435 92 283.5 92 283.564V297.672C91.9999 297.721 91.9992 297.77 91.9978 297.819C91.9964 297.868 91.9943 297.916 91.9914 297.965C91.9886 298.013 91.9851 298.062 91.9809 298.11C91.9766 298.158 91.9717 298.206 91.9662 298.253C91.9605 298.301 91.9542 298.348 91.9473 298.395C91.9403 298.441 91.9326 298.488 91.9244 298.533C91.916 298.579 91.907 298.624 91.8974 298.669C91.8878 298.714 91.8775 298.758 91.8666 298.801C91.8557 298.845 91.8441 298.888 91.8319 298.93C91.8198 298.972 91.8071 299.013 91.7937 299.054C91.7804 299.095 91.7665 299.134 91.752 299.173C91.7375 299.212 91.7224 299.25 91.7068 299.287C91.6912 299.324 91.6751 299.36 91.6585 299.395C91.6418 299.43 91.6247 299.464 91.607 299.497C91.5894 299.53 91.5713 299.562 91.5527 299.593C91.5342 299.624 91.5152 299.654 91.4958 299.682C91.4764 299.711 91.4566 299.738 91.4364 299.764C91.4161 299.791 91.3955 299.816 91.3746 299.839C91.3537 299.863 91.3324 299.885 91.3109 299.906C91.2893 299.928 91.2674 299.947 91.2453 299.966C91.2231 299.984 91.2007 300.001 91.178 300.017C91.1553 300.033 91.1325 300.047 91.1095 300.06C91.0863 300.073 91.0631 300.085 91.0397 300.095C91.0163 300.105 90.9928 300.114 90.9691 300.121C90.9455 300.129 90.9217 300.135 90.8979 300.139C90.874 300.144 90.8502 300.147 90.8263 300.148C90.8023 300.15 90.7784 300.15 90.7545 300.149C90.7305 300.147 90.7067 300.145 90.6829 300.141C90.659 300.136 90.6352 300.131 90.6115 300.124C90.5878 300.117 90.5643 300.108 90.5408 300.098C90.5173 300.088 90.4941 300.077 90.4711 300.064C90.4479 300.052 90.425 300.037 90.4023 300.022L73.3842 288.421C73.3223 288.379 73.2591 288.347 73.1946 288.326C73.1301 288.304 73.0652 288.294 72.9999 288.294C72.9346 288.294 72.8698 288.304 72.8053 288.326C72.7408 288.347 72.6776 288.379 72.6156 288.421L55.5976 300.022C55.5749 300.037 55.552 300.052 55.5289 300.064C55.5058 300.077 55.4825 300.088 55.4591 300.098C55.4357 300.108 55.4121 300.117 55.3884 300.124C55.3647 300.131 55.341 300.136 55.3171 300.141C55.2933 300.145 55.2694 300.147 55.2455 300.149C55.2215 300.15 55.1976 300.15 55.1737 300.148C55.1498 300.147 55.1259 300.144 55.1021 300.139C55.0782 300.135 55.0545 300.129 55.0308 300.121C55.0072 300.114 54.9836 300.105 54.9602 300.095C54.9368 300.085 54.9136 300.073 54.8905 300.06C54.8674 300.047 54.8446 300.033 54.8219 300.017C54.7993 300.001 54.7769 299.984 54.7547 299.966C54.7325 299.947 54.7107 299.928 54.6891 299.906C54.6675 299.885 54.6462 299.863 54.6253 299.839C54.6044 299.816 54.5838 299.791 54.5636 299.764C54.5434 299.738 54.5236 299.711 54.5041 299.682C54.4847 299.654 54.4657 299.624 54.4472 299.593C54.4286 299.562 54.4105 299.53 54.3929 299.497C54.3753 299.464 54.3581 299.43 54.3415 299.395C54.3248 299.36 54.3087 299.324 54.2931 299.287C54.2775 299.25 54.2625 299.212 54.248 299.173C54.2335 299.134 54.2195 299.095 54.2062 299.054C54.1928 299.013 54.1801 298.972 54.168 298.93C54.1558 298.888 54.1443 298.845 54.1334 298.801C54.1225 298.758 54.1122 298.714 54.1026 298.669C54.0929 298.624 54.084 298.579 54.0756 298.533C54.0673 298.488 54.0597 298.441 54.0527 298.395C54.0457 298.348 54.0394 298.301 54.0338 298.253C54.0282 298.206 54.0233 298.158 54.0191 298.11C54.0148 298.062 54.0113 298.013 54.0085 297.965C54.0057 297.916 54.0035 297.868 54.0021 297.819C54.0007 297.77 54 297.721 54 297.672L54 283.564C54 283.5 54.0012 283.435 54.0037 283.371C54.0062 283.307 54.0098 283.243 54.0147 283.179C54.0197 283.115 54.0258 283.052 54.0331 282.99C54.0404 282.927 54.0489 282.865 54.0586 282.803C54.0683 282.742 54.0792 282.682 54.0912 282.622C54.1032 282.562 54.1163 282.504 54.1306 282.446C54.1448 282.389 54.1602 282.332 54.1766 282.277C54.193 282.222 54.2104 282.169 54.2288 282.116C54.2473 282.064 54.2667 282.013 54.2871 281.964C54.3075 281.915 54.3288 281.867 54.3511 281.821C54.3733 281.776 54.3963 281.732 54.4202 281.69C54.4441 281.647 54.4688 281.607 54.4942 281.569C54.5196 281.531 54.5458 281.495 54.5726 281.461C54.5994 281.427 54.6268 281.395 54.6549 281.365C54.6829 281.335 54.7114 281.308 54.7405 281.283C54.7696 281.258 54.7991 281.235 54.8291 281.215Z" fill="#EDEFFF"/>
</g>
</svg>
