<svg width="185" height="370" viewBox="0 0 185 370" fill="none" xmlns="http://www.w3.org/2000/svg">
<g opacity="0.5" clip-path="url(#clip0_459_3035)">
<path fill-rule="evenodd" clip-rule="evenodd" d="M30.6076 66.2321L23.1461 48.6065C23.1201 48.5452 23.1044 48.4857 23.099 48.4282C23.0936 48.3706 23.0985 48.3158 23.1139 48.2636C23.1292 48.2115 23.1547 48.1626 23.1903 48.1171C23.226 48.0717 23.2713 48.0301 23.3264 47.9925L39.1325 37.1989C39.1591 37.1807 39.1879 37.1636 39.2188 37.1475C39.2497 37.1313 39.2827 37.1162 39.3178 37.1022C39.3528 37.0882 39.3898 37.0752 39.4288 37.0634C39.4677 37.0515 39.5085 37.0408 39.5511 37.0313C39.5938 37.0217 39.6381 37.0134 39.6841 37.0062C39.7302 36.9989 39.7778 36.9929 39.827 36.988C39.8761 36.9832 39.9267 36.9796 39.9787 36.9771C40.0307 36.9747 40.084 36.9735 40.1385 36.9734C40.193 36.9735 40.2486 36.9747 40.3053 36.9771C40.362 36.9795 40.4197 36.9831 40.4782 36.988C40.5368 36.9928 40.596 36.9987 40.6561 37.0059C40.7161 37.0131 40.7767 37.0215 40.8378 37.0311C40.8989 37.0406 40.9605 37.0513 41.0224 37.0631C41.0842 37.0749 41.1463 37.0879 41.2086 37.1019C41.2708 37.1159 41.3331 37.131 41.3953 37.1472C41.4576 37.1632 41.5196 37.1804 41.5815 37.1985L55.1181 41.1732C55.165 41.1871 55.2117 41.2014 55.2583 41.2163C55.3047 41.2311 55.3508 41.2465 55.3968 41.2625C55.4427 41.2784 55.4882 41.2948 55.5333 41.3117C55.5784 41.3287 55.6231 41.3461 55.6675 41.3639C55.7118 41.3818 55.7555 41.4001 55.7987 41.4188C55.8419 41.4376 55.8845 41.4567 55.9266 41.4763C55.9685 41.4958 56.0098 41.5157 56.0504 41.536C56.091 41.5563 56.131 41.5769 56.1702 41.5979C56.2094 41.6189 56.2478 41.6402 56.2853 41.6618C56.3228 41.6833 56.3595 41.7051 56.3954 41.7273C56.4312 41.7494 56.466 41.7716 56.4999 41.7942C56.5338 41.8167 56.5667 41.8395 56.5986 41.8624C56.6304 41.8853 56.6612 41.9083 56.691 41.9314C56.7208 41.9546 56.7495 41.978 56.7771 42.0014C56.8047 42.0247 56.8311 42.0482 56.8563 42.0718C56.8816 42.0953 56.9056 42.1188 56.9285 42.1423C56.9513 42.1659 56.9729 42.1894 56.9933 42.2129C57.0137 42.2365 57.0328 42.26 57.0506 42.2834C57.0684 42.3068 57.0849 42.33 57.1 42.3532C57.1152 42.3764 57.1292 42.3994 57.1417 42.4224C57.1542 42.4452 57.1653 42.468 57.1752 42.4906C57.1849 42.5131 57.1933 42.5354 57.2004 42.5574C57.2075 42.5796 57.2131 42.6014 57.2174 42.623C57.2217 42.6445 57.2246 42.6658 57.2261 42.6868C57.2276 42.7077 57.2277 42.7283 57.2264 42.7487C57.2251 42.769 57.2225 42.7889 57.2185 42.8085C57.2143 42.828 57.2088 42.8472 57.2019 42.8659C57.1952 42.8847 57.187 42.903 57.1774 42.9209C57.1678 42.9387 57.1568 42.9561 57.1444 42.9731C57.1321 42.99 57.1185 43.0065 57.1035 43.0224C57.0884 43.0384 57.0721 43.0537 57.0545 43.0686C57.0369 43.0835 57.018 43.0978 56.9978 43.1116L41.8747 53.4388C41.8197 53.4764 41.7743 53.5179 41.7387 53.5634C41.703 53.6089 41.6776 53.6577 41.6622 53.7099C41.6469 53.7621 41.642 53.8169 41.6474 53.8744C41.6528 53.932 41.6685 53.9914 41.6945 54.0528L48.8334 70.9167C48.843 70.9392 48.8512 70.9615 48.8579 70.9835C48.8647 71.0056 48.8701 71.0274 48.8742 71.0489C48.8781 71.0704 48.8807 71.0916 48.8819 71.1125C48.8832 71.1334 48.8831 71.154 48.8815 71.1742C48.8799 71.1945 48.8768 71.2143 48.8723 71.2337C48.868 71.2532 48.8623 71.2723 48.8553 71.291C48.8481 71.3097 48.8395 71.3279 48.8296 71.3456C48.8197 71.3634 48.8084 71.3807 48.7958 71.3975C48.7832 71.4144 48.7693 71.4307 48.754 71.4465C48.7388 71.4624 48.7222 71.4777 48.7043 71.4924C48.6864 71.5072 48.6673 71.5214 48.6469 71.5351C48.6264 71.5487 48.6047 71.5618 48.5817 71.5743C48.5589 71.5868 48.5348 71.5987 48.5094 71.61C48.4842 71.6213 48.4577 71.632 48.4301 71.642C48.4024 71.6521 48.3737 71.6615 48.3438 71.6703C48.3139 71.679 48.283 71.6872 48.2511 71.6946C48.2192 71.7021 48.1862 71.7089 48.1522 71.715C48.1183 71.7212 48.0834 71.7266 48.0475 71.7314C48.0117 71.7362 47.975 71.7403 47.9373 71.7436C47.8998 71.7471 47.8614 71.7498 47.8222 71.7518C47.783 71.7538 47.7431 71.7552 47.7024 71.7558C47.6617 71.7564 47.6203 71.7564 47.5783 71.7556C47.5361 71.7548 47.4934 71.7533 47.4502 71.7512C47.407 71.7491 47.3632 71.7462 47.3189 71.7427C47.2745 71.7391 47.2298 71.7349 47.1846 71.73C47.1395 71.7251 47.094 71.7195 47.0482 71.7133C47.0022 71.707 46.956 71.7001 46.9095 71.6925C46.8631 71.6849 46.8164 71.6766 46.7694 71.6677C46.7225 71.6588 46.6755 71.6493 46.6284 71.6391C46.5813 71.6289 46.5341 71.6181 46.4869 71.6067C46.4396 71.5953 46.3925 71.5833 46.3454 71.5707C46.2981 71.5581 46.2511 71.5449 46.2042 71.5311L32.6676 67.5564C32.6057 67.5382 32.5442 67.5191 32.4832 67.499C32.4221 67.479 32.3616 67.458 32.3016 67.4361C32.2416 67.4143 32.1824 67.3916 32.124 67.3681C32.0655 67.3445 32.008 67.3203 31.9514 67.2952C31.8948 67.2702 31.8393 67.2445 31.7849 67.2181C31.7306 67.1917 31.6774 67.1647 31.6256 67.1371C31.5737 67.1095 31.5233 67.0814 31.4743 67.0528C31.4253 67.0242 31.3778 66.9951 31.332 66.9656C31.2861 66.9362 31.242 66.9063 31.1996 66.8762C31.1571 66.846 31.1165 66.8156 31.0778 66.785C31.039 66.7543 31.0022 66.7235 30.9674 66.6925C30.9326 66.6616 30.8998 66.6305 30.8691 66.5995C30.8384 66.5684 30.8099 66.5373 30.7835 66.5063C30.7571 66.4753 30.733 66.4444 30.7111 66.4137C30.6892 66.3829 30.6696 66.3524 30.6523 66.3221C30.6351 66.2918 30.6201 66.2618 30.6076 66.2321Z" fill="#EDEFFF"/>
<path fill-rule="evenodd" clip-rule="evenodd" d="M62.7626 79.8007L60.569 60.787C60.5614 60.7207 60.5631 60.6593 60.5741 60.6025C60.5851 60.5458 60.6053 60.4946 60.6347 60.4489C60.6641 60.4031 60.7023 60.3635 60.7494 60.3299C60.7964 60.2963 60.8516 60.2692 60.915 60.2486L79.1218 54.3453C79.1525 54.3354 79.1849 54.327 79.2191 54.3203C79.2533 54.3135 79.2892 54.3083 79.3268 54.3047C79.3644 54.3011 79.4035 54.2991 79.4443 54.2988C79.485 54.2983 79.5272 54.2995 79.5707 54.3024C79.6143 54.3053 79.6592 54.3097 79.7054 54.3158C79.7516 54.3218 79.799 54.3294 79.8476 54.3386C79.8961 54.3479 79.9456 54.3586 79.9962 54.3709C80.0468 54.3832 80.0983 54.397 80.1506 54.4124C80.2029 54.4278 80.2559 54.4446 80.3096 54.4629C80.3634 54.4812 80.4176 54.5009 80.4724 54.522C80.5273 54.5431 80.5825 54.5656 80.638 54.5894C80.6936 54.6132 80.7493 54.6383 80.8053 54.6647C80.8613 54.6911 80.9173 54.7187 80.9734 54.7474C81.0294 54.7762 81.0853 54.8061 81.1411 54.8371C81.1969 54.8681 81.2524 54.9001 81.3075 54.9331C81.3627 54.9661 81.4175 55 81.4717 55.0349L93.3402 62.6623C93.3812 62.6888 93.422 62.7157 93.4625 62.7431C93.5029 62.7704 93.5428 62.7982 93.5824 62.8264C93.622 62.8546 93.661 62.8832 93.6996 62.9122C93.7381 62.9411 93.7761 62.9704 93.8136 63C93.851 63.0297 93.8878 63.0595 93.924 63.0897C93.9602 63.1198 93.9957 63.1502 94.0305 63.1808C94.0653 63.2114 94.0992 63.2421 94.1325 63.273C94.1658 63.304 94.1983 63.335 94.23 63.3662C94.2617 63.3974 94.2925 63.4286 94.3224 63.4599C94.3523 63.4911 94.3814 63.5224 94.4096 63.5538C94.4377 63.585 94.4649 63.6162 94.4911 63.6474C94.5172 63.6786 94.5424 63.7096 94.5665 63.7406C94.5906 63.7716 94.6137 63.8023 94.6357 63.8329C94.6578 63.8636 94.6788 63.8941 94.6987 63.9243C94.7185 63.9544 94.7373 63.9844 94.7548 64.0141C94.7725 64.0438 94.7889 64.0732 94.8042 64.1021C94.8194 64.1312 94.8335 64.1599 94.8465 64.1882C94.8594 64.2165 94.8711 64.2444 94.8816 64.2719C94.8921 64.2994 94.9014 64.3263 94.9094 64.3528C94.9175 64.3794 94.9243 64.4054 94.9299 64.4309C94.9354 64.4564 94.9397 64.4813 94.9428 64.5058C94.9458 64.5301 94.9476 64.5539 94.9482 64.5771C94.9487 64.6003 94.948 64.6229 94.946 64.6447C94.9441 64.6666 94.9409 64.6878 94.9364 64.7084C94.9319 64.7289 94.9262 64.7487 94.9192 64.7679C94.9123 64.787 94.9041 64.8054 94.8948 64.823C94.8853 64.8406 94.8746 64.8574 94.8627 64.8735C94.8509 64.8896 94.8379 64.9049 94.8237 64.9193C94.8095 64.9338 94.794 64.9474 94.7773 64.9601C94.7607 64.9729 94.743 64.9848 94.7242 64.996C94.7052 65.007 94.6852 65.0171 94.6642 65.0264C94.6431 65.0357 94.6209 65.0442 94.5976 65.0517L77.1776 70.7C77.1142 70.7205 77.059 70.7476 77.012 70.7812C76.965 70.8148 76.9268 70.8545 76.8974 70.9002C76.868 70.9459 76.8478 70.9972 76.8367 71.0539C76.8257 71.1106 76.824 71.1721 76.8317 71.2383L78.9304 89.4304C78.9332 89.4547 78.9347 89.4783 78.935 89.5014C78.9353 89.5244 78.9343 89.5469 78.9322 89.5687C78.9299 89.5904 78.9264 89.6115 78.9217 89.6319C78.917 89.6523 78.9111 89.672 78.9039 89.691C78.8967 89.71 78.8882 89.7281 78.8784 89.7455C78.8687 89.763 78.8579 89.7797 78.8458 89.7957C78.8337 89.8115 78.8203 89.8266 78.8058 89.8408C78.7913 89.8551 78.7756 89.8685 78.7588 89.8811C78.742 89.8937 78.724 89.9055 78.7049 89.9164C78.6858 89.9273 78.6656 89.9373 78.6443 89.9464C78.6229 89.9555 78.6006 89.9638 78.5772 89.9712C78.5536 89.9785 78.5291 89.9849 78.5035 89.9904C78.4781 89.996 78.4517 90.0006 78.4241 90.0043C78.3967 90.008 78.3683 90.0108 78.339 90.0127C78.3096 90.0145 78.2794 90.0155 78.2483 90.0154C78.2171 90.0154 78.1852 90.0145 78.1524 90.0127C78.1197 90.0109 78.0862 90.0081 78.0518 90.0044C78.0175 90.0008 77.9825 89.9962 77.9468 89.9906C77.911 89.9851 77.8746 89.9787 77.8375 89.9713C77.8006 89.964 77.763 89.9559 77.7248 89.9468C77.6866 89.9377 77.6479 89.9277 77.6087 89.9168C77.5695 89.906 77.5298 89.8942 77.4897 89.8817C77.4494 89.869 77.4089 89.8556 77.368 89.8413C77.3272 89.8271 77.286 89.8121 77.2445 89.7962C77.2029 89.7803 77.1612 89.7636 77.1192 89.7462C77.0773 89.7287 77.0352 89.7106 76.993 89.6917C76.9507 89.6727 76.9083 89.653 76.8658 89.6327C76.8234 89.6123 76.7809 89.5912 76.7384 89.5695C76.6958 89.5477 76.6534 89.5253 76.6111 89.5023C76.5688 89.4792 76.5266 89.4556 76.4844 89.4313C76.4423 89.4071 76.4005 89.3823 76.3588 89.3569C76.3171 89.3315 76.2756 89.3055 76.2345 89.2791L64.366 81.6517C64.3118 81.6169 64.2582 81.5812 64.2053 81.5447C64.1523 81.5083 64.1001 81.4711 64.0488 81.4332C63.9974 81.3954 63.947 81.3569 63.8975 81.3179C63.8481 81.2788 63.7997 81.2393 63.7525 81.1994C63.7052 81.1594 63.6592 81.1191 63.6145 81.0785C63.5697 81.0378 63.5264 80.997 63.4844 80.9559C63.4424 80.9148 63.4019 80.8736 63.363 80.8323C63.324 80.7911 63.2867 80.7498 63.251 80.7086C63.2153 80.6674 63.1813 80.6264 63.1491 80.5855C63.1169 80.5446 63.0865 80.504 63.058 80.4636C63.0294 80.4233 63.0028 80.3834 62.9781 80.3439C62.9534 80.3043 62.9307 80.2653 62.91 80.2269C62.8893 80.1884 62.8707 80.1506 62.8541 80.1134C62.8376 80.0762 62.8231 80.0398 62.8108 80.0041C62.7984 79.9684 62.7882 79.9336 62.7802 79.8996C62.7721 79.8657 62.7663 79.8327 62.7626 79.8007Z" fill="#EDEFFF"/>
<path fill-rule="evenodd" clip-rule="evenodd" d="M89.7925 101.878L93.0446 83.0168C93.0559 82.9511 93.0749 82.8926 93.1014 82.8413C93.128 82.7899 93.1618 82.7465 93.2029 82.7109C93.244 82.6753 93.2918 82.648 93.3464 82.629C93.401 82.61 93.4616 82.5996 93.5282 82.5977L112.661 82.063C112.693 82.0621 112.726 82.0632 112.761 82.0664C112.796 82.0695 112.832 82.0746 112.869 82.0818C112.906 82.0889 112.944 82.0981 112.983 82.1092C113.022 82.1202 113.063 82.1333 113.104 82.1483C113.145 82.1633 113.186 82.1803 113.229 82.1991C113.272 82.2179 113.315 82.2385 113.359 82.261C113.403 82.2836 113.447 82.3079 113.493 82.3339C113.538 82.36 113.583 82.3877 113.629 82.4172C113.675 82.4467 113.721 82.4778 113.767 82.5105C113.814 82.5431 113.86 82.5773 113.907 82.6131C113.954 82.6488 114 82.6858 114.047 82.7244C114.093 82.7629 114.14 82.8027 114.186 82.8438C114.232 82.8849 114.278 82.9271 114.324 82.9705C114.37 83.0139 114.415 83.0583 114.46 83.1038C114.504 83.1492 114.549 83.1956 114.592 83.2428C114.636 83.29 114.679 83.338 114.721 83.3867L123.96 94.0488C123.992 94.0858 124.023 94.1232 124.055 94.1609C124.086 94.1984 124.116 94.2364 124.146 94.2746C124.176 94.3128 124.206 94.3512 124.234 94.3899C124.263 94.4285 124.291 94.4673 124.319 94.5063C124.347 94.5453 124.374 94.5843 124.4 94.6234C124.426 94.6625 124.451 94.7017 124.476 94.7409C124.501 94.78 124.525 94.819 124.548 94.8581C124.571 94.8971 124.594 94.9361 124.616 94.9749C124.637 95.0138 124.658 95.0524 124.678 95.0909C124.698 95.1292 124.717 95.1674 124.735 95.2055C124.753 95.2434 124.77 95.281 124.787 95.3183C124.803 95.3556 124.818 95.3925 124.833 95.429C124.847 95.4655 124.861 95.5015 124.873 95.537C124.886 95.5727 124.897 95.6079 124.908 95.6425C124.918 95.677 124.928 95.711 124.936 95.7445C124.945 95.7779 124.953 95.8107 124.959 95.8428C124.965 95.875 124.971 95.9065 124.975 95.9373C124.98 95.9681 124.983 95.9982 124.986 96.0275C124.988 96.0568 124.989 96.0853 124.989 96.113C124.99 96.1408 124.989 96.1677 124.987 96.1937C124.985 96.2197 124.982 96.2448 124.978 96.2692C124.974 96.2934 124.969 96.3167 124.963 96.3391C124.957 96.3616 124.95 96.383 124.942 96.4034C124.934 96.4239 124.925 96.4433 124.915 96.4618C124.905 96.4802 124.894 96.4976 124.882 96.514C124.87 96.5305 124.857 96.5458 124.843 96.5601C124.829 96.5743 124.814 96.5874 124.798 96.5994C124.782 96.6116 124.765 96.6226 124.748 96.6324C124.73 96.6423 124.711 96.6509 124.692 96.6584C124.672 96.6661 124.652 96.6726 124.63 96.6779C124.609 96.6831 124.587 96.6872 124.564 96.6902C124.541 96.6932 124.518 96.6951 124.493 96.6957L106.188 97.2074C106.121 97.2093 106.06 97.2197 106.006 97.2387C105.951 97.2577 105.903 97.285 105.862 97.3206C105.821 97.3562 105.787 97.3996 105.761 97.451C105.734 97.5023 105.715 97.5608 105.704 97.6265L102.592 115.673C102.588 115.697 102.583 115.72 102.577 115.742C102.571 115.765 102.563 115.786 102.555 115.806C102.547 115.826 102.538 115.846 102.527 115.864C102.517 115.882 102.506 115.899 102.494 115.916C102.481 115.932 102.468 115.947 102.454 115.961C102.44 115.975 102.424 115.988 102.408 116C102.392 116.011 102.375 116.022 102.357 116.032C102.339 116.041 102.321 116.05 102.301 116.057C102.281 116.064 102.261 116.071 102.239 116.076C102.218 116.081 102.196 116.085 102.173 116.087C102.15 116.09 102.126 116.092 102.101 116.092C102.077 116.093 102.051 116.092 102.025 116.09C101.999 116.088 101.972 116.085 101.945 116.081C101.918 116.077 101.89 116.071 101.861 116.065C101.832 116.059 101.803 116.051 101.773 116.042C101.743 116.033 101.713 116.023 101.682 116.012C101.651 116.002 101.62 115.989 101.588 115.976C101.556 115.963 101.524 115.949 101.491 115.933C101.458 115.918 101.425 115.902 101.391 115.884C101.358 115.867 101.324 115.848 101.29 115.829C101.256 115.809 101.222 115.789 101.187 115.767C101.153 115.746 101.118 115.723 101.083 115.7C101.048 115.677 101.013 115.652 100.978 115.627C100.942 115.602 100.907 115.576 100.872 115.549C100.836 115.522 100.801 115.494 100.766 115.466C100.73 115.437 100.695 115.408 100.66 115.378C100.625 115.348 100.59 115.317 100.555 115.285C100.52 115.254 100.485 115.222 100.45 115.189C100.415 115.156 100.381 115.122 100.347 115.088C100.313 115.054 100.279 115.02 100.245 114.985C100.212 114.95 100.179 114.914 100.146 114.878C100.113 114.842 100.08 114.805 100.048 114.768L90.8095 104.106C90.7673 104.057 90.726 104.008 90.6854 103.958C90.6449 103.908 90.6053 103.858 90.5667 103.807C90.5281 103.756 90.4905 103.705 90.4541 103.654C90.4176 103.602 90.3823 103.551 90.3483 103.499C90.3142 103.448 90.2814 103.396 90.2499 103.344C90.2185 103.293 90.1884 103.241 90.1596 103.19C90.1309 103.139 90.1037 103.088 90.0779 103.037C90.0522 102.987 90.028 102.937 90.0054 102.887C89.9827 102.837 89.9617 102.789 89.9423 102.74C89.9229 102.692 89.9052 102.644 89.8892 102.598C89.8732 102.551 89.8589 102.505 89.8463 102.46C89.8338 102.415 89.823 102.372 89.814 102.329C89.8049 102.286 89.7977 102.244 89.7923 102.204C89.7869 102.164 89.7833 102.125 89.7815 102.087C89.7797 102.049 89.7797 102.013 89.7816 101.978C89.7834 101.943 89.7871 101.91 89.7925 101.878Z" fill="#EDEFFF"/>
<path fill-rule="evenodd" clip-rule="evenodd" d="M109.507 130.677L117.941 113.496C117.971 113.436 118.005 113.385 118.045 113.344C118.085 113.302 118.13 113.27 118.179 113.247C118.229 113.224 118.282 113.212 118.34 113.209C118.398 113.206 118.459 113.213 118.523 113.23L137.031 118.107C137.063 118.115 137.094 118.126 137.127 118.139C137.159 118.152 137.192 118.167 137.226 118.184C137.259 118.201 137.293 118.221 137.328 118.242C137.362 118.264 137.397 118.288 137.432 118.314C137.467 118.34 137.503 118.368 137.538 118.398C137.574 118.428 137.61 118.46 137.646 118.494C137.681 118.528 137.717 118.564 137.753 118.602C137.789 118.639 137.825 118.679 137.861 118.72C137.896 118.761 137.932 118.804 137.967 118.848C138.002 118.893 138.037 118.939 138.072 118.986C138.107 119.034 138.141 119.082 138.175 119.132C138.209 119.182 138.242 119.234 138.275 119.286C138.308 119.339 138.34 119.392 138.372 119.447C138.403 119.501 138.434 119.556 138.464 119.613C138.495 119.669 138.524 119.726 138.552 119.783C138.581 119.841 138.609 119.899 138.636 119.958L144.496 132.791C144.516 132.835 144.536 132.88 144.555 132.925C144.575 132.97 144.593 133.015 144.611 133.06C144.629 133.105 144.647 133.15 144.663 133.195C144.68 133.241 144.696 133.286 144.712 133.331C144.727 133.376 144.742 133.421 144.756 133.466C144.77 133.511 144.784 133.556 144.797 133.6C144.809 133.645 144.821 133.689 144.833 133.733C144.844 133.777 144.854 133.821 144.864 133.864C144.874 133.908 144.883 133.951 144.891 133.993C144.9 134.035 144.907 134.077 144.914 134.119C144.921 134.161 144.927 134.202 144.932 134.242C144.937 134.282 144.941 134.322 144.945 134.361C144.948 134.4 144.951 134.439 144.953 134.476C144.955 134.514 144.956 134.551 144.957 134.587C144.957 134.623 144.957 134.659 144.955 134.693C144.954 134.728 144.952 134.761 144.949 134.794C144.947 134.826 144.943 134.858 144.938 134.889C144.934 134.92 144.929 134.95 144.923 134.978C144.917 135.007 144.91 135.035 144.902 135.061C144.895 135.088 144.887 135.114 144.877 135.138C144.868 135.163 144.858 135.186 144.848 135.208C144.837 135.23 144.826 135.251 144.814 135.271C144.802 135.291 144.789 135.31 144.775 135.327C144.762 135.344 144.748 135.36 144.733 135.375C144.718 135.39 144.702 135.404 144.686 135.416C144.67 135.428 144.653 135.439 144.636 135.449C144.618 135.459 144.6 135.467 144.582 135.474C144.563 135.482 144.544 135.487 144.524 135.492C144.504 135.496 144.484 135.499 144.463 135.501C144.442 135.503 144.421 135.503 144.399 135.502C144.377 135.501 144.355 135.499 144.332 135.496C144.309 135.492 144.286 135.487 144.262 135.481L126.554 130.815C126.489 130.798 126.428 130.791 126.371 130.793C126.313 130.796 126.259 130.809 126.21 130.832C126.16 130.854 126.116 130.886 126.076 130.928C126.036 130.97 126.001 131.021 125.972 131.08L117.902 147.519C117.891 147.541 117.88 147.562 117.868 147.581C117.855 147.601 117.842 147.619 117.829 147.637C117.815 147.654 117.801 147.669 117.786 147.684C117.771 147.699 117.755 147.712 117.739 147.724C117.723 147.736 117.706 147.747 117.688 147.756C117.67 147.766 117.652 147.774 117.633 147.781C117.615 147.788 117.595 147.793 117.575 147.797C117.555 147.801 117.535 147.804 117.514 147.806C117.493 147.807 117.472 147.807 117.45 147.806C117.428 147.805 117.405 147.802 117.382 147.799C117.359 147.795 117.336 147.79 117.313 147.783C117.289 147.777 117.265 147.769 117.24 147.76C117.216 147.751 117.191 147.74 117.166 147.728C117.141 147.717 117.115 147.704 117.09 147.689C117.064 147.675 117.038 147.659 117.012 147.643C116.986 147.626 116.959 147.608 116.933 147.589C116.906 147.569 116.879 147.549 116.853 147.527C116.826 147.506 116.799 147.483 116.772 147.459C116.745 147.435 116.717 147.41 116.69 147.383C116.663 147.357 116.636 147.33 116.609 147.302C116.581 147.274 116.554 147.244 116.527 147.214C116.5 147.184 116.473 147.152 116.446 147.12C116.419 147.088 116.392 147.054 116.366 147.02C116.339 146.986 116.312 146.951 116.286 146.915C116.26 146.88 116.234 146.843 116.208 146.806C116.182 146.768 116.156 146.73 116.131 146.692C116.106 146.653 116.081 146.613 116.056 146.573C116.031 146.533 116.007 146.492 115.983 146.451C115.959 146.41 115.935 146.368 115.912 146.326C115.889 146.284 115.866 146.241 115.844 146.198C115.822 146.154 115.8 146.111 115.778 146.067C115.757 146.023 115.736 145.979 115.716 145.934L109.855 133.101C109.828 133.043 109.803 132.984 109.778 132.924C109.753 132.865 109.729 132.806 109.706 132.746C109.684 132.686 109.662 132.627 109.642 132.567C109.621 132.508 109.602 132.448 109.584 132.389C109.565 132.33 109.549 132.271 109.533 132.213C109.517 132.154 109.503 132.097 109.49 132.039C109.477 131.982 109.465 131.925 109.454 131.87C109.444 131.814 109.435 131.759 109.427 131.705C109.419 131.651 109.413 131.598 109.408 131.546C109.403 131.495 109.399 131.444 109.397 131.395C109.395 131.345 109.394 131.297 109.395 131.251C109.395 131.204 109.397 131.159 109.401 131.115C109.404 131.072 109.409 131.03 109.415 130.99C109.421 130.95 109.429 130.911 109.438 130.874C109.446 130.838 109.457 130.803 109.468 130.77C109.48 130.737 109.493 130.706 109.507 130.677Z" fill="#EDEFFF"/>
<path fill-rule="evenodd" clip-rule="evenodd" d="M120.31 163.863L133.243 149.754C133.288 149.705 133.335 149.666 133.385 149.637C133.436 149.608 133.488 149.59 133.541 149.582C133.595 149.575 133.65 149.577 133.706 149.591C133.762 149.605 133.819 149.629 133.876 149.663L150.261 159.557C150.288 159.574 150.316 159.593 150.343 159.614C150.371 159.636 150.398 159.659 150.425 159.685C150.453 159.711 150.48 159.74 150.507 159.77C150.534 159.801 150.561 159.833 150.587 159.868C150.613 159.903 150.639 159.94 150.665 159.979C150.691 160.018 150.716 160.058 150.741 160.101C150.766 160.144 150.79 160.188 150.814 160.235C150.838 160.281 150.861 160.329 150.884 160.378C150.906 160.428 150.928 160.479 150.95 160.532C150.971 160.584 150.992 160.638 151.011 160.693C151.031 160.749 151.051 160.805 151.069 160.863C151.087 160.92 151.105 160.979 151.122 161.038C151.138 161.098 151.154 161.158 151.169 161.22C151.184 161.281 151.198 161.343 151.211 161.405C151.224 161.468 151.236 161.53 151.248 161.594C151.259 161.657 151.269 161.721 151.278 161.784L153.286 175.749C153.293 175.797 153.299 175.846 153.305 175.894C153.311 175.943 153.316 175.991 153.321 176.04C153.325 176.088 153.329 176.136 153.333 176.184C153.336 176.232 153.339 176.28 153.341 176.328C153.343 176.376 153.344 176.423 153.345 176.47C153.346 176.517 153.347 176.564 153.346 176.61C153.346 176.657 153.345 176.702 153.343 176.748C153.342 176.793 153.34 176.838 153.337 176.882C153.334 176.927 153.331 176.971 153.326 177.014C153.323 177.057 153.318 177.099 153.313 177.141C153.307 177.183 153.302 177.224 153.295 177.264C153.289 177.304 153.282 177.343 153.274 177.382C153.267 177.42 153.258 177.458 153.25 177.495C153.241 177.531 153.232 177.567 153.222 177.602C153.212 177.637 153.202 177.671 153.191 177.703C153.18 177.736 153.168 177.768 153.157 177.798C153.145 177.829 153.132 177.858 153.119 177.887C153.106 177.915 153.093 177.942 153.079 177.968C153.065 177.994 153.051 178.019 153.036 178.042C153.021 178.065 153.006 178.088 152.99 178.109C152.975 178.129 152.959 178.149 152.942 178.167C152.926 178.186 152.909 178.203 152.892 178.218C152.875 178.234 152.857 178.248 152.839 178.261C152.822 178.274 152.803 178.285 152.785 178.295C152.767 178.305 152.748 178.314 152.729 178.321C152.71 178.329 152.691 178.334 152.671 178.339C152.652 178.343 152.632 178.346 152.612 178.348C152.592 178.349 152.572 178.349 152.552 178.348C152.532 178.347 152.511 178.344 152.491 178.34C152.47 178.336 152.449 178.33 152.429 178.323C152.408 178.316 152.387 178.308 152.366 178.298C152.346 178.288 152.325 178.277 152.304 178.264L136.627 168.798C136.57 168.763 136.514 168.739 136.457 168.726C136.401 168.712 136.346 168.709 136.292 168.717C136.239 168.725 136.187 168.743 136.137 168.772C136.087 168.801 136.039 168.84 135.994 168.889L123.62 182.388C123.603 182.406 123.586 182.423 123.569 182.438C123.552 182.453 123.534 182.467 123.516 182.48C123.498 182.493 123.48 182.504 123.462 182.514C123.443 182.523 123.424 182.532 123.405 182.539C123.386 182.546 123.367 182.551 123.347 182.555C123.328 182.559 123.308 182.562 123.288 182.563C123.268 182.565 123.248 182.564 123.228 182.563C123.208 182.561 123.187 182.558 123.167 182.554C123.146 182.549 123.125 182.543 123.105 182.536C123.084 182.529 123.063 182.52 123.042 182.51C123.021 182.5 123.001 182.488 122.98 182.475C122.959 182.462 122.938 182.448 122.917 182.432C122.896 182.417 122.875 182.4 122.854 182.381C122.834 182.363 122.813 182.344 122.792 182.323C122.772 182.302 122.751 182.279 122.731 182.256C122.71 182.232 122.69 182.208 122.67 182.182C122.65 182.156 122.63 182.128 122.61 182.1C122.591 182.072 122.571 182.042 122.552 182.012C122.533 181.981 122.514 181.949 122.495 181.916C122.476 181.884 122.458 181.85 122.44 181.815C122.422 181.78 122.404 181.745 122.386 181.708C122.369 181.671 122.352 181.633 122.335 181.595C122.318 181.556 122.302 181.517 122.286 181.477C122.27 181.436 122.254 181.395 122.239 181.354C122.224 181.312 122.209 181.269 122.195 181.226C122.181 181.183 122.167 181.139 122.153 181.095C122.14 181.051 122.127 181.006 122.115 180.96C122.102 180.915 122.09 180.869 122.079 180.823C122.068 180.776 122.057 180.729 122.046 180.682C122.036 180.635 122.026 180.588 122.017 180.54C122.008 180.493 121.999 180.445 121.991 180.397C121.983 180.348 121.975 180.3 121.969 180.252L119.961 166.287C119.952 166.223 119.943 166.16 119.936 166.096C119.929 166.032 119.923 165.968 119.918 165.904C119.913 165.841 119.909 165.777 119.906 165.715C119.903 165.652 119.902 165.589 119.901 165.527C119.9 165.465 119.9 165.404 119.902 165.344C119.903 165.283 119.906 165.224 119.909 165.165C119.913 165.107 119.917 165.049 119.923 164.993C119.929 164.936 119.936 164.881 119.943 164.827C119.951 164.773 119.96 164.72 119.97 164.669C119.979 164.618 119.99 164.569 120.002 164.521C120.014 164.473 120.027 164.426 120.04 164.382C120.054 164.337 120.069 164.295 120.084 164.254C120.1 164.213 120.116 164.174 120.133 164.137C120.151 164.1 120.169 164.066 120.187 164.033C120.206 164 120.226 163.97 120.246 163.941C120.267 163.913 120.288 163.887 120.31 163.863Z" fill="#EDEFFF"/>
<path fill-rule="evenodd" clip-rule="evenodd" d="M121.325 198.749L137.709 188.855C137.766 188.821 137.823 188.797 137.879 188.783C137.935 188.77 137.99 188.767 138.044 188.774C138.098 188.782 138.15 188.8 138.2 188.829C138.25 188.858 138.298 188.897 138.343 188.946L151.276 203.055C151.298 203.079 151.319 203.105 151.339 203.133C151.36 203.162 151.379 203.192 151.398 203.225C151.417 203.258 151.435 203.292 151.452 203.329C151.47 203.366 151.486 203.405 151.501 203.446C151.517 203.487 151.532 203.529 151.545 203.574C151.559 203.618 151.572 203.665 151.584 203.713C151.595 203.761 151.606 203.81 151.616 203.861C151.626 203.913 151.635 203.965 151.642 204.019C151.65 204.073 151.657 204.128 151.662 204.185C151.668 204.241 151.673 204.299 151.676 204.357C151.68 204.416 151.682 204.475 151.684 204.536C151.685 204.596 151.686 204.658 151.685 204.719C151.684 204.781 151.682 204.844 151.679 204.907C151.676 204.97 151.672 205.033 151.667 205.096C151.662 205.16 151.656 205.224 151.649 205.288C151.642 205.352 151.634 205.416 151.625 205.479L149.617 219.444C149.61 219.492 149.602 219.54 149.594 219.589C149.586 219.637 149.578 219.685 149.568 219.732C149.559 219.78 149.549 219.827 149.539 219.875C149.529 219.922 149.518 219.968 149.507 220.015C149.495 220.061 149.483 220.107 149.471 220.152C149.458 220.198 149.446 220.243 149.432 220.287C149.419 220.331 149.405 220.375 149.391 220.418C149.376 220.461 149.362 220.504 149.346 220.546C149.331 220.587 149.316 220.628 149.3 220.669C149.284 220.709 149.267 220.748 149.25 220.787C149.234 220.826 149.217 220.863 149.199 220.9C149.182 220.937 149.164 220.972 149.146 221.007C149.127 221.042 149.109 221.076 149.09 221.109C149.072 221.141 149.053 221.173 149.033 221.204C149.014 221.234 148.995 221.264 148.975 221.292C148.955 221.321 148.936 221.348 148.915 221.374C148.895 221.4 148.875 221.424 148.855 221.448C148.834 221.471 148.814 221.494 148.793 221.515C148.773 221.536 148.752 221.555 148.731 221.573C148.71 221.592 148.69 221.609 148.669 221.625C148.648 221.64 148.627 221.654 148.606 221.667C148.585 221.68 148.564 221.692 148.543 221.702C148.522 221.712 148.502 221.721 148.481 221.728C148.46 221.735 148.439 221.741 148.419 221.746C148.398 221.75 148.378 221.753 148.358 221.755C148.337 221.757 148.317 221.757 148.297 221.756C148.277 221.754 148.258 221.751 148.238 221.747C148.219 221.743 148.199 221.738 148.18 221.731C148.161 221.724 148.142 221.716 148.124 221.706C148.105 221.696 148.087 221.685 148.069 221.672C148.051 221.66 148.034 221.646 148.017 221.63C147.999 221.615 147.982 221.598 147.966 221.58L135.592 208.081C135.547 208.032 135.499 207.993 135.449 207.964C135.399 207.935 135.347 207.917 135.293 207.909C135.239 207.901 135.184 207.904 135.128 207.918C135.072 207.931 135.015 207.955 134.958 207.99L119.282 217.456C119.261 217.469 119.24 217.48 119.219 217.49C119.198 217.5 119.178 217.508 119.157 217.515C119.136 217.522 119.115 217.528 119.095 217.532C119.074 217.536 119.054 217.539 119.034 217.54C119.014 217.542 118.993 217.541 118.974 217.54C118.954 217.538 118.934 217.535 118.914 217.531C118.895 217.526 118.876 217.521 118.857 217.513C118.838 217.506 118.819 217.497 118.801 217.487C118.782 217.477 118.764 217.466 118.746 217.453C118.728 217.44 118.711 217.426 118.694 217.41C118.676 217.395 118.66 217.378 118.643 217.359C118.627 217.341 118.611 217.321 118.595 217.3C118.58 217.28 118.564 217.258 118.55 217.234C118.535 217.211 118.52 217.186 118.507 217.16C118.493 217.134 118.479 217.107 118.466 217.079C118.453 217.05 118.441 217.021 118.429 216.99C118.417 216.96 118.406 216.928 118.395 216.895C118.384 216.863 118.373 216.829 118.364 216.794C118.354 216.759 118.345 216.724 118.336 216.687C118.327 216.65 118.319 216.613 118.311 216.574C118.304 216.535 118.297 216.496 118.29 216.456C118.284 216.416 118.278 216.375 118.273 216.333C118.268 216.291 118.263 216.249 118.259 216.206C118.255 216.163 118.252 216.119 118.249 216.075C118.246 216.03 118.244 215.985 118.242 215.94C118.241 215.894 118.24 215.849 118.239 215.802C118.239 215.756 118.239 215.709 118.24 215.662C118.241 215.615 118.243 215.568 118.245 215.52C118.247 215.472 118.25 215.424 118.253 215.376C118.256 215.328 118.26 215.28 118.265 215.232C118.27 215.183 118.275 215.135 118.28 215.086C118.286 215.038 118.293 214.989 118.3 214.941L120.307 200.977C120.317 200.913 120.327 200.849 120.338 200.786C120.349 200.723 120.361 200.66 120.374 200.597C120.387 200.535 120.401 200.473 120.416 200.412C120.431 200.35 120.447 200.29 120.464 200.231C120.481 200.171 120.498 200.112 120.517 200.055C120.535 199.997 120.554 199.941 120.574 199.885C120.594 199.83 120.615 199.776 120.636 199.724C120.657 199.671 120.679 199.62 120.702 199.57C120.725 199.521 120.748 199.473 120.772 199.427C120.796 199.38 120.82 199.336 120.845 199.293C120.87 199.25 120.895 199.21 120.92 199.171C120.946 199.132 120.972 199.095 120.999 199.06C121.025 199.025 121.052 198.993 121.079 198.962C121.106 198.932 121.133 198.903 121.16 198.877C121.187 198.851 121.215 198.828 121.242 198.806C121.27 198.785 121.297 198.766 121.325 198.749Z" fill="#EDEFFF"/>
<path fill-rule="evenodd" clip-rule="evenodd" d="M112.471 232.507L130.979 227.63C131.043 227.613 131.105 227.606 131.162 227.609C131.22 227.612 131.274 227.624 131.323 227.647C131.372 227.669 131.417 227.702 131.457 227.743C131.497 227.785 131.532 227.836 131.561 227.896L139.995 245.077C140.01 245.106 140.023 245.137 140.034 245.17C140.046 245.203 140.056 245.238 140.065 245.274C140.074 245.311 140.081 245.349 140.087 245.39C140.094 245.43 140.098 245.472 140.102 245.515C140.105 245.559 140.107 245.604 140.108 245.651C140.108 245.697 140.108 245.745 140.105 245.795C140.103 245.844 140.099 245.894 140.094 245.946C140.09 245.998 140.083 246.051 140.075 246.105C140.068 246.159 140.059 246.214 140.048 246.27C140.038 246.325 140.026 246.382 140.013 246.439C140 246.496 139.985 246.554 139.97 246.613C139.954 246.671 139.937 246.73 139.919 246.789C139.901 246.848 139.881 246.908 139.861 246.967C139.84 247.027 139.819 247.086 139.796 247.146C139.773 247.206 139.749 247.265 139.725 247.324C139.7 247.384 139.674 247.443 139.647 247.501L133.787 260.334C133.766 260.379 133.745 260.423 133.724 260.467C133.703 260.511 133.681 260.554 133.659 260.598C133.636 260.641 133.614 260.683 133.59 260.726C133.567 260.768 133.544 260.81 133.52 260.851C133.496 260.892 133.471 260.933 133.447 260.973C133.422 261.013 133.397 261.053 133.372 261.092C133.346 261.13 133.321 261.168 133.295 261.206C133.269 261.243 133.243 261.28 133.216 261.315C133.19 261.351 133.164 261.386 133.137 261.42C133.11 261.454 133.083 261.487 133.056 261.52C133.029 261.552 133.002 261.583 132.975 261.614C132.948 261.644 132.921 261.673 132.894 261.702C132.867 261.73 132.839 261.757 132.812 261.783C132.785 261.81 132.758 261.835 132.731 261.859C132.704 261.883 132.677 261.905 132.65 261.927C132.623 261.949 132.596 261.969 132.57 261.988C132.543 262.008 132.517 262.026 132.491 262.043C132.464 262.059 132.438 262.075 132.413 262.089C132.387 262.104 132.362 262.117 132.337 262.128C132.311 262.14 132.287 262.151 132.262 262.16C132.238 262.169 132.214 262.177 132.19 262.183C132.166 262.19 132.143 262.195 132.12 262.199C132.097 262.202 132.075 262.205 132.053 262.206C132.031 262.207 132.009 262.207 131.988 262.206C131.967 262.204 131.947 262.201 131.927 262.197C131.907 262.193 131.888 262.187 131.869 262.181C131.85 262.174 131.832 262.166 131.815 262.156C131.797 262.147 131.78 262.136 131.764 262.124C131.747 262.112 131.732 262.099 131.717 262.084C131.702 262.069 131.687 262.054 131.674 262.036C131.66 262.019 131.647 262.001 131.635 261.981C131.623 261.962 131.611 261.941 131.6 261.919L123.531 245.48C123.501 245.42 123.466 245.37 123.427 245.328C123.387 245.286 123.342 245.254 123.292 245.231C123.243 245.209 123.189 245.196 123.132 245.193C123.074 245.19 123.013 245.197 122.948 245.214L105.24 249.881C105.217 249.887 105.193 249.892 105.171 249.896C105.148 249.899 105.125 249.901 105.104 249.902C105.082 249.903 105.06 249.903 105.039 249.901C105.019 249.899 104.998 249.896 104.978 249.892C104.959 249.887 104.939 249.881 104.921 249.874C104.902 249.867 104.884 249.859 104.867 249.849C104.849 249.839 104.832 249.828 104.816 249.816C104.8 249.804 104.784 249.79 104.77 249.775C104.755 249.76 104.741 249.744 104.727 249.727C104.714 249.709 104.701 249.691 104.689 249.671C104.677 249.651 104.665 249.63 104.655 249.608C104.644 249.586 104.634 249.563 104.625 249.538C104.616 249.514 104.608 249.488 104.6 249.461C104.592 249.435 104.586 249.407 104.58 249.378C104.574 249.35 104.568 249.32 104.564 249.289C104.56 249.258 104.556 249.226 104.553 249.194C104.55 249.161 104.548 249.127 104.547 249.093C104.546 249.058 104.545 249.023 104.546 248.987C104.546 248.951 104.547 248.914 104.549 248.876C104.551 248.838 104.554 248.8 104.557 248.761C104.561 248.722 104.565 248.682 104.571 248.642C104.576 248.601 104.582 248.561 104.588 248.519C104.595 248.477 104.603 248.435 104.611 248.393C104.619 248.35 104.628 248.308 104.638 248.264C104.648 248.221 104.659 248.177 104.67 248.133C104.681 248.089 104.693 248.045 104.706 248C104.719 247.956 104.732 247.911 104.746 247.866C104.76 247.821 104.775 247.776 104.791 247.731C104.806 247.686 104.822 247.641 104.839 247.595C104.856 247.55 104.873 247.505 104.891 247.46C104.909 247.415 104.928 247.37 104.947 247.325C104.966 247.28 104.986 247.235 105.006 247.191L110.867 234.358C110.894 234.299 110.921 234.241 110.95 234.183C110.979 234.126 111.008 234.069 111.038 234.013C111.068 233.956 111.099 233.901 111.131 233.846C111.162 233.792 111.195 233.738 111.227 233.686C111.26 233.634 111.294 233.582 111.327 233.532C111.361 233.482 111.396 233.433 111.43 233.386C111.465 233.339 111.5 233.293 111.535 233.248C111.571 233.204 111.606 233.161 111.642 233.12C111.677 233.079 111.713 233.039 111.749 233.001C111.785 232.964 111.821 232.928 111.857 232.894C111.893 232.86 111.928 232.828 111.964 232.798C112 232.768 112.035 232.74 112.07 232.714C112.105 232.688 112.14 232.664 112.174 232.642C112.209 232.621 112.243 232.601 112.276 232.584C112.31 232.567 112.343 232.551 112.376 232.539C112.408 232.526 112.44 232.515 112.471 232.507Z" fill="#EDEFFF"/>
<path fill-rule="evenodd" clip-rule="evenodd" d="M94.4643 262.404L113.597 262.938C113.663 262.94 113.724 262.951 113.779 262.97C113.833 262.989 113.881 263.016 113.922 263.052C113.963 263.087 113.997 263.131 114.024 263.182C114.05 263.233 114.069 263.292 114.08 263.357L117.332 282.219C117.338 282.251 117.342 282.284 117.343 282.319C117.345 282.354 117.345 282.39 117.344 282.428C117.342 282.465 117.338 282.504 117.333 282.545C117.327 282.585 117.32 282.627 117.311 282.669C117.302 282.712 117.291 282.756 117.279 282.801C117.266 282.846 117.252 282.892 117.236 282.938C117.22 282.985 117.202 283.033 117.183 283.081C117.163 283.129 117.142 283.178 117.12 283.228C117.097 283.277 117.073 283.327 117.047 283.378C117.021 283.429 116.994 283.479 116.965 283.531C116.937 283.582 116.907 283.633 116.875 283.685C116.844 283.737 116.811 283.788 116.777 283.84C116.743 283.892 116.707 283.943 116.671 283.994C116.634 284.046 116.597 284.097 116.558 284.148C116.52 284.199 116.48 284.249 116.44 284.299C116.399 284.349 116.358 284.398 116.315 284.447L107.077 295.109C107.045 295.146 107.012 295.182 106.979 295.219C106.946 295.255 106.913 295.29 106.88 295.325C106.846 295.361 106.812 295.395 106.778 295.429C106.744 295.463 106.71 295.497 106.675 295.529C106.64 295.562 106.605 295.595 106.571 295.626C106.536 295.658 106.5 295.688 106.465 295.719C106.43 295.749 106.395 295.778 106.359 295.806C106.324 295.835 106.289 295.863 106.253 295.89C106.218 295.917 106.183 295.943 106.147 295.968C106.112 295.993 106.077 296.017 106.042 296.041C106.007 296.064 105.972 296.086 105.938 296.108C105.903 296.129 105.869 296.15 105.835 296.169C105.801 296.189 105.767 296.207 105.734 296.225C105.7 296.242 105.667 296.259 105.634 296.274C105.601 296.289 105.569 296.304 105.537 296.317C105.505 296.33 105.474 296.342 105.443 296.353C105.412 296.364 105.382 296.374 105.352 296.383C105.322 296.392 105.293 296.399 105.264 296.406C105.235 296.412 105.207 296.417 105.18 296.422C105.153 296.426 105.126 296.429 105.1 296.431C105.074 296.433 105.048 296.433 105.024 296.433C104.999 296.432 104.976 296.431 104.952 296.428C104.929 296.425 104.907 296.421 104.886 296.416C104.864 296.411 104.844 296.405 104.824 296.398C104.805 296.39 104.786 296.382 104.768 296.372C104.75 296.363 104.733 296.352 104.717 296.34C104.701 296.328 104.685 296.315 104.671 296.301C104.657 296.287 104.644 296.272 104.631 296.256C104.619 296.24 104.608 296.223 104.598 296.204C104.587 296.186 104.578 296.167 104.57 296.147C104.562 296.126 104.554 296.105 104.548 296.083C104.542 296.061 104.537 296.038 104.533 296.014L101.421 277.967C101.41 277.901 101.391 277.843 101.364 277.792C101.338 277.74 101.304 277.697 101.263 277.661C101.222 277.626 101.174 277.598 101.119 277.579C101.065 277.56 101.004 277.55 100.937 277.548L82.6317 277.036C82.6072 277.036 82.5836 277.034 82.5607 277.031C82.5379 277.028 82.5158 277.024 82.4945 277.019C82.4733 277.013 82.453 277.007 82.4335 276.999C82.4139 276.992 82.3952 276.983 82.3775 276.973C82.3597 276.963 82.343 276.952 82.3271 276.94C82.3112 276.928 82.2962 276.915 82.2821 276.901C82.2682 276.886 82.2552 276.871 82.2431 276.855C82.2311 276.838 82.22 276.821 82.2099 276.802C82.1999 276.784 82.1908 276.765 82.1827 276.744C82.1747 276.724 82.1676 276.702 82.1616 276.68C82.1556 276.657 82.1507 276.634 82.1467 276.61C82.1428 276.586 82.1399 276.56 82.1381 276.534C82.1362 276.508 82.1354 276.481 82.1357 276.454C82.1359 276.426 82.1371 276.398 82.1395 276.368C82.1418 276.339 82.1452 276.309 82.1496 276.278C82.1541 276.247 82.1595 276.216 82.166 276.184C82.1724 276.151 82.1799 276.119 82.1885 276.085C82.197 276.052 82.2066 276.018 82.2171 275.983C82.2276 275.949 82.2392 275.913 82.2518 275.878C82.2642 275.842 82.2777 275.806 82.2921 275.77C82.3066 275.733 82.322 275.696 82.3383 275.659C82.3546 275.622 82.3719 275.584 82.39 275.546C82.4083 275.508 82.4274 275.47 82.4472 275.432C82.4671 275.393 82.4879 275.354 82.5095 275.316C82.5312 275.277 82.5536 275.238 82.5769 275.199C82.6001 275.16 82.624 275.121 82.6487 275.082C82.6736 275.042 82.6991 275.003 82.7253 274.964C82.7515 274.925 82.7784 274.886 82.806 274.847C82.8336 274.808 82.8618 274.769 82.8906 274.731C82.9194 274.692 82.9488 274.653 82.9788 274.615C83.0089 274.577 83.0394 274.539 83.0704 274.502C83.1015 274.464 83.1331 274.426 83.1651 274.39L92.4039 263.727C92.4461 263.679 92.4891 263.631 92.5327 263.583C92.5763 263.536 92.6205 263.49 92.6653 263.444C92.7101 263.399 92.7554 263.355 92.801 263.311C92.8467 263.268 92.8927 263.226 92.939 263.184C92.9853 263.143 93.0317 263.104 93.0783 263.065C93.1249 263.027 93.1715 262.989 93.2182 262.954C93.2648 262.918 93.3113 262.884 93.3577 262.851C93.4041 262.818 93.4502 262.787 93.4961 262.758C93.542 262.728 93.5874 262.701 93.6325 262.675C93.6776 262.649 93.7221 262.624 93.7661 262.602C93.8101 262.579 93.8534 262.559 93.896 262.54C93.9386 262.521 93.9805 262.504 94.0215 262.489C94.0625 262.474 94.1026 262.461 94.1418 262.45C94.1809 262.439 94.2191 262.43 94.2561 262.422C94.2932 262.415 94.3291 262.41 94.3639 262.407C94.3986 262.404 94.4321 262.403 94.4643 262.404Z" fill="#EDEFFF"/>
<path fill-rule="evenodd" clip-rule="evenodd" d="M68.7646 286.016L86.9714 291.92C87.0348 291.94 87.09 291.967 87.137 292.001C87.184 292.035 87.2223 292.074 87.2516 292.12C87.281 292.166 87.3012 292.217 87.3123 292.274C87.3233 292.33 87.325 292.392 87.3174 292.458L85.1238 311.472C85.1201 311.504 85.1143 311.537 85.1062 311.571C85.0982 311.605 85.088 311.64 85.0756 311.675C85.0633 311.711 85.0488 311.747 85.0322 311.784C85.0157 311.822 84.9971 311.86 84.9764 311.898C84.9557 311.936 84.933 311.975 84.9083 312.015C84.8836 312.054 84.857 312.094 84.8284 312.135C84.7999 312.175 84.7695 312.216 84.7373 312.257C84.7051 312.297 84.6711 312.339 84.6354 312.38C84.5997 312.421 84.5624 312.462 84.5234 312.503C84.4845 312.545 84.444 312.586 84.402 312.627C84.36 312.668 84.3167 312.709 84.272 312.75C84.2272 312.79 84.1812 312.831 84.1339 312.87C84.0867 312.91 84.0383 312.95 83.9889 312.989C83.9394 313.028 83.889 313.066 83.8376 313.104C83.7863 313.142 83.7341 313.179 83.6811 313.216C83.6282 313.252 83.5746 313.288 83.5204 313.323L71.6519 320.95C71.6108 320.977 71.5693 321.003 71.5276 321.028C71.486 321.053 71.4441 321.078 71.402 321.102C71.3599 321.127 71.3176 321.15 71.2753 321.173C71.233 321.196 71.1906 321.219 71.1481 321.241C71.1055 321.262 71.063 321.283 71.0206 321.304C70.9781 321.324 70.9358 321.344 70.8934 321.363C70.8512 321.382 70.8092 321.4 70.7672 321.417C70.7252 321.435 70.6835 321.451 70.642 321.467C70.6004 321.483 70.5592 321.498 70.5184 321.512C70.4775 321.527 70.437 321.54 70.3967 321.553C70.3566 321.565 70.317 321.577 70.2777 321.588C70.2385 321.599 70.1998 321.609 70.1616 321.618C70.1234 321.627 70.0858 321.635 70.0489 321.642C70.0118 321.65 69.9754 321.656 69.9396 321.662C69.9039 321.667 69.8689 321.672 69.8345 321.676C69.8002 321.679 69.7667 321.682 69.734 321.684C69.7012 321.686 69.6693 321.687 69.6382 321.687C69.607 321.687 69.5768 321.686 69.5474 321.684C69.5181 321.682 69.4897 321.679 69.4623 321.675C69.4348 321.672 69.4082 321.667 69.3827 321.662C69.3573 321.656 69.3328 321.65 69.3092 321.642C69.2858 321.635 69.2635 321.627 69.2422 321.618C69.2208 321.608 69.2006 321.598 69.1815 321.587C69.1624 321.577 69.1445 321.565 69.1276 321.552C69.1108 321.54 69.0951 321.526 69.0806 321.512C69.0661 321.498 69.0527 321.483 69.0406 321.467C69.0285 321.451 69.0177 321.434 69.008 321.417C68.9982 321.399 68.9897 321.381 68.9826 321.362C68.9753 321.343 68.9694 321.323 68.9648 321.303C68.96 321.283 68.9565 321.262 68.9542 321.24C68.952 321.218 68.9511 321.196 68.9514 321.173C68.9517 321.149 68.9532 321.126 68.956 321.101L71.0547 302.909C71.0624 302.843 71.0607 302.782 71.0496 302.725C71.0386 302.668 71.0184 302.617 70.989 302.571C70.9596 302.526 70.9214 302.486 70.8744 302.452C70.8274 302.419 70.7722 302.392 70.7087 302.371L53.2888 296.723C53.2655 296.715 53.2433 296.707 53.2223 296.698C53.2012 296.688 53.1812 296.678 53.1622 296.667C53.1434 296.656 53.1257 296.644 53.1091 296.631C53.0924 296.618 53.077 296.605 53.0627 296.59C53.0485 296.576 53.0355 296.561 53.0237 296.545C53.0118 296.529 53.0011 296.512 52.9916 296.494C52.9823 296.477 52.9741 296.458 52.9672 296.439C52.9602 296.42 52.9545 296.4 52.95 296.38C52.9456 296.359 52.9423 296.338 52.9404 296.316C52.9384 296.294 52.9377 296.271 52.9383 296.248C52.9388 296.225 52.9406 296.201 52.9436 296.177C52.9467 296.152 52.9511 296.127 52.9567 296.102C52.9622 296.077 52.969 296.05 52.9771 296.024C52.985 295.997 52.9943 295.97 53.0048 295.943C53.0153 295.916 53.027 295.888 53.0399 295.859C53.0529 295.831 53.067 295.802 53.0822 295.773C53.0975 295.744 53.1139 295.715 53.1315 295.685C53.1492 295.656 53.1679 295.626 53.1877 295.595C53.2076 295.565 53.2286 295.535 53.2507 295.504C53.2727 295.473 53.2957 295.443 53.3199 295.412C53.344 295.381 53.3692 295.35 53.3953 295.319C53.4215 295.287 53.4487 295.256 53.4768 295.225C53.505 295.193 53.5341 295.162 53.564 295.131C53.5939 295.1 53.6247 295.068 53.6564 295.037C53.6881 295.006 53.7206 294.975 53.7539 294.944C53.7872 294.913 53.8212 294.883 53.8559 294.852C53.8907 294.821 53.9263 294.791 53.9624 294.761C53.9986 294.731 54.0354 294.701 54.0729 294.671C54.1103 294.642 54.1483 294.612 54.1869 294.583C54.2254 294.554 54.2644 294.526 54.304 294.498C54.3436 294.469 54.3835 294.442 54.4239 294.414C54.4644 294.387 54.5052 294.36 54.5463 294.333L66.4148 286.706C66.469 286.671 66.5237 286.637 66.5789 286.604C66.634 286.571 66.6895 286.539 66.7453 286.508C66.8011 286.477 66.857 286.447 66.9131 286.419C66.9691 286.39 67.0251 286.362 67.0811 286.336C67.1371 286.309 67.1928 286.284 67.2484 286.261C67.304 286.237 67.3592 286.214 67.414 286.193C67.4688 286.172 67.5231 286.152 67.5768 286.134C67.6305 286.116 67.6835 286.099 67.7358 286.084C67.7882 286.068 67.8396 286.054 67.8902 286.042C67.9408 286.03 67.9903 286.019 68.0389 286.01C68.0874 286.001 68.1348 285.993 68.181 285.987C68.2272 285.981 68.2721 285.976 68.3157 285.974C68.3593 285.971 68.4014 285.969 68.4421 285.97C68.4829 285.97 68.522 285.972 68.5596 285.976C68.5972 285.979 68.6331 285.985 68.6673 285.991C68.7015 285.998 68.734 286.006 68.7646 286.016Z" fill="#EDEFFF"/>
<path fill-rule="evenodd" clip-rule="evenodd" d="M37.4533 301.432L53.2594 312.226C53.3144 312.263 53.3598 312.305 53.3954 312.35C53.4311 312.396 53.4566 312.445 53.4719 312.497C53.4872 312.549 53.4922 312.604 53.4868 312.661C53.4814 312.719 53.4657 312.778 53.4397 312.84L45.9782 330.465C45.9656 330.495 45.9507 330.525 45.9334 330.555C45.9161 330.586 45.8965 330.616 45.8746 330.647C45.8527 330.678 45.8286 330.708 45.8022 330.739C45.7759 330.771 45.7473 330.802 45.7166 330.833C45.6859 330.864 45.6532 330.895 45.6183 330.926C45.5835 330.957 45.5467 330.987 45.508 331.018C45.4692 331.049 45.4286 331.079 45.3862 331.109C45.3438 331.14 45.2996 331.169 45.2538 331.199C45.2079 331.228 45.1605 331.257 45.1114 331.286C45.0625 331.315 45.012 331.343 44.9601 331.37C44.9083 331.398 44.8552 331.425 44.8008 331.451C44.7464 331.478 44.6909 331.503 44.6343 331.528C44.5777 331.553 44.5202 331.578 44.4618 331.601C44.4033 331.625 44.3441 331.647 44.2841 331.669C44.2242 331.691 44.1637 331.712 44.1026 331.732C44.0415 331.752 43.98 331.771 43.9182 331.79L30.3816 335.764C30.3347 335.778 30.2876 335.791 30.2404 335.804C30.1933 335.816 30.1461 335.828 30.0989 335.84C30.0516 335.851 30.0045 335.862 29.9574 335.872C29.9103 335.882 29.8633 335.892 29.8163 335.901C29.7694 335.91 29.7227 335.918 29.6762 335.926C29.6298 335.933 29.5836 335.94 29.5376 335.946C29.4918 335.953 29.4463 335.958 29.4011 335.963C29.356 335.968 29.3112 335.972 29.2669 335.976C29.2225 335.979 29.1788 335.982 29.1356 335.984C29.0924 335.987 29.0497 335.988 29.0075 335.989C28.9655 335.99 28.9241 335.99 28.8834 335.989C28.8427 335.988 28.8027 335.987 28.7635 335.985C28.7243 335.983 28.686 335.98 28.6485 335.977C28.6108 335.973 28.574 335.969 28.5382 335.965C28.5024 335.96 28.4675 335.954 28.4335 335.948C28.3995 335.942 28.3666 335.935 28.3347 335.928C28.3027 335.92 28.2718 335.912 28.242 335.903C28.2121 335.895 28.1833 335.885 28.1557 335.875C28.128 335.865 28.1016 335.854 28.0764 335.843C28.051 335.832 28.0268 335.82 28.0038 335.808C27.981 335.795 27.9594 335.782 27.9388 335.768C27.9185 335.755 27.8993 335.74 27.8814 335.726C27.8635 335.711 27.847 335.696 27.8317 335.68C27.8165 335.664 27.8025 335.648 27.7899 335.631C27.7774 335.614 27.7661 335.597 27.7562 335.579C27.7463 335.561 27.7377 335.543 27.7305 335.524C27.7234 335.506 27.7177 335.486 27.7134 335.467C27.7089 335.447 27.7059 335.428 27.7043 335.407C27.7027 335.387 27.7026 335.367 27.7039 335.346C27.7051 335.325 27.7076 335.304 27.7116 335.282C27.7157 335.26 27.7211 335.239 27.7279 335.217C27.7346 335.195 27.7427 335.172 27.7523 335.15L34.8913 318.286C34.9173 318.225 34.933 318.165 34.9384 318.108C34.9438 318.05 34.9388 317.995 34.9235 317.943C34.9082 317.891 34.8827 317.842 34.8471 317.797C34.8114 317.751 34.7661 317.71 34.711 317.672L19.588 307.345C19.5677 307.331 19.5488 307.317 19.5313 307.302C19.5137 307.287 19.4973 307.271 19.4822 307.256C19.4673 307.24 19.4537 307.223 19.4414 307.206C19.429 307.189 19.4179 307.172 19.4083 307.154C19.3987 307.136 19.3906 307.118 19.3839 307.099C19.377 307.08 19.3714 307.061 19.3673 307.042C19.3632 307.022 19.3606 307.002 19.3593 306.982C19.3581 306.962 19.3582 306.941 19.3597 306.92C19.3612 306.899 19.3641 306.878 19.3683 306.856C19.3726 306.835 19.3783 306.813 19.3853 306.791C19.3924 306.769 19.4008 306.746 19.4106 306.724C19.4205 306.701 19.4317 306.678 19.4443 306.655C19.4567 306.633 19.4705 306.61 19.4858 306.586C19.5009 306.563 19.5173 306.54 19.5352 306.517C19.553 306.493 19.5721 306.47 19.5925 306.446C19.6129 306.423 19.6345 306.399 19.6573 306.376C19.6801 306.352 19.7042 306.328 19.7294 306.305C19.7547 306.281 19.7811 306.258 19.8087 306.235C19.8362 306.211 19.8649 306.188 19.8948 306.165C19.9245 306.141 19.9553 306.118 19.9872 306.096C20.0191 306.073 20.052 306.05 20.0859 306.027C20.1198 306.005 20.1546 305.983 20.1904 305.96C20.2263 305.938 20.263 305.916 20.3005 305.895C20.338 305.873 20.3763 305.852 20.4156 305.831C20.4548 305.81 20.4947 305.789 20.5354 305.769C20.576 305.749 20.6173 305.729 20.6592 305.709C20.7013 305.69 20.7439 305.671 20.7871 305.652C20.8303 305.633 20.874 305.615 20.9183 305.597C20.9626 305.579 21.0073 305.562 21.0524 305.545C21.0976 305.528 21.1431 305.512 21.189 305.496C21.2349 305.48 21.2811 305.464 21.3275 305.449C21.3741 305.435 21.4208 305.42 21.4677 305.406L35.0043 301.432C35.0662 301.414 35.1282 301.396 35.1904 301.38C35.2527 301.364 35.3149 301.349 35.3772 301.335C35.4394 301.321 35.5015 301.308 35.5634 301.296C35.6253 301.284 35.6868 301.274 35.748 301.264C35.8091 301.255 35.8697 301.246 35.9297 301.239C35.9897 301.232 36.049 301.226 36.1076 301.221C36.1661 301.216 36.2237 301.213 36.2804 301.21C36.3371 301.208 36.3927 301.207 36.4473 301.207C36.5018 301.207 36.555 301.208 36.607 301.21C36.659 301.213 36.7096 301.216 36.7588 301.221C36.808 301.226 36.8556 301.232 36.9016 301.239C36.9477 301.247 36.992 301.255 37.0346 301.264C37.0772 301.274 37.118 301.285 37.157 301.297C37.1959 301.308 37.2329 301.321 37.268 301.335C37.303 301.349 37.336 301.364 37.3669 301.381C37.3979 301.397 37.4266 301.414 37.4533 301.432Z" fill="#EDEFFF"/>
</g>
<defs>
<clipPath id="clip0_459_3035">
<rect width="185" height="370" fill="white"/>
</clipPath>
</defs>
</svg>
