<svg width="113" height="297" viewBox="0 0 113 297" fill="none" xmlns="http://www.w3.org/2000/svg">
<g opacity="0.5">
<path fill-rule="evenodd" clip-rule="evenodd" d="M110.334 128.393L92.5469 116.268C92.485 116.226 92.4218 116.194 92.3573 116.172C92.2928 116.151 92.228 116.14 92.1627 116.14C92.0974 116.14 92.0325 116.151 91.968 116.172C91.9035 116.194 91.8403 116.226 91.7784 116.268L73.9917 128.393C73.9617 128.413 73.9322 128.436 73.9032 128.461C73.8741 128.486 73.8456 128.514 73.8175 128.543C73.7895 128.573 73.7621 128.605 73.7353 128.639C73.7084 128.673 73.6823 128.709 73.6568 128.747C73.6314 128.786 73.6068 128.826 73.5829 128.868C73.559 128.91 73.5359 128.954 73.5137 129C73.4915 129.046 73.4702 129.093 73.4498 129.142C73.4294 129.192 73.4099 129.242 73.3915 129.295C73.3731 129.347 73.3557 129.401 73.3392 129.456C73.3228 129.511 73.3075 129.567 73.2933 129.625C73.279 129.682 73.2658 129.741 73.2538 129.8C73.2418 129.86 73.231 129.92 73.2213 129.982C73.2116 130.043 73.203 130.105 73.1957 130.168C73.1884 130.231 73.1823 130.294 73.1774 130.358C73.1725 130.421 73.1688 130.485 73.1664 130.549C73.1639 130.614 73.1626 130.678 73.1626 130.743V144.851C73.1627 144.9 73.1634 144.948 73.1648 144.997C73.1662 145.046 73.1683 145.095 73.1712 145.143C73.174 145.192 73.1775 145.24 73.1817 145.288C73.186 145.336 73.1909 145.384 73.1964 145.431C73.2021 145.479 73.2084 145.526 73.2153 145.573C73.2223 145.62 73.23 145.666 73.2382 145.712C73.2466 145.757 73.2556 145.803 73.2652 145.847C73.2748 145.892 73.2851 145.936 73.296 145.98C73.3069 146.023 73.3185 146.066 73.3307 146.108C73.3427 146.15 73.3555 146.192 73.3689 146.232C73.3822 146.273 73.3961 146.313 73.4106 146.351C73.4251 146.39 73.4402 146.428 73.4558 146.465C73.4714 146.502 73.4875 146.538 73.5041 146.573C73.5208 146.609 73.5379 146.643 73.5556 146.676C73.5732 146.709 73.5913 146.741 73.6099 146.772C73.6284 146.802 73.6474 146.832 73.6668 146.861C73.6862 146.889 73.706 146.917 73.7262 146.943C73.7465 146.969 73.7671 146.994 73.788 147.018C73.8089 147.041 73.8302 147.064 73.8517 147.085C73.8733 147.106 73.8952 147.126 73.9173 147.144C73.9395 147.163 73.9619 147.18 73.9846 147.196C74.0073 147.211 74.0301 147.226 74.0531 147.239C74.0763 147.252 74.0995 147.263 74.1229 147.273C74.1463 147.284 74.1698 147.292 74.1935 147.3C74.2171 147.307 74.2409 147.313 74.2647 147.317C74.2886 147.322 74.3124 147.325 74.3363 147.327C74.3602 147.328 74.3842 147.328 74.4081 147.327C74.4321 147.326 74.4559 147.323 74.4797 147.319C74.5036 147.315 74.5274 147.309 74.5511 147.302C74.5748 147.295 74.5983 147.286 74.6218 147.277C74.6452 147.267 74.6685 147.255 74.6915 147.243C74.7147 147.23 74.7376 147.216 74.7603 147.2L91.7784 135.599C91.8403 135.557 91.9035 135.525 91.968 135.504C92.0325 135.483 92.0974 135.472 92.1627 135.472C92.228 135.472 92.2928 135.483 92.3573 135.504C92.4218 135.525 92.485 135.557 92.5469 135.599L109.565 147.2C109.588 147.216 109.611 147.23 109.634 147.243C109.657 147.255 109.68 147.267 109.704 147.277C109.727 147.286 109.75 147.295 109.774 147.302C109.798 147.309 109.822 147.315 109.845 147.319C109.869 147.323 109.893 147.326 109.917 147.327C109.941 147.328 109.965 147.328 109.989 147.327C110.013 147.325 110.037 147.322 110.061 147.317C110.084 147.313 110.108 147.307 110.132 147.3C110.155 147.292 110.179 147.284 110.202 147.273C110.226 147.263 110.249 147.252 110.272 147.239C110.295 147.226 110.318 147.211 110.341 147.196C110.363 147.18 110.386 147.163 110.408 147.144C110.43 147.126 110.452 147.106 110.474 147.085C110.495 147.064 110.516 147.041 110.537 147.018C110.558 146.994 110.579 146.969 110.599 146.943C110.619 146.917 110.639 146.889 110.658 146.861C110.678 146.832 110.697 146.802 110.715 146.772C110.734 146.741 110.752 146.709 110.77 146.676C110.787 146.643 110.804 146.609 110.821 146.573C110.838 146.538 110.854 146.502 110.869 146.465C110.885 146.428 110.9 146.39 110.915 146.351C110.929 146.313 110.943 146.273 110.956 146.232C110.97 146.192 110.982 146.15 110.995 146.108C111.007 146.066 111.018 146.023 111.029 145.98C111.04 145.936 111.05 145.892 111.06 145.847C111.07 145.803 111.079 145.757 111.087 145.712C111.095 145.666 111.103 145.62 111.11 145.573C111.117 145.526 111.123 145.479 111.129 145.431C111.134 145.384 111.139 145.336 111.144 145.288C111.148 145.24 111.151 145.192 111.154 145.143C111.157 145.095 111.159 145.046 111.16 144.997C111.162 144.948 111.163 144.9 111.163 144.851V130.743C111.163 130.678 111.161 130.614 111.159 130.549C111.156 130.485 111.153 130.421 111.148 130.358C111.143 130.294 111.137 130.231 111.13 130.168C111.122 130.105 111.114 130.043 111.104 129.982C111.094 129.92 111.083 129.86 111.071 129.8C111.059 129.741 111.046 129.682 111.032 129.625C111.018 129.567 111.002 129.511 110.986 129.456C110.97 129.401 110.952 129.347 110.934 129.295C110.915 129.242 110.896 129.192 110.875 129.142C110.855 129.093 110.834 129.046 110.812 129C110.789 128.954 110.766 128.91 110.742 128.868C110.718 128.826 110.694 128.786 110.668 128.747C110.643 128.709 110.617 128.673 110.59 128.639C110.563 128.605 110.536 128.573 110.508 128.543C110.48 128.514 110.451 128.486 110.422 128.461C110.393 128.436 110.363 128.413 110.334 128.393Z" fill="#EDEFFF"/>
<path fill-rule="evenodd" clip-rule="evenodd" d="M104.13 92.9336L84.9984 83.0667C84.9317 83.0323 84.8651 83.0085 84.7985 82.9951C84.7319 82.9817 84.6662 82.979 84.6014 82.987C84.5366 82.9949 84.4735 83.0135 84.4121 83.0425C84.3507 83.0716 84.2918 83.1109 84.2355 83.1604L68.0591 97.3626C68.0318 97.3865 68.0053 97.4127 67.9796 97.4412C67.9538 97.4697 67.9288 97.5003 67.9046 97.5332C67.8804 97.5661 67.857 97.6011 67.8346 97.6381C67.812 97.6752 67.7905 97.7142 67.7699 97.7552C67.7493 97.7963 67.7298 97.8391 67.7112 97.8839C67.6926 97.9286 67.675 97.9751 67.6586 98.0233C67.6422 98.0714 67.6268 98.1212 67.6126 98.1725C67.5983 98.2239 67.5852 98.2766 67.5732 98.3308C67.5613 98.3849 67.5506 98.4404 67.541 98.497C67.5314 98.5537 67.5231 98.6115 67.516 98.6703C67.5088 98.7292 67.5029 98.7889 67.4982 98.8495C67.4935 98.9102 67.4902 98.9715 67.4881 99.0336C67.4859 99.0957 67.485 99.1583 67.4853 99.2214C67.4857 99.2846 67.4874 99.348 67.4903 99.4118C67.4932 99.4756 67.4973 99.5396 67.5027 99.6037C67.5081 99.6678 67.5146 99.7318 67.5225 99.7958L69.2418 113.799C69.2479 113.847 69.2546 113.896 69.2619 113.944C69.2692 113.992 69.2773 114.04 69.286 114.088C69.2947 114.136 69.3041 114.183 69.3141 114.231C69.3242 114.278 69.3349 114.325 69.3462 114.371C69.3576 114.418 69.3696 114.464 69.3822 114.509C69.3948 114.555 69.4081 114.6 69.4219 114.644C69.4357 114.689 69.4501 114.732 69.4652 114.776C69.4802 114.819 69.4957 114.861 69.5118 114.903C69.528 114.945 69.5447 114.986 69.5619 115.026C69.579 115.067 69.5967 115.106 69.615 115.145C69.6332 115.184 69.6518 115.221 69.6709 115.258C69.6901 115.295 69.7096 115.331 69.7296 115.366C69.7497 115.4 69.77 115.434 69.7908 115.467C69.8116 115.5 69.8328 115.532 69.8543 115.562C69.8758 115.593 69.8977 115.623 69.9199 115.651C69.9421 115.679 69.9645 115.706 69.9872 115.732C70.01 115.758 70.033 115.783 70.0562 115.807C70.0795 115.83 70.103 115.852 70.1267 115.873C70.1503 115.894 70.1741 115.914 70.1981 115.932C70.2221 115.951 70.2462 115.968 70.2705 115.983C70.2947 115.999 70.319 116.013 70.3435 116.026C70.3679 116.039 70.3923 116.05 70.4168 116.06C70.4413 116.07 70.4658 116.079 70.4902 116.086C70.5147 116.094 70.5391 116.099 70.5635 116.104C70.5879 116.108 70.6121 116.111 70.6364 116.113C70.6606 116.114 70.6847 116.115 70.7086 116.113C70.7325 116.112 70.7563 116.109 70.7799 116.105C70.8035 116.101 70.8269 116.095 70.85 116.088C70.8731 116.081 70.896 116.073 70.9187 116.063C70.9414 116.053 70.9637 116.041 70.9858 116.029C71.0079 116.016 71.0296 116.002 71.0509 115.987C71.0723 115.971 71.0933 115.954 71.114 115.936L86.5914 102.348C86.6477 102.298 86.7066 102.259 86.768 102.23C86.8294 102.201 86.8925 102.182 86.9573 102.174C87.0221 102.166 87.0878 102.169 87.1544 102.182C87.221 102.196 87.2876 102.22 87.3543 102.254L105.659 111.695C105.684 111.707 105.708 111.718 105.733 111.728C105.757 111.738 105.782 111.746 105.806 111.753C105.83 111.76 105.855 111.766 105.879 111.77C105.904 111.774 105.928 111.777 105.952 111.778C105.976 111.779 106 111.779 106.024 111.777C106.048 111.776 106.072 111.773 106.095 111.768C106.119 111.764 106.142 111.758 106.165 111.75C106.188 111.743 106.211 111.734 106.234 111.724C106.257 111.714 106.279 111.702 106.301 111.689C106.323 111.676 106.344 111.662 106.366 111.646C106.387 111.631 106.408 111.614 106.429 111.595C106.449 111.577 106.469 111.557 106.489 111.536C106.509 111.515 106.528 111.493 106.547 111.469C106.566 111.446 106.584 111.421 106.602 111.395C106.62 111.369 106.637 111.341 106.654 111.313C106.671 111.284 106.687 111.255 106.703 111.224C106.719 111.194 106.734 111.162 106.749 111.129C106.764 111.096 106.778 111.062 106.791 111.027C106.805 110.992 106.817 110.956 106.83 110.919C106.842 110.882 106.853 110.845 106.864 110.806C106.875 110.767 106.886 110.728 106.895 110.688C106.905 110.647 106.914 110.606 106.922 110.564C106.931 110.522 106.938 110.48 106.945 110.436C106.952 110.393 106.958 110.349 106.964 110.305C106.969 110.26 106.974 110.215 106.978 110.17C106.982 110.124 106.986 110.078 106.988 110.032C106.991 109.985 106.993 109.938 106.994 109.891C106.996 109.844 106.996 109.796 106.996 109.748C106.996 109.7 106.995 109.652 106.993 109.604C106.991 109.556 106.989 109.508 106.986 109.459C106.983 109.411 106.979 109.362 106.974 109.313C106.97 109.265 106.965 109.216 106.959 109.168L105.239 95.1648C105.231 95.1008 105.222 95.037 105.212 94.9735C105.202 94.9101 105.19 94.847 105.178 94.7844C105.165 94.7218 105.151 94.6598 105.136 94.5984C105.121 94.5371 105.105 94.4766 105.088 94.4169C105.071 94.3571 105.053 94.2984 105.034 94.2407C105.015 94.183 104.995 94.1265 104.973 94.0711C104.952 94.0157 104.93 93.9617 104.907 93.909C104.884 93.8564 104.86 93.8052 104.836 93.7555C104.811 93.7058 104.785 93.6578 104.759 93.6115C104.733 93.5651 104.706 93.5206 104.678 93.4778C104.651 93.435 104.623 93.3942 104.594 93.3553C104.565 93.3164 104.535 93.2795 104.506 93.2447C104.476 93.2098 104.445 93.1772 104.415 93.1466C104.384 93.1161 104.353 93.0878 104.321 93.0618C104.29 93.0358 104.258 93.0121 104.226 92.9907C104.194 92.9693 104.162 92.9503 104.13 92.9336Z" fill="#EDEFFF"/>
<path fill-rule="evenodd" clip-rule="evenodd" d="M89.049 57.4228L67.9387 53.2114C67.8652 53.1968 67.7946 53.1922 67.7269 53.1977C67.6592 53.2032 67.5953 53.2187 67.5352 53.2442C67.4751 53.2697 67.4195 53.3049 67.3685 53.3498C67.3175 53.3947 67.2718 53.4487 67.2313 53.5118L55.5962 71.6226C55.5765 71.6531 55.5583 71.6856 55.5414 71.7201C55.5244 71.7546 55.5089 71.791 55.4946 71.8292C55.4804 71.8675 55.4676 71.9075 55.4563 71.9494C55.4448 71.9912 55.4349 72.0347 55.4264 72.0798C55.4179 72.1249 55.411 72.1715 55.4055 72.2196C55.3999 72.2677 55.3958 72.3172 55.3933 72.3681C55.3908 72.4189 55.3897 72.471 55.3902 72.5243C55.3906 72.5775 55.3925 72.6319 55.396 72.6872C55.3995 72.7426 55.4044 72.7988 55.4108 72.8559C55.4172 72.913 55.4251 72.9709 55.4345 73.0294C55.4438 73.0879 55.4546 73.147 55.4669 73.2066C55.4791 73.2661 55.4928 73.326 55.5079 73.3863C55.5229 73.4466 55.5393 73.507 55.557 73.5676C55.5748 73.6282 55.5939 73.6887 55.6143 73.7493C55.6346 73.8098 55.6562 73.8701 55.6791 73.9302C55.7019 73.9904 55.7259 74.0501 55.751 74.1095L61.2635 87.096C61.2827 87.141 61.3025 87.1857 61.3228 87.2302C61.3432 87.2745 61.3641 87.3184 61.3857 87.362C61.4072 87.4056 61.4293 87.4487 61.452 87.4912C61.4747 87.5338 61.4979 87.5759 61.5216 87.6175C61.5454 87.659 61.5696 87.7 61.5942 87.7403C61.6189 87.7805 61.6441 87.8201 61.6696 87.8592C61.6951 87.898 61.7211 87.9361 61.7474 87.9735C61.7738 88.0109 61.8005 88.0475 61.8275 88.0833C61.8546 88.1191 61.8819 88.154 61.9096 88.1879C61.9371 88.2219 61.965 88.255 61.9933 88.2873C62.0214 88.3194 62.0497 88.3505 62.0782 88.3806C62.1068 88.4107 62.1355 88.4398 62.1643 88.4678C62.1931 88.4958 62.2221 88.5226 62.251 88.5484C62.2801 88.5743 62.3092 88.599 62.3384 88.6225C62.3675 88.6461 62.3966 88.6684 62.4258 88.6895C62.455 88.7107 62.484 88.7306 62.513 88.7493C62.5421 88.768 62.571 88.7854 62.5998 88.8016C62.6287 88.8178 62.6574 88.8327 62.6859 88.8464C62.7144 88.86 62.7427 88.8723 62.7708 88.8832C62.7989 88.8943 62.8268 88.904 62.8544 88.9124C62.882 88.9207 62.9093 88.9276 62.9364 88.9333C62.9634 88.9389 62.99 88.9432 63.0163 88.9462C63.0427 88.9491 63.0686 88.9507 63.0941 88.951C63.1196 88.9512 63.1447 88.9501 63.1694 88.9476C63.194 88.9451 63.2181 88.9413 63.2419 88.9361C63.2656 88.9309 63.2888 88.9244 63.3114 88.9166C63.334 88.9087 63.3561 88.8994 63.3776 88.8888C63.3992 88.8784 63.4201 88.8666 63.4404 88.8535C63.4607 88.8403 63.4804 88.8258 63.4994 88.8099C63.5185 88.7942 63.5369 88.7772 63.5546 88.759C63.5723 88.7406 63.5893 88.7211 63.6055 88.7004C63.6219 88.6797 63.6374 88.6578 63.6523 88.6346L74.7847 71.3064C74.8252 71.2434 74.8709 71.1894 74.9219 71.1445C74.9729 71.0996 75.0285 71.0644 75.0886 71.0389C75.1487 71.0134 75.2126 70.9979 75.2803 70.9924C75.348 70.9869 75.4186 70.9915 75.4921 71.0061L95.6902 75.0354C95.7171 75.0408 95.7437 75.0448 95.7699 75.0475C95.7962 75.0501 95.822 75.0515 95.8475 75.0515C95.8729 75.0514 95.8979 75.05 95.9224 75.0472C95.947 75.0445 95.9711 75.0404 95.9947 75.035C96.0183 75.0295 96.0413 75.0226 96.0638 75.0143C96.0864 75.0062 96.1083 74.9968 96.1298 74.9861C96.1511 74.9752 96.1719 74.963 96.1921 74.9496C96.2123 74.9361 96.2318 74.9214 96.2507 74.9054C96.2696 74.8894 96.2879 74.8721 96.3054 74.8536C96.323 74.8351 96.3399 74.8153 96.356 74.7943C96.3722 74.7733 96.3876 74.7512 96.4023 74.7279C96.417 74.7045 96.4309 74.6799 96.4441 74.6542C96.4573 74.6286 96.4697 74.6019 96.4813 74.574C96.493 74.5462 96.5038 74.5173 96.5138 74.4873C96.5238 74.4573 96.533 74.4263 96.5414 74.3943C96.5497 74.3623 96.5573 74.3294 96.564 74.2955C96.5708 74.2617 96.5766 74.2269 96.5817 74.1912C96.5867 74.1556 96.5908 74.1191 96.5942 74.0818C96.5975 74.0445 96.5999 74.0064 96.6015 73.9675C96.6031 73.9287 96.6039 73.8893 96.6038 73.8491C96.6037 73.8089 96.6027 73.7681 96.6008 73.7266C96.599 73.6852 96.5963 73.6432 96.5928 73.6006C96.5891 73.558 96.5847 73.5149 96.5795 73.4714C96.5742 73.428 96.5681 73.3841 96.5611 73.3398C96.5542 73.2954 96.5464 73.2508 96.5378 73.2059C96.5292 73.1609 96.5197 73.1158 96.5095 73.0705C96.4993 73.025 96.4882 72.9794 96.4764 72.9337C96.4646 72.8879 96.4519 72.8421 96.4385 72.7961C96.4251 72.7502 96.411 72.7042 96.3961 72.6584C96.3812 72.6125 96.3656 72.5666 96.3492 72.5208C96.3328 72.4751 96.3158 72.4295 96.298 72.3841C96.2802 72.3385 96.2618 72.2932 96.2427 72.2482L90.7302 59.2617C90.705 59.2023 90.6788 59.1436 90.6514 59.0854C90.624 59.0272 90.5956 58.9697 90.5662 58.913C90.5368 58.8563 90.5065 58.8005 90.4752 58.7457C90.444 58.6908 90.4119 58.637 90.379 58.5843C90.3461 58.5317 90.3125 58.4802 90.2781 58.43C90.2438 58.3799 90.2088 58.3311 90.1732 58.2837C90.1376 58.2363 90.1015 58.1904 90.0649 58.1461C90.0283 58.1018 89.9913 58.0592 89.9538 58.0183C89.9164 57.9773 89.8787 57.9382 89.8407 57.9009C89.8027 57.8636 89.7645 57.8281 89.7261 57.7947C89.6878 57.7612 89.6494 57.7297 89.6109 57.7002C89.5725 57.6708 89.5341 57.6434 89.4957 57.6182C89.4574 57.593 89.4192 57.5699 89.3812 57.5491C89.3432 57.5282 89.3056 57.5096 89.2682 57.4932C89.2308 57.4769 89.1938 57.4628 89.1572 57.451C89.1206 57.4393 89.0845 57.4298 89.049 57.4228Z" fill="#EDEFFF"/>
<path fill-rule="evenodd" clip-rule="evenodd" d="M64.5127 27.5807L43.0319 28.9766C42.9571 28.9814 42.8877 28.9953 42.8237 29.0181C42.7597 29.041 42.702 29.0725 42.6505 29.1127C42.5991 29.1529 42.5545 29.2013 42.5169 29.2578C42.4793 29.3144 42.449 29.3783 42.4262 29.4498L35.875 49.9549C35.864 49.9895 35.8547 50.0256 35.8473 50.0632C35.8399 50.1009 35.8342 50.1401 35.8304 50.1807C35.8266 50.2214 35.8246 50.2634 35.8245 50.3067C35.8242 50.3501 35.8259 50.3946 35.8294 50.4404C35.8329 50.4862 35.8382 50.533 35.8453 50.5809C35.8524 50.6288 35.8613 50.6777 35.872 50.7275C35.8827 50.7772 35.8952 50.8278 35.9094 50.8791C35.9236 50.9305 35.9395 50.9825 35.9572 51.0351C35.9749 51.0876 35.9942 51.1406 36.0152 51.1942C36.0362 51.2477 36.0588 51.3015 36.083 51.3556C36.1071 51.4097 36.1328 51.464 36.1601 51.5183C36.1873 51.5727 36.216 51.627 36.2462 51.6813C36.2763 51.7357 36.3078 51.7898 36.3406 51.8437C36.3734 51.8976 36.4076 51.9512 36.4429 52.0044C36.4782 52.0576 36.5147 52.1103 36.5524 52.1624C36.5899 52.2146 36.6286 52.2661 36.6683 52.3169L45.3541 63.4342C45.3842 63.4727 45.4149 63.5108 45.4461 63.5484C45.4772 63.586 45.5088 63.623 45.5409 63.6595C45.573 63.696 45.6055 63.7319 45.6384 63.7672C45.6714 63.8024 45.7047 63.8371 45.7383 63.8711C45.772 63.9051 45.806 63.9384 45.8402 63.9709C45.8745 64.0034 45.9091 64.0352 45.9438 64.0663C45.9785 64.0972 46.0135 64.1272 46.0486 64.1565C46.0837 64.1858 46.119 64.2143 46.1543 64.2419C46.1898 64.2695 46.2252 64.2961 46.2607 64.3217C46.2961 64.3474 46.3316 64.3722 46.3673 64.396C46.4027 64.4197 46.4381 64.4425 46.4735 64.4642C46.5088 64.4859 46.5441 64.5065 46.5792 64.5261C46.6143 64.5457 46.6492 64.5642 46.6838 64.5816C46.7186 64.599 46.7532 64.6154 46.7874 64.6305C46.8216 64.6457 46.8555 64.6598 46.8892 64.6726C46.9228 64.6855 46.956 64.6972 46.9889 64.7078C47.0218 64.7183 47.0542 64.7277 47.0863 64.7359C47.1184 64.7441 47.1499 64.751 47.181 64.7568C47.2121 64.7626 47.2426 64.7671 47.2725 64.7704C47.3026 64.7738 47.332 64.776 47.3609 64.777C47.3896 64.7778 47.4178 64.7775 47.4455 64.776C47.473 64.7744 47.4998 64.7716 47.526 64.7677C47.5522 64.7637 47.5777 64.7586 47.6024 64.7522C47.6271 64.7458 47.651 64.7382 47.6742 64.7294C47.6973 64.7207 47.7197 64.7107 47.7412 64.6996C47.7628 64.6884 47.7835 64.6762 47.8034 64.6628C47.8232 64.6492 47.8421 64.6346 47.8601 64.6188C47.8783 64.6031 47.8954 64.5863 47.9116 64.5684C47.9278 64.5504 47.9431 64.5313 47.9573 64.5111C47.9717 64.4909 47.9851 64.4698 47.9975 64.4476C48.0098 64.4253 48.0212 64.402 48.0315 64.3778C48.0419 64.3536 48.0513 64.3284 48.0597 64.3022L54.3278 44.6831C54.3507 44.6117 54.3809 44.5477 54.4185 44.4912C54.4562 44.4346 54.5007 44.3863 54.5522 44.3461C54.6036 44.3059 54.6613 44.2743 54.7253 44.2515C54.7893 44.2287 54.8587 44.2148 54.9335 44.21L75.4861 42.8743C75.5136 42.8725 75.5403 42.8695 75.5663 42.8653C75.5923 42.8611 75.6176 42.8557 75.6423 42.8491C75.6668 42.8425 75.6906 42.8346 75.7135 42.8255C75.7366 42.8166 75.7588 42.8065 75.7802 42.7951C75.8015 42.7837 75.822 42.7711 75.8416 42.7573C75.8613 42.7436 75.8801 42.7288 75.898 42.7129C75.9158 42.6968 75.9327 42.6797 75.9487 42.6615C75.9647 42.6433 75.9798 42.624 75.9939 42.6036C76.0081 42.5833 76.0212 42.5619 76.0334 42.5394C76.0456 42.517 76.0567 42.4936 76.0669 42.4691C76.0771 42.4446 76.0863 42.4193 76.0945 42.393C76.1025 42.3665 76.1096 42.3392 76.1157 42.311C76.1218 42.2828 76.1269 42.2538 76.1309 42.2238C76.1349 42.194 76.1379 42.1633 76.1398 42.1317C76.1417 42.1001 76.1426 42.0678 76.1424 42.0347C76.1422 42.0017 76.141 41.9679 76.1387 41.9335C76.1365 41.899 76.1331 41.8639 76.1288 41.8282C76.1244 41.7924 76.119 41.7561 76.1125 41.7192C76.1061 41.6823 76.0986 41.6449 76.09 41.6069C76.0816 41.5691 76.0721 41.5307 76.0616 41.4919C76.0511 41.4532 76.0396 41.414 76.027 41.3744C76.0145 41.3349 76.0011 41.295 75.9866 41.2548C75.9721 41.2145 75.9566 41.1741 75.9403 41.1335C75.924 41.0929 75.9068 41.052 75.8885 41.011C75.8703 40.97 75.8513 40.9289 75.8313 40.8877C75.8114 40.8466 75.7906 40.8054 75.769 40.7643C75.7473 40.723 75.7249 40.6818 75.7016 40.6407C75.6783 40.5996 75.6543 40.5586 75.6294 40.5176C75.6046 40.4767 75.579 40.436 75.5528 40.3956C75.5265 40.3551 75.4995 40.3149 75.4719 40.2749C75.4442 40.2349 75.4159 40.1952 75.3871 40.156C75.3581 40.1166 75.3286 40.0776 75.2985 40.0391L66.6127 28.9218C66.573 28.871 66.5324 28.821 66.4909 28.7719C66.4494 28.7228 66.4071 28.6746 66.364 28.6275C66.3209 28.5803 66.2772 28.5343 66.2328 28.4894C66.1884 28.4444 66.1435 28.4008 66.0981 28.3584C66.0527 28.3161 66.0069 28.2751 65.9607 28.2355C65.9146 28.1959 65.8682 28.1578 65.8215 28.1213C65.7749 28.0847 65.7281 28.0498 65.6813 28.0165C65.6344 27.9832 65.5876 27.9516 65.5409 27.9217C65.4941 27.8918 65.4476 27.8638 65.4012 27.8376C65.3548 27.8114 65.3088 27.7871 65.2631 27.7646C65.2174 27.7422 65.1721 27.7217 65.1274 27.7032C65.0826 27.6847 65.0384 27.6683 64.9949 27.6538C64.9513 27.6394 64.9085 27.627 64.8664 27.6167C64.8243 27.6064 64.7831 27.5981 64.7427 27.592C64.7023 27.5859 64.663 27.5819 64.6246 27.58C64.5862 27.5781 64.5489 27.5783 64.5127 27.5807Z" fill="#EDEFFF"/>
<path fill-rule="evenodd" clip-rule="evenodd" d="M31.6608 7.53883L11.6627 15.5044C11.593 15.5321 11.5313 15.5667 11.4775 15.6082C11.4237 15.6497 11.3786 15.6975 11.3421 15.7517C11.3055 15.8058 11.2781 15.8656 11.2598 15.931C11.2415 15.9964 11.2325 16.0666 11.2329 16.1416L11.3388 37.6676C11.3389 37.7038 11.3413 37.741 11.3459 37.7791C11.3505 37.8173 11.3572 37.8563 11.3661 37.8961C11.3751 37.936 11.3861 37.9765 11.3994 38.0178C11.4126 38.0591 11.4279 38.101 11.4454 38.1434C11.4628 38.1858 11.4824 38.2287 11.5039 38.2721C11.5255 38.3155 11.549 38.3592 11.5746 38.4033C11.6002 38.4473 11.6277 38.4915 11.6571 38.5359C11.6864 38.5804 11.7176 38.6249 11.7507 38.6695C11.7838 38.714 11.8185 38.7584 11.855 38.8028C11.8915 38.8472 11.9296 38.8914 11.9694 38.9354C12.0091 38.9794 12.0503 39.0231 12.093 39.0664C12.1357 39.1097 12.1798 39.1525 12.2252 39.1948C12.2707 39.2372 12.3173 39.2789 12.3652 39.3201C12.4131 39.3612 12.4621 39.4016 12.5122 39.4412C12.5622 39.4809 12.6132 39.5197 12.6651 39.5577C12.717 39.5958 12.7696 39.6328 12.8231 39.6689L24.5192 47.558C24.5598 47.5853 24.6007 47.612 24.642 47.6382C24.6832 47.6642 24.7247 47.6897 24.7665 47.7145C24.8083 47.7393 24.8503 47.7634 24.8926 47.7867C24.9348 47.8101 24.9771 47.8328 25.0197 47.8547C25.0622 47.8767 25.1048 47.8978 25.1474 47.9182C25.1901 47.9385 25.2328 47.958 25.2754 47.9768C25.318 47.9955 25.3605 48.0133 25.4029 48.0303C25.4454 48.0473 25.4877 48.0635 25.5299 48.0788C25.5721 48.0941 25.6141 48.1085 25.6557 48.1219C25.6973 48.1354 25.7388 48.1479 25.78 48.1596C25.8211 48.1712 25.8618 48.1819 25.9021 48.1916C25.9424 48.2013 25.9823 48.21 26.0218 48.2178C26.0612 48.2256 26.1001 48.2324 26.1384 48.2382C26.1769 48.2441 26.2148 48.2489 26.2521 48.2528C26.2893 48.2567 26.3259 48.2595 26.3619 48.2614C26.3979 48.2632 26.4331 48.2641 26.4676 48.264C26.5021 48.2639 26.5359 48.2627 26.5689 48.2606C26.6019 48.2585 26.6341 48.2554 26.6654 48.2513C26.6968 48.2472 26.7272 48.2421 26.7567 48.2359C26.7863 48.2299 26.815 48.2229 26.8427 48.2149C26.8703 48.2068 26.8971 48.1977 26.9229 48.1878C26.9486 48.1778 26.9732 48.1669 26.9969 48.155C27.0206 48.1431 27.0432 48.1303 27.0647 48.1167C27.0863 48.103 27.1067 48.0884 27.126 48.0728C27.1453 48.0573 27.1635 48.041 27.1806 48.0237C27.1976 48.0064 27.2135 47.9884 27.2283 47.9695C27.2429 47.9505 27.2564 47.9307 27.2687 47.9101C27.2811 47.8896 27.2922 47.8683 27.302 47.8463C27.3119 47.8242 27.3205 47.8013 27.3278 47.7776C27.3353 47.7541 27.3415 47.7298 27.3464 47.7049C27.3512 47.6798 27.3548 47.6542 27.3572 47.628C27.3596 47.6017 27.3608 47.5749 27.3606 47.5473L27.2594 26.9516C27.259 26.8766 27.268 26.8064 27.2863 26.741C27.3046 26.6756 27.332 26.6158 27.3685 26.5617C27.405 26.5075 27.4502 26.4597 27.504 26.4182C27.5578 26.3767 27.6195 26.3421 27.6892 26.3144L46.8231 18.693C46.8487 18.6828 46.8732 18.6717 46.8966 18.6597C46.92 18.6476 46.9425 18.6346 46.9639 18.6208C46.9851 18.6069 47.0053 18.5921 47.0243 18.5763C47.0435 18.5607 47.0615 18.5442 47.0783 18.5268C47.0951 18.5093 47.1107 18.491 47.125 18.4718C47.1395 18.4527 47.1528 18.4329 47.165 18.4122C47.1769 18.3914 47.1877 18.3699 47.1973 18.3476C47.2069 18.3254 47.2153 18.3024 47.2224 18.2786C47.2296 18.2549 47.2355 18.2305 47.2401 18.2054C47.2448 18.1803 47.2482 18.1546 47.2503 18.1282C47.2524 18.1018 47.2533 18.0748 47.2529 18.0472C47.2525 18.0196 47.2508 17.9914 47.2478 17.9627C47.245 17.934 47.2408 17.9049 47.2353 17.8751C47.23 17.8455 47.2233 17.8153 47.2154 17.7847C47.2074 17.7541 47.1983 17.7231 47.1879 17.6917C47.1774 17.6603 47.1658 17.6286 47.153 17.5965C47.1403 17.5645 47.1263 17.5321 47.111 17.4995C47.0958 17.4668 47.0795 17.434 47.0619 17.4009C47.0444 17.3678 47.0257 17.3345 47.0058 17.301C46.9861 17.2676 46.9652 17.2341 46.9432 17.2005C46.9213 17.1668 46.8982 17.1331 46.8741 17.0994C46.85 17.0656 46.8248 17.0319 46.7987 16.9981C46.7724 16.9643 46.7452 16.9306 46.7172 16.897C46.6891 16.8634 46.6601 16.8299 46.6301 16.7965C46.6001 16.7631 46.5692 16.73 46.5375 16.697C46.5059 16.664 46.4734 16.6313 46.4401 16.5988C46.4068 16.5663 46.3727 16.534 46.3378 16.5021C46.303 16.4702 46.2674 16.4386 46.2312 16.4074C46.1949 16.3762 46.158 16.3453 46.1205 16.315C46.0831 16.2846 46.045 16.2547 46.0063 16.2252C45.9676 16.1957 45.9285 16.1667 45.8889 16.1383C45.8492 16.1098 45.8091 16.0819 45.7685 16.0546L34.0724 8.16542C34.019 8.12937 33.9649 8.0944 33.9102 8.0605C33.8556 8.0266 33.8005 7.99388 33.745 7.96234C33.6894 7.9308 33.6336 7.90053 33.5775 7.87153C33.5214 7.84253 33.4652 7.8149 33.409 7.78864C33.3527 7.76237 33.2965 7.73755 33.2403 7.71416C33.1842 7.69078 33.1283 7.66891 33.0726 7.64855C33.0169 7.62819 32.9617 7.60941 32.9068 7.5922C32.852 7.575 32.7977 7.55943 32.744 7.54547C32.6904 7.53152 32.6374 7.51925 32.5852 7.50865C32.533 7.49804 32.4817 7.48913 32.4313 7.48193C32.3809 7.47473 32.3315 7.46925 32.2832 7.46549C32.2349 7.46174 32.1878 7.45972 32.1419 7.45944C32.0961 7.45916 32.0515 7.46061 32.0083 7.4638C31.9651 7.467 31.9233 7.47192 31.883 7.47856C31.8428 7.48521 31.8041 7.49357 31.767 7.50363C31.7299 7.51369 31.6945 7.52542 31.6608 7.53883Z" fill="#EDEFFF"/>
</g>
</svg>
