<svg width="185" height="370" viewBox="0 0 185 370" fill="none" xmlns="http://www.w3.org/2000/svg">
<g opacity="0.5" clip-path="url(#clip0_490_2852)">
<path fill-rule="evenodd" clip-rule="evenodd" d="M120.31 163.863L133.243 149.754C133.288 149.705 133.335 149.666 133.385 149.637C133.436 149.608 133.488 149.59 133.541 149.582C133.595 149.575 133.65 149.577 133.706 149.591C133.763 149.605 133.819 149.629 133.876 149.663L150.261 159.557C150.288 159.574 150.316 159.593 150.343 159.614C150.371 159.636 150.398 159.659 150.426 159.685C150.453 159.711 150.48 159.74 150.507 159.77C150.534 159.801 150.561 159.833 150.587 159.868C150.613 159.903 150.639 159.94 150.665 159.979C150.691 160.018 150.716 160.058 150.741 160.101C150.766 160.144 150.79 160.188 150.814 160.235C150.838 160.281 150.861 160.329 150.884 160.378C150.906 160.428 150.928 160.479 150.95 160.532C150.971 160.584 150.992 160.638 151.011 160.693C151.031 160.749 151.051 160.805 151.069 160.863C151.087 160.92 151.105 160.979 151.122 161.038C151.138 161.098 151.154 161.158 151.169 161.22C151.184 161.281 151.198 161.343 151.211 161.405C151.224 161.468 151.236 161.53 151.248 161.594C151.259 161.657 151.269 161.721 151.278 161.784L153.286 175.749C153.293 175.797 153.299 175.846 153.305 175.894C153.311 175.943 153.316 175.991 153.321 176.04C153.325 176.088 153.329 176.136 153.333 176.184C153.336 176.232 153.339 176.28 153.341 176.328C153.343 176.376 153.344 176.423 153.345 176.47C153.346 176.517 153.347 176.564 153.346 176.61C153.346 176.657 153.345 176.702 153.343 176.748C153.342 176.793 153.34 176.838 153.337 176.882C153.334 176.927 153.331 176.971 153.327 177.014C153.323 177.057 153.318 177.099 153.313 177.141C153.307 177.183 153.302 177.224 153.295 177.264C153.289 177.304 153.282 177.343 153.274 177.382C153.267 177.42 153.258 177.458 153.25 177.495C153.241 177.531 153.232 177.567 153.222 177.602C153.212 177.637 153.202 177.671 153.191 177.703C153.18 177.736 153.169 177.768 153.157 177.798C153.145 177.829 153.132 177.858 153.119 177.887C153.106 177.915 153.093 177.942 153.079 177.968C153.065 177.994 153.051 178.019 153.036 178.042C153.021 178.065 153.006 178.088 152.99 178.109C152.975 178.129 152.959 178.149 152.942 178.167C152.926 178.186 152.909 178.203 152.892 178.218C152.875 178.234 152.857 178.248 152.839 178.261C152.822 178.274 152.803 178.285 152.785 178.295C152.767 178.305 152.748 178.314 152.729 178.321C152.71 178.329 152.691 178.334 152.671 178.339C152.652 178.343 152.632 178.346 152.612 178.348C152.592 178.349 152.572 178.349 152.552 178.348C152.532 178.347 152.511 178.344 152.491 178.34C152.47 178.336 152.449 178.33 152.429 178.323C152.408 178.316 152.387 178.308 152.366 178.298C152.346 178.288 152.325 178.277 152.304 178.264L136.627 168.798C136.57 168.763 136.514 168.739 136.458 168.726C136.401 168.712 136.346 168.709 136.293 168.717C136.239 168.725 136.187 168.743 136.137 168.772C136.087 168.801 136.039 168.84 135.994 168.889L123.62 182.388C123.603 182.406 123.586 182.423 123.569 182.438C123.552 182.453 123.534 182.467 123.516 182.48C123.498 182.493 123.48 182.504 123.462 182.514C123.443 182.523 123.424 182.532 123.405 182.539C123.386 182.546 123.367 182.551 123.347 182.555C123.328 182.559 123.308 182.562 123.288 182.563C123.268 182.565 123.248 182.564 123.228 182.563C123.208 182.561 123.187 182.558 123.167 182.554C123.146 182.549 123.125 182.543 123.105 182.536C123.084 182.529 123.063 182.52 123.042 182.51C123.021 182.5 123.001 182.488 122.98 182.475C122.959 182.462 122.938 182.448 122.917 182.432C122.896 182.417 122.875 182.4 122.854 182.381C122.834 182.363 122.813 182.344 122.792 182.323C122.772 182.302 122.751 182.279 122.731 182.256C122.71 182.232 122.69 182.208 122.67 182.182C122.65 182.156 122.63 182.128 122.61 182.1C122.591 182.072 122.571 182.042 122.552 182.012C122.533 181.981 122.514 181.949 122.495 181.916C122.476 181.884 122.458 181.85 122.44 181.815C122.422 181.78 122.404 181.745 122.387 181.708C122.369 181.671 122.352 181.633 122.335 181.595C122.318 181.556 122.302 181.517 122.286 181.477C122.27 181.436 122.254 181.395 122.239 181.354C122.224 181.312 122.209 181.269 122.195 181.226C122.181 181.183 122.167 181.139 122.153 181.095C122.14 181.051 122.127 181.006 122.115 180.96C122.102 180.915 122.09 180.869 122.079 180.823C122.068 180.776 122.057 180.729 122.047 180.682C122.036 180.635 122.026 180.588 122.017 180.54C122.008 180.493 121.999 180.445 121.991 180.397C121.983 180.348 121.976 180.3 121.969 180.252L119.961 166.287C119.952 166.223 119.943 166.16 119.936 166.096C119.929 166.032 119.923 165.968 119.918 165.904C119.913 165.841 119.909 165.777 119.906 165.715C119.903 165.652 119.902 165.589 119.901 165.527C119.9 165.465 119.9 165.404 119.902 165.344C119.903 165.283 119.906 165.224 119.909 165.165C119.913 165.107 119.917 165.049 119.923 164.993C119.929 164.936 119.936 164.881 119.943 164.827C119.951 164.773 119.96 164.72 119.97 164.669C119.979 164.618 119.99 164.569 120.002 164.521C120.014 164.473 120.027 164.426 120.04 164.382C120.054 164.337 120.069 164.295 120.084 164.254C120.1 164.213 120.116 164.174 120.133 164.137C120.151 164.1 120.169 164.066 120.187 164.033C120.206 164 120.226 163.97 120.246 163.941C120.267 163.913 120.288 163.887 120.31 163.863Z" fill="#EDEFFF"/>
<path fill-rule="evenodd" clip-rule="evenodd" d="M121.325 198.749L137.709 188.855C137.766 188.821 137.823 188.797 137.879 188.783C137.935 188.77 137.99 188.767 138.044 188.774C138.098 188.782 138.15 188.8 138.2 188.829C138.25 188.858 138.298 188.897 138.343 188.946L151.276 203.055C151.298 203.079 151.319 203.105 151.339 203.133C151.36 203.162 151.379 203.192 151.398 203.225C151.417 203.258 151.435 203.292 151.452 203.329C151.47 203.366 151.486 203.405 151.501 203.446C151.517 203.487 151.532 203.529 151.545 203.574C151.559 203.618 151.572 203.665 151.584 203.713C151.595 203.761 151.606 203.81 151.616 203.861C151.626 203.913 151.635 203.965 151.642 204.019C151.65 204.073 151.657 204.128 151.662 204.185C151.668 204.241 151.673 204.299 151.676 204.357C151.68 204.416 151.682 204.475 151.684 204.536C151.685 204.596 151.686 204.658 151.685 204.719C151.684 204.781 151.682 204.844 151.679 204.907C151.676 204.97 151.672 205.033 151.667 205.096C151.662 205.16 151.656 205.224 151.649 205.288C151.642 205.352 151.634 205.416 151.625 205.479L149.617 219.444C149.61 219.492 149.602 219.54 149.594 219.589C149.586 219.637 149.578 219.685 149.568 219.732C149.559 219.78 149.549 219.827 149.539 219.875C149.529 219.922 149.518 219.968 149.507 220.015C149.495 220.061 149.483 220.107 149.471 220.152C149.458 220.198 149.446 220.243 149.432 220.287C149.419 220.331 149.405 220.375 149.391 220.418C149.376 220.461 149.362 220.504 149.346 220.546C149.331 220.587 149.316 220.628 149.3 220.669C149.284 220.709 149.267 220.748 149.25 220.787C149.234 220.826 149.217 220.863 149.199 220.9C149.182 220.937 149.164 220.972 149.146 221.007C149.127 221.042 149.109 221.076 149.09 221.109C149.072 221.141 149.053 221.173 149.033 221.204C149.014 221.234 148.995 221.264 148.975 221.292C148.955 221.321 148.936 221.348 148.915 221.374C148.895 221.4 148.875 221.424 148.855 221.448C148.834 221.471 148.814 221.494 148.793 221.515C148.773 221.536 148.752 221.555 148.731 221.573C148.71 221.592 148.69 221.609 148.669 221.625C148.648 221.64 148.627 221.654 148.606 221.667C148.585 221.68 148.564 221.692 148.543 221.702C148.522 221.712 148.502 221.721 148.481 221.728C148.46 221.735 148.439 221.741 148.419 221.746C148.398 221.75 148.378 221.753 148.358 221.755C148.337 221.757 148.317 221.757 148.297 221.756C148.277 221.754 148.258 221.751 148.238 221.747C148.219 221.743 148.199 221.738 148.18 221.731C148.161 221.724 148.142 221.716 148.124 221.706C148.105 221.696 148.087 221.685 148.069 221.672C148.051 221.66 148.034 221.646 148.017 221.63C147.999 221.615 147.982 221.598 147.966 221.58L135.592 208.081C135.547 208.032 135.499 207.993 135.449 207.964C135.399 207.935 135.347 207.917 135.293 207.909C135.239 207.901 135.184 207.904 135.128 207.918C135.072 207.931 135.015 207.955 134.958 207.99L119.282 217.456C119.261 217.469 119.24 217.48 119.219 217.49C119.198 217.5 119.178 217.508 119.157 217.515C119.136 217.522 119.115 217.528 119.095 217.532C119.074 217.536 119.054 217.539 119.034 217.54C119.014 217.542 118.993 217.541 118.974 217.54C118.954 217.538 118.934 217.535 118.914 217.531C118.895 217.526 118.876 217.521 118.857 217.513C118.838 217.506 118.819 217.497 118.801 217.487C118.782 217.477 118.764 217.466 118.746 217.453C118.728 217.44 118.711 217.426 118.694 217.41C118.676 217.395 118.66 217.378 118.643 217.359C118.627 217.341 118.611 217.321 118.595 217.3C118.58 217.28 118.564 217.258 118.55 217.234C118.535 217.211 118.52 217.186 118.507 217.16C118.493 217.134 118.479 217.107 118.466 217.079C118.453 217.05 118.441 217.021 118.429 216.99C118.417 216.96 118.406 216.928 118.395 216.895C118.384 216.863 118.373 216.829 118.364 216.794C118.354 216.759 118.345 216.724 118.336 216.687C118.327 216.65 118.319 216.613 118.311 216.574C118.304 216.535 118.297 216.496 118.29 216.456C118.284 216.416 118.278 216.375 118.273 216.333C118.268 216.291 118.263 216.249 118.259 216.206C118.255 216.163 118.252 216.119 118.249 216.075C118.246 216.03 118.244 215.985 118.242 215.94C118.241 215.894 118.24 215.849 118.239 215.802C118.239 215.756 118.239 215.709 118.24 215.662C118.241 215.615 118.243 215.568 118.245 215.52C118.247 215.472 118.25 215.424 118.253 215.376C118.256 215.328 118.26 215.28 118.265 215.232C118.27 215.183 118.275 215.135 118.28 215.086C118.286 215.038 118.293 214.989 118.3 214.941L120.307 200.977C120.317 200.913 120.327 200.849 120.338 200.786C120.349 200.723 120.361 200.66 120.374 200.597C120.387 200.535 120.401 200.473 120.416 200.412C120.431 200.35 120.447 200.29 120.464 200.231C120.481 200.171 120.498 200.112 120.517 200.055C120.535 199.997 120.554 199.941 120.574 199.885C120.594 199.83 120.615 199.776 120.636 199.724C120.657 199.671 120.679 199.62 120.702 199.57C120.725 199.521 120.748 199.473 120.772 199.427C120.796 199.38 120.82 199.336 120.845 199.293C120.87 199.25 120.895 199.21 120.92 199.171C120.946 199.132 120.972 199.095 120.999 199.06C121.025 199.025 121.052 198.993 121.079 198.962C121.106 198.932 121.133 198.903 121.16 198.877C121.187 198.851 121.215 198.828 121.242 198.806C121.27 198.785 121.297 198.766 121.325 198.749Z" fill="#EDEFFF"/>
<path fill-rule="evenodd" clip-rule="evenodd" d="M112.471 232.507L130.979 227.63C131.043 227.613 131.105 227.606 131.162 227.609C131.22 227.612 131.274 227.624 131.323 227.647C131.373 227.669 131.417 227.702 131.457 227.743C131.497 227.785 131.532 227.836 131.561 227.896L139.995 245.077C140.01 245.106 140.023 245.137 140.034 245.17C140.046 245.203 140.056 245.238 140.065 245.274C140.074 245.311 140.081 245.349 140.087 245.39C140.094 245.43 140.098 245.472 140.102 245.515C140.105 245.559 140.107 245.604 140.108 245.651C140.108 245.697 140.108 245.745 140.105 245.795C140.103 245.844 140.1 245.894 140.095 245.946C140.09 245.998 140.083 246.051 140.075 246.105C140.068 246.159 140.059 246.214 140.048 246.27C140.038 246.325 140.026 246.382 140.013 246.439C140 246.496 139.985 246.554 139.97 246.613C139.954 246.671 139.937 246.73 139.919 246.789C139.901 246.848 139.881 246.908 139.861 246.967C139.84 247.027 139.819 247.086 139.796 247.146C139.773 247.206 139.749 247.265 139.725 247.324C139.7 247.384 139.674 247.443 139.647 247.501L133.787 260.334C133.766 260.379 133.745 260.423 133.724 260.467C133.703 260.511 133.681 260.554 133.659 260.598C133.636 260.641 133.614 260.683 133.59 260.726C133.567 260.768 133.544 260.81 133.52 260.851C133.496 260.892 133.471 260.933 133.447 260.973C133.422 261.013 133.397 261.053 133.372 261.092C133.346 261.13 133.321 261.168 133.295 261.206C133.269 261.243 133.243 261.28 133.217 261.315C133.19 261.351 133.164 261.386 133.137 261.42C133.11 261.454 133.083 261.487 133.056 261.52C133.029 261.552 133.002 261.583 132.975 261.614C132.948 261.644 132.921 261.673 132.894 261.702C132.867 261.73 132.839 261.757 132.812 261.783C132.785 261.81 132.758 261.835 132.731 261.859C132.704 261.883 132.677 261.905 132.65 261.927C132.623 261.949 132.596 261.969 132.57 261.988C132.543 262.008 132.517 262.026 132.491 262.043C132.464 262.059 132.438 262.075 132.413 262.089C132.387 262.104 132.362 262.117 132.337 262.128C132.311 262.14 132.287 262.151 132.262 262.16C132.238 262.169 132.214 262.177 132.19 262.183C132.166 262.19 132.143 262.195 132.12 262.199C132.097 262.202 132.075 262.205 132.053 262.206C132.031 262.207 132.009 262.207 131.988 262.206C131.968 262.204 131.947 262.201 131.927 262.197C131.907 262.193 131.888 262.187 131.869 262.181C131.85 262.174 131.832 262.166 131.815 262.156C131.797 262.147 131.78 262.136 131.764 262.124C131.747 262.112 131.732 262.099 131.717 262.084C131.702 262.069 131.687 262.054 131.674 262.036C131.66 262.019 131.647 262.001 131.635 261.981C131.623 261.962 131.611 261.941 131.6 261.919L123.531 245.48C123.501 245.42 123.467 245.37 123.427 245.328C123.387 245.286 123.342 245.254 123.292 245.231C123.243 245.209 123.189 245.196 123.132 245.193C123.074 245.19 123.013 245.197 122.948 245.214L105.24 249.881C105.217 249.887 105.193 249.892 105.171 249.896C105.148 249.899 105.125 249.901 105.104 249.902C105.082 249.903 105.06 249.903 105.04 249.901C105.019 249.899 104.998 249.896 104.978 249.892C104.959 249.887 104.939 249.881 104.921 249.874C104.902 249.867 104.884 249.859 104.867 249.849C104.849 249.839 104.832 249.828 104.816 249.816C104.8 249.804 104.784 249.79 104.77 249.775C104.755 249.76 104.741 249.744 104.727 249.727C104.714 249.709 104.701 249.691 104.689 249.671C104.677 249.651 104.665 249.63 104.655 249.608C104.644 249.586 104.634 249.563 104.625 249.538C104.616 249.514 104.608 249.488 104.6 249.461C104.592 249.435 104.586 249.407 104.58 249.378C104.574 249.35 104.568 249.32 104.564 249.289C104.56 249.258 104.556 249.226 104.553 249.194C104.55 249.161 104.548 249.127 104.547 249.093C104.546 249.058 104.545 249.023 104.546 248.987C104.546 248.951 104.547 248.914 104.549 248.876C104.551 248.838 104.554 248.8 104.557 248.761C104.561 248.722 104.565 248.682 104.571 248.642C104.576 248.601 104.582 248.561 104.588 248.519C104.595 248.477 104.603 248.435 104.611 248.393C104.619 248.35 104.628 248.308 104.638 248.264C104.648 248.221 104.659 248.177 104.67 248.133C104.681 248.089 104.693 248.045 104.706 248C104.719 247.956 104.732 247.911 104.746 247.866C104.76 247.821 104.775 247.776 104.791 247.731C104.806 247.686 104.822 247.641 104.839 247.595C104.856 247.55 104.873 247.505 104.891 247.46C104.909 247.415 104.928 247.37 104.947 247.325C104.966 247.28 104.986 247.235 105.006 247.191L110.867 234.358C110.894 234.299 110.921 234.241 110.95 234.183C110.979 234.126 111.008 234.069 111.038 234.013C111.068 233.956 111.099 233.901 111.131 233.846C111.162 233.792 111.195 233.738 111.227 233.686C111.26 233.634 111.294 233.582 111.327 233.532C111.361 233.482 111.396 233.433 111.43 233.386C111.465 233.339 111.5 233.293 111.535 233.248C111.571 233.204 111.606 233.161 111.642 233.12C111.678 233.079 111.713 233.039 111.749 233.001C111.785 232.964 111.821 232.928 111.857 232.894C111.893 232.86 111.928 232.828 111.964 232.798C112 232.768 112.035 232.74 112.07 232.714C112.105 232.688 112.14 232.664 112.175 232.642C112.209 232.621 112.243 232.601 112.277 232.584C112.31 232.567 112.343 232.551 112.376 232.539C112.408 232.526 112.44 232.515 112.471 232.507Z" fill="#EDEFFF"/>
<path fill-rule="evenodd" clip-rule="evenodd" d="M94.4643 262.404L113.597 262.938C113.663 262.94 113.724 262.951 113.779 262.97C113.833 262.989 113.881 263.016 113.922 263.052C113.963 263.087 113.997 263.131 114.024 263.182C114.05 263.233 114.069 263.292 114.08 263.357L117.332 282.219C117.338 282.251 117.342 282.284 117.343 282.319C117.345 282.354 117.345 282.39 117.343 282.428C117.342 282.465 117.338 282.504 117.333 282.545C117.327 282.585 117.32 282.627 117.311 282.669C117.302 282.712 117.291 282.756 117.279 282.801C117.266 282.846 117.252 282.892 117.236 282.938C117.22 282.985 117.202 283.033 117.183 283.081C117.163 283.129 117.142 283.178 117.12 283.228C117.097 283.277 117.073 283.327 117.047 283.378C117.021 283.429 116.994 283.479 116.965 283.531C116.937 283.582 116.907 283.633 116.875 283.685C116.844 283.737 116.811 283.788 116.777 283.84C116.743 283.892 116.707 283.943 116.671 283.994C116.634 284.046 116.597 284.097 116.558 284.148C116.52 284.199 116.48 284.249 116.44 284.299C116.399 284.349 116.358 284.398 116.315 284.447L107.077 295.109C107.045 295.146 107.012 295.182 106.979 295.219C106.946 295.255 106.913 295.29 106.88 295.325C106.846 295.361 106.812 295.395 106.778 295.429C106.744 295.463 106.71 295.497 106.675 295.529C106.64 295.562 106.605 295.595 106.57 295.626C106.535 295.658 106.5 295.688 106.465 295.719C106.43 295.749 106.395 295.778 106.359 295.806C106.324 295.835 106.289 295.863 106.253 295.89C106.218 295.917 106.183 295.943 106.147 295.968C106.112 295.993 106.077 296.017 106.042 296.041C106.007 296.064 105.972 296.086 105.938 296.108C105.903 296.129 105.869 296.15 105.835 296.169C105.801 296.189 105.767 296.207 105.734 296.225C105.7 296.242 105.667 296.259 105.634 296.274C105.601 296.289 105.569 296.304 105.537 296.317C105.505 296.33 105.474 296.342 105.443 296.353C105.412 296.364 105.382 296.374 105.352 296.383C105.322 296.392 105.293 296.399 105.264 296.406C105.235 296.412 105.207 296.417 105.18 296.422C105.153 296.426 105.126 296.429 105.1 296.431C105.074 296.433 105.048 296.433 105.024 296.433C104.999 296.432 104.975 296.431 104.952 296.428C104.929 296.425 104.907 296.421 104.886 296.416C104.864 296.411 104.844 296.405 104.824 296.398C104.804 296.39 104.786 296.382 104.768 296.372C104.75 296.363 104.733 296.352 104.717 296.34C104.701 296.328 104.685 296.315 104.671 296.301C104.657 296.287 104.644 296.272 104.631 296.256C104.619 296.24 104.608 296.223 104.598 296.204C104.587 296.186 104.578 296.167 104.57 296.147C104.562 296.126 104.554 296.105 104.548 296.083C104.542 296.061 104.537 296.038 104.533 296.014L101.421 277.967C101.41 277.901 101.391 277.843 101.364 277.792C101.338 277.74 101.304 277.697 101.263 277.661C101.222 277.626 101.174 277.598 101.119 277.579C101.065 277.56 101.004 277.55 100.937 277.548L82.6316 277.036C82.6072 277.036 82.5836 277.034 82.5607 277.031C82.5379 277.028 82.5158 277.024 82.4945 277.019C82.4733 277.013 82.4529 277.007 82.4335 276.999C82.4139 276.992 82.3952 276.983 82.3775 276.973C82.3597 276.963 82.3429 276.952 82.3271 276.94C82.3112 276.928 82.2962 276.915 82.2821 276.901C82.2682 276.886 82.2552 276.871 82.2431 276.855C82.2311 276.838 82.22 276.821 82.2099 276.802C82.1998 276.784 82.1908 276.765 82.1827 276.744C82.1746 276.724 82.1676 276.702 82.1616 276.68C82.1556 276.657 82.1506 276.634 82.1466 276.61C82.1428 276.586 82.1399 276.56 82.1381 276.534C82.1362 276.508 82.1354 276.481 82.1357 276.454C82.1358 276.426 82.1371 276.398 82.1394 276.368C82.1418 276.339 82.1452 276.309 82.1496 276.278C82.154 276.247 82.1595 276.216 82.166 276.184C82.1724 276.151 82.1799 276.119 82.1885 276.085C82.197 276.052 82.2065 276.018 82.2171 275.983C82.2276 275.949 82.2392 275.913 82.2517 275.878C82.2642 275.842 82.2777 275.806 82.2921 275.77C82.3065 275.733 82.3219 275.696 82.3383 275.659C82.3546 275.622 82.3718 275.584 82.39 275.546C82.4082 275.508 82.4273 275.47 82.4472 275.432C82.4671 275.393 82.4879 275.354 82.5095 275.316C82.5312 275.277 82.5536 275.238 82.5768 275.199C82.6 275.16 82.624 275.121 82.6487 275.082C82.6735 275.042 82.699 275.003 82.7252 274.964C82.7514 274.925 82.7783 274.886 82.8059 274.847C82.8336 274.808 82.8618 274.769 82.8906 274.731C82.9194 274.692 82.9488 274.653 82.9788 274.615C83.0088 274.577 83.0393 274.539 83.0703 274.502C83.1015 274.464 83.133 274.426 83.165 274.39L92.4039 263.727C92.4461 263.679 92.489 263.631 92.5327 263.583C92.5763 263.536 92.6205 263.49 92.6653 263.444C92.7101 263.399 92.7553 263.355 92.801 263.311C92.8467 263.268 92.8927 263.226 92.9389 263.184C92.9852 263.143 93.0317 263.104 93.0783 263.065C93.1249 263.027 93.1715 262.989 93.2181 262.954C93.2648 262.918 93.3113 262.884 93.3577 262.851C93.4041 262.818 93.4502 262.787 93.4961 262.758C93.542 262.728 93.5874 262.701 93.6325 262.675C93.6775 262.649 93.7221 262.624 93.766 262.602C93.81 262.579 93.8533 262.559 93.896 262.54C93.9386 262.521 93.9804 262.504 94.0215 262.489C94.0625 262.474 94.1026 262.461 94.1417 262.45C94.1809 262.439 94.219 262.43 94.2561 262.422C94.2932 262.415 94.3291 262.41 94.3638 262.407C94.3986 262.404 94.4321 262.403 94.4643 262.404Z" fill="#EDEFFF"/>
<path fill-rule="evenodd" clip-rule="evenodd" d="M68.7646 286.016L86.9714 291.92C87.0348 291.94 87.09 291.967 87.137 292.001C87.184 292.035 87.2223 292.074 87.2516 292.12C87.281 292.166 87.3012 292.217 87.3123 292.274C87.3233 292.33 87.325 292.392 87.3174 292.458L85.1238 311.472C85.1201 311.504 85.1143 311.537 85.1062 311.571C85.0982 311.605 85.088 311.64 85.0756 311.675C85.0633 311.711 85.0488 311.747 85.0322 311.784C85.0157 311.822 84.9971 311.86 84.9764 311.898C84.9557 311.936 84.933 311.975 84.9083 312.015C84.8836 312.054 84.857 312.094 84.8284 312.135C84.7999 312.175 84.7695 312.216 84.7373 312.257C84.7051 312.297 84.6711 312.339 84.6354 312.38C84.5997 312.421 84.5624 312.462 84.5234 312.503C84.4845 312.545 84.444 312.586 84.402 312.627C84.36 312.668 84.3167 312.709 84.272 312.75C84.2272 312.79 84.1812 312.831 84.1339 312.87C84.0867 312.91 84.0383 312.95 83.9889 312.989C83.9394 313.028 83.889 313.066 83.8376 313.104C83.7863 313.142 83.7341 313.179 83.6811 313.216C83.6282 313.252 83.5746 313.288 83.5204 313.323L71.6519 320.95C71.6108 320.977 71.5693 321.003 71.5276 321.028C71.486 321.053 71.4441 321.078 71.402 321.102C71.3599 321.127 71.3176 321.15 71.2753 321.173C71.233 321.196 71.1906 321.219 71.1481 321.241C71.1055 321.262 71.063 321.283 71.0206 321.304C70.9781 321.324 70.9358 321.344 70.8934 321.363C70.8512 321.382 70.8092 321.4 70.7672 321.417C70.7252 321.435 70.6835 321.451 70.642 321.467C70.6004 321.483 70.5592 321.498 70.5184 321.512C70.4775 321.527 70.437 321.54 70.3967 321.553C70.3566 321.565 70.317 321.577 70.2777 321.588C70.2385 321.599 70.1998 321.609 70.1616 321.618C70.1234 321.627 70.0858 321.635 70.0489 321.642C70.0118 321.65 69.9754 321.656 69.9396 321.662C69.9039 321.667 69.8689 321.672 69.8345 321.676C69.8002 321.679 69.7667 321.682 69.734 321.684C69.7012 321.686 69.6693 321.687 69.6382 321.687C69.607 321.687 69.5768 321.686 69.5474 321.684C69.5181 321.682 69.4897 321.679 69.4623 321.675C69.4348 321.672 69.4082 321.667 69.3827 321.662C69.3573 321.656 69.3328 321.65 69.3092 321.642C69.2858 321.635 69.2635 321.627 69.2422 321.618C69.2208 321.608 69.2006 321.598 69.1815 321.587C69.1624 321.577 69.1445 321.565 69.1276 321.552C69.1108 321.54 69.0951 321.526 69.0806 321.512C69.0661 321.498 69.0527 321.483 69.0406 321.467C69.0285 321.451 69.0177 321.434 69.008 321.417C68.9982 321.399 68.9897 321.381 68.9826 321.362C68.9753 321.343 68.9694 321.323 68.9648 321.303C68.96 321.283 68.9565 321.262 68.9542 321.24C68.952 321.218 68.9511 321.196 68.9514 321.173C68.9517 321.149 68.9532 321.126 68.956 321.101L71.0547 302.909C71.0624 302.843 71.0607 302.782 71.0496 302.725C71.0386 302.668 71.0184 302.617 70.989 302.571C70.9596 302.526 70.9214 302.486 70.8744 302.452C70.8274 302.419 70.7722 302.392 70.7087 302.371L53.2888 296.723C53.2655 296.715 53.2433 296.707 53.2223 296.698C53.2012 296.688 53.1812 296.678 53.1622 296.667C53.1434 296.656 53.1257 296.644 53.1091 296.631C53.0924 296.618 53.077 296.605 53.0627 296.59C53.0485 296.576 53.0355 296.561 53.0237 296.545C53.0118 296.529 53.0011 296.512 52.9916 296.494C52.9823 296.477 52.9741 296.458 52.9672 296.439C52.9602 296.42 52.9545 296.4 52.95 296.38C52.9456 296.359 52.9423 296.338 52.9404 296.316C52.9384 296.294 52.9377 296.271 52.9383 296.248C52.9388 296.225 52.9406 296.201 52.9436 296.177C52.9467 296.152 52.9511 296.127 52.9567 296.102C52.9622 296.077 52.969 296.05 52.9771 296.024C52.985 295.997 52.9943 295.97 53.0048 295.943C53.0153 295.916 53.027 295.888 53.0399 295.859C53.0529 295.831 53.067 295.802 53.0822 295.773C53.0975 295.744 53.1139 295.715 53.1315 295.685C53.1492 295.656 53.1679 295.626 53.1877 295.595C53.2076 295.565 53.2286 295.535 53.2507 295.504C53.2727 295.473 53.2957 295.443 53.3199 295.412C53.344 295.381 53.3692 295.35 53.3953 295.319C53.4215 295.287 53.4487 295.256 53.4768 295.225C53.505 295.193 53.5341 295.162 53.564 295.131C53.5939 295.1 53.6247 295.068 53.6564 295.037C53.6881 295.006 53.7206 294.975 53.7539 294.944C53.7872 294.913 53.8212 294.883 53.8559 294.852C53.8907 294.821 53.9263 294.791 53.9624 294.761C53.9986 294.731 54.0354 294.701 54.0729 294.671C54.1103 294.642 54.1483 294.612 54.1869 294.583C54.2254 294.554 54.2644 294.526 54.304 294.498C54.3436 294.469 54.3835 294.442 54.4239 294.414C54.4644 294.387 54.5052 294.36 54.5463 294.333L66.4148 286.706C66.469 286.671 66.5237 286.637 66.5789 286.604C66.634 286.571 66.6895 286.539 66.7453 286.508C66.8011 286.477 66.857 286.447 66.9131 286.419C66.9691 286.39 67.0251 286.362 67.0811 286.336C67.1371 286.309 67.1928 286.284 67.2484 286.261C67.304 286.237 67.3592 286.214 67.414 286.193C67.4688 286.172 67.5231 286.152 67.5768 286.134C67.6305 286.116 67.6835 286.099 67.7358 286.084C67.7882 286.068 67.8396 286.054 67.8902 286.042C67.9408 286.03 67.9903 286.019 68.0389 286.01C68.0874 286.001 68.1348 285.993 68.181 285.987C68.2272 285.981 68.2721 285.976 68.3157 285.974C68.3593 285.971 68.4014 285.969 68.4421 285.97C68.4829 285.97 68.522 285.972 68.5596 285.976C68.5972 285.979 68.6331 285.985 68.6673 285.991C68.7015 285.998 68.734 286.006 68.7646 286.016Z" fill="#EDEFFF"/>
<path fill-rule="evenodd" clip-rule="evenodd" d="M37.4533 301.432L53.2594 312.226C53.3145 312.263 53.3598 312.305 53.3955 312.35C53.4311 312.396 53.4566 312.445 53.4719 312.497C53.4872 312.549 53.4922 312.604 53.4868 312.661C53.4814 312.719 53.4657 312.778 53.4397 312.84L45.9782 330.465C45.9656 330.495 45.9507 330.525 45.9334 330.555C45.9161 330.586 45.8966 330.616 45.8747 330.647C45.8528 330.678 45.8286 330.708 45.8022 330.739C45.7759 330.771 45.7474 330.802 45.7167 330.833C45.686 330.864 45.6532 330.895 45.6184 330.926C45.5835 330.957 45.5468 330.987 45.508 331.018C45.4693 331.049 45.4287 331.079 45.3862 331.109C45.3438 331.14 45.2997 331.169 45.2538 331.199C45.2079 331.228 45.1605 331.257 45.1115 331.286C45.0625 331.315 45.0121 331.343 44.9602 331.37C44.9083 331.398 44.8552 331.425 44.8008 331.451C44.7465 331.478 44.691 331.503 44.6344 331.528C44.5778 331.553 44.5202 331.578 44.4618 331.601C44.4033 331.625 44.3441 331.647 44.2842 331.669C44.2242 331.691 44.1637 331.712 44.1026 331.732C44.0415 331.752 43.9801 331.771 43.9182 331.79L30.3816 335.764C30.3347 335.778 30.2876 335.791 30.2404 335.804C30.1933 335.816 30.1462 335.828 30.0989 335.84C30.0517 335.851 30.0045 335.862 29.9574 335.872C29.9103 335.882 29.8633 335.892 29.8164 335.901C29.7694 335.91 29.7227 335.918 29.6763 335.926C29.6298 335.933 29.5836 335.94 29.5376 335.946C29.4918 335.953 29.4463 335.958 29.4012 335.963C29.356 335.968 29.3112 335.972 29.2669 335.976C29.2226 335.979 29.1788 335.982 29.1356 335.984C29.0924 335.987 29.0497 335.988 29.0075 335.989C28.9655 335.99 28.9241 335.99 28.8834 335.989C28.8427 335.988 28.8028 335.987 28.7636 335.985C28.7244 335.983 28.686 335.98 28.6485 335.977C28.6108 335.973 28.5741 335.969 28.5382 335.965C28.5024 335.96 28.4675 335.954 28.4335 335.948C28.3996 335.942 28.3666 335.935 28.3347 335.928C28.3028 335.92 28.2719 335.912 28.242 335.903C28.2121 335.895 28.1833 335.885 28.1557 335.875C28.1281 335.865 28.1016 335.854 28.0764 335.843C28.051 335.832 28.0268 335.82 28.0039 335.808C27.9811 335.795 27.9594 335.782 27.9389 335.768C27.9185 335.755 27.8994 335.74 27.8815 335.726C27.8636 335.711 27.847 335.696 27.8317 335.68C27.8165 335.664 27.8026 335.648 27.79 335.631C27.7774 335.614 27.7661 335.597 27.7562 335.579C27.7463 335.561 27.7377 335.543 27.7305 335.524C27.7235 335.506 27.7178 335.486 27.7134 335.467C27.7089 335.447 27.7059 335.428 27.7043 335.407C27.7027 335.387 27.7026 335.367 27.7039 335.346C27.7051 335.325 27.7076 335.304 27.7116 335.282C27.7157 335.26 27.7211 335.239 27.7279 335.217C27.7346 335.195 27.7428 335.172 27.7523 335.15L34.8913 318.286C34.9173 318.225 34.933 318.165 34.9384 318.108C34.9438 318.05 34.9389 317.995 34.9235 317.943C34.9082 317.891 34.8827 317.842 34.8471 317.797C34.8114 317.751 34.7661 317.71 34.711 317.672L19.588 307.345C19.5678 307.331 19.5489 307.317 19.5313 307.302C19.5137 307.287 19.4974 307.271 19.4823 307.256C19.4673 307.24 19.4537 307.223 19.4414 307.206C19.429 307.189 19.418 307.172 19.4084 307.154C19.3988 307.136 19.3906 307.118 19.3839 307.099C19.377 307.08 19.3715 307.061 19.3673 307.042C19.3633 307.022 19.3606 307.002 19.3594 306.982C19.3581 306.962 19.3582 306.941 19.3597 306.92C19.3612 306.899 19.3641 306.878 19.3684 306.856C19.3726 306.835 19.3783 306.813 19.3854 306.791C19.3925 306.769 19.4009 306.746 19.4106 306.724C19.4205 306.701 19.4317 306.678 19.4443 306.655C19.4567 306.633 19.4705 306.61 19.4858 306.586C19.5009 306.563 19.5174 306.54 19.5352 306.517C19.553 306.493 19.5721 306.47 19.5925 306.446C19.6129 306.423 19.6345 306.399 19.6573 306.376C19.6802 306.352 19.7042 306.328 19.7295 306.305C19.7547 306.281 19.7811 306.258 19.8087 306.235C19.8362 306.211 19.865 306.188 19.8948 306.165C19.9245 306.141 19.9553 306.118 19.9872 306.096C20.0191 306.073 20.052 306.05 20.0859 306.027C20.1198 306.005 20.1546 305.983 20.1904 305.96C20.2263 305.938 20.263 305.916 20.3005 305.895C20.338 305.873 20.3764 305.852 20.4156 305.831C20.4548 305.81 20.4947 305.789 20.5354 305.769C20.576 305.749 20.6173 305.729 20.6592 305.709C20.7013 305.69 20.7439 305.671 20.7871 305.652C20.8303 305.633 20.874 305.615 20.9183 305.597C20.9626 305.579 21.0074 305.562 21.0525 305.545C21.0976 305.528 21.1431 305.512 21.189 305.496C21.2349 305.48 21.2811 305.464 21.3275 305.449C21.3741 305.435 21.4208 305.42 21.4677 305.406L35.0043 301.432C35.0662 301.414 35.1282 301.396 35.1905 301.38C35.2527 301.364 35.315 301.349 35.3772 301.335C35.4395 301.321 35.5016 301.308 35.5634 301.296C35.6253 301.284 35.6869 301.274 35.748 301.264C35.8091 301.255 35.8697 301.246 35.9297 301.239C35.9898 301.232 36.049 301.226 36.1076 301.221C36.1661 301.216 36.2238 301.213 36.2805 301.21C36.3372 301.208 36.3928 301.207 36.4473 301.207C36.5018 301.207 36.5551 301.208 36.6071 301.21C36.6591 301.213 36.7097 301.216 36.7588 301.221C36.808 301.226 36.8556 301.232 36.9016 301.239C36.9477 301.247 36.992 301.255 37.0346 301.264C37.0773 301.274 37.1181 301.285 37.157 301.297C37.196 301.308 37.233 301.321 37.268 301.335C37.3031 301.349 37.336 301.364 37.367 301.381C37.3979 301.397 37.4267 301.414 37.4533 301.432Z" fill="#EDEFFF"/>
</g>
<defs>
<clipPath id="clip0_490_2852">
<rect width="185" height="370" fill="white"/>
</clipPath>
</defs>
</svg>
