<svg width="300" height="60" viewBox="0 0 300 60" fill="none" xmlns="http://www.w3.org/2000/svg">
<rect width="300" height="60" rx="5" fill="white" fill-opacity="0.1"/>
<path d="M10.8295 9.45455C10.7784 9.02273 10.571 8.6875 10.2074 8.44886C9.84375 8.21023 9.39773 8.09091 8.86932 8.09091C8.48295 8.09091 8.14489 8.15341 7.85511 8.27841C7.56818 8.40341 7.34375 8.57528 7.18182 8.79403C7.02273 9.01278 6.94318 9.26136 6.94318 9.53977C6.94318 9.77273 6.99858 9.97301 7.10938 10.1406C7.22301 10.3054 7.3679 10.4432 7.54403 10.554C7.72017 10.6619 7.90483 10.7514 8.09801 10.8224C8.29119 10.8906 8.46875 10.946 8.63068 10.9886L9.51705 11.2273C9.74432 11.2869 9.99716 11.3693 10.2756 11.4744C10.5568 11.5795 10.8253 11.723 11.081 11.9048C11.3395 12.0838 11.5526 12.3139 11.7202 12.5952C11.8878 12.8764 11.9716 13.2216 11.9716 13.6307C11.9716 14.1023 11.848 14.5284 11.6009 14.9091C11.3565 15.2898 10.9986 15.5923 10.527 15.8168C10.0582 16.0412 9.48864 16.1534 8.81818 16.1534C8.19318 16.1534 7.65199 16.0526 7.1946 15.8509C6.74006 15.6491 6.3821 15.3679 6.12074 15.0071C5.86222 14.6463 5.71591 14.2273 5.68182 13.75H6.77273C6.80114 14.0795 6.91193 14.3523 7.10511 14.5682C7.30114 14.7812 7.5483 14.9403 7.84659 15.0455C8.14773 15.1477 8.47159 15.1989 8.81818 15.1989C9.22159 15.1989 9.58381 15.1335 9.90483 15.0028C10.2259 14.8693 10.4801 14.6847 10.6676 14.4489C10.8551 14.2102 10.9489 13.9318 10.9489 13.6136C10.9489 13.3239 10.8679 13.0881 10.706 12.9062C10.544 12.7244 10.331 12.5767 10.0668 12.4631C9.80256 12.3494 9.51705 12.25 9.21023 12.1648L8.13636 11.858C7.45455 11.6619 6.91477 11.3821 6.51705 11.0185C6.11932 10.6548 5.92045 10.179 5.92045 9.59091C5.92045 9.10227 6.05256 8.67614 6.31676 8.3125C6.58381 7.94602 6.94176 7.66193 7.39062 7.46023C7.84233 7.25568 8.34659 7.15341 8.90341 7.15341C9.46591 7.15341 9.96591 7.25426 10.4034 7.45597C10.8409 7.65483 11.1875 7.92756 11.4432 8.27415C11.7017 8.62074 11.8381 9.0142 11.8523 9.45455H10.8295ZM20.7319 10H19.6751C19.6126 9.69602 19.5032 9.42898 19.3469 9.19886C19.1935 8.96875 19.006 8.77557 18.7844 8.61932C18.5657 8.46023 18.3228 8.34091 18.0558 8.26136C17.7887 8.18182 17.5103 8.14205 17.2205 8.14205C16.6921 8.14205 16.2134 8.27557 15.7844 8.54261C15.3583 8.80966 15.0188 9.20312 14.766 9.72301C14.516 10.2429 14.391 10.8807 14.391 11.6364C14.391 12.392 14.516 13.0298 14.766 13.5497C15.0188 14.0696 15.3583 14.4631 15.7844 14.7301C16.2134 14.9972 16.6921 15.1307 17.2205 15.1307C17.5103 15.1307 17.7887 15.0909 18.0558 15.0114C18.3228 14.9318 18.5657 14.8139 18.7844 14.6577C19.006 14.4986 19.1935 14.304 19.3469 14.0739C19.5032 13.8409 19.6126 13.5739 19.6751 13.2727H20.7319C20.6523 13.7187 20.5075 14.1179 20.2972 14.4702C20.087 14.8224 19.8256 15.1222 19.5131 15.3693C19.2006 15.6136 18.8498 15.7997 18.4606 15.9276C18.0742 16.0554 17.6609 16.1193 17.2205 16.1193C16.4762 16.1193 15.8143 15.9375 15.2347 15.5739C14.6552 15.2102 14.1992 14.6932 13.8668 14.0227C13.5344 13.3523 13.3683 12.5568 13.3683 11.6364C13.3683 10.7159 13.5344 9.92045 13.8668 9.25C14.1992 8.57955 14.6552 8.0625 15.2347 7.69886C15.8143 7.33523 16.4762 7.15341 17.2205 7.15341C17.6609 7.15341 18.0742 7.21733 18.4606 7.34517C18.8498 7.47301 19.2006 7.66051 19.5131 7.90767C19.8256 8.15199 20.087 8.45028 20.2972 8.80256C20.5075 9.15199 20.6523 9.55114 20.7319 10ZM29.8033 11.6364C29.8033 12.5568 29.6371 13.3523 29.3047 14.0227C28.9723 14.6932 28.5163 15.2102 27.9368 15.5739C27.3572 15.9375 26.6953 16.1193 25.951 16.1193C25.2067 16.1193 24.5447 15.9375 23.9652 15.5739C23.3857 15.2102 22.9297 14.6932 22.5973 14.0227C22.2649 13.3523 22.0987 12.5568 22.0987 11.6364C22.0987 10.7159 22.2649 9.92045 22.5973 9.25C22.9297 8.57955 23.3857 8.0625 23.9652 7.69886C24.5447 7.33523 25.2067 7.15341 25.951 7.15341C26.6953 7.15341 27.3572 7.33523 27.9368 7.69886C28.5163 8.0625 28.9723 8.57955 29.3047 9.25C29.6371 9.92045 29.8033 10.7159 29.8033 11.6364ZM28.7805 11.6364C28.7805 10.8807 28.6541 10.2429 28.4013 9.72301C28.1513 9.20312 27.8118 8.80966 27.3828 8.54261C26.9567 8.27557 26.4794 8.14205 25.951 8.14205C25.4226 8.14205 24.9439 8.27557 24.5149 8.54261C24.0888 8.80966 23.7493 9.20312 23.4964 9.72301C23.2464 10.2429 23.1214 10.8807 23.1214 11.6364C23.1214 12.392 23.2464 13.0298 23.4964 13.5497C23.7493 14.0696 24.0888 14.4631 24.5149 14.7301C24.9439 14.9972 25.4226 15.1307 25.951 15.1307C26.4794 15.1307 26.9567 14.9972 27.3828 14.7301C27.8118 14.4631 28.1513 14.0696 28.4013 13.5497C28.6541 13.0298 28.7805 12.392 28.7805 11.6364ZM31.5803 16V7.27273H34.5291C35.2109 7.27273 35.7706 7.3892 36.2081 7.62216C36.6456 7.85227 36.9695 8.16903 37.1797 8.57244C37.3899 8.97585 37.495 9.43466 37.495 9.94886C37.495 10.4631 37.3899 10.919 37.1797 11.3168C36.9695 11.7145 36.647 12.027 36.2124 12.2543C35.7777 12.4787 35.2223 12.5909 34.5462 12.5909H32.1598V11.6364H34.5121C34.978 11.6364 35.353 11.5682 35.6371 11.4318C35.924 11.2955 36.1314 11.1023 36.2592 10.8523C36.3899 10.5994 36.4553 10.2983 36.4553 9.94886C36.4553 9.59943 36.3899 9.29403 36.2592 9.03267C36.1286 8.77131 35.9197 8.5696 35.6328 8.42756C35.3459 8.28267 34.9666 8.21023 34.495 8.21023H32.6371V16H31.5803ZM35.6882 12.0795L37.8359 16H36.6087L34.495 12.0795H35.6882ZM39.256 16V7.27273H44.5231V8.21023H40.3129V11.1591H44.2504V12.0966H40.3129V15.0625H44.5913V16H39.256Z" fill="white"/>
</svg>
