<svg width="400" height="400" viewBox="0 0 400 400" fill="none" xmlns="http://www.w3.org/2000/svg">
<g filter="url(#filter0_d_424_22)">
<rect x="129" y="186" width="40" height="27" rx="13.5" fill="#9FFFAA"/>
</g>
<g filter="url(#filter1_d_424_22)">
<rect x="180" y="187" width="40" height="27" rx="13.5" fill="#9FFFAA"/>
</g>
<g filter="url(#filter2_d_424_22)">
<rect x="231" y="187" width="40" height="27" rx="13.5" fill="#9FFFAA"/>
</g>
<g filter="url(#filter3_d_424_22)">
<path d="M60.0564 229C72.0151 229 82.1547 237.328 86.857 248.324C99.2905 277.398 122.603 300.709 151.676 313.143C162.672 317.845 171 327.985 171 339.944C171 355.968 156.478 368.248 141.401 362.821C92.9966 345.397 54.6026 307.004 37.1794 258.599C31.7524 243.522 44.0324 229 60.0564 229ZM339.944 229C355.968 229 368.248 243.522 362.821 258.599C345.397 307.004 307.003 345.397 258.599 362.821C243.522 368.248 229 355.968 229 339.944C229 327.985 237.328 317.845 248.324 313.143C277.397 300.709 300.709 277.398 313.143 248.324C317.845 237.328 327.985 229 339.944 229ZM171 60.0554C171 72.0141 162.672 82.1538 151.676 86.8561C122.603 99.2897 99.2905 122.602 86.857 151.676C82.1548 162.672 72.0151 171 60.0564 171C44.0324 171 31.7524 156.478 37.1794 141.401C54.6025 92.9962 92.9966 54.6018 141.401 37.1785C156.478 31.7515 171 44.0314 171 60.0554ZM229 60.0554C229 44.0314 243.522 31.7515 258.599 37.1785C307.003 54.6018 345.397 92.9962 362.821 141.401C368.248 156.478 355.968 171 339.944 171C327.985 171 317.845 162.672 313.143 151.676C300.71 122.602 277.397 99.2897 248.324 86.8561C237.328 82.1538 229 72.0141 229 60.0554Z" fill="url(#paint0_linear_424_22)"/>
</g>
<defs>
<filter id="filter0_d_424_22" x="102.5" y="159.5" width="93" height="80" filterUnits="userSpaceOnUse" color-interpolation-filters="sRGB">
<feFlood flood-opacity="0" result="BackgroundImageFix"/>
<feColorMatrix in="SourceAlpha" type="matrix" values="0 0 0 0 0 0 0 0 0 0 0 0 0 0 0 0 0 0 127 0" result="hardAlpha"/>
<feOffset/>
<feGaussianBlur stdDeviation="13.25"/>
<feComposite in2="hardAlpha" operator="out"/>
<feColorMatrix type="matrix" values="0 0 0 0 0.631373 0 0 0 0 1 0 0 0 0 0.662745 0 0 0 1 0"/>
<feBlend mode="normal" in2="BackgroundImageFix" result="effect1_dropShadow_424_22"/>
<feBlend mode="normal" in="SourceGraphic" in2="effect1_dropShadow_424_22" result="shape"/>
</filter>
<filter id="filter1_d_424_22" x="153.5" y="160.5" width="93" height="80" filterUnits="userSpaceOnUse" color-interpolation-filters="sRGB">
<feFlood flood-opacity="0" result="BackgroundImageFix"/>
<feColorMatrix in="SourceAlpha" type="matrix" values="0 0 0 0 0 0 0 0 0 0 0 0 0 0 0 0 0 0 127 0" result="hardAlpha"/>
<feOffset/>
<feGaussianBlur stdDeviation="13.25"/>
<feComposite in2="hardAlpha" operator="out"/>
<feColorMatrix type="matrix" values="0 0 0 0 0.631373 0 0 0 0 1 0 0 0 0 0.662745 0 0 0 1 0"/>
<feBlend mode="normal" in2="BackgroundImageFix" result="effect1_dropShadow_424_22"/>
<feBlend mode="normal" in="SourceGraphic" in2="effect1_dropShadow_424_22" result="shape"/>
</filter>
<filter id="filter2_d_424_22" x="204.5" y="160.5" width="93" height="80" filterUnits="userSpaceOnUse" color-interpolation-filters="sRGB">
<feFlood flood-opacity="0" result="BackgroundImageFix"/>
<feColorMatrix in="SourceAlpha" type="matrix" values="0 0 0 0 0 0 0 0 0 0 0 0 0 0 0 0 0 0 127 0" result="hardAlpha"/>
<feOffset/>
<feGaussianBlur stdDeviation="13.25"/>
<feComposite in2="hardAlpha" operator="out"/>
<feColorMatrix type="matrix" values="0 0 0 0 0.631373 0 0 0 0 1 0 0 0 0 0.662745 0 0 0 1 0"/>
<feBlend mode="normal" in2="BackgroundImageFix" result="effect1_dropShadow_424_22"/>
<feBlend mode="normal" in="SourceGraphic" in2="effect1_dropShadow_424_22" result="shape"/>
</filter>
<filter id="filter3_d_424_22" x="10.1765" y="10.1756" width="379.647" height="379.648" filterUnits="userSpaceOnUse" color-interpolation-filters="sRGB">
<feFlood flood-opacity="0" result="BackgroundImageFix"/>
<feColorMatrix in="SourceAlpha" type="matrix" values="0 0 0 0 0 0 0 0 0 0 0 0 0 0 0 0 0 0 127 0" result="hardAlpha"/>
<feOffset/>
<feGaussianBlur stdDeviation="12.85"/>
<feComposite in2="hardAlpha" operator="out"/>
<feColorMatrix type="matrix" values="0 0 0 0 0.623529 0 0 0 0 1 0 0 0 0 0.666667 0 0 0 1 0"/>
<feBlend mode="normal" in2="BackgroundImageFix" result="effect1_dropShadow_424_22"/>
<feBlend mode="normal" in="SourceGraphic" in2="effect1_dropShadow_424_22" result="shape"/>
</filter>
<linearGradient id="paint0_linear_424_22" x1="200" y1="27" x2="200" y2="373" gradientUnits="userSpaceOnUse">
<stop stop-color="#B4FFA6"/>
<stop offset="1" stop-color="#8CFFAE"/>
</linearGradient>
</defs>
</svg>
