<?xml version="1.0" encoding="utf-8"?>
<svg width="400" height="400" viewBox="0 0 400 400" fill="none" xmlns="http://www.w3.org/2000/svg">
  <defs>
    <clipPath id="clip_path_1">
      <rect width="400" height="400" />
    </clipPath>
  </defs>
  <g clip-path="url(#clip_path_1)">
    <path d="M79.0001 0C106.066 0 128 21.9344 128 49.0001L128 351.001C128 378.066 106.066 400.001 79.0001 400.001L49.0001 400.001C21.9344 400.001 -3.05176e-05 378.066 -1.52588e-05 351.001L0 49.0001C0 21.9344 21.9344 0 49.0001 0L79.0001 0Z" fill="#FFFFFF" transform="matrix(-0 1 -1 -0 400 136)" />
    <path d="M79 0C106.066 0 128 21.9344 128 49L128 351C128 378.066 106.066 400 79 400L49 400C21.9344 400 0 378.066 0 351L0 49C0 21.9344 21.9344 0 49 0L79 0Z" fill="#FFFFFF" transform="matrix(1 0 0 1 136 0)" />
  </g>
</svg>