<?xml version="1.0" encoding="utf-8"?>
<svg width="400" height="400" viewBox="0 0 400 400" fill="none" xmlns="http://www.w3.org/2000/svg">
  <defs>
    <clipPath id="clip_path_1">
      <rect width="400" height="400" />
    </clipPath>
  </defs>
  <g clip-path="url(#clip_path_1)" transform="matrix(-1 0 0 1 400 0)">
    <path d="M27.5 6.10352e-05C42.6899 3.05176e-05 55 12.3101 55 27.5001L55 119.028C55 134.218 42.6899 146.528 27.5 146.528L27.5 146.528C12.3101 146.528 0 134.218 0 119.028L-3.05176e-05 27.5C0 12.3101 12.3101 3.05176e-05 27.5 6.10352e-05Z" fill="#FFFFFF" transform="matrix(-0.707 0.707 -0.707 -0.707 400.236 201)" />
    <path d="M27.4999 1.52588e-05C42.6899 0 55 12.3101 55 27.5L55 119.028C55 134.218 42.6899 146.528 27.5 146.528L27.5 146.528C12.3101 146.528 0 134.218 0 119.028L-6.10352e-05 27.5C-6.10352e-05 12.3101 12.3101 1.52588e-05 27.4999 1.52588e-05Z" fill="#FFFFFF" transform="matrix(0.707 0.707 -0.707 0.707 361.238 162)" />
    <path d="M27.5 0C42.6899 0 55.0001 12.3101 55.0001 27.5L55.0001 357.5C55.0001 372.69 42.6899 385 27.5 385L27.5 385C12.3101 385 0 372.69 0 357.5L0 27.5C0 12.3101 12.3101 0 27.5 0Z" fill="#FFFFFF" fill-opacity="0.91" transform="matrix(-0 1 -1 -0 385 173)" />
  </g>
</svg>