<svg width="100" height="100" viewBox="0 0 100 100" fill="none" xmlns="http://www.w3.org/2000/svg">
<g clip-path="url(#clip0_271_29)">
<g filter="url(#filter0_d_271_29)">
<path d="M39.2124 61.688V54.776C39.2124 52.344 39.4364 50.424 39.8844 49.016C40.3964 47.608 41.1324 46.52 42.0924 45.752C43.0524 44.984 44.2364 44.376 45.6444 43.928L49.3884 42.68C51.0524 42.04 52.2684 41.496 53.0364 41.048C53.8684 40.536 54.4124 39.768 54.6684 38.744C54.9884 37.72 55.1484 36.216 55.1484 34.232C55.1484 31.992 54.7964 30.392 54.0924 29.432C53.3884 28.408 52.2364 27.8 50.6364 27.608C49.0364 27.416 46.8284 27.32 44.0124 27.32C43.0524 27.32 41.9324 27.352 40.6524 27.416C39.3724 27.48 38.0284 27.576 36.6204 27.704C35.2764 27.768 33.9324 27.864 32.5884 27.992C31.3084 28.12 30.1244 28.248 29.0364 28.376V17.816C30.8924 17.496 32.9724 17.208 35.2764 16.952C37.5804 16.696 39.8844 16.504 42.1884 16.376C44.5564 16.248 46.7324 16.184 48.7164 16.184C52.2364 16.184 55.2444 16.504 57.7404 17.144C60.3004 17.784 62.3804 18.84 63.9804 20.312C65.5804 21.72 66.7644 23.576 67.5324 25.88C68.3004 28.12 68.6844 30.904 68.6844 34.232C68.6844 36.472 68.4924 38.424 68.1084 40.088C67.7884 41.752 67.2764 43.192 66.5724 44.408C65.9324 45.56 65.1004 46.52 64.0764 47.288C63.1164 48.056 61.9964 48.664 60.7164 49.112L56.4924 50.456C55.2124 50.904 54.1564 51.288 53.3244 51.608C52.5564 51.928 51.9804 52.312 51.5964 52.76C51.2764 53.208 51.0524 53.848 50.9244 54.68C50.7964 55.448 50.7324 56.504 50.7324 57.848V61.688H39.2124ZM38.0604 83V70.424H51.9804V83H38.0604Z" fill="white"/>
</g>
</g>
<defs>
<filter id="filter0_d_271_29" x="23.3364" y="10.4841" width="51.0479" height="78.2159" filterUnits="userSpaceOnUse" color-interpolation-filters="sRGB">
<feFlood flood-opacity="0" result="BackgroundImageFix"/>
<feColorMatrix in="SourceAlpha" type="matrix" values="0 0 0 0 0 0 0 0 0 0 0 0 0 0 0 0 0 0 127 0" result="hardAlpha"/>
<feOffset/>
<feGaussianBlur stdDeviation="2.85"/>
<feComposite in2="hardAlpha" operator="out"/>
<feColorMatrix type="matrix" values="0 0 0 0 1 0 0 0 0 1 0 0 0 0 1 0 0 0 0.43 0"/>
<feBlend mode="normal" in2="BackgroundImageFix" result="effect1_dropShadow_271_29"/>
<feBlend mode="normal" in="SourceGraphic" in2="effect1_dropShadow_271_29" result="shape"/>
</filter>
<clipPath id="clip0_271_29">
<rect width="100" height="100" fill="white"/>
</clipPath>
</defs>
</svg>
