<svg width="200" height="50" viewBox="0 0 200 50" fill="none" xmlns="http://www.w3.org/2000/svg">
<mask id="path-1-outside-1_544_60" maskUnits="userSpaceOnUse" x="34" y="10" width="46" height="31" fill="black">
<rect fill="white" x="34" y="10" width="46" height="31"/>
<path d="M37.1101 38V13.232H44.5261V32.276H53.4181V38H37.1101ZM56.3757 38V13.232H69.2637C70.7997 13.232 72.0957 13.46 73.1517 13.916C74.2317 14.348 75.0477 15.02 75.5997 15.932C76.1517 16.844 76.4277 18.02 76.4277 19.46C76.4277 20.636 76.2597 21.62 75.9237 22.412C75.6117 23.18 75.1317 23.792 74.4837 24.248C73.8357 24.704 73.0197 25.052 72.0357 25.292V25.436C73.0197 25.652 73.8477 25.976 74.5197 26.408C75.1917 26.816 75.6957 27.416 76.0317 28.208C76.3677 29 76.5357 30.068 76.5357 31.412C76.5357 32.468 76.3917 33.404 76.1037 34.22C75.8397 35.036 75.4197 35.732 74.8437 36.308C74.2677 36.86 73.5117 37.28 72.5757 37.568C71.6637 37.856 70.5477 38 69.2277 38H56.3757ZM63.6837 32.708H66.4917C67.2357 32.708 67.7997 32.66 68.1837 32.564C68.5677 32.444 68.8197 32.216 68.9397 31.88C69.0597 31.52 69.1197 30.992 69.1197 30.296C69.1197 29.6 69.0597 29.072 68.9397 28.712C68.8197 28.352 68.5677 28.112 68.1837 27.992C67.7997 27.872 67.2357 27.812 66.4917 27.812H63.6837V32.708ZM63.6837 23.168H66.4557C67.1757 23.168 67.7277 23.108 68.1117 22.988C68.4957 22.868 68.7477 22.64 68.8677 22.304C68.9877 21.968 69.0477 21.488 69.0477 20.864C69.0477 20.168 68.9877 19.664 68.8677 19.352C68.7477 19.016 68.4957 18.8 68.1117 18.704C67.7517 18.584 67.1997 18.524 66.4557 18.524H63.6837V23.168Z"/>
</mask>
<path d="M37.1101 38V13.232H44.5261V32.276H53.4181V38H37.1101ZM56.3757 38V13.232H69.2637C70.7997 13.232 72.0957 13.46 73.1517 13.916C74.2317 14.348 75.0477 15.02 75.5997 15.932C76.1517 16.844 76.4277 18.02 76.4277 19.46C76.4277 20.636 76.2597 21.62 75.9237 22.412C75.6117 23.18 75.1317 23.792 74.4837 24.248C73.8357 24.704 73.0197 25.052 72.0357 25.292V25.436C73.0197 25.652 73.8477 25.976 74.5197 26.408C75.1917 26.816 75.6957 27.416 76.0317 28.208C76.3677 29 76.5357 30.068 76.5357 31.412C76.5357 32.468 76.3917 33.404 76.1037 34.22C75.8397 35.036 75.4197 35.732 74.8437 36.308C74.2677 36.86 73.5117 37.28 72.5757 37.568C71.6637 37.856 70.5477 38 69.2277 38H56.3757ZM63.6837 32.708H66.4917C67.2357 32.708 67.7997 32.66 68.1837 32.564C68.5677 32.444 68.8197 32.216 68.9397 31.88C69.0597 31.52 69.1197 30.992 69.1197 30.296C69.1197 29.6 69.0597 29.072 68.9397 28.712C68.8197 28.352 68.5677 28.112 68.1837 27.992C67.7997 27.872 67.2357 27.812 66.4917 27.812H63.6837V32.708ZM63.6837 23.168H66.4557C67.1757 23.168 67.7277 23.108 68.1117 22.988C68.4957 22.868 68.7477 22.64 68.8677 22.304C68.9877 21.968 69.0477 21.488 69.0477 20.864C69.0477 20.168 68.9877 19.664 68.8677 19.352C68.7477 19.016 68.4957 18.8 68.1117 18.704C67.7517 18.584 67.1997 18.524 66.4557 18.524H63.6837V23.168Z" fill="white"/>
<path d="M37.1101 38H34.1101V41H37.1101V38ZM37.1101 13.232V10.232H34.1101V13.232H37.1101ZM44.5261 13.232H47.5261V10.232H44.5261V13.232ZM44.5261 32.276H41.5261V35.276H44.5261V32.276ZM53.4181 32.276H56.4181V29.276H53.4181V32.276ZM53.4181 38V41H56.4181V38H53.4181ZM37.1101 38H40.1101V13.232H37.1101H34.1101V38H37.1101ZM37.1101 13.232V16.232H44.5261V13.232V10.232H37.1101V13.232ZM44.5261 13.232H41.5261V32.276H44.5261H47.5261V13.232H44.5261ZM44.5261 32.276V35.276H53.4181V32.276V29.276H44.5261V32.276ZM53.4181 32.276H50.4181V38H53.4181H56.4181V32.276H53.4181ZM53.4181 38V35H37.1101V38V41H53.4181V38ZM56.3757 38H53.3757V41H56.3757V38ZM56.3757 13.232V10.232H53.3757V13.232H56.3757ZM73.1517 13.916L71.9624 16.6702L71.9997 16.6863L72.0375 16.7014L73.1517 13.916ZM75.9237 22.412L73.1619 21.2403L73.153 21.2615L73.1443 21.2829L75.9237 22.412ZM74.4837 24.248L72.7572 21.7946L72.7572 21.7946L74.4837 24.248ZM72.0357 25.292L71.3248 22.3774L69.0357 22.9358V25.292H72.0357ZM72.0357 25.436H69.0357V27.8489L71.3925 28.3662L72.0357 25.436ZM74.5197 26.408L72.8974 28.9315L72.9298 28.9524L72.9628 28.9724L74.5197 26.408ZM76.0317 28.208L78.7934 27.0364L78.7934 27.0363L76.0317 28.208ZM76.1037 34.22L73.2747 33.2215L73.2615 33.2589L73.2494 33.2965L76.1037 34.22ZM74.8437 36.308L76.9194 38.474L76.9424 38.4519L76.965 38.4293L74.8437 36.308ZM72.5757 37.568L71.6934 34.7007L71.6829 34.7039L71.6723 34.7073L72.5757 37.568ZM63.6837 32.708H60.6837V35.708H63.6837V32.708ZM68.1837 32.564L68.9113 35.4744L68.9956 35.4534L69.0785 35.4274L68.1837 32.564ZM68.9397 31.88L71.7649 32.889L71.7756 32.859L71.7857 32.8287L68.9397 31.88ZM68.9397 28.712L71.7857 27.7633L71.7857 27.7633L68.9397 28.712ZM68.1837 27.992L69.0785 25.1286L69.0785 25.1286L68.1837 27.992ZM63.6837 27.812V24.812H60.6837V27.812H63.6837ZM63.6837 23.168H60.6837V26.168H63.6837V23.168ZM68.8677 19.352L66.0425 20.361L66.0546 20.3951L66.0677 20.4289L68.8677 19.352ZM68.1117 18.704L67.163 21.55L67.2723 21.5865L67.3841 21.6144L68.1117 18.704ZM63.6837 18.524V15.524H60.6837V18.524H63.6837ZM56.3757 38H59.3757V13.232H56.3757H53.3757V38H56.3757ZM56.3757 13.232V16.232H69.2637V13.232V10.232H56.3757V13.232ZM69.2637 13.232V16.232C70.5205 16.232 71.3852 16.4209 71.9624 16.6702L73.1517 13.916L74.341 11.1618C72.8062 10.4991 71.0789 10.232 69.2637 10.232V13.232ZM73.1517 13.916L72.0375 16.7014C72.5708 16.9147 72.8498 17.1824 73.0332 17.4854L75.5997 15.932L78.1662 14.3786C77.2456 12.8576 75.8926 11.7813 74.2659 11.1306L73.1517 13.916ZM75.5997 15.932L73.0332 17.4854C73.2188 17.7921 73.4277 18.382 73.4277 19.46H76.4277H79.4277C79.4277 17.658 79.0846 15.8959 78.1662 14.3786L75.5997 15.932ZM76.4277 19.46H73.4277C73.4277 20.372 73.2944 20.9282 73.1619 21.2403L75.9237 22.412L78.6854 23.5836C79.225 22.3118 79.4277 20.9 79.4277 19.46H76.4277ZM75.9237 22.412L73.1443 21.2829C73.0384 21.5435 72.9121 21.6856 72.7572 21.7946L74.4837 24.248L76.2102 26.7014C77.3513 25.8984 78.185 24.8165 78.7031 23.5411L75.9237 22.412ZM74.4837 24.248L72.7572 21.7946C72.4882 21.9839 72.0414 22.2027 71.3248 22.3774L72.0357 25.292L72.7466 28.2066C73.998 27.9013 75.1832 27.4241 76.2102 26.7014L74.4837 24.248ZM72.0357 25.292H69.0357V25.436H72.0357H75.0357V25.292H72.0357ZM72.0357 25.436L71.3925 28.3662C72.1156 28.525 72.5918 28.7351 72.8974 28.9315L74.5197 26.408L76.142 23.8845C75.1036 23.2169 73.9238 22.779 72.6789 22.5058L72.0357 25.436ZM74.5197 26.408L72.9628 28.9724C73.0461 29.0229 73.1552 29.1093 73.2699 29.3796L76.0317 28.208L78.7934 27.0363C78.2361 25.7227 77.3373 24.6091 76.0766 23.8436L74.5197 26.408ZM76.0317 28.208L73.2699 29.3796C73.3854 29.6519 73.5357 30.2687 73.5357 31.412H76.5357H79.5357C79.5357 29.8673 79.3499 28.3481 78.7934 27.0364L76.0317 28.208ZM76.5357 31.412H73.5357C73.5357 32.2003 73.4277 32.7881 73.2747 33.2215L76.1037 34.22L78.9327 35.2185C79.3557 34.0199 79.5357 32.7357 79.5357 31.412H76.5357ZM76.1037 34.22L73.2494 33.2965C73.1235 33.6855 72.9449 33.9641 72.7224 34.1867L74.8437 36.308L76.965 38.4293C77.8945 37.4999 78.5558 36.3865 78.958 35.1435L76.1037 34.22ZM74.8437 36.308L72.768 34.142C72.5979 34.3051 72.2824 34.5195 71.6934 34.7007L72.5757 37.568L73.4579 40.4353C74.741 40.0405 75.9375 39.4149 76.9194 38.474L74.8437 36.308ZM72.5757 37.568L71.6723 34.7073C71.14 34.8754 70.3488 35 69.2277 35V38V41C70.7466 41 72.1874 40.8366 73.4791 40.4287L72.5757 37.568ZM69.2277 38V35H56.3757V38V41H69.2277V38ZM63.6837 32.708V35.708H66.4917V32.708V29.708H63.6837V32.708ZM66.4917 32.708V35.708C67.3064 35.708 68.1648 35.661 68.9113 35.4744L68.1837 32.564L67.4561 29.6536C67.4698 29.6501 67.4025 29.6671 67.2183 29.6828C67.0424 29.6978 66.8034 29.708 66.4917 29.708V32.708ZM68.1837 32.564L69.0785 35.4274C70.2301 35.0676 71.2846 34.2339 71.7649 32.889L68.9397 31.88L66.1145 30.871C66.2123 30.597 66.3885 30.3131 66.6479 30.0784C66.8978 29.8524 67.1417 29.7465 67.2889 29.7006L68.1837 32.564ZM68.9397 31.88L71.7857 32.8287C72.0598 32.0064 72.1197 31.0927 72.1197 30.296H69.1197H66.1197C66.1197 30.5633 66.1079 30.7519 66.0939 30.8753C66.0789 31.0074 66.0673 31.0104 66.0936 30.9313L68.9397 31.88ZM69.1197 30.296H72.1197C72.1197 29.4993 72.0598 28.5856 71.7857 27.7633L68.9397 28.712L66.0936 29.6607C66.0673 29.5816 66.0789 29.5846 66.0939 29.7167C66.1079 29.8401 66.1197 30.0287 66.1197 30.296H69.1197ZM68.9397 28.712L71.7857 27.7633C71.3399 26.4258 70.3178 25.5158 69.0785 25.1286L68.1837 27.992L67.2889 30.8554C67.1102 30.7996 66.8473 30.6778 66.5917 30.4344C66.3311 30.1862 66.1744 29.903 66.0936 29.6607L68.9397 28.712ZM68.1837 27.992L69.0785 25.1286C68.2555 24.8714 67.3279 24.812 66.4917 24.812V27.812V30.812C66.7883 30.812 67.0053 30.8242 67.1553 30.8402C67.3142 30.8571 67.3439 30.8726 67.2889 30.8554L68.1837 27.992ZM66.4917 27.812V24.812H63.6837V27.812V30.812H66.4917V27.812ZM63.6837 27.812H60.6837V32.708H63.6837H66.6837V27.812H63.6837ZM63.6837 23.168V26.168H66.4557V23.168V20.168H63.6837V23.168ZM66.4557 23.168V26.168C67.2798 26.168 68.1898 26.1067 69.0065 25.8514L68.1117 22.988L67.2169 20.1246C67.2658 20.1093 67.2351 20.1243 67.0855 20.1406C66.9433 20.156 66.7372 20.168 66.4557 20.168V23.168ZM68.1117 22.988L69.0065 25.8514C70.1581 25.4916 71.2126 24.6579 71.6929 23.313L68.8677 22.304L66.0425 21.295C66.1403 21.021 66.3165 20.7371 66.5759 20.5024C66.8258 20.2764 67.0697 20.1705 67.2169 20.1246L68.1117 22.988ZM68.8677 22.304L71.6929 23.313C71.9842 22.4975 72.0477 21.6144 72.0477 20.864H69.0477H66.0477C66.0477 21.0852 66.0368 21.2327 66.0259 21.3199C66.0141 21.4139 66.0081 21.3912 66.0425 21.295L68.8677 22.304ZM69.0477 20.864H72.0477C72.0477 20.1109 71.9982 19.1344 71.6677 18.2751L68.8677 19.352L66.0677 20.4289C66.0324 20.3373 66.0191 20.2783 66.0169 20.2682C66.0142 20.2561 66.018 20.2706 66.0237 20.3186C66.0357 20.4189 66.0477 20.5944 66.0477 20.864H69.0477ZM68.8677 19.352L71.6929 18.343C71.1943 16.9469 70.0711 16.1015 68.8393 15.7936L68.1117 18.704L67.3841 21.6144C67.2105 21.571 66.9258 21.4639 66.6363 21.2158C66.3363 20.9586 66.1445 20.6466 66.0425 20.361L68.8677 19.352ZM68.1117 18.704L69.0604 15.8579C68.2251 15.5795 67.2745 15.524 66.4557 15.524V18.524V21.524C66.7532 21.524 66.9642 21.5363 67.1035 21.5514C67.2552 21.5679 67.2554 21.5808 67.163 21.55L68.1117 18.704ZM66.4557 18.524V15.524H63.6837V18.524V21.524H66.4557V18.524ZM63.6837 18.524H60.6837V23.168H63.6837H66.6837V18.524H63.6837Z" fill="black" mask="url(#path-1-outside-1_544_60)"/>
<path d="M24.75 14.5781V35.4219L6.05273 25L24.75 14.5781Z" fill="white" stroke="black" stroke-width="2"/>
<mask id="path-4-outside-2_544_60" maskUnits="userSpaceOnUse" x="118" y="10" width="51" height="31" fill="black">
<rect fill="white" x="118" y="10" width="51" height="31"/>
<path d="M121.719 38V13.232H134.355C136.011 13.232 137.343 13.412 138.351 13.772C139.359 14.108 140.115 14.624 140.619 15.32C141.147 15.992 141.495 16.844 141.663 17.876C141.855 18.884 141.951 20.048 141.951 21.368C141.951 22.424 141.879 23.42 141.735 24.356C141.615 25.292 141.327 26.132 140.871 26.876C140.439 27.596 139.791 28.172 138.927 28.604L142.455 38H134.823L131.619 28.172L133.455 29.18C133.239 29.324 133.011 29.42 132.771 29.468C132.531 29.492 132.219 29.504 131.835 29.504H129.135V38H121.719ZM129.135 24.356H131.583C132.255 24.356 132.783 24.332 133.167 24.284C133.551 24.212 133.839 24.08 134.031 23.888C134.247 23.696 134.379 23.408 134.427 23.024C134.499 22.64 134.535 22.124 134.535 21.476C134.535 20.852 134.511 20.348 134.463 19.964C134.439 19.58 134.331 19.292 134.139 19.1C133.971 18.908 133.683 18.776 133.275 18.704C132.867 18.608 132.303 18.56 131.583 18.56H129.135V24.356ZM145.766 38V13.232H158.654C160.19 13.232 161.486 13.46 162.542 13.916C163.622 14.348 164.438 15.02 164.99 15.932C165.542 16.844 165.818 18.02 165.818 19.46C165.818 20.636 165.65 21.62 165.314 22.412C165.002 23.18 164.522 23.792 163.874 24.248C163.226 24.704 162.41 25.052 161.426 25.292V25.436C162.41 25.652 163.238 25.976 163.91 26.408C164.582 26.816 165.086 27.416 165.422 28.208C165.758 29 165.926 30.068 165.926 31.412C165.926 32.468 165.782 33.404 165.494 34.22C165.23 35.036 164.81 35.732 164.234 36.308C163.658 36.86 162.902 37.28 161.966 37.568C161.054 37.856 159.938 38 158.618 38H145.766ZM153.074 32.708H155.882C156.626 32.708 157.19 32.66 157.574 32.564C157.958 32.444 158.21 32.216 158.33 31.88C158.45 31.52 158.51 30.992 158.51 30.296C158.51 29.6 158.45 29.072 158.33 28.712C158.21 28.352 157.958 28.112 157.574 27.992C157.19 27.872 156.626 27.812 155.882 27.812H153.074V32.708ZM153.074 23.168H155.846C156.566 23.168 157.118 23.108 157.502 22.988C157.886 22.868 158.138 22.64 158.258 22.304C158.378 21.968 158.438 21.488 158.438 20.864C158.438 20.168 158.378 19.664 158.258 19.352C158.138 19.016 157.886 18.8 157.502 18.704C157.142 18.584 156.59 18.524 155.846 18.524H153.074V23.168Z"/>
</mask>
<path d="M121.719 38V13.232H134.355C136.011 13.232 137.343 13.412 138.351 13.772C139.359 14.108 140.115 14.624 140.619 15.32C141.147 15.992 141.495 16.844 141.663 17.876C141.855 18.884 141.951 20.048 141.951 21.368C141.951 22.424 141.879 23.42 141.735 24.356C141.615 25.292 141.327 26.132 140.871 26.876C140.439 27.596 139.791 28.172 138.927 28.604L142.455 38H134.823L131.619 28.172L133.455 29.18C133.239 29.324 133.011 29.42 132.771 29.468C132.531 29.492 132.219 29.504 131.835 29.504H129.135V38H121.719ZM129.135 24.356H131.583C132.255 24.356 132.783 24.332 133.167 24.284C133.551 24.212 133.839 24.08 134.031 23.888C134.247 23.696 134.379 23.408 134.427 23.024C134.499 22.64 134.535 22.124 134.535 21.476C134.535 20.852 134.511 20.348 134.463 19.964C134.439 19.58 134.331 19.292 134.139 19.1C133.971 18.908 133.683 18.776 133.275 18.704C132.867 18.608 132.303 18.56 131.583 18.56H129.135V24.356ZM145.766 38V13.232H158.654C160.19 13.232 161.486 13.46 162.542 13.916C163.622 14.348 164.438 15.02 164.99 15.932C165.542 16.844 165.818 18.02 165.818 19.46C165.818 20.636 165.65 21.62 165.314 22.412C165.002 23.18 164.522 23.792 163.874 24.248C163.226 24.704 162.41 25.052 161.426 25.292V25.436C162.41 25.652 163.238 25.976 163.91 26.408C164.582 26.816 165.086 27.416 165.422 28.208C165.758 29 165.926 30.068 165.926 31.412C165.926 32.468 165.782 33.404 165.494 34.22C165.23 35.036 164.81 35.732 164.234 36.308C163.658 36.86 162.902 37.28 161.966 37.568C161.054 37.856 159.938 38 158.618 38H145.766ZM153.074 32.708H155.882C156.626 32.708 157.19 32.66 157.574 32.564C157.958 32.444 158.21 32.216 158.33 31.88C158.45 31.52 158.51 30.992 158.51 30.296C158.51 29.6 158.45 29.072 158.33 28.712C158.21 28.352 157.958 28.112 157.574 27.992C157.19 27.872 156.626 27.812 155.882 27.812H153.074V32.708ZM153.074 23.168H155.846C156.566 23.168 157.118 23.108 157.502 22.988C157.886 22.868 158.138 22.64 158.258 22.304C158.378 21.968 158.438 21.488 158.438 20.864C158.438 20.168 158.378 19.664 158.258 19.352C158.138 19.016 157.886 18.8 157.502 18.704C157.142 18.584 156.59 18.524 155.846 18.524H153.074V23.168Z" fill="white"/>
<path d="M121.719 38H118.719V41H121.719V38ZM121.719 13.232V10.232H118.719V13.232H121.719ZM138.351 13.772L137.342 16.5972L137.372 16.608L137.403 16.618L138.351 13.772ZM140.619 15.32L138.19 17.0795L138.224 17.1272L138.26 17.1735L140.619 15.32ZM141.663 17.876L138.702 18.358L138.709 18.3978L138.716 18.4373L141.663 17.876ZM141.735 24.356L138.77 23.8998L138.765 23.9371L138.76 23.9745L141.735 24.356ZM140.871 26.876L138.314 25.3083L138.306 25.3204L138.299 25.3325L140.871 26.876ZM138.927 28.604L137.586 25.9207L135.169 27.1291L136.119 29.6585L138.927 28.604ZM142.455 38V41H146.786L145.264 36.9455L142.455 38ZM134.823 38L131.971 38.9299L132.646 41H134.823V38ZM131.619 28.172L133.063 25.5423L126.417 21.8935L128.767 29.1019L131.619 28.172ZM133.455 29.18L135.12 31.6762L139.236 28.9315L134.899 26.5503L133.455 29.18ZM132.771 29.468L133.07 32.4531L133.216 32.4385L133.36 32.4097L132.771 29.468ZM129.135 29.504V26.504H126.135V29.504H129.135ZM129.135 38V41H132.135V38H129.135ZM129.135 24.356H126.135V27.356H129.135V24.356ZM133.167 24.284L133.54 27.2608L133.63 27.2495L133.72 27.2326L133.167 24.284ZM134.031 23.888L132.038 21.6458L131.972 21.7043L131.91 21.7667L134.031 23.888ZM134.427 23.024L131.479 22.4711L131.462 22.5611L131.451 22.6519L134.427 23.024ZM134.463 19.964L131.469 20.1511L131.475 20.2439L131.487 20.3361L134.463 19.964ZM134.139 19.1L131.882 21.0755L131.947 21.1507L132.018 21.2213L134.139 19.1ZM133.275 18.704L132.588 21.6243L132.671 21.6436L132.754 21.6584L133.275 18.704ZM129.135 18.56V15.56H126.135V18.56H129.135ZM121.719 38H124.719V13.232H121.719H118.719V38H121.719ZM121.719 13.232V16.232H134.355V13.232V10.232H121.719V13.232ZM134.355 13.232V16.232C135.835 16.232 136.785 16.3982 137.342 16.5972L138.351 13.772L139.36 10.9468C137.902 10.4258 136.188 10.232 134.355 10.232V13.232ZM138.351 13.772L137.403 16.618C137.958 16.8032 138.133 17.0012 138.19 17.0795L140.619 15.32L143.049 13.5605C142.098 12.2468 140.761 11.4128 139.3 10.9259L138.351 13.772ZM140.619 15.32L138.26 17.1735C138.412 17.3667 138.598 17.7158 138.702 18.358L141.663 17.876L144.624 17.394C144.393 15.9722 143.883 14.6173 142.978 13.4665L140.619 15.32ZM141.663 17.876L138.716 18.4373C138.865 19.2166 138.951 20.1859 138.951 21.368H141.951H144.951C144.951 19.9101 144.846 18.5514 144.61 17.3147L141.663 17.876ZM141.951 21.368H138.951C138.951 22.2884 138.889 23.1308 138.77 23.8998L141.735 24.356L144.701 24.8122C144.87 23.7092 144.951 22.5596 144.951 21.368H141.951ZM141.735 24.356L138.76 23.9745C138.689 24.5247 138.531 24.9544 138.314 25.3083L140.871 26.876L143.429 28.4437C144.124 27.3096 144.542 26.0593 144.711 24.7375L141.735 24.356ZM140.871 26.876L138.299 25.3325C138.203 25.493 138.018 25.7046 137.586 25.9207L138.927 28.604L140.269 31.2873C141.565 30.6394 142.676 29.699 143.444 28.4195L140.871 26.876ZM138.927 28.604L136.119 29.6585L139.647 39.0545L142.455 38L145.264 36.9455L141.736 27.5495L138.927 28.604ZM142.455 38V35H134.823V38V41H142.455V38ZM134.823 38L137.676 37.0701L134.472 27.2421L131.619 28.172L128.767 29.1019L131.971 38.9299L134.823 38ZM131.619 28.172L130.176 30.8017L132.012 31.8097L133.455 29.18L134.899 26.5503L133.063 25.5423L131.619 28.172ZM133.455 29.18L131.791 26.6838C131.881 26.6239 132.016 26.5597 132.183 26.5263L132.771 29.468L133.36 32.4097C134.007 32.2803 134.598 32.0241 135.12 31.6762L133.455 29.18ZM132.771 29.468L132.473 26.4829C132.372 26.4929 132.171 26.504 131.835 26.504V29.504V32.504C132.268 32.504 132.691 32.4911 133.07 32.4531L132.771 29.468ZM131.835 29.504V26.504H129.135V29.504V32.504H131.835V29.504ZM129.135 29.504H126.135V38H129.135H132.135V29.504H129.135ZM129.135 38V35H121.719V38V41H129.135V38ZM129.135 24.356V27.356H131.583V24.356V21.356H129.135V24.356ZM131.583 24.356V27.356C132.304 27.356 132.974 27.3315 133.54 27.2608L133.167 24.284L132.795 21.3072C132.592 21.3325 132.207 21.356 131.583 21.356V24.356ZM133.167 24.284L133.72 27.2326C134.449 27.0959 135.383 26.7786 136.153 26.0093L134.031 23.888L131.91 21.7667C132.104 21.5723 132.294 21.4621 132.421 21.4038C132.485 21.3749 132.534 21.3577 132.566 21.3481C132.582 21.3432 132.594 21.3401 132.602 21.3381C132.61 21.3362 132.614 21.3354 132.615 21.3354L133.167 24.284ZM134.031 23.888L136.025 26.1302C136.946 25.3113 137.297 24.2545 137.404 23.3961L134.427 23.024L131.451 22.6519C131.462 22.5615 131.549 22.0807 132.038 21.6458L134.031 23.888ZM134.427 23.024L137.376 23.5769C137.497 22.9309 137.535 22.2056 137.535 21.476H134.535H131.535C131.535 22.0424 131.502 22.3491 131.479 22.4711L134.427 23.024ZM134.535 21.476H137.535C137.535 20.7929 137.51 20.1506 137.44 19.5919L134.463 19.964L131.487 20.3361C131.513 20.5454 131.535 20.9111 131.535 21.476H134.535ZM134.463 19.964L137.458 19.7769C137.407 18.9651 137.149 17.8674 136.261 16.9787L134.139 19.1L132.018 21.2213C131.513 20.7166 131.472 20.1949 131.469 20.1511L134.463 19.964ZM134.139 19.1L136.397 17.1245C135.573 16.1831 134.488 15.8717 133.797 15.7496L133.275 18.704L132.754 21.6584C132.779 21.6627 132.694 21.6514 132.547 21.5842C132.397 21.5151 132.136 21.3657 131.882 21.0755L134.139 19.1ZM133.275 18.704L133.963 15.7837C133.225 15.6102 132.395 15.56 131.583 15.56V18.56V21.56C132.212 21.56 132.51 21.6058 132.588 21.6243L133.275 18.704ZM131.583 18.56V15.56H129.135V18.56V21.56H131.583V18.56ZM129.135 18.56H126.135V24.356H129.135H132.135V18.56H129.135ZM145.766 38H142.766V41H145.766V38ZM145.766 13.232V10.232H142.766V13.232H145.766ZM162.542 13.916L161.353 16.6702L161.39 16.6863L161.428 16.7014L162.542 13.916ZM165.314 22.412L162.553 21.2403L162.544 21.2615L162.535 21.2829L165.314 22.412ZM163.874 24.248L162.148 21.7946L162.148 21.7946L163.874 24.248ZM161.426 25.292L160.715 22.3774L158.426 22.9358V25.292H161.426ZM161.426 25.436H158.426V27.8489L160.783 28.3662L161.426 25.436ZM163.91 26.408L162.288 28.9315L162.32 28.9524L162.353 28.9724L163.91 26.408ZM165.422 28.208L168.184 27.0364L168.184 27.0363L165.422 28.208ZM165.494 34.22L162.665 33.2215L162.652 33.2589L162.64 33.2965L165.494 34.22ZM164.234 36.308L166.31 38.474L166.333 38.4519L166.356 38.4293L164.234 36.308ZM161.966 37.568L161.084 34.7007L161.073 34.7039L161.063 34.7073L161.966 37.568ZM153.074 32.708H150.074V35.708H153.074V32.708ZM157.574 32.564L158.302 35.4744L158.386 35.4534L158.469 35.4274L157.574 32.564ZM158.33 31.88L161.156 32.889L161.166 32.859L161.176 32.8287L158.33 31.88ZM158.33 28.712L161.176 27.7633L161.176 27.7633L158.33 28.712ZM157.574 27.992L158.469 25.1286L158.469 25.1286L157.574 27.992ZM153.074 27.812V24.812H150.074V27.812H153.074ZM153.074 23.168H150.074V26.168H153.074V23.168ZM158.258 19.352L155.433 20.361L155.445 20.3951L155.458 20.4289L158.258 19.352ZM157.502 18.704L156.554 21.55L156.663 21.5865L156.775 21.6144L157.502 18.704ZM153.074 18.524V15.524H150.074V18.524H153.074ZM145.766 38H148.766V13.232H145.766H142.766V38H145.766ZM145.766 13.232V16.232H158.654V13.232V10.232H145.766V13.232ZM158.654 13.232V16.232C159.911 16.232 160.776 16.4209 161.353 16.6702L162.542 13.916L163.732 11.1618C162.197 10.4991 160.469 10.232 158.654 10.232V13.232ZM162.542 13.916L161.428 16.7014C161.961 16.9147 162.24 17.1824 162.424 17.4854L164.99 15.932L167.557 14.3786C166.636 12.8576 165.283 11.7813 163.656 11.1306L162.542 13.916ZM164.99 15.932L162.424 17.4854C162.609 17.7921 162.818 18.382 162.818 19.46H165.818H168.818C168.818 17.658 168.475 15.8959 167.557 14.3786L164.99 15.932ZM165.818 19.46H162.818C162.818 20.372 162.685 20.9282 162.553 21.2403L165.314 22.412L168.076 23.5836C168.616 22.3118 168.818 20.9 168.818 19.46H165.818ZM165.314 22.412L162.535 21.2829C162.429 21.5435 162.303 21.6856 162.148 21.7946L163.874 24.248L165.601 26.7014C166.742 25.8984 167.576 24.8165 168.094 23.5411L165.314 22.412ZM163.874 24.248L162.148 21.7946C161.879 21.9839 161.432 22.2027 160.715 22.3774L161.426 25.292L162.137 28.2066C163.389 27.9013 164.574 27.4241 165.601 26.7014L163.874 24.248ZM161.426 25.292H158.426V25.436H161.426H164.426V25.292H161.426ZM161.426 25.436L160.783 28.3662C161.506 28.525 161.982 28.7351 162.288 28.9315L163.91 26.408L165.533 23.8845C164.494 23.2169 163.314 22.779 162.07 22.5058L161.426 25.436ZM163.91 26.408L162.353 28.9724C162.437 29.0229 162.546 29.1093 162.661 29.3796L165.422 28.208L168.184 27.0363C167.627 25.7227 166.728 24.6091 165.467 23.8436L163.91 26.408ZM165.422 28.208L162.661 29.3796C162.776 29.6519 162.926 30.2687 162.926 31.412H165.926H168.926C168.926 29.8673 168.741 28.3481 168.184 27.0364L165.422 28.208ZM165.926 31.412H162.926C162.926 32.2003 162.818 32.7881 162.665 33.2215L165.494 34.22L168.323 35.2185C168.746 34.0199 168.926 32.7357 168.926 31.412H165.926ZM165.494 34.22L162.64 33.2965C162.514 33.6855 162.336 33.9641 162.113 34.1867L164.234 36.308L166.356 38.4293C167.285 37.4999 167.946 36.3865 168.349 35.1435L165.494 34.22ZM164.234 36.308L162.159 34.142C161.988 34.3051 161.673 34.5195 161.084 34.7007L161.966 37.568L162.849 40.4353C164.132 40.0405 165.328 39.4149 166.31 38.474L164.234 36.308ZM161.966 37.568L161.063 34.7073C160.531 34.8754 159.739 35 158.618 35V38V41C160.137 41 161.578 40.8366 162.87 40.4287L161.966 37.568ZM158.618 38V35H145.766V38V41H158.618V38ZM153.074 32.708V35.708H155.882V32.708V29.708H153.074V32.708ZM155.882 32.708V35.708C156.697 35.708 157.555 35.661 158.302 35.4744L157.574 32.564L156.847 29.6536C156.86 29.6501 156.793 29.6671 156.609 29.6828C156.433 29.6978 156.194 29.708 155.882 29.708V32.708ZM157.574 32.564L158.469 35.4274C159.621 35.0676 160.675 34.2339 161.156 32.889L158.33 31.88L155.505 30.871C155.603 30.597 155.779 30.3131 156.039 30.0784C156.288 29.8524 156.532 29.7465 156.679 29.7006L157.574 32.564ZM158.33 31.88L161.176 32.8287C161.45 32.0064 161.51 31.0927 161.51 30.296H158.51H155.51C155.51 30.5633 155.499 30.7519 155.484 30.8753C155.469 31.0074 155.458 31.0104 155.484 30.9313L158.33 31.88ZM158.51 30.296H161.51C161.51 29.4993 161.45 28.5856 161.176 27.7633L158.33 28.712L155.484 29.6607C155.458 29.5816 155.469 29.5846 155.484 29.7167C155.499 29.8401 155.51 30.0287 155.51 30.296H158.51ZM158.33 28.712L161.176 27.7633C160.731 26.4258 159.708 25.5158 158.469 25.1286L157.574 27.992L156.679 30.8554C156.501 30.7996 156.238 30.6778 155.982 30.4344C155.722 30.1862 155.565 29.903 155.484 29.6607L158.33 28.712ZM157.574 27.992L158.469 25.1286C157.646 24.8714 156.719 24.812 155.882 24.812V27.812V30.812C156.179 30.812 156.396 30.8242 156.546 30.8402C156.705 30.8571 156.735 30.8726 156.679 30.8554L157.574 27.992ZM155.882 27.812V24.812H153.074V27.812V30.812H155.882V27.812ZM153.074 27.812H150.074V32.708H153.074H156.074V27.812H153.074ZM153.074 23.168V26.168H155.846V23.168V20.168H153.074V23.168ZM155.846 23.168V26.168C156.67 26.168 157.58 26.1067 158.397 25.8514L157.502 22.988L156.607 20.1246C156.656 20.1093 156.626 20.1243 156.476 20.1406C156.334 20.156 156.128 20.168 155.846 20.168V23.168ZM157.502 22.988L158.397 25.8514C159.549 25.4916 160.603 24.6579 161.084 23.313L158.258 22.304L155.433 21.295C155.531 21.021 155.707 20.7371 155.967 20.5024C156.216 20.2764 156.46 20.1705 156.607 20.1246L157.502 22.988ZM158.258 22.304L161.084 23.313C161.375 22.4975 161.438 21.6144 161.438 20.864H158.438H155.438C155.438 21.0852 155.427 21.2327 155.416 21.3199C155.405 21.4139 155.399 21.3912 155.433 21.295L158.258 22.304ZM158.438 20.864H161.438C161.438 20.1109 161.389 19.1344 161.058 18.2751L158.258 19.352L155.458 20.4289C155.423 20.3373 155.41 20.2783 155.407 20.2682C155.405 20.2561 155.409 20.2706 155.414 20.3186C155.426 20.4189 155.438 20.5944 155.438 20.864H158.438ZM158.258 19.352L161.084 18.343C160.585 16.9469 159.462 16.1015 158.23 15.7936L157.502 18.704L156.775 21.6144C156.601 21.571 156.316 21.4639 156.027 21.2158C155.727 20.9586 155.535 20.6466 155.433 20.361L158.258 19.352ZM157.502 18.704L158.451 15.8579C157.616 15.5795 156.665 15.524 155.846 15.524V18.524V21.524C156.144 21.524 156.355 21.5363 156.494 21.5514C156.646 21.5679 156.646 21.5808 156.554 21.55L157.502 18.704ZM155.846 18.524V15.524H153.074V18.524V21.524H155.846V18.524ZM153.074 18.524H150.074V23.168H153.074H156.074V18.524H153.074Z" fill="black" mask="url(#path-4-outside-2_544_60)"/>
<path d="M176.25 35.4219V14.5781L194.947 25L176.25 35.4219Z" fill="white" stroke="black" stroke-width="2"/>
<rect x="93" y="18" width="15" height="15" rx="7.5" fill="white" stroke="black" stroke-width="2"/>
</svg>
