<svg width="200" height="50" viewBox="0 0 200 50" fill="none" xmlns="http://www.w3.org/2000/svg">
<g clip-path="url(#clip0_201_61)">
<path d="M21.855 12.6984L43.9134 1.33275C45.6132 0.456938 47.4976 0 49.4097 0H81C87.6274 0 93 5.37258 93 12V38C93 44.6274 87.6274 50 81 50H12C5.37258 50 0 44.6274 0 38V32.0159C0 27.6818 2.33704 23.6845 6.1139 21.5586L21.855 12.6984Z" fill="white"/>
<path d="M178.145 12.6984L156.087 1.33275C154.387 0.456938 152.502 0 150.59 0H119C112.373 0 107 5.37258 107 12V38C107 44.6274 112.373 50 119 50H188C194.627 50 200 44.6274 200 38V32.0159C200 27.6818 197.663 23.6845 193.886 21.5586L178.145 12.6984Z" fill="white"/>
<path d="M42.1101 38V13.232H49.5261V32.276H58.4181V38H42.1101ZM61.3757 38V13.232H74.2637C75.7997 13.232 77.0957 13.46 78.1517 13.916C79.2317 14.348 80.0477 15.02 80.5997 15.932C81.1517 16.844 81.4277 18.02 81.4277 19.46C81.4277 20.636 81.2597 21.62 80.9237 22.412C80.6117 23.18 80.1317 23.792 79.4837 24.248C78.8357 24.704 78.0197 25.052 77.0357 25.292V25.436C78.0197 25.652 78.8477 25.976 79.5197 26.408C80.1917 26.816 80.6957 27.416 81.0317 28.208C81.3677 29 81.5357 30.068 81.5357 31.412C81.5357 32.468 81.3917 33.404 81.1037 34.22C80.8397 35.036 80.4197 35.732 79.8437 36.308C79.2677 36.86 78.5117 37.28 77.5757 37.568C76.6637 37.856 75.5477 38 74.2277 38H61.3757ZM68.6837 32.708H71.4917C72.2357 32.708 72.7997 32.66 73.1837 32.564C73.5677 32.444 73.8197 32.216 73.9397 31.88C74.0597 31.52 74.1197 30.992 74.1197 30.296C74.1197 29.6 74.0597 29.072 73.9397 28.712C73.8197 28.352 73.5677 28.112 73.1837 27.992C72.7997 27.872 72.2357 27.812 71.4917 27.812H68.6837V32.708ZM68.6837 23.168H71.4557C72.1757 23.168 72.7277 23.108 73.1117 22.988C73.4957 22.868 73.7477 22.64 73.8677 22.304C73.9877 21.968 74.0477 21.488 74.0477 20.864C74.0477 20.168 73.9877 19.664 73.8677 19.352C73.7477 19.016 73.4957 18.8 73.1117 18.704C72.7517 18.584 72.1997 18.524 71.4557 18.524H68.6837V23.168Z" fill="black"/>
<path d="M116.719 38V13.232H129.355C131.011 13.232 132.343 13.412 133.351 13.772C134.359 14.108 135.115 14.624 135.619 15.32C136.147 15.992 136.495 16.844 136.663 17.876C136.855 18.884 136.951 20.048 136.951 21.368C136.951 22.424 136.879 23.42 136.735 24.356C136.615 25.292 136.327 26.132 135.871 26.876C135.439 27.596 134.791 28.172 133.927 28.604L137.455 38H129.823L126.619 28.172L128.455 29.18C128.239 29.324 128.011 29.42 127.771 29.468C127.531 29.492 127.219 29.504 126.835 29.504H124.135V38H116.719ZM124.135 24.356H126.583C127.255 24.356 127.783 24.332 128.167 24.284C128.551 24.212 128.839 24.08 129.031 23.888C129.247 23.696 129.379 23.408 129.427 23.024C129.499 22.64 129.535 22.124 129.535 21.476C129.535 20.852 129.511 20.348 129.463 19.964C129.439 19.58 129.331 19.292 129.139 19.1C128.971 18.908 128.683 18.776 128.275 18.704C127.867 18.608 127.303 18.56 126.583 18.56H124.135V24.356ZM140.766 38V13.232H153.654C155.19 13.232 156.486 13.46 157.542 13.916C158.622 14.348 159.438 15.02 159.99 15.932C160.542 16.844 160.818 18.02 160.818 19.46C160.818 20.636 160.65 21.62 160.314 22.412C160.002 23.18 159.522 23.792 158.874 24.248C158.226 24.704 157.41 25.052 156.426 25.292V25.436C157.41 25.652 158.238 25.976 158.91 26.408C159.582 26.816 160.086 27.416 160.422 28.208C160.758 29 160.926 30.068 160.926 31.412C160.926 32.468 160.782 33.404 160.494 34.22C160.23 35.036 159.81 35.732 159.234 36.308C158.658 36.86 157.902 37.28 156.966 37.568C156.054 37.856 154.938 38 153.618 38H140.766ZM148.074 32.708H150.882C151.626 32.708 152.19 32.66 152.574 32.564C152.958 32.444 153.21 32.216 153.33 31.88C153.45 31.52 153.51 30.992 153.51 30.296C153.51 29.6 153.45 29.072 153.33 28.712C153.21 28.352 152.958 28.112 152.574 27.992C152.19 27.872 151.626 27.812 150.882 27.812H148.074V32.708ZM148.074 23.168H150.846C151.566 23.168 152.118 23.108 152.502 22.988C152.886 22.868 153.138 22.64 153.258 22.304C153.378 21.968 153.438 21.488 153.438 20.864C153.438 20.168 153.378 19.664 153.258 19.352C153.138 19.016 152.886 18.8 152.502 18.704C152.142 18.584 151.59 18.524 150.846 18.524H148.074V23.168Z" fill="black"/>
</g>
<defs>
<clipPath id="clip0_201_61">
<rect width="200" height="50" fill="white"/>
</clipPath>
</defs>
</svg>
