<svg width="100" height="100" viewBox="0 0 100 100" fill="none" xmlns="http://www.w3.org/2000/svg">
<g clip-path="url(#clip0_270_9)">
<g filter="url(#filter0_d_270_9)">
<mask id="path-1-outside-1_270_9" maskUnits="userSpaceOnUse" x="5" y="5" width="89" height="89" fill="black">
<rect fill="white" x="5" y="5" width="89" height="89"/>
<path d="M45.9141 7.05312C45.9141 7.07969 45.7215 8.20859 45.4824 9.55664C45.2434 10.9113 44.8516 13.1492 44.6125 14.5371C44.3668 15.925 44.1609 17.0672 44.1543 17.0805C44.1477 17.0871 43.7492 17.1734 43.2711 17.2598C41.7238 17.5586 40.1699 17.977 38.6824 18.5016C37.952 18.7539 37.9254 18.7605 37.8125 18.641C37.7527 18.5746 36.3184 16.8613 34.625 14.8359C32.9316 12.8105 31.5039 11.0973 31.4375 11.0309C31.3313 10.918 31.1852 10.9977 28.2766 12.6777C26.6031 13.6473 25.2219 14.4641 25.2086 14.4973C25.1953 14.5305 25.9723 16.702 26.9285 19.325L28.6684 24.0863L28.4027 24.3254C26.4836 26.0586 26.1914 26.3441 24.3254 28.4094L24.0863 28.6684L19.4113 26.9617C16.8414 26.0187 14.6699 25.2484 14.5902 25.2418C14.4641 25.2285 14.2051 25.6469 12.6777 28.2766C10.9977 31.1852 10.918 31.3312 11.0309 31.4375C11.0973 31.5039 12.8238 32.9516 14.8691 34.6582C16.9145 36.3648 18.6277 37.7992 18.6742 37.8391C18.7406 37.9055 18.7074 38.0715 18.4949 38.6824C17.9305 40.3359 17.5586 41.7105 17.2664 43.2512C17.1734 43.7426 17.0871 44.1477 17.0805 44.1543C17.0672 44.1609 15.925 44.3668 14.5371 44.6125C13.1492 44.8516 10.9113 45.2434 9.55664 45.4824C8.20859 45.7215 7.07969 45.9141 7.05313 45.9141C7.02656 45.9141 7 47.5277 7 49.5C7 51.4723 7.02656 53.0859 7.05313 53.0859C7.07969 53.0859 8.20859 53.2785 9.55664 53.5176C10.9113 53.7566 13.1492 54.1484 14.5371 54.3875C15.925 54.6332 17.0672 54.8391 17.0805 54.8457C17.0871 54.8523 17.1734 55.2574 17.2664 55.7488C17.5586 57.2895 17.9305 58.6641 18.4949 60.3176C18.7074 60.9285 18.7406 61.0945 18.6742 61.1609C18.6277 61.2008 16.9145 62.6352 14.8691 64.3418C12.8238 66.0484 11.0973 67.4961 11.0309 67.5625C10.918 67.6687 10.9977 67.8148 12.6777 70.7234C14.2051 73.3531 14.4641 73.7715 14.5902 73.7582C14.6699 73.7516 16.8414 72.9812 19.4113 72.0383L24.0863 70.3316L24.3254 70.5906C26.1914 72.6559 26.4836 72.9414 28.4027 74.6746L28.6684 74.9137L26.9285 79.675C25.9723 82.298 25.1953 84.4695 25.2086 84.5027C25.2219 84.5359 26.6031 85.3527 28.2766 86.3223C31.1852 88.0023 31.3313 88.082 31.4375 87.9691C31.5039 87.9027 32.9316 86.1895 34.625 84.1641C36.3184 82.1387 37.7527 80.4254 37.8125 80.359C37.9254 80.2395 37.952 80.2461 38.6824 80.4984C40.1699 81.023 41.7238 81.4414 43.2711 81.7402C43.7492 81.8266 44.1477 81.9129 44.1543 81.9195C44.1609 81.9328 44.3668 83.075 44.6125 84.4629C44.8516 85.8508 45.2434 88.0887 45.4824 89.4434C45.7215 90.7914 45.9141 91.9203 45.9141 91.9469C45.9141 91.9734 47.5211 92 49.4867 92H53.0594L53.4047 90.0609C53.5906 88.9918 53.9891 86.7273 54.2879 85.0273C54.5801 83.3273 54.8324 81.9328 54.8457 81.9195C54.8523 81.9129 55.3039 81.8133 55.8484 81.707C57.5352 81.375 58.6375 81.0828 60.3176 80.5051C60.9285 80.2926 61.0945 80.2594 61.1609 80.3258C61.2008 80.3723 62.6352 82.0855 64.3418 84.1309C66.0484 86.1762 67.4961 87.9027 67.5625 87.9691C67.6688 88.082 67.8148 88.0023 70.7234 86.3223C72.3969 85.3527 73.7781 84.5359 73.7914 84.5027C73.8047 84.4562 72.709 81.4148 70.7035 75.9363L70.325 74.9137L70.7566 74.5418C72.1977 73.2801 73.3066 72.1777 74.5418 70.7566L74.907 70.3316L76.1355 70.7766C80.8371 72.5031 84.4363 73.8047 84.4828 73.8047C84.516 73.8047 85.107 72.8285 85.7977 71.6332C86.4816 70.4312 87.2785 69.0566 87.5641 68.5652C87.9824 67.848 88.0688 67.6555 88.0023 67.5957C87.9559 67.5492 86.2293 66.1016 84.1641 64.375C82.0988 62.6484 80.3723 61.2008 80.3258 61.1609C80.2594 61.0945 80.2926 60.9285 80.5051 60.3176C81.0629 58.684 81.5012 57.057 81.7734 55.5895C81.8531 55.1645 81.9461 54.8125 81.9727 54.8125C81.9992 54.8125 83.4801 54.5602 85.2664 54.248C87.0527 53.9359 89.2773 53.5441 90.207 53.3848C91.1367 53.2187 91.9203 53.0859 91.9469 53.0859C91.9801 53.0859 92 51.4723 92 49.5C92 47.5277 91.9734 45.9141 91.9469 45.9141C91.9203 45.9141 90.8047 45.7215 89.4766 45.4891C88.1418 45.2566 85.8973 44.8582 84.4828 44.6125L81.9129 44.1609L81.7734 43.3973C81.5012 41.943 81.0629 40.3094 80.5051 38.6824C80.2926 38.0715 80.2594 37.9055 80.3258 37.8391C80.3723 37.7992 82.0988 36.3516 84.1641 34.625C86.2293 32.8984 87.9559 31.4508 88.0023 31.4043C88.0688 31.3445 87.9824 31.152 87.5641 30.4348C87.2785 29.9434 86.4816 28.5687 85.7977 27.3668C85.107 26.1715 84.516 25.1953 84.4828 25.1953C84.4363 25.1953 80.8371 26.4969 76.1355 28.2234L74.907 28.6684L74.5418 28.2434C73.3066 26.8223 72.1977 25.7199 70.7566 24.4582L70.325 24.0863L70.7035 23.0637C72.709 17.5852 73.8047 14.5437 73.7914 14.4973C73.7781 14.4641 72.3969 13.6473 70.7234 12.6777C67.8148 10.9977 67.6688 10.918 67.5625 11.0309C67.4961 11.0973 66.0484 12.8238 64.3418 14.8691C62.6352 16.9145 61.2008 18.6277 61.1609 18.6742C61.0945 18.7406 60.9285 18.7074 60.3176 18.4949C58.6375 17.9172 57.5352 17.625 55.8484 17.293C55.3039 17.1867 54.8523 17.0871 54.8457 17.0805C54.8324 17.0672 54.5801 15.6727 54.2879 13.9727C53.9891 12.2727 53.5906 10.0082 53.4047 8.93906L53.0594 7H49.4867C47.5211 7 45.9141 7.02656 45.9141 7.05312ZM50.8613 24.425C55.3637 24.5844 60.1914 26.2645 64.043 29.007C66.4203 30.6937 68.5254 32.832 70.1789 35.2227C72.6559 38.7953 74.15 42.9324 74.5418 47.3086C74.6348 48.3777 74.6348 50.6223 74.5418 51.6914C73.9176 58.591 70.5508 64.8598 65.1387 69.1695C61.8648 71.7793 57.8672 73.5656 53.75 74.2629C52.1164 74.5418 51.7578 74.5684 49.5 74.5684C47.2422 74.5684 46.8836 74.5418 45.25 74.2629C37.434 72.9414 30.6207 67.8945 27.0547 60.7824C25.0957 56.8844 24.2324 52.827 24.4117 48.3645C24.7305 40.4023 28.9273 32.9848 35.6211 28.5555C38.9547 26.3508 42.5672 25.0293 46.6313 24.5312C47.2688 24.4516 49.3207 24.3453 49.666 24.3785C49.7789 24.3852 50.3168 24.4117 50.8613 24.425Z"/>
</mask>
<path d="M45.9141 7.05312C45.9141 7.07969 45.7215 8.20859 45.4824 9.55664C45.2434 10.9113 44.8516 13.1492 44.6125 14.5371C44.3668 15.925 44.1609 17.0672 44.1543 17.0805C44.1477 17.0871 43.7492 17.1734 43.2711 17.2598C41.7238 17.5586 40.1699 17.977 38.6824 18.5016C37.952 18.7539 37.9254 18.7605 37.8125 18.641C37.7527 18.5746 36.3184 16.8613 34.625 14.8359C32.9316 12.8105 31.5039 11.0973 31.4375 11.0309C31.3313 10.918 31.1852 10.9977 28.2766 12.6777C26.6031 13.6473 25.2219 14.4641 25.2086 14.4973C25.1953 14.5305 25.9723 16.702 26.9285 19.325L28.6684 24.0863L28.4027 24.3254C26.4836 26.0586 26.1914 26.3441 24.3254 28.4094L24.0863 28.6684L19.4113 26.9617C16.8414 26.0187 14.6699 25.2484 14.5902 25.2418C14.4641 25.2285 14.2051 25.6469 12.6777 28.2766C10.9977 31.1852 10.918 31.3312 11.0309 31.4375C11.0973 31.5039 12.8238 32.9516 14.8691 34.6582C16.9145 36.3648 18.6277 37.7992 18.6742 37.8391C18.7406 37.9055 18.7074 38.0715 18.4949 38.6824C17.9305 40.3359 17.5586 41.7105 17.2664 43.2512C17.1734 43.7426 17.0871 44.1477 17.0805 44.1543C17.0672 44.1609 15.925 44.3668 14.5371 44.6125C13.1492 44.8516 10.9113 45.2434 9.55664 45.4824C8.20859 45.7215 7.07969 45.9141 7.05313 45.9141C7.02656 45.9141 7 47.5277 7 49.5C7 51.4723 7.02656 53.0859 7.05313 53.0859C7.07969 53.0859 8.20859 53.2785 9.55664 53.5176C10.9113 53.7566 13.1492 54.1484 14.5371 54.3875C15.925 54.6332 17.0672 54.8391 17.0805 54.8457C17.0871 54.8523 17.1734 55.2574 17.2664 55.7488C17.5586 57.2895 17.9305 58.6641 18.4949 60.3176C18.7074 60.9285 18.7406 61.0945 18.6742 61.1609C18.6277 61.2008 16.9145 62.6352 14.8691 64.3418C12.8238 66.0484 11.0973 67.4961 11.0309 67.5625C10.918 67.6687 10.9977 67.8148 12.6777 70.7234C14.2051 73.3531 14.4641 73.7715 14.5902 73.7582C14.6699 73.7516 16.8414 72.9812 19.4113 72.0383L24.0863 70.3316L24.3254 70.5906C26.1914 72.6559 26.4836 72.9414 28.4027 74.6746L28.6684 74.9137L26.9285 79.675C25.9723 82.298 25.1953 84.4695 25.2086 84.5027C25.2219 84.5359 26.6031 85.3527 28.2766 86.3223C31.1852 88.0023 31.3313 88.082 31.4375 87.9691C31.5039 87.9027 32.9316 86.1895 34.625 84.1641C36.3184 82.1387 37.7527 80.4254 37.8125 80.359C37.9254 80.2395 37.952 80.2461 38.6824 80.4984C40.1699 81.023 41.7238 81.4414 43.2711 81.7402C43.7492 81.8266 44.1477 81.9129 44.1543 81.9195C44.1609 81.9328 44.3668 83.075 44.6125 84.4629C44.8516 85.8508 45.2434 88.0887 45.4824 89.4434C45.7215 90.7914 45.9141 91.9203 45.9141 91.9469C45.9141 91.9734 47.5211 92 49.4867 92H53.0594L53.4047 90.0609C53.5906 88.9918 53.9891 86.7273 54.2879 85.0273C54.5801 83.3273 54.8324 81.9328 54.8457 81.9195C54.8523 81.9129 55.3039 81.8133 55.8484 81.707C57.5352 81.375 58.6375 81.0828 60.3176 80.5051C60.9285 80.2926 61.0945 80.2594 61.1609 80.3258C61.2008 80.3723 62.6352 82.0855 64.3418 84.1309C66.0484 86.1762 67.4961 87.9027 67.5625 87.9691C67.6688 88.082 67.8148 88.0023 70.7234 86.3223C72.3969 85.3527 73.7781 84.5359 73.7914 84.5027C73.8047 84.4562 72.709 81.4148 70.7035 75.9363L70.325 74.9137L70.7566 74.5418C72.1977 73.2801 73.3066 72.1777 74.5418 70.7566L74.907 70.3316L76.1355 70.7766C80.8371 72.5031 84.4363 73.8047 84.4828 73.8047C84.516 73.8047 85.107 72.8285 85.7977 71.6332C86.4816 70.4312 87.2785 69.0566 87.5641 68.5652C87.9824 67.848 88.0688 67.6555 88.0023 67.5957C87.9559 67.5492 86.2293 66.1016 84.1641 64.375C82.0988 62.6484 80.3723 61.2008 80.3258 61.1609C80.2594 61.0945 80.2926 60.9285 80.5051 60.3176C81.0629 58.684 81.5012 57.057 81.7734 55.5895C81.8531 55.1645 81.9461 54.8125 81.9727 54.8125C81.9992 54.8125 83.4801 54.5602 85.2664 54.248C87.0527 53.9359 89.2773 53.5441 90.207 53.3848C91.1367 53.2187 91.9203 53.0859 91.9469 53.0859C91.9801 53.0859 92 51.4723 92 49.5C92 47.5277 91.9734 45.9141 91.9469 45.9141C91.9203 45.9141 90.8047 45.7215 89.4766 45.4891C88.1418 45.2566 85.8973 44.8582 84.4828 44.6125L81.9129 44.1609L81.7734 43.3973C81.5012 41.943 81.0629 40.3094 80.5051 38.6824C80.2926 38.0715 80.2594 37.9055 80.3258 37.8391C80.3723 37.7992 82.0988 36.3516 84.1641 34.625C86.2293 32.8984 87.9559 31.4508 88.0023 31.4043C88.0688 31.3445 87.9824 31.152 87.5641 30.4348C87.2785 29.9434 86.4816 28.5687 85.7977 27.3668C85.107 26.1715 84.516 25.1953 84.4828 25.1953C84.4363 25.1953 80.8371 26.4969 76.1355 28.2234L74.907 28.6684L74.5418 28.2434C73.3066 26.8223 72.1977 25.7199 70.7566 24.4582L70.325 24.0863L70.7035 23.0637C72.709 17.5852 73.8047 14.5437 73.7914 14.4973C73.7781 14.4641 72.3969 13.6473 70.7234 12.6777C67.8148 10.9977 67.6688 10.918 67.5625 11.0309C67.4961 11.0973 66.0484 12.8238 64.3418 14.8691C62.6352 16.9145 61.2008 18.6277 61.1609 18.6742C61.0945 18.7406 60.9285 18.7074 60.3176 18.4949C58.6375 17.9172 57.5352 17.625 55.8484 17.293C55.3039 17.1867 54.8523 17.0871 54.8457 17.0805C54.8324 17.0672 54.5801 15.6727 54.2879 13.9727C53.9891 12.2727 53.5906 10.0082 53.4047 8.93906L53.0594 7H49.4867C47.5211 7 45.9141 7.02656 45.9141 7.05312ZM50.8613 24.425C55.3637 24.5844 60.1914 26.2645 64.043 29.007C66.4203 30.6937 68.5254 32.832 70.1789 35.2227C72.6559 38.7953 74.15 42.9324 74.5418 47.3086C74.6348 48.3777 74.6348 50.6223 74.5418 51.6914C73.9176 58.591 70.5508 64.8598 65.1387 69.1695C61.8648 71.7793 57.8672 73.5656 53.75 74.2629C52.1164 74.5418 51.7578 74.5684 49.5 74.5684C47.2422 74.5684 46.8836 74.5418 45.25 74.2629C37.434 72.9414 30.6207 67.8945 27.0547 60.7824C25.0957 56.8844 24.2324 52.827 24.4117 48.3645C24.7305 40.4023 28.9273 32.9848 35.6211 28.5555C38.9547 26.3508 42.5672 25.0293 46.6313 24.5312C47.2688 24.4516 49.3207 24.3453 49.666 24.3785C49.7789 24.3852 50.3168 24.4117 50.8613 24.425Z" fill="white"/>
<path d="M45.9141 7.05312C45.9141 7.07969 45.7215 8.20859 45.4824 9.55664C45.2434 10.9113 44.8516 13.1492 44.6125 14.5371C44.3668 15.925 44.1609 17.0672 44.1543 17.0805C44.1477 17.0871 43.7492 17.1734 43.2711 17.2598C41.7238 17.5586 40.1699 17.977 38.6824 18.5016C37.952 18.7539 37.9254 18.7605 37.8125 18.641C37.7527 18.5746 36.3184 16.8613 34.625 14.8359C32.9316 12.8105 31.5039 11.0973 31.4375 11.0309C31.3313 10.918 31.1852 10.9977 28.2766 12.6777C26.6031 13.6473 25.2219 14.4641 25.2086 14.4973C25.1953 14.5305 25.9723 16.702 26.9285 19.325L28.6684 24.0863L28.4027 24.3254C26.4836 26.0586 26.1914 26.3441 24.3254 28.4094L24.0863 28.6684L19.4113 26.9617C16.8414 26.0187 14.6699 25.2484 14.5902 25.2418C14.4641 25.2285 14.2051 25.6469 12.6777 28.2766C10.9977 31.1852 10.918 31.3312 11.0309 31.4375C11.0973 31.5039 12.8238 32.9516 14.8691 34.6582C16.9145 36.3648 18.6277 37.7992 18.6742 37.8391C18.7406 37.9055 18.7074 38.0715 18.4949 38.6824C17.9305 40.3359 17.5586 41.7105 17.2664 43.2512C17.1734 43.7426 17.0871 44.1477 17.0805 44.1543C17.0672 44.1609 15.925 44.3668 14.5371 44.6125C13.1492 44.8516 10.9113 45.2434 9.55664 45.4824C8.20859 45.7215 7.07969 45.9141 7.05313 45.9141C7.02656 45.9141 7 47.5277 7 49.5C7 51.4723 7.02656 53.0859 7.05313 53.0859C7.07969 53.0859 8.20859 53.2785 9.55664 53.5176C10.9113 53.7566 13.1492 54.1484 14.5371 54.3875C15.925 54.6332 17.0672 54.8391 17.0805 54.8457C17.0871 54.8523 17.1734 55.2574 17.2664 55.7488C17.5586 57.2895 17.9305 58.6641 18.4949 60.3176C18.7074 60.9285 18.7406 61.0945 18.6742 61.1609C18.6277 61.2008 16.9145 62.6352 14.8691 64.3418C12.8238 66.0484 11.0973 67.4961 11.0309 67.5625C10.918 67.6687 10.9977 67.8148 12.6777 70.7234C14.2051 73.3531 14.4641 73.7715 14.5902 73.7582C14.6699 73.7516 16.8414 72.9812 19.4113 72.0383L24.0863 70.3316L24.3254 70.5906C26.1914 72.6559 26.4836 72.9414 28.4027 74.6746L28.6684 74.9137L26.9285 79.675C25.9723 82.298 25.1953 84.4695 25.2086 84.5027C25.2219 84.5359 26.6031 85.3527 28.2766 86.3223C31.1852 88.0023 31.3313 88.082 31.4375 87.9691C31.5039 87.9027 32.9316 86.1895 34.625 84.1641C36.3184 82.1387 37.7527 80.4254 37.8125 80.359C37.9254 80.2395 37.952 80.2461 38.6824 80.4984C40.1699 81.023 41.7238 81.4414 43.2711 81.7402C43.7492 81.8266 44.1477 81.9129 44.1543 81.9195C44.1609 81.9328 44.3668 83.075 44.6125 84.4629C44.8516 85.8508 45.2434 88.0887 45.4824 89.4434C45.7215 90.7914 45.9141 91.9203 45.9141 91.9469C45.9141 91.9734 47.5211 92 49.4867 92H53.0594L53.4047 90.0609C53.5906 88.9918 53.9891 86.7273 54.2879 85.0273C54.5801 83.3273 54.8324 81.9328 54.8457 81.9195C54.8523 81.9129 55.3039 81.8133 55.8484 81.707C57.5352 81.375 58.6375 81.0828 60.3176 80.5051C60.9285 80.2926 61.0945 80.2594 61.1609 80.3258C61.2008 80.3723 62.6352 82.0855 64.3418 84.1309C66.0484 86.1762 67.4961 87.9027 67.5625 87.9691C67.6688 88.082 67.8148 88.0023 70.7234 86.3223C72.3969 85.3527 73.7781 84.5359 73.7914 84.5027C73.8047 84.4562 72.709 81.4148 70.7035 75.9363L70.325 74.9137L70.7566 74.5418C72.1977 73.2801 73.3066 72.1777 74.5418 70.7566L74.907 70.3316L76.1355 70.7766C80.8371 72.5031 84.4363 73.8047 84.4828 73.8047C84.516 73.8047 85.107 72.8285 85.7977 71.6332C86.4816 70.4312 87.2785 69.0566 87.5641 68.5652C87.9824 67.848 88.0688 67.6555 88.0023 67.5957C87.9559 67.5492 86.2293 66.1016 84.1641 64.375C82.0988 62.6484 80.3723 61.2008 80.3258 61.1609C80.2594 61.0945 80.2926 60.9285 80.5051 60.3176C81.0629 58.684 81.5012 57.057 81.7734 55.5895C81.8531 55.1645 81.9461 54.8125 81.9727 54.8125C81.9992 54.8125 83.4801 54.5602 85.2664 54.248C87.0527 53.9359 89.2773 53.5441 90.207 53.3848C91.1367 53.2187 91.9203 53.0859 91.9469 53.0859C91.9801 53.0859 92 51.4723 92 49.5C92 47.5277 91.9734 45.9141 91.9469 45.9141C91.9203 45.9141 90.8047 45.7215 89.4766 45.4891C88.1418 45.2566 85.8973 44.8582 84.4828 44.6125L81.9129 44.1609L81.7734 43.3973C81.5012 41.943 81.0629 40.3094 80.5051 38.6824C80.2926 38.0715 80.2594 37.9055 80.3258 37.8391C80.3723 37.7992 82.0988 36.3516 84.1641 34.625C86.2293 32.8984 87.9559 31.4508 88.0023 31.4043C88.0688 31.3445 87.9824 31.152 87.5641 30.4348C87.2785 29.9434 86.4816 28.5687 85.7977 27.3668C85.107 26.1715 84.516 25.1953 84.4828 25.1953C84.4363 25.1953 80.8371 26.4969 76.1355 28.2234L74.907 28.6684L74.5418 28.2434C73.3066 26.8223 72.1977 25.7199 70.7566 24.4582L70.325 24.0863L70.7035 23.0637C72.709 17.5852 73.8047 14.5437 73.7914 14.4973C73.7781 14.4641 72.3969 13.6473 70.7234 12.6777C67.8148 10.9977 67.6688 10.918 67.5625 11.0309C67.4961 11.0973 66.0484 12.8238 64.3418 14.8691C62.6352 16.9145 61.2008 18.6277 61.1609 18.6742C61.0945 18.7406 60.9285 18.7074 60.3176 18.4949C58.6375 17.9172 57.5352 17.625 55.8484 17.293C55.3039 17.1867 54.8523 17.0871 54.8457 17.0805C54.8324 17.0672 54.5801 15.6727 54.2879 13.9727C53.9891 12.2727 53.5906 10.0082 53.4047 8.93906L53.0594 7H49.4867C47.5211 7 45.9141 7.02656 45.9141 7.05312ZM50.8613 24.425C55.3637 24.5844 60.1914 26.2645 64.043 29.007C66.4203 30.6937 68.5254 32.832 70.1789 35.2227C72.6559 38.7953 74.15 42.9324 74.5418 47.3086C74.6348 48.3777 74.6348 50.6223 74.5418 51.6914C73.9176 58.591 70.5508 64.8598 65.1387 69.1695C61.8648 71.7793 57.8672 73.5656 53.75 74.2629C52.1164 74.5418 51.7578 74.5684 49.5 74.5684C47.2422 74.5684 46.8836 74.5418 45.25 74.2629C37.434 72.9414 30.6207 67.8945 27.0547 60.7824C25.0957 56.8844 24.2324 52.827 24.4117 48.3645C24.7305 40.4023 28.9273 32.9848 35.6211 28.5555C38.9547 26.3508 42.5672 25.0293 46.6313 24.5312C47.2688 24.4516 49.3207 24.3453 49.666 24.3785C49.7789 24.3852 50.3168 24.4117 50.8613 24.425Z" stroke="white" stroke-width="4" mask="url(#path-1-outside-1_270_9)"/>
</g>
</g>
<defs>
<filter id="filter0_d_270_9" x="-0.8" y="-0.8" width="100.6" height="100.6" filterUnits="userSpaceOnUse" color-interpolation-filters="sRGB">
<feFlood flood-opacity="0" result="BackgroundImageFix"/>
<feColorMatrix in="SourceAlpha" type="matrix" values="0 0 0 0 0 0 0 0 0 0 0 0 0 0 0 0 0 0 127 0" result="hardAlpha"/>
<feOffset/>
<feGaussianBlur stdDeviation="2.9"/>
<feComposite in2="hardAlpha" operator="out"/>
<feColorMatrix type="matrix" values="0 0 0 0 1 0 0 0 0 1 0 0 0 0 1 0 0 0 0.43 0"/>
<feBlend mode="normal" in2="BackgroundImageFix" result="effect1_dropShadow_270_9"/>
<feBlend mode="normal" in="SourceGraphic" in2="effect1_dropShadow_270_9" result="shape"/>
</filter>
<clipPath id="clip0_270_9">
<rect width="100" height="100" fill="white"/>
</clipPath>
</defs>
</svg>
