<svg width="100" height="100" viewBox="0 0 100 100" fill="none" xmlns="http://www.w3.org/2000/svg">
<g clip-path="url(#clip0_224_2)">
<rect x="2.5" y="2.5" width="95" height="95" rx="47.5" fill="#162718" stroke="#D8FFB7" stroke-width="5"/>
<path d="M24.0938 70.125L31.9375 40.375C34.0625 32.2708 40.9792 28.2083 52.6875 28.1875H69.5312C70.3021 28.1875 70.9375 28.4792 71.4375 29.0625C71.9583 29.6458 72.2188 30.3229 72.2188 31.0938V70.125C72.2188 70.9375 71.9271 71.625 71.3438 72.1875C70.7604 72.7292 70.0625 73 69.25 73H63.375C62.5208 73 61.8125 72.7292 61.25 72.1875C60.7083 71.625 60.4375 70.9167 60.4375 70.0625V62.1875H38.2188L36.125 70.0625C35.9167 70.9167 35.4479 71.625 34.7188 72.1875C33.9896 72.7292 33.2188 73 32.4062 73H26.25C25.4375 73 24.8542 72.7708 24.5 72.3125C24.1458 71.8333 23.9688 71.4167 23.9688 71.0625C23.9896 70.7083 24.0312 70.3958 24.0938 70.125ZM40.5312 53.3438H60.4375V37.0312H51.5312C49.5312 37.0312 47.7812 37.6042 46.2812 38.75C44.8021 39.875 43.8021 41.3958 43.2812 43.3125L40.5312 53.3438Z" fill="#D8FFB7"/>
</g>
<defs>
<clipPath id="clip0_224_2">
<rect width="100" height="100" fill="white"/>
</clipPath>
</defs>
</svg>
