<svg width="100" height="100" viewBox="0 0 100 100" fill="none" xmlns="http://www.w3.org/2000/svg">
<g clip-path="url(#clip0_225_8)">
<rect x="2.5" y="2.5" width="95" height="95" rx="47.5" fill="#20253C" stroke="#C2B7FF" stroke-width="5"/>
<path d="M28.375 73C27.3333 73 26.75 72.5312 26.625 71.5938C26.625 71.1354 26.8438 70.625 27.2812 70.0625L43.0312 49.9688L28.1875 31.1562C27.75 30.6146 27.5312 30.1042 27.5312 29.625C27.5312 28.6667 28.1042 28.1875 29.25 28.1875H35.9688C38.0521 28.1875 39.875 29.1771 41.4375 31.1562L50 42.0312L58.5625 31.1562C60.1042 29.1979 61.9271 28.2083 64.0312 28.1875H70.75C71.8958 28.1875 72.4688 28.6667 72.4688 29.625C72.4688 30.0833 72.25 30.5938 71.8125 31.1562L56.9688 49.9688L72.7188 70.0625C73.1562 70.6042 73.375 71.0417 73.375 71.375C73.375 71.7083 73.3333 71.9479 73.25 72.0938C73.0208 72.6979 72.4792 73 71.625 73H64.9688C62.8854 73 61.0729 72.0208 59.5312 70.0625L50 57.9062L40.4688 70.0625C38.9271 72.0208 37.1146 73 35.0312 73H28.375Z" fill="#C2B7FF"/>
</g>
<defs>
<clipPath id="clip0_225_8">
<rect width="100" height="100" fill="white"/>
</clipPath>
</defs>
</svg>
