<svg width="100" height="100" viewBox="0 0 100 100" fill="none" xmlns="http://www.w3.org/2000/svg">
<g clip-path="url(#clip0_224_5)">
<rect x="2.5" y="2.5" width="95" height="95" rx="47.5" fill="#3C2021" stroke="#FFB7B7" stroke-width="5"/>
<path d="M28.0625 31.1562C28.0625 30.3438 28.3542 29.6458 28.9375 29.0625C29.5208 28.4792 30.2188 28.1875 31.0312 28.1875H56.4375C62.6667 28.1875 67.2604 29.9792 70.2188 33.5625C71.8646 35.5417 72.6875 38.0729 72.6875 41.1562C72.6875 44.2188 71.2812 46.8958 68.4688 49.1875C72.4688 51.3333 74.4688 54.6667 74.4688 59.1875C74.4688 63.7083 72.8646 67.1458 69.6562 69.5C66.4688 71.8333 62.5521 73 57.9062 73H31.0312C30.2188 73 29.5208 72.7188 28.9375 72.1562C28.3542 71.5729 28.0625 70.875 28.0625 70.0625V31.1562ZM39.8438 64.5625H57.7188C59.3229 64.5625 60.5521 64.0833 61.4062 63.125C62.2604 62.1667 62.6875 60.8542 62.6875 59.1875C62.6875 57.5208 62.2604 56.2083 61.4062 55.25C60.5521 54.2917 59.3229 53.8125 57.7188 53.8125H39.8438V64.5625ZM39.8438 45.5938H56.5625C57.875 45.5938 58.9271 45.2083 59.7188 44.4375C60.5104 43.6458 60.9062 42.5521 60.9062 41.1562C60.9062 39.7396 60.5104 38.6354 59.7188 37.8438C58.9271 37.0521 57.875 36.6562 56.5625 36.6562H39.8438V45.5938Z" fill="#FFB7B7"/>
</g>
<defs>
<clipPath id="clip0_224_5">
<rect width="100" height="100" fill="white"/>
</clipPath>
</defs>
</svg>
