<svg width="750" height="750" viewBox="0 0 750 750" fill="none" xmlns="http://www.w3.org/2000/svg">
<g clip-path="url(#clip0_377_20)">
<path opacity="0.28" d="M732.968 394.5C739.934 382.433 739.934 367.567 732.968 355.5L570.871 74.7402C563.904 62.6738 551.03 55.2403 537.097 55.2402H212.903C198.97 55.2403 186.096 62.6738 179.129 74.7402L17.0322 355.5C10.0655 367.567 10.0655 382.433 17.0322 394.5L179.129 675.26C186.096 687.326 198.97 694.76 212.903 694.76H537.097C551.03 694.76 563.904 687.326 570.871 675.26L732.968 394.5Z" stroke="url(#paint0_linear_377_20)" stroke-width="10"/>
</g>
<defs>
<linearGradient id="paint0_linear_377_20" x1="375" y1="698" x2="375" y2="-3.21104e-05" gradientUnits="userSpaceOnUse">
<stop stop-color="white" stop-opacity="0.5"/>
<stop offset="0.478558" stop-color="white" stop-opacity="0.5"/>
<stop offset="0.552885" stop-color="white" stop-opacity="0"/>
</linearGradient>
<clipPath id="clip0_377_20">
<rect width="750" height="750" fill="white" transform="matrix(1 0 0 -1 0 750)"/>
</clipPath>
</defs>
</svg>
